<svg xmlns="http://www.w3.org/2000/svg" width="197.693" height="204.278" viewBox="0 0 197.693 204.278">
  <g id="_1" data-name="1" transform="translate(3053 -4515.15)">
    <path id="texture-old-antique-brown-stone-surface-old-antique-brown-stone" d="M126.959,20.918C114.651-8.623,77.121-6.635,43.149,25.361A146.3,146.3,0,0,0,14.984,62.238,130.916,130.916,0,0,0,6.008,82.095a97.441,97.441,0,0,0-6,32.518A56.845,56.845,0,0,0,3.943,136.8c4.675,11.2,12.965,17.848,23.285,20.08l.757.159.3.053a37.043,37.043,0,0,0,6.437.627h.8c15.625-.064,34.418-8.579,52.228-25.364,33.993-32,51.549-81.884,39.213-111.436" transform="matrix(0.819, 0.574, -0.574, 0.819, -2962.537, 4515.15)" fill="#e0b2c2"/>
    <text id="_1." data-name="1." transform="translate(-2934.037 4670.907)" fill="#903" font-size="85" font-family="Ubuntu-Bold, Ubuntu" font-weight="700"><tspan x="0" y="0">1.</tspan></text>
  </g>
</svg>
