<?xml version="1.0" encoding="UTF-8"?>
<svg id="Layer_1" xmlns="http://www.w3.org/2000/svg" version="1.1" viewBox="0 0 197.7 204.3">
  <!-- Generator: Adobe Illustrator 29.5.0, SVG Export Plug-In . SVG Version: 2.1.0 Build 137)  -->
  <defs>
    <style>
      .st0 {
        fill: #903;
      }

      .st1 {
        isolation: isolate;
      }

      .st2 {
        fill: #e0b2c2;
      }
    </style>
  </defs>
  <g id="_4">
    <path id="texture-old-antique-brown-stone-surface-old-antique-brown-stone" class="st2" d="M182.4,90c6.9-31.3-25-51.2-71.2-44.5-15.4,2.3-30.3,7-44.2,14-6.5,3.2-12.8,6.9-18.7,11.1-9.1,6.3-17.1,14.2-23.6,23.2-4.5,6.1-7.7,13.1-9.5,20.4-2.6,11.9.4,22.1,7.5,29.8l.5.6.2.2c1.5,1.5,3.2,3,4.9,4.2l.7.5c12.8,8.9,33.1,12.7,57.3,9.2,46.2-6.7,89.2-37.5,96.1-68.8"/>
    <g id="_4." class="st1">
      <g class="st1">
        <path class="st0" d="M158.5,96.9v35.4h6.3v10.4h-6.3v13.2h-12.4v-13.2h-25.4v-9.3c1.2-2.5,2.8-5.3,4.7-8.5,1.9-3.1,4-6.4,6.2-9.7,2.3-3.3,4.7-6.6,7.3-9.7,2.5-3.2,5.1-6,7.6-8.6h12ZM146.1,112.3c-2.2,2.9-4.6,6-7.1,9.4-2.5,3.4-4.6,6.9-6.3,10.5h13.3v-19.9Z"/>
        <path class="st0" d="M185.6,149c0,2.5-.8,4.5-2.4,5.8s-3.4,2-5.5,2-3.9-.7-5.5-2-2.4-3.3-2.4-5.8.8-4.5,2.4-5.8c1.6-1.3,3.4-2,5.5-2s3.9.7,5.5,2c1.6,1.3,2.4,3.3,2.4,5.8Z"/>
      </g>
    </g>
  </g>
</svg>