<?xml version="1.0" encoding="UTF-8"?>
<svg id="Layer_1" xmlns="http://www.w3.org/2000/svg" version="1.1" viewBox="0 0 197.7 204.3">
  <!-- Generator: Adobe Illustrator 29.5.0, SVG Export Plug-In . SVG Version: 2.1.0 Build 137)  -->
  <defs>
    <style>
      .st0 {
        fill: #903;
      }

      .st1 {
        isolation: isolate;
      }

      .st2 {
        fill: #d699ad;
      }
    </style>
  </defs>
  <g id="_5">
    <path id="texture-old-antique-brown-stone-surface-old-antique-brown-stone" class="st2" d="M182.4,90c6.9-31.3-25-51.2-71.2-44.5-15.4,2.3-30.3,7-44.2,14-6.5,3.2-12.8,6.9-18.7,11.1-9.1,6.3-17.1,14.2-23.6,23.2-4.5,6.1-7.7,13.1-9.5,20.4-2.6,11.9.4,22.1,7.5,29.8l.5.6.2.2c1.5,1.5,3.2,3,4.9,4.2l.7.5c12.8,8.9,33.1,12.7,57.3,9.2,46.2-6.7,89.2-37.5,96.1-68.8"/>
    <g id="_5." class="st1">
      <g class="st1">
        <path class="st0" d="M150.9,138.4c0-1.6-.4-3.1-1.1-4.4-.7-1.3-2-2.3-3.8-3.2-1.8-.8-4.2-1.5-7.3-2-3.1-.5-6.9-.7-11.6-.7.6-5.3,1.1-10.6,1.5-16.1.4-5.4.7-10.5.9-15.3h31.9v10.6h-21.2c-.1,2-.2,4-.4,5.9-.1,1.9-.3,3.6-.5,5,8.3.6,14.4,2.5,18.3,5.8,3.9,3.3,5.9,7.9,5.9,13.8s-.5,5.2-1.4,7.6c-1,2.3-2.4,4.3-4.3,6-1.9,1.7-4.3,3-7.3,4-2.9,1-6.3,1.4-10.2,1.4s-3.1,0-4.8-.3c-1.7-.2-3.3-.5-4.8-.8-1.6-.3-3-.6-4.2-1-1.2-.3-2.2-.7-2.9-1l2.3-10.5c1.4.6,3.3,1.2,5.6,1.8,2.3.6,5.1.9,8.3.9s6.7-.8,8.5-2.3c1.8-1.6,2.6-3.4,2.6-5.5Z"/>
        <path class="st0" d="M186.9,149c0,2.5-.8,4.5-2.4,5.8s-3.4,2-5.5,2-3.9-.7-5.5-2-2.4-3.3-2.4-5.8.8-4.5,2.4-5.8c1.6-1.3,3.4-2,5.5-2s3.9.7,5.5,2c1.6,1.3,2.4,3.3,2.4,5.8Z"/>
      </g>
    </g>
  </g>
</svg>