<svg xmlns="http://www.w3.org/2000/svg" width="196.22" height="139.275" viewBox="0 0 196.22 139.275">
  <path id="Circle_select_tab" data-name="Circle select tab" d="M190.306,18.472C171.858-7.615,115.6-5.859,64.679,22.4A167.844,167.844,0,0,0,22.46,54.96,103.33,103.33,0,0,0,9.006,72.495C2.952,82.6-.049,92.349.015,101.21A32.665,32.665,0,0,0,5.91,120.8c7.008,9.894,19.434,15.761,34.9,17.732l1.134.141.445.047a93.241,93.241,0,0,0,9.648.554h1.2c23.421-.056,51.591-7.575,78.288-22.4,50.955-28.255,77.27-72.309,58.779-98.405M123.1,111.123c-45.59,25.289-95.856,26.922-112.332,3.661s7.146-62.621,52.7-87.91S159.326-.049,175.791,23.222s-7.114,62.65-52.673,87.9Z" fill="#903" opacity="0.29"/>
</svg>
