<svg xmlns="http://www.w3.org/2000/svg" width="254.896" height="254.895" viewBox="0 0 254.896 254.895">
  <g id="content-management_9130095" transform="translate(-1 -1)">
    <path id="Path_1744" data-name="Path 1744" d="M14.684,232.292h122.97l7.478,7.478a7.493,7.493,0,0,0,9.6.837l5.3-3.72a1.653,1.653,0,0,1,1.729-.039,55.656,55.656,0,0,0,10.369,4.314,1.643,1.643,0,0,1,1.192,1.227l1.2,6.4a7.507,7.507,0,0,0,7.367,6.1h12.317a7.492,7.492,0,0,0,7.382-6.19l1.111-6.294a1.645,1.645,0,0,1,1.208-1.246,55.223,55.223,0,0,0,10.423-4.3,1.654,1.654,0,0,1,1.744.031l5.221,3.693a7.472,7.472,0,0,0,9.62-.826l8.744-8.744a7.488,7.488,0,0,0,.841-9.6l-3.647-5.217a1.642,1.642,0,0,1-.035-1.737,52.181,52.181,0,0,0,4.376-10.512v-.008a1.669,1.669,0,0,1,1.254-1.243l6.228-1.08a7.489,7.489,0,0,0,6.209-7.39V181.961a7.491,7.491,0,0,0-6.166-7.378l-6.263-1.127a1.64,1.64,0,0,1-1.246-1.227,53.935,53.935,0,0,0-4.4-10.481,1.63,1.63,0,0,1,.035-1.725l3.666-5.26a7.48,7.48,0,0,0-.857-9.6l-8.756-8.736a7.487,7.487,0,0,0-9.578-.841l-5.24,3.647a1.677,1.677,0,0,1-1.733.031,55.071,55.071,0,0,0-10.442-4.249,1.64,1.64,0,0,1-1.2-1.25l-1.119-6.379a7.48,7.48,0,0,0-7.382-6.2H181.907a7.5,7.5,0,0,0-7.37,6.12l-.332,1.78V48.272a3.308,3.308,0,0,0-.864-2.091l0,0L130.028,2.868a3.333,3.333,0,0,0-2.1-.868H14.683A12.7,12.7,0,0,0,2,14.684V219.608a12.7,12.7,0,0,0,12.684,12.684Zm164.472-97.417,1.208-6.483a1.572,1.572,0,0,1,1.544-1.281h12.306a1.568,1.568,0,0,1,1.544,1.3l1.123,6.383a7.511,7.511,0,0,0,5.372,5.912,49.175,49.175,0,0,1,9.311,3.786,7.533,7.533,0,0,0,7.915-.394l5.24-3.647a1.569,1.569,0,0,1,2.007.177l8.756,8.736a1.564,1.564,0,0,1,.178,2.007l-3.662,5.26a7.51,7.51,0,0,0-.378,7.957,48.147,48.147,0,0,1,3.921,9.327,7.571,7.571,0,0,0,5.881,5.375l6.259,1.127a1.568,1.568,0,0,1,1.293,1.544v12.275a1.567,1.567,0,0,1-1.3,1.547l-6.232,1.084a7.535,7.535,0,0,0-5.931,5.449,46.029,46.029,0,0,1-3.882,9.308,7.537,7.537,0,0,0,.378,7.976l3.647,5.217a1.564,1.564,0,0,1-.174,2.01l-8.744,8.744a1.564,1.564,0,0,1-2.014.174l-5.217-3.693a7.559,7.559,0,0,0-7.976-.409,49.015,49.015,0,0,1-9.3,3.84,7.518,7.518,0,0,0-5.356,5.892l-1.111,6.29a1.573,1.573,0,0,1-1.547,1.3H181.9a1.571,1.571,0,0,1-1.54-1.277l-1.2-6.394a7.563,7.563,0,0,0-5.314-5.811,49.348,49.348,0,0,1-9.261-3.851,7.751,7.751,0,0,0-3.681-.942,7.415,7.415,0,0,0-4.264,1.343l-5.3,3.72a1.565,1.565,0,0,1-2.01-.174l-8.74-8.74a1.569,1.569,0,0,1-.174-2.014L144.1,219.6a7.547,7.547,0,0,0,.421-7.965,49.079,49.079,0,0,1-3.84-9.4,7.526,7.526,0,0,0-5.92-5.368l-6.305-1.1a1.565,1.565,0,0,1-1.3-1.544V181.961a1.569,1.569,0,0,1,1.289-1.544l6.329-1.138a7.553,7.553,0,0,0,5.846-5.26,53.02,53.02,0,0,1,3.913-9.45,7.533,7.533,0,0,0-.417-7.938l-3.7-5.267a1.564,1.564,0,0,1,.174-2.01l8.756-8.733a1.566,1.566,0,0,1,2-.177l5.321,3.674a7.525,7.525,0,0,0,7.891.382,50.066,50.066,0,0,1,9.269-3.8,7.543,7.543,0,0,0,5.333-5.823ZM164.09,45.312H137.65a6.76,6.76,0,0,1-6.753-6.753V12.118ZM7.927,14.684a6.762,6.762,0,0,1,6.757-6.757H124.97V38.559a12.694,12.694,0,0,0,12.68,12.68h30.628v85.14a55.525,55.525,0,0,0-6.521,2.9,1.647,1.647,0,0,1-1.725-.031l-5.317-3.674a7.5,7.5,0,0,0-9.558.853l-8.756,8.733a7.473,7.473,0,0,0-2.182,5.892H30.567a2.964,2.964,0,0,0,0,5.927H137.109l2.158,3.068a1.652,1.652,0,0,1,.039,1.729,59.223,59.223,0,0,0-4.353,10.5,1.616,1.616,0,0,1-1.235,1.173l-6.328,1.138a7.461,7.461,0,0,0-3.613,1.756H30.567a2.964,2.964,0,0,0,0,5.927h90.66v11.97a7.488,7.488,0,0,0,6.209,7.386l.044.008H30.567a2.964,2.964,0,1,0,0,5.927h105.7a54.439,54.439,0,0,0,3.027,6.88,1.669,1.669,0,0,1-.035,1.748l-3.693,5.225a7.484,7.484,0,0,0-1.347,4.955H14.684a6.762,6.762,0,0,1-6.757-6.757V14.684Z" transform="translate(0 0)" fill="#45596d" stroke="#45596d" stroke-width="2"/>
    <path id="Path_1745" data-name="Path 1745" d="M10.751,17.092H56.976a2.964,2.964,0,0,0,0-5.927H10.751a2.964,2.964,0,1,0,0,5.927Z" transform="translate(17.084 27.05)" fill="#45596d" stroke="#45596d" stroke-width="2"/>
    <path id="Path_1746" data-name="Path 1746" d="M126.533,33.327H11.443a2.964,2.964,0,0,0,0,5.927h115.09a2.964,2.964,0,0,0,0-5.927Z" transform="translate(19.124 92.461)" fill="#45596d" stroke="#45596d" stroke-width="2"/>
    <path id="Path_1747" data-name="Path 1747" d="M14.522,59.917H132.588a7.354,7.354,0,0,0,7.529-7.15V24.9a7.354,7.354,0,0,0-7.529-7.15H14.522A7.353,7.353,0,0,0,7,24.9V52.767a7.353,7.353,0,0,0,7.525,7.15ZM12.925,24.9a1.469,1.469,0,0,1,1.6-1.223H132.588a1.471,1.471,0,0,1,1.6,1.223V52.767a1.471,1.471,0,0,1-1.6,1.223H14.522a1.469,1.469,0,0,1-1.6-1.223Z" transform="translate(14.752 46.48)" fill="#b81416" stroke="#b81416" stroke-width="2"/>
    <path id="Path_1748" data-name="Path 1748" d="M40.984,73.075a32.021,32.021,0,1,0,32.048-32.1,32.083,32.083,0,0,0-32.048,32.1ZM73.032,46.9A26.146,26.146,0,1,1,46.911,73.075,26.15,26.15,0,0,1,73.032,46.9Z" transform="translate(115.061 115.029)" fill="#45596d" stroke="#45596d" stroke-width="2"/>
  </g>
</svg>
