<svg xmlns="http://www.w3.org/2000/svg" width="170.436" height="170.42" viewBox="0 0 170.436 170.42">
  <g id="employee_470268" transform="translate(0 -0.023)">
    <g id="Group_1278" data-name="Group 1278" transform="translate(0 0.023)">
      <g id="Group_1277" data-name="Group 1277" transform="translate(0 0)">
        <path id="Path_1818" data-name="Path 1818" d="M137.846,113.644A22.491,22.491,0,0,0,148.6,94.468v-17.2a22.511,22.511,0,0,0-22.485-22.486h-.025a22.431,22.431,0,0,0-6.786,1.047V16.979a2.5,2.5,0,0,0-2.5-2.5H95.444v-3.2a2.5,2.5,0,0,0-2.5-2.5H72.64a14.009,14.009,0,0,0-25.972,0h-20.3a2.5,2.5,0,0,0-2.5,2.5v3.2H2.5a2.5,2.5,0,0,0-2.5,2.5V156.62a2.5,2.5,0,0,0,2.5,2.5H81.8v8.821a2.5,2.5,0,0,0,2.5,2.5h18.652a2.5,2.5,0,0,0,0-5H86.8v-10.59c0-.466.013-.932.031-1.4,0-.092.007-.183.011-.275q.031-.648.087-1.292c.01-.122.022-.243.034-.365.039-.4.083-.8.135-1.2.018-.133.038-.266.057-.4q.068-.476.15-.949c.028-.161.054-.322.084-.481.059-.316.125-.63.193-.944.006-.025.014-.05.02-.075a35.805,35.805,0,0,1,2.192-6.715l.065-.144c.177-.4.363-.795.555-1.187.141-.286.282-.573.431-.856.049-.093.1-.187.147-.28a38.956,38.956,0,0,1,4.446-6.575q1-1.194,2.084-2.309l.108-.11q1.056-1.076,2.19-2.073l.1-.086q.548-.479,1.113-.939l.166-.134q.562-.452,1.137-.886l.1-.073c.327-.244.659-.481.994-.715.124-.087.248-.175.374-.26q.471-.323.952-.632c.193-.124.387-.246.583-.368.147-.091.295-.181.442-.27q.648-.391,1.308-.761l.084-.047a41.842,41.842,0,0,1,7.508-3.239l4,7.769-5.361,23.269a2.5,2.5,0,0,0,.749,2.406l10.366,9.488a2.5,2.5,0,0,0,3.376,0l10.366-9.488a2.5,2.5,0,0,0,.749-2.406l-5.361-23.269,4-7.768a41.81,41.81,0,0,1,16.02,9.469,36.571,36.571,0,0,1,11.856,26.566v10.589H111.288a2.5,2.5,0,1,0,0,5h56.647a2.5,2.5,0,0,0,2.5-2.5v-13.09C170.436,135.759,156.392,118.942,137.846,113.644ZM117.979,61.817c.041-.022.077-.049.117-.073A17.473,17.473,0,0,1,143.6,77.3v5.87c-7.956-1.493-11.176-9.586-11.319-9.957a2.5,2.5,0,0,0-4.54-.3c-.053.1-5.219,9.369-19.11,10.4V77.271c0-.265.008-.529.02-.791q0-.112.012-.224.019-.328.05-.651c.007-.069.013-.138.02-.207.023-.214.051-.426.081-.637q.024-.168.052-.335c.022-.133.046-.265.071-.4q.063-.337.14-.669c.02-.088.039-.176.061-.264.039-.157.08-.312.123-.467.016-.058.033-.116.049-.173q.229-.8.531-1.564l0-.011A17.577,17.577,0,0,1,117.979,61.817ZM28.865,13.779H48.483a2.5,2.5,0,0,0,2.429-1.905,9,9,0,0,1,17.483,0,2.5,2.5,0,0,0,2.429,1.905H90.443V28.1H28.865Zm77.219,34.135a2.5,2.5,0,0,0-2.5,2.5v67.891a46.47,46.47,0,0,0-7.762,5.769l-.113.1-.013.013a44.1,44.1,0,0,0-9.042,11.61c-.084.156-.164.315-.246.472q-.173.332-.34.666a40.414,40.414,0,0,0-2.873,7.5H15.724V105.77a2.5,2.5,0,0,0-5,0v41.17a2.5,2.5,0,0,0,2.5,2.5H82.176q-.121.887-.2,1.782-.037.394-.066.79c-.013.188-.028.376-.039.564q-.041.7-.056,1.405c0,.046,0,.091-.005.137H5V19.48H23.863v3.8H13.223a2.5,2.5,0,0,0-2.5,2.5V97.435a2.5,2.5,0,0,0,5,0V28.278h8.139v2.327a2.5,2.5,0,0,0,2.5,2.5H92.943a2.5,2.5,0,0,0,2.5-2.5V28.278h8.139v13.8a2.5,2.5,0,0,0,5,0v-16.3a2.5,2.5,0,0,0-2.5-2.5H95.444v-3.8h18.862V58.129a22.679,22.679,0,0,0-5.722,5.042V50.414A2.5,2.5,0,0,0,106.083,47.914Zm8.223,65.754a45.673,45.673,0,0,0-5.722,2.071v-7.217a22.644,22.644,0,0,0,5.722,5.068Zm19.414,35.889-7.6,6.958-7.6-6.958,4.792-20.8h5.62Zm-14.063-31.993c.217-.04.434-.077.651-.114l.411-.067q.464-.072.928-.134c.317-.041.634-.08.952-.114q.253-.027.507-.051c.425-.039.851-.074,1.276-.1.1-.006.2-.011.306-.016.292-.015.584-.023.875-.031.185,0,.369.014.556.014s.371-.01.556-.014c.292.008.584.016.875.031l.306.016c.425.025.851.06,1.276.1q.253.024.506.051c.319.034.637.073.955.115s.616.085.923.133l.417.067c.216.036.432.073.647.113l-3.186,6.191h-6.55Zm7.137-5.629c-.214-.006-.427-.014-.642-.017h-.068c-.215,0-.428.011-.642.017a17.361,17.361,0,0,1-7.291-1.911c-.057-.036-.112-.075-.172-.108A17.543,17.543,0,0,1,109.3,99.249l-.033-.117q-.069-.25-.132-.5c-.014-.057-.026-.116-.04-.173q-.089-.38-.162-.766c-.023-.123-.046-.247-.066-.371s-.037-.231-.054-.348c-.029-.2-.056-.409-.078-.616-.008-.076-.015-.152-.023-.228q-.03-.321-.049-.645-.006-.113-.012-.226c-.012-.262-.02-.525-.02-.79V88.323c11.132-.706,17.7-5.945,20.949-9.568,2.293,3.571,6.72,8.511,14.019,9.479v6.234A17.5,17.5,0,0,1,126.794,111.935Z" transform="translate(0 -0.023)" fill="#45596d"/>
      </g>
    </g>
    <g id="Group_1280" data-name="Group 1280" transform="translate(23.863 51.506)">
      <g id="Group_1279" data-name="Group 1279">
        <path id="Path_1819" data-name="Path 1819" d="M128.372,162.563a2.5,2.5,0,0,0-3.049,3.965A32.87,32.87,0,0,1,138.175,190.3l-7.237,0h0l-24.652-.011L90.447,165.431h0l-1.1-1.728a33.168,33.168,0,0,1,29.709-.972,2.5,2.5,0,0,0,2.1-4.539,38.154,38.154,0,0,0-36.662,2.582,2.5,2.5,0,0,0-.751,3.444l1.2,1.889a33.474,33.474,0,0,0-.273,53.153,2.5,2.5,0,0,0,3.519-.459l1.7-2.221a27.97,27.97,0,0,0,15.276,4.48A28.311,28.311,0,0,0,133.32,195.3l7.446,0h0a2.5,2.5,0,0,0,2.5-2.453c0-.021,0-.045,0-.063A37.863,37.863,0,0,0,128.372,162.563Zm-41,49.066,0,0-1.561,2.043a28.479,28.479,0,0,1,1.831-43.339l14.223,22.319Zm17.788,4.43a23.026,23.026,0,0,1-12.23-3.467l13.216-17.3,18.75.008h3.4A23.309,23.309,0,0,1,105.164,216.058Z" transform="translate(-71.687 -154.682)" fill="#b81416"/>
      </g>
    </g>
  </g>
</svg>
