<svg xmlns="http://www.w3.org/2000/svg" xmlns:xlink="http://www.w3.org/1999/xlink" width="264.465" height="264.463" viewBox="0 0 264.465 264.463">
  <defs>
    <clipPath id="clip-path">
      <path id="path5637" d="M0-682.665H264.464V-418.2H0Z" transform="translate(0 682.665)" fill="#45596d" stroke="#45596d" stroke-width="1.333"/>
    </clipPath>
  </defs>
  <g id="g5631" transform="translate(0 682.664)">
    <g id="g5633" transform="translate(0 -682.665)">
      <g id="g5635" clip-path="url(#clip-path)">
        <g id="g5641" transform="translate(3.874 88.713)">
          <path id="path5643" d="M-147.289-17.68l-4.746,1.393a11.274,11.274,0,0,1-12.1-3.931l-3.281-4.253a11.272,11.272,0,0,0-17.853,0l-3.281,4.253a11.274,11.274,0,0,1-12.1,3.931l-5.154-1.512A11.273,11.273,0,0,0-220.252-7.306l-.154,5.369a11.276,11.276,0,0,1-7.479,10.294l-5.059,1.806a11.274,11.274,0,0,0-5.517,16.979l3.032,4.434a11.273,11.273,0,0,1,0,12.724l-3.032,4.434a11.284,11.284,0,0,0,2.089,15.032" transform="translate(240.433 28.861)" fill="none" stroke="#45596d" stroke-linecap="round" stroke-linejoin="round" stroke-miterlimit="10" stroke-width="6"/>
        </g>
        <g id="g5645" transform="translate(21.177 188.365)">
          <path id="path5647" d="M0,0A11.263,11.263,0,0,1,2.724,7.025l.154,5.369A11.274,11.274,0,0,0,17.321,22.889l5.154-1.512a11.274,11.274,0,0,1,12.1,3.932l3.281,4.253A11.28,11.28,0,0,0,53.97,31.369" fill="none" stroke="#45596d" stroke-linecap="round" stroke-linejoin="round" stroke-miterlimit="10" stroke-width="6"/>
        </g>
        <g id="g5649" transform="translate(33.576 121.128)">
          <path id="path5651" d="M-107.867-44.561a34.606,34.606,0,0,1,.558,6.207A34.386,34.386,0,0,1-141.695-3.969a34.386,34.386,0,0,1-34.386-34.385,34.386,34.386,0,0,1,34.386-34.387,34.227,34.227,0,0,1,17.447,4.749" transform="translate(176.081 72.741)" fill="none" stroke="#45596d" stroke-linecap="round" stroke-linejoin="round" stroke-miterlimit="10" stroke-width="6"/>
        </g>
        <g id="g5653" transform="translate(53.666 141.218)">
          <path id="path5655" d="M-26.1-2.1l3.367,6.348A2.506,2.506,0,0,0-21.7,5.283l6.348,3.366a2.5,2.5,0,0,1,0,4.424L-21.7,16.438a2.512,2.512,0,0,0-1.039,1.039L-26.1,23.826a2.5,2.5,0,0,1-4.423,0l-3.366-6.349a2.509,2.509,0,0,0-1.039-1.039l-6.349-3.366a2.5,2.5,0,0,1,0-4.424l6.349-3.366a2.5,2.5,0,0,0,1.039-1.039L-30.526-2.1A2.5,2.5,0,0,1-26.1-2.1Z" transform="translate(42.61 3.435)" fill="none" stroke="#b81416" stroke-linecap="round" stroke-linejoin="round" stroke-miterlimit="10" stroke-width="6"/>
        </g>
        <g id="g5657" transform="translate(168.729 88.713)">
          <path id="path5659" d="M0-18.275l3.464,1.017a11.274,11.274,0,0,0,12.1-3.932l3.28-4.253a11.274,11.274,0,0,1,17.853,0l3.28,4.253a11.274,11.274,0,0,0,12.1,3.932l5.154-1.512A11.273,11.273,0,0,1,71.68-8.278l.154,5.37A11.276,11.276,0,0,0,79.313,7.387l5.059,1.805a11.274,11.274,0,0,1,5.517,16.98l-3.032,4.434a11.275,11.275,0,0,0,0,12.724l3.032,4.434a11.274,11.274,0,0,1-5.517,16.98l-5.059,1.806a11.274,11.274,0,0,0-7.479,10.293l-.154,5.37A11.273,11.273,0,0,1,57.236,92.708L52.082,91.2a11.274,11.274,0,0,0-12.1,3.932L36.7,99.38a11.278,11.278,0,0,1-16.549,1.426" transform="translate(0 29.832)" fill="none" stroke="#45596d" stroke-linecap="round" stroke-linejoin="round" stroke-miterlimit="10" stroke-width="6"/>
        </g>
        <g id="g5661" transform="translate(182.207 141.218)">
          <path id="path5663" d="M-26.1-2.1l3.366,6.348A2.506,2.506,0,0,0-21.7,5.283l6.348,3.366a2.5,2.5,0,0,1,0,4.424L-21.7,16.438a2.512,2.512,0,0,0-1.039,1.039L-26.1,23.826a2.5,2.5,0,0,1-4.423,0l-3.366-6.349a2.51,2.51,0,0,0-1.039-1.039l-6.348-3.366a2.5,2.5,0,0,1,0-4.424l6.348-3.366a2.5,2.5,0,0,0,1.039-1.039L-30.526-2.1A2.5,2.5,0,0,1-26.1-2.1Z" transform="translate(42.61 3.435)" fill="none" stroke="#b81416" stroke-linecap="round" stroke-linejoin="round" stroke-miterlimit="10" stroke-width="6"/>
        </g>
        <g id="g5665" transform="translate(61.705 186.23)">
          <path id="path5667" d="M-74.574,0-89.417,4.84a20.624,20.624,0,0,0-13.137,12.982L-121.733,74.36h52.217" transform="translate(121.733)" fill="none" stroke="#45596d" stroke-linecap="round" stroke-linejoin="round" stroke-miterlimit="10" stroke-width="6"/>
        </g>
        <g id="g5669" transform="translate(128.902 186.169)">
          <path id="path5671" d="M0-117.683H73.857L54.678-174.221A20.624,20.624,0,0,0,41.542-187.2l-15.029-4.9" transform="translate(0 192.104)" fill="none" stroke="#45596d" stroke-linecap="round" stroke-linejoin="round" stroke-miterlimit="10" stroke-width="6"/>
        </g>
        <g id="g5673" transform="translate(141.126 169.451)">
          <path id="path5675" d="M0,0V11.891" fill="none" stroke="#45596d" stroke-linecap="round" stroke-linejoin="round" stroke-miterlimit="10" stroke-width="6"/>
        </g>
        <g id="g5677" transform="translate(123.338 169.45)">
          <path id="path5679" d="M0-18.8V-30.695" transform="translate(0 30.695)" fill="none" stroke="#45596d" stroke-linecap="round" stroke-linejoin="round" stroke-miterlimit="10" stroke-width="6"/>
        </g>
        <g id="g5681" transform="translate(86.514 82.01)">
          <path id="path5683" d="M-116.694-106.429c21.379.181,13.548-5.705,16.765-17.4,4.144-15.068-7.736-12.333-8.193-25.145-.565-15.821-16.162-9-19.588-17.893-2.434-6.319-7.352-7.226-11.285-6.762a49.262,49.262,0,0,1-11.552,0c-3.933-.464-8.85.443-11.285,6.762-3.426,8.893-19.023,2.072-19.588,17.893-.457,12.812-12.336,10.077-8.193,25.145,3.217,11.7-4.614,17.583,16.765,17.4" transform="translate(190.489 173.734)" fill="none" stroke="#45596d" stroke-linecap="round" stroke-linejoin="round" stroke-miterlimit="10" stroke-width="6"/>
        </g>
        <g id="g5685" transform="translate(162.116 135.121)">
          <path id="path5687" d="M-.9-22.433a34.511,34.511,0,0,0-.57,6.207A34.387,34.387,0,0,0,32.915,18.161,34.387,34.387,0,0,0,67.3-16.226a34.227,34.227,0,0,0-6.7-20.393" transform="translate(1.471 36.619)" fill="none" stroke="#45596d" stroke-linecap="round" stroke-linejoin="round" stroke-miterlimit="10" stroke-width="6"/>
        </g>
        <g id="g5689" transform="translate(177.938 121.128)">
          <path id="path5691" d="M-55.115-6.481a34.226,34.226,0,0,0-16.29-4.1A34.214,34.214,0,0,0-89.969-5.131" transform="translate(89.969 10.58)" fill="none" stroke="#45596d" stroke-linecap="round" stroke-linejoin="round" stroke-miterlimit="10" stroke-width="6"/>
        </g>
        <g id="g5693" transform="translate(103.51 113.208)">
          <path id="path5695" d="M-45.419-90.475h0A28.722,28.722,0,0,1-74.141-119.2v-20.075A8.383,8.383,0,0,1-63.268-147.3a57.683,57.683,0,0,0,35.7,0A8.383,8.383,0,0,1-16.7-139.273V-119.2A28.722,28.722,0,0,1-45.419-90.475Z" transform="translate(74.141 147.69)" fill="none" stroke="#45596d" stroke-linecap="round" stroke-linejoin="round" stroke-miterlimit="10" stroke-width="6"/>
        </g>
        <g id="g5697" transform="translate(106.73 175.687)">
          <path id="path5699" d="M-78.95-6.367l-7.641-3.821a1.947,1.947,0,0,0-2.293.412l-14.491,15.5-14.491-15.5a1.947,1.947,0,0,0-2.293-.412L-127.8-6.367a1.946,1.946,0,0,0-.712,2.875L-113.754,17.1a3.145,3.145,0,0,0,5.2-.132l5.177-8.056,5.177,8.056A3.145,3.145,0,0,0-93,17.1L-78.238-3.492A1.947,1.947,0,0,0-78.95-6.367Z" transform="translate(128.878 10.394)" fill="none" stroke="#45596d" stroke-linecap="round" stroke-linejoin="round" stroke-miterlimit="10" stroke-width="6"/>
        </g>
        <g id="g5701" transform="translate(90.879 233.762)">
          <path id="path5703" d="M-14.109,0l-8.923,26.828" transform="translate(23.032)" fill="none" stroke="#45596d" stroke-linecap="round" stroke-linejoin="round" stroke-miterlimit="10" stroke-width="6"/>
        </g>
        <g id="g5705" transform="translate(164.662 233.762)">
          <path id="path5707" d="M0,0,8.923,26.828" fill="none" stroke="#45596d" stroke-linecap="round" stroke-linejoin="round" stroke-miterlimit="10" stroke-width="6"/>
        </g>
        <g id="g5709" transform="translate(132.232 215.192)">
          <path id="path5711" d="M0,0V2.857" fill="none" stroke="#45596d" stroke-linecap="round" stroke-linejoin="round" stroke-miterlimit="10" stroke-width="6"/>
        </g>
        <g id="g5713" transform="translate(132.232 234.971)">
          <path id="path5715" d="M0,0V2.857" fill="none" stroke="#45596d" stroke-linecap="round" stroke-linejoin="round" stroke-miterlimit="10" stroke-width="6"/>
        </g>
        <g id="g5717" transform="translate(103.063 3.874)">
          <path id="path5719" d="M-49.242-1.7-40.571,11.7a2.351,2.351,0,0,0,1.367.993L-23.79,16.8a2.348,2.348,0,0,1,1.218,3.749L-32.627,32.932a2.35,2.35,0,0,0-.522,1.606l.855,15.93a2.348,2.348,0,0,1-3.189,2.317l-14.887-5.736a2.35,2.35,0,0,0-1.689,0l-14.886,5.736a2.348,2.348,0,0,1-3.19-2.317l.855-15.93a2.35,2.35,0,0,0-.522-1.606L-79.856,20.547A2.348,2.348,0,0,1-78.637,16.8l15.415-4.109a2.352,2.352,0,0,0,1.366-.993L-53.185-1.7A2.348,2.348,0,0,1-49.242-1.7Z" transform="translate(80.382 2.767)" fill="none" stroke="#b81416" stroke-linecap="round" stroke-linejoin="round" stroke-miterlimit="10" stroke-width="6"/>
        </g>
        <g id="g5721" transform="translate(56.354 33.554)">
          <path id="path5723" d="M-33.776-1.162l5.948,9.184a1.612,1.612,0,0,0,.937.681l10.573,2.819a1.611,1.611,0,0,1,.836,2.571l-6.9,8.5a1.61,1.61,0,0,0-.357,1.1l.587,10.927a1.611,1.611,0,0,1-2.188,1.589L-34.55,32.272a1.61,1.61,0,0,0-1.158,0l-10.211,3.934a1.611,1.611,0,0,1-2.188-1.589l.587-10.927a1.611,1.611,0,0,0-.358-1.1l-6.9-8.5a1.61,1.61,0,0,1,.835-2.571L-43.365,8.7a1.61,1.61,0,0,0,.936-.681l5.948-9.184A1.611,1.611,0,0,1-33.776-1.162Z" transform="translate(55.136 1.897)" fill="none" stroke="#b81416" stroke-linecap="round" stroke-linejoin="round" stroke-miterlimit="10" stroke-width="6"/>
        </g>
        <g id="g5725" transform="translate(168.095 33.554)">
          <path id="path5727" d="M-33.776-1.162l5.948,9.184a1.612,1.612,0,0,0,.937.681l10.574,2.819a1.61,1.61,0,0,1,.835,2.571l-6.9,8.5a1.61,1.61,0,0,0-.357,1.1l.587,10.927a1.611,1.611,0,0,1-2.188,1.589l-10.21-3.934a1.612,1.612,0,0,0-1.159,0l-10.211,3.934a1.611,1.611,0,0,1-2.188-1.589l.587-10.927a1.611,1.611,0,0,0-.358-1.1l-6.9-8.5a1.61,1.61,0,0,1,.835-2.571L-43.365,8.7a1.61,1.61,0,0,0,.936-.681l5.948-9.184A1.611,1.611,0,0,1-33.776-1.162Z" transform="translate(55.135 1.897)" fill="none" stroke="#b81416" stroke-linecap="round" stroke-linejoin="round" stroke-miterlimit="10" stroke-width="6"/>
        </g>
      </g>
    </g>
  </g>
</svg>
