<svg xmlns="http://www.w3.org/2000/svg" xmlns:xlink="http://www.w3.org/1999/xlink" width="171.24" height="171.24" viewBox="0 0 171.24 171.24">
  <defs>
    <clipPath id="clip-path">
      <path id="path801" d="M0-682.665H171.24v171.24H0Z" transform="translate(0 682.665)" fill="#b81416" stroke="#b81416" stroke-width="1.333"/>
    </clipPath>
  </defs>
  <g id="g795" transform="translate(0 682.664)">
    <g id="g797" transform="translate(0 -682.665)">
      <g id="g799" clip-path="url(#clip-path)">
        <g id="g805" transform="translate(2.508 149.81)">
          <path id="path807" d="M-28.129,0h0a9.418,9.418,0,0,0-9.419,9.419h0a9.418,9.418,0,0,0,9.419,9.419,9.418,9.418,0,0,0,9.419-9.419h0A9.418,9.418,0,0,0-28.129,0Z" transform="translate(37.548)" fill="none" stroke="#45596d" stroke-linecap="round" stroke-linejoin="round" stroke-miterlimit="10" stroke-width="5"/>
        </g>
        <g id="g809" transform="translate(2.508 96.184)">
          <path id="path811" d="M-28.129,0h0a9.418,9.418,0,0,0-9.419,9.419v26.9a9.418,9.418,0,0,0,9.419,9.419,9.418,9.418,0,0,0,9.419-9.419V9.419A9.418,9.418,0,0,0-28.129,0Z" transform="translate(37.548)" fill="none" stroke="#45596d" stroke-linecap="round" stroke-linejoin="round" stroke-miterlimit="10" stroke-width="5"/>
        </g>
        <g id="g813" transform="translate(31.986 149.81)">
          <path id="path815" d="M-28.129,0h0a9.418,9.418,0,0,0-9.419,9.419h0a9.418,9.418,0,0,0,9.419,9.419,9.418,9.418,0,0,0,9.419-9.419h0A9.418,9.418,0,0,0-28.129,0Z" transform="translate(37.548)" fill="none" stroke="#45596d" stroke-linecap="round" stroke-linejoin="round" stroke-miterlimit="10" stroke-width="5"/>
        </g>
        <g id="g817" transform="translate(31.987 75.061)">
          <path id="path819" d="M-56.257-147.8v7.95a9.388,9.388,0,0,1-2.759,6.659,9.376,9.376,0,0,1-6.659,2.759,9.417,9.417,0,0,1-9.418-9.418v-48.021a9.415,9.415,0,0,1,9.418-9.418,9.417,9.417,0,0,1,9.418,9.418v30.037" transform="translate(75.093 197.293)" fill="none" stroke="#45596d" stroke-linecap="round" stroke-linejoin="round" stroke-miterlimit="10" stroke-width="5"/>
        </g>
        <g id="g821" transform="translate(61.463 149.81)">
          <path id="path823" d="M-28.129,0h0a9.418,9.418,0,0,0-9.419,9.419h0a9.418,9.418,0,0,0,9.419,9.419,9.418,9.418,0,0,0,9.419-9.419h0A9.418,9.418,0,0,0-28.129,0Z" transform="translate(37.548)" fill="none" stroke="#b81416" stroke-linecap="round" stroke-linejoin="round" stroke-miterlimit="10" stroke-width="5"/>
        </g>
        <g id="g825" transform="translate(61.463 36.606)">
          <path id="path827" d="M-28.129,0h0a9.418,9.418,0,0,0-9.419,9.419V95.895a9.419,9.419,0,0,0,9.419,9.419,9.419,9.419,0,0,0,9.419-9.419V9.419A9.418,9.418,0,0,0-28.129,0Z" transform="translate(37.548)" fill="none" stroke="#b81416" stroke-linecap="round" stroke-linejoin="round" stroke-miterlimit="10" stroke-width="5"/>
        </g>
        <g id="g829" transform="translate(90.94 149.81)">
          <path id="path831" d="M-28.129,0h0a9.418,9.418,0,0,0-9.419,9.419h0a9.418,9.418,0,0,0,9.419,9.419,9.418,9.418,0,0,0,9.419-9.419h0A9.418,9.418,0,0,0-28.129,0Z" transform="translate(37.548)" fill="none" stroke="#45596d" stroke-linecap="round" stroke-linejoin="round" stroke-miterlimit="10" stroke-width="5"/>
        </g>
        <g id="g833" transform="translate(90.94 60.957)">
          <path id="path835" d="M-28.129,0h0a9.418,9.418,0,0,0-9.419,9.419V71.544a9.419,9.419,0,0,0,9.419,9.419,9.419,9.419,0,0,0,9.419-9.419V9.419A9.418,9.418,0,0,0-28.129,0Z" transform="translate(37.548)" fill="none" stroke="#45596d" stroke-linecap="round" stroke-linejoin="round" stroke-miterlimit="10" stroke-width="5"/>
        </g>
        <g id="g837" transform="translate(120.417 149.81)">
          <path id="path839" d="M-28.129,0h0a9.418,9.418,0,0,0-9.419,9.419h0a9.418,9.418,0,0,0,9.419,9.419,9.418,9.418,0,0,0,9.419-9.419h0A9.418,9.418,0,0,0-28.129,0Z" transform="translate(37.548)" fill="none" stroke="#45596d" stroke-linecap="round" stroke-linejoin="round" stroke-miterlimit="10" stroke-width="5"/>
        </g>
        <g id="g841" transform="translate(120.417 80.826)">
          <path id="path843" d="M-28.129,0h0a9.418,9.418,0,0,0-9.419,9.419V51.675a9.418,9.418,0,0,0,9.419,9.419,9.418,9.418,0,0,0,9.419-9.419V9.419A9.418,9.418,0,0,0-28.129,0Z" transform="translate(37.548)" fill="none" stroke="#45596d" stroke-linecap="round" stroke-linejoin="round" stroke-miterlimit="10" stroke-width="5"/>
        </g>
        <g id="g845" transform="translate(149.895 149.81)">
          <path id="path847" d="M-28.129,0h0a9.418,9.418,0,0,0-9.419,9.419h0a9.418,9.418,0,0,0,9.419,9.419,9.418,9.418,0,0,0,9.419-9.419h0A9.418,9.418,0,0,0-28.129,0Z" transform="translate(37.548)" fill="none" stroke="#45596d" stroke-linecap="round" stroke-linejoin="round" stroke-miterlimit="10" stroke-width="5"/>
        </g>
        <g id="g849" transform="translate(149.895 60.957)">
          <path id="path851" d="M-28.129,0h0a9.418,9.418,0,0,0-9.419,9.419V71.544a9.419,9.419,0,0,0,9.419,9.419,9.419,9.419,0,0,0,9.419-9.419V9.419A9.418,9.418,0,0,0-28.129,0Z" transform="translate(37.548)" fill="none" stroke="#45596d" stroke-linecap="round" stroke-linejoin="round" stroke-miterlimit="10" stroke-width="5"/>
        </g>
        <g id="g853" transform="translate(105.697 4.788)">
          <path id="path855" d="M-121.853-124.26a24.06,24.06,0,0,0,7.478-17.465,24.14,24.14,0,0,0-24.141-24.141,24.14,24.14,0,0,0-24.137,24.141,24.137,24.137,0,0,0,24.137,24.137,24.064,24.064,0,0,0,8.191-1.425" transform="translate(162.653 165.866)" fill="none" stroke="#45596d" stroke-linecap="round" stroke-linejoin="round" stroke-miterlimit="10" stroke-width="5"/>
        </g>
      </g>
    </g>
  </g>
</svg>
