<svg xmlns="http://www.w3.org/2000/svg" width="90.491" height="90.49" viewBox="0 0 90.491 90.49">
  <g id="Group_1360" data-name="Group 1360" transform="translate(6499 -18062.67)">
    <circle id="Ellipse_414" data-name="Ellipse 414" cx="45.245" cy="45.245" r="45.245" transform="translate(-6408.509 18062.67) rotate(90)" fill="#45596d"/>
    <g id="Group_996" data-name="Group 996" transform="translate(-6488.709 18073.467)">
      <path id="Path_797" data-name="Path 797" d="M65.68,29.572l-3.6-3.6a5.383,5.383,0,0,1-1.586-3.832v-5.1a7.625,7.625,0,0,0-7.616-7.616h-5.1a5.383,5.383,0,0,1-3.832-1.586L40.338,4.231a7.624,7.624,0,0,0-10.765,0l-3.606,3.6a5.383,5.383,0,0,1-3.832,1.586h-5.1a7.625,7.625,0,0,0-7.616,7.616v5.1a5.383,5.383,0,0,1-1.586,3.832l-3.6,3.606a7.624,7.624,0,0,0,0,10.766l3.6,3.6a5.383,5.383,0,0,1,1.586,3.832v5.1a7.625,7.625,0,0,0,7.616,7.616h5.1a5.383,5.383,0,0,1,3.832,1.586l3.606,3.606a7.625,7.625,0,0,0,10.765,0l3.6-3.6a5.383,5.383,0,0,1,3.832-1.586h5.1a7.625,7.625,0,0,0,7.616-7.616v-5.1a5.383,5.383,0,0,1,1.586-3.832l3.606-3.606a7.624,7.624,0,0,0,0-10.765Zm-1.553,9.217-3.6,3.6a7.57,7.57,0,0,0-2.23,5.383v5.1a5.426,5.426,0,0,1-5.419,5.419h-5.1a7.57,7.57,0,0,0-5.383,2.23l-3.6,3.6a5.418,5.418,0,0,1-7.663,0l-3.6-3.6a7.57,7.57,0,0,0-5.383-2.23h-5.1a5.426,5.426,0,0,1-5.419-5.419v-5.1a7.57,7.57,0,0,0-2.23-5.383L5.784,38.787a5.418,5.418,0,0,1,0-7.663l3.6-3.6a7.57,7.57,0,0,0,2.23-5.383v-5.1a5.426,5.426,0,0,1,5.419-5.419h5.1a7.57,7.57,0,0,0,5.383-2.23l3.6-3.6a5.418,5.418,0,0,1,7.663,0l3.6,3.6a7.57,7.57,0,0,0,5.383,2.23h5.1a5.426,5.426,0,0,1,5.419,5.419v5.1a7.57,7.57,0,0,0,2.23,5.383l3.6,3.6a5.418,5.418,0,0,1,0,7.663Z" fill="#f9f9f9" stroke="#45596d" stroke-width="1"/>
      <path id="Path_798" data-name="Path 798" d="M53.092,27.614a3.391,3.391,0,0,1-1-2.417V21.672a5.617,5.617,0,0,0-5.61-5.611H42.952a3.391,3.391,0,0,1-2.417-1l-2.5-2.495a5.615,5.615,0,0,0-7.934,0l-2.493,2.5a3.391,3.391,0,0,1-2.417,1H21.672a5.617,5.617,0,0,0-5.611,5.61V25.2a3.391,3.391,0,0,1-1,2.417l-2.495,2.5a5.617,5.617,0,0,0,0,7.934l2.495,2.5a3.391,3.391,0,0,1,1,2.417v3.528a5.617,5.617,0,0,0,5.611,5.6H25.2a3.391,3.391,0,0,1,2.417,1l2.5,2.495a5.617,5.617,0,0,0,7.934,0l2.5-2.495a3.391,3.391,0,0,1,2.417-1h3.528a5.617,5.617,0,0,0,5.6-5.611V42.952a3.391,3.391,0,0,1,1-2.417l2.495-2.5a5.617,5.617,0,0,0,0-7.934Zm.941,8.876-2.49,2.5A5.573,5.573,0,0,0,49.9,42.952v3.528A3.415,3.415,0,0,1,46.481,49.9H42.952a5.573,5.573,0,0,0-3.967,1.648l-2.493,2.49a3.417,3.417,0,0,1-4.827,0l-2.5-2.49A5.573,5.573,0,0,0,25.2,49.9H21.672a3.415,3.415,0,0,1-3.414-3.414V42.952a5.573,5.573,0,0,0-1.648-3.967l-2.49-2.493a3.416,3.416,0,0,1,0-4.827l2.49-2.5A5.573,5.573,0,0,0,18.258,25.2V21.672a3.415,3.415,0,0,1,3.414-3.414H25.2a5.573,5.573,0,0,0,3.967-1.648l2.493-2.49a3.417,3.417,0,0,1,4.827,0l2.5,2.49a5.573,5.573,0,0,0,3.967,1.648h3.528A3.415,3.415,0,0,1,49.9,21.672V25.2a5.573,5.573,0,0,0,1.648,3.967l2.49,2.493a3.416,3.416,0,0,1,0,4.833Z" transform="translate(0.879 0.879)" fill="#f9f9f9" stroke="#45596d" stroke-width="1"/>
      <path id="Path_799" data-name="Path 799" d="M45.4,26.893l-6.53-.949a.426.426,0,0,1-.315-.228L35.632,19.8a2.616,2.616,0,0,0-4.691,0l-2.92,5.917a.424.424,0,0,1-.315.23l-6.53.949a2.616,2.616,0,0,0-1.451,4.46l4.724,4.607a.412.412,0,0,1,.12.369l-1.115,6.5a2.611,2.611,0,0,0,3.793,2.756l5.842-3.076a.415.415,0,0,1,.39,0l5.84,3.076a2.614,2.614,0,0,0,3.794-2.756L42,36.328a.411.411,0,0,1,.121-.369l4.724-4.606a2.616,2.616,0,0,0-1.451-4.46Zm-.083,2.887-4.724,4.6a2.611,2.611,0,0,0-.752,2.316l1.116,6.5a.406.406,0,0,1-.167.41.4.4,0,0,1-.439.031l-5.841-3.07a2.611,2.611,0,0,0-2.433,0l-5.843,3.07a.4.4,0,0,1-.439-.031.406.406,0,0,1-.167-.41l1.116-6.5a2.611,2.611,0,0,0-.751-2.316L21.265,29.78a.419.419,0,0,1,.232-.714l6.53-.949a2.61,2.61,0,0,0,1.965-1.43l2.92-5.917a.42.42,0,0,1,.751,0l2.92,5.918a2.611,2.611,0,0,0,1.97,1.428l6.53.949a.419.419,0,0,1,.232.714Z" transform="translate(1.668 1.609)" fill="#f9f9f9" stroke="#45596d" stroke-width="1"/>
    </g>
  </g>
</svg>
