<svg xmlns="http://www.w3.org/2000/svg" width="72.264" height="72.264" viewBox="0 0 72.264 72.264">
  <g id="Group_6_icons_-_not_selected_8" data-name="Group 6 icons - not selected 8" transform="translate(17931.023 -2377.642)">
    <circle id="Ellipse_277" data-name="Ellipse 277" cx="36.132" cy="36.132" r="36.132" transform="translate(-17858.76 2377.642) rotate(90)" fill="#d0cabe"/>
    <g id="Layer_25" transform="translate(-17916.502 2390.722)">
      <g id="Group_558" data-name="Group 558" transform="translate(29.77 3)">
        <path id="Path_1203" data-name="Path 1203" d="M52.648,20.209C48.141,20.209,45,12.819,45,6.187a.638.638,0,0,1,.284-.53l3.824-2.549a.638.638,0,0,1,.991.53V4.912a.637.637,0,0,1-1.275,0V4.829l-2.547,1.7c.1,6.425,3.151,12.408,6.371,12.408s6.267-5.983,6.371-12.408l-2.547-1.7v.083a.637.637,0,1,1-1.275,0V3.637a.637.637,0,0,1,.99-.53l3.824,2.549a.637.637,0,0,1,.284.53C60.3,12.819,57.156,20.209,52.648,20.209Z" transform="translate(-45 -3)" fill="#aba28b"/>
      </g>
      <g id="Group_559" data-name="Group 559" transform="translate(3 34.868)">
        <path id="Path_1204" data-name="Path 1204" d="M8.1,63.2a5.1,5.1,0,1,1,5.1-5.1A5.1,5.1,0,0,1,8.1,63.2Zm0-8.923A3.824,3.824,0,1,0,11.923,58.1,3.828,3.828,0,0,0,8.1,54.275Z" transform="translate(-3 -53)" fill="#aba28b"/>
      </g>
      <g id="Group_560" data-name="Group 560" transform="translate(11.923 18.934)">
        <path id="Path_1205" data-name="Path 1205" d="M34.846,49.671H17.637a.637.637,0,0,1,0-1.275H34.846a7.019,7.019,0,0,0,7.011-7.011V28.637a.637.637,0,1,1,1.275,0V41.385A8.3,8.3,0,0,1,34.846,49.671Z" transform="translate(-17 -28)" fill="#aba28b"/>
      </g>
      <g id="Group_561" data-name="Group 561" transform="translate(3 3)">
        <path id="Path_1206" data-name="Path 1206" d="M3.637,34.868A.637.637,0,0,1,3,34.231V12.561A9.571,9.571,0,0,1,12.561,3H27.22a.637.637,0,0,1,0,1.275H12.561a8.3,8.3,0,0,0-8.286,8.286V34.231A.637.637,0,0,1,3.637,34.868Z" transform="translate(-3 -3)" fill="#aba28b"/>
      </g>
      <g id="Group_562" data-name="Group 562" transform="translate(5.549 5.549)">
        <path id="Path_1207" data-name="Path 1207" d="M7.637,35.044A.637.637,0,0,1,7,34.407V15.286A8.3,8.3,0,0,1,15.286,7H28.671a.637.637,0,0,1,0,1.275H15.286a7.019,7.019,0,0,0-7.011,7.011V34.407A.637.637,0,0,1,7.637,35.044Z" transform="translate(-7 -7)" fill="#aba28b"/>
      </g>
      <g id="Group_563" data-name="Group 563" transform="translate(10.648 12.56)">
        <path id="Path_1208" data-name="Path 1208" d="M19.462,23.1H15.637A.637.637,0,0,1,15,22.462V18.637A.637.637,0,0,1,15.637,18h3.824a.637.637,0,0,1,.637.637v3.824A.637.637,0,0,1,19.462,23.1Zm-3.187-1.275h2.549V19.275H16.275Z" transform="translate(-15 -18)" fill="#aba28b"/>
      </g>
      <g id="Group_564" data-name="Group 564" transform="translate(10.648 20.209)">
        <path id="Path_1209" data-name="Path 1209" d="M19.462,35.1H15.637A.637.637,0,0,1,15,34.462V30.637A.637.637,0,0,1,15.637,30h3.824a.637.637,0,0,1,.637.637v3.824A.637.637,0,0,1,19.462,35.1Zm-3.187-1.275h2.549V31.275H16.275Z" transform="translate(-15 -30)" fill="#aba28b"/>
      </g>
      <g id="Group_565" data-name="Group 565" transform="translate(10.648 27.857)">
        <path id="Path_1210" data-name="Path 1210" d="M19.462,47.1H15.637A.637.637,0,0,1,15,46.462V42.637A.637.637,0,0,1,15.637,42h3.824a.637.637,0,0,1,.637.637v3.824A.637.637,0,0,1,19.462,47.1Zm-3.187-1.275h2.549V43.275H16.275Z" transform="translate(-15 -42)" fill="#aba28b"/>
      </g>
      <g id="Group_566" data-name="Group 566" transform="translate(17.022 13.198)">
        <path id="Path_1211" data-name="Path 1211" d="M34.561,20.275H25.637a.637.637,0,1,1,0-1.275h8.923a.637.637,0,1,1,0,1.275Z" transform="translate(-25 -19)" fill="#aba28b"/>
      </g>
      <g id="Group_567" data-name="Group 567" transform="translate(17.022 15.747)">
        <path id="Path_1212" data-name="Path 1212" d="M37.747,24.275H25.637a.637.637,0,1,1,0-1.275h12.11a.637.637,0,1,1,0,1.275Z" transform="translate(-25 -23)" fill="#aba28b"/>
      </g>
      <g id="Group_568" data-name="Group 568" transform="translate(17.022 20.846)">
        <path id="Path_1213" data-name="Path 1213" d="M38.385,32.275H25.637a.637.637,0,1,1,0-1.275H38.385a.637.637,0,1,1,0,1.275Z" transform="translate(-25 -31)" fill="#aba28b"/>
      </g>
      <g id="Group_569" data-name="Group 569" transform="translate(17.022 23.396)">
        <path id="Path_1214" data-name="Path 1214" d="M40.3,36.275H25.637a.637.637,0,1,1,0-1.275H40.3a.637.637,0,1,1,0,1.275Z" transform="translate(-25 -35)" fill="#aba28b"/>
      </g>
      <g id="Group_570" data-name="Group 570" transform="translate(17.022 28.495)">
        <path id="Path_1215" data-name="Path 1215" d="M40.3,44.275H25.637a.637.637,0,1,1,0-1.275H40.3a.637.637,0,1,1,0,1.275Z" transform="translate(-25 -43)" fill="#aba28b"/>
      </g>
      <g id="Group_571" data-name="Group 571" transform="translate(17.022 31.044)">
        <path id="Path_1216" data-name="Path 1216" d="M40.3,48.275H25.637a.637.637,0,1,1,0-1.275H40.3a.637.637,0,1,1,0,1.275Z" transform="translate(-25 -47)" fill="#aba28b"/>
      </g>
      <g id="Group_572" data-name="Group 572" transform="translate(13.835 20.846)">
        <path id="Path_1217" data-name="Path 1217" d="M37.209,53.308H20.637a.637.637,0,1,1,0-1.275H37.209a8.3,8.3,0,0,0,8.286-8.286V31.637a.637.637,0,0,1,1.275,0v12.11A9.571,9.571,0,0,1,37.209,53.308Z" transform="translate(-20 -31)" fill="#aba28b"/>
      </g>
      <g id="Group_573" data-name="Group 573" transform="translate(6.187 38.055)">
        <path id="Path_1218" data-name="Path 1218" d="M9.912,61.824a1.912,1.912,0,1,1,1.912-1.912A1.914,1.914,0,0,1,9.912,61.824Zm0-2.549a.637.637,0,1,0,.637.637A.638.638,0,0,0,9.912,59.275Z" transform="translate(-8 -58)" fill="#aba28b"/>
      </g>
    </g>
  </g>
</svg>
