<svg xmlns="http://www.w3.org/2000/svg" width="72.264" height="72.264" viewBox="0 0 72.264 72.264">
  <g id="Group_4_icons_-_not_selected_2" data-name="Group 4 icons - not selected 2" transform="translate(18518.375 -2862.357)">
    <circle id="Ellipse_385" data-name="Ellipse 385" cx="36.132" cy="36.132" r="36.132" transform="translate(-18446.111 2862.357) rotate(90)" fill="#d0cabe"/>
    <g id="Group_926" data-name="Group 926" transform="translate(-18504.014 2872.882)">
      <path id="Path_1141" data-name="Path 1141" d="M28.723,46.349H6.952a1.358,1.358,0,0,1-1.369-1.376V20.15a.7.7,0,0,0-1.4,0V44.973a2.773,2.773,0,0,0,2.766,2.773H28.723a.7.7,0,1,0,0-1.4Z" transform="translate(0 -4.632)" fill="#aba28b"/>
      <path id="Path_1142" data-name="Path 1142" d="M44.324,31.876a.7.7,0,0,0,.7-.7V20.15a.7.7,0,0,0-1.4,0V31.178a.7.7,0,0,0,.7.7Z" transform="translate(-11.823 -4.632)" fill="#aba28b"/>
      <path id="Path_1143" data-name="Path 1143" d="M5.582,9.93V9.266A1.371,1.371,0,0,1,6.951,7.9H9.019v.971a2.078,2.078,0,1,0,4.156,0V7.9h3.436v.971a2.082,2.082,0,1,0,4.163,0V7.9H24.21v.971a2.078,2.078,0,1,0,4.156,0V7.9h2.067A1.371,1.371,0,0,1,31.8,9.266V9.93a.7.7,0,1,0,1.4,0A2.885,2.885,0,0,0,30.434,6.5H28.366a2.1,2.1,0,1,0-4.156-.447V6.5H20.774a2.114,2.114,0,1,0-4.163,0H13.175a2.114,2.114,0,1,0-4.156,0H6.951A2.772,2.772,0,0,0,4.185,9.266V9.93a.7.7,0,1,0,1.4,0ZM25.607,6.053a.682.682,0,0,1,1.362,0V8.868a.682.682,0,0,1-1.362,0Zm-7.6,0a.686.686,0,0,1,1.369,0V8.868a.685.685,0,0,1-1.369,0Zm-7.592,0a.682.682,0,0,1,1.362,0V8.868a.682.682,0,0,1-1.362,0Z" transform="translate(0 0)" fill="#aba28b"/>
      <path id="Path_1144" data-name="Path 1144" d="M32.5,15.457H4.884a.7.7,0,0,0,0,1.4H32.5a.7.7,0,1,0,0-1.4Z" transform="translate(0 -3.435)" fill="#aba28b"/>
      <path id="Path_1145" data-name="Path 1145" d="M12.148,24.233a2.15,2.15,0,1,0,2.15,2.15,2.15,2.15,0,0,0-2.15-2.15Zm0,2.9a.753.753,0,1,1,.753-.753.753.753,0,0,1-.753.753Z" transform="translate(-1.743 -6.065)" fill="#aba28b"/>
      <path id="Path_1146" data-name="Path 1146" d="M12.148,36.067a2.15,2.15,0,1,0,2.15,2.15,2.15,2.15,0,0,0-2.15-2.15Zm0,2.9a.753.753,0,1,1,.753-.753.753.753,0,0,1-.753.753Z" transform="translate(-1.743 -9.613)" fill="#aba28b"/>
      <path id="Path_1147" data-name="Path 1147" d="M12.148,47.9a2.15,2.15,0,1,0,2.15,2.15,2.15,2.15,0,0,0-2.15-2.15Zm0,2.9a.753.753,0,1,1,.753-.753.753.753,0,0,1-.753.753Z" transform="translate(-1.743 -13.16)" fill="#aba28b"/>
      <path id="Path_1148" data-name="Path 1148" d="M19.18,27.7H30.229a.7.7,0,1,0,0-1.4H19.18a.7.7,0,1,0,0,1.4Z" transform="translate(-4.286 -6.687)" fill="#aba28b"/>
      <path id="Path_1149" data-name="Path 1149" d="M33.042,38.842a.7.7,0,0,0-.7-.7H19.177a.7.7,0,0,0,0,1.4H32.344A.7.7,0,0,0,33.042,38.842Z" transform="translate(-4.285 -10.235)" fill="#aba28b"/>
      <path id="Path_1150" data-name="Path 1150" d="M19.18,49.974a.7.7,0,1,0,0,1.4h8.287a.7.7,0,1,0,0-1.4Z" transform="translate(-4.286 -13.782)" fill="#aba28b"/>
      <path id="Path_1151" data-name="Path 1151" d="M45.818,38.462A7.541,7.541,0,1,0,53.358,46a7.541,7.541,0,0,0-7.541-7.541Zm0,13.684A6.144,6.144,0,1,1,51.961,46a6.144,6.144,0,0,1-6.144,6.144Z" transform="translate(-10.22 -10.331)" fill="#aba28b"/>
      <path id="Path_1152" data-name="Path 1152" d="M52.64,47.037H49.445v-2.1a.7.7,0,1,0-1.4,0v2.794a.7.7,0,0,0,.7.7H52.64a.7.7,0,1,0,0-1.4Z" transform="translate(-13.149 -12.064)" fill="#aba28b"/>
    </g>
  </g>
</svg>
