<svg xmlns="http://www.w3.org/2000/svg" width="84.264" height="84.264" viewBox="0 0 84.264 84.264">
  <g id="Group_1292" data-name="Group 1292" transform="translate(10692.118 -16780.949)">
    <g id="Group_1_icons_-_selected_3" data-name="Group 1 icons - selected 3" transform="translate(7723.675 13580.341)">
      <circle id="Ellipse_391" data-name="Ellipse 391" cx="42.132" cy="42.132" r="42.132" transform="translate(-18331.529 3200.608) rotate(90)" fill="#45596d"/>
      <g id="transference_8176489" transform="translate(-18407.342 3206.766)">
        <g id="Group_475" data-name="Group 475" transform="translate(31.539 30.666)">
          <path id="Path_1020" data-name="Path 1020" d="M260.782,476.5h1.567A1.648,1.648,0,0,0,264,474.857v0a1.647,1.647,0,0,0-1.647-1.647H237.321a1.647,1.647,0,0,0-1.647,1.647v0a1.648,1.648,0,0,0,1.647,1.647h20.306" transform="translate(-235.674 -447.31)" fill="none" stroke="#fff" stroke-linecap="round" stroke-linejoin="round" stroke-miterlimit="10" stroke-width="1"/>
          <g id="Group_473" data-name="Group 473" transform="translate(1.82 9.841)">
            <g id="Group_472" data-name="Group 472">
              <path id="Path_1021" data-name="Path 1021" d="M257.935,446.954H254.49a1.545,1.545,0,0,1-1.545-1.545v0a1.545,1.545,0,0,1,1.545-1.545h3.445a1.545,1.545,0,0,1,1.545,1.545v0A1.545,1.545,0,0,1,257.935,446.954Z" transform="translate(-252.945 -430.897)" fill="none" stroke="#fff" stroke-linecap="round" stroke-linejoin="round" stroke-miterlimit="10" stroke-width="1"/>
              <path id="Path_1022" data-name="Path 1022" d="M430.2,323.893h-3.445a1.545,1.545,0,0,1-1.545-1.545v0a1.545,1.545,0,0,1,1.545-1.545H430.2a1.545,1.545,0,0,1,1.545,1.545v0A1.545,1.545,0,0,1,430.2,323.893Z" transform="translate(-407.057 -320.801)" fill="none" stroke="#fff" stroke-linecap="round" stroke-linejoin="round" stroke-miterlimit="10" stroke-width="1"/>
              <path id="Path_1023" data-name="Path 1023" d="M430.2,446.954h-3.445a1.545,1.545,0,0,1-1.545-1.545v0a1.545,1.545,0,0,1,1.545-1.545H430.2a1.545,1.545,0,0,1,1.545,1.545v0A1.545,1.545,0,0,1,430.2,446.954Z" transform="translate(-407.057 -430.897)" fill="none" stroke="#fff" stroke-linecap="round" stroke-linejoin="round" stroke-miterlimit="10" stroke-width="1"/>
              <path id="Path_1024" data-name="Path 1024" d="M271.462,376.138v7.135h-3.335v-6.122" transform="translate(-266.528 -370.308)" fill="none" stroke="#fff" stroke-linecap="round" stroke-linejoin="round" stroke-miterlimit="10" stroke-width="1"/>
              <rect id="Rectangle_316" data-name="Rectangle 316" width="3.335" height="9.874" transform="translate(10.674 3.092)" fill="none" stroke="#fff" stroke-linecap="round" stroke-linejoin="round" stroke-miterlimit="10" stroke-width="1"/>
              <rect id="Rectangle_317" data-name="Rectangle 317" width="3.335" height="9.874" transform="translate(19.748 3.092)" fill="none" stroke="#fff" stroke-linecap="round" stroke-linejoin="round" stroke-miterlimit="10" stroke-width="1"/>
            </g>
            <path id="Path_1025" data-name="Path 1025" d="M341.309,320.8h3.445a1.545,1.545,0,0,1,1.545,1.545v0a1.545,1.545,0,0,1-1.545,1.545h-3.445a1.546,1.546,0,0,1-1.464-1.05" transform="translate(-330.69 -320.801)" fill="none" stroke="#fff" stroke-linecap="round" stroke-linejoin="round" stroke-miterlimit="10" stroke-width="1"/>
            <path id="Path_1026" data-name="Path 1026" d="M344.065,446.954H340.62a1.545,1.545,0,0,1-1.545-1.545v0a1.545,1.545,0,0,1,1.545-1.545h3.445a1.545,1.545,0,0,1,1.545,1.545v0A1.545,1.545,0,0,1,344.065,446.954Z" transform="translate(-330.001 -430.897)" fill="none" stroke="#fff" stroke-linecap="round" stroke-linejoin="round" stroke-miterlimit="10" stroke-width="1"/>
          </g>
          <g id="Group_474" data-name="Group 474" transform="translate(11.341)">
            <path id="Path_1027" data-name="Path 1027" d="M343.322,228.69l1.641-.974a2.309,2.309,0,0,1,2.357,0l12.415,7.37a1.155,1.155,0,0,1-.589,2.148H343.962" transform="translate(-343.322 -227.393)" fill="none" stroke="#fff" stroke-linecap="round" stroke-linejoin="round" stroke-miterlimit="10" stroke-width="1"/>
          </g>
        </g>
        <g id="Group_488" data-name="Group 488" transform="translate(7.5 7.499)">
          <g id="Group_481" data-name="Group 481" transform="translate(0)">
            <g id="Group_480" data-name="Group 480">
              <g id="Group_479" data-name="Group 479">
                <path id="Path_1028" data-name="Path 1028" d="M23.217,256.612H9.147A1.647,1.647,0,0,1,7.5,254.964v0a1.647,1.647,0,0,1,1.647-1.647H23.78" transform="translate(-7.5 -227.417)" fill="none" stroke="#fff" stroke-linecap="round" stroke-linejoin="round" stroke-miterlimit="10" stroke-width="1"/>
                <g id="Group_477" data-name="Group 477" transform="translate(1.82 9.841)">
                  <g id="Group_476" data-name="Group 476">
                    <path id="Path_1029" data-name="Path 1029" d="M29.761,104H26.316a1.545,1.545,0,0,1-1.545-1.545v0a1.545,1.545,0,0,1,1.545-1.545h3.445a1.545,1.545,0,0,1,1.545,1.545v0A1.545,1.545,0,0,1,29.761,104Z" transform="translate(-24.771 -100.908)" fill="none" stroke="#fff" stroke-linecap="round" stroke-linejoin="round" stroke-miterlimit="10" stroke-width="1"/>
                    <path id="Path_1030" data-name="Path 1030" d="M29.761,227.061H26.316a1.545,1.545,0,0,1-1.545-1.545v0a1.545,1.545,0,0,1,1.545-1.545h3.445a1.545,1.545,0,0,1,1.545,1.545v0A1.545,1.545,0,0,1,29.761,227.061Z" transform="translate(-24.771 -211.004)" fill="none" stroke="#fff" stroke-linecap="round" stroke-linejoin="round" stroke-miterlimit="10" stroke-width="1"/>
                    <path id="Path_1031" data-name="Path 1031" d="M202.023,104h-3.445a1.545,1.545,0,0,1-1.545-1.545v0a1.545,1.545,0,0,1,1.545-1.545h3.445a1.545,1.545,0,0,1,1.545,1.545v0A1.545,1.545,0,0,1,202.023,104Z" transform="translate(-178.884 -100.908)" fill="none" stroke="#fff" stroke-linecap="round" stroke-linejoin="round" stroke-miterlimit="10" stroke-width="1"/>
                    <rect id="Rectangle_318" data-name="Rectangle 318" width="3.335" height="9.874" transform="translate(1.6 3.092)" fill="none" stroke="#fff" stroke-linecap="round" stroke-linejoin="round" stroke-miterlimit="10" stroke-width="1"/>
                    <rect id="Rectangle_319" data-name="Rectangle 319" width="3.335" height="9.874" transform="translate(10.674 3.092)" fill="none" stroke="#fff" stroke-linecap="round" stroke-linejoin="round" stroke-miterlimit="10" stroke-width="1"/>
                    <path id="Path_1032" data-name="Path 1032" d="M212.215,137.377v-7.124h3.335v6.128" transform="translate(-192.467 -127.161)" fill="none" stroke="#fff" stroke-linecap="round" stroke-linejoin="round" stroke-miterlimit="10" stroke-width="1"/>
                  </g>
                  <path id="Path_1033" data-name="Path 1033" d="M115.892,104h-3.445a1.545,1.545,0,0,1-1.545-1.545v0a1.545,1.545,0,0,1,1.545-1.545h3.445a1.545,1.545,0,0,1,1.545,1.545v0A1.545,1.545,0,0,1,115.892,104Z" transform="translate(-101.828 -100.908)" fill="none" stroke="#fff" stroke-linecap="round" stroke-linejoin="round" stroke-miterlimit="10" stroke-width="1"/>
                  <path id="Path_1034" data-name="Path 1034" d="M115.892,227.061h-3.445a1.545,1.545,0,0,1-1.545-1.545v0a1.545,1.545,0,0,1,1.545-1.545h3.445a1.546,1.546,0,0,1,1.461,1.042" transform="translate(-101.828 -211.004)" fill="none" stroke="#fff" stroke-linecap="round" stroke-linejoin="round" stroke-miterlimit="10" stroke-width="1"/>
                </g>
                <g id="Group_478" data-name="Group 478" transform="translate(0)">
                  <path id="Path_1035" data-name="Path 1035" d="M13.941,11.706,8.067,15.193a1.155,1.155,0,0,0,.589,2.148H34.666a1.155,1.155,0,0,0,.589-2.148L22.84,7.823a2.309,2.309,0,0,0-2.357,0L16.62,10.116" transform="translate(-7.5 -7.499)" fill="none" stroke="#fff" stroke-linecap="round" stroke-linejoin="round" stroke-miterlimit="10" stroke-width="1"/>
                </g>
              </g>
            </g>
          </g>
          <g id="Group_484" data-name="Group 484" transform="translate(3.687 8.811)">
            <g id="Group_482" data-name="Group 482" transform="translate(29.452 0)">
              <path id="Path_1036" data-name="Path 1036" d="M322.044,91.135a13.3,13.3,0,0,1,13.3,13.3" transform="translate(-322.044 -91.135)" fill="none" stroke="#fff" stroke-linecap="round" stroke-linejoin="round" stroke-miterlimit="10" stroke-width="1"/>
              <path id="Path_1037" data-name="Path 1037" d="M428.914,194.837l-2.192,2.588-2.589-2.192" transform="translate(-413.377 -183.911)" fill="none" stroke="#fff" stroke-linecap="round" stroke-linejoin="round" stroke-miterlimit="10" stroke-width="1"/>
            </g>
            <g id="Group_483" data-name="Group 483" transform="translate(0 27.757)">
              <path id="Path_1038" data-name="Path 1038" d="M77,369.909a13.3,13.3,0,0,1-13.3-13.3" transform="translate(-61.464 -356.395)" fill="none" stroke="#fff" stroke-linecap="round" stroke-linejoin="round" stroke-miterlimit="10" stroke-width="1"/>
              <path id="Path_1039" data-name="Path 1039" d="M42.492,357.183l2.192-2.589,2.588,2.192" transform="translate(-42.492 -354.594)" fill="none" stroke="#fff" stroke-linecap="round" stroke-linejoin="round" stroke-miterlimit="10" stroke-width="1"/>
            </g>
          </g>
          <g id="Group_487" data-name="Group 487" transform="translate(15.717 18.983)">
            <ellipse id="Ellipse_210" data-name="Ellipse 210" cx="10.464" cy="10.464" rx="10.464" ry="10.464" fill="none" stroke="#fff" stroke-linecap="round" stroke-linejoin="round" stroke-miterlimit="10" stroke-width="1"/>
            <ellipse id="Ellipse_211" data-name="Ellipse 211" cx="7.169" cy="7.17" rx="7.169" ry="7.17" transform="translate(3.295 3.295)" fill="none" stroke="#fff" stroke-linecap="round" stroke-linejoin="round" stroke-miterlimit="10" stroke-width="1"/>
            <g id="Group_486" data-name="Group 486" transform="translate(8.713 6.306)">
              <g id="Group_485" data-name="Group 485">
                <path id="Path_1040" data-name="Path 1040" d="M242.422,256.261a1.982,1.982,0,0,0-1.861-.335,1.455,1.455,0,0,0-.94,1.737c.262.835,1.464,1.159,2.184,1.414,1.836.649,1.157,3.25-.71,3.25a3,3,0,0,1-1.709-.46" transform="translate(-239.385 -254.956)" fill="none" stroke="#fff" stroke-linecap="round" stroke-linejoin="round" stroke-miterlimit="10" stroke-width="1"/>
                <line id="Line_77" data-name="Line 77" y2="0.945" transform="translate(1.71 7.371)" fill="none" stroke="#fff" stroke-linecap="round" stroke-linejoin="round" stroke-miterlimit="10" stroke-width="1"/>
                <line id="Line_78" data-name="Line 78" y2="0.877" transform="translate(1.71)" fill="none" stroke="#fff" stroke-linecap="round" stroke-linejoin="round" stroke-miterlimit="10" stroke-width="1"/>
              </g>
            </g>
          </g>
        </g>
      </g>
    </g>
  </g>
</svg>
