<svg xmlns="http://www.w3.org/2000/svg" width="72.264" height="72.264" viewBox="0 0 72.264 72.264">
  <g id="Group_4_icons_-_not_selected_1" data-name="Group 4 icons - not selected 1" transform="translate(18602.375 -2862.357)">
    <circle id="Ellipse_222" data-name="Ellipse 222" cx="36.132" cy="36.132" r="36.132" transform="translate(-18530.111 2862.357) rotate(90)" fill="#d0cabe"/>
    <g id="Group_526" data-name="Group 526" transform="translate(-18590.49 2875.525)">
      <path id="Path_1134" data-name="Path 1134" d="M33.937,2.17A.683.683,0,0,0,33.488,2H13.762a.682.682,0,0,0-.68.68v3.4H9.68a.682.682,0,0,0-.68.68V42.133a.682.682,0,0,0,.68.68H36.209a.682.682,0,0,0,.68-.68v-3.4H39.61a.682.682,0,0,0,.68-.68V8.122a.667.667,0,0,0-.231-.51Zm.231,2.02,3.653,3.245H34.168V4.2Zm1.36,37.256H10.36v-34h2.721v30.61a.682.682,0,0,0,.68.68H35.529v2.721ZM14.442,37.365v-34H32.808V8.122a.682.682,0,0,0,.68.68H38.93V37.371H14.442Z" fill="#aba28b"/>
      <path id="Path_1135" data-name="Path 1135" d="M40.087,14H19.68a.682.682,0,0,0-.68.68v5.442a.682.682,0,0,0,.68.68H40.087a.682.682,0,0,0,.68-.68V14.68A.682.682,0,0,0,40.087,14Zm-.68,5.442H20.36V15.36H39.407Z" transform="translate(-3.198 -3.837)" fill="#aba28b"/>
      <path id="Path_1136" data-name="Path 1136" d="M24.68,9.36H34.2A.68.68,0,1,0,34.2,8H24.68a.68.68,0,1,0,0,1.36Z" transform="translate(-4.797 -1.919)" fill="#aba28b"/>
      <path id="Path_1137" data-name="Path 1137" d="M40.005,27.36a.68.68,0,0,0,0-1.36H23.68a.68.68,0,0,0,0,1.36Z" transform="translate(-4.477 -7.675)" fill="#aba28b"/>
      <path id="Path_1138" data-name="Path 1138" d="M39.726,30H20.68a.68.68,0,1,0,0,1.36H39.726a.68.68,0,1,0,0-1.36Z" transform="translate(-3.518 -8.954)" fill="#aba28b"/>
      <path id="Path_1139" data-name="Path 1139" d="M33.122,34a6.122,6.122,0,1,0,6.122,6.122A6.131,6.131,0,0,0,33.122,34Zm0,10.883a4.762,4.762,0,1,1,4.762-4.762A4.767,4.767,0,0,1,33.122,44.883Z" transform="translate(-5.756 -10.233)" fill="#aba28b"/>
      <path id="Path_1140" data-name="Path 1140" d="M36.75,39.906l-3.8,3.8-1.082-1.082a.678.678,0,0,0-.959.959l1.558,1.558a.668.668,0,0,0,.483.2.7.7,0,0,0,.483-.2l4.279-4.279a.678.678,0,1,0-.959-.959Z" transform="translate(-6.942 -12.058)" fill="#aba28b"/>
    </g>
  </g>
</svg>
