<svg xmlns="http://www.w3.org/2000/svg" width="169.695" height="169.695" viewBox="0 0 169.695 169.695">
  <g id="Group_6_icon" data-name="Group 6 icon" transform="translate(-1 -1)">
    <path id="Path_1177" data-name="Path 1177" d="M51.107,71.214A30.107,30.107,0,1,0,21,41.107,30.143,30.143,0,0,0,51.107,71.214Zm0-54.74A24.633,24.633,0,1,1,26.474,41.107,24.663,24.663,0,0,1,51.107,16.474Z" transform="translate(34.74 17.37)" fill="#903"/>
    <path id="Path_1178" data-name="Path 1178" d="M170.7,70.879v-24.8l-9.06-2.266a50.241,50.241,0,0,0-3.807-9.21l4.8-8L145.09,9.063l-8,4.8a50.161,50.161,0,0,0-9.21-3.807L125.619,1h-24.8L98.55,10.06a50.387,50.387,0,0,0-10.406,4.467l-.682.241c-.539-.019-1.07-.082-1.615-.082s-1.076.063-1.618.082l-.682-.241A50.3,50.3,0,0,0,73.142,10.06L70.879,1h-24.8L43.81,10.06A50.135,50.135,0,0,0,34.6,13.867l-8-4.8L9.066,26.6l4.8,8a50.161,50.161,0,0,0-3.807,9.21L1,46.076v24.8l9.06,2.266a50.135,50.135,0,0,0,3.807,9.207l-4.8,8L26.6,107.889l8-4.8A50.137,50.137,0,0,0,43.81,106.9l2.266,9.06h23.35v38.318a16.422,16.422,0,0,0,32.844,0V115.955h23.35l2.266-9.06a50.241,50.241,0,0,0,9.21-3.807l8,4.8L162.632,90.35l-4.8-8a50.136,50.136,0,0,0,3.807-9.207Zm-46.529-12.4A38.318,38.318,0,1,1,85.848,20.159,38.36,38.36,0,0,1,124.166,58.477ZM120.83,32.246a27.292,27.292,0,0,1,0,52.463,43.455,43.455,0,0,0,0-52.463ZM96.8,126.9H74.9v-5.474H96.8ZM83.111,115.955V102.13c.909.057,1.812.14,2.737.14s1.828-.082,2.737-.14v13.825ZM50.866,84.709a27.292,27.292,0,0,1,0-52.463,43.455,43.455,0,0,0,0,52.463ZM68.607,102.47l-2,8.011H50.351l-2-8.011-1.557-.416a44.94,44.94,0,0,1-10.869-4.494l-1.4-.807L27.453,101,15.961,89.5l4.245-7.072-.807-1.4A44.83,44.83,0,0,1,14.9,70.167l-.416-1.557L6.474,66.6V50.351l8.011-2L14.9,46.79A45,45,0,0,1,19.4,35.919l.807-1.4-4.245-7.072L27.451,15.958,34.523,20.2l1.4-.807A44.83,44.83,0,0,1,46.788,14.9l1.557-.416,2.006-8.011H66.6l2,8.011,1.557.416c1.423.38,2.816.851,4.188,1.366a43.686,43.686,0,0,0-17.479,9.462,32.785,32.785,0,0,0,0,65.5,43.677,43.677,0,0,0,17.473,9.459c-1.379.52-2.773.991-4.182,1.369Zm4.535,4.423c1.514-.46,3.013-1,4.494-1.612v10.674H70.879Zm12.705,58.329A10.959,10.959,0,0,1,74.9,154.273v-21.9H96.8v21.9A10.959,10.959,0,0,1,85.848,165.221Zm8.211-49.266V105.283c1.481.608,2.978,1.152,4.494,1.612l2.264,9.06ZM157.21,68.607l-.416,1.557A44.939,44.939,0,0,1,152.3,81.033l-.807,1.4,4.245,7.072-11.493,11.493-7.072-4.245-1.4.807a44.9,44.9,0,0,1-10.871,4.494l-1.557.416-2,8.014H105.092l-2-8.011-1.557-.419c-1.407-.375-2.8-.846-4.179-1.366a43.711,43.711,0,0,0,17.473-9.459,32.785,32.785,0,0,0,0-65.5,43.686,43.686,0,0,0-17.479-9.462c1.371-.515,2.762-.985,4.188-1.366l1.557-.416,2-8.011h16.252l2,8.011,1.557.416A45,45,0,0,1,135.776,19.4l1.4.807,7.072-4.245,11.493,11.493-4.245,7.072.807,1.4a44.894,44.894,0,0,1,4.494,10.871l.416,1.557,8.011,2V66.6Z" transform="translate(0 0)" fill="#aba28b"/>
    <path id="Path_1179" data-name="Path 1179" d="M40,47h5.474v5.474H40Z" transform="translate(67.744 79.903)" fill="#d0cabe"/>
    <path id="Path_1180" data-name="Path 1180" d="M44,47h5.474v5.474H44Z" transform="translate(74.692 79.903)" fill="#d0cabe"/>
    <path id="Path_1181" data-name="Path 1181" d="M48,47h5.474v5.474H48Z" transform="translate(81.64 79.903)" fill="#d0cabe"/>
    <path id="Path_1182" data-name="Path 1182" d="M14,47h5.474v5.474H14Z" transform="translate(22.581 79.903)" fill="#d0cabe"/>
    <path id="Path_1183" data-name="Path 1183" d="M18,47h5.474v5.474H18Z" transform="translate(29.529 79.903)" fill="#d0cabe"/>
    <path id="Path_1184" data-name="Path 1184" d="M22,47h5.474v5.474H22Z" transform="translate(36.477 79.903)" fill="#d0cabe"/>
  </g>
</svg>
