<svg xmlns="http://www.w3.org/2000/svg" width="72.264" height="72.264" viewBox="0 0 72.264 72.264">
  <g id="Group_2_icons_-_not_selected_3" data-name="Group 2 icons - not selected 3" transform="translate(18545.311 -3423.147)">
    <g id="Group_938" data-name="Group 938">
      <circle id="Ellipse_258" data-name="Ellipse 258" cx="36.132" cy="36.132" r="36.132" transform="translate(-18473.047 3423.147) rotate(90)" fill="#d0cabe"/>
      <path id="Path_1075" data-name="Path 1075" d="M18.308,34.936a1.752,1.752,0,1,0,1.752,1.752A1.754,1.754,0,0,0,18.308,34.936Zm0,2.262a.509.509,0,1,1,.509-.509A.51.51,0,0,1,18.308,37.2Zm0-13.658a1.937,1.937,0,0,0-2.04,1.954c0,.014,0,.029,0,.043l.538,7.814a1.5,1.5,0,0,0,3,0l.538-7.814c0-.014,0-.028,0-.043a1.937,1.937,0,0,0-2.04-1.954Zm.259,9.744c0,.014,0,.028,0,.043,0,.135-.086.2-.257.2s-.257-.069-.257-.2c0-.014,0-.029,0-.043l-.538-7.808c.013-.672.716-.692.8-.692s.784.02.8.692ZM38.837,21.8a16.86,16.86,0,0,0,.48-4A16.794,16.794,0,1,0,11.043,30.05L6.5,37.634a1.678,1.678,0,0,0,1.441,2.543H28.676a1.687,1.687,0,0,0,1.394-.745A9.854,9.854,0,1,0,38.837,21.8Zm-1.172-.446a9.862,9.862,0,0,0-6.5.242,5.736,5.736,0,0,1,.889-1.681c.6-.89,1.289-1.9.737-3.2a4.434,4.434,0,0,0-2.259-2.3A6.113,6.113,0,0,1,28.274,12.5c-.4-.552-1-1.59-.557-2.339.319-.545,1.705-1.727,7.669-1.092a15.462,15.462,0,0,1,2.688,8.729A15.619,15.619,0,0,1,37.665,21.35Zm-3.3-13.626c-4.234-.318-6.828.287-7.718,1.8-.589,1-.369,2.316.62,3.693A7.349,7.349,0,0,0,29.926,15.5a3.238,3.238,0,0,1,1.725,1.7c.274.646-.024,1.135-.621,2.015a5.5,5.5,0,0,0-1.2,3.028,9.879,9.879,0,0,0-4.788,6.92L22.009,24.1c.21-1.03.856-1.231,1.6-1.462.535-.166,1.142-.355,1.346-.975S24.86,20.3,23.9,18.989c-.218-.3-.415-.609-.6-.911-.626-.995-1.274-2.023-2.569-2.147a4.223,4.223,0,0,1-2.076-.734,3,3,0,0,0-3.2-.246c-.976.378-1.365.425-2.388-1.219-.246-.4-.294-.716-.143-.951a1.968,1.968,0,0,1,1.811-.513l.05.009a6.9,6.9,0,0,0,6.376-2.24l.03-.034a3.623,3.623,0,0,0,.578-3.93A6.855,6.855,0,0,0,18.19,2.858,15.539,15.539,0,0,1,34.362,7.724Zm-18.2-4.118a5.938,5.938,0,0,1,4.469,2.973A2.371,2.371,0,0,1,20.236,9.2,5.689,5.689,0,0,1,15,11.053l-.112-.019a3.077,3.077,0,0,0-3.02,1.074A2.027,2.027,0,0,0,12,14.387c1.225,1.97,2.171,2.388,3.892,1.722a1.826,1.826,0,0,1,2.1.144,5.48,5.48,0,0,0,2.61.914c.655.063,1.03.61,1.636,1.572.2.32.41.651.654.984a4.086,4.086,0,0,1,.872,1.534,3.112,3.112,0,0,1-.531.2,3.375,3.375,0,0,0-2.024,1.322l-1.686-2.814a1.422,1.422,0,0,0-2.439,0l-1.363,2.275a6.081,6.081,0,0,1-.031-.677,2.645,2.645,0,0,0-1.433-2.678,12.163,12.163,0,0,1-2.915-2.356A4.53,4.53,0,0,0,7.28,14.709a15.607,15.607,0,0,1,8.878-11.1ZM6.972,17.794a15.628,15.628,0,0,1,.108-1.828c1.846-.156,2.381.4,3.373,1.423a13.409,13.409,0,0,0,3.186,2.569c.8.464.806.848.812,1.612a4.215,4.215,0,0,0,.425,2.083l-3.179,5.3A15.562,15.562,0,0,1,6.972,17.794Zm21.7,21.139H7.94a.435.435,0,0,1-.374-.661L18.155,20.6a.179.179,0,0,1,.306,0l6.467,10.792a9.853,9.853,0,0,0,4.091,7.378A.427.427,0,0,1,28.676,38.933Zm6.086.446a8.612,8.612,0,1,1,8.611-8.612A8.621,8.621,0,0,1,34.762,39.379Zm0-15.678a7.066,7.066,0,1,0,7.066,7.066A7.074,7.074,0,0,0,34.762,23.7Zm0,12.889a5.823,5.823,0,1,1,5.823-5.823A5.83,5.83,0,0,1,34.762,36.591Zm2.113-4.481a1.967,1.967,0,0,1-1.492,1.906V34.6a.622.622,0,1,1-1.243,0v-.557a1.975,1.975,0,0,1-1.243-.784.622.622,0,1,1,1.007-.728.724.724,0,0,0,.584.3h.422a.72.72,0,0,0,0-1.441h-.3a1.964,1.964,0,0,1-.472-3.87v-.582a.622.622,0,1,1,1.243,0v.557a1.975,1.975,0,0,1,1.243.784.622.622,0,0,1-1.007.728.725.725,0,0,0-.584-.3h-.422a.72.72,0,1,0,0,1.441h.3A1.966,1.966,0,0,1,36.875,32.11Z" transform="translate(-18533.926 3435.895)" fill="#aba28b"/>
    </g>
  </g>
</svg>
