<svg xmlns="http://www.w3.org/2000/svg" width="84.264" height="84.264" viewBox="0 0 84.264 84.264">
  <g id="Group_1315" data-name="Group 1315" transform="translate(10569.231 -17456.104)">
    <g id="Group_4_icons_-_selected_4" data-name="Group 4 icons - selected 4" transform="translate(7719.495 14501.746)">
      <circle id="Ellipse_388" data-name="Ellipse 388" cx="42.132" cy="42.132" r="42.132" transform="translate(-18204.463 2954.357) rotate(90)" fill="#45596d"/>
      <path id="Path_1729" data-name="Path 1729" d="M41.206,36.763h.043a.936.936,0,0,0,.808-.542l1.373-2.948.275-.083a.479.479,0,0,1,.309,0l.275.083,1.373,2.949a.936.936,0,0,0,.808.541h.043a.936.936,0,0,0,.811-.467l.644-1.108,1.262.22a.939.939,0,0,0,1.013-1.321l-1.323-2.841.239-.1a2.155,2.155,0,0,0,1.3-2.253l-.121-1.01a.48.48,0,0,1,.054-.3l.459-.908a2.155,2.155,0,0,0-.452-2.562l-.742-.7a.479.479,0,0,1-.154-.267l-.232-.99a2.155,2.155,0,0,0-1.993-1.672l-.322-.018v-2.19a.819.819,0,0,0-.524-.764l-1.42-.546a10.124,10.124,0,0,0-.9-2.172l.618-1.391a.818.818,0,0,0-.169-.911L42.47,10.4a.819.819,0,0,0-.911-.169l-1.392.618A10.13,10.13,0,0,0,38,9.945l-.547-1.42A.818.818,0,0,0,36.686,8h-2.96a.819.819,0,0,0-.764.524l-.547,1.42a10.126,10.126,0,0,0-2.171.9l-1.392-.618a.819.819,0,0,0-.911.169l-2.093,2.093a.818.818,0,0,0-.169.911l.618,1.392a10.124,10.124,0,0,0-.9,2.171l-1.42.547a.818.818,0,0,0-.524.764v2.96a.819.819,0,0,0,.524.764l1.42.546a10.125,10.125,0,0,0,.9,2.172l-.618,1.391a.818.818,0,0,0,.169.911l2.093,2.093a.819.819,0,0,0,.911.169l1.392-.618a10.128,10.128,0,0,0,2.171.9l.547,1.42a.818.818,0,0,0,.764.524h2.96a.819.819,0,0,0,.764-.524l.211-.549a2.171,2.171,0,0,0,.9.711l.239.1-1.323,2.841a.939.939,0,0,0,1.013,1.321l1.263-.221L40.4,36.3A.935.935,0,0,0,41.206,36.763Zm6.483-3.286a.818.818,0,0,0-.849.4l-.259.445L46.2,33.5a2.161,2.161,0,0,0,1.231-.906l.182-.278.582,1.25ZM47.68,22.526l.232.99A2.106,2.106,0,0,0,48.54,24.6l.742.7a.517.517,0,0,1,.111.63l-.459.908a2.106,2.106,0,0,0-.218,1.237l.121,1.01a.517.517,0,0,1-.32.554l-.935.4a2.106,2.106,0,0,0-.962.807l-.557.852a.517.517,0,0,1-.6.219l-.974-.294a2.106,2.106,0,0,0-1.256,0l-.974.294a.517.517,0,0,1-.6-.219l-.557-.852a2.107,2.107,0,0,0-.962-.807l-.935-.4a.517.517,0,0,1-.32-.554L39,28.075a2.107,2.107,0,0,0-.218-1.237l-.459-.908a.517.517,0,0,1,.111-.63l.742-.7a2.106,2.106,0,0,0,.628-1.088l.027-.113V23.4l.2-.872a.517.517,0,0,1,.49-.411l1.016-.057a2.107,2.107,0,0,0,1.18-.43l.815-.61a.517.517,0,0,1,.639,0l.814.61a2.107,2.107,0,0,0,1.18.43l1.016.057a.517.517,0,0,1,.49.411ZM39.423,20.8a2.158,2.158,0,0,0-.976,1.357l-.153.653a4.325,4.325,0,1,1,1.129-2.01Zm-2.229,7.283a.818.818,0,0,0-.574.5l-.5,1.287H34.289l-.5-1.288a.819.819,0,0,0-.574-.5,8.5,8.5,0,0,1-2.493-1.034.819.819,0,0,0-.761-.051l-1.262.561-1.3-1.3L27.965,25a.819.819,0,0,0-.051-.762A8.5,8.5,0,0,1,26.88,21.74a.818.818,0,0,0-.5-.574l-1.287-.5V18.835l1.287-.5a.819.819,0,0,0,.5-.574,8.5,8.5,0,0,1,1.034-2.493.819.819,0,0,0,.051-.761l-.56-1.262,1.3-1.3,1.262.56a.818.818,0,0,0,.761-.051,8.5,8.5,0,0,1,2.493-1.034.819.819,0,0,0,.574-.5l.5-1.287h1.836l.5,1.288a.819.819,0,0,0,.574.5,8.5,8.5,0,0,1,2.493,1.034.819.819,0,0,0,.761.051l1.262-.561,1.3,1.3-.56,1.261a.818.818,0,0,0,.051.761,8.5,8.5,0,0,1,1.034,2.493.818.818,0,0,0,.5.574l1.287.5v.994l-.161-.12a2.155,2.155,0,0,0-2.6,0l-.815.61a.479.479,0,0,1-.29.105l-.309.017a6.047,6.047,0,0,0,.04-.689,5.992,5.992,0,1,0-4.551,5.8,2.171,2.171,0,0,0,.231,1.112l.459.908a.48.48,0,0,1,.054.3l-.019.155c-.056.015-.111.03-.167.043Zm2.838,5.4-.507.089.582-1.25.182.278a2.161,2.161,0,0,0,1.232.905l-.381.818-.259-.445A.818.818,0,0,0,40.032,33.477Zm.016-7.052a3.813,3.813,0,1,0,3.813-3.813A3.817,3.817,0,0,0,40.048,26.425Zm5.988,0a2.176,2.176,0,1,1-2.176-2.176A2.178,2.178,0,0,1,46.036,26.425ZM61.97,43.053a6.259,6.259,0,0,0,1.893-4.7l-.49-17.3A3.416,3.416,0,0,0,59.984,18h-.05c-.85.014-3.62.479-3.6,5.9l.036,9.4a4.454,4.454,0,0,1-.124,1.085,3.408,3.408,0,0,0-.464-.574,3.174,3.174,0,0,0-4.372-.029.8.8,0,0,0-.077.079,40.594,40.594,0,0,1-4.9,4.645c-.524.441-1.018.858-1.422,1.223-1.653,1.49-1.873,3.56-1.87,5.388l.01,6.881-.787-.007h-.018a2.017,2.017,0,0,0-2.013,2L40.313,56.6a2.016,2.016,0,0,0,2,2.031l13.6.117h.018a2.016,2.016,0,0,0,2.014-2l.023-2.618a2.016,2.016,0,0,0-2-2.031l-1.576-.014V50.637ZM56.323,54.119,56.3,56.737a.382.382,0,0,1-.377.374h0l-13.6-.117a.382.382,0,0,1-.374-.38L41.972,54a.38.38,0,0,1,.377-.374h0l13.6.117a.382.382,0,0,1,.374.38ZM44.791,52.006l-.01-6.9c0-1.541.157-3.113,1.329-4.17.384-.346.846-.736,1.381-1.187a42.2,42.2,0,0,0,5.052-4.793,1.516,1.516,0,0,1,2.081,0,1.405,1.405,0,0,1,.111,1.921c-.885,1.017-1.774,1.88-2.7,2.784-.4.391-.819.795-1.248,1.225a.818.818,0,0,0,1.157,1.157c.421-.421.833-.821,1.231-1.208.889-.863,1.739-1.689,2.6-2.654a.815.815,0,0,0,.165-.164q.052-.07.1-.14.262-.3.526-.628a6.055,6.055,0,0,0,1.447-3.969l-.036-9.4c-.01-2.644.734-4.235,1.989-4.255A1.793,1.793,0,0,1,61.737,21.1l.49,17.3a4.6,4.6,0,0,1-1.414,3.5l-7.823,7.823a.819.819,0,0,0-.24.579v1.777Zm-1.935,3.012a.813.813,0,1,1,.455,1.056A.813.813,0,0,1,42.856,55.018Zm-5.493-2.454a2,2,0,0,0-1.428-.579l-.787.007.01-6.881c0-1.828-.217-3.9-1.87-5.388-.4-.365-.9-.781-1.422-1.222a40.587,40.587,0,0,1-4.9-4.645.827.827,0,0,0-.077-.079,3.174,3.174,0,0,0-4.372.029,3.4,3.4,0,0,0-.464.574,4.454,4.454,0,0,1-.124-1.085l.036-9.4c.02-5.418-2.75-5.884-3.6-5.9a3.419,3.419,0,0,0-3.439,3.056l-.49,17.3a6.259,6.259,0,0,0,1.893,4.7l7.584,7.584v1.452l-1.576.014a2.016,2.016,0,0,0-2,2.031l.023,2.617a2.016,2.016,0,0,0,2.014,2H22.4l13.6-.117a2.016,2.016,0,0,0,2-2.031l-.023-2.617a2,2,0,0,0-.6-1.418ZM25.552,50.3a.819.819,0,0,0-.24-.579L17.488,41.9a4.6,4.6,0,0,1-1.414-3.5l.49-17.3a1.791,1.791,0,0,1,1.753-1.465h.024c1.255.02,2,1.611,1.989,4.255l-.036,9.4a6.054,6.054,0,0,0,1.447,3.969q.264.325.527.628.049.07.1.139a.818.818,0,0,0,.164.164c.857.964,1.708,1.791,2.6,2.654.4.387.81.787,1.231,1.208a.818.818,0,0,0,1.157-1.157c-.43-.43-.846-.834-1.248-1.225-.931-.9-1.82-1.767-2.7-2.784a1.405,1.405,0,0,1,.111-1.921,1.516,1.516,0,0,1,2.081,0,42.206,42.206,0,0,0,5.052,4.793c.535.451,1,.84,1.381,1.187,1.172,1.056,1.331,2.628,1.329,4.17l-.01,6.9-7.959.068Zm10.426,6.7-13.6.117a.38.38,0,0,1-.38-.374l-.023-2.617a.382.382,0,0,1,.374-.38l13.6-.117h0a.38.38,0,0,1,.377.374l.023,2.617A.382.382,0,0,1,35.978,56.994Zm-.533-1.975a.813.813,0,1,1-1.056-.455A.813.813,0,0,1,35.446,55.018Z" transform="translate(-18285.744 2960.474)" fill="#fff" fill-rule="evenodd"/>
    </g>
  </g>
</svg>
