<svg xmlns="http://www.w3.org/2000/svg" width="72.264" height="72.264" viewBox="0 0 72.264 72.264">
  <g id="Group_6_icons_-_not_selected_9" data-name="Group 6 icons - not selected 9" transform="translate(17836.332 -2377.642)">
    <circle id="Ellipse_278" data-name="Ellipse 278" cx="36.132" cy="36.132" r="36.132" transform="translate(-17764.068 2377.642) rotate(90)" fill="#d0cabe"/>
    <g id="Group_604" data-name="Group 604" transform="translate(-17885.682 2291.952)">
      <path id="Path_1219" data-name="Path 1219" d="M398.218,179.35h-.1a.748.748,0,0,1-.068-1.495c.065,0,.128,0,.195,0a.748.748,0,1,1-.032,1.495Z" transform="translate(-318.478 -75.808)" fill="#aba28b"/>
      <path id="Path_1220" data-name="Path 1220" d="M79.2,251.178h-.019A18.771,18.771,0,0,1,65.034,244.2a18.553,18.553,0,0,1,0-23.351l.015-.018A18.687,18.687,0,0,1,71,215.979a.748.748,0,0,1,.668,1.337,17.192,17.192,0,0,0-5.468,4.475l-.015.018a17.078,17.078,0,0,0,.014,21.454,17.279,17.279,0,0,0,13.023,6.421.748.748,0,1,1-.019,1.495Z" transform="translate(0 -111.823)" fill="#aba28b"/>
      <path id="Path_1221" data-name="Path 1221" d="M564.376,238.067a.739.739,0,0,1-.257-.046.747.747,0,0,1-.444-.961,3.808,3.808,0,0,0,.116-.374,17.159,17.159,0,0,0-8.75-19.473.747.747,0,1,1,.689-1.327,18.622,18.622,0,0,1,9.51,21.173,5.371,5.371,0,0,1-.16.517.747.747,0,0,1-.7.491Z" transform="translate(-467.376 -111.73)" fill="#aba28b"/>
      <path id="Path_1222" data-name="Path 1222" d="M398.218,179.35h-.1a.748.748,0,0,1-.068-1.495c.065,0,.128,0,.195,0a.748.748,0,1,1-.032,1.495Z" transform="translate(-318.478 -75.808)" fill="#aba28b"/>
      <path id="Path_1223" data-name="Path 1223" d="M521.942,371.984a.747.747,0,0,1-.747-.723,38.783,38.783,0,0,0-.72-6.375.748.748,0,1,1,1.466-.3,40.312,40.312,0,0,1,.747,6.621.747.747,0,0,1-.722.771Z" transform="translate(-435.024 -252.006)" fill="#aba28b"/>
      <path id="Path_1224" data-name="Path 1224" d="M269.959,391.358a.748.748,0,0,1-.118-.01c-1.448-.231-2.822-1.321-3.973-3.15a21.612,21.612,0,0,1-2.525-6.639,42.821,42.821,0,0,1-.149-16.941.748.748,0,1,1,1.466.3,41.325,41.325,0,0,0,.143,16.317,20.134,20.134,0,0,0,2.332,6.17,4.785,4.785,0,0,0,2.943,2.471.747.747,0,0,1-.117,1.486Z" transform="translate(-190.761 -252.034)" fill="#aba28b"/>
      <path id="Path_1225" data-name="Path 1225" d="M655.638,514.815h-4.581a.747.747,0,0,1,0-1.495h4.581a.747.747,0,1,1,0,1.495Z" transform="translate(-557.941 -393.363)" fill="#aba28b"/>
      <path id="Path_1226" data-name="Path 1226" d="M86.254,514.815H61.747a.747.747,0,1,1,0-1.495H86.254a.747.747,0,1,1,0,1.495Z" transform="translate(-0.095 -393.363)" fill="#aba28b"/>
      <path id="Path_1227" data-name="Path 1227" d="M533.933,307.053a.747.747,0,0,1-.164-1.477,33.521,33.521,0,0,0,6.714-2.3l.013-.006a.747.747,0,0,1,.664,1.34l-.029.014-.01,0a35.029,35.029,0,0,1-7.02,2.4A.736.736,0,0,1,533.933,307.053Z" transform="translate(-447.07 -194.454)" fill="#aba28b"/>
      <path id="Path_1228" data-name="Path 1228" d="M142.516,307.122a.756.756,0,0,1-.16-.018,28.982,28.982,0,0,1-7.07-2.447l-.036-.019-.016-.009a.748.748,0,1,1,.74-1.3l.006,0a27.262,27.262,0,0,0,6.7,2.311.747.747,0,0,1-.16,1.478Z" transform="translate(-70.009 -194.492)" fill="#aba28b"/>
      <path id="Path_1229" data-name="Path 1229" d="M135.564,668.77a.747.747,0,0,1-.37-1.4l.034-.019a29.576,29.576,0,0,1,7.909-2.625,34.211,34.211,0,0,1,6.019-.619.748.748,0,1,1,.02,1.495,32.769,32.769,0,0,0-5.756.592,27.923,27.923,0,0,0-7.482,2.473l-.007,0A.739.739,0,0,1,135.564,668.77Z" transform="translate(-69.968 -536.101)" fill="#aba28b"/>
      <path id="Path_1230" data-name="Path 1230" d="M246.108,116.416a9.323,9.323,0,1,1,9.388-9.323A9.366,9.366,0,0,1,246.108,116.416Zm0-17.151A7.828,7.828,0,1,0,254,107.093a7.87,7.87,0,0,0-7.893-7.828Z" transform="translate(-166.433)" fill="#aba28b"/>
      <path id="Path_1231" data-name="Path 1231" d="M370.763,207.757h-1.655a.747.747,0,0,1,0-1.495h1.655a.811.811,0,1,0,0-1.622h-.086a2.305,2.305,0,0,1,0-4.611h1.655a.747.747,0,0,1,0,1.495h-1.655a.81.81,0,1,0,0,1.621h.086a2.306,2.306,0,1,1,0,4.612Z" transform="translate(-291.045 -96.8)" fill="#aba28b"/>
      <path id="Path_1232" data-name="Path 1232" d="M399.3,320.406a.747.747,0,0,1-.747-.747v-2.151a.747.747,0,1,1,1.495,0v2.152A.747.747,0,0,1,399.3,320.406Z" transform="translate(-319.623 -207.298)" fill="#aba28b"/>
      <path id="Path_1233" data-name="Path 1233" d="M399.3,159.134a.747.747,0,0,1-.747-.747V156a.747.747,0,0,1,1.495,0v2.389A.747.747,0,0,1,399.3,159.134Z" transform="translate(-319.623 -54.411)" fill="#aba28b"/>
      <path id="Path_1234" data-name="Path 1234" d="M397.329,664.044h-6.961a.748.748,0,0,1-.747-.748V651.357a.747.747,0,0,1,.747-.747h6.961a.747.747,0,0,1,.747.747V663.3A.748.748,0,0,1,397.329,664.044Zm-6.212-1.495h5.464V652.1h-5.466Z" transform="translate(-311.17 -523.323)" fill="#aba28b"/>
      <path id="Path_1235" data-name="Path 1235" d="M527.7,507.958h-6.957a.747.747,0,0,1-.747-.747V486.467a.747.747,0,0,1,.747-.747H527.7a.748.748,0,0,1,.747.747V507.21A.748.748,0,0,1,527.7,507.958Zm-6.21-1.495h5.462V487.215h-5.462Z" transform="translate(-434.589 -367.237)" fill="#aba28b"/>
      <path id="Path_1236" data-name="Path 1236" d="M658.016,620.69h-6.959a.747.747,0,0,1-.747-.747V605.557a.747.747,0,0,1,.747-.747h6.959a.747.747,0,0,1,.747.747v14.385A.747.747,0,0,1,658.016,620.69Zm-6.212-1.495h5.464V606.3H651.8Z" transform="translate(-557.941 -479.969)" fill="#aba28b"/>
      <path id="Path_1237" data-name="Path 1237" d="M788.357,477.818H781.4a.747.747,0,0,1-.747-.747V454.628a.747.747,0,0,1,.747-.747h6.96a.747.747,0,0,1,.747.747V477.07A.747.747,0,0,1,788.357,477.818Zm-6.212-1.495h5.465V455.375h-5.465Z" transform="translate(-681.322 -337.097)" fill="#aba28b"/>
    </g>
  </g>
</svg>
