<svg xmlns="http://www.w3.org/2000/svg" xmlns:xlink="http://www.w3.org/1999/xlink" width="84.264" height="84.264" viewBox="0 0 84.264 84.264">
  <defs>
    <clipPath id="clip-path">
      <path id="path360" d="M0-682.665H59.635v59.635H0Z" transform="translate(0 682.665)" fill="#fff"/>
    </clipPath>
  </defs>
  <g id="Group_6_icons_-_selected_6" data-name="Group 6 icons - selected 6" transform="translate(18122.375 -2478.388)">
    <circle id="Ellipse_368" data-name="Ellipse 368" cx="42.132" cy="42.132" r="42.132" transform="translate(-18038.111 2478.388) rotate(90)" fill="#903"/>
    <g id="g354" transform="translate(-18109.072 3173.367)">
      <g id="g356" transform="translate(0 -682.665)">
        <g id="g358" transform="translate(0 0)" clip-path="url(#clip-path)">
          <g id="g364" transform="translate(1.165 6.68)">
            <path id="path366" d="M0-114.579v-7.937a3.029,3.029,0,0,1,3.028-3.03h10.4l1.982,1.558H45.995a3.029,3.029,0,0,1,3.028,3.03v6.38" transform="translate(0 125.546)" fill="none" stroke="#fff" stroke-linecap="round" stroke-linejoin="round" stroke-miterlimit="10" stroke-width="1.8"/>
          </g>
          <g id="g368" transform="translate(5.283 12.901)">
            <path id="path370" d="M0-49.58v-2a2.743,2.743,0,0,1,2.743-2.743H37.16A2.743,2.743,0,0,1,39.9-51.582v2" transform="translate(0 54.325)" fill="none" stroke="#fff" stroke-linecap="round" stroke-linejoin="round" stroke-miterlimit="10" stroke-width="1.8"/>
          </g>
          <g id="g372" transform="translate(50.188 17.647)">
            <path id="path374" d="M0,0V18.026" fill="none" stroke="#fff" stroke-linecap="round" stroke-linejoin="round" stroke-miterlimit="10" stroke-width="1.8"/>
          </g>
          <g id="g376" transform="translate(1.165 17.647)">
            <path id="path378" d="M-436.438-333.173h-38.746a3.029,3.029,0,0,1-3.029-3.029v-28.861" transform="translate(478.212 365.063)" fill="none" stroke="#fff" stroke-linecap="round" stroke-linejoin="round" stroke-miterlimit="10" stroke-width="1.8"/>
          </g>
          <g id="g380" transform="translate(41.906 36.384)">
            <path id="path382" d="M-173.054-86.563a8.284,8.284,0,0,1-8.282,8.286,8.284,8.284,0,0,1-8.282-8.286,8.284,8.284,0,0,1,8.282-8.286A8.284,8.284,0,0,1-173.054-86.563Z" transform="translate(189.618 94.849)" fill="none" stroke="#fff" stroke-linecap="round" stroke-linejoin="round" stroke-miterlimit="10" stroke-width="1.8"/>
          </g>
          <g id="g384" transform="translate(47.881 43.108)">
            <path id="path386" d="M0-19.619,2.307-18.1l2.922-3.4" transform="translate(0 21.497)" fill="none" stroke="#fff" stroke-linecap="round" stroke-linejoin="round" stroke-miterlimit="10" stroke-width="1.8"/>
          </g>
          <g id="g388" transform="translate(30.5 17.647)">
            <path id="path390" d="M-200.791,0H-220.01" transform="translate(220.01)" fill="none" stroke="#fff" stroke-linecap="round" stroke-linejoin="round" stroke-miterlimit="10" stroke-width="1.8"/>
          </g>
          <g id="g392" transform="translate(1.455 17.647)">
            <path id="path394" d="M-193.435,0H-211.95" transform="translate(211.95)" fill="none" stroke="#fff" stroke-linecap="round" stroke-linejoin="round" stroke-miterlimit="10" stroke-width="1.8"/>
          </g>
          <g id="g396" transform="translate(25.256 17.647)">
            <path id="path398" d="M0,0H0" fill="none" stroke="#fff" stroke-linecap="round" stroke-linejoin="round" stroke-miterlimit="10" stroke-width="1.8"/>
          </g>
          <path id="path400" d="M334.43-291.934h-8.777v15.4h8.777Z" transform="translate(-297.205 326.067)" fill="none" stroke="#fff" stroke-linecap="round" stroke-linejoin="round" stroke-miterlimit="10" stroke-width="1.8"/>
          <path id="path402" d="M151.624-331.717h15.2V-352.4h-15.2Z" transform="translate(-138.378 381.255)" fill="none" stroke="#fff" stroke-linecap="round" stroke-linejoin="round" stroke-miterlimit="10" stroke-width="1.8"/>
          <path id="path404" d="M171.373-404.148h11.752V-409.1H171.373Z" transform="translate(-156.402 432.998)" fill="none" stroke="#fff" stroke-linecap="round" stroke-linejoin="round" stroke-miterlimit="10" stroke-width="1.8"/>
          <g id="g406" transform="translate(18.394 34.79)">
            <path id="path408" d="M0,0V10" fill="none" stroke="#fff" stroke-linecap="round" stroke-linejoin="round" stroke-miterlimit="10" stroke-width="1.8"/>
          </g>
          <g id="g410" transform="translate(23.299 34.79)">
            <path id="path412" d="M0,0V10" fill="none" stroke="#fff" stroke-linecap="round" stroke-linejoin="round" stroke-miterlimit="10" stroke-width="1.8"/>
          </g>
        </g>
      </g>
    </g>
  </g>
</svg>
