<svg xmlns="http://www.w3.org/2000/svg" width="84.264" height="84.264" viewBox="0 0 84.264 84.264">
  <g id="Group_1309" data-name="Group 1309" transform="translate(10788.25 -17049.172)">
    <g id="Group_2_icons_-_selected_2" data-name="Group 2 icons - selected 2" transform="translate(7863.16 13531.278)">
      <g id="Group_945" data-name="Group 945">
        <circle id="Ellipse_399" data-name="Ellipse 399" cx="42.132" cy="42.132" r="42.132" transform="translate(-18567.146 3517.894) rotate(90)" fill="#45596d"/>
        <path id="Path_1730" data-name="Path 1730" d="M22.118,21.894a5.732,5.732,0,1,0-5.732-5.731A5.738,5.738,0,0,0,22.118,21.894Zm0-9.905a4.174,4.174,0,1,1-4.174,4.174A4.178,4.178,0,0,1,22.118,11.989Zm.77,5.585a.171.171,0,0,0,.037-.158c-.013-.107-.043-.357-.929-.5-1.744-.286-2.052-1.3-2.08-1.878a1.953,1.953,0,0,1,1.423-1.959v-.048a.779.779,0,0,1,1.558,0v.037a2.271,2.271,0,0,1,1.4,1.291.779.779,0,1,1-1.436.6.8.8,0,0,0-.943-.428c-.107.024-.457.127-.442.428.009.193.27.333.776.416,1.353.222,2.1.845,2.223,1.852a1.715,1.715,0,0,1-.4,1.365,2.31,2.31,0,0,1-1.17.685V19.3a.779.779,0,0,1-1.558,0v-.032a2.21,2.21,0,0,1-1.566-1.581.779.779,0,1,1,1.512-.377.824.824,0,0,0,.879.511,1.082,1.082,0,0,0,.724-.244ZM24.333,36.18h-3.9a.779.779,0,0,0-.779.779V49.415a.779.779,0,0,0,.779.779h3.9a.779.779,0,0,0,.779-.779V36.959A.779.779,0,0,0,24.333,36.18Zm-.779,12.457H21.209v-10.9h2.345Zm-6.468-7.625h-3.9a.779.779,0,0,0-.779.779v7.625a.779.779,0,0,0,.779.779h3.9a.779.779,0,0,0,.779-.779V41.791A.779.779,0,0,0,17.087,41.012Zm-.779,7.625H13.963V42.57h2.345v6.067ZM35.852,29.283,30.182,35a.779.779,0,0,1-.793.193l-6.854-2.221-6.921,5.389a.779.779,0,0,1-.957-1.229L21.9,31.49a.779.779,0,0,1,.719-.126l6.791,2.2,5.412-5.458-.24.021a.779.779,0,0,1-.136-1.552l2.359-.207a.779.779,0,0,1,.842.863l-.263,2.353a.779.779,0,0,1-1.548-.173Zm-4.991-.374a.779.779,0,0,1-.779.779H18.67a.779.779,0,1,1,0-1.558H30.082A.779.779,0,0,1,30.861,28.909ZM18.67,23.086H30.082a.779.779,0,1,1,0,1.558H18.67a.779.779,0,1,1,0-1.558Zm-6.749.129a.779.779,0,1,1,1.1-1.1l.65.65.65-.65a.779.779,0,1,1,1.1,1.1l-.65.65.65.65a.779.779,0,0,1-1.1,1.1l-.65-.65-.65.65a.779.779,0,1,1-1.1-1.1l.65-.65ZM55.686,49.691,47.751,35.947a4.355,4.355,0,0,0-3.724-2.2V14.739a1.647,1.647,0,0,0-.492-1.188L38.475,8.492A1.647,1.647,0,0,0,37.287,8H9.664a1.682,1.682,0,0,0-1.68,1.68V52.573a1.682,1.682,0,0,0,1.68,1.68H32.288A4.353,4.353,0,0,0,36,56.3h15.87a4.4,4.4,0,0,0,3.813-6.6Zm-14.319-36.1H38.439V10.66ZM32.359,49.4V38.585a.779.779,0,0,0-.779-.779h-3.9a.779.779,0,0,0-.779.779v10.83a.779.779,0,0,0,.779.779h3.9A.774.774,0,0,0,32,50.074a4.338,4.338,0,0,0-.326,2.621H9.664a.124.124,0,0,1-.122-.122V9.68a.124.124,0,0,1,.122-.122H36.881v4.358a1.231,1.231,0,0,0,1.229,1.229h4.358V33.994a4.36,4.36,0,0,0-2.343,1.953l-.52.9V31.839a.779.779,0,0,0-.779-.779h-3.9a.779.779,0,0,0-.779.779V46.306ZM30.8,39.364v9.272H28.456V39.364Zm7.246.182L35.7,43.607V32.618h2.345ZM54.337,53.315a2.816,2.816,0,0,1-2.464,1.422H36a2.845,2.845,0,0,1-2.464-4.267l7.935-13.744a2.845,2.845,0,0,1,4.927,0L54.337,50.47a2.816,2.816,0,0,1,0,2.845Zm-10.4-4.248A1.721,1.721,0,0,0,45.664,47.4l.24-6.64a1.728,1.728,0,0,0-1.726-1.79H43.7a1.728,1.728,0,0,0-1.726,1.79l.24,6.64a1.722,1.722,0,0,0,1.726,1.665Zm-.362-8.486a.142.142,0,0,1,.122-.052h.48a.17.17,0,0,1,.17.176l-.24,6.641a.17.17,0,0,1-.339,0l-.24-6.64a.143.143,0,0,1,.048-.124Zm.362,9.1a1.994,1.994,0,1,0,1.994,1.994A2,2,0,0,0,43.938,49.679Zm0,2.431a.436.436,0,1,1,.436-.436A.437.437,0,0,1,43.938,52.11ZM11.921,30.66a.779.779,0,0,1,0-1.1l.65-.65-.65-.65a.779.779,0,0,1,1.1-1.1l.65.65.65-.65a.779.779,0,0,1,1.1,1.1l-.65.65.65.65a.779.779,0,0,1-1.1,1.1l-.65-.65-.65.65a.779.779,0,0,1-1.1,0Z" transform="translate(-18638.627 3526.345)" fill="#fff"/>
      </g>
    </g>
  </g>
</svg>
