<svg xmlns="http://www.w3.org/2000/svg" width="84.264" height="84.264" viewBox="0 0 84.264 84.264">
  <g id="Group_1303" data-name="Group 1303" transform="translate(10202.25 -17049.172)">
    <g id="Group_2_icons_-_selected_8" data-name="Group 2 icons - selected 8" transform="translate(7863.16 13531.278)">
      <circle id="Ellipse_406" data-name="Ellipse 406" cx="42.132" cy="42.132" r="42.132" transform="translate(-17981.146 3517.894) rotate(90)" fill="#45596d"/>
      <g id="Group_935" data-name="Group 935" transform="translate(-18049.404 3532.588)">
        <path id="Path_1113" data-name="Path 1113" d="M39.612,25.709a4.567,4.567,0,0,0-3.037-2.1V8.707a4.359,4.359,0,0,0-4.354-4.354H25.012a1.736,1.736,0,0,0-1.5-.871H22.344a5.225,5.225,0,0,0-9.856,0H11.321a1.736,1.736,0,0,0-1.5.871H4.354A4.359,4.359,0,0,0,0,8.707V45.282a4.359,4.359,0,0,0,4.354,4.354H19.645c.04.082.072.166.118.246a4.543,4.543,0,0,0,4.011,2.366H47.643a4.544,4.544,0,0,0,4.006-2.367,4.655,4.655,0,0,0-.1-4.766Zm-4.779-17V23.6a4.513,4.513,0,0,0-1.742.734V9.578A1.742,1.742,0,0,0,31.35,7.837h-6.1V6.095h6.967A2.612,2.612,0,0,1,34.833,8.707ZM11.321,5.224h1.829a.871.871,0,0,0,.854-.7,3.483,3.483,0,0,1,6.826,0,.871.871,0,0,0,.854.7h1.829V8.707H11.321Zm12.192,5.225a1.736,1.736,0,0,0,1.5-.871H31.35V26.435L20.29,44.411H5.225V9.578h4.6a1.736,1.736,0,0,0,1.5.871ZM4.354,47.895a2.612,2.612,0,0,1-2.612-2.612V8.707A2.612,2.612,0,0,1,4.354,6.095H9.579V7.837H5.225A1.742,1.742,0,0,0,3.483,9.578V44.411a1.742,1.742,0,0,0,1.742,1.742H19.387a4.615,4.615,0,0,0-.213,1.742Zm45.771,1.138a2.824,2.824,0,0,1-2.487,1.474H23.774a2.822,2.822,0,0,1-2.486-1.473,2.936,2.936,0,0,1,.062-3.007l11.93-19.4a2.834,2.834,0,0,1,4.85,0L50.06,46.028a2.934,2.934,0,0,1,.065,3Z" fill="#fff"/>
        <path id="Path_1114" data-name="Path 1114" d="M40.612,33A2.612,2.612,0,0,0,38,35.612V43.45a2.612,2.612,0,0,0,5.225,0V35.612A2.612,2.612,0,0,0,40.612,33Zm.871,10.45a.871.871,0,0,1-1.742,0V35.612a.871.871,0,1,1,1.742,0Z" transform="translate(-4.909 -4.264)" fill="#fff"/>
        <path id="Path_1115" data-name="Path 1115" d="M40.612,50a2.612,2.612,0,1,0,2.612,2.612A2.612,2.612,0,0,0,40.612,50Zm0,3.483a.871.871,0,1,1,.871-.871A.871.871,0,0,1,40.612,53.483Z" transform="translate(-4.909 -6.46)" fill="#fff"/>
        <path id="Path_1116" data-name="Path 1116" d="M19.871,18.742H31.192a.871.871,0,0,0,0-1.742H19.871a.871.871,0,0,0,0,1.742Z" transform="translate(-2.454 -2.197)" fill="#fff"/>
        <path id="Path_1117" data-name="Path 1117" d="M19.871,22.742H25.1A.871.871,0,0,0,25.1,21H19.871a.871.871,0,1,0,0,1.742Z" transform="translate(-2.454 -2.713)" fill="#fff"/>
        <path id="Path_1118" data-name="Path 1118" d="M19.871,29.742H31.192a.871.871,0,0,0,0-1.742H19.871a.871.871,0,1,0,0,1.742Z" transform="translate(-2.454 -3.618)" fill="#fff"/>
        <path id="Path_1119" data-name="Path 1119" d="M19.871,33.742H25.1A.871.871,0,0,0,25.1,32H19.871a.871.871,0,1,0,0,1.742Z" transform="translate(-2.454 -4.134)" fill="#fff"/>
        <path id="Path_1120" data-name="Path 1120" d="M19.871,40.742h6.1a.871.871,0,1,0,0-1.742h-6.1a.871.871,0,1,0,0,1.742Z" transform="translate(-2.454 -5.039)" fill="#fff"/>
        <path id="Path_1121" data-name="Path 1121" d="M19.871,44.742h3.483a.871.871,0,0,0,0-1.742H19.871a.871.871,0,1,0,0,1.742Z" transform="translate(-2.454 -5.555)" fill="#fff"/>
        <path id="Path_1122" data-name="Path 1122" d="M9.255,20.48a.871.871,0,0,0,0,1.231L11,23.453a.871.871,0,0,0,.616.255.835.835,0,0,0,.139-.011.871.871,0,0,0,.64-.47l3.483-6.967a.871.871,0,0,0-1.559-.779l-2.943,5.886-.887-.887a.871.871,0,0,0-1.231,0Z" transform="translate(-1.163 -1.938)" fill="#fff"/>
        <path id="Path_1123" data-name="Path 1123" d="M15.485,26.091a.871.871,0,0,0-1.169.39l-2.943,5.886-.887-.887a.871.871,0,1,0-1.231,1.231L11,34.453a.871.871,0,0,0,.616.255.835.835,0,0,0,.139-.011.871.871,0,0,0,.64-.47l3.483-6.967A.871.871,0,0,0,15.485,26.091Z" transform="translate(-1.163 -3.359)" fill="#fff"/>
        <path id="Path_1124" data-name="Path 1124" d="M15.485,37.086a.871.871,0,0,0-1.169.39l-2.943,5.886-.887-.887a.871.871,0,1,0-1.231,1.231L11,45.448a.871.871,0,0,0,.616.26.835.835,0,0,0,.139-.011.871.871,0,0,0,.64-.47l3.483-6.967a.871.871,0,0,0-.39-1.173Z" transform="translate(-1.163 -4.78)" fill="#fff"/>
      </g>
    </g>
  </g>
</svg>
