<svg id="Group_1221" data-name="Group 1221" xmlns="http://www.w3.org/2000/svg" xmlns:xlink="http://www.w3.org/1999/xlink" width="246.109" height="246.115" viewBox="0 0 246.109 246.115">
  <defs>
    <clipPath id="clip-path">
      <rect id="Rectangle_575" data-name="Rectangle 575" width="246.109" height="246.115" fill="none"/>
    </clipPath>
  </defs>
  <g id="Group_1220" data-name="Group 1220" clip-path="url(#clip-path)">
    <path id="Path_1739" data-name="Path 1739" d="M108.19,85.087l8.132,6.7-2.637,10.2a3.488,3.488,0,0,0,5.255,3.815l8.886-5.664,8.886,5.663a3.487,3.487,0,0,0,5.255-3.815l-2.64-10.2,8.132-6.7a3.488,3.488,0,0,0-2.006-6.172l-10.518-.642-3.869-9.8a3.487,3.487,0,0,0-6.489,0l-3.861,9.8-10.518.642a3.489,3.489,0,0,0-2.006,6.173Zm15.166.012a3.488,3.488,0,0,0,3.033-2.2l1.433-3.631,1.433,3.631a3.488,3.488,0,0,0,3.032,2.2l3.9.238-3.013,2.484a3.487,3.487,0,0,0-1.158,3.565l.978,3.78-3.292-2.1a3.485,3.485,0,0,0-3.748,0l-3.292,2.1.978-3.78a3.486,3.486,0,0,0-1.158-3.565l-3.013-2.484Z" transform="translate(-4.763 -2.952)" fill="#b81416"/>
    <path id="Path_1740" data-name="Path 1740" d="M155.485,134.414a3.488,3.488,0,0,0,5.255,3.815l8.886-5.663,8.886,5.663a3.483,3.483,0,0,0,3.923-.119h-.006a3.485,3.485,0,0,0,1.327-3.695l-2.639-10.2,8.132-6.7a3.487,3.487,0,0,0-2.006-6.172l-10.519-.643-3.861-9.8a3.487,3.487,0,0,0-6.489,0l-3.861,9.8-10.518.643a3.487,3.487,0,0,0-2.006,6.172l8.132,6.7Zm9.675-16.892a3.485,3.485,0,0,0,3.032-2.2l1.433-3.631,1.433,3.631a3.488,3.488,0,0,0,3.032,2.2l3.9.238-3.022,2.482a3.489,3.489,0,0,0-1.158,3.565l.978,3.782-3.292-2.1a3.485,3.485,0,0,0-3.748,0l-3.292,2.1.978-3.78a3.485,3.485,0,0,0-1.155-3.565l-3.013-2.484Z" transform="translate(-6.626 -4.396)" fill="#b81416"/>
    <path id="Path_1741" data-name="Path 1741" d="M245.669,107.967a11.275,11.275,0,0,0-10.9-8.208h0a22.988,22.988,0,0,1-16.243-39.221,11.354,11.354,0,0,0,0-16.04L201.616,27.586a11.344,11.344,0,0,0-16.04,0,22.988,22.988,0,0,1-39.221-16.243A11.354,11.354,0,0,0,135.013,0H111.1A11.355,11.355,0,0,0,99.758,11.341,22.988,22.988,0,0,1,60.537,27.584a11.344,11.344,0,0,0-16.04,0L27.586,44.5a11.354,11.354,0,0,0,0,16.04A22.988,22.988,0,0,1,11.343,99.757,11.355,11.355,0,0,0,0,111.1v23.913a11.355,11.355,0,0,0,11.341,11.341,22.988,22.988,0,0,1,16.243,39.221,11.354,11.354,0,0,0,0,16.04L44.5,218.527a11.356,11.356,0,0,0,16.04,0,22.59,22.59,0,0,1,16.314-6.774,47.478,47.478,0,0,0-1.679,12.486c0,5.072,2.8,12.148,16.157,17.064,8.428,3.1,19.7,4.813,31.727,4.813,23.834,0,47.883-6.764,47.883-21.88a47.471,47.471,0,0,0-1.673-12.47,22.549,22.549,0,0,1,16.31,6.759,11.356,11.356,0,0,0,16.04,0l16.911-16.911a11.354,11.354,0,0,0,0-16.04,22.988,22.988,0,0,1,16.243-39.221,11.355,11.355,0,0,0,11.341-11.341V111.1a11.861,11.861,0,0,0-.44-3.134M123.056,239.137c-22.939,0-40.909-6.546-40.909-14.9A41.141,41.141,0,0,1,99.42,190.847L120.141,222.4a3.487,3.487,0,0,0,5.828,0l20.722-31.556a41.141,41.141,0,0,1,17.272,33.386c0,8.359-17.97,14.9-40.907,14.9m19.711-55.017-9.65,14.7-.95-7.085a6.75,6.75,0,0,0,.882-1.771L134.6,185.2a6.749,6.749,0,0,0-6.426-8.846H117.946a6.748,6.748,0,0,0-6.426,8.846l1.548,4.762a6.786,6.786,0,0,0,.881,1.77l-.95,7.086-9.65-14.695a3.488,3.488,0,0,0-4.7-1.084c-.528.313-1.051.639-1.56.972a66.245,66.245,0,1,1,51.932,0c-.517-.333-1.036-.658-1.564-.973a3.486,3.486,0,0,0-4.7,1.084m-16.3,3.535h-6.816l-1.405-4.327h9.628Zm.808,20.064-4.216,6.422-4.216-6.421,1.754-13.091h4.924Zm111.865-72.71a4.371,4.371,0,0,1-4.366,4.366,29.963,29.963,0,0,0-21.178,51.129,4.372,4.372,0,0,1,0,6.176l-16.911,16.911a4.372,4.372,0,0,1-6.176,0,29.381,29.381,0,0,0-23.682-8.686,48.313,48.313,0,0,0-11.561-16.081,73.215,73.215,0,1,0-64.408,0A48.319,48.319,0,0,0,79.295,204.89a29.41,29.41,0,0,0-23.687,8.7,4.371,4.371,0,0,1-6.176,0L32.52,196.681a4.372,4.372,0,0,1,0-6.176,29.477,29.477,0,0,0,6.473-32.632,29.478,29.478,0,0,0-27.651-18.5,4.371,4.371,0,0,1-4.366-4.366V111.1a4.371,4.371,0,0,1,4.366-4.366,29.476,29.476,0,0,0,27.65-18.5,29.477,29.477,0,0,0-6.473-32.629,4.372,4.372,0,0,1,0-6.176L49.43,32.52a4.369,4.369,0,0,1,6.176,0,29.477,29.477,0,0,0,32.63,6.472,29.475,29.475,0,0,0,18.5-27.651A4.372,4.372,0,0,1,111.1,6.975h23.913a4.372,4.372,0,0,1,4.366,4.366,29.477,29.477,0,0,0,18.5,27.651,29.478,29.478,0,0,0,32.632-6.473,4.369,4.369,0,0,1,6.176,0L213.594,49.43a4.372,4.372,0,0,1,0,6.176,29.963,29.963,0,0,0,21.178,51.129,4.371,4.371,0,0,1,4.366,4.366Z" fill="#45596d"/>
    <path id="Path_1742" data-name="Path 1742" d="M127.675,129.252a24,24,0,1,0,24.007,24,24,24,0,0,0-24.007-24m0,41.035a17.03,17.03,0,1,1,17.032-17.032,17.03,17.03,0,0,1-17.032,17.032" transform="translate(-4.619 -5.758)" fill="#45596d"/>
    <path id="Path_1743" data-name="Path 1743" d="M106.749,113.738v0a3.487,3.487,0,0,0-3.1-2.4L93.126,110.7l-3.861-9.8a3.487,3.487,0,0,0-6.489,0l-3.861,9.8-10.518.643a3.487,3.487,0,0,0-2.006,6.172l8.132,6.7-2.638,10.2a3.488,3.488,0,0,0,5.255,3.815l8.886-5.663,8.886,5.663a3.487,3.487,0,0,0,5.255-3.815L97.519,124.21l8.132-6.7a3.489,3.489,0,0,0,1.1-3.769m-15.383,6.506a3.487,3.487,0,0,0-1.158,3.565l.978,3.78-3.292-2.1a3.485,3.485,0,0,0-3.748,0l-3.292,2.1.978-3.78a3.485,3.485,0,0,0-1.158-3.565l-3.013-2.484,3.9-.238a3.487,3.487,0,0,0,3.032-2.2l1.433-3.631,1.433,3.631a3.488,3.488,0,0,0,3.032,2.2l3.9.238Z" transform="translate(-2.901 -4.396)" fill="#b81416"/>
  </g>
</svg>
