<svg xmlns="http://www.w3.org/2000/svg" width="90.491" height="90.49" viewBox="0 0 90.491 90.49">
  <g id="Group_1358" data-name="Group 1358" transform="translate(6310 -18062.67)">
    <circle id="Ellipse_416" data-name="Ellipse 416" cx="45.245" cy="45.245" r="45.245" transform="translate(-6219.509 18062.67) rotate(90)" fill="#45596d"/>
    <g id="Group_993" data-name="Group 993" transform="translate(-6302.862 18068.635)">
      <path id="Path_800" data-name="Path 800" d="M35.835,107.439a5.436,5.436,0,0,0-10.86-.361,6.792,6.792,0,0,0-8.376,8.98,9.519,9.519,0,0,0-6.6,9.058H20.606v2.312a2.311,2.311,0,0,0,2.312,2.312h0a2.311,2.311,0,0,0,2.312-2.312v-2.312H35.835v-8.09H33.523a2.312,2.312,0,0,1-2.312-2.312h0a2.312,2.312,0,0,1,2.312-2.312h2.312v-4.963Z" transform="translate(0 -81.365)" fill="none" stroke="#fff" stroke-linecap="round" stroke-linejoin="round" stroke-miterlimit="10" stroke-width="1.3"/>
      <path id="Path_801" data-name="Path 801" d="M253.245,278.184s0,0,0,0a6.769,6.769,0,0,0-.481-2.5,9.519,9.519,0,0,0,6.6-9.058H248.758v-2.312a2.312,2.312,0,1,0-4.623,0v2.312H233.529v8.09h2.312a2.312,2.312,0,0,1,0,4.623h-2.312V284.3a5.436,5.436,0,0,0,10.86.361,6.791,6.791,0,0,0,2.058.319h0" transform="translate(-197.694 -222.873)" fill="none" stroke="#fff" stroke-linecap="round" stroke-linejoin="round" stroke-miterlimit="10" stroke-width="1.3"/>
      <path id="Path_802" data-name="Path 802" d="M294.186,35.4l.791-2.172a2.311,2.311,0,0,0-1.381-2.963h0a2.312,2.312,0,0,0-2.963,1.382l-.791,2.172-9.966-3.627,2.767-7.6-2.172-.791a2.311,2.311,0,0,1-1.382-2.963h0a2.311,2.311,0,0,1,2.963-1.382l2.172.791,1.639-4.5a5.552,5.552,0,0,1,6.565-3.558,5.435,5.435,0,0,1,3.822,6.772,6.793,6.793,0,0,1,4.8,11.3,9.519,9.519,0,0,1,3.1,10.769Z" transform="translate(-237.865)" fill="none" stroke="#fff" stroke-linecap="round" stroke-linejoin="round" stroke-miterlimit="10" stroke-width="1.3"/>
      <path id="Path_803" data-name="Path 803" d="M35.835,319.677a5.436,5.436,0,0,1-10.86.361,6.792,6.792,0,0,1-8.376-8.98A9.519,9.519,0,0,1,10,302" transform="translate(0 -258.25)" fill="none" stroke="#fff" stroke-linecap="round" stroke-linejoin="round" stroke-miterlimit="10" stroke-width="1.3"/>
      <g id="Group_294" data-name="Group 294" transform="translate(53.56 60.115)">
        <rect id="Rectangle_285" data-name="Rectangle 285" fill="none" stroke="#fff" stroke-linecap="round" stroke-linejoin="round" stroke-miterlimit="10" stroke-width="1.3"/>
      </g>
    </g>
  </g>
</svg>
