<svg xmlns="http://www.w3.org/2000/svg" width="72.264" height="72.264" viewBox="0 0 72.264 72.264">
  <g id="Group_6_icons_-_not_selected_7" data-name="Group 6 icons - not selected 7" transform="translate(18024.051 -2377.642)">
    <circle id="Ellipse_275" data-name="Ellipse 275" cx="36.132" cy="36.132" r="36.132" transform="translate(-17951.787 2377.642) rotate(90)" fill="#d0cabe"/>
    <path id="Path_1255" data-name="Path 1255" d="M51.7,35.6a4.234,4.234,0,0,0-3.373-4.144V18.11a.605.605,0,0,0-.605-.605H39.882V15.6A.605.605,0,0,0,39.276,15H24.711a.605.605,0,0,0-.605.605v1.9H16.265a.605.605,0,0,0-.605.605v4.852a1.255,1.255,0,0,0-.512.491l0,.008-.068.122A.788.788,0,0,1,14,23.866l-.128-.074a1.258,1.258,0,0,0-1.888,1.09v.147a.785.785,0,0,1-.784.784h-.147A1.26,1.26,0,0,0,9.968,27.7l.073.127A.786.786,0,0,1,9.753,28.9l-.13.075a1.26,1.26,0,0,0,0,2.179l.128.074a.785.785,0,0,1,.287,1.069l-.074.128a1.258,1.258,0,0,0,1.09,1.888H11.2a.785.785,0,0,1,.784.784v.147A1.26,1.26,0,0,0,13.283,36.5v6.17a.605.605,0,0,0,1,.462l1.381-1.168v14.09a.605.605,0,0,0,.605.605H47.723a.605.605,0,0,0,.605-.605V39.742A4.223,4.223,0,0,0,51.7,35.6ZM25.316,16.209H38.671v3.457H25.316ZM13.222,35.287c-.018-.01-.023-.014-.023-.042V35.1A2,2,0,0,0,11.2,33.1h-.147c-.027,0-.031-.005-.042-.023a.038.038,0,0,1,0-.049l.073-.127a2,2,0,0,0-.731-2.724l-.125-.072a.04.04,0,0,1-.026-.043.038.038,0,0,1,.023-.042l.127-.073a2,2,0,0,0,.732-2.726l-.075-.13c-.01-.017-.01-.024,0-.045s.022-.025.042-.025H11.2A2,2,0,0,0,13.2,25.03v-.147c0-.027.005-.031.023-.042a.038.038,0,0,1,.05,0l.127.073a2,2,0,0,0,2.725-.727l.005-.01.068-.122a.037.037,0,0,1,.032-.022h.027a.042.042,0,0,1,.025.023l.074.128a2,2,0,0,0,2.723.729l.127-.073a.038.038,0,0,1,.05,0c.018.01.023.014.023.042v.147a2,2,0,0,0,1.995,1.995h.147c.02,0,.028,0,.043.028s.01.024,0,.044l-.074.128a2,2,0,0,0,.732,2.725l.125.072a.04.04,0,0,1,.026.043.038.038,0,0,1-.023.042l-.127.073a2,2,0,0,0-.732,2.724l.073.127a.039.039,0,0,1,0,.05c-.01.018-.014.023-.042.023h-.147A2,2,0,0,0,19.279,35.1v.147c0,.027-.005.031-.023.042a.038.038,0,0,1-.05,0l-.127-.073a2,2,0,0,0-2.724.731l-.074.128a.038.038,0,0,1-.042.023c-.031,0-.036-.008-.044-.023l-.074-.128a1.994,1.994,0,0,0-2.723-.731l-.127.073a.038.038,0,0,1-.05,0Zm1.271.878a.784.784,0,0,1,.581.385l.073.127a1.262,1.262,0,0,0,2.183,0l.073-.127a.778.778,0,0,1,.422-.347v5.167L16.55,40.292a.6.6,0,0,0-.782,0l-1.275,1.079V36.165ZM16.87,55.454V42.148l1.17.99a.605.605,0,0,0,1-.462V36.49a1.259,1.259,0,0,0,1.453-1.245V35.1a.785.785,0,0,1,.784-.784h.147a1.258,1.258,0,0,0,1.09-1.888l-.074-.128a.785.785,0,0,1,.288-1.07l.13-.075a1.26,1.26,0,0,0,0-2.179l-.128-.074a.787.787,0,0,1-.287-1.072l.072-.125a1.26,1.26,0,0,0-1.089-1.89h-.147a.785.785,0,0,1-.784-.784v-.147a1.258,1.258,0,0,0-1.888-1.09l-.128.074a.786.786,0,0,1-1.069-.285l-.073-.127a1.26,1.26,0,0,0-.461-.464V18.716h7.236v1.556a.605.605,0,0,0,.605.605H39.276a.605.605,0,0,0,.605-.605V18.716h7.236v12.67a4.2,4.2,0,0,0-2.641,1.224,4.251,4.251,0,0,0-1.226,3.323l-3.5,3.5-2.881-2.881a.605.605,0,0,0-.856,0l-5.893,5.893a.605.605,0,0,0,0,.856l2.559,2.559H25.025a.605.605,0,0,0-.605.605v4.9a.605.605,0,0,0,.605.605H38.79l.977.977a.605.605,0,0,0,.856,0l5.893-5.893a.605.605,0,0,0,0-.856l-2.881-2.881,3.482-3.482V55.454H16.87Zm28.362-8.821-2.914,2.914-8.795-8.793,2.915-2.915ZM37.58,50.766H25.63V47.074h8.257ZM31.4,42.876l1.266-1.266L41.463,50.4,40.2,51.67,31.4,42.876Zm15.607-4.288a.607.607,0,0,0-.52.17l-3.709,3.709L40.6,40.292l3.709-3.709a.605.605,0,0,0,.17-.52,3.034,3.034,0,0,1,.849-2.6,3.021,3.021,0,1,1,4.273,4.273,3.034,3.034,0,0,1-2.6.849ZM26.1,48.919a.605.605,0,0,1,.605-.605h5.761a.605.605,0,0,1,0,1.211H26.7A.605.605,0,0,1,26.1,48.919ZM20.585,30.065A4.346,4.346,0,1,0,16.24,34.41,4.351,4.351,0,0,0,20.585,30.065Zm-7.481,0A3.135,3.135,0,1,1,16.24,33.2,3.14,3.14,0,0,1,13.1,30.065ZM24.42,25.709a.605.605,0,0,1,.605-.605h17.4a.605.605,0,0,1,0,1.211h-17.4A.605.605,0,0,1,24.42,25.709Zm0,5.107a.605.605,0,0,1,.605-.605h17.4a.605.605,0,0,1,0,1.211h-17.4A.605.605,0,0,1,24.42,30.815Zm0,5.107a.605.605,0,0,1,.605-.605h7.858a.605.605,0,0,1,0,1.211H25.025a.605.605,0,0,1-.605-.605Zm0,5.107a.605.605,0,0,1,.605-.605h4.016a.605.605,0,0,1,0,1.211H25.025A.605.605,0,0,1,24.42,41.028Z" transform="translate(-18018.555 2377.63)" fill="#aba28b"/>
  </g>
</svg>
