<svg xmlns="http://www.w3.org/2000/svg" width="84.264" height="84.264" viewBox="0 0 84.264 84.264">
  <g id="Group_6_icons_-_selected_1" data-name="Group 6 icons - selected 1" transform="translate(18602.375 -2478.388)">
    <circle id="Ellipse_364" data-name="Ellipse 364" cx="42.132" cy="42.132" r="42.132" transform="translate(-18518.111 2478.388) rotate(90)" fill="#903"/>
    <path id="Path_1727" data-name="Path 1727" d="M30.913,27.377H34.16a.667.667,0,0,0,.667-.667V17.121a.667.667,0,0,0-.667-.667H30.913a.667.667,0,0,0-.667.667V26.71A.667.667,0,0,0,30.913,27.377Zm.667-9.589h1.913v8.255H31.58Zm5.189,9.589h3.247a.667.667,0,0,0,.667-.667V14.191a.667.667,0,0,0-.667-.667H36.769a.667.667,0,0,0-.667.667V26.71A.667.667,0,0,0,36.769,27.377Zm.667-12.52h1.913V26.043H37.436ZM24.39,20.051V26.71a.667.667,0,0,0,.667.667H28.3a.667.667,0,0,0,.667-.667V20.051a.667.667,0,0,0-.667-.667H25.057a.667.667,0,0,0-.667.667Zm1.334.667h1.913v5.325H25.724ZM33.2,33.507a.667.667,0,0,1-.667.667H25.057a.667.667,0,1,1,0-1.334h7.479A.667.667,0,0,1,33.2,33.507Zm7.48-3.273a.667.667,0,0,1-.667.667H25.057a.667.667,0,0,1,0-1.334H40.016A.667.667,0,0,1,40.683,30.234Zm6.215,1.02a2.184,2.184,0,0,1,1.65-2.058l-.008-.325a.667.667,0,1,1,1.334-.032l.009.37a2.508,2.508,0,0,1,1.376.88.667.667,0,1,1-1.115.733,1.675,1.675,0,0,0-.917-.385.833.833,0,1,0,0,1.634,2.248,2.248,0,0,1,2.329,2.151,2.184,2.184,0,0,1-1.649,2.058l.006.271a.667.667,0,0,1-.651.683h-.016a.667.667,0,0,1-.667-.651l-.007-.291a2.742,2.742,0,0,1-1.194-.738.667.667,0,0,1,.915-.971,1.171,1.171,0,0,0,.933.456.833.833,0,1,0,0-1.634A2.248,2.248,0,0,1,46.9,31.253Zm7.287,9.712H47.5V39.339a6.849,6.849,0,1,0,0-13.258V9.663A.667.667,0,0,0,46.836,9H24.126a.667.667,0,0,0-.472.2L17.765,15.08a.667.667,0,0,0-.2.472V37.808l-2.218,2.218a1.768,1.768,0,0,0,0,2.5l2.127,2.127L9.6,52.525a2.081,2.081,0,0,0,2.943,2.943l7.874-7.874,2.127,2.127a1.768,1.768,0,0,0,2.5,0L27.868,46.9a1.766,1.766,0,0,0,.272-.354H42.655a2.183,2.183,0,0,0-.276,1.07v1.809a2.153,2.153,0,0,0,.5,1.392,2.153,2.153,0,0,0-.5,1.392v1.809a1.982,1.982,0,0,0,1.891,2.059h9.915a1.983,1.983,0,0,0,1.891-2.059V52.208a2.154,2.154,0,0,0-.5-1.392,2.154,2.154,0,0,0,.5-1.392V47.616a2.154,2.154,0,0,0-.5-1.392,2.154,2.154,0,0,0,.5-1.392V43.024a1.983,1.983,0,0,0-1.891-2.059Zm.557,2.059v1.809a.667.667,0,0,1-.556.724H44.27a.667.667,0,0,1-.556-.724V43.024a.667.667,0,0,1,.557-.724h9.915A.667.667,0,0,1,54.742,43.024Zm-.556,3.868a.667.667,0,0,1,.556.724v1.809a.667.667,0,0,1-.557.724H44.27a.667.667,0,0,1-.557-.724V47.616a.667.667,0,0,1,.556-.724h9.916Zm.557-14.181A5.515,5.515,0,1,1,49.228,27.2,5.521,5.521,0,0,1,54.742,32.71Zm-8.573-6.126a6.845,6.845,0,0,0,0,12.251v2.129h-1.9a1.983,1.983,0,0,0-1.891,2.059v1.809a2.236,2.236,0,0,0,.033.378H28.328a1.751,1.751,0,0,0-.46-.809l-7.2-7.2a1.766,1.766,0,0,0-1.766-.438V16.219h5.222a.667.667,0,0,0,.667-.667V10.33H46.169ZM25.415,43.836l-3.432,3.432L17.8,43.09l3.432-3.432ZM19.848,14.885l3.611-3.611v3.611ZM16.3,40.97l2.822-2.822a.432.432,0,0,1,.61,0l.566.566-3.432,3.432L16.3,41.58a.432.432,0,0,1,0-.61ZM11.6,54.524a.747.747,0,1,1-1.056-1.056l7.874-7.874,1.056,1.056Zm15.32-8.569L24.1,48.778a.432.432,0,0,1-.61,0l-.566-.566,3.432-3.432.566.566a.434.434,0,0,1,0,.61Zm27.817,8.061a.667.667,0,0,1-.557.724H44.27a.667.667,0,0,1-.557-.724V52.208a.667.667,0,0,1,.557-.724h9.915a.667.667,0,0,1,.557.724ZM29.47,52.367H20.516a2.224,2.224,0,0,0-2.222,2.222v.82a.667.667,0,0,0,.667.667H31.024a.667.667,0,0,0,.667-.667v-.82A2.224,2.224,0,0,0,29.47,52.367Zm.887,2.374H19.629v-.153a.888.888,0,0,1,.887-.887H29.47a.888.888,0,0,1,.887.887v.153Z" transform="translate(-18593.906 2486.049)" fill="#fff"/>
  </g>
</svg>
