<svg xmlns="http://www.w3.org/2000/svg" width="84.264" height="84.264" viewBox="0 0 84.264 84.264">
  <g id="Group_6_icons_-_selected_4" data-name="Group 6 icons - selected 4" transform="translate(18309.375 -2478.388)">
    <circle id="Ellipse_366" data-name="Ellipse 366" cx="42.132" cy="42.132" r="42.132" transform="translate(-18225.111 2478.388) rotate(90)" fill="#903"/>
    <g id="Group_920" data-name="Group 920" transform="translate(-18299.322 2488.441)">
      <path id="Path_1191" data-name="Path 1191" d="M31.524,8A23.524,23.524,0,1,0,55.047,31.524,23.55,23.55,0,0,0,31.524,8Zm0,44.909A21.385,21.385,0,1,1,52.909,31.524,21.409,21.409,0,0,1,31.524,52.909Z" transform="translate(0.554 0.554)" fill="#fff"/>
      <path id="Path_1192" data-name="Path 1192" d="M62.228,37.217a2.893,2.893,0,0,0,1.8-2.388,30.556,30.556,0,0,0,0-5.509,2.891,2.891,0,0,0-1.8-2.383L59.136,25.7a27.56,27.56,0,0,0-3.419-8.243l1.307-3.06a2.826,2.826,0,0,0-.421-2.977,31.8,31.8,0,0,0-3.866-3.866,2.83,2.83,0,0,0-2.976-.423L46.7,8.442a27.532,27.532,0,0,0-8.243-3.419L37.218,1.929a2.887,2.887,0,0,0-2.387-1.8,30.3,30.3,0,0,0-5.5,0,2.889,2.889,0,0,0-2.39,1.8L25.7,5.022a27.56,27.56,0,0,0-8.243,3.419L14.4,7.135a2.828,2.828,0,0,0-2.978.422,31.879,31.879,0,0,0-3.866,3.866A2.828,2.828,0,0,0,7.135,14.4l1.308,3.062A27.532,27.532,0,0,0,5.023,25.7L1.93,26.94a2.887,2.887,0,0,0-1.8,2.387,30.2,30.2,0,0,0,0,5.5,2.889,2.889,0,0,0,1.8,2.39l3.089,1.234A27.56,27.56,0,0,0,8.443,46.7l-1.307,3.06a2.823,2.823,0,0,0,.421,2.977A31.823,31.823,0,0,0,11.425,56.6a2.828,2.828,0,0,0,2.975.422l3.062-1.308A27.532,27.532,0,0,0,25.7,59.135l1.236,3.093a2.893,2.893,0,0,0,2.388,1.8c.94.083,1.9.124,2.83.124s1.84-.041,2.673-.124a2.9,2.9,0,0,0,2.389-1.8l1.234-3.089A27.56,27.56,0,0,0,46.7,55.716l3.06,1.307a2.823,2.823,0,0,0,2.977-.421A31.723,31.723,0,0,0,56.6,52.735a2.825,2.825,0,0,0,.423-2.976L55.716,46.7a27.532,27.532,0,0,0,3.419-8.243l3.093-1.236Zm-5.059.23a25.447,25.447,0,0,1-3.554,8.571,1.066,1.066,0,0,0-.087,1L55.058,50.6a.708.708,0,0,1-.093.757,29.7,29.7,0,0,1-3.623,3.62.7.7,0,0,1-.743.078l-3.58-1.528a1.076,1.076,0,0,0-1,.087,25.425,25.425,0,0,1-8.571,3.554,1.074,1.074,0,0,0-.771.649l-1.441,3.608a.748.748,0,0,1-.606.474,28.236,28.236,0,0,1-5.113,0,.745.745,0,0,1-.593-.468l-1.443-3.612a1.072,1.072,0,0,0-.771-.649,25.447,25.447,0,0,1-8.571-3.554,1.071,1.071,0,0,0-1-.087L13.551,55.06a.712.712,0,0,1-.757-.092,29.8,29.8,0,0,1-3.62-3.624A.7.7,0,0,1,9.1,50.6l1.528-3.58a1.066,1.066,0,0,0-.087-1,25.425,25.425,0,0,1-3.554-8.571,1.074,1.074,0,0,0-.649-.771L2.726,35.236a.747.747,0,0,1-.473-.606,27.959,27.959,0,0,1,0-5.114.743.743,0,0,1,.468-.592L6.334,27.48a1.072,1.072,0,0,0,.649-.771,25.447,25.447,0,0,1,3.554-8.571,1.066,1.066,0,0,0,.087-1L9.095,13.554a.712.712,0,0,1,.092-.757,29.853,29.853,0,0,1,3.623-3.619.7.7,0,0,1,.744-.079l3.58,1.528a1.069,1.069,0,0,0,1-.087,25.425,25.425,0,0,1,8.571-3.554,1.074,1.074,0,0,0,.771-.649l1.441-3.608a.747.747,0,0,1,.606-.473,28.052,28.052,0,0,1,5.114,0,.743.743,0,0,1,.592.468l1.443,3.612a1.072,1.072,0,0,0,.771.649,25.447,25.447,0,0,1,8.571,3.554,1.069,1.069,0,0,0,1,.087L50.6,9.1a.712.712,0,0,1,.757.092,29.78,29.78,0,0,1,3.619,3.623.7.7,0,0,1,.079.744l-1.528,3.58a1.066,1.066,0,0,0,.087,1,25.425,25.425,0,0,1,3.554,8.571,1.074,1.074,0,0,0,.649.771l3.608,1.441a.745.745,0,0,1,.473.6v.012a28.235,28.235,0,0,1,0,5.113.745.745,0,0,1-.468.593l-3.612,1.443a1.072,1.072,0,0,0-.649.771Z" transform="translate(0)" fill="#fff"/>
      <path id="Path_1193" data-name="Path 1193" d="M31.108,15a3.84,3.84,0,0,0-3.151,1.646L14.694,35.7a3.838,3.838,0,0,0,3.152,6.031H44.373A3.838,3.838,0,0,0,47.525,35.7L34.262,16.646A3.84,3.84,0,0,0,31.111,15ZM45.88,38.68a1.677,1.677,0,0,1-1.509.913H17.844a1.7,1.7,0,0,1-1.4-2.67L29.709,17.868a1.7,1.7,0,0,1,2.8,0L45.767,36.923a1.672,1.672,0,0,1,.111,1.757Z" transform="translate(0.97 1.039)" fill="#fff"/>
      <path id="Path_1194" data-name="Path 1194" d="M30.069,23A1.068,1.068,0,0,0,29,24.069v7.485a1.069,1.069,0,0,0,2.139,0V24.069A1.068,1.068,0,0,0,30.069,23Z" transform="translate(2.008 1.593)" fill="#fff"/>
      <path id="Path_1195" data-name="Path 1195" d="M30.069,33.993a1.073,1.073,0,1,0,1.069,1.077v-.016A1.061,1.061,0,0,0,30.069,33.993Z" transform="translate(2.008 2.354)" fill="#fff"/>
    </g>
  </g>
</svg>
