<svg xmlns="http://www.w3.org/2000/svg" width="90.491" height="90.49" viewBox="0 0 90.491 90.49">
  <g id="Group_1351" data-name="Group 1351" transform="translate(6971 -18062.67)">
    <circle id="Ellipse_409" data-name="Ellipse 409" cx="45.245" cy="45.245" r="45.245" transform="translate(-6880.509 18062.67) rotate(90)" fill="#45596d"/>
    <g id="Group_995" data-name="Group 995" transform="translate(-6953.866 18080.602)">
      <path id="Path_771" data-name="Path 771" d="M246.111,6.941a1.075,1.075,0,0,0,1.074-1.074V1.074a1.074,1.074,0,1,0-2.149,0V5.867A1.075,1.075,0,0,0,246.111,6.941Z" transform="translate(-218.094 0)" fill="#fff" stroke="#45596d" stroke-width="0.4"/>
      <path id="Path_772" data-name="Path 772" d="M54.281,110.3l-1.9-1.893a3.6,3.6,0,0,0-4.258-.608l-3.577-3.573.174-.174a3.729,3.729,0,0,0,0-5.266,3.688,3.688,0,0,0-1.87-1.011A3.753,3.753,0,0,0,43,96.732a3.721,3.721,0,0,0-2.96-3.644,3.752,3.752,0,0,0,.148-1.045,3.717,3.717,0,0,0-2.96-3.643,3.718,3.718,0,0,0-3.974-4.746l-7.088-1.342c-1.081-.205-2.431-.341-3.283.437a1.94,1.94,0,0,0-.163.168,3.737,3.737,0,0,0-3.92.862,3.7,3.7,0,0,0-1.089,2.634,3.757,3.757,0,0,0,.148,1.045A3.722,3.722,0,0,0,14.9,91.1a3.746,3.746,0,0,0,.148,1.048,3.726,3.726,0,0,0-2.31,5.75,3.723,3.723,0,0,0-1.43,6.16l.174.173L7.906,107.8a3.593,3.593,0,0,0-4.065.7l-1.9,1.894a3.589,3.589,0,0,0,0,5.069l2.37,2.368a1.074,1.074,0,0,0,1.519-1.52l-2.37-2.367a1.441,1.441,0,0,1,0-2.027l1.9-1.894a1.439,1.439,0,0,1,1.753-.215,1.083,1.083,0,0,0,.135.165,1.069,1.069,0,0,0,.309.215l10.893,10.877a1.058,1.058,0,0,0,.518.523,1.438,1.438,0,0,1-.06,1.962l-1.9,1.9a1.443,1.443,0,0,1-2.032,0l-2.37-2.371a1.074,1.074,0,0,0-1.52,1.52l2.372,2.372a3.6,3.6,0,0,0,5.067,0l1.9-1.9a3.593,3.593,0,0,0,.5-4.437l4.026-4.021.013-.013c.461-.477,1.745-.387,2.986-.3a15.455,15.455,0,0,0,2.826.019l4.409,4.4a3.591,3.591,0,0,0,.61,4.254l1.9,1.9a3.593,3.593,0,0,0,5.068,0l11.516-11.5a3.589,3.589,0,0,0,0-5.069ZM25.767,84.424l4.661.882L27.638,88.1a6.773,6.773,0,0,1-1.672-1.215,4.943,4.943,0,0,1-1.581-2.443h0a.938.938,0,0,1,0-.106A3.641,3.641,0,0,1,25.767,84.424Zm-5.447.876a1.585,1.585,0,0,1,2.005-.19,7.686,7.686,0,0,0,2.156,3.323,7.957,7.957,0,0,0,3.1,1.918,1.577,1.577,0,0,1-2.411,2.014h0l-4.846-4.837a1.582,1.582,0,0,1,0-2.227Zm-2.808,4.689a1.585,1.585,0,0,1,2.233,0l3.9,3.894a1.579,1.579,0,0,1-2.235,2.231h0l-2.96-2.96-.014-.014-.926-.926a1.577,1.577,0,0,1,0-2.228ZM14.7,94.677a1.59,1.59,0,0,1,2.225-.007l2.969,2.968a1.577,1.577,0,0,1-2.235,2.226l-1.076-1.075h0L14.7,96.907a1.581,1.581,0,0,1,0-2.23Zm-1.871,5.632a1.588,1.588,0,0,1,2.236,0l1.078,1.077a1.577,1.577,0,0,1-2.236,2.225l-.135-.134,0-.005-.006-.006-.931-.927a1.578,1.578,0,0,1,0-2.228Zm21.9,12.212a1.074,1.074,0,0,0-1.52,0l-.956.955c-.908.908-2.554.794-4.146.684-1.729-.12-3.516-.244-4.673.943l-3.958,3.953-9.9-9.883,3.5-3.5a3.726,3.726,0,0,0,5.672-3.178c0-.009,0-.018,0-.028h.028A3.717,3.717,0,0,0,22.5,98.75c0-.009,0-.018,0-.028h.028a3.713,3.713,0,0,0,3.725-3.749h.029a3.727,3.727,0,0,0,3.18-5.665l3.07-3.069a1.576,1.576,0,0,1,.806-.43c.032,0,.064-.009.095-.015a1.575,1.575,0,0,1,1.337,2.672l-.935.931-.009.009-1.077,1.075A1.074,1.074,0,1,0,34.269,92l.939-.937h0l.142-.141a1.583,1.583,0,0,1,2.23.005,1.577,1.577,0,0,1,0,2.227l-.94.942h0l-1.077,1.072a1.074,1.074,0,0,0,1.516,1.523l1.082-1.077a1.577,1.577,0,0,1,2.232,2.229l-1.875,1.875a1.074,1.074,0,1,0,1.52,1.519l.919-.919.016-.015a1.577,1.577,0,0,1,2.232,2.228l-.934.933h0l-1.483,1.481a1.075,1.075,0,0,0,1.519,1.521l.725-.724,3.476,3.472-9.9,9.884-3.546-3.542a4.225,4.225,0,0,0,.706-.568l.955-.954a1.074,1.074,0,0,0,0-1.519Zm18.039,1.331-11.516,11.5a1.444,1.444,0,0,1-2.031,0l-1.9-1.9a1.437,1.437,0,0,1,0-2.025l11.516-11.5a1.444,1.444,0,0,1,2.032,0l1.9,1.893a1.44,1.44,0,0,1,0,2.028Z" transform="translate(0 -73.388)" fill="#fff" stroke="#45596d" stroke-width="0.4"/>
      <path id="Path_773" data-name="Path 773" d="M85.954,8.488a1.074,1.074,0,0,0,1.518-1.521L83.557,3.059A1.074,1.074,0,1,0,82.039,4.58Z" transform="translate(-72.205 -2.452)" fill="#fff" stroke="#45596d" stroke-width="0.4"/>
      <path id="Path_774" data-name="Path 774" d="M372.726,8.8a1.072,1.072,0,0,0,.759-.314L377.4,4.58a1.074,1.074,0,0,0-1.519-1.52l-3.912,3.908a1.074,1.074,0,0,0,.759,1.835Z" transform="translate(-331.2 -2.452)" fill="#fff" stroke="#45596d" stroke-width="0.4"/>
      <path id="Path_775" data-name="Path 775" d="M60.238,430.514a1.074,1.074,0,0,0,.013,1.52l0,0a1.074,1.074,0,1,0-.016-1.523Z" transform="translate(-52.737 -384.295)" fill="#fff" stroke="#45596d" stroke-width="0.4"/>
      <path id="Path_776" data-name="Path 776" d="M333.587,334.268a1.075,1.075,0,1,0-.483-2.034l-.006,0a1.074,1.074,0,0,0,.489,2.031Z" transform="translate(-296.235 -296.683)" fill="#fff" stroke="#45596d" stroke-width="0.4"/>
    </g>
  </g>
</svg>
