<svg xmlns="http://www.w3.org/2000/svg" xmlns:xlink="http://www.w3.org/1999/xlink" width="84.264" height="84.264" viewBox="0 0 84.264 84.264">
  <defs>
    <clipPath id="clip-path">
      <path id="path2608" d="M0-682.665H51.843v51.843H0Z" transform="translate(0 682.665)" fill="#fff"/>
    </clipPath>
  </defs>
  <g id="Group_4_icons_-_selected_3" data-name="Group 4 icons - selected 3" transform="translate(18393.727 -2954.357)">
    <circle id="Ellipse_387" data-name="Ellipse 387" cx="42.132" cy="42.132" r="42.132" transform="translate(-18309.463 2954.357) rotate(90)" fill="#903"/>
    <g id="g2598" transform="translate(-18377.516 3652.068)">
      <g id="g2600" transform="translate(13.793 -677.696)">
        <path id="path2602" d="M-295.155,0h-24.257" transform="translate(319.411)" fill="none" stroke="#fff" stroke-linecap="round" stroke-linejoin="round" stroke-miterlimit="10" stroke-width="1.5"/>
      </g>
      <g id="g2604" transform="translate(0 -682.665)">
        <g id="g2606" clip-path="url(#clip-path)">
          <g id="g2612" transform="translate(0.759 4.969)">
            <path id="path2614" d="M-503.076,0h1.094A7.885,7.885,0,0,1-494.1,7.886V37a7.886,7.886,0,0,1-7.886,7.886h-34.552A7.886,7.886,0,0,1-544.42,37V7.886A7.885,7.885,0,0,1-536.534,0h1.094" transform="translate(544.42)" fill="none" stroke="#fff" stroke-linecap="round" stroke-linejoin="round" stroke-miterlimit="10" stroke-width="1.5"/>
          </g>
          <g id="g2616" transform="translate(0.759 14.901)">
            <path id="path2618" d="M-478.411,0h-39.317" transform="translate(517.728)" fill="none" stroke="#fff" stroke-linecap="round" stroke-linejoin="round" stroke-miterlimit="10" stroke-width="1.5"/>
          </g>
          <g id="g2620" transform="translate(43.114 14.901)">
            <path id="path2622" d="M-96.963,0h-7.969" transform="translate(104.932)" fill="none" stroke="#fff" stroke-linecap="round" stroke-linejoin="round" stroke-miterlimit="10" stroke-width="1.5"/>
          </g>
          <g id="g2624" transform="translate(16.429 14.901)">
            <path id="path2626" d="M0-71.534v-5.879" transform="translate(0 77.413)" fill="none" stroke="#fff" stroke-linecap="round" stroke-linejoin="round" stroke-miterlimit="10" stroke-width="1.5"/>
          </g>
          <g id="g2628" transform="translate(16.429 26.723)">
            <path id="path2630" d="M0-145.433v-11.952" transform="translate(0 157.385)" fill="none" stroke="#fff" stroke-linecap="round" stroke-linejoin="round" stroke-miterlimit="10" stroke-width="1.5"/>
          </g>
          <g id="g2632" transform="translate(16.429 44.617)">
            <path id="path2634" d="M0-63.7v-5.235" transform="translate(0 68.933)" fill="none" stroke="#fff" stroke-linecap="round" stroke-linejoin="round" stroke-miterlimit="10" stroke-width="1.5"/>
          </g>
          <g id="g2636" transform="translate(35.414 14.901)">
            <path id="path2638" d="M0-180.4v-14.826" transform="translate(0 195.225)" fill="none" stroke="#fff" stroke-linecap="round" stroke-linejoin="round" stroke-miterlimit="10" stroke-width="1.5"/>
          </g>
          <g id="g2640" transform="translate(35.414 35.669)">
            <path id="path2642" d="M0-172.576v-14.183" transform="translate(0 186.758)" fill="none" stroke="#fff" stroke-linecap="round" stroke-linejoin="round" stroke-miterlimit="10" stroke-width="1.5"/>
          </g>
          <g id="g2644" transform="translate(5.341 20.78)">
            <path id="path2646" d="M-185.206-72.312H-198.15a2.276,2.276,0,0,1-2.276-2.276v-1.391a2.276,2.276,0,0,1,2.276-2.276h12.945a2.276,2.276,0,0,1,2.276,2.276v1.391A2.276,2.276,0,0,1-185.206-72.312Z" transform="translate(200.426 78.254)" fill="none" stroke="#fff" stroke-linecap="round" stroke-linejoin="round" stroke-miterlimit="10" stroke-width="1.5"/>
          </g>
          <g id="g2648" transform="translate(23.334 29.727)">
            <path id="path2650" d="M-185.206-72.312H-198.15a2.276,2.276,0,0,1-2.276-2.276v-1.391a2.276,2.276,0,0,1,2.276-2.276h12.945a2.276,2.276,0,0,1,2.276,2.276v1.391A2.276,2.276,0,0,1-185.206-72.312Z" transform="translate(200.426 78.254)" fill="none" stroke="#fff" stroke-linecap="round" stroke-linejoin="round" stroke-miterlimit="10" stroke-width="1.5"/>
          </g>
          <g id="g2652" transform="translate(5.341 38.675)">
            <path id="path2654" d="M-88.61-72.309h17.183a2.276,2.276,0,0,0,2.276-2.276v-1.39a2.276,2.276,0,0,0-2.276-2.276H-93.616a2.276,2.276,0,0,0-2.276,2.276v1.39a2.276,2.276,0,0,0,2.276,2.276h1.968" transform="translate(95.892 78.252)" fill="none" stroke="#fff" stroke-linecap="round" stroke-linejoin="round" stroke-miterlimit="10" stroke-width="1.5"/>
          </g>
          <g id="g2656" transform="translate(38.8 38.674)">
            <path id="path2658" d="M-81.485-72.312h-4.421a2.276,2.276,0,0,1-2.276-2.276v-1.391a2.276,2.276,0,0,1,2.276-2.276h4.421a2.276,2.276,0,0,1,2.276,2.276v1.391A2.276,2.276,0,0,1-81.485-72.312Z" transform="translate(88.181 78.254)" fill="none" stroke="#fff" stroke-linecap="round" stroke-linejoin="round" stroke-miterlimit="10" stroke-width="1.5"/>
          </g>
          <g id="g2660" transform="translate(9.739 1.99)">
            <path id="path2662" d="M-24.664-98.429h0a2.027,2.027,0,0,1-2.027-2.027v-4.035a2.027,2.027,0,0,1,2.027-2.027,2.027,2.027,0,0,1,2.027,2.027v4.035A2.027,2.027,0,0,1-24.664-98.429Z" transform="translate(26.691 106.518)" fill="none" stroke="#fff" stroke-linecap="round" stroke-linejoin="round" stroke-miterlimit="10" stroke-width="1.5"/>
          </g>
          <g id="g2664" transform="translate(38.05 1.99)">
            <path id="path2666" d="M-24.664-98.429h0a2.027,2.027,0,0,1-2.027-2.027v-4.035a2.027,2.027,0,0,1,2.027-2.027,2.027,2.027,0,0,1,2.027,2.027v4.035A2.027,2.027,0,0,1-24.664-98.429Z" transform="translate(26.691 106.518)" fill="none" stroke="#fff" stroke-linecap="round" stroke-linejoin="round" stroke-miterlimit="10" stroke-width="1.5"/>
          </g>
          <g id="g2668" transform="translate(6.885 17.417)">
            <path id="path2670" d="M0,0H3.488" fill="none" stroke="#fff" stroke-linecap="round" stroke-linejoin="round" stroke-miterlimit="10" stroke-width="1.5"/>
          </g>
          <g id="g2672" transform="translate(42.104 17.417)">
            <path id="path2674" d="M0,0H3.488" fill="none" stroke="#fff" stroke-linecap="round" stroke-linejoin="round" stroke-miterlimit="10" stroke-width="1.5"/>
          </g>
          <g id="g2676" transform="translate(24.177 17.417)">
            <path id="path2678" d="M0,0H3.488" fill="none" stroke="#fff" stroke-linecap="round" stroke-linejoin="round" stroke-miterlimit="10" stroke-width="1.5"/>
          </g>
        </g>
      </g>
    </g>
  </g>
</svg>
