<svg xmlns="http://www.w3.org/2000/svg" width="84.264" height="84.264" viewBox="0 0 84.264 84.264">
  <g id="Group_2_icons_-_selected_5" data-name="Group 2 icons - selected 5" transform="translate(18352.41 -3517.894)">
    <circle id="Ellipse_403" data-name="Ellipse 403" cx="42.132" cy="42.132" r="42.132" transform="translate(-18268.146 3517.894) rotate(90)" fill="#903"/>
    <g id="_OUTLINE" data-name=" OUTLINE" transform="translate(-18355.709 3518.442)">
      <path id="Path_1086" data-name="Path 1086" d="M259.333,248a11.333,11.333,0,1,0,11.333,11.333A11.333,11.333,0,0,0,259.333,248Zm-4.722,19.507v-1.062a4.725,4.725,0,0,1,2.429-4.128l2.293-1.274,2.293,1.274a4.725,4.725,0,0,1,2.429,4.128v1.062A9.41,9.41,0,0,1,254.611,267.507Zm2.833-10.785v-1.166a1.889,1.889,0,1,1,3.778,0v1.166a1.89,1.89,0,0,1-.971,1.651l-.917.51-.917-.51a1.89,1.89,0,0,1-.972-1.651Zm8.489,9.358a6.614,6.614,0,0,0-3.39-5.414l-1.268-.7a3.78,3.78,0,0,0,1.835-3.24v-1.166a3.778,3.778,0,0,0-7.555,0v1.166a3.78,3.78,0,0,0,1.835,3.24l-1.268.7a6.614,6.614,0,0,0-3.39,5.414,9.444,9.444,0,1,1,13.2,0Z" transform="translate(-206.117 -205.407)" fill="#fff"/>
      <path id="Path_1087" data-name="Path 1087" d="M308.589,32.656a2.8,2.8,0,0,0,2.466,1.437h15.994a2.833,2.833,0,0,0,2.43-4.291l-8-13.328a2.833,2.833,0,0,0-4.859,0l-8,13.328A2.8,2.8,0,0,0,308.589,32.656Zm1.656-1.882,8-13.328h0a.944.944,0,0,1,1.619,0l8,13.328a.944.944,0,0,1-.81,1.43H311.054a.944.944,0,0,1-.81-1.43Z" transform="translate(-259.224 0)" fill="#fff"/>
      <rect id="Rectangle_330" data-name="Rectangle 330" width="1.889" height="6.611" transform="translate(58.882 19.927)" fill="#fff"/>
      <rect id="Rectangle_331" data-name="Rectangle 331" width="1.889" height="1.889" transform="translate(58.882 28.427)" fill="#fff"/>
      <path id="Path_1088" data-name="Path 1088" d="M71.16,57.7V51.74l-2.824-.512-.856-2.663,1.985-2.091-3.472-4.83-2.586,1.266-2.23-1.639.388-2.844-5.631-1.85L54.59,39.114H51.841L50.5,36.576l-3.065,1.007A13.21,13.21,0,1,0,38.711,48.31l.241.254L38.1,51.227l-2.824.512v2.037H32.679L32.194,51.1l-5.223-1.679-1.985,1.884-2.66-1.912,1.2-2.445-3.238-4.406-2.689.367-1.012-3.081,2.394-1.267V33.105l-2.394-1.267L17.6,28.757l2.689.367,3.238-4.406-1.2-2.445,2.66-1.912,1.984,1.883,5.223-1.679.485-2.676h3.3l.485,2.676,5.223,1.679,1.985-1.884,2.66,1.912-1.2,2.445,2.62,3.566,1.522-1.118-1.943-2.645,1.4-2.851L43.5,17.914,41.2,20.1l-3.079-.99L37.553,16H31.1l-.565,3.114-3.079.99-2.306-2.189-5.224,3.756,1.4,2.851-1.9,2.58-3.135-.428-2,6.089,2.8,1.48v3.181l-2.8,1.481,2,6.089,3.135-.428,1.9,2.58L19.928,50l5.225,3.756,2.306-2.189,3.078.99.565,3.113h4.17V57.7l2.824.512.856,2.663L36.967,62.97,40.44,67.8l2.586-1.266,2.23,1.639-.388,2.844,5.631,1.85,1.343-2.538H54.59l1.343,2.538,5.63-1.85-.388-2.844,2.23-1.639L65.992,67.8l3.473-4.83-1.985-2.091.856-2.663ZM22.994,35.833A11.333,11.333,0,1,1,45.4,38.251l-.533.175.388,2.844-2.23,1.639-1.559-.763A10.3,10.3,0,0,0,36.584,36a3.757,3.757,0,0,0,1.521-3.032v-2.8a3.778,3.778,0,0,0-7.555,0v2.8A3.757,3.757,0,0,0,32.07,36a10.322,10.322,0,0,0-5.27,8.3A11.308,11.308,0,0,1,22.994,35.833Zm13.222-5.667v2.8a1.88,1.88,0,0,1-1.187,1.754l-.7.281-.7-.281a1.88,1.88,0,0,1-1.187-1.754v-2.8a1.889,1.889,0,0,1,3.778,0Zm-1.889,17a11.263,11.263,0,0,1-5.667-1.521V45.06A8.459,8.459,0,0,1,34,37.168l.323-.129.323.129a8.443,8.443,0,0,1,5.015,5.55l-2.7,3.754.294.31A11.323,11.323,0,0,1,34.327,47.166ZM67.019,63.137,65.39,65.4l-2.18-1.068-4.057,2.981.327,2.4-2.622.862-1.13-2.135H50.7l-1.13,2.135-2.622-.862.327-2.4-4.057-2.981L41.042,65.4l-1.629-2.266,1.68-1.77-1.546-4.808-2.387-.433V53.317l2.387-.433,1.546-4.808-1.68-1.77,1.629-2.266,2.18,1.068,4.057-2.981-.327-2.4,2.622-.862L50.7,41h5.024l1.13-2.135,2.622.862-.327,2.4,4.057,2.981,2.18-1.068,1.629,2.266-1.68,1.77,1.546,4.808,2.387.433v2.809l-2.387.433-1.546,4.808Z" transform="translate(0 -0.795)" fill="#fff"/>
      <path id="Path_1089" data-name="Path 1089" d="M87.386,350.824l.946-1.635a21.754,21.754,0,0,1-8.451-8.861l-1.678.867a23.639,23.639,0,0,0,9.184,9.629Z" transform="translate(-56.365 -286.835)" fill="#fff"/>
      <path id="Path_1090" data-name="Path 1090" d="M173.451,423.32l-.788,1.717a23.544,23.544,0,0,0,2.952,1.121l.55-1.807A21.648,21.648,0,0,1,173.451,423.32Z" transform="translate(-139.674 -360.03)" fill="#fff"/>
      <path id="Path_1091" data-name="Path 1091" d="M19.148,279.182l-1.879.193a28.346,28.346,0,0,0,.457,2.931l1.848-.389a26.5,26.5,0,0,1-.427-2.735Z" transform="translate(-2.624 -232.908)" fill="#fff"/>
      <path id="Path_1092" data-name="Path 1092" d="M27.066,317.8l-1.816.52a28.534,28.534,0,0,0,10.041,14.7,28.074,28.074,0,0,0,17.2,5.816v-1.889a26.2,26.2,0,0,1-16.052-5.428A26.634,26.634,0,0,1,27.066,317.8Z" transform="translate(-9.663 -266.965)" fill="#fff"/>
    </g>
  </g>
</svg>
