<svg xmlns="http://www.w3.org/2000/svg" width="84.264" height="84.264" viewBox="0 0 84.264 84.264">
  <g id="Group_5_icons_-_selected_5" data-name="Group 5 icons - selected 5" transform="translate(18206.699 -2719.106)">
    <circle id="Ellipse_381" data-name="Ellipse 381" cx="42.132" cy="42.132" r="42.132" transform="translate(-18122.436 2719.106) rotate(90)" fill="#903"/>
    <g id="Group_924" data-name="Group 924" transform="translate(-18192.496 2733.446)">
      <g id="Group_538" data-name="Group 538" transform="translate(11.763 2)">
        <g id="Group_536" data-name="Group 536">
          <path id="Path_1161" data-name="Path 1161" d="M36.391,44.532H23.812a.806.806,0,0,1-.806-.806,8.268,8.268,0,0,0-8.258-8.258.806.806,0,0,1-.806-.806V11.6a1.348,1.348,0,0,1,.4-.945l.624-.613a.973.973,0,0,1,.08-.09l7.589-7.554A1.346,1.346,0,0,1,23.573,2H43.749a2.52,2.52,0,0,1,2.512,2.524V34.662a.806.806,0,0,1-.806.806A8.268,8.268,0,0,0,37.2,43.726a.806.806,0,0,1-.806.806ZM24.585,42.92H35.617a9.887,9.887,0,0,1,9.031-9.032V4.524a.9.9,0,0,0-.9-.911H23.691L16.209,11.06a.793.793,0,0,1-.078.089l-.577.568V33.888a9.887,9.887,0,0,1,9.031,9.032ZM23.768,3.535h0Z" transform="translate(-13.942 -2)" fill="#fff"/>
        </g>
        <g id="Group_537" data-name="Group 537" transform="translate(0.722 0.66)">
          <path id="Path_1162" data-name="Path 1162" d="M22.442,12.772c-.06,0-.121,0-.181-.007l-6.168-.4a1.341,1.341,0,0,1-.856-2.291l6.932-6.863a1.341,1.341,0,0,1,2.281.856l.44,6.063a2.462,2.462,0,0,1-2.448,2.645ZM16.8,10.793l5.574.365a.826.826,0,0,0,.66-.244.855.855,0,0,0,.249-.668v0l-.4-5.476Z" transform="translate(-14.837 -2.818)" fill="#fff"/>
        </g>
      </g>
      <g id="Group_539" data-name="Group 539" transform="translate(2.71 33.856)">
        <path id="Path_1163" data-name="Path 1163" d="M12.569,61.252a9.865,9.865,0,1,1,9.87-9.859A9.87,9.87,0,0,1,12.569,61.252Zm0-18.117a8.253,8.253,0,1,0,8.258,8.258A8.262,8.262,0,0,0,12.569,43.135Z" transform="translate(-2.71 -41.522)" fill="#fff"/>
      </g>
      <g id="Group_540" data-name="Group 540" transform="translate(33.406 33.859)">
        <path id="Path_1164" data-name="Path 1164" d="M50.661,61.249A9.865,9.865,0,0,1,48.946,41.67a3.6,3.6,0,0,1,.457-.054,7.969,7.969,0,0,1,1.258-.089,9.892,9.892,0,0,1,5.286,1.526,9.137,9.137,0,0,1,1.331,1.021,9.858,9.858,0,0,1-4.63,16.984c-.247.05-.478.086-.722.111a9.22,9.22,0,0,1-1.265.08Zm0-18.11a6.289,6.289,0,0,0-1.052.076c-.13.021-.261.022-.392.043a8.261,8.261,0,0,0-4.091,14.26,8.088,8.088,0,0,0,1.286.95,8.312,8.312,0,0,0,4.248,1.168,7.794,7.794,0,0,0,1.073-.068c.221-.023.4-.052.593-.09a8.246,8.246,0,0,0,3.868-14.211,7.546,7.546,0,0,0-1.1-.85,8.284,8.284,0,0,0-4.429-1.279Z" transform="translate(-40.794 -41.527)" fill="#fff"/>
      </g>
      <g id="Group_541" data-name="Group 541" transform="translate(47.063 11.367)">
        <path id="Path_1165" data-name="Path 1165" d="M63.015,46.787a.806.806,0,0,1-.806-.806V20.359a2.7,2.7,0,0,0-.8-1.924L57.973,15a.806.806,0,0,1,1.14-1.14L62.552,17.3a4.305,4.305,0,0,1,1.269,3.063V45.981A.806.806,0,0,1,63.015,46.787Z" transform="translate(-57.737 -13.622)" fill="#fff"/>
      </g>
      <g id="Group_542" data-name="Group 542" transform="translate(2.71 11.367)">
        <path id="Path_1166" data-name="Path 1166" d="M3.516,46.787a.806.806,0,0,1-.806-.806V20.359A4.3,4.3,0,0,1,3.979,17.3l3.438-3.438A.806.806,0,1,1,8.557,15L5.119,18.436a2.7,2.7,0,0,0-.8,1.924V45.981a.806.806,0,0,1-.806.806Z" transform="translate(-2.71 -13.622)" fill="#fff"/>
      </g>
      <g id="Group_543" data-name="Group 543" transform="translate(16.632 16.911)">
        <path id="Path_1167" data-name="Path 1167" d="M41.757,22.112H20.789a.806.806,0,1,1,0-1.612H41.757a.806.806,0,0,1,0,1.612Z" transform="translate(-19.983 -20.5)" fill="#fff"/>
      </g>
      <g id="Group_544" data-name="Group 544" transform="translate(16.632 22.889)">
        <path id="Path_1168" data-name="Path 1168" d="M41.757,29.529H20.789a.806.806,0,1,1,0-1.612H41.757a.806.806,0,0,1,0,1.612Z" transform="translate(-19.983 -27.917)" fill="#fff"/>
      </g>
      <g id="Group_545" data-name="Group 545" transform="translate(16.632 28.867)">
        <path id="Path_1169" data-name="Path 1169" d="M41.757,36.946H20.789a.806.806,0,1,1,0-1.612H41.757a.806.806,0,0,1,0,1.612Z" transform="translate(-19.983 -35.333)" fill="#fff"/>
      </g>
    </g>
  </g>
</svg>
