<svg xmlns="http://www.w3.org/2000/svg" xmlns:xlink="http://www.w3.org/1999/xlink" width="72.264" height="72.264" viewBox="0 0 72.264 72.264">
  <defs>
    <clipPath id="clip-path">
      <path id="path2608" d="M0-682.665H40.361V-642.3H0Z" transform="translate(0 682.665)" fill="#aba28b"/>
    </clipPath>
  </defs>
  <g id="Group_4_icons_-_not_selected_3" data-name="Group 4 icons - not selected 3" transform="translate(18389.961 -2862.357)">
    <circle id="Ellipse_223" data-name="Ellipse 223" cx="36.132" cy="36.132" r="36.132" transform="translate(-18317.697 2862.357) rotate(90)" fill="#d0cabe"/>
    <g id="g2598" transform="translate(-18373.627 3559.808)">
      <g id="g2600" transform="translate(10.738 -678.796)">
        <path id="path2602" d="M-300.527,0h-18.885" transform="translate(319.411)" fill="none" stroke="#aba28b" stroke-linecap="round" stroke-linejoin="round" stroke-miterlimit="10" stroke-width="1.5"/>
      </g>
      <g id="g2604" transform="translate(0 -682.665)">
        <g id="g2606" clip-path="url(#clip-path)">
          <g id="g2612" transform="translate(0.591 3.869)">
            <path id="path2614" d="M-512.232,0h.851a6.139,6.139,0,0,1,6.139,6.139V28.8a6.139,6.139,0,0,1-6.139,6.139h-26.9A6.139,6.139,0,0,1-544.42,28.8V6.139A6.139,6.139,0,0,1-538.281,0h.851" transform="translate(544.42)" fill="none" stroke="#aba28b" stroke-linecap="round" stroke-linejoin="round" stroke-miterlimit="10" stroke-width="1.5"/>
          </g>
          <g id="g2616" transform="translate(0.591 11.601)">
            <path id="path2618" d="M-487.118,0h-30.61" transform="translate(517.728)" fill="none" stroke="#aba28b" stroke-linecap="round" stroke-linejoin="round" stroke-miterlimit="10" stroke-width="1.5"/>
          </g>
          <g id="g2620" transform="translate(33.566 11.601)">
            <path id="path2622" d="M-98.728,0h-6.2" transform="translate(104.932)" fill="none" stroke="#aba28b" stroke-linecap="round" stroke-linejoin="round" stroke-miterlimit="10" stroke-width="1.5"/>
          </g>
          <g id="g2624" transform="translate(12.79 11.601)">
            <path id="path2626" d="M0-72.836v-4.577" transform="translate(0 77.413)" fill="none" stroke="#aba28b" stroke-linecap="round" stroke-linejoin="round" stroke-miterlimit="10" stroke-width="1.5"/>
          </g>
          <g id="g2628" transform="translate(12.79 20.804)">
            <path id="path2630" d="M0-148.08v-9.305" transform="translate(0 157.385)" fill="none" stroke="#aba28b" stroke-linecap="round" stroke-linejoin="round" stroke-miterlimit="10" stroke-width="1.5"/>
          </g>
          <g id="g2632" transform="translate(12.79 34.736)">
            <path id="path2634" d="M0-64.858v-4.076" transform="translate(0 68.933)" fill="none" stroke="#aba28b" stroke-linecap="round" stroke-linejoin="round" stroke-miterlimit="10" stroke-width="1.5"/>
          </g>
          <g id="g2636" transform="translate(27.571 11.601)">
            <path id="path2638" d="M0-183.683v-11.542" transform="translate(0 195.225)" fill="none" stroke="#aba28b" stroke-linecap="round" stroke-linejoin="round" stroke-miterlimit="10" stroke-width="1.5"/>
          </g>
          <g id="g2640" transform="translate(27.571 27.77)">
            <path id="path2642" d="M0-175.717v-11.042" transform="translate(0 186.758)" fill="none" stroke="#aba28b" stroke-linecap="round" stroke-linejoin="round" stroke-miterlimit="10" stroke-width="1.5"/>
          </g>
          <g id="g2644" transform="translate(4.158 16.178)">
            <path id="path2646" d="M-188.576-73.628h-10.078a1.772,1.772,0,0,1-1.772-1.772v-1.083a1.772,1.772,0,0,1,1.772-1.772h10.078a1.772,1.772,0,0,1,1.772,1.772V-75.4A1.772,1.772,0,0,1-188.576-73.628Z" transform="translate(200.426 78.254)" fill="none" stroke="#aba28b" stroke-linecap="round" stroke-linejoin="round" stroke-miterlimit="10" stroke-width="1.5"/>
          </g>
          <g id="g2648" transform="translate(18.166 23.143)">
            <path id="path2650" d="M-188.576-73.628h-10.078a1.772,1.772,0,0,1-1.772-1.772v-1.083a1.772,1.772,0,0,1,1.772-1.772h10.078a1.772,1.772,0,0,1,1.772,1.772V-75.4A1.772,1.772,0,0,1-188.576-73.628Z" transform="translate(200.426 78.254)" fill="none" stroke="#aba28b" stroke-linecap="round" stroke-linejoin="round" stroke-miterlimit="10" stroke-width="1.5"/>
          </g>
          <g id="g2652" transform="translate(4.158 30.109)">
            <path id="path2654" d="M-90.222-73.625h13.377A1.772,1.772,0,0,0-75.073-75.4V-76.48a1.772,1.772,0,0,0-1.772-1.772H-94.12a1.772,1.772,0,0,0-1.772,1.772V-75.4a1.772,1.772,0,0,0,1.772,1.772h1.532" transform="translate(95.892 78.252)" fill="none" stroke="#aba28b" stroke-linecap="round" stroke-linejoin="round" stroke-miterlimit="10" stroke-width="1.5"/>
          </g>
          <g id="g2656" transform="translate(30.207 30.109)">
            <path id="path2658" d="M-82.968-73.628h-3.442A1.772,1.772,0,0,1-88.181-75.4v-1.083a1.772,1.772,0,0,1,1.772-1.772h3.442A1.772,1.772,0,0,1-81.2-76.483V-75.4A1.772,1.772,0,0,1-82.968-73.628Z" transform="translate(88.181 78.254)" fill="none" stroke="#aba28b" stroke-linecap="round" stroke-linejoin="round" stroke-miterlimit="10" stroke-width="1.5"/>
          </g>
          <g id="g2660" transform="translate(7.582 1.549)">
            <path id="path2662" d="M-25.113-100.221h0a1.578,1.578,0,0,1-1.578-1.578v-3.142a1.578,1.578,0,0,1,1.578-1.578,1.578,1.578,0,0,1,1.578,1.578v3.142A1.578,1.578,0,0,1-25.113-100.221Z" transform="translate(26.691 106.518)" fill="none" stroke="#aba28b" stroke-linecap="round" stroke-linejoin="round" stroke-miterlimit="10" stroke-width="1.5"/>
          </g>
          <g id="g2664" transform="translate(29.623 1.549)">
            <path id="path2666" d="M-25.113-100.221h0a1.578,1.578,0,0,1-1.578-1.578v-3.142a1.578,1.578,0,0,1,1.578-1.578,1.578,1.578,0,0,1,1.578,1.578v3.142A1.578,1.578,0,0,1-25.113-100.221Z" transform="translate(26.691 106.518)" fill="none" stroke="#aba28b" stroke-linecap="round" stroke-linejoin="round" stroke-miterlimit="10" stroke-width="1.5"/>
          </g>
          <g id="g2668" transform="translate(5.36 13.559)">
            <path id="path2670" d="M0,0H2.715" fill="none" stroke="#aba28b" stroke-linecap="round" stroke-linejoin="round" stroke-miterlimit="10" stroke-width="1.5"/>
          </g>
          <g id="g2672" transform="translate(32.779 13.559)">
            <path id="path2674" d="M0,0H2.715" fill="none" stroke="#aba28b" stroke-linecap="round" stroke-linejoin="round" stroke-miterlimit="10" stroke-width="1.5"/>
          </g>
          <g id="g2676" transform="translate(18.823 13.559)">
            <path id="path2678" d="M0,0H2.715" fill="none" stroke="#aba28b" stroke-linecap="round" stroke-linejoin="round" stroke-miterlimit="10" stroke-width="1.5"/>
          </g>
        </g>
      </g>
    </g>
  </g>
</svg>
