<svg xmlns="http://www.w3.org/2000/svg" width="72.264" height="72.264" viewBox="0 0 72.264 72.264">
  <g id="Group_6_icons_-_not_selected_3" data-name="Group 6 icons - not selected 3" transform="translate(18399.488 -2377.642)">
    <circle id="Ellipse_271" data-name="Ellipse 271" cx="36.132" cy="36.132" r="36.132" transform="translate(-18327.225 2377.642) rotate(90)" fill="#d0cabe"/>
    <g id="Group_601" data-name="Group 601" transform="translate(-18389.465 2387.268)">
      <path id="Path_1186" data-name="Path 1186" d="M39.632,9.527A21.247,21.247,0,0,0,25.318,4a20.316,20.316,0,0,0-3.874.362A21.119,21.119,0,0,0,11.4,9.172a.761.761,0,0,0,1,1.152A19.6,19.6,0,0,1,21.23,5.965a2.271,2.271,0,0,1-.383,2.692,2.3,2.3,0,0,1-1.62.672,3.8,3.8,0,0,0-3.807,3.807,2.3,2.3,0,0,1-2.284,2.284c-5.016.125-5.022,7.486,0,7.613h3.045a2.284,2.284,0,1,1,0,4.568,3.833,3.833,0,0,0-3.807,3.807,2.3,2.3,0,0,1-2.284,2.284h-2.7A19.752,19.752,0,0,1,10.331,12.4a.761.761,0,0,0-1.151-1A21.307,21.307,0,0,0,25.318,46.635h.1a.761.761,0,1,0,0-1.523h-.1a19.682,19.682,0,0,1-17.14-9.9h1.913A3.833,3.833,0,0,0,13.9,31.408a2.3,2.3,0,0,1,2.284-2.284,3.807,3.807,0,0,0,0-7.613H13.136a2.284,2.284,0,1,1,0-4.568,3.8,3.8,0,0,0,3.807-3.807,2.28,2.28,0,0,1,2.284-2.284,3.833,3.833,0,0,0,3.807-3.807,4.341,4.341,0,0,0-.249-1.338,19.177,19.177,0,0,1,2.533-.185A19.722,19.722,0,0,1,36.97,9.331l-6.323,0a3.807,3.807,0,0,0,0,7.613,2.3,2.3,0,0,1,2.284,2.284c.006.621.085,1.514.859,1.523a.765.765,0,0,0,.734-.968,2.027,2.027,0,0,1-.071-.555,3.832,3.832,0,0,0-3.807-3.807,2.284,2.284,0,1,1,0-4.568h8.169a19.824,19.824,0,0,1,6.3,14.465v.1a.761.761,0,1,0,1.523,0v-.1a21.351,21.351,0,0,0-7-15.79Z" transform="translate(0 0)" fill="#aba28b"/>
      <path id="Path_1187" data-name="Path 1187" d="M41.4,41.609a.761.761,0,0,0-1.077,1.077l1.787,1.786a.761.761,0,0,0,1.077,0l5.37-5.369a.761.761,0,1,0-1.077-1.077l-4.832,4.831Z" transform="translate(-8.615 -8.068)" fill="#aba28b"/>
      <path id="Path_1188" data-name="Path 1188" d="M47.717,49.924l-.73.73-1-.75a.763.763,0,0,0-.877-.026,8.877,8.877,0,0,1-3.121,1.294.762.762,0,0,0-.6.638l-.177,1.237H39.149l-.177-1.237a.762.762,0,0,0-.6-.638,8.877,8.877,0,0,1-3.121-1.294.76.76,0,0,0-.877.026l-1,.75-1.46-1.46.75-1a.761.761,0,0,0,.026-.877A8.877,8.877,0,0,1,31.4,44.2a.762.762,0,0,0-.638-.6l-1.237-.177V41.356l1.237-.177a.762.762,0,0,0,.638-.6,8.952,8.952,0,0,1,.775-2.228.761.761,0,1,0-1.359-.687,10.46,10.46,0,0,0-.785,2.082l-1.375.2A.763.763,0,0,0,28,40.7V44.08a.763.763,0,0,0,.654.754l1.375.2A10.35,10.35,0,0,0,31.135,47.7L30.3,48.808a.761.761,0,0,0,.071,1L32.766,52.2a.762.762,0,0,0,1,.071l1.109-.833a10.351,10.351,0,0,0,2.668,1.106l.2,1.375a.763.763,0,0,0,.754.653h3.384a.763.763,0,0,0,.754-.654l.2-1.375a10.35,10.35,0,0,0,2.668-1.106l1.109.833a.763.763,0,0,0,1-.071l1.2-1.2a.761.761,0,0,0-1.077-1.077Z" transform="translate(-5.728 -7.935)" fill="#aba28b"/>
      <path id="Path_1189" data-name="Path 1189" d="M52.758,37.735l-1.375-.2a10.35,10.35,0,0,0-1.106-2.668l.833-1.109a.761.761,0,0,0-.071-1l-2.394-2.394a.761.761,0,0,0-1-.071l-1.109.833a10.367,10.367,0,0,0-2.668-1.105l-.2-1.375A.762.762,0,0,0,42.922,28H39.538a.762.762,0,0,0-.754.654l-.2,1.375a10.367,10.367,0,0,0-2.668,1.105L34.81,30.3a.761.761,0,0,0-1,.071l-1.2,1.2a.761.761,0,1,0,1.077,1.077l.73-.73,1,.75a.761.761,0,0,0,.877.026A8.88,8.88,0,0,1,39.421,31.4c.784-.15.624-1.239.777-1.875h2.064c.154.638-.009,1.724.777,1.875a8.88,8.88,0,0,1,3.121,1.294.76.76,0,0,0,.877-.026l1-.75,1.46,1.46-.75,1a.761.761,0,0,0-.026.877,8.877,8.877,0,0,1,1.294,3.121c.153.788,1.237.622,1.875.777v2.064l-1.237.177a.762.762,0,0,0-.638.6,8.952,8.952,0,0,1-.775,2.228.762.762,0,0,0,.336,1.023c1.236.491,1.485-1.622,1.808-2.418l1.375-.2a.763.763,0,0,0,.653-.754V38.489A.763.763,0,0,0,52.758,37.735Z" transform="translate(-6.777 -5.728)" fill="#aba28b"/>
      <path id="Path_1190" data-name="Path 1190" d="M44.062,36.326a6.092,6.092,0,1,0,4.118,5.764v-.033a.746.746,0,0,0-.761-.744.775.775,0,0,0-.761.778,4.561,4.561,0,1,1-3.088-4.323.761.761,0,1,0,.492-1.441Z" transform="translate(-7.636 -7.637)" fill="#aba28b"/>
    </g>
  </g>
</svg>
