<svg xmlns="http://www.w3.org/2000/svg" width="72.264" height="72.264" viewBox="0 0 72.264 72.264">
  <g id="Group_6_icons_-_not_selected_5" data-name="Group 6 icons - not selected 5" transform="translate(18211.77 -2377.642)">
    <circle id="Ellipse_276" data-name="Ellipse 276" cx="36.132" cy="36.132" r="36.132" transform="translate(-18139.506 2377.642) rotate(90)" fill="#d0cabe"/>
    <g id="Group_603" data-name="Group 603" transform="translate(-18202.436 2389.27)">
      <path id="Path_1196" data-name="Path 1196" d="M51.69,20.38A18.741,18.741,0,0,0,33.277,2.006L32.908,2l-.408.008-.026,0h-.018a18.708,18.708,0,0,0-17.887,14.72.782.782,0,0,0,.6.932.771.771,0,0,0,.563-.094c.013.011.02.026.034.036a.783.783,0,0,0,1.093-.18,13.387,13.387,0,0,1,6.03-4.239,29.83,29.83,0,0,0-.871,5.558.783.783,0,0,0,1.563.1,27.629,27.629,0,0,1,1.111-6.269,28.323,28.323,0,0,1,7.44-1.127v6.142a.783.783,0,1,0,1.566,0V11.444a28.346,28.346,0,0,1,7.436,1.126A28.544,28.544,0,0,1,42.3,20.787a28.532,28.532,0,0,1-1.191,8.272.768.768,0,0,0-.355.867.735.735,0,0,0,.048.1c-.036.1-.068.21-.106.314a.783.783,0,1,0,1.47.538c.076-.208.143-.417.212-.625a17.119,17.119,0,0,0,6.842-4.005A17.256,17.256,0,0,1,37.207,37.464a.783.783,0,0,0,.195,1.541.8.8,0,0,0,.2-.024A18.84,18.84,0,0,0,51.69,21.156l.008-.368Zm-2.44-5.04a17.191,17.191,0,0,0-6.872-4.022,17.067,17.067,0,0,0-4.043-6.881,17.165,17.165,0,0,1,10.915,10.9Zm-32.674.013A17.106,17.106,0,0,1,27.442,4.464a17.218,17.218,0,0,0-4,6.856,17.264,17.264,0,0,0-6.861,4.032ZM25.3,10.781c1.609-4.079,4.136-6.737,6.826-7.156V9.88a30.734,30.734,0,0,0-6.826.9Zm8.392-7.154c2.7.434,5.221,3.088,6.826,7.154a30.752,30.752,0,0,0-6.826-.9Zm9.227,24.766a30.915,30.915,0,0,0,0-15.213c4.286,1.692,7.01,4.4,7.206,7.239l.008.368-.007.348c-.2,2.861-2.916,5.56-7.206,7.258Z" transform="translate(-2.725)" fill="#aba28b"/>
      <path id="Path_1197" data-name="Path 1197" d="M32.411,26.07A10.311,10.311,0,0,0,19.238,27.1l-.177-.177A10.206,10.206,0,0,0,4.873,26.81,9.443,9.443,0,0,0,2,33.6a10.167,10.167,0,0,0,2.963,7.254l3.273,3.258.014.014,8.9,8.856a2.59,2.59,0,0,0,3.636.038L33.436,40.936A9.665,9.665,0,0,0,32.411,26.07ZM7.6,41.274A2.346,2.346,0,0,1,12.177,42v.783H9.122Zm21.631,1.514H26.269V42a2.351,2.351,0,0,1,2.349-2.349,2.322,2.322,0,0,1,2.218,1.6ZM32.355,39.8l-.316.3A3.913,3.913,0,0,0,24.7,42V43.57a.783.783,0,0,0,.783.783h2.107L19.7,51.891a1.031,1.031,0,0,1-1.45-.016L10.7,44.353H12.96a.783.783,0,0,0,.783-.783V42a3.915,3.915,0,0,0-7.331-1.914l-.345-.343a8.588,8.588,0,0,1-2.5-6.131,7.889,7.889,0,0,1,2.392-5.679,8.483,8.483,0,0,1,5.923-2.374H12a8.477,8.477,0,0,1,5.96,2.471l.719.715a.782.782,0,0,0,1.093.011l.5-.48a8.752,8.752,0,0,1,11.214-.949h0a8.1,8.1,0,0,1,.87,12.471Z" transform="translate(0 -4.777)" fill="#aba28b"/>
      <path id="Path_1198" data-name="Path 1198" d="M22.914,42A3.919,3.919,0,0,0,19,45.913v1.566a.783.783,0,0,0,.783.783h6.263a.783.783,0,0,0,.783-.783V45.913A3.919,3.919,0,0,0,22.914,42Zm2.349,4.7h-4.7v-.783a2.349,2.349,0,1,1,4.7,0Z" transform="translate(-3.691 -8.685)" fill="#aba28b"/>
      <path id="Path_1199" data-name="Path 1199" d="M23.349,38.7A2.349,2.349,0,1,0,21,36.347,2.351,2.351,0,0,0,23.349,38.7Zm0-3.132a.783.783,0,1,1-.783.783A.784.784,0,0,1,23.349,35.564Z" transform="translate(-4.125 -6.948)" fill="#aba28b"/>
      <path id="Path_1200" data-name="Path 1200" d="M35.349,34A2.349,2.349,0,1,0,37.7,36.347,2.351,2.351,0,0,0,35.349,34Zm0,3.132a.783.783,0,1,1,.783-.783A.784.784,0,0,1,35.349,37.13Z" transform="translate(-6.731 -6.948)" fill="#aba28b"/>
      <path id="Path_1201" data-name="Path 1201" d="M11.349,34A2.349,2.349,0,1,0,13.7,36.347,2.351,2.351,0,0,0,11.349,34Zm0,3.132a.783.783,0,1,1,.783-.783A.784.784,0,0,1,11.349,37.13Z" transform="translate(-1.52 -6.948)" fill="#aba28b"/>
    </g>
  </g>
</svg>
