<svg xmlns="http://www.w3.org/2000/svg" width="84.264" height="84.264" viewBox="0 0 84.264 84.264">
  <g id="Group_6_icons_-_selected_9" data-name="Group 6 icons - selected 9" transform="translate(17847.375 -2478.387)">
    <circle id="Ellipse_371" data-name="Ellipse 371" cx="42.132" cy="42.132" r="42.132" transform="translate(-17763.111 2478.388) rotate(90)" fill="#45596d"/>
    <g id="Group_921" data-name="Group 921" transform="translate(-17892.436 2396.061)">
      <path id="Path_1219" data-name="Path 1219" d="M398.324,179.532h-.107a.839.839,0,0,1-.076-1.677c.072,0,.144,0,.219,0a.839.839,0,1,1-.036,1.677Z" transform="translate(-316.294 -75.288)" fill="#fff"/>
      <path id="Path_1220" data-name="Path 1220" d="M81.423,255.468H81.4a21.054,21.054,0,0,1-15.865-7.824,20.81,20.81,0,0,1,0-26.19l.017-.02a20.959,20.959,0,0,1,6.67-5.445.839.839,0,0,1,.75,1.5,19.282,19.282,0,0,0-6.133,5.019l-.017.02a19.154,19.154,0,0,0,.016,24.063,19.381,19.381,0,0,0,14.606,7.2.838.838,0,1,1-.022,1.677Z" transform="translate(0 -111.056)" fill="#fff"/>
      <path id="Path_1221" data-name="Path 1221" d="M565.561,240.775a.828.828,0,0,1-.289-.052.838.838,0,0,1-.5-1.078,4.3,4.3,0,0,0,.13-.419,19.246,19.246,0,0,0-9.814-21.841.838.838,0,1,1,.772-1.488,20.887,20.887,0,0,1,10.667,23.748,5.983,5.983,0,0,1-.18.58.838.838,0,0,1-.788.55Z" transform="translate(-464.171 -110.964)" fill="#fff"/>
      <path id="Path_1222" data-name="Path 1222" d="M398.324,179.532h-.107a.839.839,0,0,1-.076-1.677c.072,0,.144,0,.219,0a.839.839,0,1,1-.036,1.677Z" transform="translate(-316.294 -75.288)" fill="#fff"/>
      <path id="Path_1223" data-name="Path 1223" d="M522.122,372.956a.838.838,0,0,1-.838-.811,43.5,43.5,0,0,0-.807-7.151.839.839,0,1,1,1.644-.332,45.22,45.22,0,0,1,.838,7.426.838.838,0,0,1-.81.865Z" transform="translate(-432.04 -250.277)" fill="#fff"/>
      <path id="Path_1224" data-name="Path 1224" d="M270.876,394.683a.839.839,0,0,1-.133-.011c-1.624-.259-3.165-1.482-4.457-3.533a24.24,24.24,0,0,1-2.832-7.446,48.03,48.03,0,0,1-.168-19,.839.839,0,1,1,1.644.332,46.35,46.35,0,0,0,.16,18.3,22.582,22.582,0,0,0,2.615,6.92c1.027,1.632,2.169,2.591,3.3,2.772a.838.838,0,0,1-.131,1.667Z" transform="translate(-189.453 -250.305)" fill="#fff"/>
      <path id="Path_1225" data-name="Path 1225" d="M656.286,515h-5.138a.838.838,0,1,1,0-1.677h5.138a.838.838,0,1,1,0,1.677Z" transform="translate(-554.114 -390.665)" fill="#fff"/>
      <path id="Path_1226" data-name="Path 1226" d="M89.325,515H61.838a.838.838,0,1,1,0-1.677H89.325a.838.838,0,1,1,0,1.677Z" transform="translate(-0.095 -390.665)" fill="#fff"/>
      <path id="Path_1227" data-name="Path 1227" d="M534.024,307.522a.838.838,0,0,1-.184-1.656,37.6,37.6,0,0,0,7.53-2.58l.015-.007a.838.838,0,0,1,.744,1.5l-.033.016-.011.005a39.288,39.288,0,0,1-7.874,2.695A.824.824,0,0,1,534.024,307.522Z" transform="translate(-444.004 -193.12)" fill="#fff"/>
      <path id="Path_1228" data-name="Path 1228" d="M143.448,307.6a.849.849,0,0,1-.18-.02,32.5,32.5,0,0,1-7.929-2.745l-.04-.022-.018-.01a.838.838,0,0,1,.83-1.457l.007,0a30.578,30.578,0,0,0,7.509,2.592.838.838,0,0,1-.18,1.658Z" transform="translate(-69.529 -193.158)" fill="#fff"/>
      <path id="Path_1229" data-name="Path 1229" d="M135.655,669.337a.838.838,0,0,1-.415-1.568l.038-.021a33.172,33.172,0,0,1,8.871-2.945,38.373,38.373,0,0,1,6.751-.695.838.838,0,1,1,.023,1.677,36.756,36.756,0,0,0-6.456.664,31.324,31.324,0,0,0-8.392,2.774l-.008,0A.829.829,0,0,1,135.655,669.337Z" transform="translate(-69.488 -532.424)" fill="#fff"/>
      <path id="Path_1230" data-name="Path 1230" d="M247.249,118.683a10.457,10.457,0,1,1,10.53-10.456A10.505,10.505,0,0,1,247.249,118.683Zm0-19.237a8.78,8.78,0,1,0,8.853,8.78,8.827,8.827,0,0,0-8.853-8.78Z" transform="translate(-165.292)" fill="#fff"/>
      <path id="Path_1231" data-name="Path 1231" d="M371.055,208.7H369.2a.838.838,0,1,1,0-1.677h1.856a.91.91,0,1,0,0-1.819h-.1a2.586,2.586,0,0,1,0-5.172h1.856a.838.838,0,1,1,0,1.677h-1.856a.909.909,0,1,0,0,1.818h.1a2.586,2.586,0,1,1,0,5.172Z" transform="translate(-289.049 -96.136)" fill="#fff"/>
      <path id="Path_1232" data-name="Path 1232" d="M399.388,320.849a.838.838,0,0,1-.838-.838V317.6a.838.838,0,0,1,1.677,0v2.413A.838.838,0,0,1,399.388,320.849Z" transform="translate(-317.431 -205.876)" fill="#fff"/>
      <path id="Path_1233" data-name="Path 1233" d="M399.388,159.607a.838.838,0,0,1-.838-.838v-2.68a.838.838,0,0,1,1.677,0v2.68A.838.838,0,0,1,399.388,159.607Z" transform="translate(-317.431 -54.038)" fill="#fff"/>
      <path id="Path_1234" data-name="Path 1234" d="M398.266,665.678h-7.808a.838.838,0,0,1-.838-.839V651.448a.838.838,0,0,1,.838-.838h7.808a.838.838,0,0,1,.838.838v13.391A.838.838,0,0,1,398.266,665.678ZM391.3,664h6.128V652.287H391.3Z" transform="translate(-309.036 -519.734)" fill="#fff"/>
      <path id="Path_1235" data-name="Path 1235" d="M528.642,510.662h-7.8a.838.838,0,0,1-.838-.838V486.558a.838.838,0,0,1,.838-.838h7.8a.839.839,0,0,1,.838.838v23.265A.839.839,0,0,1,528.642,510.662Zm-6.965-1.677H527.8V487.4h-6.127Z" transform="translate(-431.608 -364.718)" fill="#fff"/>
      <path id="Path_1236" data-name="Path 1236" d="M658.954,622.621h-7.805a.838.838,0,0,1-.838-.838V605.648a.838.838,0,0,1,.838-.838h7.805a.838.838,0,0,1,.838.838v16.134A.838.838,0,0,1,658.954,622.621Zm-6.967-1.677h6.129V606.487h-6.129Z" transform="translate(-554.114 -476.677)" fill="#fff"/>
      <path id="Path_1237" data-name="Path 1237" d="M789.294,480.729h-7.806a.838.838,0,0,1-.838-.838V454.718a.838.838,0,0,1,.838-.838h7.806a.838.838,0,0,1,.838.838v25.172A.838.838,0,0,1,789.294,480.729Zm-6.967-1.677h6.129v-23.5h-6.129Z" transform="translate(-676.649 -334.785)" fill="#fff"/>
    </g>
  </g>
</svg>
