<svg xmlns="http://www.w3.org/2000/svg" width="90.491" height="90.49" viewBox="0 0 90.491 90.49">
  <g id="Group_1356" data-name="Group 1356" transform="translate(6115 -18062.67)">
    <circle id="Ellipse_418" data-name="Ellipse 418" cx="45.245" cy="45.245" r="45.245" transform="translate(-6024.509 18062.67) rotate(90)" fill="#45596d"/>
    <path id="Path_1736" data-name="Path 1736" d="M39.826,15.954H34.461a2.236,2.236,0,0,0-2.233,2.233V19.6a18.225,18.225,0,0,0-4,1.659l-1-1a2.238,2.238,0,0,0-3.161,0l-3.8,3.792a2.237,2.237,0,0,0,0,3.161l1,1a18.126,18.126,0,0,0-1.663,4H18.2a2.238,2.238,0,0,0-2.237,2.233v5.365A2.24,2.24,0,0,0,18.2,42.053h1.407a18.054,18.054,0,0,0,1.662,4l-1,1a2.238,2.238,0,0,0,0,3.161l3.8,3.791a2.237,2.237,0,0,0,3.161,0l1-1a18.126,18.126,0,0,0,4,1.659v1.411a2.236,2.236,0,0,0,2.233,2.233h5.365a2.238,2.238,0,0,0,2.237-2.233V54.668a18.131,18.131,0,0,0,4-1.659l1,1a2.237,2.237,0,0,0,3.161,0l3.8-3.792a2.238,2.238,0,0,0,0-3.161l-1-1a17.936,17.936,0,0,0,1.659-4h1.41a2.24,2.24,0,0,0,2.237-2.237V34.451a2.238,2.238,0,0,0-2.237-2.233h-1.41a18.012,18.012,0,0,0-1.66-4l1-1a2.237,2.237,0,0,0,0-3.163l-3.8-3.792a2.238,2.238,0,0,0-3.161,0l-1,1a18.128,18.128,0,0,0-4-1.659V18.188a2.238,2.238,0,0,0-2.237-2.233Zm5.957,6.969a.79.79,0,0,0,.97-.116l1.428-1.428a.655.655,0,0,1,.926,0l3.8,3.792a.657.657,0,0,1,0,.925L51.47,27.527a.79.79,0,0,0-.116.97,16.442,16.442,0,0,1,1.946,4.7.791.791,0,0,0,.768.6h2.021a.655.655,0,0,1,.656.652v5.365a.657.657,0,0,1-.656.656H54.068a.791.791,0,0,0-.768.6,16.371,16.371,0,0,1-1.946,4.692.79.79,0,0,0,.116.971L52.9,48.171a.655.655,0,0,1,0,.925l-3.8,3.792a.655.655,0,0,1-.925,0L46.753,51.46a.79.79,0,0,0-.97-.116,16.557,16.557,0,0,1-4.7,1.946.791.791,0,0,0-.6.768v2.021a.655.655,0,0,1-.656.652H34.461a.653.653,0,0,1-.653-.652V54.058a.791.791,0,0,0-.6-.768,16.556,16.556,0,0,1-4.7-1.946.79.79,0,0,0-.97.116l-1.428,1.428a.657.657,0,0,1-.926,0l-3.8-3.791a.655.655,0,0,1,0-.925l1.432-1.432a.79.79,0,0,0,.116-.971,16.485,16.485,0,0,1-1.95-4.693.791.791,0,0,0-.768-.6H18.2a.657.657,0,0,1-.656-.656V34.451A.655.655,0,0,1,18.2,33.8h2.017a.791.791,0,0,0,.768-.6,16.554,16.554,0,0,1,1.95-4.7.79.79,0,0,0-.116-.97l-1.433-1.434a.643.643,0,0,1-.189-.458.652.652,0,0,1,.19-.465l3.8-3.792a.655.655,0,0,1,.925,0l1.428,1.428a.79.79,0,0,0,.969.117,16.654,16.654,0,0,1,4.7-1.947.791.791,0,0,0,.6-.768V18.188a.653.653,0,0,1,.653-.653h5.365a.655.655,0,0,1,.656.653v2.021a.791.791,0,0,0,.6.768,16.558,16.558,0,0,1,4.7,1.946ZM9.1,29.811A29.029,29.029,0,0,1,26.532,10.166l-1.426-.253a.79.79,0,1,1,.276-1.557l4.483.795a.793.793,0,0,1,.222.069.8.8,0,0,1,.073.04.788.788,0,0,1,.342.447c0,.017.009.033.013.05a.79.79,0,0,1-.115.616.775.775,0,0,1-.067.086l-2.986,3.447a.79.79,0,1,1-1.195-1.035l1.126-1.3A27.444,27.444,0,0,0,10.633,30.209a.79.79,0,0,1-1.53-.4ZM43.5,9.659a.79.79,0,0,1,.964-.566A29.019,29.019,0,0,1,64.11,26.52l.253-1.427a.79.79,0,1,1,1.557.276l-.795,4.486a.791.791,0,0,1-.554.636l-.056.014A.788.788,0,0,1,64,30.446a.815.815,0,0,1-.084-.047h0a.8.8,0,0,1-.1-.076l-3.443-2.986a.79.79,0,1,1,1.036-1.194l1.3,1.124A27.433,27.433,0,0,0,44.067,10.623a.79.79,0,0,1-.566-.964Zm21.682,34.8A29.015,29.015,0,0,1,47.758,64.1l1.426.253a.791.791,0,0,1-.137,1.569.782.782,0,0,1-.139-.012l-4.483-.795a.786.786,0,0,1-.22-.068h0a.768.768,0,0,1-.075-.041c-.024-.015,0,0,0,0a.787.787,0,0,1-.34-.446c-.005-.017-.01-.034-.014-.052a.788.788,0,0,1,.053-.5c.07-.153,0,0,0,0a.782.782,0,0,1,.062-.111.8.8,0,0,1,.066-.085l2.986-3.447a.79.79,0,0,1,1.195,1.035l-1.126,1.3A27.431,27.431,0,0,0,63.653,44.057a.79.79,0,1,1,1.53.4ZM30.789,64.607a.79.79,0,0,1-.964.566A29.029,29.029,0,0,1,10.178,47.752l-.251,1.421A.79.79,0,1,1,8.37,48.9l.791-4.483a.793.793,0,0,1,.063-.21.8.8,0,0,1,.055-.1.788.788,0,0,1,.438-.327l.05-.013a.788.788,0,0,1,.516.057.771.771,0,0,1,.092.052.794.794,0,0,1,.094.072l3.447,2.982a.79.79,0,0,1-1.034,1.2L11.58,47A27.446,27.446,0,0,0,30.223,63.643a.79.79,0,0,1,.566.964ZM25.1,37.135a11.976,11.976,0,0,0,2.23,6.973.8.8,0,0,0,.088.12,12.029,12.029,0,0,0,19.113.44.792.792,0,0,0,.13-.165A12.04,12.04,0,1,0,25.1,37.135ZM37.145,47.6a10.447,10.447,0,0,1-8.251-4.042c.714-1.825,2.836-3.167,5.791-3.648a5.592,5.592,0,0,0,4.538,0c3.151.517,5.315,1.986,5.9,3.99a10.441,10.441,0,0,1-7.977,3.7Zm1.621-9.226-.01.005a4.086,4.086,0,1,1,.01-.005Zm8.84-1.236A10.4,10.4,0,0,1,46.2,42.369a8.148,8.148,0,0,0-5.217-3.7,5.613,5.613,0,1,0-8.059,0A8.45,8.45,0,0,0,27.9,42.031a10.46,10.46,0,1,1,19.7-4.9ZM32.969,13.519h7.953a.79.79,0,0,0,.79-.79V4.776a.79.79,0,0,0-.79-.79H32.969a.79.79,0,0,0-.79.79v7.953a.79.79,0,0,0,.79.79Zm.79-7.953h6.372v6.372H33.76V5.567Zm31.766,26.8a4.767,4.767,0,1,0,4.765,4.769A4.774,4.774,0,0,0,65.526,32.366Zm0,7.952a3.186,3.186,0,1,1,3.184-3.184A3.189,3.189,0,0,1,65.526,40.319ZM37.83,61.135a.79.79,0,0,0-1.369,0l-4.6,7.96a.791.791,0,0,0,.684,1.186h9.19a.79.79,0,0,0,.684-1.186ZM33.917,68.7l3.228-5.589L40.37,68.7ZM12.123,41.367l2.215-3.836a.791.791,0,0,0,0-.79L12.123,32.9a.79.79,0,0,0-.685-.4H7a.79.79,0,0,0-.685.4L4.105,36.74a.791.791,0,0,0,0,.79L6.32,41.367a.79.79,0,0,0,.684.4h4.433a.79.79,0,0,0,.684-.4ZM7.461,40.181,5.7,37.135l1.759-3.05h3.52l1.759,3.05-1.758,3.046Z" transform="translate(-6106.256 18070.781)" fill="#fff"/>
  </g>
</svg>
