<svg xmlns="http://www.w3.org/2000/svg" width="84.264" height="84.264" viewBox="0 0 84.264 84.264">
  <g id="Group_2_icons_-_selected_1" data-name="Group 2 icons - selected 1" transform="translate(18743.41 -3517.894)">
    <g id="Group_944" data-name="Group 944">
      <circle id="Ellipse_400" data-name="Ellipse 400" cx="42.132" cy="42.132" r="42.132" transform="translate(-18659.146 3517.894) rotate(90)" fill="#903"/>
      <g id="Group_932" data-name="Group 932" transform="translate(-18728.416 3531.457)">
        <path id="Path_1072" data-name="Path 1072" d="M8.574,53.1l37.125.031a3.542,3.542,0,0,0,3.118-1.808,3.454,3.454,0,0,0-.045-3.523l-9.7-16.244c.138-.147.277-.278.414-.437l3.115.893a1.524,1.524,0,0,0,1.721-.645c.177-.266.771-1.288.906-1.55a1.535,1.535,0,0,0-.295-1.846l-2.32-2.226a16.392,16.392,0,0,0,.586-2.188l3.16-.778a1.552,1.552,0,0,0,1.154-1.413c.01-.159.011-.578.011-1.007s0-.849-.01-.986a1.567,1.567,0,0,0-1.187-1.442l-3.131-.771a16.374,16.374,0,0,0-.586-2.187l2.322-2.224a1.529,1.529,0,0,0,.307-1.827c-.148-.284-.739-1.3-.89-1.527a1.541,1.541,0,0,0-1.753-.687l-3.11.893A15.3,15.3,0,0,0,37.874,8l.892-3.1a1.549,1.549,0,0,0-.669-1.74c-.26-.158-1.264-.741-1.528-.877a1.542,1.542,0,0,0-1.852.291L32.472,4.89a15.74,15.74,0,0,0-2.2-.586l-.789-3.153A1.557,1.557,0,0,0,28.045.007c-.3-.007-1.486-.007-1.792,0a1.565,1.565,0,0,0-1.442,1.174L24.034,4.3a15.723,15.723,0,0,0-2.2.586l-2.242-2.31a1.538,1.538,0,0,0-1.834-.306c-.285.147-1.289.731-1.567.9a1.544,1.544,0,0,0-.651,1.734L16.428,8a15.326,15.326,0,0,0-1.607,1.6l-3.112-.894a1.52,1.52,0,0,0-1.72.643c-.188.28-.782,1.308-.908,1.552a1.534,1.534,0,0,0,.295,1.849L11.7,14.98a16.4,16.4,0,0,0-.586,2.183l-3.159.779a1.547,1.547,0,0,0-1.157,1.413c-.009.159-.01.578-.01,1.008s0,.848.008.982A1.566,1.566,0,0,0,7.98,22.789l3.131.768a16.458,16.458,0,0,0,.586,2.188L9.378,27.974a1.526,1.526,0,0,0-.3,1.826c.15.29.742,1.309.89,1.529a1.536,1.536,0,0,0,1.752.685l3.11-.891c.136.158.266.3.4.443l-9.718,16.2a3.454,3.454,0,0,0-.053,3.525A3.535,3.535,0,0,0,8.574,53.1Zm7.49-23.255a1.579,1.579,0,0,0-1.594-.467l-3.082.886c-.166-.272-.485-.819-.659-1.131l2.318-2.225a1.569,1.569,0,0,0,.367-1.632,14.541,14.541,0,0,1-.585-2.167,1.578,1.578,0,0,0-1.157-1.24l-3.114-.768v-1.49l3.139-.774a1.564,1.564,0,0,0,1.129-1.219,14.552,14.552,0,0,1,.584-2.179,1.575,1.575,0,0,0-.381-1.644l-2.3-2.214c.161-.29.473-.826.66-1.13l3.091.886a1.594,1.594,0,0,0,1.607-.491A13.807,13.807,0,0,1,17.708,9.24a1.568,1.568,0,0,0,.468-1.594l-.886-3.07c.3-.177.831-.484,1.138-.654l2.236,2.3a1.584,1.584,0,0,0,1.628.377,14.186,14.186,0,0,1,2.214-.588,1.594,1.594,0,0,0,1.217-1.142l.77-3.1h1.321L28.594,4.9a1.594,1.594,0,0,0,1.227,1.126,14.026,14.026,0,0,1,2.214.591,1.579,1.579,0,0,0,1.617-.395l2.226-2.294c.3.165.848.484,1.137.654l-.886,3.073a1.576,1.576,0,0,0,.5,1.612,13.767,13.767,0,0,1,1.614,1.609,1.584,1.584,0,0,0,1.6.468l3.082-.886c.168.273.486.82.659,1.13l-2.318,2.23a1.573,1.573,0,0,0-.367,1.632,14.462,14.462,0,0,1,.581,2.163,1.581,1.581,0,0,0,1.157,1.24l3.115.767v1.491l-3.139.774a1.567,1.567,0,0,0-1.13,1.22,14.419,14.419,0,0,1-.584,2.179,1.581,1.581,0,0,0,.381,1.645l2.3,2.214c-.16.29-.472.824-.66,1.131l-3.089-.886a1.58,1.58,0,0,0-1.611.493c-.033.039-.064.071-.1.108L36.43,27.153a11.513,11.513,0,1,0-18.569.021l-1.683,2.807c-.039-.049-.074-.084-.114-.132Zm2.8-4.352a9.741,9.741,0,1,1,16.56-.027l-5.188-8.685a3.589,3.589,0,0,0-6.141,0ZM7.026,48.68,25.615,17.691a1.818,1.818,0,0,1,3.1.008L47.256,48.715a1.706,1.706,0,0,1,.023,1.739,1.787,1.787,0,0,1-1.577.909L8.576,51.333A1.788,1.788,0,0,1,7,50.421a1.7,1.7,0,0,1,.027-1.741Z" fill="#fff"/>
        <path id="Path_1073" data-name="Path 1073" d="M29.657,43.941a2.657,2.657,0,0,0,2.657-2.657V30.657a2.657,2.657,0,1,0-5.314,0V41.284A2.657,2.657,0,0,0,29.657,43.941Zm-.886-13.284a.886.886,0,1,1,1.771,0V41.284a.886.886,0,1,1-1.771,0Z" transform="translate(-2.517 -3.203)" fill="#fff"/>
        <path id="Path_1074" data-name="Path 1074" d="M29.657,53.314A2.657,2.657,0,1,0,27,50.657,2.657,2.657,0,0,0,29.657,53.314Zm0-3.542a.886.886,0,1,1-.886.886A.886.886,0,0,1,29.657,49.771Z" transform="translate(-2.517 -5.492)" fill="#fff"/>
      </g>
    </g>
  </g>
</svg>
