<svg xmlns="http://www.w3.org/2000/svg" width="84.264" height="84.264" viewBox="0 0 84.264 84.264">
  <g id="Group_1293" data-name="Group 1293" transform="translate(10788.118 -16780.949)">
    <g id="Group_1_icons_-_selected_2" data-name="Group 1 icons - selected 2" transform="translate(7723.675 13580.341)">
      <circle id="Ellipse_389" data-name="Ellipse 389" cx="42.132" cy="42.132" r="42.132" transform="translate(-18427.529 3200.608) rotate(90)" fill="#45596d"/>
      <g id="Group_928" data-name="Group 928" transform="translate(-18513.09 3209.759)">
        <path id="Path_1010" data-name="Path 1010" d="M79.5,475.435H45.754a1.66,1.66,0,0,1-1.66-1.66h0a1.66,1.66,0,0,1,1.66-1.66H79.5a1.66,1.66,0,0,1,1.66,1.66h0A1.66,1.66,0,0,1,79.5,475.435Z" transform="translate(-22.394 -416.972)" fill="none" stroke="#fff" stroke-linecap="round" stroke-linejoin="round" stroke-miterlimit="10" stroke-width="1.2"/>
        <path id="Path_1011" data-name="Path 1011" d="M84,126.086v-9.918a1.89,1.89,0,0,1,1.507-1.851l24.354-5.047" transform="translate(-58.208 -91.334)" fill="none" stroke="#fff" stroke-linecap="round" stroke-linejoin="round" stroke-miterlimit="10" stroke-width="1.2"/>
        <path id="Path_1012" data-name="Path 1012" d="M112.879,208.829v27H84" transform="translate(-58.208 -180.685)" fill="none" stroke="#fff" stroke-linecap="round" stroke-linejoin="round" stroke-miterlimit="10" stroke-width="1.2"/>
        <path id="Path_1013" data-name="Path 1013" d="M160.9,18.594l-16.49,3.417V8.811A1.311,1.311,0,0,1,145.726,7.5h13.867A1.311,1.311,0,0,1,160.9,8.811Z" transform="translate(-112.428)" fill="none" stroke="#fff" stroke-linecap="round" stroke-linejoin="round" stroke-miterlimit="10" stroke-width="1.2"/>
        <path id="Path_1014" data-name="Path 1014" d="M188.29,368.821h-9.424V357.7a.685.685,0,0,1,.685-.685h8.054a.685.685,0,0,1,.685.685v11.117Z" transform="translate(-143.347 -313.679)" fill="none" stroke="#fff" stroke-linecap="round" stroke-linejoin="round" stroke-miterlimit="10" stroke-width="1.2"/>
        <line id="Line_62" data-name="Line 62" y2="1.943" transform="translate(34.052 27.619)" fill="none" stroke="#fff" stroke-linecap="round" stroke-linejoin="round" stroke-miterlimit="10" stroke-width="1.2"/>
        <line id="Line_63" data-name="Line 63" y2="1.943" transform="translate(38.172 27.619)" fill="none" stroke="#fff" stroke-linecap="round" stroke-linejoin="round" stroke-miterlimit="10" stroke-width="1.2"/>
        <line id="Line_64" data-name="Line 64" y2="1.943" transform="translate(42.291 27.619)" fill="none" stroke="#fff" stroke-linecap="round" stroke-linejoin="round" stroke-miterlimit="10" stroke-width="1.2"/>
        <line id="Line_65" data-name="Line 65" y2="1.943" transform="translate(46.411 27.619)" fill="none" stroke="#fff" stroke-linecap="round" stroke-linejoin="round" stroke-miterlimit="10" stroke-width="1.2"/>
        <line id="Line_66" data-name="Line 66" y2="1.943" transform="translate(34.052 33.344)" fill="none" stroke="#fff" stroke-linecap="round" stroke-linejoin="round" stroke-miterlimit="10" stroke-width="1.2"/>
        <line id="Line_67" data-name="Line 67" y2="1.943" transform="translate(38.172 33.344)" fill="none" stroke="#fff" stroke-linecap="round" stroke-linejoin="round" stroke-miterlimit="10" stroke-width="1.2"/>
        <line id="Line_68" data-name="Line 68" y2="1.943" transform="translate(42.291 33.344)" fill="none" stroke="#fff" stroke-linecap="round" stroke-linejoin="round" stroke-miterlimit="10" stroke-width="1.2"/>
        <line id="Line_69" data-name="Line 69" y2="1.943" transform="translate(46.411 33.344)" fill="none" stroke="#fff" stroke-linecap="round" stroke-linejoin="round" stroke-miterlimit="10" stroke-width="1.2"/>
        <line id="Line_70" data-name="Line 70" y2="13.372" transform="translate(37.483 7.5)" fill="none" stroke="#fff" stroke-linecap="round" stroke-linejoin="round" stroke-miterlimit="10" stroke-width="1.2"/>
        <line id="Line_71" data-name="Line 71" y2="12.233" transform="translate(42.98 7.5)" fill="none" stroke="#fff" stroke-linecap="round" stroke-linejoin="round" stroke-miterlimit="10" stroke-width="1.2"/>
        <line id="Line_72" data-name="Line 72" x2="16.49" transform="translate(31.987 14.755)" fill="none" stroke="#fff" stroke-linecap="round" stroke-linejoin="round" stroke-miterlimit="10" stroke-width="1.2"/>
        <circle id="Ellipse_209" data-name="Ellipse 209" cx="6.651" cy="6.651" r="6.651" transform="translate(19.141 34.751)" fill="none" stroke="#fff" stroke-linecap="round" stroke-linejoin="round" stroke-miterlimit="10" stroke-width="1.2"/>
        <g id="Group_469" data-name="Group 469" transform="translate(24.309 37.856)">
          <path id="Path_1015" data-name="Path 1015" d="M72.149,311.216a1.7,1.7,0,0,0-1.6-.288,1.189,1.189,0,0,0-.506,1.957,5.735,5.735,0,0,0,1.572.744,1.446,1.446,0,0,1-.609,2.786,2.142,2.142,0,0,1-1.466-.394" transform="translate(-69.545 -310.097)" fill="none" stroke="#fff" stroke-linecap="round" stroke-linejoin="round" stroke-miterlimit="10" stroke-width="1.2"/>
          <line id="Line_73" data-name="Line 73" y1="0.81" transform="translate(1.466 6.319)" fill="none" stroke="#fff" stroke-linecap="round" stroke-linejoin="round" stroke-miterlimit="10" stroke-width="1.2"/>
          <line id="Line_74" data-name="Line 74" y1="0.751" transform="translate(1.466)" fill="none" stroke="#fff" stroke-linecap="round" stroke-linejoin="round" stroke-miterlimit="10" stroke-width="1.2"/>
        </g>
        <path id="Path_1016" data-name="Path 1016" d="M30.67,406.525H20.913a1.772,1.772,0,0,1-1.772-1.772h0a1.772,1.772,0,0,1,1.772-1.772H30.67a1.772,1.772,0,0,1,1.772,1.772h0A1.772,1.772,0,0,1,30.67,406.525Z" transform="translate(0 -354.928)" fill="none" stroke="#fff" stroke-linecap="round" stroke-linejoin="round" stroke-miterlimit="10" stroke-width="1.2"/>
        <path id="Path_1017" data-name="Path 1017" d="M30.67,441.092H20.913a1.772,1.772,0,0,1-1.772-1.772h0a1.772,1.772,0,0,1,1.772-1.772H30.67a1.772,1.772,0,0,1,1.772,1.772h0A1.772,1.772,0,0,1,30.67,441.092Z" transform="translate(0 -385.951)" fill="none" stroke="#fff" stroke-linecap="round" stroke-linejoin="round" stroke-miterlimit="10" stroke-width="1.2"/>
        <path id="Path_1018" data-name="Path 1018" d="M349.974,24.4l-4.423,3.113a2.278,2.278,0,0,1-2.623,0L338.505,24.4a5.413,5.413,0,0,1-2.3-4.426V9.355a1.218,1.218,0,0,1,1.218-1.218h13.627a1.218,1.218,0,0,1,1.218,1.218v10.62A5.412,5.412,0,0,1,349.974,24.4Z" transform="translate(-284.555 -0.572)" fill="none" stroke="#fff" stroke-linecap="round" stroke-linejoin="round" stroke-miterlimit="10" stroke-width="1.2"/>
        <g id="Group_470" data-name="Group 470" transform="translate(55.36 13.22)">
          <path id="Path_1019" data-name="Path 1019" d="M375.748,69.923a1.384,1.384,0,0,1-1-.43l-2.008-2.111a1.384,1.384,0,1,1,2.006-1.908l1.03,1.083,2.87-2.87a1.384,1.384,0,1,1,1.958,1.958l-3.873,3.873A1.385,1.385,0,0,1,375.748,69.923Z" transform="translate(-372.355 -63.282)" fill="none" stroke="#fff" stroke-linecap="round" stroke-linejoin="round" stroke-miterlimit="10" stroke-width="1.2"/>
        </g>
        <line id="Line_75" data-name="Line 75" y2="5.302" transform="translate(40.231 49.84)" fill="none" stroke="#fff" stroke-linecap="round" stroke-linejoin="round" stroke-miterlimit="10" stroke-width="1.2"/>
        <line id="Line_76" data-name="Line 76" y2="2.899" transform="translate(40.231 43.34)" fill="none" stroke="#fff" stroke-linecap="round" stroke-linejoin="round" stroke-miterlimit="10" stroke-width="1.2"/>
      </g>
    </g>
  </g>
</svg>
