<svg xmlns="http://www.w3.org/2000/svg" width="84.264" height="84.264" viewBox="0 0 84.264 84.264">
  <g id="Group_6_icons_-_selected_7" data-name="Group 6 icons - selected 7" transform="translate(18031.375 -2478.388)">
    <circle id="Ellipse_369" data-name="Ellipse 369" cx="42.132" cy="42.132" r="42.132" transform="translate(-17947.111 2478.388) rotate(90)" fill="#903"/>
    <path id="Path_1728" data-name="Path 1728" d="M57.606,38.451a4.819,4.819,0,0,0-3.839-4.718V18.54a.689.689,0,0,0-.689-.689H44.152V15.687A.689.689,0,0,0,43.463,15H26.884a.689.689,0,0,0-.689.689v2.164H17.27a.689.689,0,0,0-.689.689v5.523a1.429,1.429,0,0,0-.583.559l-.005.009-.077.139a.9.9,0,0,1-1.219.322l-.145-.084A1.432,1.432,0,0,0,12.4,26.25v.167a.893.893,0,0,1-.893.892h-.167A1.434,1.434,0,0,0,10.1,29.458l.083.144a.9.9,0,0,1-.327,1.221l-.148.085a1.434,1.434,0,0,0,0,2.48l.146.084a.894.894,0,0,1,.327,1.217l-.084.145a1.432,1.432,0,0,0,1.241,2.149h.167a.894.894,0,0,1,.893.892v.167a1.434,1.434,0,0,0,1.473,1.434V46.5a.689.689,0,0,0,1.134.526L16.581,45.7V61.736a.689.689,0,0,0,.689.689H53.077a.689.689,0,0,0,.689-.689V43.163a4.807,4.807,0,0,0,3.839-4.713ZM27.573,16.376h15.2v3.935h-15.2ZM13.806,38.093c-.02-.012-.026-.016-.026-.047v-.167a2.273,2.273,0,0,0-2.27-2.27h-.167c-.031,0-.036-.006-.047-.026a.043.043,0,0,1,0-.056l.084-.145a2.271,2.271,0,0,0-.832-3.1L10.4,32.2a.045.045,0,0,1-.029-.049A.044.044,0,0,1,10.4,32.1l.144-.083a2.274,2.274,0,0,0,.833-3.1l-.085-.148c-.012-.02-.012-.028,0-.051s.025-.029.047-.029h.167a2.273,2.273,0,0,0,2.27-2.27V26.25c0-.031.006-.036.026-.047a.043.043,0,0,1,.056,0l.145.084a2.277,2.277,0,0,0,3.1-.828l.006-.011.078-.139a.042.042,0,0,1,.037-.025l.031,0a.048.048,0,0,1,.029.027l.084.146a2.272,2.272,0,0,0,3.1.829l.145-.084a.043.043,0,0,1,.056,0c.02.012.026.016.026.048v.167a2.273,2.273,0,0,0,2.27,2.27h.167c.023,0,.032,0,.049.032s.012.028,0,.05l-.084.146a2.274,2.274,0,0,0,.833,3.1l.142.082a.045.045,0,0,1,.029.049.043.043,0,0,1-.026.048l-.144.083a2.271,2.271,0,0,0-.833,3.1l.084.145a.044.044,0,0,1,0,.057c-.012.02-.016.026-.047.026h-.167a2.273,2.273,0,0,0-2.27,2.27v.167c0,.031-.006.036-.026.047a.043.043,0,0,1-.056,0l-.145-.084a2.274,2.274,0,0,0-3.1.832l-.084.145a.043.043,0,0,1-.047.026c-.035,0-.041-.009-.05-.026l-.084-.145a2.27,2.27,0,0,0-3.1-.832l-.145.084a.043.043,0,0,1-.057,0Zm1.447,1a.893.893,0,0,1,.661.439l.084.145a1.436,1.436,0,0,0,2.485,0l.084-.145a.886.886,0,0,1,.48-.395v5.881l-1.452-1.228a.689.689,0,0,0-.89,0l-1.452,1.228V39.092Zm2.706,21.956V45.9l1.332,1.126a.689.689,0,0,0,1.134-.526v-7.04a1.434,1.434,0,0,0,1.654-1.417v-.167a.893.893,0,0,1,.893-.892h.167a1.432,1.432,0,0,0,1.241-2.149l-.084-.145a.893.893,0,0,1,.328-1.217l.148-.085a1.434,1.434,0,0,0,0-2.48l-.146-.084A.9.9,0,0,1,24.3,29.6l.082-.142a1.434,1.434,0,0,0-1.239-2.152h-.167a.893.893,0,0,1-.893-.892V26.25a1.432,1.432,0,0,0-2.149-1.241l-.145.084a.895.895,0,0,1-1.217-.325l-.084-.145a1.434,1.434,0,0,0-.524-.528V19.23H26.2V21a.689.689,0,0,0,.689.689H43.463A.689.689,0,0,0,44.152,21V19.23h8.237V33.652a4.781,4.781,0,0,0-3.006,1.393,4.838,4.838,0,0,0-1.4,3.783L44,42.815l-3.28-3.28a.689.689,0,0,0-.974,0l-6.708,6.708a.689.689,0,0,0,0,.974l2.913,2.913h-8.71a.689.689,0,0,0-.689.689V56.4a.689.689,0,0,0,.689.689H42.91L44.022,58.2a.689.689,0,0,0,.974,0L51.7,51.494a.689.689,0,0,0,0-.974l-3.28-3.28,3.964-3.964V61.048H17.959ZM50.243,51.007l-3.317,3.317L36.915,44.315,40.233,41Zm-8.711,4.705H27.93v-4.2h9.4ZM34.5,46.731l1.441-1.441L45.952,55.3,44.509,56.74,34.5,46.731Zm17.765-4.881a.691.691,0,0,0-.592.194L47.45,46.266,44.974,43.79,49.2,39.567a.689.689,0,0,0,.194-.592,3.454,3.454,0,0,1,.966-2.956,3.439,3.439,0,1,1,4.863,4.863,3.453,3.453,0,0,1-2.956.966Zm-23.8,11.76a.689.689,0,0,1,.689-.689h6.557a.689.689,0,0,1,0,1.378H29.149A.689.689,0,0,1,28.46,53.609Zm-6.273-21.46a4.947,4.947,0,1,0-4.945,4.945A4.952,4.952,0,0,0,22.187,32.149Zm-8.515,0a3.569,3.569,0,1,1,3.57,3.567A3.574,3.574,0,0,1,13.672,32.149ZM26.552,27.19a.689.689,0,0,1,.689-.689H47.047a.689.689,0,0,1,0,1.378H27.241A.689.689,0,0,1,26.552,27.19Zm0,5.813a.689.689,0,0,1,.689-.689H47.047a.689.689,0,0,1,0,1.378H27.241A.689.689,0,0,1,26.552,33Zm0,5.813a.689.689,0,0,1,.689-.689h8.945a.689.689,0,0,1,0,1.378H27.241a.689.689,0,0,1-.689-.689Zm0,5.813a.689.689,0,0,1,.689-.689h4.571a.689.689,0,0,1,0,1.378H27.241A.689.689,0,0,1,26.552,44.628Z" transform="translate(-18022.543 2480.749)" fill="#fff"/>
  </g>
</svg>
