<svg xmlns="http://www.w3.org/2000/svg" width="72.264" height="72.264" viewBox="0 0 72.264 72.264">
  <g id="Group_4_icons_-_not_selected_4" data-name="Group 4 icons - not selected 4" transform="translate(18295.273 -2862.357)">
    <circle id="Ellipse_225" data-name="Ellipse 225" cx="36.132" cy="36.132" r="36.132" transform="translate(-18223.01 2862.357) rotate(90)" fill="#d0cabe"/>
    <path id="Path_1153" data-name="Path 1153" d="M38.233,33.569h.039a.832.832,0,0,0,.719-.481l1.22-2.621.245-.074a.426.426,0,0,1,.274,0l.245.074,1.22,2.621a.832.832,0,0,0,.719.481h.039a.832.832,0,0,0,.721-.415l.572-.985,1.122.2a.835.835,0,0,0,.9-1.174l-1.176-2.526.213-.091a1.916,1.916,0,0,0,1.156-2l-.107-.9a.427.427,0,0,1,.048-.27l.408-.807a1.916,1.916,0,0,0-.4-2.277l-.659-.619a.426.426,0,0,1-.137-.238l-.206-.88a1.916,1.916,0,0,0-1.771-1.486l-.287-.016V17.132a.728.728,0,0,0-.466-.679l-1.262-.486a9,9,0,0,0-.8-1.931l.549-1.237a.728.728,0,0,0-.15-.81l-1.86-1.86a.728.728,0,0,0-.81-.151l-1.237.55a9.005,9.005,0,0,0-1.93-.8l-.486-1.262A.727.727,0,0,0,34.215,8H31.584a.728.728,0,0,0-.679.466l-.486,1.262a9,9,0,0,0-1.93.8l-1.237-.55a.728.728,0,0,0-.81.151l-1.86,1.86a.727.727,0,0,0-.15.81l.549,1.237a9,9,0,0,0-.8,1.93l-1.262.486a.728.728,0,0,0-.466.679v2.631a.728.728,0,0,0,.466.679l1.262.486a9,9,0,0,0,.8,1.931L24.431,24.1a.727.727,0,0,0,.15.81l1.86,1.86a.728.728,0,0,0,.81.151l1.237-.55a9,9,0,0,0,1.93.8l.486,1.262a.728.728,0,0,0,.679.466h2.631a.728.728,0,0,0,.679-.466l.188-.488a1.93,1.93,0,0,0,.8.632l.213.091L34.917,31.19a.835.835,0,0,0,.9,1.175l1.122-.2.572.985A.832.832,0,0,0,38.233,33.569ZM44,30.648a.727.727,0,0,0-.754.351l-.23.4-.338-.727a1.921,1.921,0,0,0,1.095-.805l.161-.247.517,1.111Zm-.008-9.735.206.88a1.872,1.872,0,0,0,.558.967l.659.619a.46.46,0,0,1,.1.56l-.408.807a1.872,1.872,0,0,0-.194,1.1l.107.9a.46.46,0,0,1-.284.492l-.831.356a1.872,1.872,0,0,0-.855.718l-.5.757a.459.459,0,0,1-.534.194L41.15,29a1.872,1.872,0,0,0-1.116,0l-.866.262a.46.46,0,0,1-.534-.194l-.5-.757a1.873,1.873,0,0,0-.855-.718l-.831-.356a.46.46,0,0,1-.284-.492l.107-.9a1.873,1.873,0,0,0-.194-1.1l-.408-.807a.459.459,0,0,1,.1-.56l.659-.619a1.872,1.872,0,0,0,.558-.967l.024-.1v-.005l.182-.775a.46.46,0,0,1,.435-.365l.9-.05a1.873,1.873,0,0,0,1.049-.382l.724-.542a.46.46,0,0,1,.568,0l.724.542a1.873,1.873,0,0,0,1.049.382l.9.05a.459.459,0,0,1,.435.365Zm-7.34-1.538a1.918,1.918,0,0,0-.868,1.206l-.136.581a3.845,3.845,0,1,1,1-1.787Zm-1.982,6.475a.728.728,0,0,0-.511.446l-.44,1.144H32.084l-.44-1.145a.728.728,0,0,0-.511-.446,7.556,7.556,0,0,1-2.216-.919.728.728,0,0,0-.677-.045l-1.122.5-1.154-1.154.5-1.121a.728.728,0,0,0-.045-.677,7.556,7.556,0,0,1-.919-2.217.728.728,0,0,0-.446-.511l-1.144-.44V17.632l1.144-.44a.728.728,0,0,0,.446-.511,7.557,7.557,0,0,1,.919-2.216.728.728,0,0,0,.045-.677l-.5-1.122,1.154-1.154,1.122.5a.727.727,0,0,0,.677-.045,7.56,7.56,0,0,1,2.216-.919.728.728,0,0,0,.511-.446l.44-1.144h1.632l.441,1.145a.728.728,0,0,0,.511.446,7.554,7.554,0,0,1,2.216.919.728.728,0,0,0,.677.045l1.122-.5,1.154,1.154-.5,1.121a.727.727,0,0,0,.045.677,7.555,7.555,0,0,1,.919,2.217.727.727,0,0,0,.446.511l1.144.44v.884l-.143-.107a1.916,1.916,0,0,0-2.312,0l-.724.542a.426.426,0,0,1-.258.094l-.275.015a5.376,5.376,0,0,0,.035-.612,5.327,5.327,0,1,0-4.045,5.159,1.93,1.93,0,0,0,.206.988l.408.807a.427.427,0,0,1,.048.27l-.016.138c-.05.013-.1.027-.149.039Zm2.523,4.8-.451.079.517-1.111.161.247a1.921,1.921,0,0,0,1.1.8l-.339.727-.23-.4A.727.727,0,0,0,37.189,30.648Zm.014-6.269a3.389,3.389,0,1,0,3.389-3.389A3.393,3.393,0,0,0,37.2,24.379Zm5.323,0a1.934,1.934,0,1,1-1.934-1.934A1.936,1.936,0,0,1,42.527,24.379ZM56.691,39.16a5.564,5.564,0,0,0,1.683-4.178l-.436-15.375a3.037,3.037,0,0,0-3.013-2.717H54.88c-.755.012-3.218.426-3.2,5.243l.032,8.352a3.959,3.959,0,0,1-.111.965,3.03,3.03,0,0,0-.413-.51,2.822,2.822,0,0,0-3.886-.026.714.714,0,0,0-.068.07,36.085,36.085,0,0,1-4.353,4.129c-.465.392-.9.763-1.264,1.087a6.029,6.029,0,0,0-1.662,4.79l.009,6.116-.7-.006h-.016a1.793,1.793,0,0,0-1.79,1.775l-.02,2.327a1.792,1.792,0,0,0,1.775,1.805l12.087.1h.016a1.792,1.792,0,0,0,1.79-1.775l.02-2.327A1.792,1.792,0,0,0,51.351,47.2l-1.4-.012V45.9ZM51.67,49l-.02,2.327a.34.34,0,0,1-.335.332h0l-12.087-.1a.34.34,0,0,1-.332-.338l.02-2.327a.338.338,0,0,1,.335-.332h0l12.087.1A.34.34,0,0,1,51.67,49ZM41.419,47.119l-.009-6.131a4.692,4.692,0,0,1,1.182-3.707c.342-.308.752-.654,1.228-1.055a37.516,37.516,0,0,0,4.491-4.261,1.348,1.348,0,0,1,1.849,0,1.249,1.249,0,0,1,.1,1.707c-.787.9-1.577,1.671-2.4,2.475-.358.347-.728.707-1.11,1.089a.728.728,0,0,0,1.029,1.029c.375-.375.741-.73,1.095-1.074.79-.767,1.546-1.5,2.308-2.359a.725.725,0,0,0,.146-.146q.047-.062.09-.124.233-.27.468-.558a5.382,5.382,0,0,0,1.286-3.528l-.032-8.352c-.009-2.35.652-3.764,1.768-3.782a1.594,1.594,0,0,1,1.58,1.3l.436,15.375a4.088,4.088,0,0,1-1.257,3.107l-6.955,6.955a.728.728,0,0,0-.213.515v1.58ZM39.7,49.8a.723.723,0,1,1,.4.939A.723.723,0,0,1,39.7,49.8Zm-4.883-2.182a1.777,1.777,0,0,0-1.269-.514l-.7.006.009-6.116a6.029,6.029,0,0,0-1.662-4.79c-.36-.324-.8-.695-1.264-1.087a36.08,36.08,0,0,1-4.353-4.129.736.736,0,0,0-.068-.07,2.822,2.822,0,0,0-3.886.026,3.027,3.027,0,0,0-.413.51,3.96,3.96,0,0,1-.111-.965l.032-8.352c.018-4.817-2.445-5.231-3.2-5.243a3.04,3.04,0,0,0-3.057,2.716l-.436,15.375A5.564,5.564,0,0,0,16.12,39.16L22.862,45.9v1.291l-1.4.012a1.792,1.792,0,0,0-1.775,1.806l.02,2.327a1.792,1.792,0,0,0,1.79,1.775h.016l12.087-.1A1.792,1.792,0,0,0,35.373,51.2l-.02-2.327a1.778,1.778,0,0,0-.536-1.26ZM24.317,45.6a.728.728,0,0,0-.213-.515l-6.955-6.955a4.088,4.088,0,0,1-1.257-3.107l.436-15.375a1.592,1.592,0,0,1,1.558-1.3h.021c1.116.018,1.777,1.432,1.768,3.782l-.032,8.352a5.382,5.382,0,0,0,1.286,3.528q.235.289.468.559.043.062.09.124a.728.728,0,0,0,.146.145c.762.857,1.519,1.592,2.309,2.359.354.344.72.7,1.095,1.074a.728.728,0,1,0,1.029-1.029c-.382-.382-.752-.741-1.11-1.089-.828-.8-1.617-1.571-2.4-2.475a1.249,1.249,0,0,1,.1-1.707,1.348,1.348,0,0,1,1.849,0,37.518,37.518,0,0,0,4.491,4.261c.476.4.886.747,1.228,1.055A4.692,4.692,0,0,1,31.4,40.988l-.009,6.131-7.075.061Zm9.268,5.952-12.087.1a.338.338,0,0,1-.338-.332L21.141,49a.339.339,0,0,1,.332-.338l12.087-.1h0a.338.338,0,0,1,.335.332l.02,2.327A.339.339,0,0,1,33.586,51.552ZM33.112,49.8a.723.723,0,1,1-.939-.4A.723.723,0,0,1,33.112,49.8Z" transform="translate(-18295.014 2866.769)" fill="#aba28b" fill-rule="evenodd"/>
  </g>
</svg>
