<svg xmlns="http://www.w3.org/2000/svg" width="84.264" height="84.264" viewBox="0 0 84.264 84.264">
  <g id="Group_6_icons_-_selected_8" data-name="Group 6 icons - selected 8" transform="translate(17943.375 -2478.388)">
    <circle id="Ellipse_370" data-name="Ellipse 370" cx="42.132" cy="42.132" r="42.132" transform="translate(-17859.111 2478.388) rotate(90)" fill="#903"/>
    <g id="Layer_25" transform="translate(-17926.545 2493.443)">
      <g id="Group_558" data-name="Group 558" transform="translate(33.643 3)">
        <path id="Path_1203" data-name="Path 1203" d="M53.755,22.7C48.6,22.7,45,14.24,45,6.648a.731.731,0,0,1,.325-.607L49.7,3.122a.73.73,0,0,1,1.135.607V5.189a.73.73,0,0,1-1.459,0v-.1L46.462,7.037c.12,7.354,3.607,14.2,7.293,14.2s7.173-6.849,7.293-14.2L58.133,5.093v.1a.73.73,0,1,1-1.459,0V3.73a.729.729,0,0,1,1.134-.607l4.378,2.918a.729.729,0,0,1,.325.607C62.51,14.24,58.915,22.7,53.755,22.7Z" transform="translate(-45 -3)" fill="#fff"/>
      </g>
      <g id="Group_559" data-name="Group 559" transform="translate(3 39.48)">
        <path id="Path_1204" data-name="Path 1204" d="M8.837,64.673a5.837,5.837,0,1,1,5.837-5.837A5.844,5.844,0,0,1,8.837,64.673Zm0-10.214a4.378,4.378,0,1,0,4.378,4.378A4.382,4.382,0,0,0,8.837,54.459Z" transform="translate(-3 -53)" fill="#fff"/>
      </g>
      <g id="Group_560" data-name="Group 560" transform="translate(13.214 21.24)">
        <path id="Path_1205" data-name="Path 1205" d="M37.429,52.806H17.73a.73.73,0,0,1,0-1.459h19.7a8.035,8.035,0,0,0,8.026-8.026V28.73a.73.73,0,1,1,1.459,0V43.321A9.5,9.5,0,0,1,37.429,52.806Z" transform="translate(-17 -28)" fill="#fff"/>
      </g>
      <g id="Group_561" data-name="Group 561" transform="translate(3 3)">
        <path id="Path_1206" data-name="Path 1206" d="M3.73,39.48A.729.729,0,0,1,3,38.75V13.944A10.956,10.956,0,0,1,13.944,3H30.725a.73.73,0,0,1,0,1.459H13.944a9.5,9.5,0,0,0-9.485,9.485V38.75A.729.729,0,0,1,3.73,39.48Z" transform="translate(-3 -3)" fill="#fff"/>
      </g>
      <g id="Group_562" data-name="Group 562" transform="translate(5.918 5.918)">
        <path id="Path_1207" data-name="Path 1207" d="M7.73,39.1a.729.729,0,0,1-.73-.73V16.485A9.5,9.5,0,0,1,16.485,7H31.806a.73.73,0,1,1,0,1.459H16.485a8.035,8.035,0,0,0-8.026,8.026V38.373A.729.729,0,0,1,7.73,39.1Z" transform="translate(-7 -7)" fill="#fff"/>
      </g>
      <g id="Group_563" data-name="Group 563" transform="translate(11.755 13.944)">
        <path id="Path_1208" data-name="Path 1208" d="M20.107,23.837H15.73a.729.729,0,0,1-.73-.73V18.73a.729.729,0,0,1,.73-.73h4.378a.729.729,0,0,1,.73.73v4.378A.729.729,0,0,1,20.107,23.837Zm-3.648-1.459h2.918V19.459H16.459Z" transform="translate(-15 -18)" fill="#fff"/>
      </g>
      <g id="Group_564" data-name="Group 564" transform="translate(11.755 22.699)">
        <path id="Path_1209" data-name="Path 1209" d="M20.107,35.837H15.73a.729.729,0,0,1-.73-.73V30.73a.729.729,0,0,1,.73-.73h4.378a.729.729,0,0,1,.73.73v4.378A.729.729,0,0,1,20.107,35.837Zm-3.648-1.459h2.918V31.459H16.459Z" transform="translate(-15 -30)" fill="#fff"/>
      </g>
      <g id="Group_565" data-name="Group 565" transform="translate(11.755 31.454)">
        <path id="Path_1210" data-name="Path 1210" d="M20.107,47.837H15.73a.729.729,0,0,1-.73-.73V42.73a.729.729,0,0,1,.73-.73h4.378a.729.729,0,0,1,.73.73v4.378A.729.729,0,0,1,20.107,47.837Zm-3.648-1.459h2.918V43.459H16.459Z" transform="translate(-15 -42)" fill="#fff"/>
      </g>
      <g id="Group_566" data-name="Group 566" transform="translate(19.051 14.673)">
        <path id="Path_1211" data-name="Path 1211" d="M35.944,20.459H25.73a.73.73,0,0,1,0-1.459H35.944a.73.73,0,1,1,0,1.459Z" transform="translate(-25 -19)" fill="#fff"/>
      </g>
      <g id="Group_567" data-name="Group 567" transform="translate(19.051 17.592)">
        <path id="Path_1212" data-name="Path 1212" d="M39.592,24.459H25.73a.73.73,0,0,1,0-1.459H39.592a.73.73,0,1,1,0,1.459Z" transform="translate(-25 -23)" fill="#fff"/>
      </g>
      <g id="Group_568" data-name="Group 568" transform="translate(19.051 23.429)">
        <path id="Path_1213" data-name="Path 1213" d="M40.321,32.459H25.73a.73.73,0,1,1,0-1.459H40.321a.73.73,0,1,1,0,1.459Z" transform="translate(-25 -31)" fill="#fff"/>
      </g>
      <g id="Group_569" data-name="Group 569" transform="translate(19.051 26.347)">
        <path id="Path_1214" data-name="Path 1214" d="M42.51,36.459H25.73a.73.73,0,0,1,0-1.459H42.51a.73.73,0,1,1,0,1.459Z" transform="translate(-25 -35)" fill="#fff"/>
      </g>
      <g id="Group_570" data-name="Group 570" transform="translate(19.051 32.184)">
        <path id="Path_1215" data-name="Path 1215" d="M42.51,44.459H25.73a.73.73,0,1,1,0-1.459H42.51a.73.73,0,1,1,0,1.459Z" transform="translate(-25 -43)" fill="#fff"/>
      </g>
      <g id="Group_571" data-name="Group 571" transform="translate(19.051 35.102)">
        <path id="Path_1216" data-name="Path 1216" d="M42.51,48.459H25.73a.73.73,0,0,1,0-1.459H42.51a.73.73,0,1,1,0,1.459Z" transform="translate(-25 -47)" fill="#fff"/>
      </g>
      <g id="Group_572" data-name="Group 572" transform="translate(15.403 23.429)">
        <path id="Path_1217" data-name="Path 1217" d="M39.7,56.536H20.73a.73.73,0,1,1,0-1.459H39.7a9.5,9.5,0,0,0,9.485-9.485V31.73a.73.73,0,0,1,1.459,0V45.592A10.956,10.956,0,0,1,39.7,56.536Z" transform="translate(-20 -31)" fill="#fff"/>
      </g>
      <g id="Group_573" data-name="Group 573" transform="translate(6.648 43.128)">
        <path id="Path_1218" data-name="Path 1218" d="M10.189,62.378a2.189,2.189,0,1,1,2.189-2.189A2.191,2.191,0,0,1,10.189,62.378Zm0-2.918a.73.73,0,1,0,.73.73A.73.73,0,0,0,10.189,59.459Z" transform="translate(-8 -58)" fill="#fff"/>
      </g>
    </g>
  </g>
</svg>
