<svg xmlns="http://www.w3.org/2000/svg" width="72.264" height="72.264" viewBox="0 0 72.264 72.264">
  <g id="Group_2_icons_-_not_selected_1" data-name="Group 2 icons - not selected 1" transform="translate(18742.676 -3423.147)">
    <g id="Group_936" data-name="Group 936">
      <circle id="Ellipse_256" data-name="Ellipse 256" cx="36.132" cy="36.132" r="36.132" transform="translate(-18670.412 3423.147) rotate(90)" fill="#d0cabe"/>
      <g id="Group_593" data-name="Group 593" transform="translate(-18728.584 3436.188)">
        <path id="Path_1072" data-name="Path 1072" d="M7.73,40.563l28.357.024a2.706,2.706,0,0,0,2.382-1.381,2.638,2.638,0,0,0-.034-2.691L31.021,24.107c.106-.112.212-.212.317-.333l2.379.682a1.164,1.164,0,0,0,1.314-.492c.135-.2.589-.984.692-1.184a1.172,1.172,0,0,0-.225-1.41l-1.772-1.7A12.521,12.521,0,0,0,34.174,18l2.414-.595a1.186,1.186,0,0,0,.881-1.079c.007-.121.008-.442.008-.769s0-.649-.007-.753a1.2,1.2,0,0,0-.906-1.1l-2.391-.589a12.507,12.507,0,0,0-.448-1.671l1.774-1.7a1.168,1.168,0,0,0,.235-1.4c-.113-.217-.565-1-.68-1.166a1.177,1.177,0,0,0-1.339-.525l-2.376.682A11.689,11.689,0,0,0,30.11,6.114l.681-2.368a1.183,1.183,0,0,0-.511-1.329c-.2-.12-.965-.566-1.167-.67A1.178,1.178,0,0,0,27.7,1.97L25.983,3.736A12.023,12.023,0,0,0,24.3,3.288L23.7.88A1.189,1.189,0,0,0,22.6.006C22.375,0,21.467,0,21.234.006a1.2,1.2,0,0,0-1.1.9l-.595,2.385a12.01,12.01,0,0,0-1.681.448L16.145,1.972a1.175,1.175,0,0,0-1.4-.233c-.218.112-.984.558-1.2.687a1.18,1.18,0,0,0-.5,1.324l.68,2.361A11.707,11.707,0,0,0,12.5,7.335l-2.377-.683a1.161,1.161,0,0,0-1.314.491c-.143.214-.6,1-.693,1.186a1.172,1.172,0,0,0,.225,1.412l1.772,1.7a12.528,12.528,0,0,0-.448,1.667l-2.413.6a1.182,1.182,0,0,0-.884,1.079c-.007.121-.007.442-.007.77s0,.648.006.75a1.2,1.2,0,0,0,.907,1.1l2.391.586a12.571,12.571,0,0,0,.448,1.671l-1.771,1.7a1.165,1.165,0,0,0-.233,1.395c.114.221.567,1,.68,1.168a1.174,1.174,0,0,0,1.338.524l2.376-.68c.1.12.2.232.307.338L5.388,36.486a2.638,2.638,0,0,0-.041,2.692A2.7,2.7,0,0,0,7.73,40.563ZM13.451,22.8a1.206,1.206,0,0,0-1.218-.356l-2.354.676c-.127-.208-.371-.626-.5-.864l1.77-1.7a1.2,1.2,0,0,0,.28-1.247,11.107,11.107,0,0,1-.447-1.655,1.205,1.205,0,0,0-.883-.947l-2.378-.586V14.984l2.4-.591a1.2,1.2,0,0,0,.862-.931,11.115,11.115,0,0,1,.446-1.664,1.2,1.2,0,0,0-.291-1.255L9.374,8.851c.123-.222.361-.631.5-.863l2.361.676a1.218,1.218,0,0,0,1.228-.375,10.546,10.546,0,0,1,1.24-1.23,1.2,1.2,0,0,0,.357-1.218L14.387,3.5c.228-.135.634-.37.869-.5l1.708,1.759a1.21,1.21,0,0,0,1.243.288A10.836,10.836,0,0,1,19.9,4.594a1.218,1.218,0,0,0,.929-.873l.588-2.368h1.009l.6,2.386a1.218,1.218,0,0,0,.938.86,10.713,10.713,0,0,1,1.691.451,1.206,1.206,0,0,0,1.235-.3L28.586,3c.227.126.647.37.869.5l-.676,2.347a1.2,1.2,0,0,0,.378,1.231A10.516,10.516,0,0,1,30.39,8.305a1.21,1.21,0,0,0,1.222.358l2.354-.676c.129.208.371.626.5.863l-1.771,1.7a1.2,1.2,0,0,0-.28,1.247,11.047,11.047,0,0,1,.444,1.653,1.207,1.207,0,0,0,.883.947l2.379.586v1.139l-2.4.591a1.2,1.2,0,0,0-.863.932,11.013,11.013,0,0,1-.446,1.664,1.207,1.207,0,0,0,.291,1.256l1.759,1.691c-.122.221-.361.63-.5.864L31.6,22.446a1.207,1.207,0,0,0-1.23.377c-.025.03-.049.054-.073.083l-1.293-2.165a8.794,8.794,0,1,0-14.184.016L13.538,22.9c-.03-.037-.057-.064-.087-.1Zm2.14-3.324a7.441,7.441,0,1,1,12.649-.02l-3.963-6.634a2.741,2.741,0,0,0-4.69,0ZM6.547,37.184l14.2-23.671a1.389,1.389,0,0,1,2.368.006L37.276,37.211a1.3,1.3,0,0,1,.018,1.329,1.365,1.365,0,0,1-1.2.695L7.731,39.21a1.366,1.366,0,0,1-1.2-.7,1.3,1.3,0,0,1,.021-1.33Z" fill="#aba28b"/>
        <path id="Path_1073" data-name="Path 1073" d="M29.029,40.176a2.029,2.029,0,0,0,2.029-2.029V30.029a2.029,2.029,0,0,0-4.059,0v8.117A2.029,2.029,0,0,0,29.029,40.176Zm-.676-10.147a.676.676,0,1,1,1.353,0v8.117a.676.676,0,1,1-1.353,0Z" transform="translate(-7.119 -9.059)" fill="#aba28b"/>
        <path id="Path_1074" data-name="Path 1074" d="M29.029,52.059A2.029,2.029,0,1,0,27,50.029,2.029,2.029,0,0,0,29.029,52.059Zm0-2.706a.676.676,0,1,1-.676.676A.676.676,0,0,1,29.029,49.353Z" transform="translate(-7.119 -15.53)" fill="#aba28b"/>
      </g>
    </g>
  </g>
</svg>
