<svg xmlns="http://www.w3.org/2000/svg" xmlns:xlink="http://www.w3.org/1999/xlink" width="230.959" height="197.936" viewBox="0 0 230.959 197.936">
  <defs>
    <clipPath id="clip-path">
      <path id="Path_1006" data-name="Path 1006" d="M-13.451-.69,94.872.1V24.186H1.976Z" transform="translate(13.451 0.69)" fill="#fff" stroke="#707070" stroke-width="1"/>
    </clipPath>
    <clipPath id="clip-path-2">
      <rect id="Rectangle_315" data-name="Rectangle 315" width="33.259" height="43.581" fill="#fff" stroke="#707070" stroke-width="1"/>
    </clipPath>
    <clipPath id="clip-path-3">
      <path id="Path_1009" data-name="Path 1009" d="M-15522.916,2536.2l6.59-2.824,3.137-11.3-9.727-19.456-10.355-5.962s-19.455-5.335-20.4-5.335-24.162-.942-25.418,0-11.609,9.728-11.609,9.728-11.611,0-14.121,1.569-5.648,10.983-5.648,10.983l-1.568,8.473-29.184-7.218-47.385,26.045-10.67,56.8,22.281,45.815s45.5,19.142,46.441,18.828,49.268-10.355,49.268-10.355l-9.414-7.218-3.453-36.715,9.1-20.4,10.041-3.138h41.736l5.961,3.138v25.1l-2.2,39.225,61.191,8.159-16.633-88.178-91.631,3.138-8.471-3.138-1.883-14.121-7.219-4.707-3.137-4.393s-.629-5.962,3.137-7.845,7.219-7.531,7.219-7.531l10.354,5.335v-15.376l1.57-3.138,7.938-1.569,8.381-3.766,9.969,8.473v7.531l11.369,5.334Z" transform="translate(15699.273 -2490.91)" fill="none" stroke="#707070" stroke-width="1"/>
    </clipPath>
  </defs>
  <g id="Group_1_icon" data-name="Group 1 icon" transform="translate(16288.273 -2449.579)">
    <path id="Path_1004" data-name="Path 1004" d="M173.1,23.421a5.855,5.855,0,0,0,5.849-5.849V6.349A5.856,5.856,0,0,0,173.1.5H53.071a5.85,5.85,0,0,0-5.839,5.849V17.572a5.85,5.85,0,0,0,5.839,5.849h2.322V52.339a2.786,2.786,0,1,0,5.572,0V23.421H165.216V80.408H81.366a2.786,2.786,0,0,0,0,5.572H173.1a.28.28,0,0,1,.277.277V97.48a.279.279,0,0,1-.277.267H93.746a2.786,2.786,0,0,0,0,5.572H173.1a5.85,5.85,0,0,0,5.849-5.839V86.257a5.856,5.856,0,0,0-5.849-5.849h-2.312V23.421ZM58.179,17.849H53.071a.286.286,0,0,1-.267-.277V6.349a.286.286,0,0,1,.267-.277H173.1a.288.288,0,0,1,.277.277V17.572a.288.288,0,0,1-.277.277H58.179Zm4.772,95.063a6.407,6.407,0,0,1,5.145,2.419l5.978,7.222a2.787,2.787,0,0,0,3.274.772,18.962,18.962,0,0,0,10.606-14.087A18.018,18.018,0,0,0,83.44,93.1c-.032-.032-.065-.064-.1-.094L71.819,82.523l8.725-10.248a2.786,2.786,0,0,0-.569-4.119C69.89,61.387,59.747,57.7,49.829,57.207a44.451,44.451,0,0,0-24.7,5.959,52.449,52.449,0,0,0-18.5,18.286C2.392,88.5.178,96.109.542,102.343l.414,20.876A21.838,21.838,0,0,0,6.4,137.553l6.584,7.711a10.214,10.214,0,0,1,2.584,6.3H8.464a2.786,2.786,0,0,0-2.786,2.786v21.814a2.786,2.786,0,0,0,2.786,2.786H78.146a2.786,2.786,0,0,0,2.786-2.786V154.348a2.786,2.786,0,0,0-2.786-2.786H71.112v-2.7a2.787,2.787,0,0,0-.194-1.022A43.452,43.452,0,0,0,54.4,126.969V112.912ZM75.36,173.377H11.25V157.134H75.36ZM65.539,149.4v2.161H21.153a15.936,15.936,0,0,0-3.931-9.92l-6.583-7.71a16.269,16.269,0,0,1-4.112-10.819l-.415-20.935c0-.038,0-.076,0-.115C5.494,92.039,13.652,76.165,27.9,68c9.879-5.661,25.8-9.535,46.337,3.088l-8.407,9.874a2.786,2.786,0,0,0,.246,3.867L79.537,97.081a12.484,12.484,0,0,1,2.939,11.128,14.134,14.134,0,0,1-5.586,9.007l-4.5-5.44a11.9,11.9,0,0,0-9.437-4.437H43.112a1.424,1.424,0,0,1-1.423-1.423V98.379a2.786,2.786,0,0,0-5.572,0v7.538a7,7,0,0,0,6.995,6.995h5.72v11.16c-6.657-2.889-12.82-4.11-18.364-3.621a2.786,2.786,0,0,0,.49,5.551c5.559-.49,12.042,1.159,19.271,4.9A37.432,37.432,0,0,1,65.539,149.4Zm46.776-1.083h-20.5a2.786,2.786,0,0,0-2.786,2.786v25.441a2.786,2.786,0,0,0,2.786,2.786h20.5a2.786,2.786,0,0,0,2.786-2.786V151.1A2.786,2.786,0,0,0,112.316,148.318Zm-2.786,25.441H94.6V153.891H109.53ZM143.714,128.8h-20.5a2.786,2.786,0,0,0-2.786,2.786v44.746a2.786,2.786,0,0,0,2.786,2.786h20.5a2.786,2.786,0,0,0,2.786-2.786V131.59A2.786,2.786,0,0,0,143.714,128.8Zm-2.786,44.746H126V134.376h14.928ZM176.163,113.4H155.673a2.786,2.786,0,0,0-2.786,2.786v59.98a2.786,2.786,0,0,0,2.786,2.786h20.491a2.786,2.786,0,0,0,2.786-2.786v-59.98A2.786,2.786,0,0,0,176.163,113.4Zm-2.786,59.98H158.459V118.969h14.918ZM126.992,30.149H116.638a8.759,8.759,0,0,0-8.744,8.753v5.039a3.18,3.18,0,0,1-3.171,3.181H83.018a8.1,8.1,0,1,0,0,5.572h21.706a8.759,8.759,0,0,0,8.744-8.753V38.9a3.18,3.18,0,0,1,3.172-3.181h10.354a3.18,3.18,0,0,1,3.171,3.181V53.8a8.759,8.759,0,0,0,8.753,8.744h8.445l-3.629,3.633a2.786,2.786,0,0,0,3.943,3.938l8.378-8.388a2.786,2.786,0,0,0,0-3.939l-8.378-8.378a2.786,2.786,0,0,0-3.94,3.94l3.622,3.622h-8.439a3.18,3.18,0,0,1-3.181-3.171V38.9a8.759,8.759,0,0,0-8.744-8.754ZM75.4,52.438a2.534,2.534,0,1,1,2.539-2.529A2.532,2.532,0,0,1,75.4,52.438Zm42.862,9.667-2.581,2.579,2.581,2.579a2.786,2.786,0,1,1-3.938,3.942l-2.586-2.583L109.152,71.2a2.786,2.786,0,0,1-3.938-3.942l2.581-2.579-2.581-2.579a2.786,2.786,0,0,1,3.938-3.942l2.586,2.583,2.586-2.583a2.786,2.786,0,1,1,3.937,3.942Z" transform="translate(-16263.916 2449.079)" fill="#aba28b"/>
    <g id="Mask_Group_83" data-name="Mask Group 83" transform="translate(-16189.847 2528.404)" clip-path="url(#clip-path)">
      <path id="Path_1005" data-name="Path 1005" d="M173.1,23.421a5.855,5.855,0,0,0,5.849-5.849V6.349A5.856,5.856,0,0,0,173.1.5H53.071a5.85,5.85,0,0,0-5.839,5.849V17.572a5.85,5.85,0,0,0,5.839,5.849h2.322V52.339a2.786,2.786,0,1,0,5.572,0V23.421H165.216V80.408H81.366a2.786,2.786,0,0,0,0,5.572H173.1a.28.28,0,0,1,.277.277V97.48a.279.279,0,0,1-.277.267H93.746a2.786,2.786,0,0,0,0,5.572H173.1a5.85,5.85,0,0,0,5.849-5.839V86.257a5.856,5.856,0,0,0-5.849-5.849h-2.312V23.421ZM58.179,17.849H53.071a.286.286,0,0,1-.267-.277V6.349a.286.286,0,0,1,.267-.277H173.1a.288.288,0,0,1,.277.277V17.572a.288.288,0,0,1-.277.277H58.179Zm4.772,95.063a6.407,6.407,0,0,1,5.145,2.419l5.978,7.222a2.787,2.787,0,0,0,3.274.772,18.962,18.962,0,0,0,10.606-14.087A18.018,18.018,0,0,0,83.44,93.1c-.032-.032-.065-.064-.1-.094L71.819,82.523l8.725-10.248a2.786,2.786,0,0,0-.569-4.119C69.89,61.387,59.747,57.7,49.829,57.207a44.451,44.451,0,0,0-24.7,5.959,52.449,52.449,0,0,0-18.5,18.286C2.392,88.5.178,96.109.542,102.343l.414,20.876A21.838,21.838,0,0,0,6.4,137.553l6.584,7.711a10.214,10.214,0,0,1,2.584,6.3H8.464a2.786,2.786,0,0,0-2.786,2.786v21.814a2.786,2.786,0,0,0,2.786,2.786H78.146a2.786,2.786,0,0,0,2.786-2.786V154.348a2.786,2.786,0,0,0-2.786-2.786H71.112v-2.7a2.787,2.787,0,0,0-.194-1.022A43.452,43.452,0,0,0,54.4,126.969V112.912ZM75.36,173.377H11.25V157.134H75.36ZM65.539,149.4v2.161H21.153a15.936,15.936,0,0,0-3.931-9.92l-6.583-7.71a16.269,16.269,0,0,1-4.112-10.819l-.415-20.935c0-.038,0-.076,0-.115C5.494,92.039,13.652,76.165,27.9,68c9.879-5.661,25.8-9.535,46.337,3.088l-8.407,9.874a2.786,2.786,0,0,0,.246,3.867L79.537,97.081a12.484,12.484,0,0,1,2.939,11.128,14.134,14.134,0,0,1-5.586,9.007l-4.5-5.44a11.9,11.9,0,0,0-9.437-4.437H43.112a1.424,1.424,0,0,1-1.423-1.423V98.379a2.786,2.786,0,0,0-5.572,0v7.538a7,7,0,0,0,6.995,6.995h5.72v11.16c-6.657-2.889-12.82-4.11-18.364-3.621a2.786,2.786,0,0,0,.49,5.551c5.559-.49,12.042,1.159,19.271,4.9A37.432,37.432,0,0,1,65.539,149.4Zm46.776-1.083h-20.5a2.786,2.786,0,0,0-2.786,2.786v25.441a2.786,2.786,0,0,0,2.786,2.786h20.5a2.786,2.786,0,0,0,2.786-2.786V151.1A2.786,2.786,0,0,0,112.316,148.318Zm-2.786,25.441H94.6V153.891H109.53ZM143.714,128.8h-20.5a2.786,2.786,0,0,0-2.786,2.786v44.746a2.786,2.786,0,0,0,2.786,2.786h20.5a2.786,2.786,0,0,0,2.786-2.786V131.59A2.786,2.786,0,0,0,143.714,128.8Zm-2.786,44.746H126V134.376h14.928ZM176.163,113.4H155.673a2.786,2.786,0,0,0-2.786,2.786v59.98a2.786,2.786,0,0,0,2.786,2.786h20.491a2.786,2.786,0,0,0,2.786-2.786v-59.98A2.786,2.786,0,0,0,176.163,113.4Zm-2.786,59.98H158.459V118.969h14.918ZM126.992,30.149H116.638a8.759,8.759,0,0,0-8.744,8.753v5.039a3.18,3.18,0,0,1-3.171,3.181H83.018a8.1,8.1,0,1,0,0,5.572h21.706a8.759,8.759,0,0,0,8.744-8.753V38.9a3.18,3.18,0,0,1,3.172-3.181h10.354a3.18,3.18,0,0,1,3.171,3.181V53.8a8.759,8.759,0,0,0,8.753,8.744h8.445l-3.629,3.633a2.786,2.786,0,0,0,3.943,3.938l8.378-8.388a2.786,2.786,0,0,0,0-3.939l-8.378-8.378a2.786,2.786,0,0,0-3.94,3.94l3.622,3.622h-8.439a3.18,3.18,0,0,1-3.181-3.171V38.9a8.759,8.759,0,0,0-8.744-8.754ZM75.4,52.438a2.534,2.534,0,1,1,2.539-2.529A2.532,2.532,0,0,1,75.4,52.438Zm42.862,9.667-2.581,2.579,2.581,2.579a2.786,2.786,0,1,1-3.938,3.942l-2.586-2.583L109.152,71.2a2.786,2.786,0,0,1-3.938-3.942l2.581-2.579-2.581-2.579a2.786,2.786,0,0,1,3.938-3.942l2.586,2.583,2.586-2.583a2.786,2.786,0,1,1,3.937,3.942Z" transform="translate(-74.069 -79.325)" fill="#d0cabe"/>
    </g>
    <g id="Mask_Group_84" data-name="Mask Group 84" transform="translate(-16180.154 2591.126)" clip-path="url(#clip-path-2)">
      <path id="Path_1007" data-name="Path 1007" d="M173.1,23.421a5.855,5.855,0,0,0,5.849-5.849V6.349A5.856,5.856,0,0,0,173.1.5H53.071a5.85,5.85,0,0,0-5.839,5.849V17.572a5.85,5.85,0,0,0,5.839,5.849h2.322V52.339a2.786,2.786,0,1,0,5.572,0V23.421H165.216V80.408H81.366a2.786,2.786,0,0,0,0,5.572H173.1a.28.28,0,0,1,.277.277V97.48a.279.279,0,0,1-.277.267H93.746a2.786,2.786,0,0,0,0,5.572H173.1a5.85,5.85,0,0,0,5.849-5.839V86.257a5.856,5.856,0,0,0-5.849-5.849h-2.312V23.421ZM58.179,17.849H53.071a.286.286,0,0,1-.267-.277V6.349a.286.286,0,0,1,.267-.277H173.1a.288.288,0,0,1,.277.277V17.572a.288.288,0,0,1-.277.277H58.179Zm4.772,95.063a6.407,6.407,0,0,1,5.145,2.419l5.978,7.222a2.787,2.787,0,0,0,3.274.772,18.962,18.962,0,0,0,10.606-14.087A18.018,18.018,0,0,0,83.44,93.1c-.032-.032-.065-.064-.1-.094L71.819,82.523l8.725-10.248a2.786,2.786,0,0,0-.569-4.119C69.89,61.387,59.747,57.7,49.829,57.207a44.451,44.451,0,0,0-24.7,5.959,52.449,52.449,0,0,0-18.5,18.286C2.392,88.5.178,96.109.542,102.343l.414,20.876A21.838,21.838,0,0,0,6.4,137.553l6.584,7.711a10.214,10.214,0,0,1,2.584,6.3H8.464a2.786,2.786,0,0,0-2.786,2.786v21.814a2.786,2.786,0,0,0,2.786,2.786H78.146a2.786,2.786,0,0,0,2.786-2.786V154.348a2.786,2.786,0,0,0-2.786-2.786H71.112v-2.7a2.787,2.787,0,0,0-.194-1.022A43.452,43.452,0,0,0,54.4,126.969V112.912ZM75.36,173.377H11.25V157.134H75.36ZM65.539,149.4v2.161H21.153a15.936,15.936,0,0,0-3.931-9.92l-6.583-7.71a16.269,16.269,0,0,1-4.112-10.819l-.415-20.935c0-.038,0-.076,0-.115C5.494,92.039,13.652,76.165,27.9,68c9.879-5.661,25.8-9.535,46.337,3.088l-8.407,9.874a2.786,2.786,0,0,0,.246,3.867L79.537,97.081a12.484,12.484,0,0,1,2.939,11.128,14.134,14.134,0,0,1-5.586,9.007l-4.5-5.44a11.9,11.9,0,0,0-9.437-4.437H43.112a1.424,1.424,0,0,1-1.423-1.423V98.379a2.786,2.786,0,0,0-5.572,0v7.538a7,7,0,0,0,6.995,6.995h5.72v11.16c-6.657-2.889-12.82-4.11-18.364-3.621a2.786,2.786,0,0,0,.49,5.551c5.559-.49,12.042,1.159,19.271,4.9A37.432,37.432,0,0,1,65.539,149.4Zm46.776-1.083h-20.5a2.786,2.786,0,0,0-2.786,2.786v25.441a2.786,2.786,0,0,0,2.786,2.786h20.5a2.786,2.786,0,0,0,2.786-2.786V151.1A2.786,2.786,0,0,0,112.316,148.318Zm-2.786,25.441H94.6V153.891H109.53ZM143.714,128.8h-20.5a2.786,2.786,0,0,0-2.786,2.786v44.746a2.786,2.786,0,0,0,2.786,2.786h20.5a2.786,2.786,0,0,0,2.786-2.786V131.59A2.786,2.786,0,0,0,143.714,128.8Zm-2.786,44.746H126V134.376h14.928ZM176.163,113.4H155.673a2.786,2.786,0,0,0-2.786,2.786v59.98a2.786,2.786,0,0,0,2.786,2.786h20.491a2.786,2.786,0,0,0,2.786-2.786v-59.98A2.786,2.786,0,0,0,176.163,113.4Zm-2.786,59.98H158.459V118.969h14.918ZM126.992,30.149H116.638a8.759,8.759,0,0,0-8.744,8.753v5.039a3.18,3.18,0,0,1-3.171,3.181H83.018a8.1,8.1,0,1,0,0,5.572h21.706a8.759,8.759,0,0,0,8.744-8.753V38.9a3.18,3.18,0,0,1,3.172-3.181h10.354a3.18,3.18,0,0,1,3.171,3.181V53.8a8.759,8.759,0,0,0,8.753,8.744h8.445l-3.629,3.633a2.786,2.786,0,0,0,3.943,3.938l8.378-8.388a2.786,2.786,0,0,0,0-3.939l-8.378-8.378a2.786,2.786,0,0,0-3.94,3.94l3.622,3.622h-8.439a3.18,3.18,0,0,1-3.181-3.171V38.9a8.759,8.759,0,0,0-8.744-8.754ZM75.4,52.438a2.534,2.534,0,1,1,2.539-2.529A2.532,2.532,0,0,1,75.4,52.438Zm42.862,9.667-2.581,2.579,2.581,2.579a2.786,2.786,0,1,1-3.938,3.942l-2.586-2.583L109.152,71.2a2.786,2.786,0,0,1-3.938-3.942l2.581-2.579-2.581-2.579a2.786,2.786,0,0,1,3.938-3.942l2.586,2.583,2.586-2.583a2.786,2.786,0,1,1,3.937,3.942Z" transform="translate(-83.762 -142.048)" fill="#dddad1"/>
    </g>
    <g id="Mask_Group_85" data-name="Mask Group 85" transform="translate(-16288.273 2476.071)" clip-path="url(#clip-path-3)">
      <path id="Path_1008" data-name="Path 1008" d="M173.1,23.421a5.855,5.855,0,0,0,5.849-5.849V6.349A5.856,5.856,0,0,0,173.1.5H53.071a5.85,5.85,0,0,0-5.839,5.849V17.572a5.85,5.85,0,0,0,5.839,5.849h2.322V52.339a2.786,2.786,0,1,0,5.572,0V23.421H165.216V80.408H81.366a2.786,2.786,0,0,0,0,5.572H173.1a.28.28,0,0,1,.277.277V97.48a.279.279,0,0,1-.277.267H93.746a2.786,2.786,0,0,0,0,5.572H173.1a5.85,5.85,0,0,0,5.849-5.839V86.257a5.856,5.856,0,0,0-5.849-5.849h-2.312V23.421ZM58.179,17.849H53.071a.286.286,0,0,1-.267-.277V6.349a.286.286,0,0,1,.267-.277H173.1a.288.288,0,0,1,.277.277V17.572a.288.288,0,0,1-.277.277H58.179Zm4.772,95.063a6.407,6.407,0,0,1,5.145,2.419l5.978,7.222a2.787,2.787,0,0,0,3.274.772,18.962,18.962,0,0,0,10.606-14.087A18.018,18.018,0,0,0,83.44,93.1c-.032-.032-.065-.064-.1-.094L71.819,82.523l8.725-10.248a2.786,2.786,0,0,0-.569-4.119C69.89,61.387,59.747,57.7,49.829,57.207a44.451,44.451,0,0,0-24.7,5.959,52.449,52.449,0,0,0-18.5,18.286C2.392,88.5.178,96.109.542,102.343l.414,20.876A21.838,21.838,0,0,0,6.4,137.553l6.584,7.711a10.214,10.214,0,0,1,2.584,6.3H8.464a2.786,2.786,0,0,0-2.786,2.786v21.814a2.786,2.786,0,0,0,2.786,2.786H78.146a2.786,2.786,0,0,0,2.786-2.786V154.348a2.786,2.786,0,0,0-2.786-2.786H71.112v-2.7a2.787,2.787,0,0,0-.194-1.022A43.452,43.452,0,0,0,54.4,126.969V112.912ZM75.36,173.377H11.25V157.134H75.36ZM65.539,149.4v2.161H21.153a15.936,15.936,0,0,0-3.931-9.92l-6.583-7.71a16.269,16.269,0,0,1-4.112-10.819l-.415-20.935c0-.038,0-.076,0-.115C5.494,92.039,13.652,76.165,27.9,68c9.879-5.661,25.8-9.535,46.337,3.088l-8.407,9.874a2.786,2.786,0,0,0,.246,3.867L79.537,97.081a12.484,12.484,0,0,1,2.939,11.128,14.134,14.134,0,0,1-5.586,9.007l-4.5-5.44a11.9,11.9,0,0,0-9.437-4.437H43.112a1.424,1.424,0,0,1-1.423-1.423V98.379a2.786,2.786,0,0,0-5.572,0v7.538a7,7,0,0,0,6.995,6.995h5.72v11.16c-6.657-2.889-12.82-4.11-18.364-3.621a2.786,2.786,0,0,0,.49,5.551c5.559-.49,12.042,1.159,19.271,4.9A37.432,37.432,0,0,1,65.539,149.4Zm41.92-1.466h-20.5a2.786,2.786,0,0,0-2.786,2.786v25.441a2.786,2.786,0,0,0,2.786,2.786h20.5a2.786,2.786,0,0,0,2.786-2.786V150.722A2.786,2.786,0,0,0,107.459,147.936Zm-2.786,25.441H89.745V153.508h14.928Zm37.138-44.746h-20.5a2.786,2.786,0,0,0-2.786,2.786v44.746a2.786,2.786,0,0,0,2.786,2.786h20.5a2.786,2.786,0,0,0,2.786-2.786V131.417A2.786,2.786,0,0,0,141.811,128.631Zm-2.786,44.746H124.1V134.2h14.928Zm37.138-59.98H155.673a2.786,2.786,0,0,0-2.786,2.786v59.98a2.786,2.786,0,0,0,2.786,2.786h20.491a2.786,2.786,0,0,0,2.786-2.786v-59.98A2.786,2.786,0,0,0,176.163,113.4Zm-2.786,59.98H158.459V118.969h14.918ZM126.992,30.149H116.638a8.759,8.759,0,0,0-8.744,8.753v5.039a3.18,3.18,0,0,1-3.171,3.181H83.018a8.1,8.1,0,1,0,0,5.572h21.706a8.759,8.759,0,0,0,8.744-8.753V38.9a3.18,3.18,0,0,1,3.172-3.181h10.354a3.18,3.18,0,0,1,3.171,3.181V53.8a8.759,8.759,0,0,0,8.753,8.744h8.445l-3.629,3.633a2.786,2.786,0,0,0,3.943,3.938l8.378-8.388a2.786,2.786,0,0,0,0-3.939l-8.378-8.378a2.786,2.786,0,0,0-3.94,3.94l3.622,3.622h-8.439a3.18,3.18,0,0,1-3.181-3.171V38.9a8.759,8.759,0,0,0-8.744-8.754ZM75.4,52.438a2.534,2.534,0,1,1,2.539-2.529A2.532,2.532,0,0,1,75.4,52.438Zm42.862,9.667-2.581,2.579,2.581,2.579a2.786,2.786,0,1,1-3.938,3.942l-2.586-2.583L109.152,71.2a2.786,2.786,0,0,1-3.938-3.942l2.581-2.579-2.581-2.579a2.786,2.786,0,0,1,3.938-3.942l2.586,2.583,2.586-2.583a2.786,2.786,0,1,1,3.937,3.942Z" transform="translate(24.357 -27.144)" fill="#903"/>
    </g>
  </g>
</svg>
