<svg xmlns="http://www.w3.org/2000/svg" width="72.264" height="72.264" viewBox="0 0 72.264 72.264">
  <g id="Group_2_icons_-_not_selected_7" data-name="Group 2 icons - not selected 7" transform="translate(18171.592 -3423.147)">
    <g id="Group_942" data-name="Group 942">
      <circle id="Ellipse_262" data-name="Ellipse 262" cx="36.132" cy="36.132" r="36.132" transform="translate(-18099.328 3423.147) rotate(90)" fill="#d0cabe"/>
      <g id="Group_510" data-name="Group 510" transform="translate(-18155.225 3436.78)">
        <path id="Path_1094" data-name="Path 1094" d="M33.172,26.937a6.206,6.206,0,0,0-1.87.287V18.833h1.87a3.121,3.121,0,0,0,3.117-3.117V10.363l2.934-2.934a.623.623,0,0,0-.441-1.064H36.289V5.117A3.121,3.121,0,0,0,33.172,2H18.833a3.121,3.121,0,0,0-3.117,3.117V9.481H5.117A3.121,3.121,0,0,0,2,12.6v18.08a3.122,3.122,0,0,0,2.7,3.089L2.079,38.48a.623.623,0,0,0,.836.853L13.377,33.8H26.969a6.234,6.234,0,1,0,6.2-6.858ZM16.962,5.117a1.873,1.873,0,0,1,1.87-1.87H33.172a1.873,1.873,0,0,1,1.87,1.87v1.87a.624.624,0,0,0,.623.623h1.612L35.225,9.664a.622.622,0,0,0-.183.441v5.611a1.873,1.873,0,0,1-1.87,1.87H31.3V12.6a3.121,3.121,0,0,0-3.117-3.117H16.962ZM13.222,32.548a.626.626,0,0,0-.292.072L4.189,37.248l2.1-3.774a.623.623,0,0,0-.545-.926H5.117a1.873,1.873,0,0,1-1.87-1.87V12.6a1.873,1.873,0,0,1,1.87-1.87H28.184a1.873,1.873,0,0,1,1.87,1.87V27.781a6.238,6.238,0,0,0-3.085,4.767Zm19.95,5.611a4.987,4.987,0,1,1,4.987-4.987A4.993,4.993,0,0,1,33.172,38.159Z" fill="#aba28b"/>
        <path id="Path_1095" data-name="Path 1095" d="M29,6H43.339V7.247H29Z" transform="translate(-10.167 -1.506)" fill="#aba28b"/>
        <path id="Path_1096" data-name="Path 1096" d="M29,10H43.339v1.247H29Z" transform="translate(-10.167 -3.013)" fill="#aba28b"/>
        <path id="Path_1097" data-name="Path 1097" d="M8,20H29.82v1.247H8Z" transform="translate(-2.259 -6.778)" fill="#aba28b"/>
        <path id="Path_1098" data-name="Path 1098" d="M8,25h4.987v1.247H8Z" transform="translate(-2.259 -8.661)" fill="#aba28b"/>
        <path id="Path_1099" data-name="Path 1099" d="M18,25H33.586v1.247H18Z" transform="translate(-6.025 -8.661)" fill="#aba28b"/>
        <path id="Path_1100" data-name="Path 1100" d="M8,30h9.975v1.247H8Z" transform="translate(-2.259 -10.544)" fill="#aba28b"/>
        <path id="Path_1101" data-name="Path 1101" d="M26,30H36.6v1.247H26Z" transform="translate(-9.038 -10.544)" fill="#aba28b"/>
        <path id="Path_1102" data-name="Path 1102" d="M8,35h5.611v1.247H8Z" transform="translate(-2.259 -12.427)" fill="#aba28b"/>
        <path id="Path_1103" data-name="Path 1103" d="M19,35h8.1v1.247H19Z" transform="translate(-6.402 -12.427)" fill="#aba28b"/>
        <path id="Path_1104" data-name="Path 1104" d="M35,35h4.987v1.247H35Z" transform="translate(-12.427 -12.427)" fill="#aba28b"/>
        <path id="Path_1105" data-name="Path 1105" d="M8,40h9.351v1.247H8Z" transform="translate(-2.259 -14.31)" fill="#aba28b"/>
        <path id="Path_1106" data-name="Path 1106" d="M25,40H36.222v1.247H25Z" transform="translate(-8.661 -14.31)" fill="#aba28b"/>
        <path id="Path_1107" data-name="Path 1107" d="M8,45h2.494v1.247H8Z" transform="translate(-2.259 -16.192)" fill="#aba28b"/>
        <path id="Path_1108" data-name="Path 1108" d="M26,45H36.6v1.247H26Z" transform="translate(-9.038 -16.192)" fill="#aba28b"/>
        <path id="Path_1109" data-name="Path 1109" d="M22,45h1.247v1.247H22Z" transform="translate(-7.531 -16.192)" fill="#aba28b"/>
        <path id="Path_1110" data-name="Path 1110" d="M18,45h1.247v1.247H18Z" transform="translate(-6.025 -16.192)" fill="#aba28b"/>
        <path id="Path_1111" data-name="Path 1111" d="M14,45h1.247v1.247H14Z" transform="translate(-4.519 -16.192)" fill="#aba28b"/>
        <path id="Path_1112" data-name="Path 1112" d="M48.981,51.593l-.806-.806-.882.882,1.247,1.247a.623.623,0,0,0,.882,0l3.741-3.741-.882-.882Z" transform="translate(-17.056 -17.432)" fill="#aba28b"/>
      </g>
    </g>
  </g>
</svg>
