<svg xmlns="http://www.w3.org/2000/svg" width="90.491" height="90.49" viewBox="0 0 90.491 90.49">
  <g id="Group_1361" data-name="Group 1361" transform="translate(6594 -18062.67)">
    <circle id="Ellipse_413" data-name="Ellipse 413" cx="45.245" cy="45.245" r="45.245" transform="translate(-6503.509 18062.67) rotate(90)" fill="#45596d"/>
    <path id="Path_1734" data-name="Path 1734" d="M31.73,19.7a5.816,5.816,0,1,0,5.818,5.815A5.823,5.823,0,0,0,31.73,19.7Zm0,10.31a4.493,4.493,0,1,1,4.5-4.495A4.5,4.5,0,0,1,31.73,30.013ZM25.3,10.353a.661.661,0,0,0,.207.713l2.944,2.441L27.5,17.216a.661.661,0,0,0,.994.722l3.234-2.047,3.234,2.047a.661.661,0,0,0,.994-.722l-.948-3.709,2.944-2.441a.661.661,0,0,0-.38-1.169l-3.818-.245L32.345,6.1a.661.661,0,0,0-1.229,0L29.7,9.653,25.886,9.9a.661.661,0,0,0-.587.456Zm4.907.593a.661.661,0,0,0,.572-.416l.951-2.4.951,2.4a.661.661,0,0,0,.572.416l2.575.165-1.984,1.645a.661.661,0,0,0-.219.673l.639,2.5L32.084,14.55a.661.661,0,0,0-.707,0L29.2,15.931l.639-2.5a.661.661,0,0,0-.219-.673l-1.984-1.645,2.575-.165Zm7.639,9.393-.83-1.438a.661.661,0,0,1,1.146-.661l.83,1.438a.661.661,0,1,1-1.146.661ZM39.652,15.6a.661.661,0,0,1,.9-.242l1.438.83a.661.661,0,1,1-.661,1.146l-1.438-.83a.661.661,0,0,1-.242-.9ZM37.016,5.77l.83-1.438a.661.661,0,1,1,1.146.661l-.83,1.438a.661.661,0,1,1-1.146-.661Zm4.173,5.9h1.663a.661.661,0,0,1,0,1.323H41.188a.661.661,0,0,1,0-1.323ZM39.652,9.068a.661.661,0,0,1,.241-.9l1.438-.833a.661.661,0,0,1,.663,1.144l-1.438.833a.661.661,0,0,1-.9-.241ZM23.809,15.6a.661.661,0,0,1-.242.9l-1.438.83a.661.661,0,1,1-.661-1.146l1.438-.83A.661.661,0,0,1,23.809,15.6Zm.66,4.074.83-1.438a.661.661,0,0,1,1.146.661l-.83,1.438a.661.661,0,0,1-1.146-.661ZM21.226,7.572a.661.661,0,0,1,.9-.241l1.438.833A.661.661,0,1,1,22.9,9.308l-1.438-.833a.661.661,0,0,1-.241-.9ZM24.47,4.993a.661.661,0,0,1,1.146-.661l.83,1.438a.661.661,0,1,1-1.146.661Zm-4.518,7.343a.661.661,0,0,1,.661-.661h1.66a.661.661,0,0,1,0,1.323h-1.66A.661.661,0,0,1,19.952,12.336ZM48.3,17.848a.661.661,0,0,1,.661-.661h.668v-.671a.661.661,0,1,1,1.323,0v.671h.671a.661.661,0,0,1,0,1.323h-.671v.667a.661.661,0,1,1-1.323,0v-.667h-.668A.661.661,0,0,1,48.3,17.848ZM4,8.106a.661.661,0,0,1,.661-.661h.668V6.777a.661.661,0,1,1,1.323,0v.667h.671a.661.661,0,0,1,0,1.323H6.65v.671a.661.661,0,1,1-1.323,0V8.767H4.66A.661.661,0,0,1,4,8.106Zm51.479,0a.661.661,0,0,1,.661-.661h.671V6.777a.661.661,0,1,1,1.323,0v.667H58.8a.661.661,0,0,1,0,1.323h-.668v.671a.661.661,0,1,1-1.323,0V8.767h-.671A.661.661,0,0,1,55.478,8.106Zm3.983,19.48a.661.661,0,0,1-.661.661h-.668v.671a.661.661,0,1,1-1.323,0v-.671h-.671a.661.661,0,0,1,0-1.323h.671v-.667a.661.661,0,1,1,1.323,0v.667H58.8A.661.661,0,0,1,59.461,27.586ZM4,27.586a.661.661,0,0,1,.661-.661h.668v-.667a.661.661,0,1,1,1.323,0v.667h.671a.661.661,0,0,1,0,1.323H6.65v.671a.661.661,0,1,1-1.323,0v-.671H4.66A.661.661,0,0,1,4,27.586Zm7.178-9.739a.661.661,0,0,1,.661-.661h.671v-.671a.661.661,0,1,1,1.323,0v.671H14.5a.661.661,0,0,1,0,1.323h-.671v.667a.661.661,0,1,1-1.323,0v-.667h-.671A.661.661,0,0,1,11.177,17.847ZM52.983,47.688a5.828,5.828,0,1,0-7.91,0,9.97,9.97,0,0,0-4.689,2.487,10.042,10.042,0,0,0-4.7-2.487,5.815,5.815,0,0,0,1.874-4.277c0-.016,0-.031,0-.047h2.874a.661.661,0,0,0,.661-.658l.028-5.225a1.49,1.49,0,0,1,.652-1.259,17.537,17.537,0,0,0,7.217-11.647,2.87,2.87,0,0,0-2.644-3.288c-1.681-.263-3.634.489-3.944,2.4a10.815,10.815,0,0,1-21.347,0c-.31-1.912-2.264-2.664-3.945-2.4a2.868,2.868,0,0,0-2.64,3.288,17.535,17.535,0,0,0,7.213,11.646,1.486,1.486,0,0,1,.653,1.26V42.7a.661.661,0,0,0,.661.661h2.9c0,.016,0,.031,0,.047a5.815,5.815,0,0,0,1.874,4.277,10.037,10.037,0,0,0-4.695,2.488,9.97,9.97,0,0,0-4.69-2.488,5.83,5.83,0,1,0-7.912,0c-3.925,1-6.366,3.408-6.478,6.52,0,.008,0,.016,0,.024V58.8a.661.661,0,0,0,.661.661H58.8a.661.661,0,0,0,.661-.661v-4.57c0-.008,0-.016,0-.024-.112-3.112-2.552-5.523-6.478-6.52Zm-8.461-4.277a4.506,4.506,0,1,1,4.5,4.508A4.509,4.509,0,0,1,44.523,43.411ZM23.66,42.041v-4.56a2.8,2.8,0,0,0-1.213-2.34A16.206,16.206,0,0,1,15.78,24.377c-.212-1.4,1.123-1.719,1.537-1.784.9-.141,2.251.171,2.435,1.305a12.138,12.138,0,0,0,23.958,0c.184-1.134,1.534-1.446,2.434-1.305.3.046,1.757.349,1.541,1.784a16.209,16.209,0,0,1-6.673,10.764A2.8,2.8,0,0,0,39.8,37.477l-.025,4.564H37.4a5.83,5.83,0,0,0-11.332,0h-2.4Zm3.562,1.369a4.514,4.514,0,0,1,.046-.634v-.008a4.507,4.507,0,0,1,8.922,0v.008a4.507,4.507,0,1,1-8.969.634Zm2.1,5.308a5.809,5.809,0,0,0,4.812,0,9.554,9.554,0,0,1,5.407,2.492,5.819,5.819,0,0,0-.95,3c0,.008,0,.016,0,.024V58.14H24.868V54.232c0-.008,0-.016,0-.024a5.812,5.812,0,0,0-.948-3A9.391,9.391,0,0,1,29.324,48.719Zm-19.4-5.308a4.508,4.508,0,1,1,4.508,4.508A4.511,4.511,0,0,1,9.926,43.411Zm-4.6,10.833c.127-3.3,3.508-5.01,6.7-5.526a5.808,5.808,0,0,0,4.815,0c3.2.516,6.577,2.223,6.7,5.526v3.9H5.322Zm52.817,3.9H39.915v-3.9c.13-3.3,3.511-5.011,6.7-5.526a5.805,5.805,0,0,0,4.815,0c3.2.516,6.577,2.223,6.7,5.526v3.9Z" transform="translate(-6580.484 18074.775)" fill="#fff"/>
  </g>
</svg>
