<svg xmlns="http://www.w3.org/2000/svg" width="84.264" height="84.264" viewBox="0 0 84.264 84.264">
  <g id="Group_1305" data-name="Group 1305" transform="translate(10397.25 -17049.172)">
    <g id="Group_2_icons_-_selected_6" data-name="Group 2 icons - selected 6" transform="translate(7863.16 13531.278)">
      <circle id="Ellipse_404" data-name="Ellipse 404" cx="42.132" cy="42.132" r="42.132" transform="translate(-18176.146 3517.894) rotate(90)" fill="#45596d"/>
      <path id="Path_1732" data-name="Path 1732" d="M19,43.315a7.687,7.687,0,1,0,10.871,0,7.7,7.7,0,0,0-10.871,0Zm9.63,9.63a5.932,5.932,0,1,1,0-8.389,5.939,5.939,0,0,1,0,8.389Zm15.063-8.317a2.412,2.412,0,0,0-4.178,0l-.444.769c-.045-.012-.088-.026-.134-.036l-2.3-.523a12.749,12.749,0,0,0-.806-1.947l1.257-2a2.215,2.215,0,0,0-.122-2.857l-1.815-1.815a2.214,2.214,0,0,0-2.857-.122l-2,1.256a12.754,12.754,0,0,0-1.948-.806l-.523-2.3a2.215,2.215,0,0,0-2.106-1.934H23.152a2.214,2.214,0,0,0-2.106,1.934l-.523,2.3a12.751,12.751,0,0,0-1.948.806l-2-1.256a2.214,2.214,0,0,0-2.857.122l-1.815,1.815a2.214,2.214,0,0,0-.122,2.857l1.257,2a12.76,12.76,0,0,0-.806,1.947l-2.3.523A2.214,2.214,0,0,0,8,47.467v2.567A2.214,2.214,0,0,0,9.934,52.14l2.3.523a12.756,12.756,0,0,0,.806,1.948l-1.257,2a2.215,2.215,0,0,0,.122,2.857l1.815,1.815a2.214,2.214,0,0,0,2.857.122l2-1.257a12.755,12.755,0,0,0,1.948.806l.523,2.3a2.214,2.214,0,0,0,2.106,1.934h2.567a2.215,2.215,0,0,0,2.106-1.934l.523-2.3a12.75,12.75,0,0,0,1.948-.806l.19.12-.768,1.33a2.412,2.412,0,0,0,2.089,3.618H51.4a2.412,2.412,0,0,0,2.089-3.618l-9.8-16.967ZM30.8,58.387a.878.878,0,0,0-.9-.02,11,11,0,0,1-2.522,1.044.878.878,0,0,0-.623.651l-.637,2.8c-.013.058-.137.568-.4.568H23.152c-.259,0-.382-.51-.4-.568l-.637-2.8a.877.877,0,0,0-.623-.651,11.006,11.006,0,0,1-2.522-1.043.877.877,0,0,0-.9.02l-2.43,1.53c-.05.032-.5.305-.681.122l-1.815-1.815c-.183-.183.09-.631.122-.681l1.53-2.43a.878.878,0,0,0,.02-.9,11.006,11.006,0,0,1-1.043-2.522.878.878,0,0,0-.651-.623l-2.8-.637c-.058-.013-.568-.137-.568-.4V47.467c0-.259.51-.382.568-.4l2.8-.637a.877.877,0,0,0,.651-.623,11,11,0,0,1,1.043-2.522.878.878,0,0,0-.02-.9l-1.53-2.43c-.032-.05-.305-.5-.122-.681l1.815-1.815c.183-.183.631.09.681.122l2.43,1.53a.877.877,0,0,0,.9.02A11,11,0,0,1,21.5,38.091a.877.877,0,0,0,.623-.651l.637-2.8c.013-.058.137-.568.4-.568h2.567c.259,0,.382.51.4.568l.637,2.8a.877.877,0,0,0,.623.651A11,11,0,0,1,29.9,39.134a.877.877,0,0,0,.9-.02l2.43-1.529c.051-.032.5-.305.681-.122l1.815,1.815c.183.183-.09.631-.122.681l-1.53,2.43a.878.878,0,0,0-.02.9,11.009,11.009,0,0,1,1.043,2.522.877.877,0,0,0,.651.623l2.409.548-6.79,11.761-.567-.357Zm21.171,4.742a.619.619,0,0,1-.569.329H31.808a.619.619,0,0,1-.569-.329.627.627,0,0,1,0-.657l9.8-16.966a.657.657,0,0,1,1.139,0l9.8,16.967a.626.626,0,0,1,0,.657Zm-9.488-2.351v.111a.877.877,0,1,1-1.755,0v-.111a.877.877,0,1,1,1.755,0Zm0-10.329v7.1a.877.877,0,0,1-1.755,0v-7.1a.877.877,0,1,1,1.755,0ZM62.4,30.5A20.89,20.89,0,0,0,41.6,11.6h0A20.89,20.89,0,0,0,20.81,30.5a.877.877,0,0,0,1.739.226,5.795,5.795,0,0,1,11.12-1.13q.143.625.335,1.247l.005.015c.006.017.012.034.019.05l.012.029c.007.016.015.031.023.047l.015.029c.008.015.018.029.027.044l.017.027c.015.021.031.042.047.062l.024.027.031.033.026.024.034.03.027.021.039.029.026.017.045.027.024.013.05.023.023.01.054.019.024.008.055.014.026.006.053.008.03,0,.049,0,.036,0h.179a.878.878,0,0,0,.866-.734,5.764,5.764,0,0,1,4.836-4.769V38.149a.877.877,0,0,0,1.755,0V25.958a5.764,5.764,0,0,1,4.836,4.769.877.877,0,0,0,.866.734h.189a.88.88,0,0,0,.118-.009l.021,0a.864.864,0,0,0,.116-.028l.019-.006a.86.86,0,0,0,.111-.046l.015-.008a.888.888,0,0,0,.1-.064l.01-.008a.864.864,0,0,0,.092-.078l.008-.007a.886.886,0,0,0,.08-.093l.012-.016a.874.874,0,0,0,.064-.1l.009-.018a.871.871,0,0,0,.047-.117l0-.009q.193-.621.335-1.247a5.795,5.795,0,0,1,11.12,1.13.877.877,0,0,0,.865.734.9.9,0,0,0,.114-.007.878.878,0,0,0,.76-.953ZM28.263,24.137a7.54,7.54,0,0,0-4.546,1.511A19.015,19.015,0,0,1,38.7,13.573a16.669,16.669,0,0,0-5.45,12.436,7.533,7.533,0,0,0-4.988-1.872Zm13.341,0a7.522,7.522,0,0,0-6.475,3.657A14.9,14.9,0,0,1,41.6,13.523a14.9,14.9,0,0,1,6.475,14.271A7.522,7.522,0,0,0,41.6,24.137Zm13.341,0a7.534,7.534,0,0,0-4.988,1.872,16.668,16.668,0,0,0-5.45-12.436A19.015,19.015,0,0,1,59.491,25.648a7.54,7.54,0,0,0-4.546-1.511Z" transform="translate(-18257.203 3516.979)" fill="#fff"/>
    </g>
  </g>
</svg>
