<svg xmlns="http://www.w3.org/2000/svg" width="84.264" height="84.264" viewBox="0 0 84.264 84.264">
  <g id="Group_2_icons_-_selected_4" data-name="Group 2 icons - selected 4" transform="translate(18451.41 -3517.894)">
    <circle id="Ellipse_402" data-name="Ellipse 402" cx="42.132" cy="42.132" r="42.132" transform="translate(-18367.146 3517.894) rotate(90)" fill="#903"/>
    <g id="Group_933" data-name="Group 933" transform="translate(-18436.182 3531.663)">
      <path id="Path_1076" data-name="Path 1076" d="M4.243,24.134a.81.81,0,0,0,.116-1.611,3.232,3.232,0,0,1-2.74-3.19A3.167,3.167,0,0,1,2.365,17.3a.809.809,0,0,0,.025-1,3.677,3.677,0,0,1-.77-2.229c0-2.455,2.542-4.452,5.667-4.452a5.956,5.956,0,0,1,5.066,2.46.809.809,0,0,0,1.364-.872A7.577,7.577,0,0,0,7.286,8C3.269,8,0,10.723,0,14.071a5.249,5.249,0,0,0,.755,2.692A4.731,4.731,0,0,0,0,19.333a4.86,4.86,0,0,0,4.125,4.792.857.857,0,0,0,.118.008Z" transform="translate(0 -1.524)" fill="#fff"/>
      <path id="Path_1077" data-name="Path 1077" d="M6.655,25.143s0,0-.005.008,0,.02-.006.03A20.114,20.114,0,0,0,6,30.238a19.874,19.874,0,0,0,2.261,9.279A.81.81,0,0,0,9.7,38.768a18.27,18.27,0,0,1-2.078-8.53,18.538,18.538,0,0,1,.368-3.676l.772.31a1.674,1.674,0,0,0,.839.076l4.041-.671,4.5,9.009v1.687a1.607,1.607,0,0,0,1.019,1.5L22.7,39.894a.809.809,0,0,0,.6-1.5l-3.539-1.418V35.1a.81.81,0,0,0-.085-.362l-4.857-9.714a.81.81,0,0,0-.857-.436l-4.632.776-.946-.381A18.728,18.728,0,0,1,22.19,12.069v2.788a.809.809,0,0,0,.555.768l1.659.55a.818.818,0,0,1,.516.516l.364,1.092a.842.842,0,0,1-.016.562l-1.032,2.589a.823.823,0,0,1-.669.508l-6.322.7a.809.809,0,0,0-.634,1.167l2.914,5.82a.809.809,0,1,0,1.447-.725l-2.394-4.782,5.167-.576a2.444,2.444,0,0,0,1.991-1.509l1.039-2.606a2.467,2.467,0,0,0,.045-1.665l-.364-1.092a2.445,2.445,0,0,0-1.541-1.541l-1.1-.366V11.783a18.594,18.594,0,0,1,2.3-.164A.81.81,0,0,0,26.108,10H26.1A20.31,20.31,0,0,0,6.655,25.143Z" transform="translate(-1.143 -1.905)" fill="#fff"/>
      <path id="Path_1078" data-name="Path 1078" d="M52.244,36.381a.821.821,0,0,0,.111.008.809.809,0,0,0,.8-.7,19.5,19.5,0,0,0,.177-2.644,20.027,20.027,0,0,0-1.569-7.81.81.81,0,0,0-1.493.628,18.342,18.342,0,0,1,1.387,6.049l-2.241.223a2.376,2.376,0,0,1-1.437-.3L44.616,29.9a2.4,2.4,0,0,1-1.045-1.2.82.82,0,0,0-.76-.51.808.808,0,0,0-.715,1.18,4.018,4.018,0,0,0,1.721,1.943l3.362,1.928a3.994,3.994,0,0,0,1.981.53,3.946,3.946,0,0,0,.426-.023l2.113-.21a17.7,17.7,0,0,1-.146,1.933.81.81,0,0,0,.692.912Z" transform="translate(-8.001 -4.712)" fill="#fff"/>
      <path id="Path_1079" data-name="Path 1079" d="M37.31,42.635a.886.886,0,0,1-.142.366L35.5,45.332a.81.81,0,0,0,1.317.942l1.675-2.342a2.545,2.545,0,0,0,.417-1.048.81.81,0,1,0-1.6-.249Z" transform="translate(-6.734 -7.991)" fill="#fff"/>
      <path id="Path_1080" data-name="Path 1080" d="M29.2,59.333H10.262a1.214,1.214,0,1,1,0-2.429h.81a2.833,2.833,0,1,0,0-5.667H7.429a.811.811,0,0,1-.81-.81.79.79,0,0,1,.247-.576.776.776,0,0,1,.562-.233H28.071a1.619,1.619,0,0,1,0,3.238H26.047a2.431,2.431,0,0,0-2.429,2.429,2.44,2.44,0,0,0,2.429,2.429h2.477a.81.81,0,0,0,0-1.619H26.047a.79.79,0,0,1-.576-.247.776.776,0,0,1-.233-.562.811.811,0,0,1,.81-.81h2.024a3.238,3.238,0,0,0,0-6.476H7.429A2.44,2.44,0,0,0,5,50.429a2.431,2.431,0,0,0,2.429,2.429h3.643a1.214,1.214,0,1,1,0,2.429h-.81a2.833,2.833,0,1,0,0,5.667H29.2a.81.81,0,0,0,0-1.619Z" transform="translate(-0.952 -9.143)" fill="#fff"/>
      <path id="Path_1081" data-name="Path 1081" d="M58.247,54.03,50.4,39.754A3.386,3.386,0,0,0,47.429,38h-.191a3.385,3.385,0,0,0-2.967,1.754L36.419,54.03a3.386,3.386,0,0,0,2.967,5.018H55.281a3.385,3.385,0,0,0,2.967-5.018Zm-2.967,3.4H39.386a1.767,1.767,0,0,1-1.548-2.618L45.69,40.534a1.765,1.765,0,0,1,1.548-.915h.191a1.766,1.766,0,0,1,1.548.915L56.828,54.81a1.766,1.766,0,0,1-1.548,2.618Z" transform="translate(-6.857 -7.238)" fill="#fff"/>
      <path id="Path_1082" data-name="Path 1082" d="M36.059,18.529a4.852,4.852,0,0,0,9.511.98,5.659,5.659,0,0,0,7.407-4.48,7.112,7.112,0,0,0,2.5-5.34c0-4.24-3.995-7.69-8.9-7.69a9.2,9.2,0,0,0-7.843,4.054c-.083,0-.168-.006-.252-.006a6.475,6.475,0,0,0-2.417,12.482ZM38.476,7.667a4.883,4.883,0,0,1,.6.041.808.808,0,0,0,.818-.428,7.455,7.455,0,0,1,6.68-3.66c4.017,0,7.286,2.723,7.286,6.071A5.577,5.577,0,0,1,51.7,14a.81.81,0,0,0-.289.545,4.04,4.04,0,0,1-6.062,3.1.81.81,0,0,0-1.217.67,3.23,3.23,0,0,1-6.458-.135c.008-.055.015-.111.018-.168a.81.81,0,0,0-.581-.822,4.856,4.856,0,0,1,1.368-9.515Z" transform="translate(-6.095 -0.381)" fill="#fff"/>
      <path id="Path_1083" data-name="Path 1083" d="M17.238,6.476A3.238,3.238,0,1,0,14,3.238,3.242,3.242,0,0,0,17.238,6.476Zm0-4.857a1.619,1.619,0,1,1-1.619,1.619A1.621,1.621,0,0,1,17.238,1.619Z" transform="translate(-2.667)" fill="#fff"/>
      <path id="Path_1084" data-name="Path 1084" d="M39.571,34.286a4.055,4.055,0,0,0-3.306-3.98,4.048,4.048,0,0,0-7.959,0,4.048,4.048,0,0,0,.742,8.027h6.476A4.052,4.052,0,0,0,39.571,34.286Zm-4.048,2.429H29.048a2.429,2.429,0,0,1,0-4.857.81.81,0,0,0,.81-.81,2.429,2.429,0,0,1,4.857,0,.81.81,0,0,0,.81.81,2.429,2.429,0,0,1,0,4.857Z" transform="translate(-4.762 -5.143)" fill="#fff"/>
      <path id="Path_1085" data-name="Path 1085" d="M49.81,47a.81.81,0,0,0-.81.81v4.857a.81.81,0,0,0,1.619,0V47.81A.81.81,0,0,0,49.81,47Z" transform="translate(-9.334 -8.953)" fill="#fff"/>
      <circle id="Ellipse_221" data-name="Ellipse 221" cx="0.683" cy="0.683" r="0.683" transform="translate(39.641 46.341)" fill="#fff"/>
    </g>
  </g>
</svg>
