<svg xmlns="http://www.w3.org/2000/svg" xmlns:xlink="http://www.w3.org/1999/xlink" width="72.264" height="72.264" viewBox="0 0 72.264 72.264">
  <defs>
    <clipPath id="clip-path">
      <path id="path360" d="M0-682.665H43.835v43.835H0Z" transform="translate(0 682.665)" fill="#aba28b"/>
    </clipPath>
  </defs>
  <g id="Group_6_icons_-_not_selected_6" data-name="Group 6 icons - not selected 6" transform="translate(18118.742 -2377.642)">
    <circle id="Ellipse_272" data-name="Ellipse 272" cx="36.132" cy="36.132" r="36.132" transform="translate(-18046.479 2377.642) rotate(90)" fill="#d0cabe"/>
    <g id="g354" transform="translate(-18103.174 3075.503)">
      <g id="g356" transform="translate(0 -682.665)">
        <g id="g358" transform="translate(0 0)" clip-path="url(#clip-path)">
          <g id="g364" transform="translate(0.856 4.91)">
            <path id="path366" d="M0-117.485v-5.835a2.227,2.227,0,0,1,2.226-2.227H9.869l1.457,1.145H33.809a2.227,2.227,0,0,1,2.226,2.227v4.689" transform="translate(0 125.546)" fill="none" stroke="#aba28b" stroke-linecap="round" stroke-linejoin="round" stroke-miterlimit="10" stroke-width="1.2"/>
          </g>
          <g id="g368" transform="translate(3.883 9.483)">
            <path id="path370" d="M0-50.837v-1.472a2.016,2.016,0,0,1,2.016-2.016h25.3a2.017,2.017,0,0,1,2.017,2.016v1.472" transform="translate(0 54.325)" fill="none" stroke="#aba28b" stroke-linecap="round" stroke-linejoin="round" stroke-miterlimit="10" stroke-width="1.2"/>
          </g>
          <g id="g372" transform="translate(36.891 12.972)">
            <path id="path374" d="M0,0V13.25" fill="none" stroke="#aba28b" stroke-linecap="round" stroke-linejoin="round" stroke-miterlimit="10" stroke-width="1.2"/>
          </g>
          <g id="g376" transform="translate(0.856 12.972)">
            <path id="path378" d="M-447.505-341.622h-28.48a2.227,2.227,0,0,1-2.227-2.226v-21.215" transform="translate(478.212 365.063)" fill="none" stroke="#aba28b" stroke-linecap="round" stroke-linejoin="round" stroke-miterlimit="10" stroke-width="1.2"/>
          </g>
          <g id="g380" transform="translate(30.803 26.744)">
            <path id="path382" d="M-177.443-88.759a6.089,6.089,0,0,1-6.088,6.09,6.089,6.089,0,0,1-6.088-6.09,6.089,6.089,0,0,1,6.088-6.09A6.089,6.089,0,0,1-177.443-88.759Z" transform="translate(189.618 94.849)" fill="none" stroke="#aba28b" stroke-linecap="round" stroke-linejoin="round" stroke-miterlimit="10" stroke-width="1.2"/>
          </g>
          <g id="g384" transform="translate(35.195 31.687)">
            <path id="path386" d="M0-20.117,1.7-19l2.148-2.5" transform="translate(0 21.497)" fill="none" stroke="#aba28b" stroke-linecap="round" stroke-linejoin="round" stroke-miterlimit="10" stroke-width="1.2"/>
          </g>
          <g id="g388" transform="translate(22.42 12.972)">
            <path id="path390" d="M-205.883,0H-220.01" transform="translate(220.01)" fill="none" stroke="#aba28b" stroke-linecap="round" stroke-linejoin="round" stroke-miterlimit="10" stroke-width="1.2"/>
          </g>
          <g id="g392" transform="translate(1.069 12.972)">
            <path id="path394" d="M-198.34,0h-13.61" transform="translate(211.95)" fill="none" stroke="#aba28b" stroke-linecap="round" stroke-linejoin="round" stroke-miterlimit="10" stroke-width="1.2"/>
          </g>
          <g id="g396" transform="translate(18.565 12.972)">
            <path id="path398" d="M0,0H0" fill="none" stroke="#aba28b" stroke-linecap="round" stroke-linejoin="round" stroke-miterlimit="10" stroke-width="1.2"/>
          </g>
          <path id="path400" d="M332.1-291.934h-6.452v11.323H332.1Z" transform="translate(-304.742 317.023)" fill="none" stroke="#aba28b" stroke-linecap="round" stroke-linejoin="round" stroke-miterlimit="10" stroke-width="1.2"/>
          <path id="path402" d="M151.624-337.2H162.8V-352.4H151.624Z" transform="translate(-141.888 373.611)" fill="none" stroke="#aba28b" stroke-linecap="round" stroke-linejoin="round" stroke-miterlimit="10" stroke-width="1.2"/>
          <path id="path404" d="M171.373-405.46h8.638V-409.1h-8.638Z" transform="translate(-160.369 426.666)" fill="none" stroke="#aba28b" stroke-linecap="round" stroke-linejoin="round" stroke-miterlimit="10" stroke-width="1.2"/>
          <g id="g406" transform="translate(13.52 25.573)">
            <path id="path408" d="M0,0V7.35" fill="none" stroke="#aba28b" stroke-linecap="round" stroke-linejoin="round" stroke-miterlimit="10" stroke-width="1.2"/>
          </g>
          <g id="g410" transform="translate(17.126 25.573)">
            <path id="path412" d="M0,0V7.35" fill="none" stroke="#aba28b" stroke-linecap="round" stroke-linejoin="round" stroke-miterlimit="10" stroke-width="1.2"/>
          </g>
        </g>
      </g>
    </g>
  </g>
</svg>
