<svg xmlns="http://www.w3.org/2000/svg" width="72.264" height="72.264" viewBox="0 0 72.264 72.264">
  <g id="Group_2_icons_-_not_selected_4" data-name="Group 2 icons - not selected 4" transform="translate(18450.619 -3423.147)">
    <g id="Group_939" data-name="Group 939">
      <circle id="Ellipse_259" data-name="Ellipse 259" cx="36.132" cy="36.132" r="36.132" transform="translate(-18378.355 3423.147) rotate(90)" fill="#d0cabe"/>
      <g id="Group_509" data-name="Group 509" transform="translate(-18436.668 3436.469)">
        <path id="Path_1076" data-name="Path 1076" d="M3.456,21.14a.659.659,0,0,0,.094-1.312,2.632,2.632,0,0,1-2.232-2.6,2.579,2.579,0,0,1,.607-1.657.659.659,0,0,0,.02-.814,2.994,2.994,0,0,1-.627-1.815c0-2,2.07-3.626,4.615-3.626a4.851,4.851,0,0,1,4.126,2,.659.659,0,0,0,1.111-.71A6.171,6.171,0,0,0,5.934,8C2.662,8,0,10.218,0,12.945a4.275,4.275,0,0,0,.615,2.192A3.853,3.853,0,0,0,0,17.23a3.958,3.958,0,0,0,3.36,3.9.7.7,0,0,0,.1.007Z" transform="translate(0 -2.726)" fill="#aba28b"/>
        <path id="Path_1077" data-name="Path 1077" d="M6.533,22.333l0,.006c0,.008,0,.016,0,.024A16.381,16.381,0,0,0,6,26.483,16.186,16.186,0,0,0,7.842,34.04a.659.659,0,0,0,1.169-.61,14.88,14.88,0,0,1-1.692-6.947,15.1,15.1,0,0,1,.3-2.994l.628.253a1.364,1.364,0,0,0,.683.062l3.291-.547,3.669,7.337v1.374a1.309,1.309,0,0,0,.83,1.225L19.6,34.347a.659.659,0,0,0,.49-1.224l-2.882-1.155V30.438a.66.66,0,0,0-.07-.295l-3.956-7.912a.66.66,0,0,0-.7-.355l-3.773.632-.77-.31A15.253,15.253,0,0,1,19.186,11.685v2.271a.659.659,0,0,0,.452.626l1.351.448a.667.667,0,0,1,.42.42l.3.889a.686.686,0,0,1-.013.458l-.841,2.109a.67.67,0,0,1-.545.414l-5.149.574a.659.659,0,0,0-.516.95l2.374,4.74a.659.659,0,1,0,1.179-.59L16.243,21.1l4.208-.469A1.99,1.99,0,0,0,22.073,19.4l.846-2.123a2.009,2.009,0,0,0,.037-1.356l-.3-.889A1.991,1.991,0,0,0,21.4,13.778l-.9-.3V11.453a15.143,15.143,0,0,1,1.877-.134.659.659,0,0,0,0-1.319h0A16.541,16.541,0,0,0,6.533,22.333Z" transform="translate(-2.044 -3.407)" fill="#aba28b"/>
        <path id="Path_1078" data-name="Path 1078" d="M50.344,34.221a.669.669,0,0,0,.091.006.659.659,0,0,0,.652-.569,15.88,15.88,0,0,0,.145-2.153,16.31,16.31,0,0,0-1.278-6.361.659.659,0,0,0-1.216.512,14.938,14.938,0,0,1,1.13,4.926l-1.826.182a1.935,1.935,0,0,1-1.17-.246l-2.741-1.572a1.955,1.955,0,0,1-.851-.981.668.668,0,0,0-.619-.416.658.658,0,0,0-.582.961,3.272,3.272,0,0,0,1.4,1.583l2.738,1.57a3.253,3.253,0,0,0,1.613.431,3.214,3.214,0,0,0,.347-.019L49.9,31.9a14.416,14.416,0,0,1-.119,1.575.659.659,0,0,0,.563.743Z" transform="translate(-14.311 -8.429)" fill="#aba28b"/>
        <path id="Path_1079" data-name="Path 1079" d="M36.947,42.508a.722.722,0,0,1-.115.3l-1.358,1.9a.659.659,0,0,0,1.073.767l1.364-1.908a2.073,2.073,0,0,0,.34-.853.659.659,0,0,0-1.3-.2Z" transform="translate(-12.044 -14.292)" fill="#aba28b"/>
        <path id="Path_1080" data-name="Path 1080" d="M24.707,57.23H9.285a.989.989,0,1,1,0-1.978h.659a2.308,2.308,0,1,0,0-4.615H6.978a.66.66,0,0,1-.659-.659.643.643,0,0,1,.2-.469.632.632,0,0,1,.458-.19H23.79a1.319,1.319,0,0,1,0,2.637H22.142a1.98,1.98,0,0,0-1.978,1.978,1.987,1.987,0,0,0,1.978,1.978h2.017a.659.659,0,1,0,0-1.319H22.142a.643.643,0,0,1-.469-.2.632.632,0,0,1-.19-.458.66.66,0,0,1,.659-.659H23.79a2.637,2.637,0,0,0,0-5.274H6.978A1.987,1.987,0,0,0,5,49.978a1.98,1.98,0,0,0,1.978,1.978H9.945a.989.989,0,1,1,0,1.978H9.285a2.308,2.308,0,0,0,0,4.615H24.707a.659.659,0,1,0,0-1.319Z" transform="translate(-1.703 -16.354)" fill="#aba28b"/>
        <path id="Path_1081" data-name="Path 1081" d="M54.119,51.055,47.724,39.429A2.757,2.757,0,0,0,45.308,38h-.156a2.757,2.757,0,0,0-2.416,1.429l-6.4,11.627a2.758,2.758,0,0,0,2.416,4.087H51.7a2.757,2.757,0,0,0,2.416-4.087ZM51.7,53.823H38.758A1.439,1.439,0,0,1,37.5,51.691l6.4-11.627a1.438,1.438,0,0,1,1.261-.746h.156a1.439,1.439,0,0,1,1.261.746l6.394,11.627A1.439,1.439,0,0,1,51.7,53.823Z" transform="translate(-12.265 -12.947)" fill="#aba28b"/>
        <path id="Path_1082" data-name="Path 1082" d="M35.306,15.462a3.951,3.951,0,0,0,7.746.8,4.609,4.609,0,0,0,6.033-3.648A5.792,5.792,0,0,0,51.12,8.263C51.12,4.81,47.866,2,43.867,2a7.5,7.5,0,0,0-6.388,3.3c-.068,0-.136,0-.205,0a5.273,5.273,0,0,0-1.968,10.166Zm1.968-8.847a3.977,3.977,0,0,1,.486.033.658.658,0,0,0,.666-.349,6.072,6.072,0,0,1,5.441-2.981c3.272,0,5.934,2.218,5.934,4.945a4.542,4.542,0,0,1-1.759,3.506.66.66,0,0,0-.236.444,3.291,3.291,0,0,1-4.937,2.522.659.659,0,0,0-.992.545,2.63,2.63,0,0,1-5.259-.11c.006-.045.012-.09.014-.137a.659.659,0,0,0-.473-.669,3.955,3.955,0,0,1,1.114-7.75Z" transform="translate(-10.902 -0.681)" fill="#aba28b"/>
        <path id="Path_1083" data-name="Path 1083" d="M16.637,5.274A2.637,2.637,0,1,0,14,2.637,2.64,2.64,0,0,0,16.637,5.274Zm0-3.956a1.319,1.319,0,1,1-1.319,1.319A1.32,1.32,0,0,1,16.637,1.319Z" transform="translate(-4.77)" fill="#aba28b"/>
        <path id="Path_1084" data-name="Path 1084" d="M36.867,32.934a3.3,3.3,0,0,0-2.693-3.241,3.3,3.3,0,0,0-6.482,0,3.3,3.3,0,0,0,.6,6.538h5.274A3.3,3.3,0,0,0,36.867,32.934Zm-3.3,1.978H28.3a1.978,1.978,0,0,1,0-3.956.659.659,0,0,0,.659-.659,1.978,1.978,0,0,1,3.956,0,.659.659,0,0,0,.659.659,1.978,1.978,0,0,1,0,3.956Z" transform="translate(-8.517 -9.199)" fill="#aba28b"/>
        <path id="Path_1085" data-name="Path 1085" d="M49.659,47a.659.659,0,0,0-.659.659v3.956a.659.659,0,0,0,1.319,0V47.659A.659.659,0,0,0,49.659,47Z" transform="translate(-16.694 -16.013)" fill="#aba28b"/>
        <circle id="Ellipse_221" data-name="Ellipse 221" cx="0.557" cy="0.557" r="0.557" transform="translate(32.285 37.742)" fill="#aba28b"/>
      </g>
    </g>
  </g>
</svg>
