<svg xmlns="http://www.w3.org/2000/svg" width="72.264" height="72.264" viewBox="0 0 72.264 72.264">
  <g id="Group_2_icons_-_not_selected_6" data-name="Group 2 icons - not selected 6" transform="translate(18264.592 -3423.147)">
    <g id="Group_941" data-name="Group 941">
      <circle id="Ellipse_261" data-name="Ellipse 261" cx="36.132" cy="36.132" r="36.132" transform="translate(-18192.328 3423.147) rotate(90)" fill="#d0cabe"/>
      <path id="Path_1093" data-name="Path 1093" d="M16.053,34.82a5.628,5.628,0,1,0,7.959,0,5.634,5.634,0,0,0-7.959,0ZM23.1,41.87a4.343,4.343,0,1,1,0-6.142,4.348,4.348,0,0,1,0,6.142Zm11.028-6.089a1.766,1.766,0,0,0-3.059,0l-.325.563c-.033-.009-.065-.019-.1-.027l-1.685-.383a9.334,9.334,0,0,0-.59-1.426l.92-1.462a1.621,1.621,0,0,0-.089-2.092l-1.329-1.329a1.621,1.621,0,0,0-2.091-.089l-1.461.92a9.337,9.337,0,0,0-1.427-.59l-.383-1.684a1.621,1.621,0,0,0-1.542-1.416H19.093a1.621,1.621,0,0,0-1.542,1.416l-.383,1.685a9.336,9.336,0,0,0-1.426.59l-1.462-.92a1.621,1.621,0,0,0-2.092.089L10.86,30.955a1.621,1.621,0,0,0-.089,2.092l.92,1.462a9.342,9.342,0,0,0-.59,1.426l-1.685.383A1.621,1.621,0,0,0,8,37.859v1.879a1.621,1.621,0,0,0,1.416,1.542l1.685.383a9.339,9.339,0,0,0,.59,1.426l-.92,1.462a1.621,1.621,0,0,0,.089,2.092l1.329,1.329a1.621,1.621,0,0,0,2.091.089l1.462-.92a9.339,9.339,0,0,0,1.426.59l.383,1.685a1.621,1.621,0,0,0,1.542,1.416h1.879a1.621,1.621,0,0,0,1.542-1.416l.383-1.684a9.334,9.334,0,0,0,1.427-.59l.139.088L23.9,48.2a1.766,1.766,0,0,0,1.529,2.649H39.773A1.766,1.766,0,0,0,41.3,48.2L34.131,35.781ZM24.69,45.854a.642.642,0,0,0-.66-.015,8.052,8.052,0,0,1-1.847.764.642.642,0,0,0-.456.477l-.466,2.05c-.01.042-.1.416-.289.416H19.093c-.189,0-.28-.373-.289-.416l-.466-2.051a.642.642,0,0,0-.456-.477,8.057,8.057,0,0,1-1.846-.764.642.642,0,0,0-.66.015L13.6,46.974c-.037.023-.365.224-.5.089l-1.329-1.329c-.134-.134.066-.462.089-.5l1.12-1.779a.642.642,0,0,0,.015-.66,8.058,8.058,0,0,1-.764-1.846.643.643,0,0,0-.477-.456L9.7,40.028c-.043-.01-.416-.1-.416-.289V37.859c0-.189.373-.28.416-.289l2.051-.467a.642.642,0,0,0,.477-.456,8.053,8.053,0,0,1,.764-1.846.642.642,0,0,0-.015-.66l-1.12-1.779c-.023-.037-.223-.365-.089-.5L13.1,30.535c.134-.134.462.066.5.089l1.779,1.12a.642.642,0,0,0,.66.015,8.053,8.053,0,0,1,1.846-.764.642.642,0,0,0,.456-.477l.466-2.051c.01-.043.1-.416.289-.416h1.879c.189,0,.28.373.289.416l.466,2.05a.642.642,0,0,0,.456.477,8.053,8.053,0,0,1,1.847.764.642.642,0,0,0,.66-.015l1.779-1.12c.037-.023.365-.223.5-.089L28.3,31.863c.134.134-.066.462-.089.5l-1.12,1.779a.642.642,0,0,0-.015.66,8.06,8.06,0,0,1,.764,1.846.642.642,0,0,0,.477.456l1.764.4-4.971,8.611-.415-.261Zm15.5,3.472a.453.453,0,0,1-.417.241H25.43a.453.453,0,0,1-.417-.241.459.459,0,0,1,0-.481l7.172-12.421a.481.481,0,0,1,.834,0L40.19,48.845a.459.459,0,0,1,0,.481Zm-6.946-1.721v.081a.642.642,0,1,1-1.285,0v-.081a.642.642,0,0,1,1.285,0Zm0-7.562v5.2a.642.642,0,0,1-1.285,0v-5.2a.642.642,0,1,1,1.285,0Zm14.581-14.6A15.294,15.294,0,0,0,32.6,11.6h0A15.294,15.294,0,0,0,17.378,25.439a.642.642,0,0,0,1.273.166,4.242,4.242,0,0,1,8.141-.827q.1.458.245.913l0,.011c0,.013.009.025.014.037l.009.021.017.034.011.021.02.032.012.019c.011.016.022.031.035.045l.018.02.022.024.019.018.025.022.019.015.029.021.019.012.033.019.018.009.037.017.017.007.04.014.017.006.04.01.019,0,.038.006.022,0,.036,0h.157a.642.642,0,0,0,.634-.537,4.22,4.22,0,0,1,3.541-3.492v8.925a.642.642,0,0,0,1.285,0V22.113A4.22,4.22,0,0,1,36.785,25.6a.642.642,0,0,0,.634.537h.138a.644.644,0,0,0,.087-.007l.015,0a.632.632,0,0,0,.085-.021l.014,0a.63.63,0,0,0,.081-.034l.011-.006a.65.65,0,0,0,.077-.047l.007-.006A.632.632,0,0,0,38,25.958l.006-.005a.648.648,0,0,0,.058-.068l.009-.012a.64.64,0,0,0,.046-.076l.007-.013a.638.638,0,0,0,.035-.086l0-.007q.141-.454.245-.913a4.242,4.242,0,0,1,8.141.827.642.642,0,0,0,.633.537.655.655,0,0,0,.084-.005.643.643,0,0,0,.557-.7Zm-24.99-4.66a5.52,5.52,0,0,0-3.328,1.107,13.921,13.921,0,0,1,10.971-8.84,12.2,12.2,0,0,0-3.99,9.1,5.515,5.515,0,0,0-3.652-1.37Zm9.767,0a5.507,5.507,0,0,0-4.741,2.677A10.91,10.91,0,0,1,32.6,13.009a10.91,10.91,0,0,1,4.741,10.448A5.507,5.507,0,0,0,32.6,20.779Zm9.767,0a5.516,5.516,0,0,0-3.652,1.37,12.2,12.2,0,0,0-3.99-9.1A13.921,13.921,0,0,1,45.7,21.885a5.52,5.52,0,0,0-3.328-1.107Z" transform="translate(-18258.564 3426.34)" fill="#aba28b"/>
    </g>
  </g>
</svg>
