<svg xmlns="http://www.w3.org/2000/svg" width="72.264" height="72.264" viewBox="0 0 72.264 72.264">
  <g id="Group_6_icons_-_not_selected_4" data-name="Group 6 icons - not selected 4" transform="translate(18304.799 -2377.642)">
    <circle id="Ellipse_274" data-name="Ellipse 274" cx="36.132" cy="36.132" r="36.132" transform="translate(-18232.535 2377.642) rotate(90)" fill="#d0cabe"/>
    <g id="Group_602" data-name="Group 602" transform="translate(-18294.182 2386.925)">
      <path id="Path_1191" data-name="Path 1191" d="M26.817,8A18.817,18.817,0,1,0,45.634,26.817,18.838,18.838,0,0,0,26.817,8Zm0,35.923A17.106,17.106,0,1,1,43.923,26.817,17.126,17.126,0,0,1,26.817,43.923Z" transform="translate(-1.157 -1.157)" fill="#aba28b"/>
      <path id="Path_1192" data-name="Path 1192" d="M49.778,29.771a2.314,2.314,0,0,0,1.441-1.91,24.442,24.442,0,0,0,0-4.407,2.313,2.313,0,0,0-1.444-1.906L47.3,20.561a22.046,22.046,0,0,0-2.735-6.594l1.045-2.448a2.261,2.261,0,0,0-.337-2.381,25.441,25.441,0,0,0-3.093-3.093,2.263,2.263,0,0,0-2.38-.339l-2.45,1.046a22.024,22.024,0,0,0-6.594-2.735l-.989-2.474A2.31,2.31,0,0,0,27.863.1a24.235,24.235,0,0,0-4.4,0,2.311,2.311,0,0,0-1.912,1.444l-.987,2.471a22.046,22.046,0,0,0-6.594,2.735L11.521,5.708a2.262,2.262,0,0,0-2.382.338A25.5,25.5,0,0,0,6.046,9.139a2.262,2.262,0,0,0-.338,2.379l1.046,2.45a22.024,22.024,0,0,0-2.735,6.594l-2.474.989A2.31,2.31,0,0,0,.1,23.459a24.161,24.161,0,0,0,0,4.4,2.311,2.311,0,0,0,1.444,1.912l2.471.987a22.046,22.046,0,0,0,2.735,6.594L5.709,39.8a2.259,2.259,0,0,0,.337,2.381A25.456,25.456,0,0,0,9.14,45.276a2.262,2.262,0,0,0,2.379.338l2.45-1.046A22.024,22.024,0,0,0,20.562,47.3l.989,2.474a2.314,2.314,0,0,0,1.91,1.441c.752.067,1.518.1,2.264.1s1.472-.033,2.138-.1a2.316,2.316,0,0,0,1.911-1.444l.987-2.471a22.046,22.046,0,0,0,6.594-2.735L39.8,45.614a2.258,2.258,0,0,0,2.381-.337,25.376,25.376,0,0,0,3.093-3.093,2.26,2.26,0,0,0,.339-2.38l-1.046-2.45A22.024,22.024,0,0,0,47.3,30.761l2.474-.989Zm-4.046.184a20.355,20.355,0,0,1-2.843,6.856.853.853,0,0,0-.069.8l1.223,2.865a.566.566,0,0,1-.074.606,23.758,23.758,0,0,1-2.9,2.9.557.557,0,0,1-.594.062L37.612,42.82a.86.86,0,0,0-.8.069,20.338,20.338,0,0,1-6.856,2.843.859.859,0,0,0-.617.519l-1.153,2.886a.6.6,0,0,1-.485.379,22.586,22.586,0,0,1-4.09,0,.6.6,0,0,1-.475-.375L21.98,46.252a.858.858,0,0,0-.617-.519,20.355,20.355,0,0,1-6.856-2.843.857.857,0,0,0-.8-.069l-2.865,1.223a.57.57,0,0,1-.606-.074,23.835,23.835,0,0,1-2.9-2.9.561.561,0,0,1-.062-.594L8.5,37.614a.853.853,0,0,0-.069-.8,20.338,20.338,0,0,1-2.843-6.856.859.859,0,0,0-.519-.617L2.182,28.186A.6.6,0,0,1,1.8,27.7a22.365,22.365,0,0,1,0-4.091.6.6,0,0,1,.375-.474l2.889-1.155a.858.858,0,0,0,.519-.617A20.355,20.355,0,0,1,8.43,14.509a.853.853,0,0,0,.069-.8L7.276,10.842a.57.57,0,0,1,.074-.606,23.88,23.88,0,0,1,2.9-2.9.562.562,0,0,1,.6-.063L13.706,8.5a.855.855,0,0,0,.8-.069,20.338,20.338,0,0,1,6.856-2.843.859.859,0,0,0,.617-.519l1.153-2.886a.6.6,0,0,1,.485-.378,22.44,22.44,0,0,1,4.091,0,.6.6,0,0,1,.474.375l1.155,2.889a.858.858,0,0,0,.617.519,20.356,20.356,0,0,1,6.856,2.843.855.855,0,0,0,.8.069l2.865-1.223a.57.57,0,0,1,.606.074,23.822,23.822,0,0,1,2.9,2.9.563.563,0,0,1,.063.6l-1.222,2.864a.853.853,0,0,0,.069.8,20.338,20.338,0,0,1,2.843,6.856.859.859,0,0,0,.519.617l2.886,1.153a.6.6,0,0,1,.378.476v.009a22.585,22.585,0,0,1,0,4.09.6.6,0,0,1-.375.475L46.251,29.34a.858.858,0,0,0-.519.617Z" transform="translate(0 0)" fill="#aba28b"/>
      <path id="Path_1193" data-name="Path 1193" d="M27.686,15a3.071,3.071,0,0,0-2.521,1.316L14.556,31.559a3.07,3.07,0,0,0,2.521,4.824H38.3a3.07,3.07,0,0,0,2.521-4.824L30.209,16.316A3.071,3.071,0,0,0,27.688,15ZM39.5,33.942a1.341,1.341,0,0,1-1.207.73H17.075a1.36,1.36,0,0,1-1.118-2.136L26.567,17.294a1.363,1.363,0,0,1,2.236,0L39.412,32.536a1.338,1.338,0,0,1,.089,1.405Z" transform="translate(-2.026 -2.17)" fill="#aba28b"/>
      <path id="Path_1194" data-name="Path 1194" d="M29.855,23a.855.855,0,0,0-.855.855v5.987a.855.855,0,1,0,1.711,0V23.855A.855.855,0,0,0,29.855,23Z" transform="translate(-4.195 -3.327)" fill="#aba28b"/>
      <path id="Path_1195" data-name="Path 1195" d="M29.855,33.993a.858.858,0,1,0,.855.861v-.013A.849.849,0,0,0,29.855,33.993Z" transform="translate(-4.195 -4.918)" fill="#aba28b"/>
    </g>
  </g>
</svg>
