<svg xmlns="http://www.w3.org/2000/svg" width="84.264" height="84.264" viewBox="0 0 84.264 84.264">
  <g id="Group_6_icons_-_selected_2" data-name="Group 6 icons - selected 2" transform="translate(18504.375 -2478.387)">
    <circle id="Ellipse_362" data-name="Ellipse 362" cx="42.132" cy="42.132" r="42.132" transform="translate(-18420.111 2478.388) rotate(90)" fill="#45596d"/>
    <g id="layer1-0" transform="translate(-18484.66 2491.542)">
      <path id="path8049" d="M9.06,1.93a1.832,1.832,0,0,0-.871,1.008,2.148,2.148,0,0,1-.335.634,2.788,2.788,0,0,1-1.1.711,2.815,2.815,0,0,1-1.284.3,2.153,2.153,0,0,1-.686-.2A2.019,2.019,0,0,0,3.448,4.3,4.112,4.112,0,0,0,1.865,5.441,4.1,4.1,0,0,0,.743,7.035a2.028,2.028,0,0,0,.1,1.338,2.115,2.115,0,0,1,.215.675,2.754,2.754,0,0,1-.275,1.283,2.772,2.772,0,0,1-.692,1.111,1.906,1.906,0,0,1-.621.329,1.814,1.814,0,0,0-1.01.872,3.948,3.948,0,0,0-.313,1.89,3.939,3.939,0,0,0,.311,1.89,1.813,1.813,0,0,0,1.01.872,1.907,1.907,0,0,1,.621.329,2.771,2.771,0,0,1,.694,1.111,2.771,2.771,0,0,1,.275,1.283,2.121,2.121,0,0,1-.216.675,2.03,2.03,0,0,0-.1,1.338,4.106,4.106,0,0,0,1.123,1.594,4.109,4.109,0,0,0,1.582,1.141,2.019,2.019,0,0,0,1.332-.077,2.161,2.161,0,0,1,.687-.2,2.809,2.809,0,0,1,1.283.3,2.8,2.8,0,0,1,1.106.711,2.146,2.146,0,0,1,.333.634,1.833,1.833,0,0,0,.871,1.008,4.122,4.122,0,0,0,1.923.341,4.138,4.138,0,0,0,1.931-.3,1.89,1.89,0,0,0,.888-1,2.139,2.139,0,0,1,.341-.627,2.255,2.255,0,0,1,.19-.179,4.454,4.454,0,0,0,.367,1.977,2.11,2.11,0,0,0,1.171,1,2.763,2.763,0,0,1,.842.453,3.709,3.709,0,0,1,.937,1.487,5.711,5.711,0,0,1,.2.57c-1.78-.19-3.918-.153-6.759-.145v-.818a.81.81,0,0,0-.812-.811H7.854a.81.81,0,0,0-.812-.809H-1.04a.81.81,0,0,0-.812.811v17a.81.81,0,0,0,.812.811H7.042a.81.81,0,0,0,.812-.809h2.424a.81.81,0,0,0,.812-.811v-.815h.81a3.916,3.916,0,0,1,1.76.758c.784.5,1.683,1.191,2.593,1.9s1.832,1.433,2.716,2A5.3,5.3,0,0,0,21.6,50.126H41.022a3.237,3.237,0,1,0,0-6.473H33.315a3.2,3.2,0,0,0,0-3.242,2.683,2.683,0,0,0,.43-.7,2.9,2.9,0,0,1,.466-.848,3.768,3.768,0,0,1,1.5-.932,3.768,3.768,0,0,1,1.732-.363,2.9,2.9,0,0,1,.926.286,2.179,2.179,0,0,0,1.545.114,5.034,5.034,0,0,0,1.942-1.356,5.016,5.016,0,0,0,1.4-1.91,2.145,2.145,0,0,0-.088-1.547,2.887,2.887,0,0,1-.275-.926,3.714,3.714,0,0,1,.393-1.714,3.769,3.769,0,0,1,.967-1.48,3.331,3.331,0,0,1,.878-.477,2.388,2.388,0,0,0,1.171-1.076,5.563,5.563,0,0,0,.393-2.427,5.563,5.563,0,0,0-.393-2.427,2.387,2.387,0,0,0-1.171-1.076,3.331,3.331,0,0,1-.878-.477,3.769,3.769,0,0,1-.967-1.48,3.715,3.715,0,0,1-.393-1.714,2.889,2.889,0,0,1,.275-.926,2.3,2.3,0,0,0,.088-1.547,5.016,5.016,0,0,0-1.4-1.91,6.351,6.351,0,0,0-1.509-1.177l2.871-2.871a.808.808,0,0,0,0-1.147L39.169,4.252a.809.809,0,0,0-1.379.574v1.62h-2.43a.809.809,0,0,0-.807.806v.463L32.918,9.357a1.863,1.863,0,0,0-.205-.125,5.048,5.048,0,0,0-2.34-.365,5.081,5.081,0,0,0-2.341.408,2.13,2.13,0,0,0-1.01,1.176,2.878,2.878,0,0,1-.447.855,3.794,3.794,0,0,1-1.487.954,4.681,4.681,0,0,1-1.333.39c-.014-.033-.03-.077-.046-.109a1.925,1.925,0,0,0-1-.926,2.523,2.523,0,0,1-.657-.359,2.8,2.8,0,0,1-.717-1.1,2.761,2.761,0,0,1-.3-1.272,1.939,1.939,0,0,1,.2-.681,1.842,1.842,0,0,0,.077-1.337,4.1,4.1,0,0,0-1.147-1.577,4.1,4.1,0,0,0-1.6-1.111,1.818,1.818,0,0,0-1.33.095,2.176,2.176,0,0,1-.687.215A2.8,2.8,0,0,1,15.26,4.21a2.791,2.791,0,0,1-1.117-.692A2.142,2.142,0,0,1,13.8,2.89a1.894,1.894,0,0,0-.889-1,4.132,4.132,0,0,0-1.929-.3A4.122,4.122,0,0,0,9.06,1.93Zm3.123,1.409c.09.045.092.123.138.2a3.606,3.606,0,0,0,.6,1.04,4.418,4.418,0,0,0,1.732,1.128,4.456,4.456,0,0,0,2.037.389,3.59,3.59,0,0,0,1.152-.329c.084-.026.149-.084.245-.054a3.265,3.265,0,0,1,.943.728,3.274,3.274,0,0,1,.747.926c.031.093-.017.12-.049.239a3.591,3.591,0,0,0-.31,1.158,4.386,4.386,0,0,0,.423,2.019A4.449,4.449,0,0,0,21,12.494a3.835,3.835,0,0,0,1.032.591c.172.091.157.05.215.167a3.6,3.6,0,0,1,.167,1.28,3.6,3.6,0,0,1-.167,1.28c-.058.118-.014.076-.215.167A3.836,3.836,0,0,0,21,16.57a4.45,4.45,0,0,0-1.161,1.708,4.382,4.382,0,0,0-.422,2.019,3.6,3.6,0,0,0,.308,1.158c.032.118.08.145.049.239a3.274,3.274,0,0,1-.747.926,3.265,3.265,0,0,1-.943.728c-.1.03-.161-.028-.245-.054a3.591,3.591,0,0,0-1.152-.329,4.456,4.456,0,0,0-2.037.389,4.418,4.418,0,0,0-1.732,1.128,3.609,3.609,0,0,0-.6,1.04c-.046.079-.048.157-.138.2a3.265,3.265,0,0,1-1.188.131A3.191,3.191,0,0,1,9.812,25.7c-.089-.046-.093-.129-.136-.2a3.551,3.551,0,0,0-.58-1.046,4.428,4.428,0,0,0-1.714-1.158,4.458,4.458,0,0,0-2.03-.423,3.594,3.594,0,0,0-1.158.31c-.211.082-.151.081-.246.049a3.311,3.311,0,0,1-.931-.747,3.257,3.257,0,0,1-.73-.937c-.031-.094-.032-.032.054-.24a3.592,3.592,0,0,0,.329-1.152,4.37,4.37,0,0,0-.387-2.024A4.417,4.417,0,0,0,1.147,16.4,3.5,3.5,0,0,0,.1,15.807c-.211-.089-.175-.1-.2-.126a3.089,3.089,0,0,1-.13-1.149A3.076,3.076,0,0,1-.1,13.383c.021-.03-.015-.037.2-.126a3.5,3.5,0,0,0,1.052-.591,4.417,4.417,0,0,0,1.134-1.732A4.373,4.373,0,0,0,2.67,8.91a3.587,3.587,0,0,0-.329-1.152c-.086-.208-.083-.146-.054-.24a3.282,3.282,0,0,1,.73-.937,3.31,3.31,0,0,1,.931-.747c.1-.032.034-.033.245.049a3.593,3.593,0,0,0,1.158.31,4.458,4.458,0,0,0,2.03-.423A4.428,4.428,0,0,0,9.1,4.611a3.548,3.548,0,0,0,.58-1.046c.043-.074.048-.156.138-.2A3.188,3.188,0,0,1,11,3.208a3.263,3.263,0,0,1,1.188.131Zm27.224,3.44,2.09,2.09-2.09,2.1v-.479a.76.76,0,0,0-.809-.818H36.171V8.063h2.424a.809.809,0,0,0,.812-.812ZM11.093,8.062a6.471,6.471,0,1,0,6.471,6.47A6.471,6.471,0,0,0,11.093,8.062Zm0,1.616a4.855,4.855,0,1,1-4.854,4.854,4.854,4.854,0,0,1,4.854-4.854ZM34.55,10v.471a.776.776,0,0,0,.809.825h2.427V12.9H35.362a.809.809,0,0,0-.812.807v.477l-2.09-2.1Zm-2.863.581-.942.935a.807.807,0,0,0,0,1.146l4.043,4.043a.809.809,0,0,0,1.379-.567V14.524H38.6a.809.809,0,0,0,.807-.812v-.04c.01,0,.013,0,.025,0a4.126,4.126,0,0,1,1.284.973,4.1,4.1,0,0,1,1,1.261c.058.175.042.17-.066.447a4.354,4.354,0,0,0-.376,1.4,5.344,5.344,0,0,0,.52,2.46A5.419,5.419,0,0,0,43.2,22.3a4.677,4.677,0,0,0,1.254.717c.267.122.285.111.382.311a4.6,4.6,0,0,1,.232,1.716,4.6,4.6,0,0,1-.232,1.716c-.1.2-.115.19-.382.311a4.677,4.677,0,0,0-1.254.717,5.419,5.419,0,0,0-1.409,2.084,5.344,5.344,0,0,0-.52,2.46,4.355,4.355,0,0,0,.376,1.4c.1.269.111.263.066.447a4.1,4.1,0,0,1-1,1.261,4.126,4.126,0,0,1-1.284.973c-.179.056-.205.013-.453-.071a4.366,4.366,0,0,0-1.4-.4,5.4,5.4,0,0,0-2.477.472,5.39,5.39,0,0,0-2.114,1.373,4.361,4.361,0,0,0-.728,1.261c-.044.1-.065.139-.088.185l-8.126-5.947a11.668,11.668,0,0,0-4.473-2.149,6.645,6.645,0,0,0-.427-1.458,5.359,5.359,0,0,0-1.379-2.108,4.261,4.261,0,0,0-1.272-.717c-.277-.117-.284-.146-.359-.258a3.889,3.889,0,0,1-.191-1.555c0-.158,0-.283.009-.414a2.018,2.018,0,0,1,.594-.055,2.179,2.179,0,0,1,.687.215,1.815,1.815,0,0,0,1.329.095,4.1,4.1,0,0,0,1.6-1.111A4.089,4.089,0,0,0,21.312,22.2a1.842,1.842,0,0,0-.077-1.337,1.937,1.937,0,0,1-.2-.681,2.768,2.768,0,0,1,.3-1.272,2.8,2.8,0,0,1,.717-1.1,2.523,2.523,0,0,1,.657-.359,1.925,1.925,0,0,0,1-.926,4.586,4.586,0,0,0,.329-1.991c0-.107,0-.19-.006-.289a6.482,6.482,0,0,0,1.689-.49,5.39,5.39,0,0,0,2.09-1.409,4.326,4.326,0,0,0,.7-1.266c.084-.2.1-.283.269-.37a4.106,4.106,0,0,1,1.6-.221,6.086,6.086,0,0,1,1.3.1ZM9.4,12.1a.809.809,0,0,0-.483,1.386l1.04,1.041-1,1a.809.809,0,1,0,1.141,1.141l1-1,1,1a.809.809,0,1,0,1.141-1.141l-1-1,1.04-1.041a.807.807,0,1,0-1.141-1.141l-1.038,1.04-1.038-1.04A.81.81,0,0,0,9.4,12.1Zm20.165,5.731a7.279,7.279,0,1,0,8.228,7.213.809.809,0,0,0-1.618,0,5.663,5.663,0,1,1-2.831-4.9.809.809,0,1,0,.806-1.4,7.237,7.237,0,0,0-4.585-.913ZM35.645,21.2l-5.094,4.366-1.9-1.9a.811.811,0,0,0-1.147,1.147l2.432,2.424a.809.809,0,0,0,1.1.043L36.7,22.424A.807.807,0,1,0,35.645,21.2ZM-.235,29.9H6.236v15.37H-.235Zm8.089.809H9.472V44.464H7.854Zm3.236,1.62a58.167,58.167,0,0,1,7.08.2,10.014,10.014,0,0,1,4.92,2.071l8.372,6.127a1.617,1.617,0,0,1-1.9,2.616L24.87,39.777a.809.809,0,1,0-.98,1.285l4.705,3.58a3.248,3.248,0,0,0,2.228.629h10.2a1.619,1.619,0,1,1,0,3.237H21.6a3.991,3.991,0,0,1-1.762-.758c-.784-.5-1.681-1.2-2.591-1.905s-1.833-1.425-2.717-1.988a5.211,5.211,0,0,0-2.632-1.01h-.81ZM3,42.037a.809.809,0,1,0,.809.809A.809.809,0,0,0,3,42.037Z" transform="translate(0 0)" fill="#fff"/>
    </g>
  </g>
</svg>
