<svg xmlns="http://www.w3.org/2000/svg" width="72.264" height="72.264" viewBox="0 0 72.264 72.264">
  <g id="Group_2_icons_-_not_selected_2" data-name="Group 2 icons - not selected 2" transform="translate(18645.311 -3423.147)">
    <g id="Group_937" data-name="Group 937">
      <circle id="Ellipse_407" data-name="Ellipse 407" cx="36.132" cy="36.132" r="36.132" transform="translate(-18573.047 3423.147) rotate(90)" fill="#d0cabe"/>
      <path id="Path_1242" data-name="Path 1242" d="M19.147,18.973a4.527,4.527,0,1,0-4.527-4.527A4.532,4.532,0,0,0,19.147,18.973Zm0-7.823a3.3,3.3,0,1,1-3.3,3.3A3.3,3.3,0,0,1,19.147,11.15Zm.608,4.411a.135.135,0,0,0,.029-.125c-.01-.084-.034-.282-.733-.4-1.378-.226-1.621-1.026-1.643-1.483a1.542,1.542,0,0,1,1.124-1.547v-.038a.615.615,0,0,1,1.23,0V12a1.793,1.793,0,0,1,1.1,1.019.615.615,0,1,1-1.134.476.632.632,0,0,0-.745-.338c-.085.019-.361.1-.349.338.007.153.214.263.613.329,1.068.175,1.659.668,1.755,1.463a1.355,1.355,0,0,1-.32,1.078,1.825,1.825,0,0,1-.924.541v.014a.615.615,0,0,1-1.23,0V16.9a1.746,1.746,0,0,1-1.237-1.249.615.615,0,1,1,1.194-.3.651.651,0,0,0,.694.4.854.854,0,0,0,.572-.193Zm1.142,14.7H17.814a.615.615,0,0,0-.615.615V40.71a.615.615,0,0,0,.615.615H20.9a.615.615,0,0,0,.615-.615V30.872A.615.615,0,0,0,20.9,30.257Zm-.615,9.838H18.43V31.487h1.852Zm-5.108-6.022H12.091a.615.615,0,0,0-.615.615V40.71a.615.615,0,0,0,.615.615h3.082a.615.615,0,0,0,.615-.615V34.688A.615.615,0,0,0,15.173,34.073Zm-.615,6.022H12.706V35.3h1.852v4.792ZM29.994,24.809l-4.479,4.517a.615.615,0,0,1-.627.152l-5.413-1.754L14.01,31.98a.615.615,0,0,1-.756-.971l5.723-4.457a.615.615,0,0,1,.568-.1l5.363,1.738,4.274-4.311-.19.017a.615.615,0,0,1-.108-1.226l1.863-.163a.615.615,0,0,1,.665.681l-.208,1.859a.615.615,0,0,1-1.223-.137Zm-3.942-.3a.615.615,0,0,1-.615.615H16.424a.615.615,0,1,1,0-1.23h9.013A.615.615,0,0,1,26.052,24.514Zm-9.628-4.6h9.013a.615.615,0,1,1,0,1.23H16.424a.615.615,0,1,1,0-1.23Zm-5.33.1a.615.615,0,0,1,.87-.87l.513.513.513-.513a.615.615,0,0,1,.87.87l-.513.513.513.513a.615.615,0,0,1-.87.87l-.513-.513-.513.513a.615.615,0,0,1-.87-.87l.513-.513ZM45.659,40.928,39.392,30.073a3.439,3.439,0,0,0-2.941-1.736V13.323a1.3,1.3,0,0,0-.389-.938l-4-4A1.3,1.3,0,0,0,31.128,8H9.311A1.328,1.328,0,0,0,7.984,9.327V43.2a1.328,1.328,0,0,0,1.327,1.327H27.18a3.438,3.438,0,0,0,2.933,1.613H42.648a3.477,3.477,0,0,0,3.011-5.216ZM34.35,12.413H32.038V10.1ZM27.235,40.7V32.156a.615.615,0,0,0-.615-.615H23.538a.615.615,0,0,0-.615.615V40.71a.615.615,0,0,0,.615.615H26.62a.612.612,0,0,0,.328-.1,3.426,3.426,0,0,0-.257,2.07H9.311a.1.1,0,0,1-.1-.1V9.327a.1.1,0,0,1,.1-.1h21.5v3.442a.972.972,0,0,0,.971.971H35.22V28.53a3.443,3.443,0,0,0-1.851,1.543l-.411.711V26.828a.615.615,0,0,0-.615-.615H29.261a.615.615,0,0,0-.615.615V38.254ZM26,32.772v7.323H24.153V32.772Zm5.723.144-1.852,3.207V27.444h1.852ZM44.593,43.79a2.224,2.224,0,0,1-1.946,1.123H30.113a2.247,2.247,0,0,1-1.946-3.37l6.267-10.855a2.247,2.247,0,0,1,3.891,0l6.267,10.855A2.224,2.224,0,0,1,44.593,43.79ZM36.38,40.435a1.36,1.36,0,0,0,1.363-1.315l.189-5.245a1.365,1.365,0,0,0-1.364-1.414h-.379a1.364,1.364,0,0,0-1.364,1.414l.189,5.245a1.36,1.36,0,0,0,1.364,1.315Zm-.286-6.7a.112.112,0,0,1,.1-.041h.379a.134.134,0,0,1,.134.139l-.189,5.245a.134.134,0,0,1-.268,0l-.189-5.245a.113.113,0,0,1,.038-.1Zm.286,7.185a1.575,1.575,0,1,0,1.575,1.575A1.577,1.577,0,0,0,36.38,40.918Zm0,1.92a.345.345,0,1,1,.345-.345A.345.345,0,0,1,36.38,42.838ZM11.094,25.9a.615.615,0,0,1,0-.87l.513-.513L11.094,24a.615.615,0,1,1,.87-.87l.513.513.513-.513a.615.615,0,0,1,.87.87l-.513.513.513.513a.615.615,0,0,1-.87.87l-.513-.513-.513.513a.615.615,0,0,1-.87,0Z" transform="translate(-18634.551 3430.421)" fill="#aba28b"/>
    </g>
  </g>
</svg>
