<svg xmlns="http://www.w3.org/2000/svg" width="84.264" height="84.264" viewBox="0 0 84.264 84.264">
  <g id="Group_6_icons_-_selected_3" data-name="Group 6 icons - selected 3" transform="translate(18407.375 -2478.387)">
    <circle id="Ellipse_365" data-name="Ellipse 365" cx="42.132" cy="42.132" r="42.132" transform="translate(-18323.111 2478.388) rotate(90)" fill="#45596d"/>
    <g id="Group_922" data-name="Group 922" transform="translate(-18398.373 2487.389)">
      <path id="Path_1186" data-name="Path 1186" d="M52.69,11.553A29.033,29.033,0,0,0,33.13,4a27.762,27.762,0,0,0-5.293.5,28.859,28.859,0,0,0-13.729,6.572,1.04,1.04,0,0,0,1.361,1.574A26.787,26.787,0,0,1,27.545,6.686a3.1,3.1,0,0,1-.524,3.679,3.141,3.141,0,0,1-2.214.918,5.2,5.2,0,0,0-5.2,5.2,3.14,3.14,0,0,1-3.121,3.121c-6.854.17-6.863,10.229,0,10.4h4.161a3.121,3.121,0,1,1,0,6.242,5.238,5.238,0,0,0-5.2,5.2,3.141,3.141,0,0,1-3.121,3.121h-3.7a26.99,26.99,0,0,1,4.023-29.1,1.04,1.04,0,0,0-1.573-1.362A29.116,29.116,0,0,0,33.13,62.26h.135a1.04,1.04,0,1,0,0-2.081H33.13A26.9,26.9,0,0,1,9.709,46.655h2.614a5.238,5.238,0,0,0,5.2-5.2,3.14,3.14,0,0,1,3.121-3.121c6.866-.209,6.881-10.184,0-10.4H16.484a3.121,3.121,0,1,1,0-6.242,5.2,5.2,0,0,0,5.2-5.2,3.116,3.116,0,0,1,3.121-3.121,5.237,5.237,0,0,0,5.2-5.2,5.932,5.932,0,0,0-.34-1.828,26.206,26.206,0,0,1,3.461-.252,26.95,26.95,0,0,1,15.923,5.2l-8.64,0c-6.878.218-6.869,10.194,0,10.4a3.14,3.14,0,0,1,3.121,3.121c.008.849.116,2.069,1.174,2.081a1.045,1.045,0,0,0,1-1.322,2.769,2.769,0,0,1-.1-.759,5.237,5.237,0,0,0-5.2-5.2,3.121,3.121,0,1,1,0-6.242H51.575a27.089,27.089,0,0,1,8.6,19.767v.135a1.04,1.04,0,1,0,2.081,0V33.13A29.176,29.176,0,0,0,52.69,11.553Z" transform="translate(0 0)" fill="#fff"/>
      <path id="Path_1187" data-name="Path 1187" d="M41.873,43A1.04,1.04,0,0,0,40.4,44.476l2.441,2.44a1.04,1.04,0,0,0,1.471,0l7.338-7.337a1.04,1.04,0,1,0-1.471-1.471l-6.6,6.6Z" transform="translate(1.457 1.364)" fill="#fff"/>
      <path id="Path_1188" data-name="Path 1188" d="M54.944,54.57l-1,1-1.364-1.025a1.042,1.042,0,0,0-1.2-.036,12.131,12.131,0,0,1-4.265,1.768,1.041,1.041,0,0,0-.82.872l-.242,1.691h-2.82l-.242-1.691a1.041,1.041,0,0,0-.82-.872,12.131,12.131,0,0,1-4.265-1.768,1.039,1.039,0,0,0-1.2.036l-1.364,1.025-2-2,1.025-1.364a1.04,1.04,0,0,0,.036-1.2,12.131,12.131,0,0,1-1.768-4.265,1.041,1.041,0,0,0-.872-.82l-1.691-.242v-2.82l1.691-.242a1.041,1.041,0,0,0,.872-.82,12.233,12.233,0,0,1,1.06-3.045,1.04,1.04,0,1,0-1.857-.939,14.293,14.293,0,0,0-1.073,2.845l-1.88.268A1.042,1.042,0,0,0,28,41.96v4.625a1.042,1.042,0,0,0,.893,1.03l1.88.268a14.144,14.144,0,0,0,1.511,3.646l-1.139,1.516a1.04,1.04,0,0,0,.1,1.36l3.271,3.271a1.041,1.041,0,0,0,1.36.1l1.516-1.139a14.144,14.144,0,0,0,3.646,1.511l.268,1.88a1.042,1.042,0,0,0,1.03.893h4.625a1.042,1.042,0,0,0,1.03-.893l.268-1.88A14.144,14.144,0,0,0,51.9,56.635l1.516,1.139a1.042,1.042,0,0,0,1.36-.1l1.636-1.636a1.04,1.04,0,0,0-1.471-1.471Z" transform="translate(0.968 1.342)" fill="#fff"/>
      <path id="Path_1189" data-name="Path 1189" d="M60.221,41.3l-1.88-.268a14.144,14.144,0,0,0-1.511-3.646l1.139-1.516a1.04,1.04,0,0,0-.1-1.36L54.6,31.241a1.04,1.04,0,0,0-1.36-.1l-1.516,1.138a14.167,14.167,0,0,0-3.646-1.51l-.268-1.88A1.042,1.042,0,0,0,46.781,28H42.156a1.042,1.042,0,0,0-1.03.893l-.268,1.88a14.166,14.166,0,0,0-3.646,1.51L35.7,31.144a1.039,1.039,0,0,0-1.36.1L32.7,32.877a1.04,1.04,0,1,0,1.471,1.471l1-1,1.364,1.025a1.041,1.041,0,0,0,1.2.036A12.134,12.134,0,0,1,42,32.643c1.071-.2.853-1.693,1.062-2.562h2.82c.21.872-.012,2.356,1.062,2.562a12.134,12.134,0,0,1,4.265,1.768,1.039,1.039,0,0,0,1.2-.036l1.364-1.025,2,2L54.739,36.71a1.04,1.04,0,0,0-.036,1.2,12.131,12.131,0,0,1,1.768,4.265c.21,1.077,1.691.85,2.562,1.062v2.82l-1.691.242a1.041,1.041,0,0,0-.872.82,12.233,12.233,0,0,1-1.06,3.045,1.041,1.041,0,0,0,.459,1.4c1.688.671,2.03-2.216,2.471-3.3l1.879-.268a1.042,1.042,0,0,0,.893-1.03V42.333A1.042,1.042,0,0,0,60.221,41.3Z" transform="translate(1.146 0.969)" fill="#fff"/>
      <path id="Path_1190" data-name="Path 1190" d="M47.018,36.446a8.324,8.324,0,1,0,5.627,7.877v-.046a1.02,1.02,0,0,0-1.04-1.017,1.059,1.059,0,0,0-1.04,1.063,6.233,6.233,0,1,1-4.219-5.908,1.04,1.04,0,1,0,.673-1.969Z" transform="translate(1.291 1.291)" fill="#fff"/>
    </g>
  </g>
</svg>
