<svg xmlns="http://www.w3.org/2000/svg" width="90.491" height="90.49" viewBox="0 0 90.491 90.49">
  <g id="Group_1359" data-name="Group 1359" transform="translate(6404 -18062.67)">
    <circle id="Ellipse_415" data-name="Ellipse 415" cx="45.245" cy="45.245" r="45.245" transform="translate(-6313.509 18062.67) rotate(90)" fill="#45596d"/>
    <g id="Group_997" data-name="Group 997" transform="translate(-6380.566 18080.102)">
      <path id="Path_793" data-name="Path 793" d="M40.5,56.826A16.826,16.826,0,1,0,57.326,40,16.845,16.845,0,0,0,40.5,56.826ZM57.326,42.243A14.582,14.582,0,1,1,42.743,56.826,14.6,14.6,0,0,1,57.326,42.243Zm0,0" transform="translate(-35.513 -35.513)" fill="#fff" stroke="#45596d" stroke-width="0.7"/>
      <path id="Path_794" data-name="Path 794" d="M95.243,101.756l4.348,4.284-1,6.021a1.122,1.122,0,0,0,1.623,1.18l5.417-2.813,5.417,2.813a1.122,1.122,0,0,0,1.623-1.18l-1-6.021,4.348-4.284a1.122,1.122,0,0,0-.62-1.908l-6.034-.908-2.73-5.46a1.122,1.122,0,0,0-2.006,0l-2.73,5.46-6.034.908a1.122,1.122,0,0,0-.62,1.908Zm7.565-.685a1.122,1.122,0,0,0,.836-.607l1.987-3.975,1.987,3.975a1.122,1.122,0,0,0,.836.607l4.392.661-3.165,3.118a1.124,1.124,0,0,0-.319.983l.728,4.382-3.943-2.047a1.121,1.121,0,0,0-1.034,0l-3.943,2.047.728-4.382a1.121,1.121,0,0,0-.319-.983l-3.165-3.118Zm0,0" transform="translate(-83.818 -82.443)" fill="#fff" stroke="#45596d" stroke-width="0.7"/>
      <path id="Path_795" data-name="Path 795" d="M182.743,1.122A1.122,1.122,0,1,1,181.622,0,1.122,1.122,0,0,1,182.743,1.122Zm0,0" transform="translate(-159.809)" fill="#fff" stroke="#45596d" stroke-width="0.7"/>
      <path id="Path_796" data-name="Path 796" d="M16.526,5.616a21.315,21.315,0,0,0-9.01,36.455L.758,53.982a1.122,1.122,0,0,0,1.2,1.652L9.636,54.04l2.7,7.6a1.121,1.121,0,0,0,2.032.179l7.447-13.093L29.26,61.82a1.121,1.121,0,0,0,.975.567c.033,0,.066,0,.1,0a1.123,1.123,0,0,0,.959-.742l2.7-7.6,7.675,1.594a1.122,1.122,0,0,0,1.2-1.652l-6.758-11.91A21.315,21.315,0,0,0,27.1,5.616a1.122,1.122,0,0,0-.555,2.174,19.069,19.069,0,1,1-9.463,0,1.122,1.122,0,1,0-.555-2.174Zm-2.9,52.964-2.2-6.212a1.122,1.122,0,0,0-1.285-.723L3.933,52.933l5.348-9.426A21.358,21.358,0,0,0,19.932,47.5Zm19.859-6.935a1.122,1.122,0,0,0-1.285.723L30,58.58,23.694,47.5a21.36,21.36,0,0,0,10.651-3.99l5.348,9.426Zm0,0" transform="translate(0 -4.955)" fill="#fff" stroke="#45596d" stroke-width="0.7"/>
    </g>
  </g>
</svg>
