<svg xmlns="http://www.w3.org/2000/svg" width="72.264" height="72.264" viewBox="0 0 72.264 72.264">
  <g id="Group_2_icons_-_not_selected_5" data-name="Group 2 icons - not selected 5" transform="translate(18357.592 -3423.147)">
    <g id="Group_940" data-name="Group 940">
      <circle id="Ellipse_260" data-name="Ellipse 260" cx="36.132" cy="36.132" r="36.132" transform="translate(-18285.328 3423.147) rotate(90)" fill="#d0cabe"/>
      <g id="_OUTLINE" data-name=" OUTLINE" transform="translate(-18358.125 3424.997)">
        <path id="Path_1086" data-name="Path 1086" d="M256.232,248a8.232,8.232,0,1,0,8.232,8.232A8.232,8.232,0,0,0,256.232,248Zm-3.43,14.169V261.4a3.432,3.432,0,0,1,1.764-3l1.666-.925,1.666.925a3.432,3.432,0,0,1,1.764,3v.771A6.835,6.835,0,0,1,252.8,262.169Zm2.058-7.834v-.847a1.372,1.372,0,1,1,2.744,0v.847a1.373,1.373,0,0,1-.706,1.2l-.666.37-.666-.37a1.373,1.373,0,0,1-.706-1.2Zm6.166,6.8a4.8,4.8,0,0,0-2.462-3.932l-.921-.512a2.745,2.745,0,0,0,1.333-2.353v-.847a2.744,2.744,0,1,0-5.488,0v.847a2.746,2.746,0,0,0,1.333,2.353l-.921.512a4.8,4.8,0,0,0-2.462,3.932,6.86,6.86,0,1,1,9.588,0Z" transform="translate(-213.667 -212.93)" fill="#aba28b"/>
        <path id="Path_1087" data-name="Path 1087" d="M308.487,27.852a2.035,2.035,0,0,0,1.791,1.044H321.9a2.058,2.058,0,0,0,1.765-3.117L317.851,16.1a2.058,2.058,0,0,0-3.53,0l-5.809,9.681A2.035,2.035,0,0,0,308.487,27.852Zm1.2-1.367L315.5,16.8h0a.686.686,0,0,1,1.176,0l5.809,9.681a.686.686,0,0,1-.588,1.039H310.278a.686.686,0,0,1-.588-1.039Z" transform="translate(-268.719)" fill="#aba28b"/>
        <rect id="Rectangle_330" data-name="Rectangle 330" width="1.372" height="4.802" transform="translate(46.681 18.606)" fill="#aba28b"/>
        <rect id="Rectangle_331" data-name="Rectangle 331" width="1.372" height="1.372" transform="translate(46.681 24.78)" fill="#aba28b"/>
        <path id="Path_1088" data-name="Path 1088" d="M55.6,46.292V41.96l-2.051-.372-.622-1.935,1.442-1.519-2.522-3.509-1.878.92-1.62-1.19.282-2.066-4.09-1.344-.976,1.843h-2l-.976-1.843-2.227.732a9.6,9.6,0,1,0-6.335,7.792l.175.185-.622,1.935-2.051.372v1.48H27.648L27.3,41.5,23.5,40.276,22.06,41.645l-1.932-1.389L21,38.479l-2.352-3.2-1.953.267-.735-2.238,1.739-.92V28.425L15.958,27.5l.735-2.238,1.953.267L21,22.333l-.87-1.776,1.932-1.389L23.5,20.536l3.794-1.22.353-1.944h2.394l.353,1.944,3.794,1.22,1.442-1.368,1.932,1.389-.87,1.776,1.9,2.59,1.106-.812L38.291,22.19,39.3,20.119,35.51,17.391l-1.675,1.59L31.6,18.262,31.188,16H26.5l-.41,2.262-2.236.719-1.675-1.59-3.795,2.728L19.4,22.19l-1.377,1.874-2.277-.311-1.453,4.423,2.032,1.075v2.31l-2.032,1.075,1.453,4.423,2.277-.311L19.4,38.622l-1.014,2.071,3.795,2.728,1.675-1.59,2.236.719.41,2.262h3.029v1.48l2.051.372L32.2,48.6l-1.442,1.519,2.522,3.509,1.878-.92,1.62,1.19L36.5,55.963l4.09,1.344.976-1.843h2l.976,1.843,4.09-1.344L48.347,53.9l1.62-1.19,1.878.92,2.522-3.509L52.926,48.6l.622-1.935ZM20.613,30.406a8.232,8.232,0,1,1,16.276,1.756l-.387.127.282,2.066-1.62,1.19-1.132-.554a7.483,7.483,0,0,0-3.546-4.462,2.729,2.729,0,0,0,1.1-2.2V26.29a2.744,2.744,0,1,0-5.488,0v2.037a2.729,2.729,0,0,0,1.1,2.2,7.5,7.5,0,0,0-3.828,6.025A8.214,8.214,0,0,1,20.613,30.406Zm9.6-4.116v2.037a1.365,1.365,0,0,1-.863,1.274l-.509.2-.51-.2a1.366,1.366,0,0,1-.862-1.274V26.29a1.372,1.372,0,1,1,2.744,0ZM28.845,38.638a8.181,8.181,0,0,1-4.116-1.105v-.424a6.144,6.144,0,0,1,3.881-5.732l.235-.094.235.094a6.132,6.132,0,0,1,3.643,4.031l-1.961,2.727.214.225A8.225,8.225,0,0,1,28.845,38.638Zm23.746,11.6-1.183,1.646-1.584-.775-2.947,2.165.238,1.742-1.9.626-.821-1.551H40.741l-.821,1.551-1.9-.626.238-1.742-2.947-2.165-1.584.775L32.54,50.239l1.22-1.286-1.123-3.492L30.9,45.146v-2.04l1.734-.314L33.76,39.3l-1.22-1.286,1.183-1.646,1.584.776,2.947-2.165-.238-1.742,1.9-.626.821,1.551H44.39l.821-1.551,1.9.626-.238,1.742,2.947,2.165,1.584-.775,1.183,1.646L51.371,39.3l1.123,3.492,1.734.314v2.04l-1.734.314-1.123,3.492Z" transform="translate(0 -0.824)" fill="#aba28b"/>
        <path id="Path_1089" data-name="Path 1089" d="M84.873,347.952l.687-1.188a15.8,15.8,0,0,1-6.139-6.436l-1.219.63a17.171,17.171,0,0,0,6.671,6.994Z" transform="translate(-58.429 -297.341)" fill="#aba28b"/>
        <path id="Path_1090" data-name="Path 1090" d="M173.235,423.32l-.572,1.247a17.1,17.1,0,0,0,2.144.814l.4-1.313A15.719,15.719,0,0,1,173.235,423.32Z" transform="translate(-144.79 -373.216)" fill="#aba28b"/>
        <path id="Path_1091" data-name="Path 1091" d="M18.633,279.182l-1.365.14a20.589,20.589,0,0,0,.332,2.129l1.343-.283a19.251,19.251,0,0,1-.31-1.987Z" transform="translate(-2.72 -241.438)" fill="#aba28b"/>
        <path id="Path_1092" data-name="Path 1092" d="M26.569,317.8l-1.319.378a20.727,20.727,0,0,0,7.293,10.678,20.392,20.392,0,0,0,12.494,4.225v-1.372a19.031,19.031,0,0,1-11.66-3.943,19.346,19.346,0,0,1-6.808-9.966Z" transform="translate(-10.017 -276.743)" fill="#aba28b"/>
      </g>
    </g>
  </g>
</svg>
