<svg xmlns="http://www.w3.org/2000/svg" width="84.264" height="84.264" viewBox="0 0 84.264 84.264">
  <g id="Group_2_icons_-_selected_7" data-name="Group 2 icons - selected 7" transform="translate(18165.41 -3517.894)">
    <circle id="Ellipse_405" data-name="Ellipse 405" cx="42.132" cy="42.132" r="42.132" transform="translate(-18081.146 3517.894) rotate(90)" fill="#903"/>
    <g id="Group_934" data-name="Group 934" transform="translate(-18150.09 3532.146)">
      <path id="Path_1094" data-name="Path 1094" d="M44.243,35.794a8.41,8.41,0,0,0-2.535.389V24.811h2.535a4.229,4.229,0,0,0,4.224-4.224V13.333l3.977-3.977a.845.845,0,0,0-.6-1.442H48.467V6.224A4.229,4.229,0,0,0,44.243,2H24.811a4.229,4.229,0,0,0-4.224,4.224v5.914H6.224A4.229,4.229,0,0,0,2,16.363v24.5A4.231,4.231,0,0,0,5.655,45.05L2.106,51.437a.844.844,0,0,0,1.133,1.157l14.178-7.506h18.42a8.448,8.448,0,1,0,8.405-9.293ZM22.277,6.224A2.538,2.538,0,0,1,24.811,3.69H44.243a2.538,2.538,0,0,1,2.535,2.535V8.759a.845.845,0,0,0,.845.845h2.185l-2.782,2.782a.843.843,0,0,0-.248.6v7.6a2.538,2.538,0,0,1-2.535,2.535H41.708V16.363a4.229,4.229,0,0,0-4.224-4.224H22.277ZM17.207,43.4a.848.848,0,0,0-.4.1L4.966,49.767l2.841-5.114A.845.845,0,0,0,7.069,43.4H6.224A2.538,2.538,0,0,1,3.69,40.863v-24.5a2.538,2.538,0,0,1,2.535-2.535h31.26a2.538,2.538,0,0,1,2.535,2.535V36.937A8.454,8.454,0,0,0,35.837,43.4ZM44.243,51A6.759,6.759,0,1,1,51,44.243,6.767,6.767,0,0,1,44.243,51Z" fill="#fff"/>
      <path id="Path_1095" data-name="Path 1095" d="M29,6H48.432V7.69H29Z" transform="translate(-4.189 -0.621)" fill="#fff"/>
      <path id="Path_1096" data-name="Path 1096" d="M29,10H48.432v1.69H29Z" transform="translate(-4.189 -1.241)" fill="#fff"/>
      <path id="Path_1097" data-name="Path 1097" d="M8,20H37.57v1.69H8Z" transform="translate(-0.931 -2.793)" fill="#fff"/>
      <path id="Path_1098" data-name="Path 1098" d="M8,25h6.759v1.69H8Z" transform="translate(-0.931 -3.568)" fill="#fff"/>
      <path id="Path_1099" data-name="Path 1099" d="M18,25H39.121v1.69H18Z" transform="translate(-2.482 -3.568)" fill="#fff"/>
      <path id="Path_1100" data-name="Path 1100" d="M8,30H21.518v1.69H8Z" transform="translate(-0.931 -4.344)" fill="#fff"/>
      <path id="Path_1101" data-name="Path 1101" d="M26,30H40.363v1.69H26Z" transform="translate(-3.723 -4.344)" fill="#fff"/>
      <path id="Path_1102" data-name="Path 1102" d="M8,35h7.6v1.69H8Z" transform="translate(-0.931 -5.12)" fill="#fff"/>
      <path id="Path_1103" data-name="Path 1103" d="M19,35H29.983v1.69H19Z" transform="translate(-2.637 -5.12)" fill="#fff"/>
      <path id="Path_1104" data-name="Path 1104" d="M35,35h6.759v1.69H35Z" transform="translate(-5.12 -5.12)" fill="#fff"/>
      <path id="Path_1105" data-name="Path 1105" d="M8,40H20.673v1.69H8Z" transform="translate(-0.931 -5.896)" fill="#fff"/>
      <path id="Path_1106" data-name="Path 1106" d="M25,40H40.207v1.69H25Z" transform="translate(-3.568 -5.896)" fill="#fff"/>
      <path id="Path_1107" data-name="Path 1107" d="M8,45h3.379v1.69H8Z" transform="translate(-0.931 -6.671)" fill="#fff"/>
      <path id="Path_1108" data-name="Path 1108" d="M26,45H40.363v1.69H26Z" transform="translate(-3.723 -6.671)" fill="#fff"/>
      <path id="Path_1109" data-name="Path 1109" d="M22,45h1.69v1.69H22Z" transform="translate(-3.103 -6.671)" fill="#fff"/>
      <path id="Path_1110" data-name="Path 1110" d="M18,45h1.69v1.69H18Z" transform="translate(-2.482 -6.671)" fill="#fff"/>
      <path id="Path_1111" data-name="Path 1111" d="M14,45h1.69v1.69H14Z" transform="translate(-1.862 -6.671)" fill="#fff"/>
      <path id="Path_1112" data-name="Path 1112" d="M49.58,52.765l-1.092-1.092-1.195,1.195,1.69,1.69a.844.844,0,0,0,1.195,0l5.069-5.069-1.195-1.195Z" transform="translate(-7.027 -7.182)" fill="#fff"/>
    </g>
  </g>
</svg>
