<svg xmlns="http://www.w3.org/2000/svg" width="72.264" height="72.264" viewBox="0 0 72.264 72.264">
  <g id="Group_6_icons_-_not_selected_1" data-name="Group 6 icons - not selected 1" transform="translate(18596.965 -2377.642)">
    <circle id="Ellipse_270" data-name="Ellipse 270" cx="36.132" cy="36.132" r="36.132" transform="translate(-18524.701 2377.642) rotate(90)" fill="#d0cabe"/>
    <path id="Path_1254" data-name="Path 1254" d="M27.7,24.681h2.771a.569.569,0,0,0,.569-.569V15.929a.569.569,0,0,0-.569-.569H27.7a.569.569,0,0,0-.569.569v8.182a.569.569,0,0,0,.569.569Zm.569-8.182H29.9v7.044H28.267Zm4.428,8.182h2.771a.569.569,0,0,0,.569-.569V13.428a.569.569,0,0,0-.569-.569H32.695a.569.569,0,0,0-.569.569V24.111A.569.569,0,0,0,32.695,24.681ZM33.264,14H34.9v9.544H33.264ZM22.132,18.429v5.682a.569.569,0,0,0,.569.569h2.771a.569.569,0,0,0,.569-.569V18.429a.569.569,0,0,0-.569-.569H22.7a.569.569,0,0,0-.569.569ZM23.27,19H24.9v4.544H23.27Zm6.382,10.912a.569.569,0,0,1-.569.569H22.7a.569.569,0,0,1,0-1.138h6.382A.569.569,0,0,1,29.653,29.911Zm6.382-2.793a.569.569,0,0,1-.569.569H22.7a.569.569,0,0,1,0-1.138H35.466A.569.569,0,0,1,36.035,27.118Zm5.3.87a1.864,1.864,0,0,1,1.408-1.756l-.007-.277a.569.569,0,1,1,1.138-.027l.008.316a2.14,2.14,0,0,1,1.174.751.569.569,0,0,1-.951.625,1.43,1.43,0,0,0-.782-.329.711.711,0,1,0,0,1.394,1.918,1.918,0,0,1,1.987,1.836,1.863,1.863,0,0,1-1.407,1.756l.006.231a.569.569,0,0,1-.555.583h-.014a.569.569,0,0,1-.569-.556l-.006-.248a2.34,2.34,0,0,1-1.019-.63.569.569,0,0,1,.781-.828,1,1,0,0,0,.8.389.711.711,0,1,0,0-1.394,1.918,1.918,0,0,1-1.987-1.835Zm6.218,8.287h-5.7V34.888a5.844,5.844,0,1,0,0-11.313V9.565A.569.569,0,0,0,41.285,9H21.906a.569.569,0,0,0-.4.167l-5.025,5.025a.569.569,0,0,0-.167.4V33.581l-1.893,1.893a1.508,1.508,0,0,0,0,2.131l1.815,1.815L9.516,46.139a1.776,1.776,0,0,0,2.511,2.511l6.719-6.719,1.815,1.815a1.508,1.508,0,0,0,2.131,0L25.1,41.338a1.507,1.507,0,0,0,.232-.3H37.717a1.863,1.863,0,0,0-.236.913v1.544a1.837,1.837,0,0,0,.426,1.187,1.837,1.837,0,0,0-.426,1.187v1.544A1.692,1.692,0,0,0,39.1,49.169h8.46a1.692,1.692,0,0,0,1.614-1.757V45.868a1.838,1.838,0,0,0-.426-1.187,1.838,1.838,0,0,0,.426-1.187V41.95a1.838,1.838,0,0,0-.426-1.187,1.838,1.838,0,0,0,.426-1.187V38.032a1.692,1.692,0,0,0-1.614-1.757Zm.475,1.757v1.544a.569.569,0,0,1-.475.618H39.095a.569.569,0,0,1-.475-.618V38.032a.569.569,0,0,1,.475-.618h8.46A.569.569,0,0,1,48.031,38.032Zm-.475,3.3a.569.569,0,0,1,.475.618v1.544a.569.569,0,0,1-.475.618H39.1a.569.569,0,0,1-.475-.618V41.95a.569.569,0,0,1,.475-.618h8.461Zm.475-12.1a4.706,4.706,0,1,1-4.706-4.706A4.711,4.711,0,0,1,48.031,29.231ZM40.716,24a5.84,5.84,0,0,0,0,10.454v1.817H39.1a1.692,1.692,0,0,0-1.614,1.757v1.544a1.908,1.908,0,0,0,.028.323H25.492a1.494,1.494,0,0,0-.392-.69l-6.142-6.142a1.507,1.507,0,0,0-1.507-.374V15.159h4.455a.569.569,0,0,0,.569-.569V10.135h18.24Zm-17.71,14.72-2.929,2.929-3.565-3.565,2.929-2.929Zm-4.75-24.7,3.081-3.081v3.081ZM15.224,36.279l2.408-2.408a.369.369,0,0,1,.521,0l.483.483-2.929,2.929-.483-.483a.369.369,0,0,1,0-.521Zm-4,11.566a.637.637,0,1,1-.9-.9l6.719-6.719.9.9Zm13.073-7.312-2.408,2.408a.369.369,0,0,1-.521,0l-.483-.483,2.929-2.929.483.483a.37.37,0,0,1,0,.521Zm23.736,6.879a.569.569,0,0,1-.475.618H39.1a.569.569,0,0,1-.475-.618V45.868a.569.569,0,0,1,.475-.618h8.46a.569.569,0,0,1,.475.618ZM26.466,46h-7.64a1.9,1.9,0,0,0-1.9,1.9v.7a.569.569,0,0,0,.569.569H27.793a.569.569,0,0,0,.569-.569v-.7A1.9,1.9,0,0,0,26.466,46Zm.757,2.026H18.069V47.9a.758.758,0,0,1,.757-.757h7.64a.758.758,0,0,1,.757.757v.13Z" transform="translate(-18592.031 2383.205)" fill="#aba28b"/>
  </g>
</svg>
