<svg xmlns="http://www.w3.org/2000/svg" width="90.491" height="90.49" viewBox="0 0 90.491 90.49">
  <g id="Group_1350" data-name="Group 1350" transform="translate(7065 -18062.67)">
    <circle id="Ellipse_32" data-name="Ellipse 32" cx="45.245" cy="45.245" r="45.245" transform="translate(-6974.509 18062.67) rotate(90)" fill="#45596d"/>
    <g id="_x31_7_Care" transform="translate(-7049.841 18077.301)">
      <g id="Care" transform="translate(6 6)">
        <path id="Path_768" data-name="Path 768" d="M53.9,304.814a3.4,3.4,0,0,0-3.974-.937l-4.906,2.16a.73.73,0,1,0,.588,1.337l4.906-2.16a1.938,1.938,0,0,1,2.262.533,1.93,1.93,0,0,1-.4,2.827l-2.8,1.906a26.222,26.222,0,0,1-14.726,4.506h-5.44a15.528,15.528,0,0,1-6.908-1.635l-.087-.044a16.633,16.633,0,0,0-7.489-1.746l-.656,0V301.2a15.681,15.681,0,0,0,4.589-1.341,4.735,4.735,0,0,1,2.032-.452,4.807,4.807,0,0,1,2.139.505l5.651,2.826a.73.73,0,0,0,.327.077H33.98a2.677,2.677,0,1,1,0,5.355h-5.16a.73.73,0,1,0,0,1.46h9.569a9.883,9.883,0,0,0,4.064-.868.73.73,0,1,0-.6-1.333,8.43,8.43,0,0,1-3.467.741H37.132a4.136,4.136,0,0,0-3.153-6.815H29.187l-5.5-2.749a6.276,6.276,0,0,0-2.792-.659,6.185,6.185,0,0,0-2.654.591,14.188,14.188,0,0,1-3.988,1.19A4.144,4.144,0,0,0,10.138,296h-1.7A2.437,2.437,0,0,0,6,298.434v3.651a.73.73,0,0,0,1.46,0v-3.651a.975.975,0,0,1,.974-.974h1.7a2.68,2.68,0,0,1,2.677,2.677V312.3s0,0,0,.005,0,0,0,0h0a2.68,2.68,0,0,1-2.677,2.678h-1.7a.975.975,0,0,1-.974-.974v-8.519a.73.73,0,0,0-1.46,0v8.519a2.437,2.437,0,0,0,2.434,2.434h1.7a4.144,4.144,0,0,0,4.074-3.421l.728,0h.083a15.151,15.151,0,0,1,6.745,1.592l.087.044a17,17,0,0,0,7.561,1.789h5.44A27.681,27.681,0,0,0,50.4,311.689l2.8-1.908a3.39,3.39,0,0,0,.7-4.967Z" transform="translate(-6 -267.765)" fill="#fff" stroke="#aba28b" stroke-width="0.2"/>
        <path id="Path_769" data-name="Path 769" d="M52.251,6h-1.7a4.144,4.144,0,0,0-4.074,3.421l-.728,0a15.118,15.118,0,0,1-6.828-1.592l-.087-.044A17,17,0,0,0,31.268,6h-5.44a27.68,27.68,0,0,0-15.546,4.758l-2.8,1.908a3.391,3.391,0,0,0,3.276,5.9l4.906-2.16a.73.73,0,1,0-.588-1.337l-4.906,2.16A1.938,1.938,0,0,1,7.909,16.7a1.93,1.93,0,0,1,.4-2.827l2.8-1.906A26.223,26.223,0,0,1,25.829,7.46h5.44A15.528,15.528,0,0,1,38.176,9.1l.087.044a16.636,16.636,0,0,0,7.489,1.746l.656,0V21.245a15.681,15.681,0,0,0-4.589,1.341,4.735,4.735,0,0,1-2.032.452,4.807,4.807,0,0,1-2.139-.505L32,19.708a.73.73,0,0,0-.327-.077H26.7a2.677,2.677,0,0,1,0-5.355h5.16a.73.73,0,1,0,0-1.46H22.3a9.883,9.883,0,0,0-4.064.868.73.73,0,0,0,.6,1.333,8.431,8.431,0,0,1,3.467-.741h1.256A4.136,4.136,0,0,0,26.7,21.091H31.5L37,23.84a6.276,6.276,0,0,0,2.792.659,6.185,6.185,0,0,0,2.654-.591,14.189,14.189,0,0,1,3.988-1.19,4.144,4.144,0,0,0,4.118,3.728h1.7a2.437,2.437,0,0,0,2.434-2.434V8.434A2.437,2.437,0,0,0,52.251,6Zm.974,18.012a.975.975,0,0,1-.974.974h-1.7a2.68,2.68,0,0,1-2.677-2.677V10.149s0,0,0-.005,0,0,0,0h0A2.68,2.68,0,0,1,50.547,7.46h1.7a.975.975,0,0,1,.974.974Z" transform="translate(-6.003 -6)" fill="#fff" stroke="#aba28b" stroke-width="0.2"/>
        <path id="Path_770" data-name="Path 770" d="M167.4,189.058a3.656,3.656,0,0,0-3.943-3.334,4.632,4.632,0,0,0-4.143,3.671,4.581,4.581,0,0,0-.653-.666l.553-1.79a4.63,4.63,0,0,0-3.054-5.784A3.654,3.654,0,0,0,152.2,182.4a4.037,4.037,0,0,0-4.742-.3,3.189,3.189,0,0,0-.959,4.406,4.011,4.011,0,0,0,5.539,1.205l.192-.123a4.624,4.624,0,0,0,.838.912,3.652,3.652,0,0,0-1.049,4.634,4.618,4.618,0,0,0,6.249,1.931l1.9-1a1.45,1.45,0,0,0,.7.182q.061,0,.123-.005l2.183-.182a4.625,4.625,0,0,0,4.224-4.994Zm-16.148-2.581a2.551,2.551,0,0,1-3.52-.766,1.73,1.73,0,0,1,.52-2.388,2.565,2.565,0,0,1,3.285.456,4.6,4.6,0,0,0,.055,2.481Zm1.739-2.48a2.191,2.191,0,0,1,2.74-1.446,3.168,3.168,0,0,1,2.089,3.957l-.342,1.106-1.427-2.7a.73.73,0,1,0-1.292.682l1.093,2.07a4.562,4.562,0,0,0-1.207.12A3.177,3.177,0,0,1,152.988,184Zm2.7,8.329,2.92.9-1.024.541a3.164,3.164,0,0,1-4.276-1.321,2.191,2.191,0,0,1,.915-2.96,3.164,3.164,0,0,1,4.276,1.321l.541,1.024-2.92-.9a.73.73,0,1,0-.431,1.4Zm10.253-3.146a3.164,3.164,0,0,1-2.89,3.417l-1.154.1,1.974-2.334a.73.73,0,0,0-1.115-.943l-1.974,2.334-.1-1.154a3.168,3.168,0,0,1,2.89-3.417q.093-.008.186-.008a2.191,2.191,0,0,1,2.179,2.009Z" transform="translate(-132.363 -163.953)" fill="#fff" stroke="#aba28b" stroke-width="0.2"/>
      </g>
    </g>
  </g>
</svg>
