<svg xmlns="http://www.w3.org/2000/svg" width="84.264" height="84.264" viewBox="0 0 84.264 84.264">
  <g id="Group_2_icons_-_selected_3" data-name="Group 2 icons - selected 3" transform="translate(18552.41 -3517.894)">
    <circle id="Ellipse_401" data-name="Ellipse 401" cx="42.132" cy="42.132" r="42.132" transform="translate(-18468.146 3517.894) rotate(90)" fill="#903"/>
    <g id="Group_946" data-name="Group 946">
      <path id="Path_1731" data-name="Path 1731" d="M22.385,45.936a2.32,2.32,0,1,0,2.32,2.32A2.323,2.323,0,0,0,22.385,45.936Zm0,2.995a.674.674,0,1,1,.674-.674A.675.675,0,0,1,22.385,48.931Zm0-18.085a2.565,2.565,0,0,0-2.7,2.587c0,.019,0,.038,0,.057L20.4,43.836a1.989,1.989,0,0,0,3.973,0l.713-10.347c0-.019,0-.038,0-.057a2.566,2.566,0,0,0-2.7-2.587Zm.342,12.9c0,.019,0,.038,0,.057,0,.179-.115.27-.341.27s-.341-.091-.341-.27c0-.019,0-.038,0-.057l-.712-10.34c.017-.89.948-.917,1.055-.917s1.038.026,1.055.917ZM49.569,28.537a22.325,22.325,0,0,0,.636-5.3A22.238,22.238,0,0,0,12.242,7.513a22.236,22.236,0,0,0,.523,31.954L6.748,49.508a2.222,2.222,0,0,0,1.908,3.367H36.114a2.233,2.233,0,0,0,1.845-.986A13.048,13.048,0,1,0,49.569,28.537Zm-1.552-.591a13.059,13.059,0,0,0-8.6.32,7.6,7.6,0,0,1,1.178-2.225c.8-1.179,1.706-2.514.976-4.235a5.871,5.871,0,0,0-2.991-3.04,8.094,8.094,0,0,1-3-2.544c-.525-.731-1.319-2.105-.738-3.1C35.267,12.4,37.1,10.838,45,11.679a20.474,20.474,0,0,1,3.559,11.559A20.682,20.682,0,0,1,48.017,27.946ZM43.644,9.9c-5.606-.422-9.041.38-10.219,2.389-.78,1.331-.489,3.067.821,4.89A9.732,9.732,0,0,0,37.769,20.2a4.288,4.288,0,0,1,2.285,2.249c.363.856-.032,1.5-.823,2.668a7.285,7.285,0,0,0-1.592,4.009,13.082,13.082,0,0,0-6.34,9.163l-4.013-6.7c.278-1.364,1.134-1.631,2.116-1.936.709-.22,1.512-.47,1.782-1.291s-.123-1.811-1.4-3.546c-.289-.394-.549-.807-.8-1.206-.83-1.317-1.687-2.679-3.4-2.843a5.591,5.591,0,0,1-2.749-.972,3.976,3.976,0,0,0-4.24-.325c-1.292.5-1.808.562-3.162-1.615-.326-.524-.39-.948-.19-1.26a2.605,2.605,0,0,1,2.4-.679l.067.012a9.135,9.135,0,0,0,8.443-2.966q.021-.022.04-.045a4.8,4.8,0,0,0,.765-5.2A9.077,9.077,0,0,0,22.23,3.46,20.575,20.575,0,0,1,43.644,9.9Zm-24.1-5.452a7.863,7.863,0,0,1,5.917,3.937,3.14,3.14,0,0,1-.518,3.467,7.533,7.533,0,0,1-6.931,2.457c-.068-.012-.118-.021-.148-.025a4.074,4.074,0,0,0-4,1.423,2.684,2.684,0,0,0,.177,3.018c1.622,2.608,2.874,3.163,5.154,2.28a2.418,2.418,0,0,1,2.781.191,7.257,7.257,0,0,0,3.456,1.21c.867.083,1.363.808,2.166,2.082.267.424.543.862.867,1.3a5.411,5.411,0,0,1,1.154,2.031,4.121,4.121,0,0,1-.7.261,4.469,4.469,0,0,0-2.68,1.75L24,26.108a1.883,1.883,0,0,0-3.229,0l-1.805,3.012a8.053,8.053,0,0,1-.041-.9,3.5,3.5,0,0,0-1.9-3.546,16.106,16.106,0,0,1-3.859-3.12c-1.354-1.4-2.456-2.54-5.386-2.4a20.666,20.666,0,0,1,11.756-14.7ZM7.375,23.238a20.694,20.694,0,0,1,.143-2.421c2.444-.207,3.153.525,4.466,1.884A17.756,17.756,0,0,0,16.2,26.1c1.062.614,1.067,1.122,1.075,2.135A5.581,5.581,0,0,0,17.842,31L13.633,38.02A20.606,20.606,0,0,1,7.375,23.238ZM36.114,51.229H8.656a.576.576,0,0,1-.5-.875l14.022-23.4a.238.238,0,0,1,.405,0l8.563,14.29a13.047,13.047,0,0,0,5.417,9.77A.565.565,0,0,1,36.114,51.229Zm8.059.591a11.4,11.4,0,1,1,11.4-11.4A11.416,11.416,0,0,1,44.173,51.82Zm0-20.759a9.357,9.357,0,1,0,9.356,9.357A9.367,9.367,0,0,0,44.173,31.061Zm0,17.067a7.711,7.711,0,1,1,7.71-7.711A7.719,7.719,0,0,1,44.173,48.128Zm2.8-5.934A2.6,2.6,0,0,1,45,44.718v.771a.823.823,0,1,1-1.646,0v-.737A2.615,2.615,0,0,1,41.7,43.713a.823.823,0,0,1,1.334-.964.959.959,0,0,0,.774.4h.559a.954.954,0,0,0,0-1.908h-.4a2.6,2.6,0,0,1-.624-5.124v-.771a.823.823,0,1,1,1.646,0v.737a2.615,2.615,0,0,1,1.645,1.039.823.823,0,0,1-1.334.964.959.959,0,0,0-.774-.4h-.559a.954.954,0,0,0,0,1.908h.4A2.6,2.6,0,0,1,46.972,42.194Z" transform="translate(-18539.229 3528.473)" fill="#fff"/>
    </g>
  </g>
</svg>
