<svg xmlns="http://www.w3.org/2000/svg" width="72.264" height="72.264" viewBox="0 0 72.264 72.264">
  <g id="Group_2_icons_-_not_selected_8" data-name="Group 2 icons - not selected 8" transform="translate(18078.592 -3423.147)">
    <circle id="Ellipse_263" data-name="Ellipse 263" cx="36.132" cy="36.132" r="36.132" transform="translate(-18006.328 3423.147) rotate(90)" fill="#d0cabe"/>
    <g id="Group_511" data-name="Group 511" transform="translate(-18060.287 3436.943)">
      <path id="Path_1113" data-name="Path 1113" d="M29.972,19.451a3.455,3.455,0,0,0-2.3-1.593V6.587A3.3,3.3,0,0,0,24.38,3.292H18.925a1.313,1.313,0,0,0-1.135-.659h-.884a3.953,3.953,0,0,0-7.458,0H8.566a1.313,1.313,0,0,0-1.135.659H3.295A3.3,3.3,0,0,0,0,6.587V34.261a3.3,3.3,0,0,0,3.295,3.295h11.57c.03.062.055.126.089.186a3.438,3.438,0,0,0,3.035,1.79H36.049a3.438,3.438,0,0,0,3.031-1.791A3.522,3.522,0,0,0,39,34.135ZM26.356,6.587V17.858a3.414,3.414,0,0,0-1.318.555V7.246a1.318,1.318,0,0,0-1.318-1.318H19.108V4.61H24.38A1.977,1.977,0,0,1,26.356,6.587ZM8.566,3.951H9.949a.659.659,0,0,0,.646-.527,2.636,2.636,0,0,1,5.165,0,.659.659,0,0,0,.646.527H17.79V6.587H8.566ZM17.79,7.9a1.313,1.313,0,0,0,1.135-.659h4.8V20L15.353,33.6H3.953V7.246H7.431A1.313,1.313,0,0,0,8.566,7.9ZM3.295,36.238a1.977,1.977,0,0,1-1.977-1.977V6.587A1.977,1.977,0,0,1,3.295,4.61H7.248V5.928H3.953A1.318,1.318,0,0,0,2.636,7.246V33.6A1.318,1.318,0,0,0,3.953,34.92H14.669a3.492,3.492,0,0,0-.161,1.318Zm34.633.861a2.137,2.137,0,0,1-1.882,1.116H17.988A2.136,2.136,0,0,1,16.107,37.1a2.221,2.221,0,0,1,.047-2.275l9.027-14.682a2.144,2.144,0,0,1,3.67,0l9.027,14.684a2.22,2.22,0,0,1,.049,2.273Z" fill="#aba28b"/>
      <path id="Path_1114" data-name="Path 1114" d="M39.977,33A1.977,1.977,0,0,0,38,34.977v5.93a1.977,1.977,0,0,0,3.953,0v-5.93A1.977,1.977,0,0,0,39.977,33Zm.659,7.907a.659.659,0,0,1-1.318,0v-5.93a.659.659,0,1,1,1.318,0Z" transform="translate(-12.962 -11.258)" fill="#aba28b"/>
      <path id="Path_1115" data-name="Path 1115" d="M39.977,50a1.977,1.977,0,1,0,1.977,1.977A1.977,1.977,0,0,0,39.977,50Zm0,2.636a.659.659,0,1,1,.659-.659A.659.659,0,0,1,39.977,52.636Z" transform="translate(-12.962 -17.057)" fill="#aba28b"/>
      <path id="Path_1116" data-name="Path 1116" d="M19.659,18.318h8.566a.659.659,0,0,0,0-1.318H19.659a.659.659,0,1,0,0,1.318Z" transform="translate(-6.481 -5.801)" fill="#aba28b"/>
      <path id="Path_1117" data-name="Path 1117" d="M19.659,22.318h3.953a.659.659,0,1,0,0-1.318H19.659a.659.659,0,1,0,0,1.318Z" transform="translate(-6.481 -7.165)" fill="#aba28b"/>
      <path id="Path_1118" data-name="Path 1118" d="M19.659,29.318h8.566a.659.659,0,0,0,0-1.318H19.659a.659.659,0,1,0,0,1.318Z" transform="translate(-6.481 -9.553)" fill="#aba28b"/>
      <path id="Path_1119" data-name="Path 1119" d="M19.659,33.318h3.953a.659.659,0,1,0,0-1.318H19.659a.659.659,0,1,0,0,1.318Z" transform="translate(-6.481 -10.917)" fill="#aba28b"/>
      <path id="Path_1120" data-name="Path 1120" d="M19.659,40.318h4.612a.659.659,0,1,0,0-1.318H19.659a.659.659,0,1,0,0,1.318Z" transform="translate(-6.481 -13.305)" fill="#aba28b"/>
      <path id="Path_1121" data-name="Path 1121" d="M19.659,44.318h2.636a.659.659,0,0,0,0-1.318H19.659a.659.659,0,1,0,0,1.318Z" transform="translate(-6.481 -14.669)" fill="#aba28b"/>
      <path id="Path_1122" data-name="Path 1122" d="M9.193,19.146a.659.659,0,0,0,0,.932L10.511,21.4a.659.659,0,0,0,.466.193.632.632,0,0,0,.105-.009.659.659,0,0,0,.484-.356L14.2,15.953a.659.659,0,0,0-1.179-.589L10.8,19.818l-.671-.671a.659.659,0,0,0-.932,0Z" transform="translate(-3.07 -5.118)" fill="#aba28b"/>
      <path id="Path_1123" data-name="Path 1123" d="M13.907,26.069a.659.659,0,0,0-.884.3L10.8,30.818l-.671-.671a.659.659,0,1,0-.932.932L10.511,32.4a.659.659,0,0,0,.466.193.632.632,0,0,0,.105-.009.659.659,0,0,0,.484-.356L14.2,26.953A.659.659,0,0,0,13.907,26.069Z" transform="translate(-3.07 -8.87)" fill="#aba28b"/>
      <path id="Path_1124" data-name="Path 1124" d="M13.907,37.064a.659.659,0,0,0-.884.3L10.8,41.813l-.671-.671a.659.659,0,1,0-.932.932l1.318,1.318a.659.659,0,0,0,.466.2.632.632,0,0,0,.105-.009.659.659,0,0,0,.484-.356L14.2,37.951a.659.659,0,0,0-.3-.888Z" transform="translate(-3.07 -12.621)" fill="#aba28b"/>
    </g>
  </g>
</svg>
