<svg id="Group_1229" data-name="Group 1229" xmlns="http://www.w3.org/2000/svg" xmlns:xlink="http://www.w3.org/1999/xlink" width="279.137" height="277.172" viewBox="0 0 279.137 277.172">
  <defs>
    <clipPath id="clip-path">
      <rect id="Rectangle_578" data-name="Rectangle 578" width="279.137" height="277.171" fill="none" stroke="#707070" stroke-width="1"/>
    </clipPath>
  </defs>
  <g id="Group_1228" data-name="Group 1228" clip-path="url(#clip-path)">
    <path id="Path_1749" data-name="Path 1749" d="M178.479,144.922l-4.3-2.557c5.749-10.919,6.395-20.707,3.7-29.433-2.843-9.207-9.4-17.066-17.579-23.764l0,0a2.844,2.844,0,0,0-4.37,3.543,38.328,38.328,0,0,1,5.387,21.043,34.928,34.928,0,0,1-5.651,17.6l-4.877-2.9a2.838,2.838,0,0,0-4.282,2.51l.773,30.566a2.849,2.849,0,0,0,4.18,2.672l26.911-14.312a2.843,2.843,0,0,0,.111-4.958m-10.9-.863.011.05a2.823,2.823,0,0,0,1.316,1.745c.029.019.059.034.087.05l2.233,1.325-18.392,9.781-.53-21.043,2.377,1.421c.025.021.056.043.084.065a2.849,2.849,0,0,0,3.985-.581A40.772,40.772,0,0,0,166.988,114a42.724,42.724,0,0,0-1.015-11.212A36.271,36.271,0,0,1,172.44,114.6c2.438,7.881,1.57,16.905-4.453,27.217-.031.046-.059.089-.087.136a2.827,2.827,0,0,0-.318,2.1" transform="translate(8.811 5.318)" fill="#b81416" stroke="#b81416" stroke-width="1" fill-rule="evenodd"/>
    <path id="Path_1750" data-name="Path 1750" d="M215.684,99.912A84.558,84.558,0,0,0,190.62,60.763c-13.856-12.092-32.249-19.746-54.256-19.746s-40.4,7.66-54.252,19.745A84.575,84.575,0,0,0,57.045,99.916a85.506,85.506,0,0,0-1.06,46.495c4.723,17.923,15.684,34.662,33.819,46.919a33.972,33.972,0,0,1,8.943,8.718,31.565,31.565,0,0,1,4.241,8.639,10.657,10.657,0,0,0-1.53,18.108,10.237,10.237,0,0,0,3.1,15.735,10.462,10.462,0,0,0,8.621,16.407h3.152a17.721,17.721,0,0,0,2.505,5.114,19.739,19.739,0,0,0,6.194,5.635,22.773,22.773,0,0,0,22.665,0,2.327,2.327,0,0,0,.212-.136,19.681,19.681,0,0,0,5.983-5.5,17.651,17.651,0,0,0,2.5-5.114l3.155,0a10.477,10.477,0,0,0,8.621-16.407,10.263,10.263,0,0,0,3.1-15.735,10.891,10.891,0,0,0,1.235-1.06,10.632,10.632,0,0,0-2.764-17.051,31.683,31.683,0,0,1,4.232-8.64,34.086,34.086,0,0,1,8.943-8.718c18.135-12.258,29.1-29,33.819-46.917a85.516,85.516,0,0,0-1.055-46.495m-66.447,162.87a14,14,0,0,1-4.226,3.892c-.062.031-.124.061-.186.1a17.1,17.1,0,0,1-16.924,0,14.038,14.038,0,0,1-4.417-3.991,12.623,12.623,0,0,1-1.077-1.845l0,0h27.907a12.387,12.387,0,0,1-1.08,1.844m10.31-7.543h-46.37a4.778,4.778,0,0,1-.028-9.554h46.425a4.778,4.778,0,0,1-.028,9.554m3.9-15.249H109.274a4.563,4.563,0,1,1-.028-9.126h54.232a4.563,4.563,0,1,1-.028,9.126m6.476-19.8a4.957,4.957,0,0,1-4.946,4.97H107.749a4.958,4.958,0,0,1-.984-9.815c.1-.013.2-.032.295-.053a4.538,4.538,0,0,1,.689-.05h57.236a5.169,5.169,0,0,1,.689.05,2.485,2.485,0,0,0,.295.053,4.957,4.957,0,0,1,3.959,4.845m41.316-75.236c-4.388,16.644-14.594,32.22-31.5,43.643a39.682,39.682,0,0,0-10.433,10.188,37.233,37.233,0,0,0-5.164,10.763l-55.557,0a37.1,37.1,0,0,0-5.164-10.763A39.736,39.736,0,0,0,92.987,188.6c-16.9-11.426-27.11-27-31.5-43.647a79.8,79.8,0,0,1,.99-43.4A78.869,78.869,0,0,1,85.848,65.03C98.7,53.815,115.829,46.712,136.365,46.712s37.659,7.1,50.517,18.318a78.837,78.837,0,0,1,23.371,36.525,79.815,79.815,0,0,1,.99,43.4" transform="translate(3.204 2.467)" fill="#45596d" stroke="#45596d" stroke-width="1" fill-rule="evenodd"/>
    <path id="Path_1751" data-name="Path 1751" d="M61.091,166.223a2.845,2.845,0,0,0-1.75-2.871c-.446-.182-.884-.357-1.32-.524a2.575,2.575,0,0,0-.53-.212l-.005.005c-24.071-9.179-30.753,2.151-37.741,14.011-4.127,7.008-8.381,14.231-17.38,15.776A2.841,2.841,0,0,0,1.2,197.522a40.792,40.792,0,0,0,20.074,7.859A32.615,32.615,0,0,0,39,201.937a37.835,37.835,0,0,0,13.623-11.95A48.214,48.214,0,0,0,61.1,166.223ZM48,186.695A32.147,32.147,0,0,1,36.44,196.864a27.018,27.018,0,0,1-14.684,2.843,32.492,32.492,0,0,1-12.12-3.655c7.28-3.441,11.188-10.076,15-16.552,4.964-8.428,9.74-16.528,23.747-13.676a34.4,34.4,0,0,0-4.295,3.013A48.789,48.789,0,0,0,34.25,180.2a2.84,2.84,0,0,0,4.763,3.093l.005.008A43.441,43.441,0,0,1,47.7,173.251a26.7,26.7,0,0,1,7.336-4.336A41.764,41.764,0,0,1,48,186.695" transform="translate(0 9.579)" fill="#45596d" stroke="#45596d" stroke-width="1" fill-rule="evenodd"/>
    <path id="Path_1752" data-name="Path 1752" d="M266.241,193.565a2.842,2.842,0,0,0-1.835-1.153c-9-1.548-13.252-8.773-17.386-15.779-6.988-11.861-13.666-23.191-37.741-14.008a3.352,3.352,0,0,0-.53.2h0c-.435.171-.875.345-1.322.53a2.84,2.84,0,0,0-1.75,2.871h-.01a48.17,48.17,0,0,0,8.475,23.764,37.835,37.835,0,0,0,13.623,11.95,32.626,32.626,0,0,0,17.734,3.444,40.756,40.756,0,0,0,20.071-7.858,2.841,2.841,0,0,0,.669-3.961m-21.233,6.142a27.027,27.027,0,0,1-14.684-2.843,32.139,32.139,0,0,1-11.549-10.17,41.785,41.785,0,0,1-7.041-17.787,26.708,26.708,0,0,1,7.336,4.339,43.161,43.161,0,0,1,8.686,10.051c.015.024.031.048.047.071a2.84,2.84,0,0,0,4.717-3.165l0,0a48.7,48.7,0,0,0-9.846-11.364,34.4,34.4,0,0,0-4.295-3.013c14.01-2.849,18.783,5.251,23.747,13.676,3.814,6.473,7.724,13.111,15,16.552a32.492,32.492,0,0,1-12.12,3.655" transform="translate(12.37 9.579)" fill="#45596d" stroke="#45596d" stroke-width="1" fill-rule="evenodd"/>
    <path id="Path_1753" data-name="Path 1753" d="M156.236,85.926,130.958,69.033a2.839,2.839,0,0,0-4.477,2.19l-.221,5c-12.338.1-21.27,4.164-27.687,10.675-6.776,6.867-10.6,16.381-12.624,26.764a2.848,2.848,0,0,0,5.21,2.127A38.3,38.3,0,0,1,107.132,101.1a34.981,34.981,0,0,1,18.179-3.348l-.246,5.619a2.842,2.842,0,0,0,4.241,2.638l26.753-15.259a2.839,2.839,0,0,0,.177-4.825M130.968,98.507l.121-2.749c.005-.04.015-.084.021-.127a2.846,2.846,0,0,0-2.4-3.228,40.8,40.8,0,0,0-24.04,3.566,42.809,42.809,0,0,0-9.379,6.185l-.005.014-.005,0,.011-.01a36.321,36.321,0,0,1,7.338-11.281c5.8-5.887,14.192-9.393,26.186-8.94h.04a2.649,2.649,0,0,0,.318,0h.056l.061-.01a2.844,2.844,0,0,0,2.533-2.725,1.747,1.747,0,0,0,0-.182l.111-2.514,17.33,11.571Z" transform="translate(5.165 4.12)" fill="#b81416" stroke="#b81416" stroke-width="1" fill-rule="evenodd"/>
    <path id="Path_1754" data-name="Path 1754" d="M148.742,162.568a2.841,2.841,0,0,0-2.841-1.833,38.3,38.3,0,0,1-20.763-5.866,34.889,34.889,0,0,1-12.412-13.688h.011l4.952-2.773V138.4a2.838,2.838,0,0,0-.031-4.968l-27-14.689A2.841,2.841,0,0,0,86.4,121.11l-1.06,30.271a2.845,2.845,0,0,0,4.224,2.764l4.37-2.446c6.579,10.436,14.736,15.89,23.65,17.924,9.435,2.151,19.578.378,29.5-3.392a2.842,2.842,0,0,0,1.656-3.663M132.3,164.385a36.284,36.284,0,0,1-13.464-.31c-8.074-1.84-15.484-7.146-21.415-17.623a2.844,2.844,0,0,0-3.873-1.06c-.061.034-.124.074-.182.115l-.385.212v-.006l-1.787,1,.729-20.825,18.5,10.071-2.455,1.378-.05.021a2.843,2.843,0,0,0-1.61,3.425v.006l.006.021a2.732,2.732,0,0,0,.168.431,40.8,40.8,0,0,0,15.619,18.42,42.756,42.756,0,0,0,10.2,4.723l.016,0,0,.008-.018-.006" transform="translate(5.132 7.119)" fill="#b81416" stroke="#b81416" stroke-width="1" fill-rule="evenodd"/>
    <path id="Path_1755" data-name="Path 1755" d="M43.218,124.04H15.655a3.912,3.912,0,0,1,0-7.824H43.218a3.912,3.912,0,0,1,0,7.824" transform="translate(0.706 6.99)" fill="#45596d" stroke="#45596d" stroke-width="1"/>
    <path id="Path_1756" data-name="Path 1756" d="M55.134,79.733a3.888,3.888,0,0,1-2.014-.562L29.267,65.4a3.9,3.9,0,0,1,3.885-6.771L57.16,72.488a3.9,3.9,0,0,1-2.026,7.244" transform="translate(1.647 3.498)" fill="#45596d" stroke="#45596d" stroke-width="1"/>
    <path id="Path_1757" data-name="Path 1757" d="M87.527,47.224a3.917,3.917,0,0,1-3.352-1.892L70.381,21.439a3.9,3.9,0,0,1,6.753-3.921h0l13.8,23.9a3.91,3.91,0,0,1-3.406,5.809" transform="translate(4.203 0.938)" fill="#45596d" stroke="#45596d" stroke-width="1"/>
    <path id="Path_1758" data-name="Path 1758" d="M131.873,35.392a3.916,3.916,0,0,1-3.912-3.912V3.916a3.912,3.912,0,1,1,7.825,0V31.48a3.916,3.916,0,0,1-3.912,3.912" transform="translate(7.696 0)" fill="#45596d" stroke="#45596d" stroke-width="1"/>
    <path id="Path_1759" data-name="Path 1759" d="M176.977,47.234a3.858,3.858,0,0,1-1.908-.5,3.908,3.908,0,0,1-1.475-5.322l13.8-23.884a3.9,3.9,0,0,1,6.777,3.88l-.019.032-14.09,24.408h-.074a3.938,3.938,0,0,1-3.006,1.389" transform="translate(10.41 0.936)" fill="#45596d" stroke="#45596d" stroke-width="1"/>
    <path id="Path_1760" data-name="Path 1760" d="M210.01,79.708a3.9,3.9,0,0,1-1.964-7.279l23.878-13.782a3.9,3.9,0,0,1,3.911,6.755L211.956,79.184a3.883,3.883,0,0,1-1.946.522" transform="translate(12.395 3.498)" fill="#45596d" stroke="#45596d" stroke-width="1"/>
    <path id="Path_1761" data-name="Path 1761" d="M249.656,124.04H222.092a3.912,3.912,0,0,1-.006-7.824h27.57a3.912,3.912,0,0,1,0,7.824" transform="translate(13.122 6.99)" fill="#45596d" stroke="#45596d" stroke-width="1"/>
  </g>
</svg>
