<svg xmlns="http://www.w3.org/2000/svg" width="84.264" height="84.264" viewBox="0 0 84.264 84.264">
  <g id="Group_6_icons_-_selected_5" data-name="Group 6 icons - selected 5" transform="translate(18213.375 -2478.388)">
    <circle id="Ellipse_367" data-name="Ellipse 367" cx="42.132" cy="42.132" r="42.132" transform="translate(-18129.111 2478.388) rotate(90)" fill="#903"/>
    <g id="Group_923" data-name="Group 923" transform="translate(-18201.721 2490.044)">
      <path id="Path_1196" data-name="Path 1196" d="M59.579,24.284A22.721,22.721,0,0,0,37.254,2.008L36.808,2l-.495.009-.032,0h-.022A22.681,22.681,0,0,0,14.572,19.858a.948.948,0,0,0,.723,1.13.935.935,0,0,0,.682-.114c.016.013.024.032.041.044a.949.949,0,0,0,1.325-.218,16.23,16.23,0,0,1,7.311-5.14A36.167,36.167,0,0,0,23.6,22.3a.949.949,0,0,0,1.895.12,33.5,33.5,0,0,1,1.346-7.6,34.34,34.34,0,0,1,9.02-1.367V20.9a.949.949,0,1,0,1.9,0V13.45a34.367,34.367,0,0,1,9.015,1.365A34.607,34.607,0,0,1,48.2,24.779a34.592,34.592,0,0,1-1.444,10.029.931.931,0,0,0-.43,1.051.892.892,0,0,0,.059.125c-.044.126-.083.255-.129.381a.949.949,0,1,0,1.782.653c.092-.253.173-.505.257-.757a20.755,20.755,0,0,0,8.3-4.856A20.922,20.922,0,0,1,42.02,45a.949.949,0,0,0,.236,1.869.972.972,0,0,0,.237-.03A22.842,22.842,0,0,0,59.579,25.225l.009-.446Zm-2.958-6.111A20.842,20.842,0,0,0,48.29,13.3a20.693,20.693,0,0,0-4.9-8.342A20.812,20.812,0,0,1,56.621,18.173Zm-39.615.016A20.739,20.739,0,0,1,30.18,4.988,20.876,20.876,0,0,0,25.325,13.3a20.931,20.931,0,0,0-8.319,4.889Zm10.577-5.542C29.534,7.7,32.6,4.479,35.859,3.971v7.583a37.262,37.262,0,0,0-8.276,1.093ZM37.757,3.974c3.278.526,6.33,3.744,8.276,8.674a37.284,37.284,0,0,0-8.276-1.093ZM48.945,34a37.482,37.482,0,0,0,0-18.445c5.2,2.051,8.5,5.331,8.737,8.777l.009.446-.009.422c-.247,3.469-3.536,6.741-8.737,8.8Z" transform="translate(-0.638)" fill="#fff"/>
      <path id="Path_1197" data-name="Path 1197" d="M38.87,26.51A12.5,12.5,0,0,0,22.9,27.762l-.215-.215a12.374,12.374,0,0,0-17.2-.14A11.449,11.449,0,0,0,2,35.644a12.327,12.327,0,0,0,3.592,8.8l3.969,3.95.017.017L20.367,59.143a3.14,3.14,0,0,0,4.409.046L40.114,44.534A11.718,11.718,0,0,0,38.87,26.51ZM8.791,44.943a2.845,2.845,0,0,1,5.549.886v.949h-3.7Zm26.225,1.835H31.425v-.949a2.851,2.851,0,0,1,2.848-2.848,2.815,2.815,0,0,1,2.69,1.938ZM38.8,43.161l-.384.366a4.744,4.744,0,0,0-8.893,2.3v1.9a.949.949,0,0,0,.949.949h2.554l-9.565,9.14a1.25,1.25,0,0,1-1.758-.019l-9.164-9.121h2.746a.949.949,0,0,0,.949-.949v-1.9a4.747,4.747,0,0,0-8.888-2.32l-.418-.416A10.413,10.413,0,0,1,3.9,35.66a9.564,9.564,0,0,1,2.9-6.885A10.285,10.285,0,0,1,13.981,25.9h.14a10.277,10.277,0,0,1,7.225,3l.871.867a.949.949,0,0,0,1.326.013l.609-.582a10.611,10.611,0,0,1,13.6-1.151h0A9.82,9.82,0,0,1,38.8,43.161Z" transform="translate(0 -1.118)" fill="#fff"/>
      <path id="Path_1198" data-name="Path 1198" d="M23.746,42A4.751,4.751,0,0,0,19,46.744v1.9a.949.949,0,0,0,.949.949h7.593a.949.949,0,0,0,.949-.949v-1.9A4.751,4.751,0,0,0,23.746,42Zm2.848,5.7H20.9v-.949a2.848,2.848,0,1,1,5.7,0Z" transform="translate(-0.864 -2.033)" fill="#fff"/>
      <path id="Path_1199" data-name="Path 1199" d="M23.848,39.693A2.848,2.848,0,1,0,21,36.846,2.851,2.851,0,0,0,23.848,39.693Zm0-3.8a.949.949,0,1,1-.949.949A.95.95,0,0,1,23.848,35.9Z" transform="translate(-0.966 -1.626)" fill="#fff"/>
      <path id="Path_1200" data-name="Path 1200" d="M35.848,34A2.848,2.848,0,1,0,38.7,36.846,2.851,2.851,0,0,0,35.848,34Zm0,3.8a.949.949,0,1,1,.949-.949A.95.95,0,0,1,35.848,37.8Z" transform="translate(-1.576 -1.626)" fill="#fff"/>
      <path id="Path_1201" data-name="Path 1201" d="M11.848,34A2.848,2.848,0,1,0,14.7,36.846,2.851,2.851,0,0,0,11.848,34Zm0,3.8a.949.949,0,1,1,.949-.949A.95.95,0,0,1,11.848,37.8Z" transform="translate(-0.356 -1.626)" fill="#fff"/>
    </g>
  </g>
</svg>
