<svg xmlns="http://www.w3.org/2000/svg" width="84.264" height="84.264" viewBox="0 0 84.264 84.264">
  <g id="Group_1317" data-name="Group 1317" transform="translate(10787.231 -17456.104)">
    <g id="Group_4_icons_-_selected_2" data-name="Group 4 icons - selected 2" transform="translate(7719.495 14501.746)">
      <circle id="Ellipse_384" data-name="Ellipse 384" cx="42.132" cy="42.132" r="42.132" transform="translate(-18422.463 2954.357) rotate(90)" fill="#45596d"/>
      <g id="Group_925" data-name="Group 925" transform="translate(-18488.592 2965.6)">
        <path id="Path_1141" data-name="Path 1141" d="M33.754,51.864H7.519a1.636,1.636,0,0,1-1.65-1.658V20.293a.842.842,0,1,0-1.683,0V50.206a3.341,3.341,0,0,0,3.333,3.342H33.754a.842.842,0,1,0,0-1.683Z" transform="translate(0 -2.413)" fill="#fff"/>
        <path id="Path_1142" data-name="Path 1142" d="M44.467,34.424a.841.841,0,0,0,.842-.842V20.293a.842.842,0,0,0-1.683,0v13.29a.842.842,0,0,0,.842.842Z" transform="translate(-6.16 -2.413)" fill="#fff"/>
        <path id="Path_1143" data-name="Path 1143" d="M5.869,11.146v-.8A1.652,1.652,0,0,1,7.518,8.7H10.01v1.17a2.5,2.5,0,1,0,5.008,0V8.7h4.141v1.17a2.508,2.508,0,1,0,5.017,0V8.7h4.141v1.17a2.5,2.5,0,1,0,5.008,0V8.7h2.491a1.652,1.652,0,0,1,1.65,1.65v.8a.842.842,0,1,0,1.683,0,3.477,3.477,0,0,0-3.333-4.133H33.324a2.526,2.526,0,1,0-5.008-.539v.539H24.175a2.548,2.548,0,1,0-5.016,0H15.018a2.547,2.547,0,1,0-5.008,0H7.518a3.341,3.341,0,0,0-3.333,3.333v.8a.842.842,0,1,0,1.683,0ZM30,6.475a.822.822,0,0,1,1.641,0V9.866a.821.821,0,0,1-1.641,0Zm-9.157,0a.826.826,0,0,1,1.65,0V9.866a.826.826,0,0,1-1.65,0Zm-9.149,0a.822.822,0,0,1,1.641,0V9.866a.821.821,0,0,1-1.641,0Z" transform="translate(0 0)" fill="#fff"/>
        <path id="Path_1144" data-name="Path 1144" d="M38.307,15.457H5.027a.842.842,0,0,0,0,1.683H38.307a.842.842,0,1,0,0-1.683Z" transform="translate(0 -1.79)" fill="#fff"/>
        <path id="Path_1145" data-name="Path 1145" d="M12.589,24.233a2.591,2.591,0,1,0,2.591,2.591,2.591,2.591,0,0,0-2.591-2.591Zm0,3.5a.907.907,0,1,1,.907-.907.907.907,0,0,1-.907.907Z" transform="translate(-0.908 -3.16)" fill="#fff"/>
        <path id="Path_1146" data-name="Path 1146" d="M12.589,36.067a2.591,2.591,0,1,0,2.591,2.591,2.591,2.591,0,0,0-2.591-2.591Zm0,3.5a.907.907,0,1,1,.907-.907.907.907,0,0,1-.907.907Z" transform="translate(-0.908 -5.009)" fill="#fff"/>
        <path id="Path_1147" data-name="Path 1147" d="M12.589,47.9a2.591,2.591,0,1,0,2.591,2.591A2.591,2.591,0,0,0,12.589,47.9Zm0,3.5a.907.907,0,1,1,.907-.907.907.907,0,0,1-.907.907Z" transform="translate(-0.908 -6.857)" fill="#fff"/>
        <path id="Path_1148" data-name="Path 1148" d="M19.323,27.989H32.637a.842.842,0,1,0,0-1.683H19.323a.842.842,0,1,0,0,1.683Z" transform="translate(-2.233 -3.484)" fill="#fff"/>
        <path id="Path_1149" data-name="Path 1149" d="M36.028,38.985a.841.841,0,0,0-.842-.842H19.32a.842.842,0,0,0,0,1.683H35.187a.841.841,0,0,0,.842-.842Z" transform="translate(-2.233 -5.333)" fill="#fff"/>
        <path id="Path_1150" data-name="Path 1150" d="M19.323,49.974a.842.842,0,1,0,0,1.683h9.986a.842.842,0,1,0,0-1.683Z" transform="translate(-2.233 -7.181)" fill="#fff"/>
        <path id="Path_1151" data-name="Path 1151" d="M47.364,38.462a9.087,9.087,0,1,0,9.087,9.087,9.087,9.087,0,0,0-9.087-9.087Zm0,16.49a7.4,7.4,0,1,1,7.4-7.4,7.4,7.4,0,0,1-7.4,7.4Z" transform="translate(-5.325 -5.383)" fill="#fff"/>
        <path id="Path_1152" data-name="Path 1152" d="M53.581,47.61H49.732V45.085a.842.842,0,0,0-1.683,0v3.367a.841.841,0,0,0,.842.842h4.691a.842.842,0,1,0,0-1.683Z" transform="translate(-6.851 -6.286)" fill="#fff"/>
      </g>
    </g>
  </g>
</svg>
