<svg xmlns="http://www.w3.org/2000/svg" width="72.264" height="72.264" viewBox="0 0 72.264 72.264">
  <g id="Group_6_icons_-_not_selected_2" data-name="Group 6 icons - not selected 2" transform="translate(18507.965 -2377.642)">
    <circle id="Ellipse_363" data-name="Ellipse 363" cx="36.132" cy="36.132" r="36.132" transform="translate(-18435.701 2377.642) rotate(90)" fill="#d0cabe"/>
    <g id="layer1-0" transform="translate(-18491.141 2389.835)">
      <path id="path8049" d="M7.663,1.886a1.6,1.6,0,0,0-.759.879,1.873,1.873,0,0,1-.292.552,2.431,2.431,0,0,1-.963.62,2.454,2.454,0,0,1-1.12.26,1.878,1.878,0,0,1-.6-.178,1.761,1.761,0,0,0-1.161-.068,3.586,3.586,0,0,0-1.38.995,3.574,3.574,0,0,0-.978,1.39A1.769,1.769,0,0,0,.5,7.5a1.844,1.844,0,0,1,.187.588,2.4,2.4,0,0,1-.24,1.119,2.417,2.417,0,0,1-.6.969,1.662,1.662,0,0,1-.541.287,1.581,1.581,0,0,0-.88.76,3.442,3.442,0,0,0-.273,1.648,3.435,3.435,0,0,0,.271,1.648,1.581,1.581,0,0,0,.88.76,1.663,1.663,0,0,1,.541.287,2.416,2.416,0,0,1,.6.969,2.416,2.416,0,0,1,.24,1.119,1.85,1.85,0,0,1-.189.588,1.77,1.77,0,0,0-.088,1.167,3.58,3.58,0,0,0,.979,1.39,3.583,3.583,0,0,0,1.379.995,1.761,1.761,0,0,0,1.161-.068,1.884,1.884,0,0,1,.6-.178,2.449,2.449,0,0,1,1.119.26,2.439,2.439,0,0,1,.964.62,1.871,1.871,0,0,1,.291.552,1.6,1.6,0,0,0,.759.879,3.594,3.594,0,0,0,1.677.3,3.608,3.608,0,0,0,1.683-.266,1.648,1.648,0,0,0,.774-.869,1.866,1.866,0,0,1,.3-.547,1.966,1.966,0,0,1,.165-.156,3.884,3.884,0,0,0,.32,1.723,1.84,1.84,0,0,0,1.021.875,2.41,2.41,0,0,1,.734.4,3.234,3.234,0,0,1,.817,1.3,4.979,4.979,0,0,1,.176.5c-1.552-.166-3.417-.133-5.893-.127V26.27a.707.707,0,0,0-.708-.707H6.611a.707.707,0,0,0-.708-.705H-1.144a.707.707,0,0,0-.708.707V40.391a.707.707,0,0,0,.708.707H5.9a.707.707,0,0,0,.708-.705H8.725a.707.707,0,0,0,.708-.707v-.711h.707a3.414,3.414,0,0,1,1.535.661c.684.435,1.467,1.039,2.261,1.656s1.6,1.249,2.368,1.74a4.621,4.621,0,0,0,2.3.879H35.532a2.822,2.822,0,1,0,0-5.644h-6.72a2.79,2.79,0,0,0,0-2.827,2.339,2.339,0,0,0,.375-.614,2.525,2.525,0,0,1,.406-.74,3.286,3.286,0,0,1,1.307-.813,3.285,3.285,0,0,1,1.51-.317,2.527,2.527,0,0,1,.807.249,1.9,1.9,0,0,0,1.347.1,4.389,4.389,0,0,0,1.693-1.182,4.374,4.374,0,0,0,1.218-1.666,1.871,1.871,0,0,0-.077-1.349,2.518,2.518,0,0,1-.24-.807,3.239,3.239,0,0,1,.343-1.495,3.286,3.286,0,0,1,.843-1.291,2.9,2.9,0,0,1,.766-.416,2.082,2.082,0,0,0,1.021-.938,4.851,4.851,0,0,0,.343-2.116,4.851,4.851,0,0,0-.343-2.116,2.082,2.082,0,0,0-1.021-.938,2.9,2.9,0,0,1-.766-.416,3.286,3.286,0,0,1-.843-1.291,3.239,3.239,0,0,1-.343-1.495,2.519,2.519,0,0,1,.24-.807,2.006,2.006,0,0,0,.077-1.349,4.374,4.374,0,0,0-1.218-1.666,5.538,5.538,0,0,0-1.316-1.026l2.5-2.5a.7.7,0,0,0,0-1L33.916,3.911a.705.705,0,0,0-1.2.5V5.823H30.594a.705.705,0,0,0-.7.7v.4L28.466,8.363a1.625,1.625,0,0,0-.179-.109,4.4,4.4,0,0,0-2.04-.318,4.43,4.43,0,0,0-2.042.355,1.857,1.857,0,0,0-.88,1.025,2.51,2.51,0,0,1-.39.745,3.308,3.308,0,0,1-1.3.832,4.082,4.082,0,0,1-1.163.34c-.013-.029-.026-.067-.04-.1a1.678,1.678,0,0,0-.875-.807,2.2,2.2,0,0,1-.573-.313,2.439,2.439,0,0,1-.625-.963,2.408,2.408,0,0,1-.26-1.109,1.691,1.691,0,0,1,.178-.594,1.606,1.606,0,0,0,.068-1.166,3.571,3.571,0,0,0-1-1.375,3.572,3.572,0,0,0-1.4-.969,1.586,1.586,0,0,0-1.16.083,1.9,1.9,0,0,1-.6.187,2.442,2.442,0,0,1-1.124-.24,2.434,2.434,0,0,1-.974-.6,1.868,1.868,0,0,1-.3-.547,1.651,1.651,0,0,0-.776-.869,3.6,3.6,0,0,0-1.682-.266,3.594,3.594,0,0,0-1.677.3Zm2.723,1.229c.078.039.08.108.12.176a3.144,3.144,0,0,0,.526.907,3.852,3.852,0,0,0,1.51.984,3.885,3.885,0,0,0,1.776.339,3.13,3.13,0,0,0,1-.287c.073-.022.13-.073.214-.047a2.847,2.847,0,0,1,.822.635,2.855,2.855,0,0,1,.652.807c.027.081-.015.1-.043.208a3.131,3.131,0,0,0-.27,1.01,3.824,3.824,0,0,0,.369,1.761A3.88,3.88,0,0,0,18.077,11.1a3.344,3.344,0,0,0,.9.515c.15.08.137.043.187.146a3.142,3.142,0,0,1,.146,1.116,3.14,3.14,0,0,1-.146,1.116c-.05.1-.013.066-.187.146a3.345,3.345,0,0,0-.9.515,3.88,3.88,0,0,0-1.013,1.489A3.82,3.82,0,0,0,16.7,17.9a3.138,3.138,0,0,0,.269,1.01c.028.1.07.127.043.208a2.855,2.855,0,0,1-.652.807,2.847,2.847,0,0,1-.822.635c-.084.026-.14-.025-.214-.047a3.131,3.131,0,0,0-1-.287,3.885,3.885,0,0,0-1.776.339,3.852,3.852,0,0,0-1.51.984,3.147,3.147,0,0,0-.526.907c-.04.069-.042.137-.12.176a2.847,2.847,0,0,1-1.036.114,2.782,2.782,0,0,1-1.03-.135c-.078-.04-.081-.112-.118-.176a3.1,3.1,0,0,0-.506-.912A3.861,3.861,0,0,0,6.2,20.515a3.888,3.888,0,0,0-1.77-.369,3.134,3.134,0,0,0-1.01.27c-.184.071-.131.07-.215.043a2.887,2.887,0,0,1-.811-.652,2.84,2.84,0,0,1-.636-.817c-.027-.082-.028-.028.047-.209a3.132,3.132,0,0,0,.287-1,3.81,3.81,0,0,0-.337-1.765A3.851,3.851,0,0,0,.763,14.5a3.053,3.053,0,0,0-.917-.515c-.184-.078-.152-.084-.171-.11a2.693,2.693,0,0,1-.113-1,2.682,2.682,0,0,1,.114-1c.019-.026-.013-.032.171-.11a3.053,3.053,0,0,0,.917-.515,3.851,3.851,0,0,0,.989-1.51,3.813,3.813,0,0,0,.338-1.765,3.128,3.128,0,0,0-.287-1c-.075-.182-.073-.128-.047-.209a2.862,2.862,0,0,1,.636-.817,2.886,2.886,0,0,1,.811-.652c.083-.028.029-.029.214.043a3.133,3.133,0,0,0,1.01.27A3.887,3.887,0,0,0,6.2,5.234a3.861,3.861,0,0,0,1.495-1.01A3.094,3.094,0,0,0,8.2,3.312c.037-.064.042-.136.12-.176A2.78,2.78,0,0,1,9.35,3a2.845,2.845,0,0,1,1.036.114Zm23.738,3,1.823,1.823L34.123,9.765V9.348a.663.663,0,0,0-.705-.714H31.3v-1.4h2.113a.705.705,0,0,0,.708-.708ZM9.435,7.233a5.642,5.642,0,1,0,5.643,5.642A5.642,5.642,0,0,0,9.435,7.233Zm0,1.409A4.233,4.233,0,1,1,5.2,12.874,4.233,4.233,0,0,1,9.435,8.642Zm20.453.284v.411a.676.676,0,0,0,.705.719H32.71v1.4H30.6a.705.705,0,0,0-.708.7v.416l-1.823-1.828Zm-2.5.507-.821.816a.7.7,0,0,0,0,1L30.1,14.773a.705.705,0,0,0,1.2-.495V12.868h2.119a.705.705,0,0,0,.7-.708v-.034c.009,0,.012,0,.022,0a3.6,3.6,0,0,1,1.12.849,3.579,3.579,0,0,1,.869,1.1c.051.153.037.148-.058.39a3.8,3.8,0,0,0-.328,1.223,4.66,4.66,0,0,0,.453,2.145,4.725,4.725,0,0,0,1.229,1.817,4.078,4.078,0,0,0,1.094.625c.233.106.248.1.333.271a4.008,4.008,0,0,1,.2,1.5,4.008,4.008,0,0,1-.2,1.5c-.085.174-.1.165-.333.271a4.078,4.078,0,0,0-1.094.625A4.725,4.725,0,0,0,36.2,26.254a4.66,4.66,0,0,0-.453,2.145,3.8,3.8,0,0,0,.328,1.223c.084.235.1.229.058.39a3.579,3.579,0,0,1-.869,1.1,3.6,3.6,0,0,1-1.12.849c-.156.049-.179.011-.4-.062a3.807,3.807,0,0,0-1.219-.35,4.706,4.706,0,0,0-2.16.412,4.7,4.7,0,0,0-1.843,1.2,3.8,3.8,0,0,0-.635,1.1c-.038.087-.056.122-.077.161l-7.085-5.186a10.174,10.174,0,0,0-3.9-1.874,5.794,5.794,0,0,0-.372-1.272,4.673,4.673,0,0,0-1.2-1.838,3.716,3.716,0,0,0-1.109-.625c-.241-.1-.248-.127-.313-.225a3.391,3.391,0,0,1-.167-1.356c0-.137,0-.247.008-.361a1.759,1.759,0,0,1,.518-.048,1.9,1.9,0,0,1,.6.187,1.582,1.582,0,0,0,1.159.083,3.575,3.575,0,0,0,1.4-.969,3.566,3.566,0,0,0,1-1.375,1.606,1.606,0,0,0-.068-1.166A1.689,1.689,0,0,1,18.1,17.8a2.413,2.413,0,0,1,.262-1.109,2.439,2.439,0,0,1,.625-.963,2.2,2.2,0,0,1,.573-.313,1.678,1.678,0,0,0,.875-.807,4,4,0,0,0,.287-1.736c0-.094,0-.166-.006-.252a5.652,5.652,0,0,0,1.473-.427,4.7,4.7,0,0,0,1.823-1.229,3.772,3.772,0,0,0,.614-1.1c.073-.173.09-.247.234-.322a3.58,3.58,0,0,1,1.4-.193,5.307,5.307,0,0,1,1.137.085ZM7.956,10.756a.706.706,0,0,0-.422,1.208l.906.908-.876.876a.706.706,0,1,0,.995.995l.875-.876.875.876a.706.706,0,1,0,.995-.995l-.876-.876.906-.908a.7.7,0,1,0-.995-.995l-.905.907-.905-.907A.706.706,0,0,0,7.956,10.756Zm17.583,5a6.347,6.347,0,1,0,7.175,6.289.706.706,0,0,0-1.411,0,4.938,4.938,0,1,1-2.469-4.275.705.705,0,1,0,.7-1.218,6.31,6.31,0,0,0-4-.8Zm5.305,2.936L26.4,22.495l-1.656-1.656a.707.707,0,0,0-1,1l2.12,2.113a.705.705,0,0,0,.957.037l4.936-4.234a.7.7,0,1,0-.916-1.068ZM-.442,26.277H5.2v13.4H-.442Zm7.053.705H8.022V38.973H6.611Zm2.821,1.412a50.719,50.719,0,0,1,6.173.172,8.732,8.732,0,0,1,4.29,1.806l7.3,5.343A1.41,1.41,0,0,1,25.539,38l-4.092-3.109a.706.706,0,1,0-.854,1.12l4.1,3.122a2.832,2.832,0,0,0,1.942.548h8.893a1.411,1.411,0,1,1,0,2.823H18.6a3.48,3.48,0,0,1-1.536-.661c-.684-.435-1.466-1.044-2.259-1.661s-1.6-1.243-2.37-1.733a4.543,4.543,0,0,0-2.3-.88H9.432ZM2.379,36.857a.705.705,0,1,0,.705.705A.705.705,0,0,0,2.379,36.857Z" transform="translate(0 0)" fill="#aba28b"/>
    </g>
  </g>
</svg>
