<svg xmlns="http://www.w3.org/2000/svg" xmlns:xlink="http://www.w3.org/1999/xlink" width="2319.678" height="1665.681" viewBox="0 0 2319.678 1665.681">
  <defs>
    <clipPath id="clip-path">
      <rect id="Rectangle_569" data-name="Rectangle 569" width="2319.677" height="1665.681" transform="translate(0 0)" fill="#fff" stroke="#707070" stroke-width="1"/>
    </clipPath>
  </defs>
  <g id="Mask_Group_188" data-name="Mask Group 188" clip-path="url(#clip-path)">
    <path id="Path_30" data-name="Path 30" d="M2134.96,211.233C1928-87.078,1296.887-67,725.6,256.1,546.271,356.073,386.281,481.859,251.97,628.481A1179.374,1179.374,0,0,0,101.031,829C33.115,944.5-.546,1056.035.168,1157.368-2.211,1236.245,20.757,1314.048,66.3,1381.4c78.621,113.141,218.023,180.232,391.561,202.774l12.727,1.61,5,.537a1026.537,1026.537,0,0,0,108.238,6.333h13.44c262.746-.644,578.778-86.627,878.277-256.125,133.192-75.284,251.378-160.376,351.9-250.576,330.024-296.139,466.626-645.831,307.522-874.717M1380.979,1270.724c-511.456,289.186-1075.365,307.864-1260.2,41.865s80.168-716.1,591.266-1005.282S1787.408-.558,1972.126,265.549s-79.81,716.418-590.909,1005.175Z" transform="translate(81.278 31.501)" fill="#aba28b" opacity="0.54" style="mix-blend-mode: color-dodge;isolation: isolate"/>
  </g>
</svg>
