<svg xmlns="http://www.w3.org/2000/svg" xmlns:xlink="http://www.w3.org/1999/xlink" width="539.699" height="397.115" viewBox="0 0 539.699 397.115">
  <defs>
    <clipPath id="clip-path">
      <rect id="Rectangle_199" data-name="Rectangle 199" width="226.914" height="253.766" fill="#903"/>
    </clipPath>
  </defs>
  <g id="Icon_2" data-name="Icon 2" transform="translate(23432.813 -1064.82)">
    <path id="Path_860" data-name="Path 860" d="M523.433,50.807C472.692-20.944,317.961-16.116,177.9,61.6A461.652,461.652,0,0,0,61.776,151.166,284.21,284.21,0,0,0,24.77,199.4C8.119,227.177-.134,254,.041,278.376a89.843,89.843,0,0,0,16.214,53.884c19.276,27.213,53.453,43.35,96,48.772l3.12.387,1.225.129a256.469,256.469,0,0,0,26.537,1.523h3.3c64.418-.155,141.9-20.836,215.329-61.6,140.151-77.716,212.53-198.885,161.672-270.662M338.578,305.641C213.183,375.2,74.928,379.691,29.611,315.711s19.655-172.239,144.962-241.8S438.223-.134,483.511,63.871s-19.567,172.317-144.875,241.77Z" transform="translate(-23432.813 1064.82)" fill="#dddad1" opacity="0.4"/>
    <g id="Group_389" data-name="Group 389" transform="translate(939.182 -2457.479)">
      <g id="Group_204" data-name="Group 204" transform="translate(-24171.297 3665.647)">
        <g id="Group_203" data-name="Group 203" clip-path="url(#clip-path)">
          <path id="Path_621" data-name="Path 621" d="M.373,220.566c3.841-34.032,32.619-64.4,66.081-70.626,4.351-.809,9.1-.06,13.606-1.1a3.268,3.268,0,0,0,2.479-3.078c.173-4.313-.088-12.979-.781-14.393-.48-.977-11.273-9.4-13.713-12.326A65.118,65.118,0,0,1,54.055,86.35,3.322,3.322,0,0,0,50.724,83.5c-7.789.021-13.573-4.877-12.341-13.619,1.36-9.653,8.986-7.863,11.172-10.409.707-.826,3.993-16.8,5.689-20.994,22.019-54.542,102.7-49.926,119.519,6.4.991,3.32,1.675,13.094,2.976,14.593,2.012,2.318,10.291,1.408,11.4,10.187,1.157,9.188-4.422,13.968-12.421,13.848a3.343,3.343,0,0,0-3.4,3,64.285,64.285,0,0,1-10.43,28.374c-3.254,4.662-16.575,14.909-17.353,16.5-.662,1.351-.928,9.3-.8,13.773a3.336,3.336,0,0,0,3.1,3.215c25.111,2.007,48.207,12.766,63.24,33.369,6.4,8.771,15.843,28.136,15.843,38.84v29.865a3.334,3.334,0,0,1-3.334,3.334H3.881A3.322,3.322,0,0,1,.557,250.34C.839,240.6-.672,229.831.373,220.566M114.216,6.393h-1.144a3.334,3.334,0,0,0-3.334,3.334v16.7a3.261,3.261,0,0,0,1.964,3.043,7.114,7.114,0,0,0,2.492.45,3.311,3.311,0,0,0,3.356-3.335V9.727a3.334,3.334,0,0,0-3.334-3.334M99.246,8.379C76.34,13.258,60.9,33.233,56.925,55.876a3.339,3.339,0,0,0,3.3,3.9H88.671A3.344,3.344,0,0,0,91.954,55.9c-.906-6.041.441-11.388,4.2-16.873,1.149-1.677,7.077-6.737,7.077-7.245V11.656a3.327,3.327,0,0,0-3.983-3.277m71.175,47.536c-3.7-22.665-19.586-42.633-42.374-47.529a3.326,3.326,0,0,0-3.986,3.275V31.781c0,1.046,3.9,2.726,4.749,3.713,5.429,6.3,7.7,12.726,6.514,20.433a3.331,3.331,0,0,0,3.284,3.847h28.511a3.338,3.338,0,0,0,3.3-3.858m-59.7-19.3c-22.98,3.737-10.789,40.923,10.627,28.908,15.7-8.808,6.494-31.692-10.627-28.908M181.014,76.38c4.859-4.181.679-9.409-5.5-10.121-7.513-.866-37.557-1.233-44.265.051-4.571.875-8.84,7.853-16.94,7.9-9.084.054-13.523-6.992-18.265-7.9-6.956-1.331-36.425-.877-44.262-.026C40.941,67.459,43.406,77.1,52.795,78.007a3.7,3.7,0,0,0,.552.008c38.883-2.305,81.126,3.029,119.581.035,1.9-.148,6.9-.645,8.087-1.67m-118.8,6.829c-3.341,0,.5,13.238,1.334,15.592,15.492,43.64,77.547,47.229,97.9,5.521,1.306-2.678,8.444-21.113,3.624-21.113Zm72.141,53.543a63.371,63.371,0,0,1-41.426,0,3.342,3.342,0,0,0-4.4,3.02c-.766,16.7,6.217,32.442,25.759,32.069,19.066-.363,25.27-15.831,24.475-32.087a3.342,3.342,0,0,0-4.4-3M166.8,158.287l-18.792-2.893a3.327,3.327,0,0,0-3.431,1.67c-6.91,12.675-15.586,21.532-31.6,21.282-15.6-.242-23.314-9.229-30.254-21.371a3.351,3.351,0,0,0-3.3-1.679l-14.914,1.776a3.333,3.333,0,0,0-2.941,3.311v40.575a3.334,3.334,0,0,0,3.334,3.334h101.4a3.334,3.334,0,0,0,3.334-3.334V161.582a3.334,3.334,0,0,0-2.827-3.295M55.055,165.873a3.34,3.34,0,0,0-4.511-3.129c-15.305,5.771-29.788,20.874-36.481,35.056-1.787,3.785-7.181,18.119-7.181,21.464v25.96a3.335,3.335,0,0,0,3.334,3.334H29.588a3.335,3.335,0,0,0,3.334-3.334v-37.6a3.335,3.335,0,0,1,3.334-3.334H51.721a3.333,3.333,0,0,0,3.334-3.334Zm121.083,1.634V201.1a3.316,3.316,0,0,0,3.371,3.335c4.431-.124,9.406-1.081,13.059.635a3.248,3.248,0,0,1,1.8,2.961v37.194a3.335,3.335,0,0,0,3.334,3.334h19.372a3.334,3.334,0,0,0,3.333-3.334v-25.96c0-3.467-5.69-18.5-7.57-22.375-6.107-12.605-18.692-26.292-32.018-32.435a3.325,3.325,0,0,0-4.678,3.053m8.384,44.6H42.766a3.334,3.334,0,0,0-3.334,3.334v29.787a3.334,3.334,0,0,0,3.334,3.334H184.522a3.335,3.335,0,0,0,3.334-3.334V215.437a3.335,3.335,0,0,0-3.334-3.334" transform="translate(0 0)" fill="#903"/>
          <path id="Path_622" data-name="Path 622" d="M50.129,169.409v.1a3.206,3.206,0,0,1-3.044,3.2c-2.576.137-5.752.416-7.819-.3a3.133,3.133,0,0,1-2.048-2.876,3.206,3.206,0,0,1,3.2-3.322l6.5-.007a3.206,3.206,0,0,1,3.209,3.206" transform="translate(11.443 51.104)" fill="#aba28b"/>
          <path id="Path_623" data-name="Path 623" d="M138.476,169.463h0a3.262,3.262,0,0,1-3.262,3.262h-5.206a3.262,3.262,0,1,1,0-6.524h5.206a3.262,3.262,0,0,1,3.262,3.262" transform="translate(38.971 51.103)" fill="#aba28b"/>
        </g>
      </g>
      <g id="Ellipse_190" data-name="Ellipse 190" transform="translate(-24081.518 3693.794)" fill="none" stroke="#aba28b" stroke-width="7">
        <circle cx="23.296" cy="23.296" r="23.296" stroke="none"/>
        <circle cx="23.296" cy="23.296" r="19.796" fill="none"/>
      </g>
    </g>
  </g>
</svg>
