<svg xmlns="http://www.w3.org/2000/svg" width="72.491" height="72.491" viewBox="0 0 72.491 72.491">
  <g id="Icon_4_-_not_selected" data-name="Icon 4 - not selected" transform="translate(10397.844 2114.032)">
    <circle id="Ellipse_124" data-name="Ellipse 124" cx="36.245" cy="36.245" r="36.245" transform="translate(-10325.353 -2114.032) rotate(90)" fill="#d0cabe"/>
    <g id="Group_291" data-name="Group 291" transform="translate(-10381.844 -2098.355)">
      <path id="Path_788" data-name="Path 788" d="M37.371,47.11h5.485a1.371,1.371,0,0,0,1.371-1.371V43.956a2.063,2.063,0,0,1,.448-1.282L51.7,33.988a3.413,3.413,0,0,0,.74-2.412L51.618,21.16a2.342,2.342,0,0,0-2.557-2.151,2.413,2.413,0,0,0-2.125,2.254l-.51,6.171h-.039a2.631,2.631,0,0,0-1.976.891l-7.393,8.452A4.114,4.114,0,0,0,36,39.485v6.254A1.371,1.371,0,0,0,37.371,47.11Zm0-7.625a2.747,2.747,0,0,1,.679-1.807l7.393-8.45a1.234,1.234,0,0,1,.932-.426,1.252,1.252,0,0,1,.435.078h0a1.244,1.244,0,0,1,.5,1.988l-4.278,4.812a.686.686,0,1,0,1.025.911l4.278-4.812a2.605,2.605,0,0,0-.565-3.948l.534-6.467a1.035,1.035,0,0,1,.883-.993.971.971,0,0,1,1.068.891l.826,10.42a2.042,2.042,0,0,1-.442,1.444L43.61,41.816a3.441,3.441,0,0,0-.754,2.14v1.783H37.371Z" transform="translate(-11.318 -5.973)" fill="#aba28b" stroke="#d0cabe" stroke-width="0.3"/>
      <path id="Path_789" data-name="Path 789" d="M9.6,47.109h5.485a1.371,1.371,0,0,0,1.371-1.371V39.484a4.113,4.113,0,0,0-1.018-2.709L8.044,28.323a2.631,2.631,0,0,0-1.976-.891H6.033l-.509-6.166A2.415,2.415,0,0,0,3.395,19a2.39,2.39,0,0,0-1.811.612,2.354,2.354,0,0,0-.747,1.543L.011,31.575a3.416,3.416,0,0,0,.743,2.415l7.023,8.683a2.066,2.066,0,0,1,.45,1.283v1.783A1.371,1.371,0,0,0,9.6,47.109ZM1.822,33.13a2.045,2.045,0,0,1-.444-1.447L2.2,21.267a.97.97,0,0,1,.979-.9.677.677,0,0,1,.091,0,1.038,1.038,0,0,1,.884,1l.533,6.46a2.605,2.605,0,0,0-.565,3.948L8.4,36.594a.686.686,0,1,0,1.025-.911L5.148,30.871a1.244,1.244,0,0,1,.5-1.988h0a1.234,1.234,0,0,1,1.366.348L14.4,37.677a2.747,2.747,0,0,1,.679,1.807v6.254H9.6V43.955a3.444,3.444,0,0,0-.754-2.145Z" transform="translate(0 -5.971)" fill="#aba28b" stroke="#d0cabe" stroke-width="0.3"/>
      <path id="Path_790" data-name="Path 790" d="M22.452,26.054a2.289,2.289,0,0,0,1.783-.849l5.2-6.382.173.069.669,1.633a1.171,1.171,0,0,0,2.168,0l.669-1.633,1.633-.669a1.171,1.171,0,0,0,0-2.168l-1.633-.669-.3-.723,5.5-6.764a2.553,2.553,0,0,0,.143-3.063L36,1.143A2.594,2.594,0,0,0,33.847,0H11.057A2.594,2.594,0,0,0,8.9,1.148L6.435,4.835A2.554,2.554,0,0,0,6.572,7.9l5.506,6.765-.3.723-1.633.669a1.171,1.171,0,0,0,0,2.168l1.633.669.669,1.633a1.171,1.171,0,0,0,2.168,0l.669-1.633.173-.069,5.2,6.381a2.291,2.291,0,0,0,1.792.847Zm1.8-24.682H32.99L28.622,5.253Zm2.564,4.114H18.084L22.452,1.6ZM16.281,5.253,11.914,1.371h8.735Zm11.4,1.6-5.23,16.271L17.222,6.856Zm6.1,10.284-1.447.592a.686.686,0,0,0-.374.375l-.593,1.447-.593-1.447a.686.686,0,0,0-.374-.375l-1.447-.592,1.447-.592a.686.686,0,0,0,.374-.375l.593-1.447.593,1.447a.686.686,0,0,0,.374.375Zm-1.645-3.807a1.151,1.151,0,0,0-1.853.421l-.669,1.633-1.633.669a1.171,1.171,0,0,0,0,2.168l.133.055-4.395,5.394L29.122,6.856h8.245a1.13,1.13,0,0,1-.1.178Zm5.119-7.848H30.425L34.68,1.7a1.241,1.241,0,0,1,.18.206ZM10.042,1.913a1.273,1.273,0,0,1,.182-.21l4.254,3.782H7.65Zm4.465,15.82a.686.686,0,0,0-.374.375l-.594,1.447-.593-1.447a.686.686,0,0,0-.374-.375l-1.447-.592,1.447-.592a.686.686,0,0,0,.374-.375l.593-1.447.593,1.447a.686.686,0,0,0,.374.375l1.447.592Zm2.419-1.676-1.633-.669-.669-1.633a1.155,1.155,0,0,0-1.857-.421l-5.128-6.3a1.158,1.158,0,0,1-.1-.176h8.245l5.405,16.817-4.395-5.394.133-.055a1.171,1.171,0,0,0,0-2.168Z" transform="translate(-1.883)" fill="#aba28b" stroke="#d0cabe" stroke-width="0.3"/>
    </g>
  </g>
</svg>
