<svg xmlns="http://www.w3.org/2000/svg" width="90.491" height="90.491" viewBox="0 0 90.491 90.491">
  <g id="Icon_4_-_selected" data-name="Icon 4 - selected" transform="translate(10373 1999.032)">
    <circle id="Ellipse_411" data-name="Ellipse 411" cx="45.245" cy="45.245" r="45.245" transform="translate(-10282.509 -1999.032) rotate(90)" fill="#903"/>
    <g id="Group_994" data-name="Group 994" transform="translate(-10354.57 -1982.082)">
      <path id="Path_788" data-name="Path 788" d="M37.886,57.671h7.546a1.886,1.886,0,0,0,1.886-1.886V53.332a2.838,2.838,0,0,1,.617-1.764L57.6,39.619A4.7,4.7,0,0,0,58.618,36.3L57.486,21.972a3.222,3.222,0,0,0-3.517-2.959,3.319,3.319,0,0,0-2.924,3.1l-.7,8.489h-.054a3.619,3.619,0,0,0-2.718,1.226L37.4,43.455A5.659,5.659,0,0,0,36,47.182v8.6A1.886,1.886,0,0,0,37.886,57.671Zm0-10.489A3.778,3.778,0,0,1,38.82,44.7l10.17-11.624a1.7,1.7,0,0,1,1.282-.586,1.722,1.722,0,0,1,.6.108h0a1.711,1.711,0,0,1,.684,2.735L45.67,41.95A.943.943,0,1,0,47.08,43.2l5.884-6.619a3.584,3.584,0,0,0-.777-5.432l.735-8.9a1.424,1.424,0,0,1,1.215-1.366,1.336,1.336,0,0,1,1.469,1.226l1.136,14.335a2.81,2.81,0,0,1-.607,1.986L46.469,50.389a4.734,4.734,0,0,0-1.038,2.944v2.452H37.886Z" transform="translate(-2.045 -1.079)" fill="#fff" stroke="#903" stroke-width="0.3"/>
      <path id="Path_789" data-name="Path 789" d="M13.2,57.671H20.75a1.886,1.886,0,0,0,1.886-1.886v-8.6a5.659,5.659,0,0,0-1.4-3.726L11.066,31.827A3.619,3.619,0,0,0,8.347,30.6H8.3l-.7-8.482a3.323,3.323,0,0,0-2.93-3.113,3.288,3.288,0,0,0-2.492.842,3.238,3.238,0,0,0-1.027,2.123L.015,36.3a4.7,4.7,0,0,0,1.022,3.322L10.7,51.567a2.842,2.842,0,0,1,.62,1.765v2.452A1.886,1.886,0,0,0,13.2,57.671ZM2.506,38.44a2.814,2.814,0,0,1-.61-1.991L3.028,22.121a1.335,1.335,0,0,1,1.347-1.235.931.931,0,0,1,.125.006,1.428,1.428,0,0,1,1.216,1.376l.734,8.887a3.584,3.584,0,0,0-.777,5.432l5.885,6.619a.943.943,0,1,0,1.41-1.253l-5.885-6.62A1.711,1.711,0,0,1,7.766,32.6h0a1.7,1.7,0,0,1,1.88.478L19.817,44.7a3.778,3.778,0,0,1,.934,2.485v8.6H13.2V53.332a4.738,4.738,0,0,0-1.038-2.95Z" transform="translate(0 -1.079)" fill="#fff" stroke="#903" stroke-width="0.3"/>
      <path id="Path_790" data-name="Path 790" d="M28.636,35.841a3.148,3.148,0,0,0,2.452-1.168l7.154-8.78.239.094.921,2.247a1.611,1.611,0,0,0,2.982,0l.921-2.247,2.247-.921a1.611,1.611,0,0,0,0-2.982L43.3,21.164l-.408-1,7.573-9.3a3.512,3.512,0,0,0,.2-4.214l-3.4-5.078A3.569,3.569,0,0,0,44.312,0H12.96A3.569,3.569,0,0,0,10,1.579L6.6,6.651a3.513,3.513,0,0,0,.189,4.215l7.575,9.307-.408,1-2.247.921a1.611,1.611,0,0,0,0,2.982l2.247.921.921,2.247a1.611,1.611,0,0,0,2.982,0l.921-2.247.239-.094,7.152,8.778a3.151,3.151,0,0,0,2.465,1.166ZM31.117,1.886H43.133l-6.008,5.34Zm3.528,5.659H22.628l6.008-5.34Zm-14.5-.319-6.008-5.34H26.155ZM35.831,9.432,28.636,31.816,21.441,9.432ZM44.219,23.58l-1.99.815a.943.943,0,0,0-.515.516L40.9,26.9l-.816-1.991a.943.943,0,0,0-.515-.516l-1.99-.815,1.99-.815a.943.943,0,0,0,.515-.516l.816-1.991.816,1.991a.943.943,0,0,0,.515.516Zm-2.264-5.238a1.584,1.584,0,0,0-2.549.579l-.921,2.247-2.247.921a1.611,1.611,0,0,0,0,2.982l.183.075-6.046,7.42L37.812,9.432H49.155a1.554,1.554,0,0,1-.142.244ZM49,7.546H39.605l5.853-5.2a1.708,1.708,0,0,1,.248.283ZM11.564,2.632a1.751,1.751,0,0,1,.25-.289l5.853,5.2H8.274Zm6.142,21.763a.943.943,0,0,0-.515.516L16.375,26.9l-.816-1.991a.943.943,0,0,0-.515-.516l-1.99-.815,1.99-.815a.943.943,0,0,0,.515-.516l.816-1.991.816,1.991a.943.943,0,0,0,.515.516l1.99.815Zm3.328-2.306-2.247-.921-.921-2.247a1.589,1.589,0,0,0-2.554-.579L8.257,9.673a1.593,1.593,0,0,1-.141-.241H19.46L26.9,32.567l-6.046-7.42.183-.075a1.611,1.611,0,0,0,0-2.982Z" transform="translate(-0.34)" fill="#fff" stroke="#903" stroke-width="0.3"/>
    </g>
  </g>
</svg>
