<svg xmlns="http://www.w3.org/2000/svg" width="72.491" height="72.491" viewBox="0 0 72.491 72.491">
  <g id="Icon_1_-_not_selected" data-name="Icon 1 - not selected" transform="translate(10647 2114.032)">
    <circle id="Ellipse_408" data-name="Ellipse 408" cx="36.245" cy="36.245" r="36.245" transform="translate(-10574.509 -2114.032) rotate(90)" fill="#d0cabe"/>
    <g id="_x31_7_Care" transform="translate(-10635.115 -2103.831)">
      <g id="Care" transform="translate(6 6)">
        <path id="Path_768" data-name="Path 768" d="M44.908,303.159a2.765,2.765,0,0,0-3.228-.761l-3.985,1.755a.593.593,0,1,0,.478,1.086l3.985-1.755a1.574,1.574,0,0,1,1.838.433,1.567,1.567,0,0,1-.323,2.3L41.4,307.762a21.3,21.3,0,0,1-11.962,3.66H25.021a12.613,12.613,0,0,1-5.611-1.328l-.071-.035a13.511,13.511,0,0,0-6.083-1.418l-.533,0v-8.418a12.738,12.738,0,0,0,3.728-1.089,3.846,3.846,0,0,1,1.65-.367,3.9,3.9,0,0,1,1.738.41l4.59,2.3a.593.593,0,0,0,.265.063h4.033a2.175,2.175,0,1,1,0,4.35H24.536a.593.593,0,1,0,0,1.186h7.772a8.027,8.027,0,0,0,3.3-.705.593.593,0,0,0-.485-1.083,6.847,6.847,0,0,1-2.817.6h-1.02a3.359,3.359,0,0,0-2.561-5.536H24.834l-4.465-2.233a5.1,5.1,0,0,0-2.268-.535,5.024,5.024,0,0,0-2.156.48,11.524,11.524,0,0,1-3.239.967A3.366,3.366,0,0,0,9.361,296H7.977A1.979,1.979,0,0,0,6,297.977v2.966a.593.593,0,0,0,1.186,0v-2.966a.792.792,0,0,1,.791-.791H9.361a2.177,2.177,0,0,1,2.175,2.175v9.877s0,0,0,0,0,0,0,0h0a2.177,2.177,0,0,1-2.175,2.175H7.977a.792.792,0,0,1-.791-.791v-6.92a.593.593,0,0,0-1.186,0v6.92a1.979,1.979,0,0,0,1.977,1.977H9.361a3.366,3.366,0,0,0,3.31-2.778l.591,0h.068a12.307,12.307,0,0,1,5.479,1.293l.071.035a13.805,13.805,0,0,0,6.142,1.453h4.419a22.484,22.484,0,0,0,12.627-3.865l2.274-1.55a2.754,2.754,0,0,0,.568-4.034Z" transform="translate(-6 -273.065)" fill="#aba28b" stroke="#aba28b" stroke-width="0.2"/>
        <path id="Path_769" data-name="Path 769" d="M43.569,6H42.185a3.366,3.366,0,0,0-3.31,2.778l-.591,0a12.28,12.28,0,0,1-5.546-1.293l-.071-.035A13.805,13.805,0,0,0,26.525,6H22.107A22.484,22.484,0,0,0,9.479,9.865l-2.274,1.55a2.754,2.754,0,0,0,2.661,4.8l3.985-1.755a.593.593,0,0,0-.478-1.086L9.389,15.124a1.574,1.574,0,0,1-1.838-.433,1.567,1.567,0,0,1,.323-2.3l2.271-1.549a21.3,21.3,0,0,1,11.962-3.66h4.419a12.613,12.613,0,0,1,5.611,1.328l.071.035a13.513,13.513,0,0,0,6.083,1.418l.533,0v8.418A12.737,12.737,0,0,0,35.1,19.473a3.846,3.846,0,0,1-1.65.367,3.9,3.9,0,0,1-1.738-.41l-4.59-2.3a.593.593,0,0,0-.265-.063H22.819a2.175,2.175,0,1,1,0-4.35H27.01a.593.593,0,1,0,0-1.186H19.238a8.028,8.028,0,0,0-3.3.705.593.593,0,0,0,.485,1.083,6.848,6.848,0,0,1,2.817-.6h1.02a3.359,3.359,0,0,0,2.561,5.536h3.893l4.465,2.233a5.1,5.1,0,0,0,2.268.535,5.024,5.024,0,0,0,2.156-.48,11.526,11.526,0,0,1,3.239-.967,3.366,3.366,0,0,0,3.345,3.029h1.384a1.979,1.979,0,0,0,1.977-1.977V7.977A1.979,1.979,0,0,0,43.569,6Zm.791,14.631a.792.792,0,0,1-.791.791H42.185a2.177,2.177,0,0,1-2.175-2.175V9.37s0,0,0,0,0,0,0,0h0a2.177,2.177,0,0,1,2.175-2.175h1.384a.792.792,0,0,1,.791.791Z" transform="translate(-6.003 -6)" fill="#aba28b" stroke="#aba28b" stroke-width="0.2"/>
        <path id="Path_770" data-name="Path 770" d="M163.379,187.544a2.97,2.97,0,0,0-3.2-2.708,3.763,3.763,0,0,0-3.365,2.982,3.722,3.722,0,0,0-.53-.541l.449-1.454a3.761,3.761,0,0,0-2.48-4.7,2.968,2.968,0,0,0-3.215,1.01,3.279,3.279,0,0,0-3.851-.247,2.59,2.59,0,0,0-.779,3.579,3.258,3.258,0,0,0,4.5.979l.156-.1a3.756,3.756,0,0,0,.68.741,2.966,2.966,0,0,0-.852,3.764,3.751,3.751,0,0,0,5.076,1.568l1.543-.815a1.177,1.177,0,0,0,.57.148q.049,0,.1,0l1.773-.148a3.757,3.757,0,0,0,3.431-4.056Zm-13.117-2.1a2.072,2.072,0,0,1-2.86-.622,1.405,1.405,0,0,1,.422-1.94,2.083,2.083,0,0,1,2.668.37,3.733,3.733,0,0,0,.045,2.015Zm1.412-2.015a1.779,1.779,0,0,1,2.225-1.175,2.573,2.573,0,0,1,1.7,3.214l-.278.9-1.159-2.2a.593.593,0,1,0-1.049.554l.888,1.681a3.7,3.7,0,0,0-.981.1A2.58,2.58,0,0,1,151.675,183.433Zm2.194,6.766,2.372.733-.832.439a2.57,2.57,0,0,1-3.473-1.073,1.779,1.779,0,0,1,.743-2.4,2.57,2.57,0,0,1,3.473,1.073l.439.832-2.372-.733a.593.593,0,1,0-.35,1.133Zm8.328-2.555a2.57,2.57,0,0,1-2.347,2.775l-.937.078,1.6-1.9a.593.593,0,0,0-.906-.766l-1.6,1.9-.078-.937a2.573,2.573,0,0,1,2.347-2.775q.076-.006.151-.006a1.78,1.78,0,0,1,1.77,1.631Z" transform="translate(-134.921 -167.151)" fill="#aba28b" stroke="#aba28b" stroke-width="0.2"/>
      </g>
    </g>
  </g>
</svg>
