<svg xmlns="http://www.w3.org/2000/svg" width="90.491" height="90.491" viewBox="0 0 90.491 90.491">
  <g id="Icon_5_-_selected" data-name="Icon 5 - selected" transform="translate(10278 1999.032)">
    <circle id="Ellipse_412" data-name="Ellipse 412" cx="45.245" cy="45.245" r="45.245" transform="translate(-10187.509 -1999.032) rotate(90)" fill="#903"/>
    <path id="Path_1735" data-name="Path 1735" d="M41.407,46.8a2.6,2.6,0,0,0,.959,2.021.832.832,0,1,1-1.053,1.288,4.274,4.274,0,0,1,0-6.62.832.832,0,1,1,1.053,1.288,2.6,2.6,0,0,0-.959,2.021ZM51.7,48.522a4.873,4.873,0,0,1,.052,3.342,4.923,4.923,0,0,1-2.73,2.911,6.2,6.2,0,0,1-.577,2.636,6.934,6.934,0,0,1-4.919,3.709,5.24,5.24,0,0,1-7.674,1.821,5.277,5.277,0,0,1-3.055.972,5.2,5.2,0,0,1-4.618-2.792,6.931,6.931,0,0,1-4.938-3.748,6.214,6.214,0,0,1-.57-2.6A4.894,4.894,0,0,1,20,48.522a7.688,7.688,0,0,1-.647-6.034,6.539,6.539,0,0,1,3.327-4.047,6.2,6.2,0,0,1,.56-2.213,6.931,6.931,0,0,1,4.935-3.742,5.227,5.227,0,0,1,7.673-1.82,5.227,5.227,0,0,1,7.673,1.82,6.931,6.931,0,0,1,4.936,3.744,6.192,6.192,0,0,1,.559,2.211,6.546,6.546,0,0,1,3.336,4.076,7.693,7.693,0,0,1-.655,6.006ZM35.018,61.484V58.525a4.211,4.211,0,0,1-2.111,1.016.832.832,0,1,1-.28-1.64,3.11,3.11,0,0,0,2.391-3.131V32.122a3.575,3.575,0,1,0-3.171,6.252.832.832,0,1,1-.446,1.6,5.265,5.265,0,0,1-3.815-4.585,5.167,5.167,0,0,1,.008-.993,5.006,5.006,0,0,0-2.842,2.527,5.191,5.191,0,0,0,.312,4.666.832.832,0,1,1-1.471.778,8.083,8.083,0,0,1-.768-2.085,5.035,5.035,0,0,0-1.88,2.689,6.114,6.114,0,0,0,.106,3.9,4.873,4.873,0,0,1,1.392-1.008.832.832,0,1,1,.724,1.5,3.228,3.228,0,0,0-.272,5.665,8.207,8.207,0,0,1,.7-1.788.832.832,0,0,1,1.471.778,5.193,5.193,0,0,0-.314,4.662,5.006,5.006,0,0,0,2.844,2.531,5.17,5.17,0,0,1-.008-.993A5.265,5.265,0,0,1,31.4,53.63a.832.832,0,0,1,.446,1.6,3.575,3.575,0,1,0,3.171,6.252ZM49.453,48.029a3.214,3.214,0,0,0-.922-.669.832.832,0,1,1,.724-1.5,4.876,4.876,0,0,1,1.392,1.008A6.12,6.12,0,0,0,50.76,43a5.041,5.041,0,0,0-1.886-2.712,8.089,8.089,0,0,1-.768,2.086.832.832,0,1,1-1.471-.778,5.192,5.192,0,0,0,.313-4.665A5.005,5.005,0,0,0,44.106,34.4a5.168,5.168,0,0,1,.008.993A5.265,5.265,0,0,1,40.3,39.976a.832.832,0,0,1-.446-1.6,3.576,3.576,0,1,0-3.171-6.254v2.961a4.211,4.211,0,0,1,2.111-1.016.832.832,0,1,1,.28,1.64,3.11,3.11,0,0,0-2.391,3.131V61.487a3.576,3.576,0,1,0,3.171-6.254.832.832,0,0,1,.446-1.6,5.265,5.265,0,0,1,3.815,4.585,5.177,5.177,0,0,1-.008.992,5.009,5.009,0,0,0,2.831-2.5,5.183,5.183,0,0,0-.3-4.689.832.832,0,0,1,1.471-.778,8.055,8.055,0,0,1,.691,1.79,3.249,3.249,0,0,0,1.381-1.707,3.214,3.214,0,0,0-.724-3.291ZM30.386,43.493a.832.832,0,1,0-1.053,1.288,2.61,2.61,0,0,1,0,4.043.832.832,0,1,0,1.053,1.288,4.274,4.274,0,0,0,0-6.62ZM65.542,16.807v3.338a.832.832,0,0,1-.671.816l-1.326.261L62.892,22.8l.753,1.122a.832.832,0,0,1-.1,1.052l-2.36,2.36a.832.832,0,0,1-1.052.1l-1.123-.753-1.576.653-.261,1.326a.832.832,0,0,1-.816.671H53.016a.832.832,0,0,1-.816-.671l-.261-1.326-1.576-.653-1.123.753a.832.832,0,0,1-1.052-.1l-2.361-2.36a.832.832,0,0,1-.1-1.052l.753-1.122-.653-1.576L44.5,20.962a.832.832,0,0,1-.671-.816V16.807a.832.832,0,0,1,.671-.816l1.326-.261.653-1.576-.753-1.123a.832.832,0,0,1,.1-1.052l2.361-2.36a.832.832,0,0,1,1.052-.1l1.122.753,1.576-.653L52.2,8.29a.832.832,0,0,1,.816-.671h3.338a.832.832,0,0,1,.816.671l.261,1.326,1.576.653,1.122-.753a.832.832,0,0,1,1.052.1l2.36,2.36a.832.832,0,0,1,.1,1.052l-.753,1.123.653,1.576,1.326.261a.832.832,0,0,1,.671.816Zm-1.664.684-1.092-.215a.832.832,0,0,1-.608-.5l-.994-2.4a.832.832,0,0,1,.078-.782l.62-.925-1.393-1.393-.925.62a.832.832,0,0,1-.782.078l-2.4-.994a.832.832,0,0,1-.5-.608l-.215-1.092H53.7l-.215,1.092a.832.832,0,0,1-.5.608l-2.4.994a.832.832,0,0,1-.782-.078l-.925-.62-1.393,1.393.62.925a.832.832,0,0,1,.078.782l-.994,2.4a.832.832,0,0,1-.608.5l-1.092.215v1.97l1.092.215a.832.832,0,0,1,.608.5l.994,2.4a.832.832,0,0,1-.078.782l-.62.925,1.393,1.393.925-.62a.831.831,0,0,1,.782-.078l2.4.994a.832.832,0,0,1,.5.608l.215,1.092h1.97l.215-1.092a.832.832,0,0,1,.5-.608l2.4-.994a.832.832,0,0,1,.782.078l.925.62,1.393-1.393-.62-.925a.832.832,0,0,1-.078-.782l.994-2.4a.832.832,0,0,1,.608-.5l1.092-.215Zm-3.22.985A5.973,5.973,0,1,1,54.686,12.5,5.98,5.98,0,0,1,60.658,18.476Zm-1.664,0a4.309,4.309,0,1,0-4.309,4.309A4.314,4.314,0,0,0,58.995,18.476ZM18.683,29.333H15.345a.832.832,0,0,1-.816-.671l-.261-1.326-1.576-.653-1.123.753a.832.832,0,0,1-1.052-.1l-2.36-2.36a.832.832,0,0,1-.1-1.052L8.807,22.8l-.653-1.576-1.326-.261a.832.832,0,0,1-.671-.816V16.807a.832.832,0,0,1,.671-.816l1.326-.261.653-1.576-.753-1.123a.832.832,0,0,1,.1-1.052l2.36-2.36a.832.832,0,0,1,1.052-.1l1.123.753,1.576-.653.261-1.326a.832.832,0,0,1,.816-.671h3.338a.832.832,0,0,1,.816.671l.261,1.326,1.576.653,1.122-.753a.832.832,0,0,1,1.052.1l2.36,2.36a.832.832,0,0,1,.1,1.052l-.753,1.123.653,1.576,1.326.261a.832.832,0,0,1,.671.816v3.338a.832.832,0,0,1-.671.816l-1.326.261L25.221,22.8l.753,1.122a.832.832,0,0,1-.1,1.052l-2.36,2.36a.832.832,0,0,1-1.052.1l-1.122-.753-1.576.653L19.5,28.662a.832.832,0,0,1-.816.671Zm.029-3.364,2.4-.994a.832.832,0,0,1,.782.078l.925.62,1.393-1.393-.62-.925a.832.832,0,0,1-.078-.782l.994-2.4a.832.832,0,0,1,.608-.5l1.092-.215v-1.97l-1.092-.215a.832.832,0,0,1-.608-.5l-.994-2.4a.832.832,0,0,1,.078-.782l.62-.925-1.393-1.393-.925.62a.832.832,0,0,1-.782.078l-2.4-.994a.832.832,0,0,1-.5-.608L18,9.283h-1.97l-.215,1.092a.832.832,0,0,1-.5.608l-2.4.994a.832.832,0,0,1-.782-.078l-.925-.62L9.817,12.673l.62.925a.832.832,0,0,1,.078.782l-.994,2.4a.832.832,0,0,1-.608.5l-1.092.215v1.97l1.092.215a.832.832,0,0,1,.608.5l.994,2.4a.832.832,0,0,1-.078.782l-.62.925,1.393,1.393.925-.62a.831.831,0,0,1,.782-.078l2.4.994a.832.832,0,0,1,.5.608l.215,1.092H18l.215-1.092A.832.832,0,0,1,18.712,25.97Zm-1.7-1.52a5.973,5.973,0,1,1,5.973-5.973A5.98,5.98,0,0,1,17.014,24.449Zm4.309-5.973a4.309,4.309,0,1,0-4.309,4.309A4.314,4.314,0,0,0,21.323,18.476ZM29.23,6.554a.839.839,0,0,0,.187-.021l2-.461a.832.832,0,0,0-.373-1.621l-2,.461a.832.832,0,0,0,.186,1.643Zm5.6-.87h2.054a.832.832,0,1,0,0-1.664H34.827a.832.832,0,0,0,0,1.664Zm5.394.375,2,.455a.832.832,0,0,0,.369-1.622l-2-.455a.832.832,0,0,0-.369,1.622ZM24.037,8.623A.83.83,0,0,0,24.4,8.54l1.849-.893a.832.832,0,1,0-.724-1.5l-1.849.893a.832.832,0,0,0,.362,1.581Zm21.361-1,1.852.888a.832.832,0,0,0,.719-1.5l-1.852-.888a.832.832,0,0,0-.719,1.5Zm11.07,36.636a.832.832,0,0,0-1.17.121L54,45.971a.832.832,0,0,0,1.291,1.049l1.3-1.594A.832.832,0,0,0,56.467,44.256Zm2.669-4.926a.832.832,0,0,0-1.114.377l-.91,1.841a.832.832,0,1,0,1.492.737l.91-1.841A.832.832,0,0,0,59.136,39.33Zm1.788-10.991h-.01a.832.832,0,0,0-.832.822l-.024,2.053a.832.832,0,0,0,.822.842h.01a.832.832,0,0,0,.832-.822l.024-2.053A.832.832,0,0,0,60.924,28.338Zm-.277,5.6a.833.833,0,0,0-1,.615l-.479,2a.832.832,0,1,0,1.618.388l.479-2a.832.832,0,0,0-.615-1ZM10.821,32.046a.832.832,0,0,0,.823-.841l-.022-2.053a.832.832,0,0,0-.832-.823h-.009a.832.832,0,0,0-.823.841l.022,2.053a.832.832,0,0,0,.832.823Zm1.711,4.492-.477-2a.832.832,0,1,0-1.618.386l.477,2a.832.832,0,0,0,1.618-.387Zm3.862,7.834A.832.832,0,0,0,15.1,45.42L16.4,47.015a.832.832,0,0,0,1.292-1.048ZM13.673,39.7a.832.832,0,0,0-1.492.735l.908,1.842a.832.832,0,0,0,1.492-.736L13.673,39.7Z" transform="translate(-10267.604 -1984.246)" fill="#fff"/>
  </g>
</svg>
