<svg xmlns="http://www.w3.org/2000/svg" width="90.491" height="90.491" viewBox="0 0 90.491 90.491">
  <g id="Icon_3_-_selected" data-name="Icon 3 - selected" transform="translate(10468 1999.032)">
    <circle id="Ellipse_410" data-name="Ellipse 410" cx="45.245" cy="45.245" r="45.245" transform="translate(-10377.509 -1999.032) rotate(90)" fill="#903"/>
    <g id="Group_992" data-name="Group 992" transform="translate(-10449.25 -1984.249)">
      <path id="Path_785" data-name="Path 785" d="M24.49,17.594h0a1.1,1.1,0,0,1-.784-.32L19.29,12.858l1.568-1.568,3.632,3.632,3.632-3.632,1.568,1.568-4.416,4.416A1.1,1.1,0,0,1,24.49,17.594Z" transform="translate(2.006 1.174)" fill="#fff" stroke="#903" stroke-width="0.4"/>
      <path id="Path_786" data-name="Path 786" d="M9.49,40.594h0a1.1,1.1,0,0,1-.784-.32L4.29,35.858,5.858,34.29,9.49,37.922l3.632-3.632,1.568,1.568-4.416,4.416A1.1,1.1,0,0,1,9.49,40.594Z" transform="translate(0.446 3.566)" fill="#fff" stroke="#903" stroke-width="0.4"/>
      <path id="Path_787" data-name="Path 787" d="M39.49,40.594a1.1,1.1,0,0,1-.784-.32L34.29,35.858l1.568-1.568,3.632,3.643,3.632-3.643,1.568,1.568-4.416,4.416A1.1,1.1,0,0,1,39.49,40.594Z" transform="translate(3.566 3.566)" fill="#fff" stroke="#903" stroke-width="0.4"/>
      <path id="Path_777" data-name="Path 777" d="M24.52,11.04a5.52,5.52,0,1,1,5.52-5.52A5.52,5.52,0,0,1,24.52,11.04Zm0-8.832A3.312,3.312,0,1,0,27.832,5.52,3.312,3.312,0,0,0,24.52,2.208Z" transform="translate(1.976)" fill="#fff" stroke="#903" stroke-width="0.4"/>
      <path id="Path_778" data-name="Path 778" d="M24.936,26.456a1.1,1.1,0,0,1-.585-.166l-8.832-5.52A1.1,1.1,0,0,1,15,19.832V16.52A5.52,5.52,0,0,1,20.52,11h8.832a5.52,5.52,0,0,1,5.52,5.52v3.312a1.1,1.1,0,0,1-.519.938l-8.832,5.52a1.1,1.1,0,0,1-.585.166Zm-7.728-7.231,7.728,4.824,7.728-4.824v-2.7a3.312,3.312,0,0,0-3.312-3.312H20.52a3.312,3.312,0,0,0-3.312,3.312Z" transform="translate(1.56 1.144)" fill="#fff" stroke="#903" stroke-width="0.4"/>
      <path id="Path_779" data-name="Path 779" d="M9.52,34.04a5.52,5.52,0,1,1,5.52-5.52A5.52,5.52,0,0,1,9.52,34.04Zm0-8.832a3.312,3.312,0,1,0,3.312,3.312A3.312,3.312,0,0,0,9.52,25.208Z" transform="translate(0.416 2.392)" fill="#fff" stroke="#903" stroke-width="0.4"/>
      <path id="Path_780" data-name="Path 780" d="M9.936,49.456a1.1,1.1,0,0,1-.585-.166L.519,43.77A1.1,1.1,0,0,1,0,42.832V39.52A5.52,5.52,0,0,1,5.52,34h8.832a5.52,5.52,0,0,1,5.52,5.52v3.312a1.1,1.1,0,0,1-.519.938l-8.832,5.52A1.1,1.1,0,0,1,9.936,49.456ZM2.208,42.225l7.728,4.824,7.728-4.824v-2.7a3.312,3.312,0,0,0-3.312-3.312H5.52A3.312,3.312,0,0,0,2.208,39.52Z" transform="translate(0 3.536)" fill="#fff" stroke="#903" stroke-width="0.4"/>
      <path id="Path_781" data-name="Path 781" d="M39.52,34.04a5.52,5.52,0,1,1,5.52-5.52A5.52,5.52,0,0,1,39.52,34.04Zm0-8.832a3.312,3.312,0,1,0,3.312,3.312,3.312,3.312,0,0,0-3.312-3.312Z" transform="translate(3.536 2.392)" fill="#fff" stroke="#903" stroke-width="0.4"/>
      <path id="Path_782" data-name="Path 782" d="M39.936,49.456a1.1,1.1,0,0,1-.585-.166l-8.832-5.52A1.1,1.1,0,0,1,30,42.832V39.52A5.52,5.52,0,0,1,35.52,34h8.832a5.52,5.52,0,0,1,5.52,5.52v3.312a1.1,1.1,0,0,1-.519.938l-8.832,5.52A1.1,1.1,0,0,1,39.936,49.456Zm-7.728-7.231,7.728,4.824,7.728-4.824v-2.7a3.312,3.312,0,0,0-3.312-3.312H35.52a3.312,3.312,0,0,0-3.312,3.312Z" transform="translate(3.12 3.536)" fill="#fff" stroke="#903" stroke-width="0.4"/>
      <path id="Path_783" data-name="Path 783" d="M10.208,22.768H8V9.52A5.52,5.52,0,0,1,13.52,4h4.416V6.208H13.52A3.312,3.312,0,0,0,10.208,9.52Z" transform="translate(0.832 0.416)" fill="#fff" stroke="#903" stroke-width="0.4"/>
      <path id="Path_784" data-name="Path 784" d="M40.936,22.768H38.728V9.52a3.312,3.312,0,0,0-3.312-3.312H31V4h4.416a5.52,5.52,0,0,1,5.52,5.52Z" transform="translate(3.224 0.416)" fill="#fff" stroke="#903" stroke-width="0.4"/>
    </g>
  </g>
</svg>
