<svg xmlns="http://www.w3.org/2000/svg" width="90.491" height="90.491" viewBox="0 0 90.491 90.491">
  <g id="Icon_10_-_selected" data-name="Icon 10 - selected" transform="translate(9807 1999.032)">
    <circle id="Ellipse_417" data-name="Ellipse 417" cx="45.245" cy="45.245" r="45.245" transform="translate(-9716.509 -1999.032) rotate(90)" fill="#903"/>
    <g id="Group_991" data-name="Group 991" transform="translate(-9787.696 -1985.254)">
      <path id="Path_804" data-name="Path 804" d="M41.763,27.1a4.815,4.815,0,0,0-3.2-2.219V9.181A4.6,4.6,0,0,0,33.97,4.59h-7.6a1.83,1.83,0,0,0-1.581-.918H23.558a5.509,5.509,0,0,0-10.391,0H11.935a1.83,1.83,0,0,0-1.581.918H4.591A4.6,4.6,0,0,0,0,9.181V47.741a4.6,4.6,0,0,0,4.591,4.591H20.712c.042.086.076.175.124.26a4.79,4.79,0,0,0,4.229,2.495H50.23a4.791,4.791,0,0,0,4.223-2.5,4.907,4.907,0,0,0-.106-5.025ZM36.725,9.181V24.886a4.758,4.758,0,0,0-1.836.774V10.1a1.836,1.836,0,0,0-1.836-1.836H26.625V6.426H33.97A2.754,2.754,0,0,1,36.725,9.181ZM11.935,5.508h1.928a.918.918,0,0,0,.9-.734,3.672,3.672,0,0,1,7.2,0,.918.918,0,0,0,.9.734h1.928V9.181H11.935Zm12.854,5.509A1.83,1.83,0,0,0,26.37,10.1h6.682V27.871L21.392,46.823H5.509V10.1h4.846a1.83,1.83,0,0,0,1.581.918ZM4.591,50.5a2.754,2.754,0,0,1-2.754-2.754V9.181A2.754,2.754,0,0,1,4.591,6.426H10.1V8.263H5.509A1.836,1.836,0,0,0,3.672,10.1V46.823A1.836,1.836,0,0,0,5.509,48.66H20.44a4.866,4.866,0,0,0-.225,1.836Zm48.257,1.2a2.977,2.977,0,0,1-2.622,1.554H25.065A2.976,2.976,0,0,1,22.443,51.7a3.1,3.1,0,0,1,.065-3.17L35.087,28.068a2.988,2.988,0,0,1,5.114,0l12.578,20.46a3.093,3.093,0,0,1,.069,3.167Z" fill="#fff" stroke="#903" stroke-width="0.3"/>
      <path id="Path_805" data-name="Path 805" d="M40.754,33A2.754,2.754,0,0,0,38,35.754v8.263a2.754,2.754,0,1,0,5.509,0V35.754A2.754,2.754,0,0,0,40.754,33Zm.918,11.017a.918.918,0,0,1-1.836,0V35.754a.918.918,0,0,1,1.836,0Z" transform="translate(-3.112 -2.703)" fill="#fff" stroke="#903" stroke-width="0.3"/>
      <path id="Path_806" data-name="Path 806" d="M40.754,50a2.754,2.754,0,1,0,2.754,2.754A2.754,2.754,0,0,0,40.754,50Zm0,3.672a.918.918,0,1,1,.918-.918A.918.918,0,0,1,40.754,53.672Z" transform="translate(-3.112 -4.095)" fill="#fff" stroke="#903" stroke-width="0.3"/>
      <path id="Path_807" data-name="Path 807" d="M19.918,18.836H31.854a.918.918,0,0,0,0-1.836H19.918a.918.918,0,1,0,0,1.836Z" transform="translate(-1.556 -1.393)" fill="#fff" stroke="#903" stroke-width="0.3"/>
      <path id="Path_808" data-name="Path 808" d="M19.918,22.836h5.509a.918.918,0,0,0,0-1.836H19.918a.918.918,0,1,0,0,1.836Z" transform="translate(-1.556 -1.72)" fill="#fff" stroke="#903" stroke-width="0.3"/>
      <path id="Path_809" data-name="Path 809" d="M19.918,29.836H31.854a.918.918,0,0,0,0-1.836H19.918a.918.918,0,1,0,0,1.836Z" transform="translate(-1.556 -2.293)" fill="#fff" stroke="#903" stroke-width="0.3"/>
      <path id="Path_810" data-name="Path 810" d="M19.918,33.836h5.509a.918.918,0,0,0,0-1.836H19.918a.918.918,0,1,0,0,1.836Z" transform="translate(-1.556 -2.621)" fill="#fff" stroke="#903" stroke-width="0.3"/>
      <path id="Path_811" data-name="Path 811" d="M19.918,40.836h6.427a.918.918,0,1,0,0-1.836H19.918a.918.918,0,1,0,0,1.836Z" transform="translate(-1.556 -3.194)" fill="#fff" stroke="#903" stroke-width="0.3"/>
      <path id="Path_812" data-name="Path 812" d="M19.918,44.836h3.672a.918.918,0,1,0,0-1.836H19.918a.918.918,0,1,0,0,1.836Z" transform="translate(-1.556 -3.522)" fill="#fff" stroke="#903" stroke-width="0.3"/>
      <path id="Path_813" data-name="Path 813" d="M9.269,20.778a.918.918,0,0,0,0,1.3l1.836,1.836a.918.918,0,0,0,.649.269.881.881,0,0,0,.147-.012.918.918,0,0,0,.675-.5l3.672-7.345a.918.918,0,1,0-1.643-.821l-3.1,6.206-.936-.936a.918.918,0,0,0-1.3,0Z" transform="translate(-0.737 -1.229)" fill="#fff" stroke="#903" stroke-width="0.3"/>
      <path id="Path_814" data-name="Path 814" d="M15.837,26.1a.918.918,0,0,0-1.232.411l-3.1,6.206-.936-.936a.918.918,0,1,0-1.3,1.3l1.836,1.836a.918.918,0,0,0,.649.269.881.881,0,0,0,.147-.012.918.918,0,0,0,.675-.5l3.672-7.345A.918.918,0,0,0,15.837,26.1Z" transform="translate(-0.737 -2.129)" fill="#fff" stroke="#903" stroke-width="0.3"/>
      <path id="Path_815" data-name="Path 815" d="M15.837,37.091a.918.918,0,0,0-1.232.411l-3.1,6.206-.936-.936a.918.918,0,1,0-1.3,1.3l1.836,1.836a.918.918,0,0,0,.649.274.88.88,0,0,0,.147-.012.918.918,0,0,0,.675-.5l3.672-7.345a.918.918,0,0,0-.411-1.237Z" transform="translate(-0.737 -3.03)" fill="#fff" stroke="#903" stroke-width="0.3"/>
    </g>
  </g>
</svg>
