<svg xmlns="http://www.w3.org/2000/svg" xmlns:xlink="http://www.w3.org/1999/xlink" width="539.699" height="397.115" viewBox="0 0 539.699 397.115">
  <defs>
    <clipPath id="clip-path">
      <rect id="Rectangle_201" data-name="Rectangle 201" width="221.615" height="246.793" fill="#903"/>
    </clipPath>
  </defs>
  <g id="Icon_1" data-name="Icon 1" transform="translate(-453 -3700.147)">
    <path id="Path_694" data-name="Path 694" d="M523.433,50.807C472.692-20.944,317.961-16.116,177.9,61.6A461.652,461.652,0,0,0,61.776,151.166,284.21,284.21,0,0,0,24.77,199.4C8.119,227.177-.134,254,.041,278.376a89.843,89.843,0,0,0,16.214,53.884c19.276,27.213,53.453,43.35,96,48.772l3.12.387,1.225.129a256.469,256.469,0,0,0,26.537,1.523h3.3c64.418-.155,141.9-20.836,215.329-61.6,140.151-77.716,212.53-198.885,161.672-270.662M338.578,305.641C213.183,375.2,74.928,379.691,29.611,315.711s19.655-172.239,144.962-241.8S438.223-.134,483.511,63.871s-19.567,172.317-144.875,241.77Z" transform="translate(453 3700.147)" fill="#dddad1" opacity="0.4"/>
    <g id="Group_208" data-name="Group 208" transform="translate(659 3850.469)">
      <g id="Group_207" data-name="Group 207" transform="translate(-0.001)" clip-path="url(#clip-path)">
        <path id="Path_630" data-name="Path 630" d="M38.153,220.515V237.87a1.786,1.786,0,0,0,.524,1.262l.516.516a2.9,2.9,0,0,0,2.05.85h164.38V61.7h-55.4V6.3H40.042l-1.89,1.888V84.363H31.858V1.89L33.746,0h120.88l58.552,58.551V244.9l-1.89,1.888H34.783a2.5,2.5,0,0,1-1.771-.732,3.946,3.946,0,0,1-1.155-2.79V220.952a1.653,1.653,0,0,1,1.178-1.584l2.549-.764a2,2,0,0,1,2.569,1.911M200.587,55.4l-44.07-42.811V55.4Z" transform="translate(8.436)" fill="#903"/>
        <path id="Path_631" data-name="Path 631" d="M84.994,61.723c3.984,1.231.329,13.258,2.466,16.421.453.669,10.266,5.024,11.98,4.422l10.986-9.38c1.568-.583,2.412.267,3.586,1.055,1.718,1.152,17.887,17.229,18.111,18.5l-9.81,12.693,3.768,11.525,17.466,3.311v27.072c-12.42,2.311-19.651-1.874-21.218,14.226l9.395,12.277c-.484,1.954-14.9,16.624-17.24,18.137-6.8,4.4-10.6-7.667-15.687-8.167l-11.742,3.989-1.429,17.457H58.552c-4.152-3.239-1.68-15.635-4.371-18.294-1.441-1.424-8.311-3.521-10.464-2.931-2.518.691-10.537,10.182-12.7,9.8L11.286,173.156a3.439,3.439,0,0,1,.636-1.862c3.367-7.319,13.823-7.983,6.652-19.23-4.733-7.423-12.815-.239-18.573-5.349V118.384l17.433-1.461c.916-3.753,4.852-7.613,3.793-11.479-.994-3.627-11.15-8.365-9.722-13.87.314-1.213,16.363-17.412,17.5-17.931,6.148-2.8,10.846,8.773,15.89,9.222l10.345-3.677,1.422-17.465Zm-4.407,6.3H62.959l-1.381,16.25-16.89,6.358c-5.04-.157-10.041-11.009-15.123-7.6-1.088.729-9.093,9.072-9.222,9.73l8.564,13.658-6.416,16.834L6.3,124.681v17.629l17.037,2.479L28.9,160.631l-8.8,12.525,11.825,11.86,10.919-9.409,18.284,6.936,1.83,15.167H80.588L82.667,182.5l17.367-6.229,11.23,8.763,11.556-11.22c1.4-3.085-6.574-7.864-7.622-10.13-2.076-4.487,5.3-14.489,5.9-19.9l15.605-2.646.621-15.723L121,123.3l-7.336-18.156,9.18-10.69c1.36-2.507-9.286-12.164-10.4-12.453-3.906-1.018-10.581,8.727-13.579,8.708L82.075,84.155Z" transform="translate(0 16.344)" fill="#aba28b"/>
        <path id="Path_632" data-name="Path 632" d="M96.189,125.273l4.247.154c3.711,1.2.269,11.191-.756,14.052-14.649,40.828-79.595,28.253-72.426-20.8C29.7,101.98,47.658,88.021,64.284,88c4.479-.008,24.049,4.167,22.994,10.044l-4.085,3.144c-26.917-19-60.773,8.621-46.818,39.2,13.782,30.2,60.214,18.136,59.815-15.112" transform="translate(7.071 23.301)" fill="#aba28b"/>
        <path id="Path_633" data-name="Path 633" d="M93.551,99.618h0a2.91,2.91,0,0,1,.775,2.466l-.047.293a2.874,2.874,0,0,1-1.074,1.8c-7.47,5.917-28.93,32.057-33.4,33.235-3.233.85-12.368-10.016-17.148-15.056a2.9,2.9,0,0,1,.054-4.054l.116-.118a2.909,2.909,0,0,1,3.994-.11l9.812,8.783a2.907,2.907,0,0,0,3.935-.052L89.458,99.518a2.908,2.908,0,0,1,4.093.1" transform="translate(11.084 26.142)" fill="#903"/>
      </g>
    </g>
  </g>
</svg>
