<svg xmlns="http://www.w3.org/2000/svg" xmlns:xlink="http://www.w3.org/1999/xlink" width="539.699" height="383.073" viewBox="0 0 539.699 383.073">
  <defs>
    <clipPath id="clip-path">
      <rect id="Rectangle_197" data-name="Rectangle 197" width="242.733" height="241.676" fill="#903"/>
    </clipPath>
    <clipPath id="clip-path-2">
      <path id="Path_863" data-name="Path 863" d="M-24329.723,4822.238l-8.156-5.529-4.562,10.782-43.121,81.579,5.139,37.376,23.826,19.155,13.566-3.277s11.8.851,17.969-.957,34.436-8.628,34.436-8.628l14.736-33.244-26.234-44.384-4.674-2.336-22.924-44.564Z" transform="translate(24385.563 -4816.709)" fill="none" stroke="#aba28b" stroke-width="1"/>
    </clipPath>
    <clipPath id="clip-path-3">
      <rect id="Rectangle_197-2" data-name="Rectangle 197" width="242.733" height="241.676" fill="#aba28b" stroke="#aba28b" stroke-width="1"/>
    </clipPath>
  </defs>
  <g id="Icon_3" data-name="Icon 3" transform="translate(24314.107 -1672.492)">
    <path id="Path_862" data-name="Path 862" d="M523.433,50.807C472.692-20.944,317.961-16.116,177.9,61.6A461.652,461.652,0,0,0,61.776,151.166,284.21,284.21,0,0,0,24.77,199.4C8.119,227.177-.134,254,.041,278.376a89.843,89.843,0,0,0,16.214,53.884c19.276,27.213,53.453,43.35,96,48.772l3.12.387,1.225.129a256.469,256.469,0,0,0,26.537,1.523h3.3c64.418-.155,141.9-20.836,215.329-61.6,140.151-77.716,212.53-198.885,161.672-270.662M338.578,305.641C213.183,375.2,74.928,379.691,29.611,315.711s19.655-172.239,144.962-241.8S438.223-.134,483.511,63.871s-19.567,172.317-144.875,241.77Z" transform="translate(-24314.107 1672.492)" fill="#dddad1" opacity="0.4"/>
    <g id="Group_393" data-name="Group 393" transform="translate(59.867 -2975.01)">
      <g id="Group_390" data-name="Group 390" transform="translate(-24179.559 4784.96)">
        <g id="Group_199" data-name="Group 199" clip-path="url(#clip-path)">
          <path id="Path_613" data-name="Path 613" d="M144.734,29.7c1.805-8.994,14.534-13.241,22.753-9.554a1.673,1.673,0,0,0,2.363-1.476c1.061-25.069,31.476-24.323,32.672.6a1.672,1.672,0,0,0,2.183,1.515c32.384-10.407,21,31.7,23.028,51.817a1.674,1.674,0,0,0,.943,1.317c9.6,4.744,11.99,10.131,12.862,21.077,1.839,23.092,2.414,87.157-4.732,107.2-18.784,52.686-93.594,51.571-113.745,2.07a1.657,1.657,0,0,0-3.092.021C98.586,259,14.36,252.412,3.059,192.736-.784,172.445-.65,113.916,1.5,92.541c.97-9.654,4.262-15.053,12.9-18.69a1.675,1.675,0,0,0,1.044-1.4C16.986,51.5,5.858,9.674,39.19,20.642a1.677,1.677,0,0,0,2.2-1.721C39.676-6.157,73.127-6.3,73.17,18.459a1.663,1.663,0,0,0,2.019,1.618c4.679-1.023,15.95-3.92,21.63,6.016A62.633,62.633,0,0,1,99.5,33.467V48.546a1.668,1.668,0,0,0,2.387,1.5c3.548-1.668,7.463-.6,11.567-.971a1.655,1.655,0,0,0,1.324-.948l4.717-9.88a1.673,1.673,0,0,1,2.966-.1l5.708,10.062a1.671,1.671,0,0,0,1.3.841l13.6,1.232a1.676,1.676,0,0,0,1.828-1.569c.345-6-1.208-13.8-.163-19.014M68.5,119.543a1.674,1.674,0,0,1-1.674-1.673V14.618c0-7.392-12.154-11.129-17.286-5.233a1.639,1.639,0,0,0-.383,1.045L46.833,117.525a1.675,1.675,0,0,1-1.495,1.627l-1.791.192a1.672,1.672,0,0,1-1.852-1.663V34.725a48.63,48.63,0,0,0-3.178-6.877c-4.2-4.82-13.557-3.26-15.974,2.8-1.4,3.519-1.627,41.887-.372,43.7.745,1.077,6.9,2.865,9.475,6.86C37,89.523,33.071,120.8,34.11,132.783c1.968,22.7,20.828,19.295,29.98,36.618,5.387,10.2,5.676,25.151.847,35.587-4.287,9.267-11.852,10.008-8.746,1.319,3.988-11.158,8.243-12.7,5.052-27.776-3.414-16.128-20-16.989-27.636-27.655-11.039-15.422-3-44.028-5.81-62.046-1.872-12-17.759-9.923-19.911.99a1.753,1.753,0,0,0-.019.526c3.986,34.914-9.82,91.995,10.164,121.342,30.478,44.755,98.142,23.038,100.208-29a1.679,1.679,0,0,0-1.465-1.708C87.4,176.871,71.7,152.367,78.755,123.3c2.723-11.211,12.954-26.465,14.381-35.882,1.434-9.472,1.275-41.659.109-51.471-.915-7.691-6.2-12.826-14.222-10.4-1.143.346-5.913,5-5.913,5.4V117.87a1.674,1.674,0,0,1-1.674,1.673Zm129.607-.2a1.672,1.672,0,0,1-1.852-1.663V14.618c0-11.1-20.105-9.566-20.105-1.256V117.681a1.673,1.673,0,0,1-1.853,1.663l-1.784-.192a1.672,1.672,0,0,1-1.494-1.636L169.6,31.435a1.734,1.734,0,0,0-.054-.419c-1.433-5.593-7.48-6.6-12.6-5.449C145.24,28.2,150.8,56.155,151.069,64.83c.216,7.064-1.516,18.036-.939,23.771.6,5.988,12.117,25.832,14.346,35.706,6.556,29.047-9.238,52.45-38.3,56.669a1.684,1.684,0,0,0-1.458,1.7c1.655,53.853,74.153,74.282,102.365,26.133,16.912-28.864,4.14-84.9,8.016-118.468a1.731,1.731,0,0,0-.013-.491c-2.161-12.759-18.2-11.995-19.909-1.015-2.531,16.237,3.636,40.286-2.337,55.467-6.415,16.3-25.747,15.257-31.31,34.033-3.9,13.173.323,17.49,4.953,28.272,2.78,6.478-2.057,7.234-5.855,2.067-10.914-14.846-6.436-38.566,7.492-50.138,8.218-6.829,17.43-6.864,20.144-20.066,2.95-14.349-3.661-48.671,4.3-58.533,1.935-2.4,4.439-3.454,7.069-4.727a1.671,1.671,0,0,0,.771-.768l.759-1.543a1.657,1.657,0,0,0,.15-.976c-1.375-9.678,2.733-36.949-1.312-43.35C216.6,23.2,204.052,24,202.807,31.224l-1.422,86.292a1.673,1.673,0,0,1-1.495,1.636Zm-90.544-64.93c-7.493,1.156-8.461,7.093-8.316,13.973a1.677,1.677,0,0,0,3.136.805l6.918-12.3a1.681,1.681,0,0,0-1.738-2.476M118.347,108.2V58.7A1.675,1.675,0,0,0,115.2,57.9l-.024.042c-8.777,14.686-30.687,59.087-32.067,74.739-1.871,21.235,12.375,40.07,33.444,42.026a1.662,1.662,0,0,0,1.791-1.67V156.612c0-1.433-17.97-16.369-20.977-21.475a1.679,1.679,0,0,1,.086-1.842l1.54-2.12a1.673,1.673,0,0,1,2.516-.222l14,13.5a1.674,1.674,0,0,0,2.836-1.2V120.864a1.672,1.672,0,0,0-.49-1.182l-13.182-13.2a1.673,1.673,0,0,1,.2-2.538l1.512-1.1a1.674,1.674,0,0,1,2.113.122l7.038,6.46a1.674,1.674,0,0,0,2.805-1.232m6.282,64.951a1.691,1.691,0,0,0,1.778,1.675c18.393-.722,34.765-20.469,34.525-38.18-.207-15.215-24.4-64.09-33.134-78.7l-.024-.042a1.675,1.675,0,0,0-3.145.794v48.184a1.673,1.673,0,0,0,2.819,1.22l6.921-6.5a1.7,1.7,0,0,1,2.216-.074c7.086,5.6-11.956,15.791-11.956,18.646V142.63a1.673,1.673,0,0,0,2.8,1.237c4.611-4.213,11.256-12.847,15.222-14.163a1.671,1.671,0,0,1,1.942.717l1.031,1.664a1.622,1.622,0,0,1,.08,1.625c-2.7,4.943-21.077,20.2-21.077,21.645Zm19.1-104.761c.144-6.881-.823-12.817-8.316-13.973a1.682,1.682,0,0,0-1.74,2.476l6.92,12.3a1.677,1.677,0,0,0,3.136-.805" transform="translate(0 0)" fill="#903"/>
        </g>
      </g>
      <g id="Mask_Group_81" data-name="Mask Group 81" transform="translate(-24107.418 4820.197)" clip-path="url(#clip-path-2)">
        <g id="Group_391" data-name="Group 391" transform="translate(-72.141 -35.237)">
          <g id="Group_199-2" data-name="Group 199" clip-path="url(#clip-path-3)">
            <path id="Path_613-2" data-name="Path 613" d="M144.734,29.7c1.805-8.994,14.534-13.241,22.753-9.554a1.673,1.673,0,0,0,2.363-1.476c1.061-25.069,31.476-24.323,32.672.6a1.672,1.672,0,0,0,2.183,1.515c32.384-10.407,21,31.7,23.028,51.817a1.674,1.674,0,0,0,.943,1.317c9.6,4.744,11.99,10.131,12.862,21.077,1.839,23.092,2.414,87.157-4.732,107.2-18.784,52.686-93.594,51.571-113.745,2.07a1.657,1.657,0,0,0-3.092.021C98.586,259,14.36,252.412,3.059,192.736-.784,172.445-.65,113.916,1.5,92.541c.97-9.654,4.262-15.053,12.9-18.69a1.675,1.675,0,0,0,1.044-1.4C16.986,51.5,5.858,9.674,39.19,20.642a1.677,1.677,0,0,0,2.2-1.721C39.676-6.157,73.127-6.3,73.17,18.459a1.663,1.663,0,0,0,2.019,1.618c4.679-1.023,15.95-3.92,21.63,6.016A62.633,62.633,0,0,1,99.5,33.467V48.546a1.668,1.668,0,0,0,2.387,1.5c3.548-1.668,7.463-.6,11.567-.971a1.655,1.655,0,0,0,1.324-.948l4.717-9.88a1.673,1.673,0,0,1,2.966-.1l5.708,10.062a1.671,1.671,0,0,0,1.3.841l13.6,1.232a1.676,1.676,0,0,0,1.828-1.569c.345-6-1.208-13.8-.163-19.014M68.5,119.543a1.674,1.674,0,0,1-1.674-1.673V14.618c0-7.392-12.154-11.129-17.286-5.233a1.639,1.639,0,0,0-.383,1.045L46.833,117.525a1.675,1.675,0,0,1-1.495,1.627l-1.791.192a1.672,1.672,0,0,1-1.852-1.663V34.725a48.63,48.63,0,0,0-3.178-6.877c-4.2-4.82-13.557-3.26-15.974,2.8-1.4,3.519-1.627,41.887-.372,43.7.745,1.077,6.9,2.865,9.475,6.86C37,89.523,33.071,120.8,34.11,132.783c1.968,22.7,20.828,19.295,29.98,36.618,5.387,10.2,5.676,25.151.847,35.587-4.287,9.267-11.852,10.008-8.746,1.319,3.988-11.158,8.243-12.7,5.052-27.776-3.414-16.128-20-16.989-27.636-27.655-11.039-15.422-3-44.028-5.81-62.046-1.872-12-17.759-9.923-19.911.99a1.753,1.753,0,0,0-.019.526c3.986,34.914-9.82,91.995,10.164,121.342,30.478,44.755,98.142,23.038,100.208-29a1.679,1.679,0,0,0-1.465-1.708C87.4,176.871,71.7,152.367,78.755,123.3c2.723-11.211,12.954-26.465,14.381-35.882,1.434-9.472,1.275-41.659.109-51.471-.915-7.691-6.2-12.826-14.222-10.4-1.143.346-5.913,5-5.913,5.4V117.87a1.674,1.674,0,0,1-1.674,1.673Zm129.607-.2a1.672,1.672,0,0,1-1.852-1.663V14.618c0-11.1-20.105-9.566-20.105-1.256V117.681a1.673,1.673,0,0,1-1.853,1.663l-1.784-.192a1.672,1.672,0,0,1-1.494-1.636L169.6,31.435a1.734,1.734,0,0,0-.054-.419c-1.433-5.593-7.48-6.6-12.6-5.449C145.24,28.2,150.8,56.155,151.069,64.83c.216,7.064-1.516,18.036-.939,23.771.6,5.988,12.117,25.832,14.346,35.706,6.556,29.047-9.238,52.45-38.3,56.669a1.684,1.684,0,0,0-1.458,1.7c1.655,53.853,74.153,74.282,102.365,26.133,16.912-28.864,4.14-84.9,8.016-118.468a1.731,1.731,0,0,0-.013-.491c-2.161-12.759-18.2-11.995-19.909-1.015-2.531,16.237,3.636,40.286-2.337,55.467-6.415,16.3-25.747,15.257-31.31,34.033-3.9,13.173.323,17.49,4.953,28.272,2.78,6.478-2.057,7.234-5.855,2.067-10.914-14.846-6.436-38.566,7.492-50.138,8.218-6.829,17.43-6.864,20.144-20.066,2.95-14.349-3.661-48.671,4.3-58.533,1.935-2.4,4.439-3.454,7.069-4.727a1.671,1.671,0,0,0,.771-.768l.759-1.543a1.657,1.657,0,0,0,.15-.976c-1.375-9.678,2.733-36.949-1.312-43.35C216.6,23.2,204.052,24,202.807,31.224l-1.422,86.292a1.673,1.673,0,0,1-1.495,1.636Zm-90.544-64.93c-7.493,1.156-8.461,7.093-8.316,13.973a1.677,1.677,0,0,0,3.136.805l6.918-12.3a1.681,1.681,0,0,0-1.738-2.476M118.347,108.2V58.7A1.675,1.675,0,0,0,115.2,57.9l-.024.042c-8.777,14.686-30.687,59.087-32.067,74.739-1.871,21.235,12.375,40.07,33.444,42.026a1.662,1.662,0,0,0,1.791-1.67V156.612c0-1.433-17.97-16.369-20.977-21.475a1.679,1.679,0,0,1,.086-1.842l1.54-2.12a1.673,1.673,0,0,1,2.516-.222l14,13.5a1.674,1.674,0,0,0,2.836-1.2V120.864a1.672,1.672,0,0,0-.49-1.182l-13.182-13.2a1.673,1.673,0,0,1,.2-2.538l1.512-1.1a1.674,1.674,0,0,1,2.113.122l7.038,6.46a1.674,1.674,0,0,0,2.805-1.232m6.282,64.951a1.691,1.691,0,0,0,1.778,1.675c18.393-.722,34.765-20.469,34.525-38.18-.207-15.215-24.4-64.09-33.134-78.7l-.024-.042a1.675,1.675,0,0,0-3.145.794v48.184a1.673,1.673,0,0,0,2.819,1.22l6.921-6.5a1.7,1.7,0,0,1,2.216-.074c7.086,5.6-11.956,15.791-11.956,18.646V142.63a1.673,1.673,0,0,0,2.8,1.237c4.611-4.213,11.256-12.847,15.222-14.163a1.671,1.671,0,0,1,1.942.717l1.031,1.664a1.622,1.622,0,0,1,.08,1.625c-2.7,4.943-21.077,20.2-21.077,21.645Zm19.1-104.761c.144-6.881-.823-12.817-8.316-13.973a1.682,1.682,0,0,0-1.74,2.476l6.92,12.3a1.677,1.677,0,0,0,3.136-.805" transform="translate(0 0)" fill="#aba28b" stroke="#aba28b" stroke-width="1"/>
          </g>
        </g>
      </g>
    </g>
  </g>
</svg>
