<svg xmlns="http://www.w3.org/2000/svg" width="72.491" height="72.491" viewBox="0 0 72.491 72.491">
  <g id="Icon_7_-_not_selected" data-name="Icon 7 - not selected" transform="translate(10148.385 2114.032)">
    <circle id="Ellipse_125" data-name="Ellipse 125" cx="36.245" cy="36.245" r="36.245" transform="translate(-10075.894 -2114.032) rotate(90)" fill="#d0cabe"/>
    <g id="Group_293" data-name="Group 293" transform="translate(-10135.838 -2101.007)">
      <path id="Path_797" data-name="Path 797" d="M44.509,20.407,42.1,18a3.593,3.593,0,0,1-1.059-2.558v-3.4A5.09,5.09,0,0,0,35.96,6.957h-3.4A3.593,3.593,0,0,1,30,5.9L27.593,3.491a5.089,5.089,0,0,0-7.186,0L18,5.9a3.593,3.593,0,0,1-2.558,1.059h-3.4a5.09,5.09,0,0,0-5.084,5.084v3.4A3.593,3.593,0,0,1,5.9,18L3.491,20.407a5.089,5.089,0,0,0,0,7.186L5.9,30a3.593,3.593,0,0,1,1.059,2.558v3.4a5.09,5.09,0,0,0,5.084,5.084h3.4A3.593,3.593,0,0,1,18,42.1l2.407,2.407a5.09,5.09,0,0,0,7.186,0L30,42.1a3.593,3.593,0,0,1,2.558-1.059h3.4a5.09,5.09,0,0,0,5.084-5.084v-3.4A3.593,3.593,0,0,1,42.1,30l2.407-2.407a5.089,5.089,0,0,0,0-7.186Zm-1.037,6.152-2.406,2.406a5.053,5.053,0,0,0-1.489,3.593v3.4a3.622,3.622,0,0,1-3.617,3.617h-3.4a5.053,5.053,0,0,0-3.593,1.489l-2.406,2.406a3.617,3.617,0,0,1-5.115,0l-2.406-2.406a5.053,5.053,0,0,0-3.593-1.489h-3.4A3.622,3.622,0,0,1,8.425,35.96v-3.4a5.053,5.053,0,0,0-1.489-3.593L4.528,26.558a3.617,3.617,0,0,1,0-5.115l2.406-2.406a5.053,5.053,0,0,0,1.489-3.593v-3.4a3.622,3.622,0,0,1,3.617-3.617h3.4a5.053,5.053,0,0,0,3.593-1.489l2.406-2.406a3.617,3.617,0,0,1,5.115,0l2.406,2.406a5.053,5.053,0,0,0,3.593,1.489h3.4a3.622,3.622,0,0,1,3.617,3.617v3.4a5.053,5.053,0,0,0,1.489,3.593l2.406,2.406a3.617,3.617,0,0,1,0,5.115Z" fill="#aba28b" stroke="#d0cabe" stroke-width="0.4"/>
      <path id="Path_798" data-name="Path 798" d="M39.072,22.065a2.264,2.264,0,0,1-.668-1.613V18.1a3.749,3.749,0,0,0-3.745-3.746H32.3a2.264,2.264,0,0,1-1.613-.668L29.025,12.02a3.748,3.748,0,0,0-5.3,0l-1.664,1.666a2.264,2.264,0,0,1-1.613.668H18.1A3.749,3.749,0,0,0,14.353,18.1v2.355a2.264,2.264,0,0,1-.668,1.613L12.02,23.733a3.749,3.749,0,0,0,0,5.3l1.665,1.666a2.264,2.264,0,0,1,.668,1.613v2.355A3.749,3.749,0,0,0,18.1,38.4h2.355a2.264,2.264,0,0,1,1.613.668l1.666,1.665a3.749,3.749,0,0,0,5.3,0l1.666-1.665a2.264,2.264,0,0,1,1.613-.668h2.355A3.749,3.749,0,0,0,38.4,34.659V32.3a2.264,2.264,0,0,1,.668-1.613l1.665-1.666a3.749,3.749,0,0,0,0-5.3ZM39.7,27.99l-1.662,1.666a3.72,3.72,0,0,0-1.1,2.648v2.355a2.28,2.28,0,0,1-2.279,2.279H32.3a3.72,3.72,0,0,0-2.648,1.1L27.992,39.7a2.281,2.281,0,0,1-3.222,0L23.1,38.038a3.72,3.72,0,0,0-2.648-1.1H18.1a2.28,2.28,0,0,1-2.279-2.279V32.3a3.72,3.72,0,0,0-1.1-2.648l-1.662-1.664a2.281,2.281,0,0,1,0-3.222L14.72,23.1a3.72,3.72,0,0,0,1.1-2.648V18.1A2.28,2.28,0,0,1,18.1,15.819h2.355a3.72,3.72,0,0,0,2.648-1.1l1.664-1.662a2.281,2.281,0,0,1,3.222,0l1.668,1.662a3.72,3.72,0,0,0,2.648,1.1h2.355A2.28,2.28,0,0,1,36.938,18.1v2.355a3.72,3.72,0,0,0,1.1,2.648L39.7,24.765a2.28,2.28,0,0,1,0,3.226Z" transform="translate(-2.379 -2.379)" fill="#aba28b" stroke="#d0cabe" stroke-width="0.4"/>
      <path id="Path_799" data-name="Path 799" d="M36.6,24.049l-4.359-.634a.285.285,0,0,1-.21-.153l-1.949-3.95a1.746,1.746,0,0,0-3.131,0L25,23.263a.283.283,0,0,1-.21.153l-4.359.634a1.746,1.746,0,0,0-.969,2.977L22.617,30.1a.275.275,0,0,1,.08.246l-.744,4.342a1.743,1.743,0,0,0,2.532,1.84l3.9-2.053a.277.277,0,0,1,.26,0l3.9,2.053a1.745,1.745,0,0,0,2.533-1.84l-.744-4.342a.274.274,0,0,1,.081-.246l3.153-3.075a1.746,1.746,0,0,0-.969-2.977Zm-.056,1.927L33.391,29.05a1.743,1.743,0,0,0-.5,1.546l.745,4.342a.271.271,0,0,1-.111.274.265.265,0,0,1-.293.021l-3.9-2.05a1.743,1.743,0,0,0-1.624,0l-3.9,2.05a.266.266,0,0,1-.293-.021.271.271,0,0,1-.111-.274l.745-4.341a1.743,1.743,0,0,0-.5-1.546l-3.153-3.075a.279.279,0,0,1,.155-.477L25,24.866a1.742,1.742,0,0,0,1.312-.955l1.949-3.949a.28.28,0,0,1,.5,0l1.949,3.95a1.743,1.743,0,0,0,1.315.953l4.359.634a.279.279,0,0,1,.155.477Z" transform="translate(-4.516 -4.357)" fill="#aba28b" stroke="#d0cabe" stroke-width="0.4"/>
    </g>
  </g>
</svg>
