<svg xmlns="http://www.w3.org/2000/svg" width="72.491" height="72.491" viewBox="0 0 72.491 72.491">
  <g id="Icon_11_-_not_selected" data-name="Icon 11 - not selected" transform="translate(9815.926 2114.032)">
    <circle id="Ellipse_131" data-name="Ellipse 131" cx="36.245" cy="36.245" r="36.245" transform="translate(-9743.435 -2114.032) rotate(90)" fill="#d0cabe"/>
    <path id="Path_816" data-name="Path 816" d="M33.062,13.694H28.71A1.814,1.814,0,0,0,26.9,15.506v1.145A14.784,14.784,0,0,0,23.651,18l-.809-.809a1.815,1.815,0,0,0-2.564,0L17.2,20.264a1.815,1.815,0,0,0,0,2.564l.811.811a14.7,14.7,0,0,0-1.349,3.248H15.52A1.815,1.815,0,0,0,13.705,28.7v4.352a1.817,1.817,0,0,0,1.815,1.815h1.141a14.645,14.645,0,0,0,1.348,3.245l-.811.811a1.815,1.815,0,0,0,0,2.564l3.079,3.076a1.815,1.815,0,0,0,2.564,0l.808-.808A14.7,14.7,0,0,0,26.9,45.1v1.145a1.814,1.814,0,0,0,1.812,1.812h4.352a1.815,1.815,0,0,0,1.815-1.812V45.1a14.708,14.708,0,0,0,3.248-1.346l.808.808a1.815,1.815,0,0,0,2.564,0l3.079-3.076a1.815,1.815,0,0,0,0-2.564l-.811-.811a14.55,14.55,0,0,0,1.346-3.245h1.144a1.817,1.817,0,0,0,1.815-1.815V28.7a1.815,1.815,0,0,0-1.815-1.812H45.11a14.611,14.611,0,0,0-1.346-3.248l.81-.81a1.815,1.815,0,0,0,0-2.566L41.5,17.188a1.815,1.815,0,0,0-2.564,0L38.124,18a14.706,14.706,0,0,0-3.248-1.346V15.506a1.815,1.815,0,0,0-1.815-1.812Zm4.832,5.653a.641.641,0,0,0,.787-.094l1.158-1.158a.532.532,0,0,1,.751,0l3.079,3.076a.533.533,0,0,1,0,.751l-1.161,1.161a.641.641,0,0,0-.094.787,13.338,13.338,0,0,1,1.579,3.809.641.641,0,0,0,.623.491h1.639a.531.531,0,0,1,.532.529v4.352a.533.533,0,0,1-.532.532H44.615a.641.641,0,0,0-.623.491,13.28,13.28,0,0,1-1.578,3.806.641.641,0,0,0,.094.787l1.161,1.161a.532.532,0,0,1,0,.75L40.59,43.655a.532.532,0,0,1-.751,0L38.681,42.5a.641.641,0,0,0-.787-.094,13.431,13.431,0,0,1-3.811,1.579.641.641,0,0,0-.489.623v1.639a.531.531,0,0,1-.532.529H28.71a.53.53,0,0,1-.529-.529V44.6a.641.641,0,0,0-.489-.623A13.431,13.431,0,0,1,23.88,42.4a.641.641,0,0,0-.787.094l-1.158,1.158a.533.533,0,0,1-.751,0l-3.079-3.076a.532.532,0,0,1,0-.751l1.161-1.161a.641.641,0,0,0,.094-.787,13.373,13.373,0,0,1-1.582-3.807.641.641,0,0,0-.623-.489H15.52a.533.533,0,0,1-.532-.532V28.7a.531.531,0,0,1,.532-.529h1.636a.641.641,0,0,0,.623-.489,13.429,13.429,0,0,1,1.582-3.811.641.641,0,0,0-.094-.787L18.1,21.92a.521.521,0,0,1-.153-.372.529.529,0,0,1,.154-.377l3.079-3.076a.531.531,0,0,1,.751,0l1.158,1.158a.641.641,0,0,0,.786.095,13.51,13.51,0,0,1,3.812-1.58.641.641,0,0,0,.489-.623V15.506a.53.53,0,0,1,.529-.529h4.352a.531.531,0,0,1,.532.529v1.639a.641.641,0,0,0,.489.623,13.432,13.432,0,0,1,3.811,1.579ZM8.14,24.935A23.548,23.548,0,0,1,22.278,9l-1.157-.205a.641.641,0,1,1,.224-1.263l3.636.645a.643.643,0,0,1,.18.056.65.65,0,0,1,.059.032.639.639,0,0,1,.277.363c0,.013.007.027.011.041a.641.641,0,0,1-.093.5.629.629,0,0,1-.054.07l-2.422,2.8a.641.641,0,1,1-.969-.84l.913-1.054a22.263,22.263,0,0,0-13.5,15.119.641.641,0,0,1-1.241-.323Zm27.9-16.347a.641.641,0,0,1,.782-.459A23.54,23.54,0,0,1,52.761,22.265l.205-1.158a.641.641,0,1,1,1.263.224l-.645,3.639a.642.642,0,0,1-.449.516l-.045.012a.639.639,0,0,1-.418-.048.661.661,0,0,1-.068-.038h0a.649.649,0,0,1-.081-.062L49.73,22.929a.641.641,0,1,1,.84-.969l1.051.912A22.254,22.254,0,0,0,36.5,9.37a.641.641,0,0,1-.459-.782ZM53.631,36.814A23.537,23.537,0,0,1,39.5,52.75l1.157.205a.641.641,0,0,1-.111,1.273.635.635,0,0,1-.113-.01l-3.636-.645a.638.638,0,0,1-.179-.055h0a.623.623,0,0,1-.061-.033c-.02-.012,0,0,0,0a.639.639,0,0,1-.276-.362c0-.014-.008-.028-.011-.042a.639.639,0,0,1,.043-.409c.057-.124,0,0,0,0a.635.635,0,0,1,.051-.09.651.651,0,0,1,.053-.069l2.422-2.8a.641.641,0,0,1,.969.84L38.89,51.61a22.252,22.252,0,0,0,13.5-15.119.641.641,0,1,1,1.241.323Zm-27.9,16.347a.641.641,0,0,1-.782.459A23.549,23.549,0,0,1,9.011,39.489l-.2,1.153a.641.641,0,1,1-1.263-.223l.642-3.636a.644.644,0,0,1,.051-.17.652.652,0,0,1,.045-.082.639.639,0,0,1,.355-.266l.041-.011A.639.639,0,0,1,9.1,36.3a.625.625,0,0,1,.075.042.644.644,0,0,1,.076.058l2.8,2.419a.641.641,0,1,1-.839.97l-1.056-.913a22.264,22.264,0,0,0,15.123,13.5.641.641,0,0,1,.459.782ZM21.118,30.876a9.715,9.715,0,0,0,1.809,5.657.647.647,0,0,0,.071.1,9.758,9.758,0,0,0,15.5.357.643.643,0,0,0,.106-.134,9.767,9.767,0,1,0-17.49-5.978Zm9.769,8.487a8.475,8.475,0,0,1-6.694-3.279c.579-1.48,2.3-2.569,4.7-2.96a4.537,4.537,0,0,0,3.682,0c2.556.419,4.312,1.611,4.786,3.236a8.47,8.47,0,0,1-6.471,3ZM32.2,31.879l-.008,0a3.314,3.314,0,1,1,.008,0Zm7.171-1a8.432,8.432,0,0,1-1.143,4.246,6.61,6.61,0,0,0-4.232-3,4.554,4.554,0,1,0-6.537,0,6.855,6.855,0,0,0-4.071,2.721,8.485,8.485,0,1,1,15.984-3.971ZM27.5,11.72h6.451a.641.641,0,0,0,.641-.641V4.627a.641.641,0,0,0-.641-.641H27.5a.641.641,0,0,0-.641.641v6.451a.641.641,0,0,0,.641.641Zm.641-6.451H33.31v5.169H28.141V5.268Zm25.768,21.74a3.867,3.867,0,1,0,3.865,3.868A3.873,3.873,0,0,0,53.909,27.008Zm0,6.451a2.584,2.584,0,1,1,2.583-2.583A2.587,2.587,0,0,1,53.909,33.459ZM31.443,50.345a.641.641,0,0,0-1.11,0L26.6,56.8a.641.641,0,0,0,.555.962h7.455a.641.641,0,0,0,.555-.962Zm-3.174,6.137,2.618-4.534L33.5,56.481ZM10.589,34.309l1.8-3.112a.641.641,0,0,0,0-.641l-1.8-3.115a.641.641,0,0,0-.555-.321h-3.6a.641.641,0,0,0-.555.321l-1.8,3.115a.642.642,0,0,0,0,.641l1.8,3.112a.641.641,0,0,0,.555.321h3.6a.641.641,0,0,0,.555-.321Zm-3.781-.962L5.381,30.876,6.808,28.4H9.663l1.427,2.474L9.664,33.347Z" transform="translate(-9810.028 -2108.661)" fill="#aba28b"/>
  </g>
</svg>
