<svg xmlns="http://www.w3.org/2000/svg" width="72.491" height="72.491" viewBox="0 0 72.491 72.491">
  <g id="Icon_5_-_not_selected" data-name="Icon 5 - not selected" transform="translate(10314.197 2114.032)">
    <circle id="Ellipse_123" data-name="Ellipse 123" cx="36.245" cy="36.245" r="36.245" transform="translate(-10241.706 -2114.032) rotate(90)" fill="#d0cabe"/>
    <path id="Path_791" data-name="Path 791" d="M32.96,36.551a1.977,1.977,0,0,0,.729,1.537.633.633,0,1,1-.8.98,3.25,3.25,0,0,1,0-5.033.633.633,0,1,1,.8.98,1.977,1.977,0,0,0-.729,1.537Zm7.825,1.307a3.7,3.7,0,0,1,.04,2.541,3.743,3.743,0,0,1-2.076,2.213,4.715,4.715,0,0,1-.439,2,5.273,5.273,0,0,1-3.74,2.82,3.984,3.984,0,0,1-5.835,1.385,4.012,4.012,0,0,1-2.323.739A3.957,3.957,0,0,1,22.9,47.437a5.27,5.27,0,0,1-3.754-2.85,4.725,4.725,0,0,1-.434-1.977,3.722,3.722,0,0,1-2.028-4.753,5.846,5.846,0,0,1-.492-4.588,4.972,4.972,0,0,1,2.53-3.077,4.71,4.71,0,0,1,.426-1.683A5.27,5.27,0,0,1,22.9,25.664a3.975,3.975,0,0,1,5.835-1.384,3.975,3.975,0,0,1,5.835,1.384,5.27,5.27,0,0,1,3.753,2.847,4.708,4.708,0,0,1,.425,1.681,4.977,4.977,0,0,1,2.536,3.1,5.849,5.849,0,0,1-.5,4.566ZM28.1,47.714v-2.25a3.2,3.2,0,0,1-1.605.773.633.633,0,1,1-.213-1.247A2.365,2.365,0,0,0,28.1,42.609V25.388a2.718,2.718,0,1,0-2.411,4.753.633.633,0,1,1-.339,1.219,4,4,0,0,1-2.9-3.486,3.929,3.929,0,0,1,.006-.755A3.806,3.806,0,0,0,20.3,29.04a3.947,3.947,0,0,0,.237,3.548.633.633,0,1,1-1.118.591,6.146,6.146,0,0,1-.584-1.585A3.828,3.828,0,0,0,17.4,33.639a4.649,4.649,0,0,0,.081,2.963,3.706,3.706,0,0,1,1.058-.767.633.633,0,1,1,.55,1.139,2.454,2.454,0,0,0-.207,4.307,6.24,6.24,0,0,1,.53-1.359.633.633,0,1,1,1.118.591,3.948,3.948,0,0,0-.239,3.545,3.806,3.806,0,0,0,2.162,1.925,3.931,3.931,0,0,1-.006-.755,4,4,0,0,1,2.9-3.486.633.633,0,0,1,.339,1.219A2.718,2.718,0,1,0,28.1,47.714ZM39.078,37.483a2.444,2.444,0,0,0-.7-.509.633.633,0,1,1,.55-1.139,3.708,3.708,0,0,1,1.058.766,4.654,4.654,0,0,0,.086-2.946,3.833,3.833,0,0,0-1.434-2.062,6.15,6.15,0,0,1-.584,1.586.633.633,0,1,1-1.118-.591,3.948,3.948,0,0,0,.238-3.547,3.806,3.806,0,0,0-2.161-1.922,3.93,3.93,0,0,1,.006.755,4,4,0,0,1-2.9,3.486.633.633,0,0,1-.339-1.219,2.719,2.719,0,1,0-2.411-4.755v2.252a3.2,3.2,0,0,1,1.605-.773.633.633,0,1,1,.213,1.247,2.365,2.365,0,0,0-1.818,2.381V47.715a2.719,2.719,0,1,0,2.411-4.755.633.633,0,0,1,.339-1.219,4,4,0,0,1,2.9,3.486,3.936,3.936,0,0,1-.006.754,3.809,3.809,0,0,0,2.152-1.9,3.941,3.941,0,0,0-.229-3.565.633.633,0,0,1,1.118-.591,6.125,6.125,0,0,1,.525,1.361,2.471,2.471,0,0,0,1.05-1.3,2.444,2.444,0,0,0-.551-2.5Zm-14.5-3.449a.633.633,0,1,0-.8.98,1.985,1.985,0,0,1,0,3.074.633.633,0,1,0,.8.98,3.25,3.25,0,0,0,0-5.033ZM51.311,13.743v2.538a.633.633,0,0,1-.51.621l-1.008.2-.5,1.2.572.853a.633.633,0,0,1-.078.8L48,21.747a.632.632,0,0,1-.8.078l-.854-.572-1.2.5-.2,1.008a.633.633,0,0,1-.621.51H41.787a.633.633,0,0,1-.621-.51l-.2-1.008-1.2-.5-.854.572a.632.632,0,0,1-.8-.078l-1.795-1.795a.633.633,0,0,1-.078-.8l.572-.853-.5-1.2-1.008-.2a.633.633,0,0,1-.51-.621V13.743a.633.633,0,0,1,.51-.621l1.008-.2.5-1.2-.572-.854a.632.632,0,0,1,.078-.8l1.795-1.795a.633.633,0,0,1,.8-.078l.854.572,1.2-.5.2-1.008a.633.633,0,0,1,.621-.51h2.538a.633.633,0,0,1,.621.51l.2,1.008,1.2.5L47.2,8.2a.633.633,0,0,1,.8.078l1.795,1.795a.632.632,0,0,1,.078.8l-.572.854.5,1.2,1.008.2a.633.633,0,0,1,.51.621Zm-1.265.52-.83-.164a.633.633,0,0,1-.462-.378L48,11.9a.633.633,0,0,1,.059-.594l.472-.7L47.469,9.54l-.7.472a.633.633,0,0,1-.594.059l-1.824-.756a.632.632,0,0,1-.378-.462l-.164-.83h-1.5l-.164.83a.633.633,0,0,1-.378.462l-1.824.756a.633.633,0,0,1-.594-.059l-.7-.472L37.584,10.6l.472.7a.632.632,0,0,1,.059.594l-.756,1.824a.632.632,0,0,1-.462.378l-.83.164v1.5l.83.164a.633.633,0,0,1,.462.378l.756,1.824a.633.633,0,0,1-.059.594l-.472.7,1.059,1.059.7-.472a.632.632,0,0,1,.594-.059l1.824.756a.632.632,0,0,1,.378.462l.164.83h1.5l.164-.83a.633.633,0,0,1,.378-.462l1.824-.756a.633.633,0,0,1,.594.059l.7.472,1.059-1.059-.472-.7A.632.632,0,0,1,48,18.127l.756-1.824a.632.632,0,0,1,.462-.378l.83-.164Zm-2.448.749a4.542,4.542,0,1,1-4.542-4.542A4.547,4.547,0,0,1,47.6,15.012Zm-1.265,0a3.276,3.276,0,1,0-3.276,3.276A3.28,3.28,0,0,0,46.333,15.012ZM15.681,23.267H13.143a.633.633,0,0,1-.621-.51l-.2-1.008-1.2-.5-.854.572a.632.632,0,0,1-.8-.078L7.677,19.952a.632.632,0,0,1-.078-.8l.572-.853-.5-1.2-1.008-.2a.633.633,0,0,1-.51-.621V13.743a.633.633,0,0,1,.51-.621l1.008-.2.5-1.2L7.6,10.872a.633.633,0,0,1,.078-.8L9.472,8.277a.632.632,0,0,1,.8-.078l.854.572,1.2-.5.2-1.008a.633.633,0,0,1,.621-.51h2.538a.633.633,0,0,1,.621.51l.2,1.008,1.2.5.853-.572a.633.633,0,0,1,.8.078l1.795,1.795a.632.632,0,0,1,.078.8l-.572.854.5,1.2,1.008.2a.633.633,0,0,1,.51.621v2.538a.633.633,0,0,1-.51.621l-1.008.2-.5,1.2.572.853a.633.633,0,0,1-.078.8l-1.795,1.795a.633.633,0,0,1-.8.078l-.854-.572-1.2.5-.2,1.008a.633.633,0,0,1-.621.51ZM15.7,20.71l1.824-.756a.633.633,0,0,1,.594.059l.7.472,1.059-1.059-.472-.7a.632.632,0,0,1-.059-.594L20.11,16.3a.632.632,0,0,1,.462-.378l.83-.164v-1.5l-.83-.164a.633.633,0,0,1-.462-.378L19.354,11.9a.633.633,0,0,1,.059-.594l.472-.7L18.825,9.54l-.7.472a.632.632,0,0,1-.594.059L15.7,9.314a.632.632,0,0,1-.378-.462l-.164-.83h-1.5l-.164.83a.633.633,0,0,1-.378.462L11.3,10.07a.633.633,0,0,1-.594-.059L10,9.54,8.94,10.6l.472.7a.632.632,0,0,1,.059.594l-.756,1.824a.632.632,0,0,1-.462.378l-.83.164v1.5l.83.164a.633.633,0,0,1,.462.378l.756,1.824a.633.633,0,0,1-.059.594l-.472.7L10,20.484l.7-.472a.632.632,0,0,1,.594-.059l1.824.756a.632.632,0,0,1,.378.462l.164.83h1.5l.164-.83A.633.633,0,0,1,15.7,20.71Zm-1.291-1.156a4.542,4.542,0,1,1,4.542-4.542A4.547,4.547,0,0,1,14.412,19.554Zm3.276-4.542a3.276,3.276,0,1,0-3.276,3.276A3.28,3.28,0,0,0,17.688,15.012ZM23.7,5.946a.638.638,0,0,0,.143-.016l1.522-.35a.633.633,0,0,0-.284-1.233L23.56,4.7A.633.633,0,0,0,23.7,5.946Zm4.256-.661h1.562a.633.633,0,0,0,0-1.265H27.957a.633.633,0,0,0,0,1.265Zm4.1.285,1.523.346a.633.633,0,0,0,.28-1.234l-1.523-.346a.633.633,0,0,0-.28,1.234ZM19.752,7.52a.631.631,0,0,0,.275-.063l1.406-.679a.633.633,0,1,0-.55-1.139l-1.406.679a.633.633,0,0,0,.276,1.2Zm16.242-.763,1.408.675a.633.633,0,0,0,.547-1.141l-1.408-.675a.633.633,0,1,0-.547,1.141Zm8.417,27.857a.633.633,0,0,0-.89.092l-.985,1.212a.633.633,0,0,0,.982.8L44.5,35.5A.633.633,0,0,0,44.411,34.614Zm2.029-3.746a.633.633,0,0,0-.847.287l-.692,1.4a.633.633,0,1,0,1.134.56l.692-1.4A.633.633,0,0,0,46.44,30.868ZM47.8,22.511h-.008a.633.633,0,0,0-.632.625L47.141,24.7a.633.633,0,0,0,.625.64h.008a.633.633,0,0,0,.632-.625l.018-1.561A.633.633,0,0,0,47.8,22.511Zm-.211,4.255a.633.633,0,0,0-.763.468l-.364,1.518a.633.633,0,1,0,1.23.295l.364-1.518a.633.633,0,0,0-.468-.763ZM9.7,25.33a.633.633,0,0,0,.626-.639l-.017-1.561A.633.633,0,0,0,9.68,22.5H9.673a.633.633,0,0,0-.626.639L9.064,24.7a.633.633,0,0,0,.632.626ZM11,28.746l-.363-1.519a.633.633,0,1,0-1.231.294l.363,1.519A.633.633,0,0,0,11,28.746ZM13.941,34.7a.633.633,0,0,0-.983.8l.984,1.213a.633.633,0,0,0,.983-.8ZM11.872,31.15a.633.633,0,0,0-1.135.559l.69,1.4a.633.633,0,0,0,1.135-.559l-.69-1.4Z" transform="translate(-10306.734 -2103.797)" fill="#aba28b"/>
  </g>
</svg>
