<svg xmlns="http://www.w3.org/2000/svg" width="72.491" height="72.491" viewBox="0 0 72.491 72.491">
  <g id="Icon_6_-_not_selected" data-name="Icon 6 - not selected" transform="translate(10231.708 2114.032)">
    <circle id="Ellipse_126" data-name="Ellipse 126" cx="36.245" cy="36.245" r="36.245" transform="translate(-10159.217 -2114.032) rotate(90)" fill="#d0cabe"/>
    <path id="Path_792" data-name="Path 792" d="M24.079,15.371a4.211,4.211,0,1,0,4.212,4.21A4.216,4.216,0,0,0,24.079,15.371Zm0,7.465a3.254,3.254,0,1,1,3.255-3.255A3.258,3.258,0,0,1,24.079,22.836ZM19.422,8.6a.479.479,0,0,0,.15.516L21.7,10.884l-.686,2.686a.479.479,0,0,0,.72.523l2.341-1.482,2.341,1.482a.479.479,0,0,0,.72-.523l-.686-2.685,2.131-1.767a.479.479,0,0,0-.275-.846l-2.765-.177L24.524,5.518a.479.479,0,0,0-.89,0L22.612,8.094l-2.765.177a.479.479,0,0,0-.425.33Zm3.553.429a.479.479,0,0,0,.414-.3l.689-1.736.689,1.736a.479.479,0,0,0,.414.3l1.864.119L25.61,10.34a.479.479,0,0,0-.158.487l.463,1.811-1.579-1a.478.478,0,0,0-.512,0l-1.579,1,.463-1.811a.479.479,0,0,0-.158-.487L21.112,9.149l1.864-.119Zm5.531,6.8-.6-1.041a.479.479,0,0,1,.829-.479l.6,1.041a.479.479,0,1,1-.83.479ZM29.815,12.4a.479.479,0,0,1,.654-.175l1.041.6a.479.479,0,1,1-.479.829l-1.041-.6a.479.479,0,0,1-.175-.654ZM27.906,5.282l.6-1.041a.479.479,0,1,1,.829.479l-.6,1.041a.479.479,0,1,1-.829-.479Zm3.021,4.276h1.2a.479.479,0,0,1,0,.958h-1.2a.479.479,0,0,1,0-.958ZM29.815,7.669a.479.479,0,0,1,.174-.654l1.041-.6a.479.479,0,0,1,.48.829l-1.041.6a.479.479,0,0,1-.654-.174ZM18.343,12.4a.479.479,0,0,1-.175.654l-1.041.6a.479.479,0,1,1-.479-.829l1.041-.6A.479.479,0,0,1,18.343,12.4Zm.478,2.95.6-1.041a.479.479,0,0,1,.829.479l-.6,1.041a.479.479,0,0,1-.83-.479ZM16.473,6.586a.479.479,0,0,1,.654-.174l1.041.6a.479.479,0,1,1-.48.829l-1.041-.6a.479.479,0,0,1-.174-.654Zm2.349-1.867a.479.479,0,0,1,.829-.479l.6,1.041a.479.479,0,1,1-.829.479ZM15.55,10.036a.479.479,0,0,1,.479-.479h1.2a.479.479,0,0,1,0,.958h-1.2A.479.479,0,0,1,15.55,10.036Zm20.527,3.991a.479.479,0,0,1,.479-.479h.483v-.486a.479.479,0,1,1,.958,0v.486h.486a.479.479,0,0,1,0,.958H38v.483a.479.479,0,1,1-.958,0v-.483h-.483A.479.479,0,0,1,36.077,14.027ZM4,6.973a.479.479,0,0,1,.479-.479h.483V6.011a.479.479,0,1,1,.958,0v.483H6.4a.479.479,0,0,1,0,.958H5.919v.486a.479.479,0,1,1-.958,0V7.452H4.478A.479.479,0,0,1,4,6.973Zm37.275,0a.479.479,0,0,1,.479-.479h.486V6.011a.479.479,0,1,1,.958,0v.483h.483a.479.479,0,0,1,0,.958H43.2v.486a.479.479,0,1,1-.958,0V7.452h-.486A.479.479,0,0,1,41.274,6.973Zm2.884,14.105a.479.479,0,0,1-.479.479H43.2v.486a.479.479,0,1,1-.958,0v-.486h-.486a.479.479,0,0,1,0-.958h.486v-.483a.479.479,0,1,1,.958,0V20.6h.483A.479.479,0,0,1,44.158,21.079ZM4,21.079a.479.479,0,0,1,.479-.479h.483v-.483a.479.479,0,1,1,.958,0V20.6H6.4a.479.479,0,0,1,0,.958H5.919v.486a.479.479,0,1,1-.958,0v-.486H4.478A.479.479,0,0,1,4,21.079Zm5.2-7.052a.479.479,0,0,1,.479-.479h.486v-.486a.479.479,0,1,1,.958,0v.486H11.6a.479.479,0,0,1,0,.958h-.486v.483a.479.479,0,1,1-.958,0v-.483H9.675A.479.479,0,0,1,9.2,14.027ZM39.468,35.634a4.22,4.22,0,1,0-5.728,0,7.219,7.219,0,0,0-3.4,1.8,7.271,7.271,0,0,0-3.4-1.8,4.21,4.21,0,0,0,1.357-3.1c0-.011,0-.023,0-.034h2.081a.479.479,0,0,0,.479-.476l.02-3.784a1.079,1.079,0,0,1,.472-.912A12.7,12.7,0,0,0,36.578,18.9a2.078,2.078,0,0,0-1.915-2.381,2.35,2.35,0,0,0-2.855,1.738,7.831,7.831,0,0,1-15.457,0,2.351,2.351,0,0,0-2.857-1.738A2.077,2.077,0,0,0,11.582,18.9a12.7,12.7,0,0,0,5.223,8.433,1.076,1.076,0,0,1,.473.912v3.781a.479.479,0,0,0,.479.479h2.1c0,.011,0,.022,0,.034a4.21,4.21,0,0,0,1.357,3.1,7.268,7.268,0,0,0-3.4,1.8,7.219,7.219,0,0,0-3.4-1.8,4.221,4.221,0,1,0-5.729,0C5.847,36.356,4.08,38.1,4,40.355c0,.006,0,.011,0,.017v3.309a.479.479,0,0,0,.479.479h39.2a.479.479,0,0,0,.479-.479V40.372c0-.006,0-.011,0-.017-.081-2.254-1.848-4-4.69-4.721Zm-6.126-3.1A3.263,3.263,0,1,1,36.6,35.8,3.265,3.265,0,0,1,33.342,32.537Zm-15.106-.992v-3.3a2.024,2.024,0,0,0-.878-1.695,11.734,11.734,0,0,1-4.828-7.794c-.153-1.012.813-1.244,1.113-1.291.652-.1,1.63.124,1.763.945a8.789,8.789,0,0,0,17.348,0c.133-.821,1.111-1.047,1.762-.945.214.033,1.272.253,1.116,1.292A11.737,11.737,0,0,1,30.8,26.549a2.027,2.027,0,0,0-.877,1.691l-.018,3.3H28.181a4.221,4.221,0,0,0-8.205,0H18.235Zm2.579.992a3.269,3.269,0,0,1,.033-.459v-.006a3.264,3.264,0,0,1,6.46,0v.006a3.264,3.264,0,1,1-6.495.459Zm1.522,3.844a4.206,4.206,0,0,0,3.484,0,6.918,6.918,0,0,1,3.915,1.8,4.213,4.213,0,0,0-.688,2.17c0,.006,0,.012,0,.018V43.2H19.11v-2.83c0-.006,0-.011,0-.017a4.209,4.209,0,0,0-.686-2.17,6.8,6.8,0,0,1,3.914-1.8ZM8.291,32.537A3.264,3.264,0,1,1,11.554,35.8,3.266,3.266,0,0,1,8.291,32.537ZM4.957,40.381c.092-2.391,2.54-3.628,4.854-4a4.205,4.205,0,0,0,3.487,0c2.314.373,4.763,1.61,4.854,4V43.2H4.957ZM43.2,43.2h-13.2V40.381c.094-2.392,2.542-3.628,4.855-4a4.2,4.2,0,0,0,3.486,0c2.314.373,4.763,1.61,4.854,4V43.2Z" transform="translate(-10219.244 -2103.017)" fill="#aba28b"/>
  </g>
</svg>
