<svg xmlns="http://www.w3.org/2000/svg" width="72.491" height="72.491" viewBox="0 0 72.491 72.491">
  <g id="Icon_2_-_not_selected" data-name="Icon 2 - not selected" transform="translate(10565 2114.032)">
    <circle id="Ellipse_121" data-name="Ellipse 121" cx="36.245" cy="36.245" r="36.245" transform="translate(-10492.509 -2114.032) rotate(90)" fill="#d0cabe"/>
    <g id="Group_289" data-name="Group 289" transform="translate(-10551.546 -2099.778)">
      <path id="Path_771" data-name="Path 771" d="M245.9,5.589a.865.865,0,0,0,.865-.865V.865a.865.865,0,0,0-1.73,0V4.724A.865.865,0,0,0,245.9,5.589Z" transform="translate(-223.169)" fill="#aba28b" stroke="#d0cabe" stroke-width="0.4"/>
      <path id="Path_772" data-name="Path 772" d="M43.879,104.818l-1.528-1.524a2.9,2.9,0,0,0-3.428-.489l-2.88-2.877.14-.14a3,3,0,0,0,0-4.24,2.97,2.97,0,0,0-1.506-.814,3.021,3.021,0,0,0,.119-.842,3,3,0,0,0-2.383-2.934,3.021,3.021,0,0,0,.119-.842,2.993,2.993,0,0,0-2.383-2.933,2.994,2.994,0,0,0-3.2-3.821l-5.707-1.08a3.083,3.083,0,0,0-2.643.352,1.562,1.562,0,0,0-.131.136,3.009,3.009,0,0,0-3.157.694,2.976,2.976,0,0,0-.876,2.121,3.025,3.025,0,0,0,.119.842,3,3,0,0,0-2.382,2.931,3.016,3.016,0,0,0,.119.844,3,3,0,0,0-1.86,4.629,3,3,0,0,0-1.152,4.96l.14.139L6.539,102.8a2.893,2.893,0,0,0-3.273.567L1.737,104.9a2.89,2.89,0,0,0,0,4.081l1.909,1.906a.865.865,0,1,0,1.223-1.224L2.96,107.753a1.16,1.16,0,0,1,0-1.632L4.489,104.6a1.158,1.158,0,0,1,1.411-.173.872.872,0,0,0,.109.133.861.861,0,0,0,.249.173l8.77,8.757a.852.852,0,0,0,.417.421,1.158,1.158,0,0,1-.048,1.58l-1.528,1.526a1.162,1.162,0,0,1-1.636,0l-1.909-1.909A.865.865,0,1,0,9.1,116.329l1.91,1.91a2.9,2.9,0,0,0,4.08,0l1.529-1.527a2.893,2.893,0,0,0,.405-3.573l3.242-3.238.01-.011c.371-.384,1.4-.312,2.4-.243a12.442,12.442,0,0,0,2.276.015l3.55,3.546A2.891,2.891,0,0,0,29,116.633l1.529,1.527a2.893,2.893,0,0,0,4.081,0L43.88,108.9a2.89,2.89,0,0,0,0-4.082ZM20.92,83.982l3.753.71-2.246,2.245a5.454,5.454,0,0,1-1.346-.978,3.98,3.98,0,0,1-1.273-1.967h0a.756.756,0,0,1,0-.085A2.932,2.932,0,0,1,20.92,83.982Zm-4.386.705a1.276,1.276,0,0,1,1.614-.153,6.188,6.188,0,0,0,1.736,2.675,6.407,6.407,0,0,0,2.492,1.544,1.27,1.27,0,0,1-1.941,1.622h0l-3.9-3.895a1.274,1.274,0,0,1,0-1.793Zm-2.261,3.775a1.276,1.276,0,0,1,1.8,0L19.213,91.6a1.271,1.271,0,0,1-1.8,1.8h0L15.03,91.012,15.018,91l-.746-.745a1.27,1.27,0,0,1,0-1.794Zm-2.265,3.774a1.28,1.28,0,0,1,1.792-.006l2.391,2.39a1.27,1.27,0,0,1-1.8,1.792l-.867-.866h0l-1.516-1.514a1.273,1.273,0,0,1,0-1.8ZM10.5,96.771a1.279,1.279,0,0,1,1.8,0l.868.867a1.27,1.27,0,0,1-1.8,1.792l-.109-.108,0,0,0,0-.75-.747a1.271,1.271,0,0,1,0-1.794Zm17.63,9.832a.865.865,0,0,0-1.223,0l-.77.769c-.731.731-2.057.639-3.338.55-1.392-.1-2.831-.2-3.762.76l-3.187,3.183-7.969-7.957,2.82-2.815a3,3,0,0,0,4.567-2.559c0-.007,0-.015,0-.022h.022a2.993,2.993,0,0,0,3-3c0-.007,0-.015,0-.022h.023a2.989,2.989,0,0,0,3-3.018h.023A3,3,0,0,0,23.9,87.915l2.472-2.471a1.269,1.269,0,0,1,.649-.346c.026,0,.051-.007.076-.012a1.268,1.268,0,0,1,1.077,2.152l-.753.75-.008.007-.867.866a.865.865,0,1,0,1.223,1.224l.756-.755h0l.114-.114a1.274,1.274,0,0,1,1.8,0,1.27,1.27,0,0,1,0,1.793l-.757.759h0l-.867.863a.865.865,0,0,0,1.221,1.226l.871-.867a1.27,1.27,0,0,1,1.8,1.795L31.186,96.3a.865.865,0,1,0,1.224,1.223l.74-.74.013-.012a1.27,1.27,0,0,1,1.8,1.794l-.752.751h0l-1.194,1.192a.865.865,0,0,0,1.223,1.224l.584-.583,2.8,2.8L29.649,111.9l-2.855-2.851a3.4,3.4,0,0,0,.568-.457l.769-.768a.865.865,0,0,0,0-1.223Zm14.524,1.071-9.273,9.261a1.163,1.163,0,0,1-1.635,0l-1.529-1.527a1.157,1.157,0,0,1,0-1.63l9.273-9.261a1.163,1.163,0,0,1,1.636,0l1.528,1.524a1.16,1.16,0,0,1,0,1.633Z" transform="translate(0 -75.096)" fill="#aba28b" stroke="#d0cabe" stroke-width="0.4"/>
      <path id="Path_773" data-name="Path 773" d="M85.13,7.369a.865.865,0,0,0,1.222-1.225L83.2,3a.865.865,0,1,0-1.222,1.225Z" transform="translate(-73.886 -2.509)" fill="#aba28b" stroke="#d0cabe" stroke-width="0.4"/>
      <path id="Path_774" data-name="Path 774" d="M372.516,7.622a.863.863,0,0,0,.611-.253l3.15-3.146A.865.865,0,0,0,375.055,3L371.9,6.145a.865.865,0,0,0,.611,1.477Z" transform="translate(-338.908 -2.509)" fill="#aba28b" stroke="#d0cabe" stroke-width="0.4"/>
      <path id="Path_775" data-name="Path 775" d="M60.178,430.452a.865.865,0,0,0,.01,1.223l0,0a.865.865,0,1,0-.013-1.226Z" transform="translate(-53.964 -393.238)" fill="#aba28b" stroke="#d0cabe" stroke-width="0.4"/>
      <path id="Path_776" data-name="Path 776" d="M333.377,333.849a.865.865,0,1,0-.389-1.638l0,0a.865.865,0,0,0,.394,1.636Z" transform="translate(-303.128 -303.588)" fill="#aba28b" stroke="#d0cabe" stroke-width="0.4"/>
    </g>
  </g>
</svg>
