<svg xmlns="http://www.w3.org/2000/svg" xmlns:xlink="http://www.w3.org/1999/xlink" width="539.699" height="389.658" viewBox="0 0 539.699 389.658">
  <defs>
    <clipPath id="clip-path">
      <rect id="Rectangle_200" data-name="Rectangle 200" width="247.897" height="254.208" fill="#903"/>
    </clipPath>
  </defs>
  <g id="Icon_4" data-name="Icon 4" transform="translate(24285.813 -2282.82)">
    <path id="Path_859" data-name="Path 859" d="M523.433,50.807C472.692-20.944,317.961-16.116,177.9,61.6A461.652,461.652,0,0,0,61.776,151.166,284.21,284.21,0,0,0,24.77,199.4C8.119,227.177-.134,254,.041,278.376a89.843,89.843,0,0,0,16.214,53.884c19.276,27.213,53.453,43.35,96,48.772l3.12.387,1.225.129a256.469,256.469,0,0,0,26.537,1.523h3.3c64.418-.155,141.9-20.836,215.329-61.6,140.151-77.716,212.53-198.885,161.672-270.662M338.578,305.641C213.183,375.2,74.928,379.691,29.611,315.711s19.655-172.239,144.962-241.8S438.223-.134,483.511,63.871s-19.567,172.317-144.875,241.77Z" transform="translate(-24285.813 2282.82)" fill="#dddad1" opacity="0.4"/>
    <g id="Group_392" data-name="Group 392" transform="translate(-24089.588 2418.269)">
      <g id="Group_205" data-name="Group 205" clip-path="url(#clip-path)">
        <path id="Path_624" data-name="Path 624" d="M133.114,200.7c.409-1.438,3.017-2.464,4.611-1.965l1.793,2.181c8.459,40.543-39.048,71.458-69.487,41.022C62,233.9,60.2,219.176,57.664,216.57c-1.538-1.581-7.455-2.672-10.22-4.344-16.9-10.225-23.367-28.737-18.98-47.875C-9.182,153.669-9.145,101.53,26.552,87.516c-.6-21.684,11.194-39.266,32.2-45.245-1-54.8,77.831-57.058,80.984-2.441l-6.629.015c.638-32.2-41.231-46.767-61.441-21.075-17.9,22.752-1.582,56.04,27.033,55.485l-.015,6.628c-19.6-.5-33.756-13-39.663-31.238-20,3.461-29.131,24.423-25.255,43.1-38.586,6.863-36.083,63.144,2.7,67.577-9.175,19.563.491,45.235,22.5,48.984,1.019-20.5,19.093-37.253,39.728-35.743l0,5.277c-52.833,1.912-40.152,79.682,9.992,67.6,15.721-3.788,20.623-16.343,22.989-23.308,2.534-7.463.455-18.991,1.435-22.437" transform="translate(0 0)" fill="#903"/>
        <path id="Path_625" data-name="Path 625" d="M128.272,80.187h66.2c2.8-20.7,31.848-24.251,39.975-4.9,11.916,28.375-33.294,41.87-40.842,11.455l-88.42.144c-13,2.031-16.327,15.974-26.285,20.055-6.779,2.778-14.82,2.238-21.975,2.525-1.642,10.439-10.085,17.754-20.649,18.4-3.131-7.557,3.242-5.708,6.9-7.668,10.45-5.607,11.238-22.366.863-27.933-4.619-2.478-9.787-.154-8.432-8.1a21.638,21.638,0,0,1,21.321,18.375c.519.454,11.847.417,13.785.184,10.307-1.238,14-10.627,21.156-15.917,8.9-6.579,19.045-7.235,29.788-6.621V53.046c0-2.493,6.62-2.493,6.62,0Zm83.03-11.64c-15.31,3.482-14.086,27.667,1.393,29.92,23.1,3.363,22.9-35.444-1.393-29.92" transform="translate(11.463 16.579)" fill="#903"/>
        <path id="Path_626" data-name="Path 626" d="M107.163,86.088v25.155h27.8c3.166-25.281,40.552-22.964,41.13,1.961.61,26.277-36.891,30.573-41.13,4.659h-27.8v25.155h-6.62V86.088Zm37.517,39.273c12.533,12.038,32.71-4.521,23.387-18.757-12.925-19.735-38.861,3.894-23.387,18.757" transform="translate(32.573 27.89)" fill="#903"/>
        <path id="Path_627" data-name="Path 627" d="M212.16,160.662c-13.306,12.488-32.331,3.52-36.093-12.857l-79.217.159c-5.309,1.135-9.314,4.789-8.742,10.451l-6.576-.614c-.408-6.055,6.92-14.218,12.672-15.132l81.864.008c7.1-28.624,47.313-22.584,41.54,8.213a22.87,22.87,0,0,1-5.447,9.772M197.4,130.03c-17.458,0-19.954,26.142-3.671,29.468,23.674,4.835,24.842-29.468,3.671-29.468" transform="translate(26.408 40.231)" fill="#aba28b"/>
        <path id="Path_628" data-name="Path 628" d="M138.911,49.036C118.844,45.063,75.372,60.682,75.548,29c6.13-.85,5.152,5.8,9.2,9.985A13.015,13.015,0,0,0,92.4,43.248c13.534,2.448,31.738-1.21,45.816.373,7.206-31.587,52.693-18.614,41.234,10.514-7.753,19.71-37.206,15.7-40.543-5.1m31.5-14.292c-14.368-13.5-35.535,9.507-20.625,22.611,14.819,13.024,34.936-9.165,20.625-22.611" transform="translate(24.475 8.191)" fill="#aba28b"/>
        <path id="Path_629" data-name="Path 629" d="M131.4,176.485c2.064-18.3,25.819-24.393,37.063-9.922,15.085,19.412-11.639,45.918-31.095,28.447-4.711-4.23-4.435-8.713-8.132-13.052l-17.7-.183.007-5.291Zm9.714,14.118c12.533,12.038,32.71-4.521,23.387-18.757-12.925-19.735-38.861,3.894-23.387,18.757" transform="translate(36.135 51.354)" fill="#d0cabe"/>
      </g>
    </g>
  </g>
</svg>
