<svg xmlns="http://www.w3.org/2000/svg" xmlns:xlink="http://www.w3.org/1999/xlink" width="72.491" height="72.491" viewBox="0 0 72.491 72.491">
  <defs>
    <clipPath id="clip-path">
      <path id="path267" d="M0-682.665H46.226v46.226H0Z" transform="translate(0 682.665)" fill="#aba28b"/>
    </clipPath>
  </defs>
  <g id="Icon_12_-_not_selected" data-name="Icon 12 - not selected" transform="translate(9732.603 2114.032)">
    <circle id="Ellipse_31" data-name="Ellipse 31" cx="36.245" cy="36.245" r="36.245" transform="translate(-9660.111 -2114.032) rotate(90)" fill="#d0cabe"/>
    <g id="g261" transform="translate(-9719.957 -1418.234)">
      <g id="g263" transform="translate(0 -682.665)">
        <g id="g265" clip-path="url(#clip-path)">
          <g id="g271" transform="translate(8.126 6.32)">
            <path id="path273" d="M-49.722-99.444a3.615,3.615,0,0,1-3.611-3.611,3.615,3.615,0,0,1,3.611-3.611,3.615,3.615,0,0,1,3.611,3.611A3.615,3.615,0,0,1-49.722-99.444Z" transform="translate(53.333 106.666)" fill="none" stroke="#aba28b" stroke-linecap="round" stroke-linejoin="round" stroke-miterlimit="10" stroke-width="1"/>
          </g>
          <g id="g275" transform="translate(0.903 0.903)">
            <path id="path277" d="M-74.583-278.367A10.83,10.83,0,0,1-80-287.752a10.835,10.835,0,0,1,10.834-10.834,10.835,10.835,0,0,1,10.834,10.834,10.83,10.83,0,0,1-5.417,9.384,10.775,10.775,0,0,1-5.417,1.45A10.775,10.775,0,0,1-74.583-278.367Z" transform="translate(80 298.586)" fill="none" stroke="#aba28b" stroke-linecap="round" stroke-linejoin="round" stroke-miterlimit="10" stroke-width="1"/>
          </g>
          <g id="g279" transform="translate(6.32 15.349)">
            <path id="path281" d="M-149.165-79.493v-.357a5.417,5.417,0,0,0-5.417-5.417A5.417,5.417,0,0,0-160-79.849v.357" transform="translate(160 85.266)" fill="none" stroke="#aba28b" stroke-linecap="round" stroke-linejoin="round" stroke-miterlimit="10" stroke-width="1"/>
          </g>
          <g id="g283" transform="translate(30.878 29.072)">
            <path id="path285" d="M-49.722-99.444a3.615,3.615,0,0,1-3.611-3.611,3.615,3.615,0,0,1,3.611-3.611,3.615,3.615,0,0,1,3.611,3.611A3.615,3.615,0,0,1-49.722-99.444Z" transform="translate(53.333 106.666)" fill="none" stroke="#aba28b" stroke-linecap="round" stroke-linejoin="round" stroke-miterlimit="10" stroke-width="1"/>
          </g>
          <g id="g287" transform="translate(23.655 23.655)">
            <path id="path289" d="M-74.583-278.367A10.83,10.83,0,0,1-80-287.752a10.835,10.835,0,0,1,10.834-10.834,10.835,10.835,0,0,1,10.834,10.834,10.83,10.83,0,0,1-5.417,9.384,10.775,10.775,0,0,1-5.417,1.45A10.775,10.775,0,0,1-74.583-278.367Z" transform="translate(80 298.586)" fill="none" stroke="#aba28b" stroke-linecap="round" stroke-linejoin="round" stroke-miterlimit="10" stroke-width="1"/>
          </g>
          <g id="g291" transform="translate(29.072 38.101)">
            <path id="path293" d="M-149.165-79.493v-.357a5.417,5.417,0,0,0-5.417-5.417A5.417,5.417,0,0,0-160-79.849v.357" transform="translate(160 85.266)" fill="none" stroke="#aba28b" stroke-linecap="round" stroke-linejoin="round" stroke-miterlimit="10" stroke-width="1"/>
          </g>
          <g id="g295" transform="translate(5.056 26.725)">
            <path id="path297" d="M-124.3-99.444h1.806l-5.417-7.223-5.417,7.223h1.806v1.806a7.223,7.223,0,0,0,7.223,7.223h7.223a7.223,7.223,0,0,1-7.223-7.223Z" transform="translate(133.333 106.666)" fill="none" stroke="#aba28b" stroke-linecap="round" stroke-linejoin="round" stroke-miterlimit="10" stroke-width="1"/>
          </g>
          <g id="g299" transform="translate(24.919 3.25)">
            <path id="path301" d="M-132.537-5.641a7.209,7.209,0,0,0-2.4-.41h-7.223a7.223,7.223,0,0,1,7.223,7.223V2.978h-1.806l5.417,7.223,5.417-7.223h-1.806V1.172q0-.329-.029-.65" transform="translate(142.164 6.051)" fill="none" stroke="#aba28b" stroke-linecap="round" stroke-linejoin="round" stroke-miterlimit="10" stroke-width="1"/>
          </g>
          <g id="g303" transform="translate(36.927 5.146)">
            <path id="path305" d="M-24.861-12.43a.9.9,0,0,1-.9.9.9.9,0,0,1-.9-.9.9.9,0,0,1,.9-.9.9.9,0,0,1,.9.9" transform="translate(26.667 13.333)" fill="#aba28b"/>
          </g>
        </g>
      </g>
    </g>
  </g>
</svg>
