<svg xmlns="http://www.w3.org/2000/svg" width="72.491" height="72.491" viewBox="0 0 72.491 72.491">
  <g id="Icon_8_-_not_selected" data-name="Icon 8 - not selected" transform="translate(10065.062 2114.032)">
    <circle id="Ellipse_134" data-name="Ellipse 134" cx="36.245" cy="36.245" r="36.245" transform="translate(-9992.57 -2114.032) rotate(90)" fill="#d0cabe"/>
    <g id="Group_292" data-name="Group 292" transform="translate(-10046.527 -2099.762)">
      <path id="Path_793" data-name="Path 793" d="M40.5,53.565A13.565,13.565,0,1,0,54.065,40,13.58,13.58,0,0,0,40.5,53.565ZM54.065,41.809A11.756,11.756,0,1,1,42.309,53.565,11.769,11.769,0,0,1,54.065,41.809Zm0,0" transform="translate(-36.383 -36.383)" fill="#aba28b" stroke="#d0cabe" stroke-width="0.7"/>
      <path id="Path_794" data-name="Path 794" d="M95.178,100.032l3.505,3.454-.806,4.854a.9.9,0,0,0,1.309.951l4.367-2.268,4.367,2.268a.9.9,0,0,0,1.309-.951l-.806-4.854,3.505-3.454a.9.9,0,0,0-.5-1.538l-4.865-.732-2.2-4.4a.9.9,0,0,0-1.618,0l-2.2,4.4-4.865.732a.9.9,0,0,0-.5,1.538Zm6.1-.552a.9.9,0,0,0,.674-.49l1.6-3.2,1.6,3.2a.9.9,0,0,0,.674.49l3.541.533-2.551,2.513a.906.906,0,0,0-.258.793l.587,3.533-3.179-1.65a.9.9,0,0,0-.833,0l-3.179,1.65.587-3.533a.9.9,0,0,0-.258-.793l-2.551-2.513Zm0,0" transform="translate(-85.871 -84.462)" fill="#aba28b" stroke="#d0cabe" stroke-width="0.7"/>
      <path id="Path_795" data-name="Path 795" d="M182.309.9a.9.9,0,1,1-.9-.9A.9.9,0,0,1,182.309.9Zm0,0" transform="translate(-163.722)" fill="#aba28b" stroke="#d0cabe" stroke-width="0.7"/>
      <path id="Path_796" data-name="Path 796" d="M13.42,5.609A17.183,17.183,0,0,0,6.156,35L.708,44.6a.9.9,0,0,0,.97,1.332l6.187-1.285,2.175,6.128a.9.9,0,0,0,1.638.144l6-10.555,6,10.555a.9.9,0,0,0,.786.457c.026,0,.053,0,.08,0a.906.906,0,0,0,.773-.6L27.5,44.647l6.187,1.285a.9.9,0,0,0,.97-1.332L29.207,35A17.183,17.183,0,0,0,21.944,5.609.9.9,0,1,0,21.5,7.362a15.373,15.373,0,1,1-7.629,0,.9.9,0,1,0-.447-1.752Zm-2.336,42.7L9.306,43.3a.9.9,0,0,0-1.036-.583l-5,1.039,4.312-7.6a17.218,17.218,0,0,0,8.586,3.217Zm16.009-5.591a.9.9,0,0,0-1.036.583L24.28,48.307,19.2,39.373a17.22,17.22,0,0,0,8.587-3.217l4.312,7.6Zm0,0" transform="translate(0 -5.076)" fill="#aba28b" stroke="#d0cabe" stroke-width="0.7"/>
    </g>
  </g>
</svg>
