<svg xmlns="http://www.w3.org/2000/svg" xmlns:xlink="http://www.w3.org/1999/xlink" width="539.699" height="401.844" viewBox="0 0 539.699 401.844">
  <defs>
    <clipPath id="clip-path">
      <path id="Path_864" data-name="Path 864" d="M0,0H272.635V253.57H0Z" fill="#903"/>
    </clipPath>
  </defs>
  <g id="Icon_5" data-name="Icon 5" transform="translate(23401.105 -2115.565)">
    <path id="Path_861" data-name="Path 861" d="M523.433,50.807C472.692-20.944,317.961-16.116,177.9,61.6A461.652,461.652,0,0,0,61.776,151.166,284.21,284.21,0,0,0,24.77,199.4C8.119,227.177-.134,254,.041,278.376a89.843,89.843,0,0,0,16.214,53.884c19.276,27.213,53.453,43.35,96,48.772l3.12.387,1.225.129a256.469,256.469,0,0,0,26.537,1.523h3.3c64.418-.155,141.9-20.836,215.329-61.6,140.151-77.716,212.53-198.885,161.672-270.662M338.578,305.641C213.183,375.2,74.928,379.691,29.611,315.711s19.655-172.239,144.962-241.8S438.223-.134,483.511,63.871s-19.567,172.317-144.875,241.77Z" transform="translate(-23401.105 2115.565)" fill="#dddad1" opacity="0.4"/>
    <g id="Group_202" data-name="Group 202" transform="translate(-23210.602 2263.84)">
      <g id="Mask_Group_82" data-name="Mask Group 82" clip-path="url(#clip-path)">
        <path id="Path_614" data-name="Path 614" d="M.694,112.863C2.718,100.677,18.953,91.331,30.846,92.53c16.68,1.683,16.4,2.323,33.74.121,17.7-2.247,30.1,11.14,30.447,27.489a3.5,3.5,0,0,0,5.663,2.671,16.759,16.759,0,0,1,3.2-2.064c15.065-7.067,23.1,1.142,37.736-.123,5.6-.483,9.6-2.958,15.357-2.971,6.091-.015,10.533,1.984,14.952,4.821a3.491,3.491,0,0,0,5.366-2.66c1.377-17.115,13.829-29.554,32.839-27.159,3.007.379,5.647,2.256,8.632,2.572,17.3,1.833,31.028-9.1,45.491,4.97,2.453,2.388,8.363,12.667,8.363,15.468v39.248a3.5,3.5,0,0,1-3.5,3.5h-81.3a3.506,3.506,0,0,0-3.5,3.5V181.5a3.5,3.5,0,0,1-1.026,2.478l-.049.051a3.51,3.51,0,0,1-2.478,1.026H92.559a3.51,3.51,0,0,1-2.478-1.026l-.049-.051a3.5,3.5,0,0,1-1.026-2.478V161.923a3.5,3.5,0,0,0-3.5-3.5H4.493A3.5,3.5,0,0,1,1,154.71c.693-13.28-2.3-29.849-.308-41.847m65.183,39.949a3.5,3.5,0,0,0,3.5-3.5V128.281c0-2.639,7.009-2.639,7.009,0v20.776a3.39,3.39,0,0,0,1.656,2.982,10.223,10.223,0,0,0,9.3,0,3.392,3.392,0,0,0,1.657-2.982v-31.99c0-1.967-5.292-10.7-7.148-12.476-11.179-10.682-18.924-2.574-31.337-2.177-13.49.431-21.822-8.237-33.715-.075-2.143,1.47-9.1,9.947-9.1,11.924v35.044a3.5,3.5,0,0,0,3.5,3.5h4.206a3.5,3.5,0,0,0,3.5-3.5V128.281c0-2.639,7.009-2.639,7.009,0v20.977a3.5,3.5,0,0,0,1.026,2.478l.051.049a3.5,3.5,0,0,0,2.477,1.026Zm176.621,0a3.5,3.5,0,0,0,3.5-3.5V128.281c0-2.639,7.009-2.639,7.009,0v20.776a3.392,3.392,0,0,0,1.657,2.982,10.223,10.223,0,0,0,9.3,0,3.391,3.391,0,0,0,1.657-2.982v-31.99c0-1.873-5.064-10.913-6.944-12.68-11.29-10.62-18.063-2.57-30.136-1.982-15,.728-23.071-9.219-36.505,1.353-1.935,1.522-7.717,8.753-7.717,10.506v35.044a3.5,3.5,0,0,0,3.5,3.5h4.206a3.5,3.5,0,0,0,3.5-3.5V130.889a3.5,3.5,0,0,1,7.009,0v18.37a3.5,3.5,0,0,0,1.026,2.478l.049.049a3.5,3.5,0,0,0,2.478,1.026Zm-77.8,3.5v17.973a3.392,3.392,0,0,0,1.657,2.982,10.232,10.232,0,0,0,9.3,0,3.39,3.39,0,0,0,1.656-2.982V143.7c0-2.968-4.727-11.575-7.147-13.88-10.677-10.16-16.172-3.2-27.135-2.182a76.244,76.244,0,0,1-13.958-.179c-10.463-1.411-13.668-7.548-25.342,1.53-1.937,1.507-7.718,8.762-7.718,10.5v34.865a3.407,3.407,0,0,0,1.614,2.958,8.222,8.222,0,0,0,7.951.007,3.435,3.435,0,0,0,1.65-2.983V156.316a3.5,3.5,0,1,1,7.009,0v18.172a3.5,3.5,0,0,0,1.026,2.478l.049.051a3.51,3.51,0,0,0,2.478,1.026h36.4a3.5,3.5,0,0,0,3.5-3.5V156.316a3.5,3.5,0,1,1,7.009,0" transform="translate(0 37.679)" fill="#903"/>
        <path id="Path_615" data-name="Path 615" d="M38.366,156.583v24.025a3.5,3.5,0,0,0,3.5,3.5h77.163a3.5,3.5,0,0,0,3.5-3.437l.1-5.126a3.473,3.473,0,0,1,1.512-2.816c7.671-5.153,4.229,3.716,5.933,8.993a3.486,3.486,0,0,0,3.328,2.386h78.074a3.5,3.5,0,0,0,3.5-3.5V156.583a3.5,3.5,0,0,1,7.009,0v30.985a3.5,3.5,0,0,1-1.026,2.478l-.049.049a3.5,3.5,0,0,1-2.478,1.026H34.911a3.5,3.5,0,0,1-2.478-1.026l-.049-.049a3.5,3.5,0,0,1-1.026-2.478V156.583a3.5,3.5,0,0,1,7.009,0" transform="translate(12.792 62.448)" fill="#d0cabe"/>
        <path id="Path_616" data-name="Path 616" d="M26.952,43.159l-1.571-5.442,51.192-15.5,52.886,20.838,68.336-32.007c3.164-3.319-10.582-4.738-11.212-5.608L188.155,0,216,8.964,130.865,50.078c-18.35-4.215-35.527-13.8-53.046-20.774Z" transform="translate(10.354)" fill="#aba28b"/>
        <path id="Path_617" data-name="Path 617" d="M189.059,22.8l-9.98,25.022c-1.667,1.019-6.475-.024-6.847-1.939-.225-1.162,5.994-10.562.741-9.053l-53.532,27.7L68.506,43,52.562,46.725c-1.243-.2-2.084-3.889-2.226-5.1-.363-3.078.337-1.514,1.926-2.141,3.438-1.357,12.108-4.4,15.414-4.063,9.126.918,34.08,15.544,45.3,19.285,2.168.724,4.214,1.85,6.609,1.685Z" transform="translate(20.497 9.303)" fill="#aba28b"/>
        <path id="Path_618" data-name="Path 618" d="M162.07,49.111c43.295-8.02,43.732,56.887,2.6,51.409-28.983-3.861-28.015-46.7-2.6-51.409M183,60.473c-16.834-16.919-46.2,8.8-28.327,27.627,18.781,19.782,45.9-9.96,28.327-27.627" transform="translate(58.322 19.755)" fill="#903"/>
        <path id="Path_619" data-name="Path 619" d="M36.78,49.094c44.536-7.613,41.758,59.844-.021,51.206-26.581-5.5-25.671-46.814.021-51.206m-.042,6.969c-1.947.446-2.989,1.467-4.5,2.506-18.12,12.491-4.424,42.1,17.47,34.316C72.3,84.855,63.923,49.829,36.738,56.063" transform="translate(7.003 19.783)" fill="#903"/>
        <path id="Path_620" data-name="Path 620" d="M100.837,66.992c36.4-6.237,42.147,45.005,11.969,51.21-36.9,7.587-45.043-45.542-11.969-51.21m0,7.007c-19.181,3.537-18.781,36.629,4.362,38.125,26.921,1.742,27.962-44.084-4.362-38.125" transform="translate(32.654 27.115)" fill="#903"/>
      </g>
    </g>
  </g>
</svg>
