<svg xmlns="http://www.w3.org/2000/svg" width="72.491" height="72.491" viewBox="0 0 72.491 72.491">
  <g id="Icon_10_-_not_selected" data-name="Icon 10 - not selected" transform="translate(9899.249 2114.032)">
    <circle id="Ellipse_132" data-name="Ellipse 132" cx="36.245" cy="36.245" r="36.245" transform="translate(-9826.758 -2114.032) rotate(90)" fill="#d0cabe"/>
    <g id="Group_296" data-name="Group 296" transform="translate(-9883.177 -2101.215)">
      <path id="Path_804" data-name="Path 804" d="M32.349,20.993a3.729,3.729,0,0,0-2.48-1.719V7.11a3.56,3.56,0,0,0-3.556-3.556H20.426A1.417,1.417,0,0,0,19.2,2.843h-.954a4.267,4.267,0,0,0-8.049,0H9.245a1.417,1.417,0,0,0-1.225.711H3.556A3.56,3.56,0,0,0,0,7.11V36.978a3.56,3.56,0,0,0,3.556,3.556H16.043c.033.067.059.136.1.2a3.71,3.71,0,0,0,3.276,1.932H38.907a3.711,3.711,0,0,0,3.271-1.933,3.8,3.8,0,0,0-.082-3.892ZM28.446,7.11V19.275a3.685,3.685,0,0,0-1.422.6V7.821A1.422,1.422,0,0,0,25.6,6.4H20.623V4.976h5.689A2.133,2.133,0,0,1,28.446,7.11ZM9.245,4.265h1.493a.711.711,0,0,0,.7-.569,2.845,2.845,0,0,1,5.574,0,.711.711,0,0,0,.7.569H19.2V7.11H9.245ZM19.2,8.532a1.417,1.417,0,0,0,1.225-.711H25.6V21.587L16.57,36.267H4.267V7.821H8.02a1.417,1.417,0,0,0,1.225.711ZM3.556,39.111a2.133,2.133,0,0,1-2.133-2.133V7.11A2.133,2.133,0,0,1,3.556,4.976H7.823V6.4H4.267A1.422,1.422,0,0,0,2.845,7.821V36.267a1.422,1.422,0,0,0,1.422,1.422H15.832a3.769,3.769,0,0,0-.174,1.422Zm37.379.929a2.306,2.306,0,0,1-2.031,1.2H19.414a2.3,2.3,0,0,1-2.03-1.2,2.4,2.4,0,0,1,.05-2.456l9.743-15.846a2.314,2.314,0,0,1,3.961,0l9.743,15.848a2.4,2.4,0,0,1,.053,2.453Z" fill="#aba28b" stroke="#d0cabe" stroke-width="0.3"/>
      <path id="Path_805" data-name="Path 805" d="M40.133,33A2.133,2.133,0,0,0,38,35.133v6.4a2.133,2.133,0,1,0,4.267,0v-6.4A2.133,2.133,0,0,0,40.133,33Zm.711,8.534a.711.711,0,1,1-1.422,0v-6.4a.711.711,0,0,1,1.422,0Z" transform="translate(-10.976 -9.534)" fill="#aba28b" stroke="#d0cabe" stroke-width="0.3"/>
      <path id="Path_806" data-name="Path 806" d="M40.133,50a2.133,2.133,0,1,0,2.133,2.133A2.133,2.133,0,0,0,40.133,50Zm0,2.845a.711.711,0,1,1,.711-.711A.711.711,0,0,1,40.133,52.845Z" transform="translate(-10.976 -14.444)" fill="#aba28b" stroke="#d0cabe" stroke-width="0.3"/>
      <path id="Path_807" data-name="Path 807" d="M19.711,18.422h9.245a.711.711,0,1,0,0-1.422H19.711a.711.711,0,0,0,0,1.422Z" transform="translate(-5.488 -4.912)" fill="#aba28b" stroke="#d0cabe" stroke-width="0.3"/>
      <path id="Path_808" data-name="Path 808" d="M19.711,22.422h4.267a.711.711,0,0,0,0-1.422H19.711a.711.711,0,0,0,0,1.422Z" transform="translate(-5.488 -6.068)" fill="#aba28b" stroke="#d0cabe" stroke-width="0.3"/>
      <path id="Path_809" data-name="Path 809" d="M19.711,29.422h9.245a.711.711,0,1,0,0-1.422H19.711a.711.711,0,1,0,0,1.422Z" transform="translate(-5.488 -8.09)" fill="#aba28b" stroke="#d0cabe" stroke-width="0.3"/>
      <path id="Path_810" data-name="Path 810" d="M19.711,33.422h4.267a.711.711,0,0,0,0-1.422H19.711a.711.711,0,0,0,0,1.422Z" transform="translate(-5.488 -9.245)" fill="#aba28b" stroke="#d0cabe" stroke-width="0.3"/>
      <path id="Path_811" data-name="Path 811" d="M19.711,40.422h4.978a.711.711,0,0,0,0-1.422H19.711a.711.711,0,0,0,0,1.422Z" transform="translate(-5.488 -11.267)" fill="#aba28b" stroke="#d0cabe" stroke-width="0.3"/>
      <path id="Path_812" data-name="Path 812" d="M19.711,44.422h2.845a.711.711,0,1,0,0-1.422H19.711a.711.711,0,0,0,0,1.422Z" transform="translate(-5.488 -12.422)" fill="#aba28b" stroke="#d0cabe" stroke-width="0.3"/>
      <path id="Path_813" data-name="Path 813" d="M9.208,19.475a.711.711,0,0,0,0,1.006L10.631,21.9a.711.711,0,0,0,.5.208.682.682,0,0,0,.114-.009.711.711,0,0,0,.523-.384l2.845-5.689a.711.711,0,1,0-1.273-.636l-2.4,4.807-.725-.725a.711.711,0,0,0-1.006,0Z" transform="translate(-2.6 -4.334)" fill="#aba28b" stroke="#d0cabe" stroke-width="0.3"/>
      <path id="Path_814" data-name="Path 814" d="M14.3,26.074a.711.711,0,0,0-.954.319l-2.4,4.807-.725-.725a.711.711,0,1,0-1.006,1.006L10.631,32.9a.711.711,0,0,0,.5.208.682.682,0,0,0,.114-.009.711.711,0,0,0,.523-.384l2.845-5.689A.711.711,0,0,0,14.3,26.074Z" transform="translate(-2.6 -7.512)" fill="#aba28b" stroke="#d0cabe" stroke-width="0.3"/>
      <path id="Path_815" data-name="Path 815" d="M14.3,37.069a.711.711,0,0,0-.954.319l-2.4,4.807-.725-.725a.711.711,0,1,0-1.006,1.006L10.631,43.9a.711.711,0,0,0,.5.212.682.682,0,0,0,.114-.009.711.711,0,0,0,.523-.384l2.845-5.689a.711.711,0,0,0-.319-.958Z" transform="translate(-2.6 -10.688)" fill="#aba28b" stroke="#d0cabe" stroke-width="0.3"/>
    </g>
  </g>
</svg>
