<svg xmlns="http://www.w3.org/2000/svg" width="72.491" height="72.491" viewBox="0 0 72.491 72.491">
  <g id="Icon_3_-_not_selected" data-name="Icon 3 - not selected" transform="translate(10481.677 2114.032)">
    <circle id="Ellipse_122" data-name="Ellipse 122" cx="36.245" cy="36.245" r="36.245" transform="translate(-10409.186 -2114.032) rotate(90)" fill="#d0cabe"/>
    <g id="Group_290" data-name="Group 290" transform="translate(-10465.844 -2099.778)">
      <path id="Path_785" data-name="Path 785" d="M23.427,16.306h0a.878.878,0,0,1-.624-.255L19.29,12.537l1.247-1.247,2.89,2.89,2.89-2.89,1.247,1.247-3.514,3.514A.878.878,0,0,1,23.427,16.306Z" transform="translate(-2.346 -1.373)" fill="#aba28b" stroke="#cbcbbd" stroke-width="0.4"/>
      <path id="Path_786" data-name="Path 786" d="M8.427,39.306h0a.878.878,0,0,1-.624-.255L4.29,35.537,5.537,34.29l2.89,2.89,2.89-2.89,1.247,1.247L9.051,39.051A.878.878,0,0,1,8.427,39.306Z" transform="translate(-0.522 -4.17)" fill="#aba28b" stroke="#cbcbbd" stroke-width="0.4"/>
      <path id="Path_787" data-name="Path 787" d="M38.427,39.306a.878.878,0,0,1-.624-.255L34.29,35.537l1.247-1.247,2.89,2.9,2.89-2.9,1.247,1.247-3.514,3.514A.878.878,0,0,1,38.427,39.306Z" transform="translate(-4.17 -4.17)" fill="#aba28b" stroke="#cbcbbd" stroke-width="0.4"/>
      <path id="Path_777" data-name="Path 777" d="M23.392,8.784a4.392,4.392,0,1,1,4.392-4.392A4.392,4.392,0,0,1,23.392,8.784Zm0-7.027a2.635,2.635,0,1,0,2.635,2.635A2.635,2.635,0,0,0,23.392,1.757Z" transform="translate(-2.31)" fill="#aba28b" stroke="#cbcbbd" stroke-width="0.4"/>
      <path id="Path_778" data-name="Path 778" d="M22.906,23.3a.878.878,0,0,1-.466-.132l-7.027-4.392A.878.878,0,0,1,15,18.027V15.392A4.392,4.392,0,0,1,19.392,11h7.027a4.392,4.392,0,0,1,4.392,4.392v2.635a.878.878,0,0,1-.413.747l-7.027,4.392a.878.878,0,0,1-.466.132Zm-6.149-5.754,6.149,3.839,6.149-3.839V15.392a2.635,2.635,0,0,0-2.635-2.635H19.392a2.635,2.635,0,0,0-2.635,2.635Z" transform="translate(-1.824 -1.338)" fill="#aba28b" stroke="#cbcbbd" stroke-width="0.4"/>
      <path id="Path_779" data-name="Path 779" d="M8.392,31.784a4.392,4.392,0,1,1,4.392-4.392A4.392,4.392,0,0,1,8.392,31.784Zm0-7.027a2.635,2.635,0,1,0,2.635,2.635,2.635,2.635,0,0,0-2.635-2.635Z" transform="translate(-0.486 -2.797)" fill="#aba28b" stroke="#cbcbbd" stroke-width="0.4"/>
      <path id="Path_780" data-name="Path 780" d="M7.906,46.3a.878.878,0,0,1-.466-.132L.413,41.774A.878.878,0,0,1,0,41.027V38.392A4.392,4.392,0,0,1,4.392,34h7.027a4.392,4.392,0,0,1,4.392,4.392v2.635a.878.878,0,0,1-.413.747L8.371,46.166A.878.878,0,0,1,7.906,46.3ZM1.757,40.544l6.149,3.839,6.149-3.839V38.392a2.635,2.635,0,0,0-2.635-2.635H4.392a2.635,2.635,0,0,0-2.635,2.635Z" transform="translate(0 -4.134)" fill="#aba28b" stroke="#cbcbbd" stroke-width="0.4"/>
      <path id="Path_781" data-name="Path 781" d="M38.392,31.784a4.392,4.392,0,1,1,4.392-4.392A4.392,4.392,0,0,1,38.392,31.784Zm0-7.027a2.635,2.635,0,1,0,2.635,2.635,2.635,2.635,0,0,0-2.635-2.635Z" transform="translate(-4.134 -2.797)" fill="#aba28b" stroke="#cbcbbd" stroke-width="0.4"/>
      <path id="Path_782" data-name="Path 782" d="M37.906,46.3a.878.878,0,0,1-.466-.132l-7.027-4.392A.878.878,0,0,1,30,41.027V38.392A4.392,4.392,0,0,1,34.392,34h7.027a4.392,4.392,0,0,1,4.392,4.392v2.635a.878.878,0,0,1-.413.747l-7.027,4.392A.878.878,0,0,1,37.906,46.3Zm-6.149-5.754,6.149,3.839,6.149-3.839V38.392a2.635,2.635,0,0,0-2.635-2.635H34.392a2.635,2.635,0,0,0-2.635,2.635Z" transform="translate(-3.648 -4.134)" fill="#aba28b" stroke="#cbcbbd" stroke-width="0.4"/>
      <path id="Path_783" data-name="Path 783" d="M9.757,18.933H8V8.392A4.392,4.392,0,0,1,12.392,4h3.514V5.757H12.392A2.635,2.635,0,0,0,9.757,8.392Z" transform="translate(-0.973 -0.486)" fill="#aba28b" stroke="#cbcbbd" stroke-width="0.4"/>
      <path id="Path_784" data-name="Path 784" d="M38.906,18.933H37.149V8.392a2.635,2.635,0,0,0-2.635-2.635H31V4h3.514a4.392,4.392,0,0,1,4.392,4.392Z" transform="translate(-3.77 -0.486)" fill="#aba28b" stroke="#cbcbbd" stroke-width="0.4"/>
    </g>
  </g>
</svg>
