<svg xmlns="http://www.w3.org/2000/svg" width="119" height="119" viewBox="0 0 119 119">
  <g id="not_selected_1" data-name="not selected 1" transform="translate(-2326 -4489)">
    <g id="Group_1031" data-name="Group 1031" transform="translate(2326.158 4489.291)">
      <circle id="Ellipse_100" data-name="Ellipse 100" cx="59.5" cy="59.5" r="59.5" transform="translate(118.842 -0.29) rotate(90)" fill="#e0b2c2"/>
    </g>
    <path id="competency_16761000" d="M46.433,22.946a23.5,23.5,0,1,0,23.5,23.5A23.522,23.522,0,0,0,46.433,22.946ZM28.393,57.892a8.473,8.473,0,0,1,6.971-3.7h6.33a8.444,8.444,0,0,1,8.434,8.434V67.5a21.282,21.282,0,0,1-3.13.312V63.088a1.061,1.061,0,1,0-2.122,0v4.67a21.388,21.388,0,0,1-16.482-9.867Zm10.135-5.827a5.8,5.8,0,1,1,5.8-5.8A5.8,5.8,0,0,1,38.528,52.065ZM52.249,67.01V62.622A10.573,10.573,0,0,0,43.7,52.259a7.918,7.918,0,1,0-10.34,0,10.626,10.626,0,0,0-6.1,3.617,21.371,21.371,0,1,1,24.99,11.132ZM83.2,40.907l-8.013-3.1a29.883,29.883,0,0,0-2.316-5.586l3.474-7.861a1.062,1.062,0,0,0-.22-1.179l-6.427-6.427a1.062,1.062,0,0,0-1.179-.22l-7.861,3.474a29.841,29.841,0,0,0-5.586-2.316l-3.1-8.013A1.06,1.06,0,0,0,50.976,9H41.887a1.064,1.064,0,0,0-.99.678L37.8,17.69a29.911,29.911,0,0,0-5.584,2.316l-7.863-3.474a1.061,1.061,0,0,0-1.179.22l-6.427,6.427a1.062,1.062,0,0,0-.22,1.179L20,32.22a29.858,29.858,0,0,0-2.316,5.586l-8.013,3.1a1.06,1.06,0,0,0-.678.99v9.089a1.064,1.064,0,0,0,.678.99l8.013,3.1A29.911,29.911,0,0,0,20,60.662l-3.474,7.863a1.062,1.062,0,0,0,.22,1.179l6.427,6.427a1.061,1.061,0,0,0,1.179.22l7.861-3.474A29.9,29.9,0,0,0,37.8,75.192l3.1,8.013a1.06,1.06,0,0,0,.99.678h9.089a1.063,1.063,0,0,0,.99-.678l3.1-8.013a29.911,29.911,0,0,0,5.584-2.316l7.863,3.474a1.061,1.061,0,0,0,1.179-.22L76.121,69.7a1.061,1.061,0,0,0,.22-1.179l-3.474-7.861a29.9,29.9,0,0,0,2.316-5.586l8.013-3.1a1.06,1.06,0,0,0,.678-.99V41.9a1.063,1.063,0,0,0-.678-.99Zm-1.445,9.351-7.823,3.029a1.057,1.057,0,0,0-.638.7,27.757,27.757,0,0,1-2.53,6.1,1.062,1.062,0,0,0-.045.949l3.392,7.676-5.4,5.4-7.678-3.392a1.062,1.062,0,0,0-.949.045,27.763,27.763,0,0,1-6.1,2.53,1.067,1.067,0,0,0-.7.638l-3.029,7.825H42.613l-3.029-7.823a1.057,1.057,0,0,0-.7-.638,27.756,27.756,0,0,1-6.1-2.53,1.062,1.062,0,0,0-.949-.045l-7.676,3.392-5.4-5.4,3.392-7.678a1.062,1.062,0,0,0-.045-.949,27.763,27.763,0,0,1-2.53-6.1,1.067,1.067,0,0,0-.638-.7L11.109,50.26V42.624L18.932,39.6a1.057,1.057,0,0,0,.638-.7,27.726,27.726,0,0,1,2.53-6.1,1.062,1.062,0,0,0,.045-.949l-3.392-7.676,5.4-5.4,7.678,3.392a1.062,1.062,0,0,0,.949-.045,27.763,27.763,0,0,1,6.1-2.53,1.067,1.067,0,0,0,.7-.638l3.029-7.825h7.635l3.029,7.825a1.057,1.057,0,0,0,.7.638,27.7,27.7,0,0,1,6.1,2.53,1.062,1.062,0,0,0,.949.045l7.678-3.392,5.4,5.4-3.392,7.676a1.062,1.062,0,0,0,.045.949,27.744,27.744,0,0,1,2.53,6.1,1.067,1.067,0,0,0,.638.7l7.823,3.027V50.26Zm-26.73-10.1a1.062,1.062,0,0,0,1.032-1.3l-.87-3.708,2.883-2.488a1.061,1.061,0,0,0-.6-1.86l-3.794-.318-1.475-3.511a1.06,1.06,0,0,0-1.955,0l-1.475,3.511-3.794.318a1.061,1.061,0,0,0-.6,1.86l2.883,2.488-.87,3.708a1.06,1.06,0,0,0,1.583,1.149l3.258-1.972,3.258,1.972a1.055,1.055,0,0,0,.55.153Zm-3.258-4.275a1.06,1.06,0,0,0-1.1,0l-1.648,1,.44-1.875a1.061,1.061,0,0,0-.34-1.046l-1.458-1.258,1.919-.161a1.062,1.062,0,0,0,.89-.646l.746-1.775.746,1.775a1.062,1.062,0,0,0,.89.646l1.919.161-1.458,1.258a1.06,1.06,0,0,0-.34,1.046l.44,1.875-1.648-1Zm8.186,3.377a1.06,1.06,0,0,0-.978.65L57.5,43.426l-3.794.318a1.061,1.061,0,0,0-.6,1.86l2.883,2.488L55.11,51.8a1.062,1.062,0,0,0,1.032,1.3,1.074,1.074,0,0,0,.55-.153l3.258-1.972,3.258,1.972A1.06,1.06,0,0,0,64.79,51.8l-.87-3.708L66.8,45.606a1.061,1.061,0,0,0-.6-1.86L62.4,43.428l-1.475-3.511a1.06,1.06,0,0,0-.978-.65Zm1.636,6.221,1.919.161-1.458,1.258a1.06,1.06,0,0,0-.34,1.046l.44,1.875-1.648-1a1.065,1.065,0,0,0-1.1,0l-1.648,1,.44-1.875a1.061,1.061,0,0,0-.34-1.046l-1.458-1.258,1.919-.161a1.062,1.062,0,0,0,.89-.646l.746-1.775.746,1.775a1.062,1.062,0,0,0,.89.646Z" transform="translate(2339.069 4502.059)" fill="#c26685"/>
  </g>
</svg>
