<svg xmlns="http://www.w3.org/2000/svg" width="119" height="119" viewBox="0 0 119 119">
  <g id="Group_1122" data-name="Group 1122" transform="translate(-18243.578 -4142.479)">
    <g id="Group_869" data-name="Group 869" transform="translate(18243.736 4142.769)">
      <circle id="Ellipse_100" data-name="Ellipse 100" cx="59.5" cy="59.5" r="59.5" transform="translate(118.842 -0.29) rotate(90)" fill="#e0b2c2"/>
    </g>
    <g id="creative-thinking_18139935" transform="translate(18268.484 4169.568)">
      <g id="Group_876" data-name="Group 876" transform="translate(3.328 2.26)">
        <path id="Path_1554" data-name="Path 1554" d="M63.942,39.963c-.066-.045-.139-.071-.206-.112.267-4.1-1.848-9.236-5.968-14.559,4.128-5.334,6.243-10.47,5.968-14.561.068-.041.14-.074.206-.119a4.385,4.385,0,1,0-4.936-7.25c-.07.048-.126.109-.192.16C54.369,1.418,47.256,1.961,39.2,5.027A21.061,21.061,0,0,0,34.585,4.5,24.01,24.01,0,0,0,30,5.035c-8.053-3.069-15.171-3.617-19.63-1.51-.067-.052-.124-.114-.194-.162a4.385,4.385,0,1,0-4.936,7.25c.069.047.142.08.213.123-.266,4.09,1.848,9.221,5.967,14.543C7.3,30.6,5.19,35.74,5.457,39.848c-.07.042-.145.069-.213.116a4.385,4.385,0,1,0,4.936,7.25c.067-.045.119-.1.183-.152,3.989,1.878,9.22,1.378,13.495.373.8,2.981.419,4.7.52,8.516,0,.008,0,.015,0,.023s0,.015,0,.023c.04.135-.461,4.026,3.318,5.4a6.93,6.93,0,0,0,13.8,0,5.011,5.011,0,0,0,3.328-4.7c-.055-6.122-.046-7.183.506-9.256,4.336,1.023,9.488,1.535,13.487-.383.067.051.122.113.192.16a4.385,4.385,0,0,0,4.936-7.25Zm-3.8-34.926h0a2.361,2.361,0,1,1-.623,3.28,2.357,2.357,0,0,1,.623-3.28Zm-2.65.139a4.363,4.363,0,0,0,4.226,6.181c.039,3.64-2.1,8.429-6,13.294l-.064.074A21.128,21.128,0,0,0,42.433,6.031c6.159-1.968,11.587-2.272,15.061-.855ZM34.813,6.527A19.054,19.054,0,0,1,53.586,27.115a64.947,64.947,0,0,1-11.207,9.613A66.687,66.687,0,0,1,34.6,41.3a66.582,66.582,0,0,1-7.784-4.568A65.207,65.207,0,0,1,15.582,27.1c-.037-.487-.073-.974-.073-1.468a18.962,18.962,0,0,1,5.6-13.507,19.2,19.2,0,0,1,13.705-5.6ZM5.76,5.659A2.361,2.361,0,1,1,6.383,8.94,2.359,2.359,0,0,1,5.76,5.659Zm1.712,5.7a4.364,4.364,0,0,0,4.22-6.18c3.525-1.448,8.861-1.151,15.075.854A21.022,21.022,0,0,0,13.53,24.7c-.015-.019-.034-.039-.05-.059C9.522,19.708,7.428,15.03,7.472,11.358ZM9.04,45.54a2.361,2.361,0,1,1,.623-3.281A2.359,2.359,0,0,1,9.04,45.54Zm2.642-.122a4.324,4.324,0,0,0-.346-4.3,4.375,4.375,0,0,0-3.862-1.892c-.031-3.41,1.847-7.807,5.261-12.331.29.346.572.69.877,1.035A20.871,20.871,0,0,0,20.084,40.96a13.583,13.583,0,0,1,3.124,4.548c-4.693,1.081-8.721,1.05-11.526-.09Zm9.794-5.927a18.9,18.9,0,0,1-5.286-8.846A69.611,69.611,0,0,0,25.671,38.4a68.867,68.867,0,0,0,6.619,3.99A50.717,50.717,0,0,1,25.173,45a15.638,15.638,0,0,0-3.7-5.51ZM34.595,65.648a4.954,4.954,0,0,1-4.841-3.933h9.682A4.954,4.954,0,0,1,34.595,65.648Zm5.195-5.962H29.395a2.987,2.987,0,0,1-2.964-2.7H42.768a3,3,0,0,1-2.978,2.7ZM42.8,54.961H26.4v-2.7H42.8Zm.024-4.732H26.364a16.753,16.753,0,0,0-.544-3.309A54.161,54.161,0,0,0,34.6,43.55a54.242,54.242,0,0,0,8.769,3.371,16.81,16.81,0,0,0-.543,3.308ZM44.01,45A50.918,50.918,0,0,1,36.9,42.39,69.093,69.093,0,0,0,43.519,38.4a68.586,68.586,0,0,0,9.443-7.731,18.935,18.935,0,0,1-5.239,8.806A15.6,15.6,0,0,0,44.01,45ZM57.849,41.12a4.321,4.321,0,0,0-.349,4.291c-2.785,1.146-6.809,1.18-11.525.1a13.546,13.546,0,0,1,3.139-4.561,21.066,21.066,0,0,0,6.443-12.99c.309-.349.6-.7.9-1.053,3.464,4.576,5.307,8.886,5.266,12.323a4.371,4.371,0,0,0-3.871,1.892Zm5.577,3.8a2.36,2.36,0,0,1-3.28.622h0a2.361,2.361,0,1,1,3.281-.622Z" transform="translate(-3.328 -2.26)" fill="#c26685"/>
        <path id="Path_1555" data-name="Path 1555" d="M17.679,26.208l1.466,2.542a1.973,1.973,0,0,0,2.366.881l1.524-.53a9.665,9.665,0,0,0,2.912,1.658l.308,1.619A1.983,1.983,0,0,0,28.2,33.987h2.939a1.982,1.982,0,0,0,1.944-1.6l.308-1.593a9.609,9.609,0,0,0,2.882-1.7l1.563.542a1.975,1.975,0,0,0,2.365-.88l1.467-2.546a1.986,1.986,0,0,0-.418-2.484l-1.223-1.057A9.211,9.211,0,0,0,40,19.316l1.251-1.087a1.982,1.982,0,0,0,.417-2.481L40.2,13.2a1.98,1.98,0,0,0-2.366-.88l-1.524.532A9.621,9.621,0,0,0,33.4,11.193l-.308-1.617a1.982,1.982,0,0,0-1.945-1.609H28.207a1.983,1.983,0,0,0-1.944,1.6l-.309,1.593a9.607,9.607,0,0,0-2.882,1.7l-1.565-.544a1.983,1.983,0,0,0-2.363.881l-1.467,2.546a1.986,1.986,0,0,0,.418,2.484l1.223,1.055a9.211,9.211,0,0,0,.028,3.351l-1.252,1.087a1.988,1.988,0,0,0-.416,2.484Zm3.642-3.884a8.448,8.448,0,0,1,0-2.709,1.982,1.982,0,0,0-.65-1.833l-1.235-1.024,1.413-2.526,1.563.543a1.977,1.977,0,0,0,1.921-.357,8.294,8.294,0,0,1,2.34-1.36,1.986,1.986,0,0,0,1.267-1.48l.271-1.586,2.9-.036.308,1.614a1.98,1.98,0,0,0,1.268,1.489,8.288,8.288,0,0,1,2.349,1.36,1.978,1.978,0,0,0,1.92.354l1.5-.56L39.923,16.7l-1.25,1.086a1.986,1.986,0,0,0-.647,1.842,8.458,8.458,0,0,1,0,2.709,1.982,1.982,0,0,0,.65,1.833L39.913,25.2,38.5,27.72l-1.566-.543a1.976,1.976,0,0,0-1.917.36A8.313,8.313,0,0,1,32.676,28.9a1.986,1.986,0,0,0-1.267,1.48l-.271,1.588-2.9.037-.308-1.619a1.991,1.991,0,0,0-1.268-1.486,8.334,8.334,0,0,1-2.349-1.358,1.982,1.982,0,0,0-1.92-.356l-1.5.559-1.476-2.488,1.249-1.084a1.983,1.983,0,0,0,.649-1.843Z" transform="translate(1.592 -0.267)" fill="#c26685"/>
        <path id="Path_1556" data-name="Path 1556" d="M28.1,25.405a6.2,6.2,0,0,0,6.19-6.083,1.063,1.063,0,0,0,.006-.112,6.191,6.191,0,0,0-12.38-.107,1.044,1.044,0,0,0-.006.112A6.2,6.2,0,0,0,28.1,25.405Zm-4.162-6.2a4.167,4.167,0,0,1,8.333-.088.872.872,0,0,0,0,.094,4.167,4.167,0,0,1-8.333.088A.872.872,0,0,0,23.939,19.21Z" transform="translate(3.162 1.498)" fill="#c26685"/>
      </g>
    </g>
  </g>
</svg>
