<svg xmlns="http://www.w3.org/2000/svg" width="119" height="119" viewBox="0 0 119 119">
  <g id="not_selected_4" data-name="not selected 4" transform="translate(-4921 -4429.501)">
    <g id="Group_794" data-name="Group 794" transform="translate(4921.158 4429.791)">
      <circle id="Ellipse_100" data-name="Ellipse 100" cx="59.5" cy="59.5" r="59.5" transform="translate(118.842 -0.29) rotate(90)" fill="#e0b2c2"/>
    </g>
    <g id="deadline_6289257" transform="translate(4945.593 4453.59)">
      <path id="Path_1703" data-name="Path 1703" d="M65,20.442a1.023,1.023,0,0,0,1.023-1.023V13.967h0a3.787,3.787,0,0,0,3.784-3.782v-6.4A3.787,3.787,0,0,0,66.03,0H3.782A3.787,3.787,0,0,0,0,3.782v6.4a3.787,3.787,0,0,0,3.782,3.782h.005V57.021a5.611,5.611,0,0,0,5.605,5.6H35.172A19.508,19.508,0,0,0,66.026,38.762V24.192a1.023,1.023,0,1,0-2.045,0V36.4a19.631,19.631,0,0,0-4.04-3.06,4.115,4.115,0,1,0-7.053-2.88,4.17,4.17,0,0,0,.034.5,19.591,19.591,0,0,0-2.62-.176c-.081,0-.161,0-.241,0,.009-.11.015-.22.015-.33a4.119,4.119,0,1,0-7.712,2.017,19.58,19.58,0,0,0-5.525,3.712,4.118,4.118,0,0,0-4.612,6.763,19.382,19.382,0,0,0-.664,1.9l-4.123-3A4.12,4.12,0,1,0,26,43.341l5.062,3.684A19.643,19.643,0,0,0,31,53.213a1.023,1.023,0,0,0,2.023-.3A17.468,17.468,0,1,1,50.3,67.768,17.462,17.462,0,0,1,34.265,57.234a1.023,1.023,0,1,0-1.877.812,19.585,19.585,0,0,0,1.324,2.534H9.393a3.564,3.564,0,0,1-3.56-3.559V13.967h10.6a1.023,1.023,0,1,0,0-2.045H3.782a1.739,1.739,0,0,1-1.737-1.737v-6.4A1.739,1.739,0,0,1,3.782,2.045H66.03a1.74,1.74,0,0,1,1.739,1.737v6.4a1.74,1.74,0,0,1-1.739,1.737H21.2a1.023,1.023,0,1,0,0,2.045H63.98V19.42A1.023,1.023,0,0,0,65,20.442ZM23.858,41.9a2.073,2.073,0,1,1,2.073-2.073A2.075,2.075,0,0,1,23.858,41.9Zm8.976-2.073a2.066,2.066,0,0,1,2.5-2.027,19.6,19.6,0,0,0-2.16,3.163,2.07,2.07,0,0,1-.338-1.136Zm11.049-9.365a2.073,2.073,0,1,1,4.093.466,19.362,19.362,0,0,0-3.659.8A2.056,2.056,0,0,1,43.883,30.462Zm11.05,0A2.073,2.073,0,1,1,57.9,32.33a19.355,19.355,0,0,0-2.745-.93,2.058,2.058,0,0,1-.224-.939Z" fill="#c26685"/>
      <path id="Path_1704" data-name="Path 1704" d="M148.882,124.515A4.118,4.118,0,1,0,153,128.633a4.123,4.123,0,0,0-4.118-4.118Zm0,6.192a2.073,2.073,0,1,1,2.073-2.073A2.075,2.075,0,0,1,148.882,130.707Z" transform="translate(-125.025 -107.537)" fill="#c26685"/>
      <path id="Path_1705" data-name="Path 1705" d="M229.917,124.515a4.118,4.118,0,1,0,4.118,4.118,4.123,4.123,0,0,0-4.118-4.118Zm0,6.192a2.073,2.073,0,1,1,2.073-2.073A2.075,2.075,0,0,1,229.917,130.707Z" transform="translate(-195.01 -107.537)" fill="#c26685"/>
      <path id="Path_1706" data-name="Path 1706" d="M306.834,128.633a4.118,4.118,0,1,0,4.118-4.118A4.123,4.123,0,0,0,306.834,128.633Zm6.192,0a2.073,2.073,0,1,1-2.073-2.073A2.075,2.075,0,0,1,313.026,128.633Z" transform="translate(-264.996 -107.537)" fill="#c26685"/>
      <path id="Path_1707" data-name="Path 1707" d="M387.869,128.633a4.118,4.118,0,1,0,4.118-4.118A4.123,4.123,0,0,0,387.869,128.633Zm6.192,0a2.073,2.073,0,1,1-2.073-2.073A2.075,2.075,0,0,1,394.061,128.633Z" transform="translate(-334.981 -107.537)" fill="#c26685"/>
      <path id="Path_1708" data-name="Path 1708" d="M67.847,193.2a4.118,4.118,0,1,0,4.118,4.118A4.123,4.123,0,0,0,67.847,193.2Zm0,6.192a2.073,2.073,0,1,1,2.073-2.073A2.075,2.075,0,0,1,67.847,199.389Z" transform="translate(-55.039 -166.854)" fill="#c26685"/>
      <path id="Path_1709" data-name="Path 1709" d="M148.882,193.2A4.118,4.118,0,1,0,153,197.315,4.123,4.123,0,0,0,148.882,193.2Zm0,6.192a2.073,2.073,0,1,1,2.073-2.073A2.075,2.075,0,0,1,148.882,199.389Z" transform="translate(-125.025 -166.854)" fill="#c26685"/>
      <path id="Path_1710" data-name="Path 1710" d="M229.917,193.2a4.118,4.118,0,1,0,4.118,4.118A4.123,4.123,0,0,0,229.917,193.2Zm0,6.192a2.073,2.073,0,1,1,2.073-2.073A2.075,2.075,0,0,1,229.917,199.389Z" transform="translate(-195.01 -166.854)" fill="#c26685"/>
      <path id="Path_1711" data-name="Path 1711" d="M67.847,261.878A4.118,4.118,0,1,0,71.966,266,4.123,4.123,0,0,0,67.847,261.878Zm0,6.192A2.073,2.073,0,1,1,69.921,266,2.075,2.075,0,0,1,67.847,268.07Z" transform="translate(-55.039 -226.17)" fill="#c26685"/>
      <path id="Path_1712" data-name="Path 1712" d="M67.847,330.56a4.118,4.118,0,1,0,4.118,4.118A4.123,4.123,0,0,0,67.847,330.56Zm0,6.192a2.073,2.073,0,1,1,2.073-2.073A2.075,2.075,0,0,1,67.847,336.752Z" transform="translate(-55.039 -285.487)" fill="#c26685"/>
      <path id="Path_1713" data-name="Path 1713" d="M324.762,331.73a6.969,6.969,0,1,0-6.969-6.969A6.976,6.976,0,0,0,324.762,331.73Zm0-11.892a4.923,4.923,0,1,1-4.923,4.923A4.929,4.929,0,0,1,324.762,319.838Z" transform="translate(-274.461 -274.461)" fill="#c26685"/>
      <path id="Path_1714" data-name="Path 1714" d="M350.152,353.113a2.96,2.96,0,1,0-2.96-2.96A2.963,2.963,0,0,0,350.152,353.113Zm0-3.875a.915.915,0,1,1-.915.915A.916.916,0,0,1,350.152,349.238Z" transform="translate(-299.851 -299.852)" fill="#c26685"/>
      <path id="Path_1715" data-name="Path 1715" d="M263.663,274.3a.191.191,0,0,1-.156.113l-2.576.255a2.231,2.231,0,0,0-2.016,2.227v3.757a2.231,2.231,0,0,0,2.016,2.227l2.576.256a.19.19,0,0,1,.155.111,11.155,11.155,0,0,0,1.251,2.164.191.191,0,0,1,.02.192l-1.068,2.361a2.231,2.231,0,0,0,.92,2.86l3.254,1.878a2.23,2.23,0,0,0,2.937-.633l1.51-2.1a.192.192,0,0,1,.177-.078,11.4,11.4,0,0,0,2.5,0,.19.19,0,0,1,.175.079l1.51,2.1a2.229,2.229,0,0,0,2.936.633l3.254-1.878a2.23,2.23,0,0,0,.92-2.859l-1.068-2.361a.191.191,0,0,1,.02-.192,11.158,11.158,0,0,0,1.251-2.164.19.19,0,0,1,.156-.112l2.576-.256a2.231,2.231,0,0,0,2.016-2.227V276.9a2.231,2.231,0,0,0-2.016-2.227h0l-2.576-.255a.19.19,0,0,1-.155-.111,11.107,11.107,0,0,0-1.251-2.164.193.193,0,0,1-.021-.193l1.068-2.36a2.231,2.231,0,0,0-.92-2.86l-3.253-1.878a2.23,2.23,0,0,0-2.937.633l-1.51,2.1a.19.19,0,0,1-.175.078,11.316,11.316,0,0,0-2.5,0,.191.191,0,0,1-.175-.079l-1.511-2.1a2.23,2.23,0,0,0-2.936-.632l-3.255,1.878a2.231,2.231,0,0,0-.919,2.86l1.067,2.359a.193.193,0,0,1-.02.193A11.124,11.124,0,0,0,263.663,274.3Zm1.874.819a9.078,9.078,0,0,1,1.022-1.768,2.241,2.241,0,0,0,.238-2.25l-1.068-2.36a.192.192,0,0,1,.079-.246l3.254-1.878a.192.192,0,0,1,.252.054l1.51,2.1a2.239,2.239,0,0,0,2.064.919,9.249,9.249,0,0,1,2.045,0,2.237,2.237,0,0,0,2.064-.919l1.51-2.1a.191.191,0,0,1,.253-.055l3.253,1.878a.192.192,0,0,1,.079.246l-1.068,2.361a2.242,2.242,0,0,0,.239,2.251,9.074,9.074,0,0,1,1.022,1.768,2.238,2.238,0,0,0,1.828,1.327l2.575.255a.192.192,0,0,1,.174.191v3.757a.192.192,0,0,1-.173.191l-2.575.256a2.238,2.238,0,0,0-1.829,1.329,9.114,9.114,0,0,1-1.022,1.767,2.239,2.239,0,0,0-.238,2.25l1.068,2.361a.192.192,0,0,1-.079.245l-3.254,1.878a.191.191,0,0,1-.252-.055l-1.51-2.1a2.238,2.238,0,0,0-1.816-.933,2.208,2.208,0,0,0-.247.014,9.369,9.369,0,0,1-2.046,0,2.237,2.237,0,0,0-2.064.919l-1.51,2.1a.191.191,0,0,1-.252.054l-3.253-1.878a.192.192,0,0,1-.079-.246l1.068-2.361a2.239,2.239,0,0,0-.239-2.25,9.125,9.125,0,0,1-1.022-1.768,2.238,2.238,0,0,0-1.828-1.328l-2.575-.256a.192.192,0,0,1-.174-.191V276.9a.192.192,0,0,1,.173-.191l2.576-.255A2.24,2.24,0,0,0,265.537,275.121Z" transform="translate(-223.61 -228.474)" fill="#c26685"/>
    </g>
  </g>
</svg>
