<svg xmlns="http://www.w3.org/2000/svg" width="119" height="119" viewBox="0 0 119 119">
  <g id="not_selected_1" data-name="not selected 1" transform="translate(-11594 -4466.569)">
    <g id="Group_1082" data-name="Group 1082" transform="translate(11594.158 4466.859)">
      <circle id="Ellipse_100" data-name="Ellipse 100" cx="59.5" cy="59.5" r="59.5" transform="translate(118.842 -0.29) rotate(90)" fill="#e0b2c2"/>
    </g>
    <g id="risks-management_16746172" transform="translate(11598.712 4470.719)">
      <path id="Path_1649" data-name="Path 1649" d="M78.732,94a1.732,1.732,0,1,0,1.732,1.732A1.734,1.734,0,0,0,78.732,94Z" transform="translate(-25.739 -30.855)" fill="#c26685"/>
      <path id="Path_1650" data-name="Path 1650" d="M89.594,77.586a1.155,1.155,0,0,0-1-.586H60.877a1.155,1.155,0,0,0-.99,1.749l2.455,4.092a4.642,4.642,0,0,0,3.96,2.242h7.276v2.887a2.312,2.312,0,0,1-2.309,2.309H61.455V88.547a8.083,8.083,0,0,0-16.165,0v1.732H35.475a2.312,2.312,0,0,1-2.309-2.309V85.083h7.276A4.641,4.641,0,0,0,44.4,82.84l2.455-4.092A1.155,1.155,0,0,0,45.867,77H18.155a1.155,1.155,0,0,0-.99,1.749L19.62,82.84a4.642,4.642,0,0,0,3.96,2.242h7.276v2.887a4.624,4.624,0,0,0,4.619,4.619h9.815a8.349,8.349,0,0,1-1.357,4.573l-3.879,5.819H37.207a4.624,4.624,0,0,0-4.619,4.619v2.309a3.468,3.468,0,0,0,3.464,3.464h34.64a3.468,3.468,0,0,0,3.464-3.464V107.6a4.624,4.624,0,0,0-4.619-4.619H66.691l-3.879-5.819a8.349,8.349,0,0,1-1.357-4.573h9.815a4.624,4.624,0,0,0,4.619-4.619V85.083h7.276a4.641,4.641,0,0,0,3.96-2.242l2.455-4.092a1.154,1.154,0,0,0,.014-1.163ZM21.6,81.652l-1.406-2.343H43.827l-1.406,2.343a2.319,2.319,0,0,1-1.98,1.121H23.58a2.321,2.321,0,0,1-1.98-1.121Zm43.513,23.123a1.154,1.154,0,0,0,.961.514h3.464a2.312,2.312,0,0,1,2.309,2.309v2.309a1.156,1.156,0,0,1-1.155,1.155H36.052a1.156,1.156,0,0,1-1.155-1.155V107.6a2.312,2.312,0,0,1,2.309-2.309H60.3a1.155,1.155,0,1,0,0-2.309H42.828l3.025-4.538A10.357,10.357,0,0,0,47.6,92.677V88.547a5.773,5.773,0,0,1,11.547,0v4.131a10.357,10.357,0,0,0,1.745,5.765ZM85.144,81.652a2.321,2.321,0,0,1-1.98,1.121H66.3a2.321,2.321,0,0,1-1.98-1.121l-1.406-2.343H86.549Z" transform="translate(-0.378 -23.67)" fill="#c26685"/>
      <path id="Path_1651" data-name="Path 1651" d="M114.756,25.949l-1.322.789a11.335,11.335,0,0,0-2.249-1.3V23.887A2.89,2.89,0,0,0,108.3,21h-3.464a2.89,2.89,0,0,0-2.887,2.887l.023,1.541a11.315,11.315,0,0,0-2.25,1.3l-1.344-.776a2.891,2.891,0,0,0-3.943,1.057l-1.732,3a2.886,2.886,0,0,0,1.057,3.943l1.342.75a10.947,10.947,0,0,0-.08,1.312A10.466,10.466,0,0,0,95.1,37.3l-1.342.775A2.889,2.889,0,0,0,92.7,42.016l1.732,3a2.886,2.886,0,0,0,3.943,1.057l1.322-.789a11.351,11.351,0,0,0,2.249,1.3v1.554a2.89,2.89,0,0,0,2.887,2.887H108.3a2.89,2.89,0,0,0,2.887-2.887l-.023-1.541a11.314,11.314,0,0,0,2.25-1.3l1.344.776a2.886,2.886,0,0,0,3.943-1.057l1.732-3a2.89,2.89,0,0,0-1.057-3.943l-1.342-.75a10.963,10.963,0,0,0,.08-1.313,10.468,10.468,0,0,0-.079-1.287l1.342-.775a2.886,2.886,0,0,0,1.057-3.943l-1.732-3a2.889,2.889,0,0,0-3.943-1.057Zm3.733,5.649a.575.575,0,0,1-.269.35l-1.342.775a2.287,2.287,0,0,0-1.138,2.248,8.612,8.612,0,0,1,0,2.078,2.288,2.288,0,0,0,1.138,2.248l1.342.774a.578.578,0,0,1,.211.789l-1.732,3a.577.577,0,0,1-.789.211l-1.344-.776a2.287,2.287,0,0,0-2.507.131,9.215,9.215,0,0,1-1.817,1.047,2.29,2.29,0,0,0-1.368,2.107v1.554a.578.578,0,0,1-.577.577h-3.464a.578.578,0,0,1-.577-.577V46.581a2.287,2.287,0,0,0-1.368-2.106,9.21,9.21,0,0,1-1.817-1.047,2.263,2.263,0,0,0-1.348-.443,2.317,2.317,0,0,0-1.159.312l-1.344.776a.577.577,0,0,1-.789-.211l-1.732-3a.578.578,0,0,1,.211-.789l1.342-.774a2.287,2.287,0,0,0,1.138-2.248,8.582,8.582,0,0,1,0-2.08,2.288,2.288,0,0,0-1.138-2.248l-1.342-.775a.577.577,0,0,1-.211-.789l1.732-3a.577.577,0,0,1,.789-.211l1.344.776a2.288,2.288,0,0,0,2.507-.131,9.245,9.245,0,0,1,1.817-1.047,2.287,2.287,0,0,0,1.368-2.106V23.887a.578.578,0,0,1,.577-.577H108.3a.578.578,0,0,1,.577.577V25.44a2.287,2.287,0,0,0,1.368,2.106,9.213,9.213,0,0,1,1.817,1.047,2.288,2.288,0,0,0,2.507.131l1.344-.776a.578.578,0,0,1,.789.211l1.732,3a.572.572,0,0,1,.059.438Z" transform="translate(-32.211)" fill="#c26685"/>
      <path id="Path_1652" data-name="Path 1652" d="M112.773,37a5.773,5.773,0,1,0,5.773,5.773A5.78,5.78,0,0,0,112.773,37Zm0,9.237a3.464,3.464,0,1,1,3.464-3.464A3.468,3.468,0,0,1,112.773,46.237Z" transform="translate(-38.419 -6.763)" fill="#c26685"/>
      <path id="Path_1653" data-name="Path 1653" d="M21.31,52.292H41.955a5.2,5.2,0,0,0,4.5-7.793L36.133,26.607a5.2,5.2,0,0,0-9,0L16.809,44.5a5.2,5.2,0,0,0,4.5,7.793Zm-2.5-6.639L29.132,27.761a2.887,2.887,0,0,1,5,0L44.455,45.654a2.887,2.887,0,0,1-2.5,4.329H21.31a2.887,2.887,0,0,1-2.5-4.329Z" transform="translate(0 -1.271)" fill="#c26685"/>
      <path id="Path_1654" data-name="Path 1654" d="M42.155,48.744a1.155,1.155,0,0,0,1.155-1.155v-7.6a1.155,1.155,0,0,0-2.309,0v7.6A1.155,1.155,0,0,0,42.155,48.744Z" transform="translate(-10.522 -7.537)" fill="#c26685"/>
      <path id="Path_1655" data-name="Path 1655" d="M42.155,61.887a1.155,1.155,0,0,0,1.155-1.155v-.577a1.155,1.155,0,0,0-2.309,0v.577A1.155,1.155,0,0,0,42.155,61.887Z" transform="translate(-10.522 -16.062)" fill="#c26685"/>
    </g>
  </g>
</svg>
