<svg xmlns="http://www.w3.org/2000/svg" width="119" height="119" viewBox="0 0 119 119">
  <g id="not_selected_2" data-name="not selected 2" transform="translate(-4622 -4429.501)">
    <g id="Group_671" data-name="Group 671" transform="translate(4622.158 4429.791)">
      <circle id="Ellipse_100" data-name="Ellipse 100" cx="59.5" cy="59.5" r="59.5" transform="translate(118.842 -0.29) rotate(90)" fill="#e0b2c2"/>
    </g>
    <path id="training-program_12278436" d="M73.259,83.535l1.953-.56-.176-.618a.815.815,0,0,1,.4-.941,7.808,7.808,0,0,0,2.15-1.7.814.814,0,0,1,1.018-.187l.56.31.987-1.78-.516-.286a.815.815,0,0,1-.432-.97,7.8,7.8,0,0,0,.315-2.708.816.816,0,0,1,.588-.874l.614-.176-.56-1.953-.617.176a.815.815,0,0,1-.941-.4,7.811,7.811,0,0,0-1.7-2.15.814.814,0,0,1-.187-1.018l.31-.56-1.78-.987-.286.516a.816.816,0,0,1-.97.432,7.8,7.8,0,0,0-2.708-.315A.816.816,0,0,1,70.4,66.2l-.176-.613-1.953.56.176.618a.815.815,0,0,1-.4.941,7.81,7.81,0,0,0-2.15,1.7.814.814,0,0,1-1.018.187l-.56-.31-.987,1.78.516.286a.816.816,0,0,1,.432.97,7.8,7.8,0,0,0-.315,2.708.816.816,0,0,1-.588.874l-.614.176.56,1.953.617-.176a.815.815,0,0,1,.941.4,7.805,7.805,0,0,0,1.7,2.15.814.814,0,0,1,.187,1.018l-.31.56,1.78.987.286-.515a.815.815,0,0,1,.97-.432,7.8,7.8,0,0,0,2.708.315.816.816,0,0,1,.874.588l.176.614ZM74.714,69.2a6.127,6.127,0,1,1-4.659-.534A6.127,6.127,0,0,1,74.714,69.2ZM28.768,63.551c-2.055-2.3-5.552-.642-5.552,2.687s3.5,4.983,5.552,2.687a4.152,4.152,0,0,0,0-5.374Zm-2.283-2.7a5.407,5.407,0,0,1,0,10.766,5.407,5.407,0,0,1,0-10.766ZM47.7,73.69,31.6,78.006a.816.816,0,0,0-.6.787v31.869a1.186,1.186,0,0,1-.479.9c-1.169.954-3.209.285-3.209-.9V97.187h.162a.817.817,0,0,0,0-1.633H25.507a.817.817,0,1,0,0,1.633h.162v13.475a1.186,1.186,0,0,1-.479.9c-1.17.954-3.209.285-3.209-.9V78.794a.817.817,0,0,0-1.633,0V92.088a1.355,1.355,0,0,1-2.709,0V77.8a3.247,3.247,0,0,1,3.235-3.235H32.1c4.255,0,10.65-2.325,14.945-3.5a1.357,1.357,0,0,1,1.524,1.985,1.335,1.335,0,0,1-.866.645ZM85.68,57.1H36.2v3.863H85.68ZM63.353,85.966c-1.993-2.227-5.384-.622-5.384,2.609a3.43,3.43,0,0,0,3.171,3.64c2.874,0,4.217-4.009,2.214-6.249Zm-14.4,3.952a2.541,2.541,0,0,0-3.892,0c-1.783,1.993-.571,5.528,1.946,5.528s3.718-3.547,1.946-5.528Zm27.859.652a2.626,2.626,0,0,0-1.946-.907c-2.492,0-3.747,3.516-1.946,5.528,1.756,1.963,4.739.545,4.739-2.31A3.457,3.457,0,0,0,76.815,90.57Zm2.018.155c1.443,3.175-.65,7.006-3.964,7.006S69.461,93.9,70.9,90.725H65.525a4.6,4.6,0,0,1-7.811,1.543,5.35,5.35,0,0,1-.96-1.543H51.218c.909,3.049-1.134,6.354-4.208,6.354s-5.118-3.3-4.208-6.354H37.2a.817.817,0,0,1-.817-.817v-11.5l-3.762,1.008v31.243c0,2.761-4.041,4.058-6.137,1.92-2.1,2.138-6.137.84-6.137-1.92V94.75a2.991,2.991,0,0,1-4.342-2.662V77.8a4.88,4.88,0,0,1,4.868-4.868H32.1a20.751,20.751,0,0,0,4.287-.566V62.591h-1a.817.817,0,0,1-.817-.817V56.279a.817.817,0,0,1,.817-.817H86.5a.817.817,0,0,1,.817.817v5.495a.817.817,0,0,1-.817.817h-1V89.909a.817.817,0,0,1-.817.817Zm-3.964-2.7a4.165,4.165,0,0,0-2.762,1.063H65.92c.266-2.979-1.838-5.79-4.781-5.79s-5.046,2.811-4.781,5.79H50.384a4.178,4.178,0,0,0-6.748,0H38.017V77.974l10.148-2.719a2.986,2.986,0,0,0-1.545-5.77c-2.763.74-5.72,1.746-8.6,2.487V62.591H83.861v26.5H77.63a4.165,4.165,0,0,0-2.762-1.063Zm8.465,27.013a.817.817,0,0,0,.889-.813v-9.7c0-2.616-1.815-5.109-4.4-5.109H71.267a5.023,5.023,0,0,0-4.652-4.331H55.664a4.871,4.871,0,0,0-4.445,3.549H42.052c-2.58,0-4.4,2.493-4.4,5.109v10.488a.817.817,0,0,0,.817.817l44.86,0Zm-11.947-1.627h7.367v-7.835a.817.817,0,0,1,1.633,0v7.835h2.2v-8.892c0-1.721-1.105-3.476-2.763-3.476h-8.44v12.367Zm-18.859,0h2.2v-9.674a.817.817,0,0,1,1.633,0v9.674h9.152v-8.892a.817.817,0,0,1,1.633,0v8.892h2.6V100.642c0-1.93-1.243-3.925-3.137-3.925H55.664a3.387,3.387,0,0,0-3.021,2.868,4.76,4.76,0,0,0-.116,1.057Zm-13.237,0h2.2V104.8a.817.817,0,0,1,1.633,0v8.618h7.768V100.642q0-.189.011-.376H42.052c-1.657,0-2.763,1.755-2.763,3.476v9.674ZM72.659,73.577a1.435,1.435,0,0,1,0,1.964,1.328,1.328,0,1,1,0-1.964Zm-27.076,7.86a1.328,1.328,0,1,0,0,1.964,1.435,1.435,0,0,0,0-1.964Zm10.965-3.183a1.328,1.328,0,1,0,0,1.964A1.435,1.435,0,0,0,56.547,78.255Zm10.719-3.243a4.5,4.5,0,1,1,.454,1.563l1.52-.441a2.923,2.923,0,0,0,2.5,1.435,3.02,3.02,0,0,0,2.084-5.125A2.932,2.932,0,0,0,68.8,74.566l-1.537.446Zm-20.1,5.834,5.525-1.6a2.93,2.93,0,0,1,5.44-1.579l3.13-.909c-.163-.571-.365-1-.063-1.547.274-.494.653-.567,1.123-.7a9.372,9.372,0,0,1,.229-2.016c-.428-.238-.784-.395-.939-.936a1.237,1.237,0,0,1,.11-.943l1.362-2.456a1.237,1.237,0,0,1,1.686-.482l.346.192A9.289,9.289,0,0,1,66.707,66.6a1.5,1.5,0,0,1,0-1.326,1.238,1.238,0,0,1,.743-.592l2.7-.775a1.248,1.248,0,0,1,1.535.854l.109.38a9.385,9.385,0,0,1,2.016.229c.237-.428.395-.783.936-.938a1.238,1.238,0,0,1,.943.11l2.458,1.363a1.237,1.237,0,0,1,.482,1.686l-.192.346A9.291,9.291,0,0,1,79.7,69.525a1.5,1.5,0,0,1,1.326,0,1.239,1.239,0,0,1,.592.743l.774,2.7a1.248,1.248,0,0,1-.854,1.535l-.38.109a9.392,9.392,0,0,1-.229,2.016c.428.238.784.4.938.936a1.237,1.237,0,0,1-.11.943L80.34,81.06a1.238,1.238,0,0,1-1.686.357l-.288-.16a9.294,9.294,0,0,1-1.587,1.263,1.5,1.5,0,0,1,0,1.326,1.24,1.24,0,0,1-.744.593l-2.7.774a1.248,1.248,0,0,1-1.535-.854l-.109-.38a9.386,9.386,0,0,1-2.016-.229c-.238.428-.395.783-.936.938a1.236,1.236,0,0,1-.943-.11l-2.458-1.363a1.237,1.237,0,0,1-.482-1.686l.192-.346A9.29,9.29,0,0,1,63.783,79.6a1.5,1.5,0,0,1-1.326,0c-.531-.295-.593-.744-.745-1.276l-3.143.912a2.93,2.93,0,0,1-5.44,1.579l-5.525,1.6a2.932,2.932,0,0,1-5.021,2.123,3.02,3.02,0,0,1,2.084-5.125,2.923,2.923,0,0,1,2.5,1.435Zm4.124-14.975h8.643a.817.817,0,0,0,0-1.633H51.292a.817.817,0,0,0,0,1.633Zm0,3.082h8.643a.817.817,0,0,0,0-1.633H51.292a.817.817,0,0,0,0,1.633Z" transform="translate(4626.048 4402.343)" fill="#c26685" fill-rule="evenodd"/>
  </g>
</svg>
