<svg xmlns="http://www.w3.org/2000/svg" width="119" height="119" viewBox="0 0 119 119">
  <g id="not_selected_1" data-name="not selected 1" transform="translate(-4442 -4429.501)">
    <g id="Group_1041" data-name="Group 1041" transform="translate(4442.158 4429.791)">
      <circle id="Ellipse_100" data-name="Ellipse 100" cx="59.5" cy="59.5" r="59.5" transform="translate(118.842 -0.29) rotate(90)" fill="#e0b2c2"/>
    </g>
    <g id="data-mining_18063663" transform="translate(4468.257 4453.079)">
      <g id="Group_885" data-name="Group 885" transform="translate(16.944 5.605)">
        <path id="Path_1716" data-name="Path 1716" d="M18.292,21.768a2.487,2.487,0,0,0,2.482-2.482,2.514,2.514,0,0,0-.328-1.214l5.576-5.346a2.442,2.442,0,0,0,1.268.361,2.487,2.487,0,0,0,1.64-.623l4.92,3.247a2.486,2.486,0,1,0,4.712-.492l5.488-5.324a2.458,2.458,0,0,0,1.235.339A2.482,2.482,0,1,0,42.8,7.752a2.514,2.514,0,0,0,.328,1.214L37.741,14.2a2.455,2.455,0,0,0-3.291.339l-4.8-3.171a2.6,2.6,0,0,0,.12-.765A2.487,2.487,0,1,0,25.114,11.8l-5.587,5.368a2.458,2.458,0,0,0-1.235-.339,2.487,2.487,0,0,0-2.482,2.482,2.461,2.461,0,0,0,2.482,2.46ZM45.274,6.56a1.17,1.17,0,1,1-.82,2,1.138,1.138,0,0,1-.35-.831,1.171,1.171,0,0,1,1.17-1.17Zm-9,8.451a1.186,1.186,0,0,1,.94.47,1.153,1.153,0,0,1,.241.7,1.175,1.175,0,0,1-2.351,0,1.081,1.081,0,0,1,.109-.492,1.173,1.173,0,0,1,1.06-.678Zm-8.987-5.6a1.171,1.171,0,0,1,1.17,1.17,1.168,1.168,0,0,1-1.17,1.181,1.166,1.166,0,0,1-.842-.361,1.2,1.2,0,0,1-.328-.82A1.157,1.157,0,0,1,27.289,9.414Zm-9,8.692a1.17,1.17,0,1,1-1.17,1.17A1.171,1.171,0,0,1,18.292,18.105Z" transform="translate(-15.81 -5.27)" fill="#c26685"/>
      </g>
      <g id="Group_886" data-name="Group 886" transform="translate(14.473 13.378)">
        <path id="Path_1717" data-name="Path 1717" d="M14.173,32.256H49.814a.656.656,0,0,0,0-1.312H48.557V14.086a1.708,1.708,0,0,0-1.706-1.706H44.129a1.708,1.708,0,0,0-1.706,1.706V30.944H39.57V22.165a1.708,1.708,0,0,0-1.706-1.706H35.142a1.708,1.708,0,0,0-1.706,1.706v8.779H30.583v-13.2a1.708,1.708,0,0,0-1.706-1.706H26.156a1.708,1.708,0,0,0-1.706,1.706v13.2H21.6V24.373a1.708,1.708,0,0,0-1.706-1.706H17.169a1.708,1.708,0,0,0-1.706,1.706v6.571H14.206a.658.658,0,0,0-.656.656.631.631,0,0,0,.623.656Zm29.551-18.17a.392.392,0,0,1,.394-.394H46.84a.392.392,0,0,1,.394.394V30.944h-3.52V14.086Zm-9,8.079a.392.392,0,0,1,.394-.394h2.722a.392.392,0,0,1,.394.394v8.779h-3.52V22.165ZM25.74,17.748a.392.392,0,0,1,.394-.394h2.722a.392.392,0,0,1,.394.394v13.2H25.74Zm-9,6.625a.392.392,0,0,1,.394-.394h2.722a.392.392,0,0,1,.394.394v6.571h-3.52V24.373Z" transform="translate(-13.55 -12.38)" fill="#c26685"/>
      </g>
      <g id="Group_887" data-name="Group 887" transform="translate(14.517 35.528)">
        <path id="Path_1718" data-name="Path 1718" d="M20.237,32.64H15.82a2.233,2.233,0,0,0-2.23,2.23v4.417a2.233,2.233,0,0,0,2.23,2.23h4.417a2.233,2.233,0,0,0,2.23-2.23V34.87A2.226,2.226,0,0,0,20.237,32.64Zm.918,6.647a.924.924,0,0,1-.918.918H15.82a.924.924,0,0,1-.918-.918V34.87a.924.924,0,0,1,.918-.918h4.417a.924.924,0,0,1,.918.918Z" transform="translate(-13.59 -32.64)" fill="#c26685"/>
      </g>
      <g id="Group_888" data-name="Group 888" transform="translate(26.893 37.507)">
        <path id="Path_1719" data-name="Path 1719" d="M38.631,34.45H25.566a.656.656,0,0,0,0,1.312H38.642a.658.658,0,0,0,.656-.656A.667.667,0,0,0,38.631,34.45Z" transform="translate(-24.91 -34.45)" fill="#c26685"/>
      </g>
      <g id="Group_889" data-name="Group 889" transform="translate(26.893 41.115)">
        <path id="Path_1720" data-name="Path 1720" d="M25.566,39.062h9.883a.656.656,0,0,0,0-1.312H25.566a.656.656,0,0,0,0,1.312Z" transform="translate(-24.91 -37.75)" fill="#c26685"/>
      </g>
      <g id="Group_890" data-name="Group 890" transform="translate(16.767 38.227)">
        <path id="Path_1721" data-name="Path 1721" d="M18.908,35.3l-1.716,1.716-.426-.426a.657.657,0,0,0-.929.929l.9.9a.648.648,0,0,0,.459.2.629.629,0,0,0,.459-.2l2.176-2.176a.667.667,0,0,0,0-.929A.644.644,0,0,0,18.908,35.3Z" transform="translate(-15.648 -35.109)" fill="#c26685"/>
      </g>
      <g id="Group_891" data-name="Group 891" transform="translate(14.517 46.69)">
        <path id="Path_1722" data-name="Path 1722" d="M20.237,42.85H15.82a2.233,2.233,0,0,0-2.23,2.23V49.5a2.233,2.233,0,0,0,2.23,2.23h4.417a2.233,2.233,0,0,0,2.23-2.23V45.08A2.226,2.226,0,0,0,20.237,42.85Zm.918,6.647a.924.924,0,0,1-.918.918H15.82A.924.924,0,0,1,14.9,49.5V45.08a.924.924,0,0,1,.918-.918h4.417a.924.924,0,0,1,.918.918Z" transform="translate(-13.59 -42.85)" fill="#c26685"/>
      </g>
      <g id="Group_892" data-name="Group 892" transform="translate(26.893 48.669)">
        <path id="Path_1723" data-name="Path 1723" d="M38.631,44.66H25.566a.656.656,0,0,0,0,1.312H38.642a.658.658,0,0,0,.656-.656A.667.667,0,0,0,38.631,44.66Z" transform="translate(-24.91 -44.66)" fill="#c26685"/>
      </g>
      <g id="Group_893" data-name="Group 893" transform="translate(26.893 52.277)">
        <path id="Path_1724" data-name="Path 1724" d="M35.449,47.96H25.566a.656.656,0,1,0,0,1.312h9.883a.656.656,0,1,0,0-1.312Z" transform="translate(-24.91 -47.96)" fill="#c26685"/>
      </g>
      <g id="Group_894" data-name="Group 894" transform="translate(16.767 49.381)">
        <path id="Path_1725" data-name="Path 1725" d="M18.908,45.507l-1.716,1.716-.426-.426a.657.657,0,1,0-.929.929l.9.9a.648.648,0,0,0,.459.2.629.629,0,0,0,.459-.2l2.176-2.176a.667.667,0,0,0,0-.929A.625.625,0,0,0,18.908,45.507Z" transform="translate(-15.648 -45.311)" fill="#c26685"/>
      </g>
      <g id="Group_895" data-name="Group 895" transform="translate(3.65 1.68)">
        <path id="Path_1726" data-name="Path 1726" d="M63.934,46.177a1.67,1.67,0,0,0,.5-1.2,1.716,1.716,0,0,0-.153-.7l2.744-2.744a2.752,2.752,0,1,0-3.892-3.892l-2.7,2.7a1.734,1.734,0,0,0-2.1.241l-.558.558c-.251-.175-.612-.415-1.039-.689V7.365A5.688,5.688,0,0,0,51.055,1.68H15.6A5.688,5.688,0,0,0,9.915,7.365v.579H9.335A5.688,5.688,0,0,0,3.65,13.63V60.05a5.688,5.688,0,0,0,5.685,5.685H35.093a2.743,2.743,0,0,0,4.1,3.63l3.63-3.63H44.8a5.688,5.688,0,0,0,5.685-5.685v-.579h.579a5.688,5.688,0,0,0,5.685-5.685v-1.6a1.715,1.715,0,0,0,.4.055,1.652,1.652,0,0,0,1.2-.5l.82-.82c3.039,2.668,6.789,10.069,6.833,10.146a.661.661,0,0,0,.59.361h.055a.654.654,0,0,0,.569-.47c1.695-5.652-2.58-12.4-3.848-14.235Zm.131-7.609a1.474,1.474,0,0,1,2.023,0,1.421,1.421,0,0,1,.415,1.017,1.468,1.468,0,0,1-.415,1.017L63.42,43.268,61.4,41.246ZM54.51,44.405c-2.077-2.318-6.385-4.854-8.79-6.177,4.482-.284,9.4,2.711,11.108,3.859ZM11.226,7.365A4.372,4.372,0,0,1,15.6,2.992H51.055a4.372,4.372,0,0,1,4.373,4.373V39.672c-2.952-1.64-7.708-3.641-11.884-2.394a.67.67,0,0,0-.47.569.649.649,0,0,0,.361.645c.077.044,7.478,3.794,10.146,6.833l-.82.82a1.67,1.67,0,0,0-.5,1.2,1.687,1.687,0,0,0,.262.9L42.593,58.17a.389.389,0,0,0-.109-.022H15.589a4.372,4.372,0,0,1-4.373-4.373V7.365ZM4.962,60.05V13.63A4.372,4.372,0,0,1,9.335,9.256h.579V53.786A5.688,5.688,0,0,0,15.6,59.471H41.314l-4.953,4.953H9.335A4.372,4.372,0,0,1,4.962,60.05Zm33.3,8.385a1.43,1.43,0,0,1-2.023-2.023L53.427,49.227l2.023,2.023L42.079,64.62Zm6.527-4.012h-.667l5.04-5.04v.667A4.372,4.372,0,0,1,44.79,64.423Zm6.265-6.265h-.667l5.04-5.04v.667A4.379,4.379,0,0,1,51.055,58.159Zm6.374-7.347a.4.4,0,0,1-.558,0L53.69,47.631a.391.391,0,0,1-.12-.273.373.373,0,0,1,.12-.273l5.576-5.576a.4.4,0,0,1,.558,0L63,44.69a.4.4,0,0,1,0,.558Zm8.856,7.97c-1.323-2.394-3.87-6.7-6.177-8.79l2.318-2.318c1.148,1.706,4.144,6.636,3.859,11.108Z" transform="translate(-3.65 -1.68)" fill="#c26685"/>
      </g>
    </g>
  </g>
</svg>
