<svg xmlns="http://www.w3.org/2000/svg" width="119" height="119" viewBox="0 0 119 119">
  <g id="not_selected_2" data-name="not selected 2" transform="translate(-9695 -4352)">
    <g id="Group_812" data-name="Group 812" transform="translate(9695.158 4352.291)">
      <circle id="Ellipse_100" data-name="Ellipse 100" cx="59.5" cy="59.5" r="59.5" transform="translate(118.842 -0.29) rotate(90)" fill="#e0b2c2"/>
    </g>
    <g id="education_15421604" transform="translate(9712.748 4371)">
      <path id="Path_1660" data-name="Path 1660" d="M70.25,70.8V10.464A3.56,3.56,0,0,0,66.7,6.915H51.322a2.373,2.373,0,0,0-2.366-2.366h-2.52a4.728,4.728,0,0,0-9.157,0h-2.52a2.373,2.373,0,0,0-2.366,2.366H25.922A13,13,0,1,0,13.464,28.884V70.8a3.56,3.56,0,0,0,3.549,3.549H66.7A3.56,3.56,0,0,0,70.25,70.8ZM34.759,6.915h3.549a1.187,1.187,0,0,0,1.183-1.183,2.366,2.366,0,0,1,4.732,0,1.187,1.187,0,0,0,1.183,1.183h3.549v7.1h-14.2Zm14.2,9.464a2.373,2.373,0,0,0,2.366-2.366h11.83V67.25H20.563V28.884A12.945,12.945,0,0,0,29.8,14.013h2.591a2.373,2.373,0,0,0,2.366,2.366ZM32.393,11.647H29.128a13.552,13.552,0,0,0-1.219-2.366h4.484ZM6.366,16.38A10.647,10.647,0,1,1,17.013,27.027,10.663,10.663,0,0,1,6.366,16.38ZM15.83,70.8V29.334c.39.035.781.059,1.183.059s.793-.024,1.183-.059v39.1a1.187,1.187,0,0,0,1.183,1.183H64.335a1.187,1.187,0,0,0,1.183-1.183V12.83a1.187,1.187,0,0,0-1.183-1.183H51.322V9.281H66.7a1.187,1.187,0,0,1,1.183,1.183V70.8A1.187,1.187,0,0,1,66.7,71.983H17.013A1.187,1.187,0,0,1,15.83,70.8Z" transform="translate(0 0)" fill="#c26685"/>
      <path id="Path_1661" data-name="Path 1661" d="M24.732,27.83a1.187,1.187,0,0,0-1.183,1.183v3.715a4.732,4.732,0,1,0,2.366,0V30.2h11.83v2.532a4.732,4.732,0,1,0,2.366,0V30.2h11.83v2.532a4.732,4.732,0,1,0,2.366,0V29.013a1.187,1.187,0,0,0-1.183-1.183H40.112V25.464h2.366a1.187,1.187,0,0,0,1.183-1.183v-7.1A1.187,1.187,0,0,0,42.478,16h-7.1A1.187,1.187,0,0,0,34.2,17.183v7.1a1.187,1.187,0,0,0,1.183,1.183h2.366V27.83ZM27.1,37.295a2.366,2.366,0,1,1-2.366-2.366A2.373,2.373,0,0,1,27.1,37.295Zm14.2,0a2.366,2.366,0,1,1-2.366-2.366A2.373,2.373,0,0,1,41.295,37.295Zm14.2,0a2.366,2.366,0,1,1-2.366-2.366A2.373,2.373,0,0,1,55.491,37.295ZM36.563,18.366h4.732V23.1H36.563Z" transform="translate(2.929 2.746)" fill="#c26685"/>
      <path id="Path_1662" data-name="Path 1662" d="M30,40H56.027v2.366H30Z" transform="translate(4.759 7.139)" fill="#c26685"/>
      <path id="Path_1663" data-name="Path 1663" d="M30,44H40.647v2.366H30Z" transform="translate(4.759 7.871)" fill="#c26685"/>
      <path id="Path_1664" data-name="Path 1664" d="M30,48H56.027v2.366H30Z" transform="translate(4.759 8.603)" fill="#c26685"/>
      <path id="Path_1665" data-name="Path 1665" d="M30,52H40.647v2.366H30Z" transform="translate(4.759 9.335)" fill="#c26685"/>
      <path id="Path_1666" data-name="Path 1666" d="M19.92,22.24a1.22,1.22,0,0,0,1.254-.095,1.186,1.186,0,0,0,.473-1.159l-.7-4.093,2.969-2.9a1.188,1.188,0,0,0-.663-2.023L19.14,11.38,17.306,7.653a1.231,1.231,0,0,0-2.118,0L13.354,11.38l-4.117.592a1.18,1.18,0,0,0-.958.8,1.2,1.2,0,0,0,.3,1.219l2.969,2.9-.7,4.093a1.188,1.188,0,0,0,1.715,1.254l3.679-1.928Zm-6.329-3.206.4-2.342a1.173,1.173,0,0,0-.343-1.053l-1.7-1.656L14.3,13.64a1.156,1.156,0,0,0,.887-.651l1.053-2.129,1.053,2.129a1.2,1.2,0,0,0,.887.651l2.354.343-1.7,1.656a1.2,1.2,0,0,0-.343,1.053l.4,2.342-2.106-1.112a1.164,1.164,0,0,0-.556-.13,1.32,1.32,0,0,0-.556.13l-2.106,1.112Z" transform="translate(0.772 1.107)" fill="#c26685"/>
      <ellipse id="Ellipse_355" data-name="Ellipse 355" cx="1" cy="1.5" rx="1" ry="1.5" transform="translate(41 4.348)" fill="#c26685"/>
      <path id="Path_1667" data-name="Path 1667" d="M23.905,44.141h1.479c.556,0,1.041.674,1.041,1.479h2.366a3.705,3.705,0,0,0-2.958-3.8V40H23.468v1.822a3.705,3.705,0,0,0-2.958,3.8,3.65,3.65,0,0,0,3.407,3.845H25.4c.556,0,1.041.674,1.041,1.479s-.473,1.479-1.041,1.479H23.917c-.556,0-1.041-.674-1.041-1.479H20.51a3.705,3.705,0,0,0,2.958,3.8v1.822h2.366V54.741a3.705,3.705,0,0,0,2.958-3.8A3.65,3.65,0,0,0,25.384,47.1H23.905c-.556,0-1.041-.674-1.041-1.479s.473-1.479,1.041-1.479Z" transform="translate(3.022 7.139)" fill="#c26685"/>
    </g>
  </g>
</svg>
