<svg xmlns="http://www.w3.org/2000/svg" width="119" height="119" viewBox="0 0 119 119">
  <g id="not_selected_3" data-name="not selected 3" transform="translate(45.5 -4659.929)">
    <g id="Group_672" data-name="Group 672" transform="translate(-45.077 4660.219)">
      <circle id="Ellipse_101" data-name="Ellipse 101" cx="59.5" cy="59.5" r="59.5" transform="translate(118.577 -0.29) rotate(90)" fill="#e0b2c2"/>
    </g>
    <g id="Group_677" data-name="Group 677" transform="translate(-17.548 4688.285)">
      <path id="Path_850" data-name="Path 850" d="M50.515,59.475a24.1,24.1,0,0,1-7.671,2.82l-.371,4.563H34.384L34.013,62.3a24.131,24.131,0,0,1-9.336-3.871l-3.49,2.966-5.72-5.72,2.966-3.491a24.135,24.135,0,0,1-3.87-9.336L10,42.473V34.384l4.561-.371a24.131,24.131,0,0,1,3.871-9.336l-2.966-3.491,5.72-5.72,3.491,2.966a24.134,24.134,0,0,1,9.336-3.87L34.384,10h8.089l.371,4.562a24.132,24.132,0,0,1,9.336,3.87l3.49-2.965,5.72,5.72-2.965,3.49a24.134,24.134,0,0,1,3.87,9.336l4.562.371v8.089l-4.561.371a24.1,24.1,0,0,1-2.82,7.671" transform="translate(-10 -10)" fill="none" stroke="#c26685" stroke-linecap="round" stroke-linejoin="round" stroke-miterlimit="22.926" stroke-width="2" fill-rule="evenodd"/>
      <ellipse id="Ellipse_148" data-name="Ellipse 148" cx="16.799" cy="16.799" rx="16.799" ry="16.799" transform="translate(9.289 14.357) rotate(-8.679)" fill="none" stroke="#c26685" stroke-linecap="round" stroke-linejoin="round" stroke-miterlimit="22.926" stroke-width="2"/>
      <path id="Path_851" data-name="Path 851" d="M200.338,161.651l-8.84-.081-1.5,9.38,2.68.753-.635,7.551L200,168.6l-3.055-.766Z" transform="translate(-166.74 -141.984)" fill="none" stroke="#c26685" stroke-linecap="round" stroke-linejoin="round" stroke-miterlimit="22.926" stroke-width="2" fill-rule="evenodd"/>
      <circle id="Ellipse_149" data-name="Ellipse 149" cx="11.63" cy="11.63" r="11.63" transform="translate(35.499 51.947) rotate(-45)" fill="none" stroke="#c26685" stroke-linecap="round" stroke-linejoin="round" stroke-miterlimit="22.926" stroke-width="2"/>
      <path id="Path_852" data-name="Path 852" d="M382.339,385.335l-6.892,6.892L372,388.781" transform="translate(-325.223 -336.834)" fill="none" stroke="#c26685" stroke-linecap="round" stroke-linejoin="round" stroke-miterlimit="22.926" stroke-width="2" fill-rule="evenodd"/>
    </g>
  </g>
</svg>
