<svg xmlns="http://www.w3.org/2000/svg" width="119" height="119" viewBox="0 0 119 119">
  <g id="not_selected_4" data-name="not selected 4" transform="translate(-9994 -4352)">
    <g id="Group_813" data-name="Group 813" transform="translate(9994.158 4352.291)">
      <circle id="Ellipse_100" data-name="Ellipse 100" cx="59.5" cy="59.5" r="59.5" transform="translate(118.842 -0.29) rotate(90)" fill="#e0b2c2"/>
    </g>
    <path id="information-system_10962230" d="M91.052,21.315v7.638a1.028,1.028,0,0,1-.77,1l-5.515,1.432a19.26,19.26,0,0,1-.96,2.309l2.89,4.916a1.028,1.028,0,0,1-.159,1.248l-5.4,5.4a1.028,1.028,0,0,1-1.357.085L76.66,42.924A1.028,1.028,0,0,1,77.92,41.3l2.4,1.863,4.2-4.2-2.773-4.717a1.028,1.028,0,0,1-.022-1,17.16,17.16,0,0,0,1.253-3.016,1.029,1.029,0,0,1,.725-.694L89,28.158V22.111L83.7,20.737a1.029,1.029,0,0,1-.725-.694,16.865,16.865,0,0,0-1.251-3.013,1.029,1.029,0,0,1,.02-1.006l2.773-4.717L80.243,7.029,75.53,9.8a1.028,1.028,0,0,1-1,.023,17.409,17.409,0,0,0-3.018-1.25,1.028,1.028,0,0,1-.693-.725L69.443,2.554H63.391L62.018,7.849a1.028,1.028,0,0,1-.694.725,17.151,17.151,0,0,0-3.016,1.249,1.029,1.029,0,0,1-1-.022L52.587,7.028l-4.278,4.278,2.773,4.717a1.028,1.028,0,0,1,.022,1,17.156,17.156,0,0,0-1.249,3.016,1.028,1.028,0,0,1-.725.694l-5.295,1.374v6.047l5.295,1.374a1.028,1.028,0,0,1,.725.694,17.311,17.311,0,0,0,1.25,3.021,1.029,1.029,0,0,1-.023,1L48.31,38.963l4.208,4.208,2.425-1.83a1.028,1.028,0,0,1,1.239,1.641l-3.139,2.369a1.028,1.028,0,0,1-1.346-.094l-5.4-5.4a1.028,1.028,0,0,1-.159-1.248l2.89-4.913a19.416,19.416,0,0,1-.956-2.312l-5.518-1.432a1.028,1.028,0,0,1-.77-1V21.315a1.028,1.028,0,0,1,.77-1l5.518-1.432a19.247,19.247,0,0,1,.956-2.309l-2.89-4.917a1.028,1.028,0,0,1,.159-1.248l5.4-5.4a1.029,1.029,0,0,1,1.248-.159l4.917,2.89a19.243,19.243,0,0,1,2.309-.956L61.6,1.268a1.028,1.028,0,0,1,1-.77h7.642a1.028,1.028,0,0,1,1,.77l1.432,5.519a19.528,19.528,0,0,1,2.308.956l4.913-2.89a1.029,1.029,0,0,1,1.248.159l5.4,5.4a1.028,1.028,0,0,1,.159,1.248l-2.889,4.915a18.889,18.889,0,0,1,.959,2.311l5.514,1.432a1.029,1.029,0,0,1,.77,1ZM61.872,48.289v-.15H61.83A2.84,2.84,0,0,1,58.991,45.3V42.731a2.564,2.564,0,0,1-1.54-2.368c0-1.833-.754-2.8-1.8-4.143a12.655,12.655,0,0,1-3.121-8.9c0-8.049,6.229-14.6,13.886-14.6S80.3,19.272,80.3,27.322a12.655,12.655,0,0,1-3.122,8.9c-1.044,1.341-1.8,2.31-1.8,4.143a2.564,2.564,0,0,1-1.544,2.369V45.3A2.838,2.838,0,0,1,71,48.139h-.046v.15a4.544,4.544,0,0,1-9.087,0Zm7.031-.15H63.928v.15a2.487,2.487,0,0,0,4.974,0Zm-9.395-7.776a.476.476,0,0,0,.425.5h3.879V29.911H61.789a4.079,4.079,0,1,1,4.079-4.079v2.023h1.1V25.832a4.079,4.079,0,1,1,4.079,4.079H69.023V40.867H72.9a.475.475,0,0,0,.424-.5,8.113,8.113,0,0,1,2.233-5.407,10.625,10.625,0,0,0,2.688-7.635c0-6.916-5.307-12.542-11.83-12.542s-11.83,5.626-11.83,12.542a10.625,10.625,0,0,0,2.688,7.635A8.112,8.112,0,0,1,59.508,40.363Zm4.3-14.532a2.023,2.023,0,1,0-2.023,2.023h2.023Zm2.056,15.035h1.1V29.911h-1.1Zm5.178-13.012a2.023,2.023,0,1,0-2.023-2.023v2.023ZM61.83,46.083H71a.779.779,0,0,0,.778-.778V42.923H61.048V45.3A.781.781,0,0,0,61.83,46.083Zm23.017,11.67A6.155,6.155,0,0,1,82,65.956c-2.624,1.272-4.945,2.427-6.993,3.446-8.337,4.148-12.717,6.285-17.1,6.285-4.673,0-9.35-2.428-18.828-7.437-1.226-.648-2.573-1.36-4.014-2.116v1.811a1.028,1.028,0,0,1-1.028,1.028H23.3a1.028,1.028,0,1,1,0-2.056h9.711V64.452h0V42.615H23.3a1.028,1.028,0,0,1,0-2.056H34.037a1.028,1.028,0,0,1,1.028,1.028v2.481h11.21a1.029,1.029,0,0,1,.628.214L61.68,55.688a6.13,6.13,0,0,1,2.372,5.319l12.589-6.1a6.154,6.154,0,0,1,8.205,2.85Zm-1.85.9a4.1,4.1,0,0,0-5.457-1.9L63.19,63.71a6.068,6.068,0,0,1-.4.593,6.155,6.155,0,0,1-8.612,1.109l-9.646-7.448a1.028,1.028,0,1,1,1.257-1.628l9.645,7.447a4.1,4.1,0,0,0,5.731-.739,4.032,4.032,0,0,0,.386-.608q.081-.155.147-.315l.006-.013a4.08,4.08,0,0,0-1.278-4.793l-14.5-11.191H35.065V63.813c1.805.944,3.481,1.83,4.975,2.619,8.888,4.7,13.349,7.056,17.485,7.19,4.12.138,8.276-1.936,16.567-6.061,2.053-1.021,4.38-2.179,7.012-3.455A4.1,4.1,0,0,0,83,58.649Z" transform="translate(9995.84 4370.408)" fill="#c26685"/>
  </g>
</svg>
