<svg xmlns="http://www.w3.org/2000/svg" width="119" height="119" viewBox="0 0 119 119">
  <g id="not_selected_5" data-name="not selected 5" transform="translate(-5072 -4429.501)">
    <g id="Group_793" data-name="Group 793" transform="translate(5072.423 4429.791)">
      <circle id="Ellipse_101" data-name="Ellipse 101" cx="59.5" cy="59.5" r="59.5" transform="translate(118.577 -0.29) rotate(90)" fill="#e0b2c2"/>
    </g>
    <path id="result_17227753" d="M50.478,65.141H49.417V49.167a.975.975,0,0,0-.975-.975H44.734a.975.975,0,0,0-.975.975V65.141H42.227V54.817a.975.975,0,0,0-.975-.975H37.545a.975.975,0,0,0-.975.975V65.141H35.038V60.466a.975.975,0,0,0-.975-.975H30.356a.975.975,0,0,0-.975.975v4.674H28.319a.975.975,0,1,0,0,1.95h22.16a.975.975,0,1,0,0-1.95Zm-19.148,0v-3.7h1.757v3.7Zm7.189,0V55.792h1.757v9.349Zm7.189,0v-15h1.757v15Zm3.031-24.275c.017.017.034.032.052.047a12.076,12.076,0,1,0-.1-.1c.015.018.031.036.047.052Zm8.512,1.579a10.045,10.045,0,0,1-6.409-2.3l6.813-6.813H67.3a10.1,10.1,0,0,1-10.043,9.116ZM67.3,31.378H58.228V22.31A10.107,10.107,0,0,1,67.3,31.378ZM56.278,22.31v9.639l-6.813,6.813A10.085,10.085,0,0,1,56.278,22.31Zm-29.1,5.033a.975.975,0,0,1,.975-.975h4.074a.975.975,0,1,1,0,1.95H28.157A.975.975,0,0,1,27.182,27.343Zm0,5.01a.975.975,0,0,1,.975-.975H42.894a.975.975,0,1,1,0,1.95H28.157A.975.975,0,0,1,27.182,32.353Zm0,5.01a.975.975,0,0,1,.975-.975H42.894a.975.975,0,1,1,0,1.95H28.157A.975.975,0,0,1,27.182,37.363ZM63.969,52.634a.975.975,0,0,1-.975.975H53.858a.975.975,0,1,1,0-1.95h9.136A.975.975,0,0,1,63.969,52.634ZM75.2,51.114a13.375,13.375,0,0,0-2.246.19V13.849a.975.975,0,0,0-.975-.975H61.509V9.964a.975.975,0,0,0-.975-.975H36.305a.975.975,0,0,0-.975.975v2.91H24.86a.975.975,0,0,0-.975.975V70.016a.975.975,0,0,0,.975.975H63.576A13.339,13.339,0,1,0,75.2,51.113ZM37.28,10.939H59.559v5.815H37.28Zm-11.445,58.1V14.824H35.33V17.73a.975.975,0,0,0,.975.975H60.534a.975.975,0,0,0,.975-.975V14.824H71V51.791a13.4,13.4,0,0,0-6.629,4.878H53.858a.975.975,0,1,0,0,1.95h9.348a13.229,13.229,0,0,0-1.054,3.06H53.858a.975.975,0,1,0,0,1.95h8.029c-.017.273-.026.548-.026.825a13.28,13.28,0,0,0,.813,4.587H25.835Zm49.365,6.8a11.39,11.39,0,1,1,11.39-11.39A11.4,11.4,0,0,1,75.2,75.844Zm7.425-16.928a.975.975,0,0,1,0,1.379l-9.692,9.692a.975.975,0,0,1-1.379,0l-3.778-3.774a.975.975,0,0,1,1.378-1.38l3.089,3.085,9-9A.975.975,0,0,1,82.625,58.916ZM36.112,27.343a.975.975,0,0,1,.975-.975h5.807a.975.975,0,1,1,0,1.95H37.087A.975.975,0,0,1,36.112,27.343Z" transform="translate(5080.402 4445.61)" fill="#c26685"/>
  </g>
</svg>
