<svg xmlns="http://www.w3.org/2000/svg" width="119" height="119" viewBox="0 0 119 119">
  <g id="Group_1130" data-name="Group 1130" transform="translate(-20536 -4249.151)">
    <g id="Group_870" data-name="Group 870" transform="translate(20536.424 4249.441)">
      <circle id="Ellipse_101" data-name="Ellipse 101" cx="59.5" cy="59.5" r="59.5" transform="translate(118.577 -0.29) rotate(90)" fill="#e0b2c2"/>
    </g>
    <path id="expert_12066320" d="M85.041,39.025l-5.334-2.053a31.691,31.691,0,0,0-3.365-8.116l2.321-5.227a1.225,1.225,0,0,0-.254-1.364l-6.849-6.849a1.225,1.225,0,0,0-1.364-.254l-5.229,2.322a31.7,31.7,0,0,0-8.114-3.364L54.8,8.785A1.226,1.226,0,0,0,53.657,8H43.972a1.225,1.225,0,0,0-1.144.785l-2.054,5.335a31.706,31.706,0,0,0-8.114,3.364l-5.229-2.322a1.225,1.225,0,0,0-1.364.254l-6.849,6.849a1.225,1.225,0,0,0-.253,1.364l2.322,5.228a31.7,31.7,0,0,0-3.364,8.115l-5.335,2.054a1.225,1.225,0,0,0-.785,1.144v9.686A1.225,1.225,0,0,0,12.588,51l5.334,2.053a31.834,31.834,0,0,0,1.43,4.244A13.838,13.838,0,1,0,37.512,74.863a31.814,31.814,0,0,0,3.262,1.04l2.054,5.336a1.225,1.225,0,0,0,1.144.785h9.686a1.225,1.225,0,0,0,1.144-.785L56.854,75.9A31.7,31.7,0,0,0,64.97,72.54L70.2,74.861a1.225,1.225,0,0,0,1.364-.253l6.849-6.849a1.225,1.225,0,0,0,.253-1.364l-2.322-5.228a31.709,31.709,0,0,0,3.364-8.114L85.04,51a1.225,1.225,0,0,0,.785-1.144V40.169a1.225,1.225,0,0,0-.785-1.144ZM24.5,81.526A11.387,11.387,0,1,1,35.892,70.139,11.4,11.4,0,0,1,24.5,81.526Zm6.334-23.688a22.08,22.08,0,1,1,5.75,5.564,13.935,13.935,0,0,0-5.75-5.564Zm52.537-8.824-5.145,1.98a1.225,1.225,0,0,0-.752.86,29.276,29.276,0,0,1-3.559,8.584,1.226,1.226,0,0,0-.076,1.14l2.239,5.042L70.423,72.28l-5.041-2.239a1.225,1.225,0,0,0-1.14.077,29.264,29.264,0,0,1-8.586,3.559,1.225,1.225,0,0,0-.86.752l-1.98,5.144h-8l-1.981-5.145a1.226,1.226,0,0,0-.86-.752,29.328,29.328,0,0,1-3.829-1.2,13.883,13.883,0,0,0-.152-5.445A24.507,24.507,0,1,0,27.158,56.557a13.889,13.889,0,0,0-5.445.027,29.373,29.373,0,0,1-1.564-4.73,1.225,1.225,0,0,0-.752-.86l-5.144-1.98v-8L19.4,39.03a1.225,1.225,0,0,0,.752-.86,29.267,29.267,0,0,1,3.559-8.585,1.226,1.226,0,0,0,.077-1.14L21.546,23.4l5.659-5.659,5.043,2.239a1.226,1.226,0,0,0,1.14-.077,29.276,29.276,0,0,1,8.584-3.559,1.225,1.225,0,0,0,.86-.752l1.981-5.145h8L54.8,15.6a1.226,1.226,0,0,0,.86.752,29.272,29.272,0,0,1,8.584,3.559,1.226,1.226,0,0,0,1.14.077l5.043-2.239L76.082,23.4l-2.239,5.041a1.226,1.226,0,0,0,.077,1.14,29.27,29.27,0,0,1,3.559,8.586,1.225,1.225,0,0,0,.752.86l5.144,1.98v8Zm-57.2,12.974A1.609,1.609,0,0,0,24.687,60.9h-.042a1.608,1.608,0,0,0-1.5,1.008l-1.817,4.45-4.8.115a1.622,1.622,0,0,0-1.008,2.858l3.67,3.1-1.376,4.605a1.621,1.621,0,0,0,2.407,1.842L24.3,76.354l3.955,2.732a1.621,1.621,0,0,0,2.5-1.72L29.609,72.7l3.82-2.917a1.621,1.621,0,0,0-.865-2.9l-4.794-.353Zm1.513,9.092a1.621,1.621,0,0,0-.59,1.674l.754,3.073-2.6-1.8a1.621,1.621,0,0,0-1.775-.044l-2.69,1.667.906-3.032a1.621,1.621,0,0,0-.507-1.7l-2.416-2.043,3.163-.076a1.62,1.62,0,0,0,1.462-1.008l1.2-2.929,1.05,2.985a1.621,1.621,0,0,0,1.41,1.079l3.156.232ZM64.6,58.491a1.224,1.224,0,0,0,.307-.949A16.137,16.137,0,0,0,53.911,43.913a8.789,8.789,0,1,0-10.193,0,16.136,16.136,0,0,0-11,13.629A1.225,1.225,0,0,0,33.941,58.9H63.687a1.226,1.226,0,0,0,.912-.406ZM51.091,52.169,48.814,54.74l-2.277-2.571,2.1-6.617c.057,0,.114,0,.172,0s.115,0,.172,0Zm-8.615-15.41A6.338,6.338,0,1,1,48.814,43.1a6.345,6.345,0,0,1-6.338-6.338Zm3.5,9.083-1.987,6.247a1.226,1.226,0,0,0,.25,1.184l2.811,3.174H35.373A13.691,13.691,0,0,1,45.978,45.843Zm4.6,10.6,2.811-3.174a1.226,1.226,0,0,0,.25-1.184l-1.987-6.247a13.691,13.691,0,0,1,10.605,10.6Z" transform="translate(20547.254 4261.15)" fill="#c26685"/>
  </g>
</svg>
