<svg xmlns="http://www.w3.org/2000/svg" width="119" height="119" viewBox="0 0 119 119">
  <g id="Group_1123" data-name="Group 1123" transform="translate(-18095.578 -4142.479)">
    <g id="Group_870" data-name="Group 870" transform="translate(18096.002 4142.769)">
      <circle id="Ellipse_101" data-name="Ellipse 101" cx="59.5" cy="59.5" r="59.5" transform="translate(118.577 -0.29) rotate(90)" fill="#e0b2c2"/>
    </g>
    <g id="search_10228137" transform="translate(18122.078 4165.103)">
      <g id="Group_879" data-name="Group 879">
        <g id="Group_878" data-name="Group 878">
          <path id="Path_1557" data-name="Path 1557" d="M48.3,56.7v-26" fill="none" stroke="#c26685" stroke-linecap="round" stroke-linejoin="round" stroke-miterlimit="10" stroke-width="2"/>
          <path id="Path_1558" data-name="Path 1558" d="M32.9,8.6H7a4.012,4.012,0,0,0-4,4V58.4a4.012,4.012,0,0,0,4,4H46.2" fill="none" stroke="#c26685" stroke-linecap="round" stroke-linejoin="round" stroke-miterlimit="10" stroke-width="2"/>
          <path id="Path_1559" data-name="Path 1559" d="M30.8,14.4H7.5v7.9H32.8" fill="none" stroke="#c26685" stroke-linecap="round" stroke-linejoin="round" stroke-miterlimit="10" stroke-width="2"/>
          <path id="Path_1560" data-name="Path 1560" d="M43.8,57.2H7.5" fill="none" stroke="#c26685" stroke-linecap="round" stroke-linejoin="round" stroke-miterlimit="10" stroke-width="2"/>
          <path id="Path_1561" data-name="Path 1561" d="M43.8,52.6H7.5" fill="none" stroke="#c26685" stroke-linecap="round" stroke-linejoin="round" stroke-miterlimit="10" stroke-width="2"/>
          <g id="Group_877" data-name="Group 877">
            <path id="Path_1562" data-name="Path 1562" d="M32.7,38.2v2h-4v-2m5.8-7.9H16.8a2.906,2.906,0,0,0-2.8,3V43.6a2.908,2.908,0,0,0,2.8,3H34.6a2.974,2.974,0,0,0,2.8-3V33.3a2.99,2.99,0,0,0-2.9-3Zm-1.8,9.9h-4V36.7h4Z" fill="none" stroke="#c26685" stroke-linecap="round" stroke-linejoin="round" stroke-miterlimit="10" stroke-width="2"/>
            <path id="Path_1563" data-name="Path 1563" d="M18.6,36.7h4v3.5h-4Z" fill="none" stroke="#c26685" stroke-linecap="round" stroke-linejoin="round" stroke-miterlimit="10" stroke-width="2"/>
            <path id="Path_1564" data-name="Path 1564" d="M32.7,38.2V36.7h-4v1.5" fill="none" stroke="#c26685" stroke-linecap="round" stroke-linejoin="round" stroke-miterlimit="10" stroke-width="2"/>
            <path id="Path_1565" data-name="Path 1565" d="M20.6,30.3V28.8a1.666,1.666,0,0,1,1.6-1.7h7a1.666,1.666,0,0,1,1.6,1.7v1.5" fill="none" stroke="#c26685" stroke-linecap="round" stroke-linejoin="round" stroke-miterlimit="10" stroke-width="2"/>
            <path id="Path_1566" data-name="Path 1566" d="M18.6,38.2H13.9" fill="none" stroke="#c26685" stroke-linecap="round" stroke-linejoin="round" stroke-miterlimit="10" stroke-width="2"/>
            <path id="Path_1567" data-name="Path 1567" d="M37.3,38.2H32.7" fill="none" stroke="#c26685" stroke-linecap="round" stroke-linejoin="round" stroke-miterlimit="10" stroke-width="2"/>
            <path id="Path_1568" data-name="Path 1568" d="M28.7,38.2H22.6" fill="none" stroke="#c26685" stroke-linecap="round" stroke-linejoin="round" stroke-miterlimit="10" stroke-width="2"/>
          </g>
          <path id="Path_1569" data-name="Path 1569" d="M55.8,33.3h3.8v6.4" fill="none" stroke="#c26685" stroke-linecap="round" stroke-linejoin="round" stroke-miterlimit="10" stroke-width="2"/>
          <path id="Path_1570" data-name="Path 1570" d="M59.6,47.5v9.2a5.7,5.7,0,0,1-11.4,0V33.3h2.2" fill="none" stroke="#c26685" stroke-linecap="round" stroke-linejoin="round" stroke-miterlimit="10" stroke-width="2"/>
        </g>
        <path id="Path_1571" data-name="Path 1571" d="M46.2,62.3h7.7" fill="none" stroke="#c26685" stroke-linecap="round" stroke-linejoin="round" stroke-miterlimit="10" stroke-width="2"/>
      </g>
      <g id="Group_880" data-name="Group 880">
        <path id="Path_1572" data-name="Path 1572" d="M49.4,5.7a11.633,11.633,0,0,1,3.5,3.8,16.289,16.289,0,0,1,1.4,3.4,11.707,11.707,0,0,1-2.2,9.9,11.38,11.38,0,0,1-1.9,1.9c-.5.4-1,.7-1.5,1.1a11.642,11.642,0,0,1-4.3,1.5,12.021,12.021,0,0,1-12.1-5.7A11.8,11.8,0,0,1,36.5,5.3a12.224,12.224,0,0,1,12.9.4Z" fill="none" stroke="#c26685" stroke-linecap="round" stroke-linejoin="round" stroke-miterlimit="10" stroke-width="2"/>
        <path id="Path_1573" data-name="Path 1573" d="M52.1,22.8,54.6,27l-.2.1-1.7,1-3.9,2.3-1.9,1.1-2.5-4.2" fill="none" stroke="#c26685" stroke-linecap="round" stroke-linejoin="round" stroke-miterlimit="10" stroke-width="2"/>
        <path id="Path_1574" data-name="Path 1574" d="M52.7,28.1,63,45.5l-3.9,2.3L48.8,30.4" fill="none" stroke="#c26685" stroke-linecap="round" stroke-linejoin="round" stroke-miterlimit="10" stroke-width="2"/>
      </g>
    </g>
  </g>
</svg>
