<svg xmlns="http://www.w3.org/2000/svg" width="119" height="119" viewBox="0 0 119 119">
  <g id="not_selected_2" data-name="not selected 2" transform="translate(196.5 -4659.929)">
    <g id="Group_671" data-name="Group 671" transform="translate(-196.342 4660.219)">
      <circle id="Ellipse_100" data-name="Ellipse 100" cx="59.5" cy="59.5" r="59.5" transform="translate(118.842 -0.29) rotate(90)" fill="#e0b2c2"/>
    </g>
    <g id="Group_676" data-name="Group 676" transform="translate(-165.5 4688.285)">
      <path id="Path_848" data-name="Path 848" d="M20.72,16.619l.888,1.776A10.986,10.986,0,0,1,36.3,23.363l1.776-.888A12.975,12.975,0,0,0,20.72,16.619Z" transform="translate(6.07 4.303)" fill="#c26685"/>
      <path id="Path_849" data-name="Path 849" d="M48.638,42.385A18.171,18.171,0,0,0,23.595,17.514V11.63h.57A3.272,3.272,0,0,0,27.4,7.894a3.387,3.387,0,0,0-3.405-2.8h-.4v-3.6A1,1,0,0,0,22.6.5H5.336a1,1,0,0,0-.994.994V5.085h-.4a3.377,3.377,0,0,0-3.405,2.8,3.256,3.256,0,0,0,3.233,3.75h.57V53.157a9.62,9.62,0,1,0,19.24,0V48.586a18.094,18.094,0,0,0,18.789.066l12.84,12.84a4.422,4.422,0,1,0,6.254-6.254ZM6.33,2.488H21.607v2.6H6.33ZM2.8,9.192a1.261,1.261,0,0,1-.3-1.034A1.419,1.419,0,0,1,3.944,7.072H23.992a1.419,1.419,0,0,1,1.444,1.087A1.284,1.284,0,0,1,24.165,9.63H3.772A1.233,1.233,0,0,1,2.8,9.192Zm18.8,2.438v7.261a16.273,16.273,0,0,0-1.431,1.285A18.1,18.1,0,0,0,16.108,26.4H6.33v-3.22h4V21.2h-4v-3.22h6.691V15.99H6.33V11.63Zm0,41.527A7.627,7.627,0,0,1,6.462,54.443h3.882V52.455H6.33v-3.22h6.691V47.248H6.33v-3.22h4V42.04h-4V38.82h6.691V36.833H6.33v-3.22h4V31.625h-4V28.392h9.13a18.074,18.074,0,0,0,4.7,17.517,18.42,18.42,0,0,0,1.431,1.285v5.963ZM21.581,44.5a16.219,16.219,0,1,1,11.462,4.744A16.1,16.1,0,0,1,21.581,44.5ZM60.073,60.074a2.431,2.431,0,0,1-3.445,0L44.053,47.5A15.928,15.928,0,0,0,47.5,44.054L60.073,56.629a2.431,2.431,0,0,1,0,3.445Z" transform="translate(-0.502 -0.5)" fill="#c26685"/>
    </g>
  </g>
</svg>
