<svg xmlns="http://www.w3.org/2000/svg" width="119" height="119" viewBox="0 0 119 119">
  <g id="not_selected_2" data-name="not selected 2" transform="translate(-6780.622 -4403.309)">
    <g id="Group_802" data-name="Group 802" transform="translate(6780.779 4403.599)">
      <circle id="Ellipse_100" data-name="Ellipse 100" cx="59.5" cy="59.5" r="59.5" transform="translate(118.842 -0.29) rotate(90)" fill="#e0b2c2"/>
    </g>
    <g id="rafting_2902875" transform="translate(6808.119 4425.34)">
      <path id="Path_1701" data-name="Path 1701" d="M16.232,61.739H37.959v3.906H51.973V26.49a24.878,24.878,0,0,0-49.723,0V65.645H16.232Zm0-3.282V51.368h7.155V48.086H16.232V40.668h7.155V37.386H16.232V29.345H37.959v8.041H30.968v3.282H38.09v7.417H30.968v3.282H38.09v7.089Zm0-32.394a10.831,10.831,0,0,1,21.662,0Zm24.976,36.3V56.619h7.483v5.645ZM5.532,26.49a21.6,21.6,0,0,1,43.159,0V53.337h-7.45V26.063a14.113,14.113,0,0,0-28.226,0V53.337H5.532Zm7.417,35.873H5.532V56.619h7.417v5.645Z" transform="translate(0 0.605)" fill="#c26685" stroke="#e0b2c2" stroke-width="1"/>
      <path id="Path_1702" data-name="Path 1702" d="M29.007,55.682l-3.577-4.2V17.019l3.577-4.2V2.25H18.57V12.818l3.577,4.2V51.481l-3.577,4.2V66.25H29.007ZM21.852,11.6V5.532h3.873V11.6l-1.936,2.265Zm3.873,51.364H21.852V56.9l1.936-2.265L25.725,56.9Z" transform="translate(37.243 0)" fill="#c26685" stroke="#e0b2c2" stroke-width="1"/>
    </g>
  </g>
</svg>
