<svg xmlns="http://www.w3.org/2000/svg" width="119" height="119" viewBox="0 0 119 119">
  <g id="Group_1111" data-name="Group 1111" transform="translate(-15893 -4213.264)">
    <g id="Group_858" data-name="Group 858" transform="translate(15893.158 4213.554)">
      <circle id="Ellipse_100" data-name="Ellipse 100" cx="59.5" cy="59.5" r="59.5" transform="translate(118.842 -0.29) rotate(90)" fill="#e0b2c2"/>
    </g>
    <g id="Voting_Analysis" transform="translate(15919.322 4232.919)">
      <path id="Path_1608" data-name="Path 1608" d="M11.539,70.217c.16.03,45.348.039,46.111.027h.185A.718.718,0,0,0,58,70.211a6.131,6.131,0,0,0,5.414-5.23.75.75,0,0,0-.715-.976H54.776V37.672a.75.75,0,0,0-1.5,0V64.006h-35.8a1.732,1.732,0,0,0-1.695,1.319,4.237,4.237,0,0,1-3.969,3.419,4.382,4.382,0,0,1-4.115-4.64c0-.171-.016-55.174-.016-55.344A2.27,2.27,0,0,1,9.945,6.494H36.652a.75.75,0,0,0,0-1.5H9.945A3.772,3.772,0,0,0,6.177,8.761V64.105c0,.017.009.031.01.047a5.894,5.894,0,0,0,5.352,6.065Zm5.7-4.539c.08-.334-2.392-.1,44.506-.173a4.51,4.51,0,0,1-4.083,3.239H15.482a6.219,6.219,0,0,0,1.753-3.066Z" fill="#c26685"/>
      <path id="Path_1609" data-name="Path 1609" d="M37.678,27.962a14.219,14.219,0,0,0,15.788,4.81l9.846,15.062C64.354,49.326,66.3,49.985,67.7,49a3.263,3.263,0,0,0,.4-4.537L58.427,29.877A14.447,14.447,0,0,0,60.293,10.3,14.232,14.232,0,0,0,40.227,7.79a14.455,14.455,0,0,0-2.548,20.172Zm19.576,2.859,1.431,2.162a4.764,4.764,0,0,1-2.253,1.583L54.888,32.2a14.394,14.394,0,0,0,2.366-1.384Zm9.621,14.5a1.787,1.787,0,0,1-.081,2.485c-.7.443-1.719-.064-2.238-.807l-7.282-11.14A6.268,6.268,0,0,0,59.556,34.3c.571.872,5.488,8.264,7.319,11.017ZM41.15,8.971a12.732,12.732,0,0,1,17.955,2.242A12.952,12.952,0,0,1,56.82,29.287a12.732,12.732,0,0,1-17.955-2.242A12.951,12.951,0,0,1,41.15,8.971Z" fill="#c26685"/>
      <path id="Path_1610" data-name="Path 1610" d="M52.11,17.109h6.126a.75.75,0,0,0,.72-.961,10.282,10.282,0,0,0-5.794-6.563.75.75,0,0,0-1.042.6l-.754,6.086a.75.75,0,0,0,.744.842Zm1.368-5.689a8.774,8.774,0,0,1,3.695,4.189H52.959Z" fill="#c26685"/>
      <path id="Path_1611" data-name="Path 1611" d="M48.985,29.551A10.433,10.433,0,0,0,59.406,19.129a.75.75,0,0,0-.75-.75H49.834l1.083-8.755a.75.75,0,0,0-.652-.836,10.421,10.421,0,1,0-1.279,20.763Zm.347-19.335-1.091,8.822a.75.75,0,0,0,.744.842h8.89a8.921,8.921,0,1,1-8.543-9.664Z" fill="#c26685"/>
      <path id="Path_1612" data-name="Path 1612" d="M12.957,16.32h13.4a.75.75,0,1,0,0-1.5h-13.4a.75.75,0,1,0,0,1.5Z" fill="#c26685"/>
      <path id="Path_1613" data-name="Path 1613" d="M12.957,22.077H29.733a.75.75,0,0,0,0-1.5H12.957a.75.75,0,1,0,0,1.5Z" fill="#c26685"/>
      <path id="Path_1614" data-name="Path 1614" d="M33.516,27.085a.75.75,0,0,0-.75-.75H12.957a.75.75,0,0,0,0,1.5H32.766A.75.75,0,0,0,33.516,27.085Z" fill="#c26685"/>
      <path id="Path_1615" data-name="Path 1615" d="M11.014,59.55c1-1.86.963-1.767,1.029-1.928.1-.258,0-.488-.281-.488H10.376a.283.283,0,0,0-.212.482c.125.116.277.051,1.139.07l-.912,1.657c-.242.442.424.591.622.206Z" fill="#c26685"/>
      <path id="Path_1616" data-name="Path 1616" d="M12.763,59.1c-.331-.172-.56.332-.221.508a1.312,1.312,0,0,0,1.633-.252.877.877,0,0,0-.275-1.2.941.941,0,0,0-.748-.052.544.544,0,0,0-.077.052v-.474h.807a.274.274,0,1,0,0-.549H12.726a.26.26,0,0,0-.287.287v1.112c0,.209.2.333.512.162.282-.192.7-.129.7.21,0,.387-.542.362-.891.192Z" fill="#c26685"/>
      <path id="Path_1617" data-name="Path 1617" d="M15.734,59.664c1.332-2.333,1.345-2.258,1.324-2.384a.237.237,0,0,0-.447-.076l-1.289,2.221a.238.238,0,1,0,.412.239Z" fill="#c26685"/>
      <path id="Path_1618" data-name="Path 1618" d="M15.892,57.882c0-.457-.237-.788-.693-.788a.693.693,0,0,0-.7.788A.7.7,0,1,0,15.892,57.882Zm-.693-.387c.159,0,.173.228.173.387s-.015.394-.173.394-.177-.227-.177-.394S15.037,57.495,15.2,57.495Z" fill="#c26685"/>
      <path id="Path_1619" data-name="Path 1619" d="M17.84,58.975a.7.7,0,0,0-.7-.792c-.768,0-.836.981-.51,1.37a.7.7,0,0,0,1.206-.578Zm-.7-.387c.163,0,.177.224.177.387s-.016.394-.177.394-.173-.23-.173-.394S16.983,58.588,17.144,58.588Z" fill="#c26685"/>
      <path id="Path_1620" data-name="Path 1620" d="M22.7,58.911c-.142.359-.574.359-.882.216-.331-.147-.511.35-.218.5a1.174,1.174,0,0,0,1.712-.641,2.066,2.066,0,0,0-.044-1.287.952.952,0,0,0-1.841.3.743.743,0,0,0,1.269.611.6.6,0,0,0,.064-.145v.068a1.031,1.031,0,0,1-.061.381Zm-.654-.945a.319.319,0,1,1,.634,0A.319.319,0,1,1,22.045,57.966Z" fill="#c26685"/>
      <path id="Path_1621" data-name="Path 1621" d="M23.761,57.692a2.143,2.143,0,0,0,.141,1.727.929.929,0,0,0,1.611-.267,2.127,2.127,0,0,0-.14-1.72.945.945,0,0,0-1.612.259Zm1.14.122a2.19,2.19,0,0,1,0,1.226.275.275,0,0,1-.527,0,2.189,2.189,0,0,1,0-1.226A.28.28,0,0,1,24.9,57.813Z" fill="#c26685"/>
      <path id="Path_1622" data-name="Path 1622" d="M27.237,57.882c0-.457-.237-.788-.693-.788a.693.693,0,0,0-.7.788A.7.7,0,1,0,27.237,57.882Zm-.79-.352a.138.138,0,0,1,.1-.035c.214,0,.186.477.153.617-.048.21-.222.2-.285.078S26.338,57.627,26.448,57.53Z" fill="#c26685"/>
      <path id="Path_1623" data-name="Path 1623" d="M27.079,59.664c1.335-2.338,1.345-2.259,1.324-2.384a.237.237,0,0,0-.447-.076l-1.289,2.221a.238.238,0,1,0,.412.239Z" fill="#c26685"/>
      <path id="Path_1624" data-name="Path 1624" d="M29.185,58.975a.7.7,0,0,0-1.306-.423,1.034,1.034,0,0,0,.1,1,.7.7,0,0,0,1.206-.578Zm-.79-.352a.143.143,0,0,1,.224.05,1.076,1.076,0,0,1,.026.532c-.05.217-.225.2-.285.077S28.283,58.725,28.4,58.623Z" fill="#c26685"/>
      <path id="Path_1625" data-name="Path 1625" d="M33.876,59.77a.9.9,0,0,0,.53-1.637.7.7,0,0,0-.9.121.64.64,0,0,0-.066.148v-.068c0-.553.283-.754.737-.667.18.035.361.2.512,0a.309.309,0,0,0,.033-.305c-.056-.128-.308-.2-.416-.23-.794-.189-1.5.266-1.5,1.326,0,.758.325,1.314,1.068,1.314Zm.28-.872a.319.319,0,1,1-.634,0A.319.319,0,1,1,34.156,58.9Z" fill="#c26685"/>
      <path id="Path_1626" data-name="Path 1626" d="M35.441,57.245a1.849,1.849,0,0,0-.194,2.174.929.929,0,0,0,1.611-.267,2.077,2.077,0,0,0,.114-.733c0-.737-.259-1.326-.991-1.326a.936.936,0,0,0-.541.151Zm.891,1.174c0,.324-.026.814-.35.814s-.35-.489-.35-.814.024-.788.35-.788S36.332,58.093,36.332,58.419Z" fill="#c26685"/>
      <path id="Path_1627" data-name="Path 1627" d="M38.3,59.776c.135-.051.092-.092,1.407-2.336A.236.236,0,1,0,39.3,57.2c-1.313,2.3-1.346,2.24-1.326,2.383a.244.244,0,0,0,.328.19Z" fill="#c26685"/>
      <path id="Path_1628" data-name="Path 1628" d="M40.447,59.393a1.011,1.011,0,0,0-.1-.992.728.728,0,1,0,.1.992Zm-.613-.8a.143.143,0,0,1,.131.084.881.881,0,0,1-.033.658.14.14,0,0,1-.226-.048.743.743,0,0,1-.044-.307C39.661,58.812,39.671,58.588,39.834,58.588Z" fill="#c26685"/>
      <path id="Path_1629" data-name="Path 1629" d="M38.262,58.581a.939.939,0,0,0,.138-1.272.7.7,0,0,0-1.206.573.876.876,0,0,0,.183.58.717.717,0,0,0,.886.12Zm-.47-1.051a.142.142,0,0,1,.224.05c.067.124.1.7-.127.7-.167,0-.177-.227-.177-.394C37.713,57.783,37.718,57.6,37.792,57.53Z" fill="#c26685"/>
      <path id="Path_1630" data-name="Path 1630" d="M44.042,59.55c.93-1.795,1.064-1.841,1.064-2.132a.283.283,0,0,0-.316-.283c-1.319.02-1.467-.051-1.6.07a.283.283,0,0,0,.212.482h.927l-.912,1.657c-.249.454.433.572.622.206Z" fill="#c26685"/>
      <path id="Path_1631" data-name="Path 1631" d="M45.445,57.692a2.143,2.143,0,0,0,.141,1.727.854.854,0,0,0,.735.351c1.17,0,1.155-1.779.736-2.338a.945.945,0,0,0-1.613.259Zm1.14.122a1.527,1.527,0,0,1,.086.606c0,.324-.026.814-.35.814a.28.28,0,0,1-.263-.193,2.19,2.19,0,0,1,0-1.226.28.28,0,0,1,.527,0Z" fill="#c26685"/>
      <path id="Path_1632" data-name="Path 1632" d="M48.641,59.776c.135-.051.084-.079,1.407-2.336a.236.236,0,1,0-.409-.236L48.35,59.424a.24.24,0,0,0,.291.352Z" fill="#c26685"/>
      <path id="Path_1633" data-name="Path 1633" d="M48.6,58.581a.942.942,0,0,0,.138-1.272.7.7,0,0,0-1.206.573.875.875,0,0,0,.183.58.717.717,0,0,0,.886.12Zm-.47-1.051a.142.142,0,0,1,.224.05,1.076,1.076,0,0,1,.026.532c-.05.219-.226.194-.285.078S48.022,57.626,48.131,57.53Z" fill="#c26685"/>
      <path id="Path_1634" data-name="Path 1634" d="M50.786,59.393a1.011,1.011,0,0,0-.1-.992.728.728,0,1,0,.1.992Zm-.613-.8c.163,0,.177.224.177.387s-.015.394-.177.394S50,59.138,50,58.975,50.01,58.588,50.173,58.588Z" fill="#c26685"/>
      <path id="Path_1635" data-name="Path 1635" d="M17.542,53.457V42.808a.75.75,0,0,0-.75-.75H11.133a.75.75,0,0,0-.75.75V53.457a.75.75,0,0,0,.75.75h5.659A.75.75,0,0,0,17.542,53.457Zm-1.5-.75H11.883V43.558h4.159Z" fill="#c26685"/>
      <path id="Path_1636" data-name="Path 1636" d="M50.57,53.457V43.549a.75.75,0,0,0-.75-.75H44.162a.75.75,0,0,0-.75.75v9.908a.75.75,0,0,0,.75.75H49.82A.75.75,0,0,0,50.57,53.457Zm-1.5-.75H44.912V44.3H49.07Z" fill="#c26685"/>
      <path id="Path_1637" data-name="Path 1637" d="M40.231,53.457V46.379a.75.75,0,0,0-.75-.75H33.823a.75.75,0,0,0-.75.75v7.079a.75.75,0,0,0,.75.75h5.659A.75.75,0,0,0,40.231,53.457Zm-1.5-.75H34.573V47.129h4.159Z" fill="#c26685"/>
      <path id="Path_1638" data-name="Path 1638" d="M28.887,53.457V37.27a.75.75,0,0,0-.75-.75H22.478a.75.75,0,0,0-.75.75V53.457a.75.75,0,0,0,.75.75h5.659A.75.75,0,0,0,28.887,53.457Zm-1.5-.75H23.228V38.02h4.159Z" fill="#c26685"/>
    </g>
  </g>
</svg>
