<svg xmlns="http://www.w3.org/2000/svg" width="119" height="119" viewBox="0 0 119 119">
  <g id="not_selected_2" data-name="not selected 2" transform="translate(-11744 -4466.569)">
    <g id="Group_832" data-name="Group 832" transform="translate(11744.158 4466.859)">
      <circle id="Ellipse_100" data-name="Ellipse 100" cx="59.5" cy="59.5" r="59.5" transform="translate(118.842 -0.29) rotate(90)" fill="#e0b2c2"/>
    </g>
    <g id="layer1" transform="translate(11768.162 4486.607)">
      <path id="path7579" d="M35.338.529a4.641,4.641,0,1,0,4.643,4.636A4.639,4.639,0,0,0,35.338.529Zm0,2.32a2.321,2.321,0,1,1-2.323,2.316A2.318,2.318,0,0,1,35.338,2.85Zm-7.8,4.641L12,14.658a1.16,1.16,0,1,0,.972,2.107L28.51,9.6a1.165,1.165,0,0,0-.41-2.218A1.127,1.127,0,0,0,27.535,7.49ZM57.7,16.766a1.16,1.16,0,1,0,.972-2.107L43.14,7.491A1.161,1.161,0,1,0,42.166,9.6Zm-25.408-3a2.711,2.711,0,0,0-1.378,1.525,3.636,3.636,0,0,1-.505,1.011,4.134,4.134,0,0,1-1.688,1.1,4.366,4.366,0,0,1-2,.462,3.339,3.339,0,0,1-1.07-.317,2.821,2.821,0,0,0-2-.111,6.514,6.514,0,0,0-2.389,1.731,6.506,6.506,0,0,0-1.7,2.407,2.794,2.794,0,0,0,.154,1.985,3.344,3.344,0,0,1,.335,1.063,4.329,4.329,0,0,1-.428,2,4.322,4.322,0,0,1-1.079,1.729,3.217,3.217,0,0,1-.977.514,2.751,2.751,0,0,0-1.5,1.294,6.213,6.213,0,0,0-.469,2.86,6.227,6.227,0,0,0,.469,2.86,2.757,2.757,0,0,0,1.5,1.294,3.137,3.137,0,0,1,.963.51,4.333,4.333,0,0,1,1.092,1.734,4.366,4.366,0,0,1,.428,1.972,3.068,3.068,0,0,1-.317,1.036,2.851,2.851,0,0,0-.206,1.9,4.337,4.337,0,0,0,.929,1.67,17.092,17.092,0,0,0-1.842,4.165,9.224,9.224,0,0,0-3.245-2.932,5.807,5.807,0,1,0-8.827,0,9.274,9.274,0,0,0-4.868,8.2v1.362a5.228,5.228,0,0,0,5.219,5.242h8.12a5.163,5.163,0,0,0,2.905-.884v4.374a4.663,4.663,0,0,0,1.5,3.655A5.146,5.146,0,0,0,23.827,70c.026,0,.052-.013.077-.018l11.426-3.075L46.8,69.991a5.1,5.1,0,0,0,4.437-.823,4.638,4.638,0,0,0,1.5-3.639V61.144a5.161,5.161,0,0,0,2.905.879h8.12a5.228,5.228,0,0,0,5.219-5.242V55.42a9.274,9.274,0,0,0-4.868-8.2,5.8,5.8,0,1,0-8.827,0,9.157,9.157,0,0,0-3.25,2.937,17.179,17.179,0,0,0-1.84-4.179,4.307,4.307,0,0,0,.931-1.661,2.852,2.852,0,0,0-.206-1.9,3.06,3.06,0,0,1-.317-1.036,4.327,4.327,0,0,1,.428-1.972,4.33,4.33,0,0,1,1.092-1.734,3.127,3.127,0,0,1,.963-.51,2.758,2.758,0,0,0,1.5-1.294,6.214,6.214,0,0,0,.469-2.86,6.233,6.233,0,0,0-.469-2.86,2.752,2.752,0,0,0-1.5-1.294,3.219,3.219,0,0,1-.977-.514,4.325,4.325,0,0,1-1.079-1.729,4.327,4.327,0,0,1-.428-2,3.38,3.38,0,0,1,.335-1.063,2.787,2.787,0,0,0,.154-1.985,6.5,6.5,0,0,0-1.7-2.407,6.517,6.517,0,0,0-2.389-1.731,2.821,2.821,0,0,0-2,.111,3.349,3.349,0,0,1-1.07.317,4.4,4.4,0,0,1-2-.462,4.13,4.13,0,0,1-1.688-1.1,3.629,3.629,0,0,1-.505-1.011,2.711,2.711,0,0,0-1.378-1.525,6.844,6.844,0,0,0-3.041-.478,6.842,6.842,0,0,0-3.041.478ZM5.17,14.45a4.641,4.641,0,1,0,4.643,4.637A4.637,4.637,0,0,0,5.17,14.45Zm60.334,0a4.641,4.641,0,1,0,4.641,4.637A4.639,4.639,0,0,0,65.5,14.45Zm-28.137,1.4c.16.077.175.2.249.342a5.453,5.453,0,0,0,.848,1.575,6.442,6.442,0,0,0,2.577,1.774,6.725,6.725,0,0,0,3.066.641,5.473,5.473,0,0,0,1.756-.471c.194-.075.292-.119.419-.077a4.5,4.5,0,0,1,1.466,1.158,4.681,4.681,0,0,1,1.131,1.473.637.637,0,0,1-.086.41,5.537,5.537,0,0,0-.5,1.738,6.672,6.672,0,0,0,.589,3.075A6.644,6.644,0,0,0,50.6,30.1a5.351,5.351,0,0,0,1.586.9c.184.078.271.085.342.222a4.22,4.22,0,0,1,.222,1.79,4.271,4.271,0,0,1-.222,1.79c-.071.137-.2.162-.342.222a5.352,5.352,0,0,0-1.586.9,6.644,6.644,0,0,0-1.713,2.613,6.7,6.7,0,0,0-.589,3.023,5.136,5.136,0,0,0,.487,1.747c.068.192.136.3.1.428a1.7,1.7,0,0,1-.1.245,17.447,17.447,0,0,0-6.443-4.868,9.284,9.284,0,1,0-14,0,17.438,17.438,0,0,0-6.443,4.868,1.789,1.789,0,0,1-.1-.245c-.035-.129.035-.237.1-.428a5.137,5.137,0,0,0,.487-1.747,6.7,6.7,0,0,0-.589-3.023,6.644,6.644,0,0,0-1.713-2.613,5.351,5.351,0,0,0-1.586-.9c-.143-.06-.271-.085-.342-.222a4.253,4.253,0,0,1-.222-1.79,4.253,4.253,0,0,1,.222-1.79c.071-.137.158-.144.342-.222a5.351,5.351,0,0,0,1.586-.9,6.644,6.644,0,0,0,1.713-2.613,6.672,6.672,0,0,0,.589-3.075,5.543,5.543,0,0,0-.5-1.738.638.638,0,0,1-.086-.41,4.679,4.679,0,0,1,1.131-1.473,4.493,4.493,0,0,1,1.466-1.158c.127-.044.225,0,.419.077a5.47,5.47,0,0,0,1.756.471,6.724,6.724,0,0,0,3.066-.641,6.442,6.442,0,0,0,2.577-1.774,5.453,5.453,0,0,0,.848-1.575c.074-.14.089-.265.25-.342a5.664,5.664,0,0,1,2.03-.24,5.665,5.665,0,0,1,2.03.24Zm-32.2.92A2.321,2.321,0,1,1,2.85,19.086,2.318,2.318,0,0,1,5.17,16.77Zm60.334,0a2.321,2.321,0,1,1-2.323,2.316A2.316,2.316,0,0,1,65.5,16.77ZM7.259,25.622a1.16,1.16,0,0,0-1.19,1.473l2.04,7.725a1.16,1.16,0,1,0,2.244-.589l-2.04-7.725a1.161,1.161,0,0,0-1.054-.884Zm56.156,0a1.158,1.158,0,0,0-1.054.884l-2.04,7.725a1.16,1.16,0,1,0,2.244.589l2.04-7.725a1.16,1.16,0,0,0-1.19-1.473Zm-28.078.433a6.963,6.963,0,1,1-6.964,6.962,6.969,6.969,0,0,1,6.964-6.962ZM10.971,39.975a3.481,3.481,0,1,1-3.485,3.483,3.479,3.479,0,0,1,3.485-3.483Zm48.732,0a3.481,3.481,0,1,1-3.476,3.483A3.486,3.486,0,0,1,59.7,39.975ZM27.217,59.068V55.05a1.161,1.161,0,0,0-2.321,0v4.614l-.29.075a1.162,1.162,0,1,0,.573,2.253l17.54-4.505a2.426,2.426,0,1,1,1.26,4.686l-20.6,5.55h-.009a2.8,2.8,0,0,1-2.441-.326,2.344,2.344,0,0,1-.675-1.883V55.063A15.06,15.06,0,0,1,30.313,40.825a9.287,9.287,0,0,0,10.041,0A15.026,15.026,0,0,1,50.421,55.063V65.528a2.32,2.32,0,0,1-.678,1.867,2.8,2.8,0,0,1-2.441.326L39.8,65.7l4.777-1.287a4.752,4.752,0,0,0,1.2-8.672v-.693a1.161,1.161,0,0,0-2.321.039,4.561,4.561,0,0,0-1.319.144ZM39.98,48.1a1.161,1.161,0,0,0,0,2.32h3.476a1.161,1.161,0,0,0,0-2.32Zm-31.257.7a5.816,5.816,0,0,0,2.248.456,5.98,5.98,0,0,0,2.253-.456,6.967,6.967,0,0,1,4.709,6.617v1.362A2.9,2.9,0,0,1,15.028,59.7H6.908a2.9,2.9,0,0,1-2.9-2.921V55.419A6.966,6.966,0,0,1,8.723,48.8Zm48.727,0a5.792,5.792,0,0,0,2.253.458,5.66,5.66,0,0,0,2.248-.458,6.966,6.966,0,0,1,4.714,6.617v1.362a2.9,2.9,0,0,1-2.9,2.921h-8.12a2.909,2.909,0,0,1-2.905-2.921V55.419A6.967,6.967,0,0,1,57.451,48.8Z" transform="translate(0 0)" fill="#c26685"/>
    </g>
  </g>
</svg>
