<svg xmlns="http://www.w3.org/2000/svg" width="119" height="119" viewBox="0 0 119 119">
  <g id="not_selected_3" data-name="not selected 3" transform="translate(-11895 -4466.569)">
    <g id="Group_829" data-name="Group 829" transform="translate(11895.423 4466.859)">
      <circle id="Ellipse_101" data-name="Ellipse 101" cx="59.5" cy="59.5" r="59.5" transform="translate(118.577 -0.29) rotate(90)" fill="#e0b2c2"/>
    </g>
    <path id="plan_11511818" d="M72.334,118.707h8.191a1.328,1.328,0,0,1,1.328,1.328v20.494a1.328,1.328,0,0,1-1.328,1.328H72.334a1.328,1.328,0,0,1-1.328-1.328V120.035A1.328,1.328,0,0,1,72.334,118.707Zm-25.327-9.6a1.328,1.328,0,1,1-2.656,0c0-1.225-2.995-2.148-4.752-.911a1.214,1.214,0,0,0-.609.911c0,1.022,1.449,1.268,2.9,1.514,2.559.435,5.118.87,5.118,4.129,0,2.155-1.938,3.614-4.008,4.021v1.106a1.328,1.328,0,1,1-2.656,0v-1.106c-2.07-.408-4.008-1.866-4.008-4.021a1.328,1.328,0,0,1,2.656,0c0,1.225,2.995,2.148,4.752.911a1.214,1.214,0,0,0,.609-.911c0-1.022-1.449-1.268-2.9-1.514-2.559-.435-5.118-.87-5.118-4.129,0-2.155,1.938-3.613,4.008-4.021v-1.106a1.328,1.328,0,1,1,2.656,0v1.106c2.07.408,4.008,1.866,4.008,4.021ZM18.7,99.385a1.322,1.322,0,0,1,1.317-2.293l1.818,1.049a1.322,1.322,0,0,1-1.317,2.293Zm8.134-9.1a1.325,1.325,0,0,1,2.293-1.328l1.049,1.818A1.325,1.325,0,1,1,27.882,92.1Zm23.555-1.328a1.325,1.325,0,0,1,2.293,1.328L51.631,92.1a1.325,1.325,0,1,1-2.293-1.328ZM38.429,86.461a1.328,1.328,0,0,1,2.656,0v2.1a1.328,1.328,0,0,1-2.656,0Zm6.981,48.9a2.525,2.525,0,0,0,2.514-2.514v-2.514H35.371v2.514a2.525,2.525,0,0,0,2.514,2.514Zm-8.8,2.5a5.171,5.171,0,0,0,10.074,0,5.186,5.186,0,0,0,3.9-5.01V129c0-7.028,7.58-9.094,7.58-18.989A16.488,16.488,0,0,0,41.671,93.529H38.887a1.328,1.328,0,0,0-1.328,1.328v3.17a14.528,14.528,0,0,0-2.809,1.167l-2.244-2.244a1.328,1.328,0,0,0-1.878,0l-3.938,3.938a1.328,1.328,0,0,0,0,1.878l2.243,2.243a14.825,14.825,0,0,0-1.163,2.809H24.6a1.328,1.328,0,0,0-1.328,1.328v5.569a1.328,1.328,0,0,0,1.328,1.328h3.17a14.534,14.534,0,0,0,1.167,2.809L26.69,121.1a1.328,1.328,0,0,0,0,1.878l3.938,3.938a1.328,1.328,0,0,0,1.878,0l2.243-2.243a14.826,14.826,0,0,0,2.809,1.163v1.845H34.043A1.328,1.328,0,0,0,32.715,129v3.842A5.186,5.186,0,0,0,36.61,137.856Zm3.6-10.179h7.778c.759-7.163,7.511-9.255,7.511-17.661A13.831,13.831,0,0,0,41.671,96.185H40.214v2.87h0a1.327,1.327,0,0,1-1.047,1.3,11.974,11.974,0,0,0-3.844,1.578A1.328,1.328,0,0,1,33.6,101.8l-2.031-2.031-2.06,2.061,2.03,2.03,0,0a1.326,1.326,0,0,1,.178,1.653,11.85,11.85,0,0,0-1.606,3.861,1.328,1.328,0,0,1-1.309,1.1H25.925v2.914H28.8a1.327,1.327,0,0,1,1.3,1.047,11.974,11.974,0,0,0,1.578,3.844A1.328,1.328,0,0,1,31.538,120l-2.031,2.031,2.06,2.06,2.03-2.03,0,0a1.326,1.326,0,0,1,1.653-.178,11.85,11.85,0,0,0,3.861,1.606,1.328,1.328,0,0,1,1.1,1.309v2.873Zm-.7,10.339h4.27A2.517,2.517,0,0,1,39.512,138.016Zm54.17-32.393,3.24-8.145a1.322,1.322,0,0,0-1.257-1.862H86.934a1.323,1.323,0,1,0,0,2.646h4.421L56.946,121.27a1.324,1.324,0,0,0,1.473,2.2L92.911,100.4l-1.688,4.243a1.323,1.323,0,1,0,2.459.975ZM88.314,112.9H93.85v26.3H88.314Zm-2.656,27.626V111.575a1.328,1.328,0,0,1,1.328-1.328h8.191a1.328,1.328,0,0,1,1.328,1.328v28.954a1.328,1.328,0,0,1-1.328,1.328H86.987A1.328,1.328,0,0,1,85.659,140.529ZM57.682,127.676h8.191A1.328,1.328,0,0,1,67.2,129v11.525a1.328,1.328,0,0,1-1.328,1.328H57.682a1.328,1.328,0,0,1-1.328-1.328V129a1.328,1.328,0,0,1,1.328-1.328Zm6.863,2.656H59.01V139.2h5.535Zm14.652-8.97H73.662V139.2H79.2Z" transform="translate(11890.713 4412.574)" fill="#c26685" fill-rule="evenodd"/>
  </g>
</svg>
