<svg xmlns="http://www.w3.org/2000/svg" width="119" height="119" viewBox="0 0 119 119">
  <g id="not_selected_1" data-name="not selected 1" transform="translate(-9498 -4352)">
    <g id="Group_1078" data-name="Group 1078">
      <g id="Group_1071" data-name="Group 1071">
        <g id="Group_1069" data-name="Group 1069" transform="translate(9498.158 4352.291)">
          <circle id="Ellipse_100" data-name="Ellipse 100" cx="59.5" cy="59.5" r="59.5" transform="translate(118.842 -0.29) rotate(90)" fill="#e0b2c2"/>
        </g>
        <g id="deadline_10078124" transform="translate(9516.366 4369.199)">
          <path id="Path_1668" data-name="Path 1668" d="M2.327,39.209c.051,0,.1.013.141.013A1.229,1.229,0,0,0,3.7,38.117,35.186,35.186,0,0,1,28.327,8.5l-.54.771a1.256,1.256,0,0,0,.321,1.735,1.206,1.206,0,0,0,.707.218,1.257,1.257,0,0,0,1.028-.54l2.429-3.5a1.254,1.254,0,0,0,.193-.977,1.229,1.229,0,0,0-.476-.707c-.039-.026-.064-.077-.1-.1L28.211,3.248a1.248,1.248,0,0,0-1.272,2.146l1.015.6A37.664,37.664,0,0,0,1.221,37.821a1.266,1.266,0,0,0,1.105,1.388Z" transform="translate(0.348 0.879)" fill="#c26685"/>
          <path id="Path_1669" data-name="Path 1669" d="M35.024,67.228A35.157,35.157,0,0,1,5.425,42.6l.771.54A1.248,1.248,0,1,0,7.61,41.086l-3.5-2.416a1.238,1.238,0,0,0-1.774.386c-.18.3-.013.013-.013.013L.168,42.731A1.252,1.252,0,0,0,.605,44.44a1.259,1.259,0,0,0,1.709-.45l.6-1.015a37.669,37.669,0,0,0,31.81,26.733c.051,0,.1.013.141.013a1.252,1.252,0,0,0,.154-2.493Z" transform="translate(0 10.968)" fill="#c26685"/>
          <path id="Path_1670" data-name="Path 1670" d="M65.526,35.892a1.226,1.226,0,0,0-1.375,1.092A35.205,35.205,0,0,1,39.525,66.6l.54-.771a1.256,1.256,0,0,0-.321-1.735,1.242,1.242,0,0,0-1.735.321l-2.429,3.5a1.186,1.186,0,0,0,.141,1.555,1.023,1.023,0,0,0,.218.193c.013.013.026.026.039.026l3.663,2.159a1.253,1.253,0,0,0,1.272-2.159l-1.015-.6A37.683,37.683,0,0,0,66.631,37.255a1.257,1.257,0,0,0-1.105-1.362Z" transform="translate(10.087 10.236)" fill="#c26685"/>
          <path id="Path_1671" data-name="Path 1671" d="M30.737,17.806a1.24,1.24,0,0,0,1.247-1.247V14.747a1.247,1.247,0,1,0-2.493,0v1.812A1.248,1.248,0,0,0,30.737,17.806Z" transform="translate(8.413 3.852)" fill="#c26685"/>
          <path id="Path_1672" data-name="Path 1672" d="M22.275,16.678a1.243,1.243,0,1,0-2.159,1.234l.913,1.568a1.25,1.25,0,0,0,1.08.617,1.205,1.205,0,0,0,.617-.167,1.256,1.256,0,0,0,.463-1.7Z" transform="translate(5.693 4.581)" fill="#c26685"/>
          <path id="Path_1673" data-name="Path 1673" d="M16.4,24.11,14.834,23.2A1.243,1.243,0,0,0,13.6,25.357l1.568.913a1.205,1.205,0,0,0,.617.167,1.234,1.234,0,0,0,1.08-.617A1.269,1.269,0,0,0,16.4,24.11Z" transform="translate(3.7 6.57)" fill="#c26685"/>
          <path id="Path_1674" data-name="Path 1674" d="M14.716,33.817a1.24,1.24,0,0,0-1.247-1.247H11.657a1.247,1.247,0,0,0,0,2.493h1.812A1.248,1.248,0,0,0,14.716,33.817Z" transform="translate(2.971 9.292)" fill="#c26685"/>
          <path id="Path_1675" data-name="Path 1675" d="M15.156,41.578l-1.568.913a1.236,1.236,0,0,0,.617,2.313,1.205,1.205,0,0,0,.617-.167l1.568-.913a1.256,1.256,0,0,0,.463-1.7A1.238,1.238,0,0,0,15.156,41.578Z" transform="translate(3.7 11.813)" fill="#c26685"/>
          <path id="Path_1676" data-name="Path 1676" d="M22.726,48.037a1.231,1.231,0,0,0-1.7.463l-.913,1.568a1.231,1.231,0,0,0,.463,1.7,1.205,1.205,0,0,0,.617.167,1.234,1.234,0,0,0,1.08-.617l.913-1.568A1.269,1.269,0,0,0,22.726,48.037Z" transform="translate(5.692 13.656)" fill="#c26685"/>
          <path id="Path_1677" data-name="Path 1677" d="M30.737,50.24a1.24,1.24,0,0,0-1.247,1.247V53.3a1.247,1.247,0,1,0,2.493,0V51.487A1.256,1.256,0,0,0,30.737,50.24Z" transform="translate(8.413 14.332)" fill="#c26685"/>
          <path id="Path_1678" data-name="Path 1678" d="M39.4,51.313a1.25,1.25,0,0,0,1.08.617,1.205,1.205,0,0,0,.617-.167,1.256,1.256,0,0,0,.463-1.7L40.644,48.5a1.256,1.256,0,0,0-1.7-.463,1.241,1.241,0,0,0-.45,1.7Z" transform="translate(10.934 13.658)" fill="#c26685"/>
          <path id="Path_1679" data-name="Path 1679" d="M45.408,43.734l1.568.913a1.205,1.205,0,0,0,.617.167A1.236,1.236,0,0,0,48.21,42.5l-1.568-.913a1.238,1.238,0,0,0-1.7.45A1.256,1.256,0,0,0,45.408,43.734Z" transform="translate(12.776 11.816)" fill="#c26685"/>
          <path id="Path_1680" data-name="Path 1680" d="M47.15,33.817A1.24,1.24,0,0,0,48.4,35.063h1.812a1.247,1.247,0,0,0,0-2.493H48.4A1.256,1.256,0,0,0,47.15,33.817Z" transform="translate(13.451 9.292)" fill="#c26685"/>
          <path id="Path_1681" data-name="Path 1681" d="M46.038,26.433a1.205,1.205,0,0,0,.617-.167l1.568-.913a1.241,1.241,0,1,0-1.247-2.146l-1.568.913a1.256,1.256,0,0,0-.463,1.7,1.27,1.27,0,0,0,1.092.617Z" transform="translate(12.776 6.573)" fill="#c26685"/>
          <path id="Path_1682" data-name="Path 1682" d="M38.938,19.942a1.205,1.205,0,0,0,.617.167,1.234,1.234,0,0,0,1.08-.617l.913-1.568a1.243,1.243,0,0,0-2.159-1.234l-.913,1.568A1.241,1.241,0,0,0,38.938,19.942Z" transform="translate(10.931 4.582)" fill="#c26685"/>
          <path id="Path_1683" data-name="Path 1683" d="M79.14,5.849l-2.686-.463a1.222,1.222,0,0,0-1.671-1.671L74.32,1.029a1.246,1.246,0,1,0-2.455.424l.758,4.331L71.081,7.327l-.45-2.6a1.246,1.246,0,0,0-2.455.424l.758,4.331-1.542,1.542-.45-2.6a1.246,1.246,0,1,0-2.455.424l.758,4.331-2.339,2.339A38.135,38.135,0,0,0,41.456,5.553a1.242,1.242,0,1,0-.283,2.468A35.391,35.391,0,0,1,61.12,17.275l-3.946,3.946a29.775,29.775,0,1,0,1.774,1.774l3.946-3.946a35.108,35.108,0,0,1,7.879,13.6l-.758-.527a1.233,1.233,0,0,0-1.735.321,1.256,1.256,0,0,0,.321,1.735l3.5,2.429a1.273,1.273,0,0,0,.707.218,1.919,1.919,0,0,0,.27-.026,1.284,1.284,0,0,0,.81-.578l2.159-3.663A1.248,1.248,0,1,0,73.9,31.284l-.6,1.028A37.634,37.634,0,0,0,64.668,17.3l2.326-2.326,4.331.758a1.246,1.246,0,0,0,.424-2.455l-2.6-.45L70.7,11.286l4.331.758a1.246,1.246,0,0,0,.424-2.455l-2.6-.45L74.4,7.6l4.331.758A1.28,1.28,0,0,0,80.168,7.34,1.294,1.294,0,0,0,79.14,5.849ZM64.3,43.108a27.357,27.357,0,1,1-8.92-20.1L40.467,37.916a6.132,6.132,0,0,0-3.419-1.041A6.221,6.221,0,1,0,43.268,43.1a6.132,6.132,0,0,0-1.041-3.419L57.136,24.768A27.127,27.127,0,0,1,64.3,43.108Zm-23.507,0a3.768,3.768,0,1,1-2.134-3.354l-2.468,2.468a1.25,1.25,0,0,0,1.774,1.761L40.441,41.5A4.237,4.237,0,0,1,40.788,43.108Z" transform="translate(2.089 0)" fill="#c26685"/>
        </g>
      </g>
    </g>
  </g>
</svg>
