<svg xmlns="http://www.w3.org/2000/svg" width="119" height="119" viewBox="0 0 119 119">
  <g id="not_selected_1" data-name="not selected 1" transform="translate(380.5 -4659.929)">
    <g id="Group_1018" data-name="Group 1018" transform="translate(-380.342 4660.219)">
      <circle id="Ellipse_100" data-name="Ellipse 100" cx="59.5" cy="59.5" r="59.5" transform="translate(118.842 -0.29) rotate(90)" fill="#e0b2c2"/>
    </g>
    <g id="Group_673" data-name="Group 673" transform="translate(-823.466 166.023)">
      <g id="Layer_1-2" transform="translate(470.343 4516.524)">
        <g id="LOG" transform="translate(0 0)">
          <g id="Base" transform="translate(0 0)">
            <g id="Group_323" data-name="Group 323">
              <rect id="Rectangle_300" data-name="Rectangle 300" width="19.263" height="2.762" rx="1.381" transform="translate(12.197 15.011)" fill="#c26685"/>
              <rect id="Rectangle_301" data-name="Rectangle 301" width="31.764" height="2.762" rx="1.381" transform="translate(12.029 20.274)" fill="#c26685"/>
              <rect id="Rectangle_302" data-name="Rectangle 302" width="31.764" height="2.762" rx="1.381" transform="translate(12.029 25.536)" fill="#c26685"/>
              <path id="Path_844" data-name="Path 844" d="M67.118,32.65l-4.892-5.038V15.468a1.683,1.683,0,0,0-.472-1.173L48.342.485A1.584,1.584,0,0,0,47.2,0H10.374a5.066,5.066,0,0,0-5.01,5.11v22.5L.472,32.65A1.678,1.678,0,0,0,0,33.822V58.681a1.633,1.633,0,0,0,1.609,1.657H5.364V64.5a5.067,5.067,0,0,0,5.01,5.11h46.84a5.067,5.067,0,0,0,5.01-5.11V60.338h3.755a1.633,1.633,0,0,0,1.609-1.657V33.822a1.682,1.682,0,0,0-.471-1.173Zm-4.892-2.694,2.146,2.21H62.226ZM47.2,1.657l13.41,13.811H47.2ZM6.973,5.11a3.426,3.426,0,0,1,3.4-3.453H45.6V15.468A1.634,1.634,0,0,0,47.2,17.125h13.41v15.04H6.973ZM5.364,29.955v2.21H3.218ZM60.615,64.5a3.428,3.428,0,0,1-3.4,3.453H10.374a3.427,3.427,0,0,1-3.4-3.453V60.338H60.615Zm5.364-5.814H1.609V33.822h64.37Z" transform="translate(0 0)" fill="#c26685"/>
            </g>
          </g>
          <g id="LOG-2" transform="translate(15.324 38.681)">
            <path id="Path_845" data-name="Path 845" d="M121.811,293.626h6.18v2.732H118.26V281.63h3.551v12Z" transform="translate(-118.26 -281.416)" fill="#c26685"/>
            <path id="Path_846" data-name="Path 846" d="M204.757,288.021a8.679,8.679,0,0,1-.8,3.813,5.907,5.907,0,0,1-2.27,2.554,6.324,6.324,0,0,1-3.353.895,6.419,6.419,0,0,1-3.338-.865,5.887,5.887,0,0,1-2.27-2.473,8.441,8.441,0,0,1-.855-3.692v-.83a8.728,8.728,0,0,1,.794-3.819,5.889,5.889,0,0,1,2.276-2.554,6.359,6.359,0,0,1,3.374-.9,6.265,6.265,0,0,1,3.338.891,6.006,6.006,0,0,1,2.282,2.534,8.479,8.479,0,0,1,.824,3.767v.678Zm-3.611-.617a6.193,6.193,0,0,0-.733-3.333,2.354,2.354,0,0,0-2.1-1.138q-2.67,0-2.822,4.005l-.01,1.083a6.369,6.369,0,0,0,.718,3.328,2.348,2.348,0,0,0,2.134,1.163,2.268,2.268,0,0,0,2.073-1.144,6.191,6.191,0,0,0,.739-3.287Z" transform="translate(-181.704 -280.14)" fill="#c26685"/>
            <path id="Path_847" data-name="Path 847" d="M308.73,293.2a5.711,5.711,0,0,1-2.4,1.467,10.364,10.364,0,0,1-3.46.557,6.164,6.164,0,0,1-4.622-1.771,7.159,7.159,0,0,1-1.851-4.926l-.01-1.275a8.766,8.766,0,0,1,.769-3.8,5.7,5.7,0,0,1,2.2-2.5,6.228,6.228,0,0,1,3.313-.876,6.52,6.52,0,0,1,4.273,1.26,5.335,5.335,0,0,1,1.775,3.758H305.3a2.79,2.79,0,0,0-.789-1.759,2.545,2.545,0,0,0-1.719-.526,2.317,2.317,0,0,0-2.063,1.132,6.044,6.044,0,0,0-.739,3.237v.891a5.92,5.92,0,0,0,.754,3.313,2.665,2.665,0,0,0,2.373,1.108,2.981,2.981,0,0,0,2.063-.617V289.59h-2.468v-2.438h6.019V293.2Z" transform="translate(-271.789 -280.08)" fill="#c26685"/>
          </g>
        </g>
      </g>
    </g>
  </g>
</svg>
