<svg xmlns="http://www.w3.org/2000/svg" width="119" height="119" viewBox="0 0 119 119">
  <g id="not_selected_4" data-name="not selected 4" transform="translate(-2779 -4489)">
    <g id="Group_792" data-name="Group 792" transform="translate(2779.423 4489.291)">
      <circle id="Ellipse_101" data-name="Ellipse 101" cx="59.5" cy="59.5" r="59.5" transform="translate(118.577 -0.29) rotate(90)" fill="#e0b2c2"/>
    </g>
    <g id="business_10216630" transform="translate(2807.375 4516.171)">
      <circle id="Ellipse_356" data-name="Ellipse 356" cx="14.042" cy="14.042" r="14.042" transform="matrix(0.346, -0.938, 0.938, 0.346, -1.95, 30.13)" fill="none" stroke="#c26685" stroke-linecap="round" stroke-linejoin="round" stroke-miterlimit="10" stroke-width="2"/>
      <circle id="Ellipse_357" data-name="Ellipse 357" cx="9.729" cy="9.729" r="9.729" transform="matrix(0.196, -0.981, 0.981, 0.196, 4.64, 29.429)" fill="none" stroke="#c26685" stroke-linecap="round" stroke-linejoin="round" stroke-miterlimit="10" stroke-width="2"/>
      <path id="Path_1684" data-name="Path 1684" d="M19.929,35.2s1.906,15.547,1.906,17.252a5.817,5.817,0,0,1-11.635,0c0-1.705,1.906-17.252,1.906-17.252" transform="translate(0.037 0.095)" fill="none" stroke="#c26685" stroke-linecap="round" stroke-linejoin="round" stroke-miterlimit="10" stroke-width="2"/>
      <path id="Path_1685" data-name="Path 1685" d="M12.6,21.811l2.006,2.006L20.123,18.3" transform="translate(0.044 0.044)" fill="none" stroke="#c26685" stroke-linecap="round" stroke-linejoin="round" stroke-miterlimit="10" stroke-width="2"/>
      <circle id="Ellipse_358" data-name="Ellipse 358" cx="7.523" cy="7.523" r="7.523" transform="translate(49.153 5.305)" fill="none" stroke="#c26685" stroke-linecap="round" stroke-linejoin="round" stroke-miterlimit="10" stroke-width="2"/>
      <path id="Path_1686" data-name="Path 1686" d="M53.4,13.108l1.906,1.805L59.619,10.6" transform="translate(0.167 0.021)" fill="none" stroke="#c26685" stroke-linecap="round" stroke-linejoin="round" stroke-miterlimit="10" stroke-width="2"/>
      <circle id="Ellipse_359" data-name="Ellipse 359" cx="7.523" cy="7.523" r="7.523" transform="translate(49.153 25.565)" fill="none" stroke="#c26685" stroke-linecap="round" stroke-linejoin="round" stroke-miterlimit="10" stroke-width="2"/>
      <g id="Group_883" data-name="Group 883" transform="translate(54.77 31.182)">
        <path id="Path_1687" data-name="Path 1687" d="M58.411,31.1,54.6,34.911" transform="translate(-54.6 -31.1)" fill="none" stroke="#c26685" stroke-linecap="round" stroke-linejoin="round" stroke-miterlimit="10" stroke-width="2"/>
        <path id="Path_1688" data-name="Path 1688" d="M58.411,34.911,54.6,31.1" transform="translate(-54.6 -31.1)" fill="none" stroke="#c26685" stroke-linecap="round" stroke-linejoin="round" stroke-miterlimit="10" stroke-width="2"/>
      </g>
      <circle id="Ellipse_360" data-name="Ellipse 360" cx="7.523" cy="7.523" r="7.523" transform="translate(49.153 45.826)" fill="none" stroke="#c26685" stroke-linecap="round" stroke-linejoin="round" stroke-miterlimit="10" stroke-width="2"/>
      <g id="Group_884" data-name="Group 884" transform="translate(54.77 51.543)">
        <path id="Path_1689" data-name="Path 1689" d="M58.411,51.4,54.6,55.111" transform="translate(-54.6 -51.4)" fill="none" stroke="#c26685" stroke-linecap="round" stroke-linejoin="round" stroke-miterlimit="10" stroke-width="2"/>
        <path id="Path_1690" data-name="Path 1690" d="M58.411,55.111,54.6,51.4" transform="translate(-54.6 -51.4)" fill="none" stroke="#c26685" stroke-linecap="round" stroke-linejoin="round" stroke-miterlimit="10" stroke-width="2"/>
      </g>
      <path id="Path_1691" data-name="Path 1691" d="M43.917,12.8H38.4V53.322h5.918" transform="translate(0.121 0.027)" fill="none" stroke="#c26685" stroke-linecap="round" stroke-linejoin="round" stroke-miterlimit="10" stroke-width="2"/>
      <path id="Path_1692" data-name="Path 1692" d="M44.336,33H32.3" transform="translate(0.103 0.088)" fill="none" stroke="#c26685" stroke-linecap="round" stroke-linejoin="round" stroke-miterlimit="10" stroke-width="2"/>
    </g>
  </g>
</svg>
