<svg xmlns="http://www.w3.org/2000/svg" width="119" height="119" viewBox="0 0 119 119">
  <g id="Group_1129" data-name="Group 1129" transform="translate(-20684 -4249.151)">
    <g id="Group_869" data-name="Group 869" transform="translate(20684.158 4249.441)">
      <circle id="Ellipse_100" data-name="Ellipse 100" cx="59.5" cy="59.5" r="59.5" transform="translate(118.842 -0.29) rotate(90)" fill="#e0b2c2"/>
    </g>
    <path id="circular-economy_16822099" d="M73.256,52.056a5.337,5.337,0,0,0-3.771,9.106,2.99,2.99,0,0,1,0,4.224l-4.1,4.1a2.99,2.99,0,0,1-4.224,0,5.337,5.337,0,0,0-9.106,3.771,2.983,2.983,0,0,1-2.985,2.986h-5.8a2.983,2.983,0,0,1-2.985-2.986,5.335,5.335,0,0,0-9.106-3.771,2.985,2.985,0,0,1-4.221,0l-4.1-4.1a2.99,2.99,0,0,1,0-4.224,5.336,5.336,0,0,0-3.771-9.106A2.986,2.986,0,0,1,16.1,49.071v-5.8a2.986,2.986,0,0,1,2.986-2.985,5.336,5.336,0,0,0,3.771-9.106,2.985,2.985,0,0,1,0-4.221l4.1-4.1a2.985,2.985,0,0,1,4.221,0,5.336,5.336,0,0,0,9.106-3.771A2.986,2.986,0,0,1,43.275,16.1h5.8a2.986,2.986,0,0,1,2.985,2.986,5.336,5.336,0,0,0,9.106,3.771,2.99,2.99,0,0,1,4.224,0l4.1,4.1a2.985,2.985,0,0,1,0,4.221,5.337,5.337,0,0,0,3.771,9.106,2.983,2.983,0,0,1,2.986,2.985v5.8a2.983,2.983,0,0,1-2.986,2.985Zm0-2.164a.821.821,0,0,0,.822-.822v-5.8a.821.821,0,0,0-.822-.822,7.5,7.5,0,0,1-5.3-12.8.821.821,0,0,0,0-1.161l-4.1-4.1a.824.824,0,0,0-1.165,0,7.5,7.5,0,0,1-12.8-5.3.822.822,0,0,0-.822-.822h-5.8a.822.822,0,0,0-.822.822,7.5,7.5,0,0,1-12.8,5.3.821.821,0,0,0-1.161,0l-4.1,4.1a.821.821,0,0,0,0,1.161,7.5,7.5,0,0,1-5.3,12.8.822.822,0,0,0-.822.822v5.8a.822.822,0,0,0,.822.822,7.5,7.5,0,0,1,5.3,12.8.824.824,0,0,0,0,1.165l4.1,4.1a.821.821,0,0,0,1.161,0,7.5,7.5,0,0,1,12.8,5.3.821.821,0,0,0,.822.822h5.8a.821.821,0,0,0,.822-.822,7.5,7.5,0,0,1,12.8-5.3.825.825,0,0,0,1.165,0l4.1-4.1a.825.825,0,0,0,0-1.165,7.5,7.5,0,0,1,5.3-12.8ZM46.173,27.628A18.544,18.544,0,1,1,27.627,46.174,18.546,18.546,0,0,1,46.173,27.628Zm0,2.164A16.381,16.381,0,1,0,62.555,46.174,16.382,16.382,0,0,0,46.173,29.792Zm0,1.676A14.705,14.705,0,1,1,31.467,46.174,14.706,14.706,0,0,1,46.173,31.468Zm0,2.164A12.541,12.541,0,1,0,58.715,46.174,12.543,12.543,0,0,0,46.173,33.631Zm-1.1,5.659-.021-.862a1.082,1.082,0,0,1,2.163-.052l.023.943a6.563,6.563,0,0,1,1.407.54,3.85,3.85,0,0,1,1.4,1.175,1.082,1.082,0,1,1-1.808,1.189,1.653,1.653,0,0,0-.608-.451,3.561,3.561,0,0,0-1.46-.444,1.938,1.938,0,1,0,0,3.819A4.266,4.266,0,0,1,50.6,49.22a4.163,4.163,0,0,1-3.329,3.946l.018.752a1.082,1.082,0,1,1-2.163.053l-.019-.778a5.025,5.025,0,0,1-2.484-1.479,1.082,1.082,0,0,1,1.484-1.575,2.723,2.723,0,0,0,2.061.991,1.938,1.938,0,1,0,0-3.819,4.266,4.266,0,0,1-4.432-4.073A4.162,4.162,0,0,1,45.072,39.29ZM79.594,64.619l1.643-.949a1.082,1.082,0,1,1,1.082,1.874l-5.44,3.141a1.082,1.082,0,0,1-1.623-.937V61.467a1.082,1.082,0,0,1,2.164,0v2.6q.309-.538.6-1.088l.144-.275a35.776,35.776,0,0,0,1.869-4.263q.062-.169.121-.34.049-.14.1-.28A35.732,35.732,0,0,0,81.476,53.3q.035-.175.069-.35t.066-.353a36.094,36.094,0,0,0,.563-5.6q0-.185.006-.371,0-.224,0-.448A35.977,35.977,0,0,0,46.173,10.164q-.37,0-.739.007l-.371.009A1.082,1.082,0,0,1,45,8.018l.393-.01Q45.781,8,46.173,8A38.14,38.14,0,0,1,84.346,46.173q0,.238,0,.475,0,.2-.007.393a38.255,38.255,0,0,1-.6,5.938q-.034.188-.07.375t-.073.372a37.89,37.89,0,0,1-1.3,4.8q-.051.149-.1.3-.064.181-.129.36A37.952,37.952,0,0,1,80.085,63.7q-.076.146-.153.292Q79.766,64.309,79.594,64.619ZM12.751,27.726l-1.643.949A1.082,1.082,0,1,1,10.026,26.8l5.44-3.141a1.082,1.082,0,0,1,1.623.937v6.282a1.082,1.082,0,0,1-2.164,0v-2.6q-.354.616-.684,1.247l-.129.249a35.813,35.813,0,0,0-1.743,3.973q-.118.322-.231.646-.054.156-.107.313a35.689,35.689,0,0,0-1.126,4.167q-.032.157-.063.314-.076.386-.144.774a36.089,36.089,0,0,0-.52,5.147q-.006.2-.01.409-.006.329-.006.66A35.977,35.977,0,0,0,46.173,82.182q.476,0,.95-.012l.409-.013a1.082,1.082,0,1,1,.08,2.162l-.433.014q-.5.013-1.006.013A38.141,38.141,0,0,1,8,46.173q0-.35.006-.7,0-.217.01-.433a38.246,38.246,0,0,1,.551-5.455q.072-.412.152-.82.033-.167.067-.333a37.871,37.871,0,0,1,1.194-4.419q.056-.166.113-.332.119-.344.245-.685a38,38,0,0,1,1.849-4.213q.068-.132.137-.264.209-.4.427-.793ZM33.968,12.288a1.082,1.082,0,1,1-.734-2.035l.3-.106A37.853,37.853,0,0,1,38.32,8.81l.371-.076a1.082,1.082,0,1,1,.422,2.122l-.35.072a35.7,35.7,0,0,0-4.516,1.26ZM58.229,80.111a1.082,1.082,0,1,1,.725,2.038l-.331.116a37.871,37.871,0,0,1-4.409,1.23l-.333.07a1.082,1.082,0,0,1-.435-2.119l.314-.066a35.69,35.69,0,0,0,4.157-1.16l.312-.109Zm9.124-4.822a1.082,1.082,0,1,1,1.275,1.748l-.21.152a38.2,38.2,0,0,1-4.32,2.688l-.263.139a1.082,1.082,0,1,1-1-1.917l.248-.131a36.068,36.068,0,0,0,4.075-2.536l.2-.143ZM24.992,17.057a1.082,1.082,0,1,1-1.275-1.748l.06-.044a38.244,38.244,0,0,1,4.3-2.706l.291-.155a1.082,1.082,0,1,1,1.011,1.913l-.274.146a36.086,36.086,0,0,0-4.058,2.553Z" transform="translate(20698.326 4262.479)" fill="#c26685" fill-rule="evenodd"/>
  </g>
</svg>
