<svg xmlns="http://www.w3.org/2000/svg" width="119" height="119" viewBox="0 0 119 119">
  <g id="Group_1124" data-name="Group 1124" transform="translate(-17944.578 -4142.479)">
    <g id="Group_868" data-name="Group 868" transform="translate(17944.736 4142.769)">
      <circle id="Ellipse_100" data-name="Ellipse 100" cx="59.5" cy="59.5" r="59.5" transform="translate(118.842 -0.29) rotate(90)" fill="#e0b2c2"/>
    </g>
    <g id="video-conference_9287804" transform="translate(17962.324 4130.408)">
      <g id="Group_881" data-name="Group 881" transform="translate(7.5 37.621)">
        <path id="Path_1575" data-name="Path 1575" d="M361.424,82.8h2.284a12.248,12.248,0,0,1,12.248,12.248v27.2" transform="translate(-312.638 -76.576)" fill="none" stroke="#c26685" stroke-linecap="round" stroke-linejoin="round" stroke-miterlimit="10" stroke-width="2"/>
        <path id="Path_1576" data-name="Path 1576" d="M45.152,122.247v-27.2A12.248,12.248,0,0,1,57.4,82.8h2.284" transform="translate(-39.962 -76.575)" fill="none" stroke="#c26685" stroke-linecap="round" stroke-linejoin="round" stroke-miterlimit="10" stroke-width="2"/>
        <path id="Path_1577" data-name="Path 1577" d="M65.628,368.955h5.467a4.912,4.912,0,0,1,4.913,4.913,9.621,9.621,0,0,1-9.619,9.619H17.119A9.62,9.62,0,0,1,7.5,373.868a4.914,4.914,0,0,1,4.913-4.913H17.88" transform="translate(-7.5 -323.283)" fill="none" stroke="#c26685" stroke-linecap="round" stroke-linejoin="round" stroke-miterlimit="10" stroke-width="2"/>
        <path id="Path_1578" data-name="Path 1578" d="M206.911,368.955a6.228,6.228,0,0,1-6.228,6.228h-6.228a6.229,6.229,0,0,1-6.228-6.228" transform="translate(-163.315 -323.283)" fill="none" stroke="#c26685" stroke-linecap="round" stroke-linejoin="round" stroke-miterlimit="10" stroke-width="2"/>
        <circle id="Ellipse_352" data-name="Ellipse 352" cx="2.076" cy="2.076" r="2.076" transform="translate(57.09 50.862)" fill="none" stroke="#c26685" stroke-linecap="round" stroke-linejoin="round" stroke-miterlimit="10" stroke-width="2"/>
        <circle id="Ellipse_353" data-name="Ellipse 353" cx="2.076" cy="2.076" r="2.076" transform="translate(47.748 50.862)" fill="none" stroke="#c26685" stroke-linecap="round" stroke-linejoin="round" stroke-miterlimit="10" stroke-width="2"/>
        <path id="Path_1579" data-name="Path 1579" d="M82.8,140.955V129.171a8.721,8.721,0,0,1,8.72-8.72h.623" transform="translate(-72.42 -109.033)" fill="none" stroke="#c26685" stroke-linecap="round" stroke-linejoin="round" stroke-miterlimit="10" stroke-width="2"/>
        <path id="Path_1580" data-name="Path 1580" d="M121.206,120.451h.623a8.721,8.721,0,0,1,8.72,8.72V154.7H82.8V145.78" transform="translate(-72.42 -109.033)" fill="none" stroke="#c26685" stroke-linecap="round" stroke-linejoin="round" stroke-miterlimit="10" stroke-width="2"/>
        <path id="Path_1581" data-name="Path 1581" d="M170.864,37.621h3.348a5.431,5.431,0,0,1,5.431,5.432v7.82a5.431,5.431,0,0,1-5.431,5.432h-4.949l-2.385,3.577a2.124,2.124,0,0,1-3.534,0l-2.385-3.577h-4.949a5.431,5.431,0,0,1-5.431-5.432v-7.82a5.431,5.431,0,0,1,5.431-5.432h10.028" transform="translate(-130.857 -37.621)" fill="none" stroke="#c26685" stroke-linecap="round" stroke-linejoin="round" stroke-miterlimit="10" stroke-width="2"/>
        <line id="Line_108" data-name="Line 108" x2="18.684" transform="translate(24.912 6.228)" fill="none" stroke="#c26685" stroke-linecap="round" stroke-linejoin="round" stroke-miterlimit="10" stroke-width="2"/>
        <line id="Line_109" data-name="Line 109" x2="18.684" transform="translate(24.912 12.456)" fill="none" stroke="#c26685" stroke-linecap="round" stroke-linejoin="round" stroke-miterlimit="10" stroke-width="2"/>
        <path id="Path_1582" data-name="Path 1582" d="M144.992,231.248a5.193,5.193,0,1,1,3.374,1.246A5.182,5.182,0,0,1,144.992,231.248Z" transform="translate(-124.474 -196.683)" fill="none" stroke="#c26685" stroke-linecap="round" stroke-linejoin="round" stroke-miterlimit="10" stroke-width="2"/>
        <path id="Path_1583" data-name="Path 1583" d="M138.868,288.381a7.266,7.266,0,0,1,3.874,5.917h-14.5a7.266,7.266,0,0,1,3.874-5.917" transform="translate(-111.602 -253.816)" fill="none" stroke="#c26685" stroke-linecap="round" stroke-linejoin="round" stroke-miterlimit="10" stroke-width="2"/>
        <circle id="Ellipse_354" data-name="Ellipse 354" cx="5.19" cy="5.19" r="5.19" transform="translate(38.409 34.483) rotate(-76.714)" fill="none" stroke="#c26685" stroke-linecap="round" stroke-linejoin="round" stroke-miterlimit="10" stroke-width="2"/>
        <path id="Path_1584" data-name="Path 1584" d="M289.474,288.381a7.266,7.266,0,0,1,3.874,5.917h-14.5a7.266,7.266,0,0,1,3.874-5.917" transform="translate(-241.448 -253.816)" fill="none" stroke="#c26685" stroke-linecap="round" stroke-linejoin="round" stroke-miterlimit="10" stroke-width="2"/>
      </g>
    </g>
  </g>
</svg>
