<svg xmlns="http://www.w3.org/2000/svg" width="119" height="119" viewBox="0 0 119 119">
  <g id="not_selected_1" data-name="not selected 1" transform="translate(-6624.622 -4403.309)">
    <g id="Group_1060" data-name="Group 1060" transform="translate(6624.779 4403.599)">
      <circle id="Ellipse_100" data-name="Ellipse 100" cx="59.5" cy="59.5" r="59.5" transform="translate(118.842 -0.29) rotate(90)" fill="#e0b2c2"/>
    </g>
    <path id="meteorology_13858070" d="M11.955,37.935a1.487,1.487,0,0,0,1.828-1.051,32.582,32.582,0,0,1,4.444-9.738,43.344,43.344,0,0,0,5.7,1.954,46.224,46.224,0,0,0-1.38,4.829,1.49,1.49,0,1,0,2.906.664,43.535,43.535,0,0,1,1.377-4.78c.386.085.773.17,1.169.25a1.607,1.607,0,0,0,.17.025l5.217.441c.042,0,.084,0,.127,0a1.49,1.49,0,0,0,.123-2.976l-5.131-.434c-.19-.039-.373-.081-.561-.121,3.615-8.188,9.492-13.54,16-14.264V20.1a1.49,1.49,0,1,0,2.981,0V12.732c6.455.689,12.338,5.9,16.041,14.267l-.068.015a1.49,1.49,0,1,0,.617,2.915,48.944,48.944,0,0,0,9.132-2.785A32.6,32.6,0,0,1,77.1,36.884a1.491,1.491,0,0,0,2.879-.776,35.775,35.775,0,0,0-69.071,0,1.491,1.491,0,0,0,1.051,1.827ZM70.81,24.679a42.357,42.357,0,0,1-4.9,1.613,32.984,32.984,0,0,0-7.18-10.818,32.959,32.959,0,0,1,12.077,9.2ZM32.314,15.4a32.806,32.806,0,0,0-7.308,10.9,43.055,43.055,0,0,1-4.937-1.622A32.983,32.983,0,0,1,32.314,15.4ZM81.208,71.49c0-.016,0-.03,0-.046l-1.491-28.32a1.491,1.491,0,0,0-1.41-1.409L67.53,41.148V36.5a1.493,1.493,0,0,0-.046-.367c-.008-.033-.026-.062-.036-.094a1.514,1.514,0,0,0-.1-.247c-.02-.035-.048-.066-.07-.1a1.612,1.612,0,0,0-.142-.2c-.03-.033-.069-.059-.1-.089a1.362,1.362,0,0,0-.167-.145L59.2,30.118,52.717,24.9a1.48,1.48,0,0,0-1.147-.314l-9.072,1.3a1.491,1.491,0,0,0-.343.1c-.034.013-.066.033-.1.05a1.441,1.441,0,0,0-.208.122c-.034.025-.067.051-.1.079a1.583,1.583,0,0,0-.163.164c-.027.032-.055.062-.079.1-.012.016-.027.029-.038.046L34.076,37.7,23.1,38.928a1.5,1.5,0,0,0-.349.088l-.068.026a1.492,1.492,0,0,0-.3.168c-.019.013-.035.029-.053.043a1.465,1.465,0,0,0-.232.231l-.02.024a1.467,1.467,0,0,0-.177.31c-.005.012-.014.021-.019.033s0,.019-.007.028a1.539,1.539,0,0,0-.085.305l-.161,1.055-9.066.476a1.492,1.492,0,0,0-1.41,1.409L9.668,71.444c0,.016,0,.03,0,.046s0,.021,0,.033v5.962a1.491,1.491,0,0,0,1.491,1.491H38.3a3.732,3.732,0,0,0,3.416,2.236h7.452a3.731,3.731,0,0,0,3.415-2.236H79.72a1.49,1.49,0,0,0,1.491-1.491V71.523C81.211,71.512,81.208,71.5,81.208,71.49ZM78.23,73.013v2.981H51.4a1.493,1.493,0,0,0-1.49,1.49.745.745,0,0,1-.745.745H46.93V76c0-.1.005-.191.014-.285a2.984,2.984,0,0,1,2.967-2.7H78.23ZM39.477,75.994H12.648V73.013H40.969a2.985,2.985,0,0,1,2.967,2.7c.009.094.014.188.014.285v2.235H41.714a.746.746,0,0,1-.745-.745,1.493,1.493,0,0,0-1.492-1.49ZM14.066,44.621l7.11-.374-1.666,10.9a1.491,1.491,0,0,0,1.022,1.646,5.878,5.878,0,0,1,1.316.578l.262.161a9.148,9.148,0,0,0,9.487,0l.649-.4a6.145,6.145,0,0,1,5.911-.234h0l.145.072c.1.051.211.1.31.16l.647.4a9.143,9.143,0,0,0,9.487,0l.651-.4a6.134,6.134,0,0,1,6.37,0l.647.4a9.3,9.3,0,0,0,9.487,0l.263-.161h0a6.149,6.149,0,0,1,3.623-.858,1.49,1.49,0,0,0,1.4-2.222L67.532,47.84V44.133l9.282.488,1.337,25.412H49.911a5.915,5.915,0,0,0-2.981.806V63.325a1.49,1.49,0,1,0-2.981,0v7.514a5.915,5.915,0,0,0-2.981-.806H12.729ZM54.54,30.2l-7.258.812L45.4,28.486h0l5.95-.855ZM44.857,32.74l-3.481,7.006a1.509,1.509,0,0,0,.671,2,1.488,1.488,0,0,0,1.988-.653l.012-.019,3.526-7.1,10.314-1.153,5.088,3.413-9.206,4.118c-.036.016-.069.036-.1.055l-.025.012-.035.02a1.53,1.53,0,0,0-.207.15l-.04.038a1.536,1.536,0,0,0-.153.168c-.008.01-.017.017-.025.027l-.763,1.023L51.348,43.28l-2.056,2.757a1.492,1.492,0,0,0-.22,1.36l1.987,6a8.993,8.993,0,0,0-3.218,1.194l-.651.4a6.136,6.136,0,0,1-6.368,0l-.51-.313V44.321a1.518,1.518,0,0,0-.026-.27c0-.017-.009-.032-.012-.048a1.467,1.467,0,0,0-.076-.244c-.011-.026-.021-.051-.033-.075a1.493,1.493,0,0,0-.128-.218c-.008-.012-.012-.025-.021-.036l-.027-.037h0l-.1-.133L38.82,41.825l-1.071-1.437-.994-1.335,6.027-9.1Zm-18.68,8.843L34.04,40.7l.209-.024.993,1.334,1.07,1.435.187.251-.057.025-6.258,2.7-2.1-2.54L26.9,42.455Zm-1.936,2.336.132.159L28.6,49.184a1.49,1.49,0,0,0,1.739.418l6.992-3.015v6.889a9.105,9.105,0,0,0-6.645,1.113l-.648.4a6.138,6.138,0,0,1-6.368,0h0l-.261-.16a7.668,7.668,0,0,0-.772-.415l1.58-10.325Zm30.549-.267,10.161,5.682,2.482,4.373a8.861,8.861,0,0,0-2.826,1.12l-.263.162a6.271,6.271,0,0,1-6.37,0l-.647-.4A8.987,8.987,0,0,0,54.2,53.412L52.146,47.2Zm9.76-1.169v3.209l-3.392-1.9-2.947-1.647-.516-.289,2.461-1.1L64.549,38.8v3.688ZM32.024,64.815a1.49,1.49,0,1,1-1.491-1.49A1.5,1.5,0,0,1,32.024,64.815Zm5.962,0a1.49,1.49,0,1,1-1.491-1.49A1.5,1.5,0,0,1,37.986,64.815Zm-11.924,0a1.5,1.5,0,0,1-1.49,1.491H18.61a1.49,1.49,0,1,1,0-2.981h5.962A1.5,1.5,0,0,1,26.062,64.815Zm28.319,0a1.49,1.49,0,0,1,1.491-1.49H73.758a1.49,1.49,0,1,1,0,2.981H55.873a1.491,1.491,0,0,1-1.491-1.491Z" transform="translate(6639.423 4411.325)" fill="#c26685" stroke="#e0b2c2" stroke-width="1"/>
  </g>
</svg>
