<svg xmlns="http://www.w3.org/2000/svg" width="119" height="119" viewBox="0 0 119 119">
  <g id="not_selected_2" data-name="not selected 2" transform="translate(-2480 -4489)">
    <g id="Group_671" data-name="Group 671" transform="translate(2480.158 4489.291)">
      <circle id="Ellipse_100" data-name="Ellipse 100" cx="59.5" cy="59.5" r="59.5" transform="translate(118.842 -0.29) rotate(90)" fill="#e0b2c2"/>
    </g>
    <path id="financial_17699120" d="M78.741,15H52.314a2.865,2.865,0,0,0-2.862,2.862V39.045a2.865,2.865,0,0,0,2.862,2.862h4.237v3.341a.829.829,0,0,0,1.353.643l4.881-3.984H78.74A2.865,2.865,0,0,0,81.6,39.045V17.862A2.863,2.863,0,0,0,78.741,15Zm1.2,24.046a1.205,1.205,0,0,1-1.2,1.2H62.49a.831.831,0,0,0-.524.187L58.21,43.5V41.079a.83.83,0,0,0-.829-.829H52.316a1.205,1.205,0,0,1-1.2-1.2V17.862a1.205,1.205,0,0,1,1.2-1.2H78.743a1.205,1.205,0,0,1,1.2,1.2V39.046Zm-2.689-2.321h-.793v-9.45a.83.83,0,0,0-.829-.829H71.585a.83.83,0,0,0-.829.829v9.45H68.38V29.336a.83.83,0,0,0-.829-.829H63.5a.83.83,0,0,0-.829.829v7.388H60.3V31.4a.83.83,0,0,0-.829-.829H55.423a.83.83,0,0,0-.829.829v5.323H53.8a.829.829,0,1,0,0,1.658H77.257a.829.829,0,1,0,0-1.658ZM72.414,28.1H74.8v8.621H72.414Zm-8.081,2.062h2.389v6.559H64.333Zm-8.082,2.066H58.64v4.494H56.251Zm-1.567-5.1a.828.828,0,0,1,.361-1.115l4.8-2.455a.83.83,0,0,1,.377-.091H68.32L75.137,18.4a.829.829,0,1,1,.991,1.331l-7.039,5.243a.831.831,0,0,1-.495.164H60.424L55.8,27.5a.82.82,0,0,1-.377.091.832.832,0,0,1-.738-.453Zm5.845,42.653H58.846a8.505,8.505,0,1,0-13.052-4.115l-5.945-2.012V60.208a10.278,10.278,0,0,0,4.226-5.337h1.15a3.818,3.818,0,0,0,0-7.636h-.457a9.228,9.228,0,0,0,2.127-6.185,8.859,8.859,0,0,0-8.867-8.831H30.764A8.859,8.859,0,0,0,21.9,41.051a9.221,9.221,0,0,0,2.127,6.185h-.456a3.818,3.818,0,0,0,0,7.636h1.15a10.285,10.285,0,0,0,4.226,5.337v3.454l-8.649,2.928A7.689,7.689,0,0,0,15,73.97v6.8a.83.83,0,0,0,.829.829h44.7a1.921,1.921,0,0,0,1.918-1.918v-2.9a1.9,1.9,0,0,0-.341-1.089,1.907,1.907,0,0,0,.341-1.089V71.7A1.92,1.92,0,0,0,60.529,69.788Zm.26,1.918v2.9a.263.263,0,0,1-.26.26H47.294a.263.263,0,0,1-.26-.26v-2.9a.263.263,0,0,1,.26-.26H60.529A.263.263,0,0,1,60.789,71.706Zm-6.95-15.634a6.847,6.847,0,1,1-6.847,6.847A6.855,6.855,0,0,1,53.838,56.073ZM48.831,69.788H47.294a1.921,1.921,0,0,0-1.918,1.918v2.9a1.9,1.9,0,0,0,.341,1.089,1.907,1.907,0,0,0-.341,1.089v2.9a2.016,2.016,0,0,0,.019.26H37.5l-1.031-6.074,1.476-2.192.685.361a.828.828,0,0,0,1.148-.406l2.344-5.453,4.753,1.608a8.587,8.587,0,0,0,1.958,2ZM34.4,69.809l2.07,1.092-1.314,1.951H33.639L32.325,70.9Zm-.5,4.7h.995l.922,5.435H32.977Zm6.644-8.863-1.937,4.506-2.827-1.49,3.464-3.457Zm6.843-14.593a2.162,2.162,0,0,1-2.16,2.16h-.731a10.265,10.265,0,0,0,.137-1.66V48.893h.594A2.162,2.162,0,0,1,47.385,51.054ZM30.765,33.877h7.263a7.2,7.2,0,0,1,7.209,7.173,7.573,7.573,0,0,1-1.787,5.176,4.976,4.976,0,0,1-4.839-4.969.829.829,0,1,0-1.658,0A4.979,4.979,0,0,1,31.98,46.23H25.347a7.579,7.579,0,0,1-1.791-5.18,7.2,7.2,0,0,1,7.209-7.173Zm-7.2,19.337a2.16,2.16,0,1,1,0-4.32h.594v2.661a10.265,10.265,0,0,0,.137,1.66h-.731Zm2.252-1.66V47.888h6.159a6.638,6.638,0,0,0,5.8-3.423,6.644,6.644,0,0,0,5.193,3.4v3.694a8.577,8.577,0,1,1-17.154,0ZM34.4,61.789a10.173,10.173,0,0,0,3.8-.732v2.856L34.4,67.7l-3.8-3.788V61.057A10.2,10.2,0,0,0,34.4,61.789ZM29.55,65.208l3.464,3.457-2.827,1.49L28.25,65.649ZM16.658,73.97a6.055,6.055,0,0,1,4.168-5.81l5.848-1.98,2.344,5.453a.83.83,0,0,0,1.148.406l.685-.361,1.476,2.192L31.3,79.945H23.417V75.223a.829.829,0,1,0-1.658,0v4.722h-5.1Zm44.131,5.715a.263.263,0,0,1-.26.26H47.294a.263.263,0,0,1-.26-.26v-2.9a.263.263,0,0,1,.26-.26H60.529a.263.263,0,0,1,.26.26ZM54.872,64.553c0-.234-.322-.413-1.092-.752l-.283-.126-.268-.119c-.879-.387-2.082-.916-2.082-2.27a2.5,2.5,0,0,1,1.863-2.342v-.958a.829.829,0,1,1,1.658,0v.958a2.5,2.5,0,0,1,1.863,2.342.829.829,0,0,1-1.658,0,1.066,1.066,0,0,0-2.067,0c0,.234.322.413,1.092.752l.283.126.268.119c.879.387,2.082.916,2.082,2.27a2.5,2.5,0,0,1-1.863,2.342v.958a.829.829,0,1,1-1.658,0v-.958a2.5,2.5,0,0,1-1.863-2.342.829.829,0,0,1,1.658,0,1.066,1.066,0,0,0,2.067,0Z" transform="translate(2491.199 4500.095)" fill="#c26685"/>
  </g>
</svg>
