<svg xmlns="http://www.w3.org/2000/svg" width="119" height="119" viewBox="0 0 119 119">
  <g id="Group_1125" data-name="Group 1125" transform="translate(-17805.578 -4142.479)">
    <g id="Group_1117" data-name="Group 1117" transform="translate(17805.736 4142.769)">
      <circle id="Ellipse_100" data-name="Ellipse 100" cx="59.5" cy="59.5" r="59.5" transform="translate(118.842 -0.29) rotate(90)" fill="#e0b2c2"/>
    </g>
    <path id="risk-factors_18820032" d="M36.541,50.689a6.186,6.186,0,1,0,6.186,6.186,6.186,6.186,0,0,0-6.186-6.186Zm26.807,11.3a1.088,1.088,0,1,1,1.539,1.539L61.5,66.914a1.088,1.088,0,0,1-1.539,0L58.27,65.221a1.088,1.088,0,1,1,1.539-1.539l.923.923Zm0,10.974A1.088,1.088,0,1,1,64.887,74.5L61.5,77.888a1.088,1.088,0,0,1-1.539,0L58.27,76.2a1.088,1.088,0,1,1,1.539-1.539l.923.923Zm3.9-7.424a1.088,1.088,0,1,1,0-2.176H81.653a1.088,1.088,0,0,1,0,2.176Zm0,10.974a1.088,1.088,0,1,1,0-2.177H81.653a1.088,1.088,0,0,1,0,2.177Zm0,4.023a1.088,1.088,0,1,1,0-2.176h7.2a1.088,1.088,0,0,1,0,2.176Zm0-10.974a1.088,1.088,0,1,1,0-2.176h7.2a1.088,1.088,0,0,1,0,2.176ZM36.541,65.237A16.416,16.416,0,0,0,20.166,80.424a.122.122,0,0,0,.131.143H52.785a.121.121,0,0,0,.131-.143A16.416,16.416,0,0,0,36.541,65.237ZM31.7,63.7A8.364,8.364,0,0,1,38.933,48.86L55.578,20.031a4.057,4.057,0,0,1,7.039,0L82.183,53.916h0a4.062,4.062,0,0,1-3.518,6.1H44.293a8.393,8.393,0,0,1-2.915,3.68A18.613,18.613,0,0,1,55.084,80.271a2.311,2.311,0,0,1-2.3,2.472H20.3A2.307,2.307,0,0,1,18,80.271,18.613,18.613,0,0,1,31.7,63.7ZM44.848,57.84a8.361,8.361,0,0,0-3.927-8.09L57.456,21.11a1.892,1.892,0,0,1,3.281,0L80.3,55h0a1.882,1.882,0,0,1-1.642,2.837ZM59.1,30.543a2.726,2.726,0,0,0-2.721,2.721v10.33a2.721,2.721,0,0,0,5.441,0V33.263A2.726,2.726,0,0,0,59.1,30.543Zm0,2.177a.549.549,0,0,0-.544.544v10.33a.544.544,0,0,0,1.088,0V33.263a.549.549,0,0,0-.544-.544Zm0,17.4a1.088,1.088,0,1,0,1.088,1.088A1.088,1.088,0,0,0,59.1,50.119Zm0-2.177a3.265,3.265,0,1,0,3.265,3.265A3.265,3.265,0,0,0,59.1,47.943Z" transform="translate(17811.795 4144.179)" fill="#c26685" fill-rule="evenodd"/>
  </g>
</svg>
