<svg xmlns="http://www.w3.org/2000/svg" width="119" height="119" viewBox="0 0 119 119">
  <g id="Group_1133" data-name="Group 1133" transform="translate(-20067 -4249.151)">
    <g id="Group_1128" data-name="Group 1128" transform="translate(20067.158 4249.441)">
      <circle id="Ellipse_100" data-name="Ellipse 100" cx="59.5" cy="59.5" r="59.5" transform="translate(118.842 -0.29) rotate(90)" fill="#e0b2c2"/>
    </g>
    <g id="online_12740445" transform="translate(20045.098 4245.137)">
      <path id="Path_1537" data-name="Path 1537" d="M138.335,161.395A23.062,23.062,0,1,1,161.4,138.333,23.087,23.087,0,0,1,138.335,161.395Zm0-43.512a20.45,20.45,0,1,0,20.45,20.45A20.473,20.473,0,0,0,138.335,117.883Z" transform="translate(-56.933 -74.819)" fill="#c26685"/>
      <path id="Path_1538" data-name="Path 1538" d="M137.242,94.9a1.306,1.306,0,0,1-.845-2.3,29.4,29.4,0,0,1,9.087-5.254,1.306,1.306,0,0,1,.882,2.459,26.755,26.755,0,0,0-8.281,4.788A1.3,1.3,0,0,1,137.242,94.9Z" transform="translate(-74.058 -51.608)" fill="#c26685"/>
      <path id="Path_1539" data-name="Path 1539" d="M308.064,94.9a1.3,1.3,0,0,1-.844-.309A26.774,26.774,0,0,0,298.94,89.8a1.306,1.306,0,0,1,.883-2.459,29.4,29.4,0,0,1,9.086,5.254,1.306,1.306,0,0,1-.845,2.3Z" transform="translate(-208.444 -51.609)" fill="#c26685"/>
      <path id="Path_1540" data-name="Path 1540" d="M212.467,290.741a1.306,1.306,0,0,1-1.306-1.306v-6.228a1.306,1.306,0,1,1,2.612,0v6.228A1.306,1.306,0,0,1,212.467,290.741Z" transform="translate(-136.407 -212.928)" fill="#c26685"/>
      <path id="Path_1541" data-name="Path 1541" d="M274.891,290.741a1.306,1.306,0,0,1-1.306-1.306v-6.228a1.306,1.306,0,1,1,2.612,0v6.228A1.306,1.306,0,0,1,274.891,290.741Z" transform="translate(-188.146 -212.928)" fill="#c26685"/>
      <path id="Path_1542" data-name="Path 1542" d="M217.809,163.675a6.648,6.648,0,1,1,6.649-6.648A6.656,6.656,0,0,1,217.809,163.675Zm0-10.685a4.037,4.037,0,1,0,4.037,4.037A4.041,4.041,0,0,0,217.809,152.991Z" transform="translate(-136.407 -103.918)" fill="#c26685"/>
      <path id="Path_1543" data-name="Path 1543" d="M198.29,256.614H182.406a3.648,3.648,0,0,1-3.623-3.226l-.7-6.027a7.526,7.526,0,0,1,1.9-5.927,6.512,6.512,0,0,1,7.824-1.151,5.583,5.583,0,0,0,5.092,0,6.433,6.433,0,0,1,7.825,1.15,7.529,7.529,0,0,1,1.9,5.928l-.7,6.026A3.648,3.648,0,0,1,198.29,256.614ZM184.5,242.085a3.389,3.389,0,0,0-2.582,1.1,4.917,4.917,0,0,0-1.24,3.871l.7,6.028a1.036,1.036,0,0,0,1.029.916H198.29a1.035,1.035,0,0,0,1.029-.916l.7-6.027a4.92,4.92,0,0,0-1.239-3.872,3.89,3.89,0,0,0-4.7-.579,8.2,8.2,0,0,1-7.478,0A4.711,4.711,0,0,0,184.5,242.085Z" transform="translate(-108.945 -177.756)" fill="#c26685"/>
      <path id="Path_1544" data-name="Path 1544" d="M203.871,44.109a1.316,1.316,0,0,1-.4-.062,20.471,20.471,0,0,0-12.512,0,1.307,1.307,0,0,1-1.305-.3,10.9,10.9,0,1,1,15.123,0A1.3,1.3,0,0,1,203.871,44.109Zm-6.655-3.657a23.026,23.026,0,0,1,6.264.87,8.205,8.205,0,0,0,2.026-5.422,8.289,8.289,0,0,0-16.579,0,8.2,8.2,0,0,0,2.026,5.422A22.978,22.978,0,0,1,197.216,40.452Z" transform="translate(-115.814)" fill="#c26685"/>
      <path id="Path_1545" data-name="Path 1545" d="M338.33,127.438a11.013,11.013,0,0,1-3.046-.434,1.305,1.305,0,0,1-.916-.98,20.3,20.3,0,0,0-6.26-10.809,1.306,1.306,0,0,1-.39-1.279,10.895,10.895,0,1,1,10.611,13.5Zm-1.6-2.767a8.29,8.29,0,1,0-6.27-10.825A22.87,22.87,0,0,1,336.734,124.67Z" transform="translate(-232.982 -66.828)" fill="#c26685"/>
      <path id="Path_1546" data-name="Path 1546" d="M338.279,288.767a10.879,10.879,0,0,1-10.561-8.3,1.307,1.307,0,0,1,.39-1.279,20.3,20.3,0,0,0,6.26-10.808,1.306,1.306,0,0,1,.916-.98,10.9,10.9,0,1,1,3,21.368Zm-7.816-8.208a8.2,8.2,0,0,0,3.689,4.487,8.289,8.289,0,1,0,8.289-14.357,8.2,8.2,0,0,0-5.709-.956A22.863,22.863,0,0,1,330.463,280.559Z" transform="translate(-232.981 -200.549)" fill="#c26685"/>
      <path id="Path_1547" data-name="Path 1547" d="M57.457,127.434a10.9,10.9,0,1,1,10.611-13.5,1.306,1.306,0,0,1-.39,1.278,20.3,20.3,0,0,0-6.259,10.809,1.305,1.305,0,0,1-.916.98,11.01,11.01,0,0,1-3.047.434Zm.046-19.2a8.351,8.351,0,0,0-2.158.286,8.287,8.287,0,0,0,3.71,16.142,22.873,22.873,0,0,1,6.269-10.827,8.288,8.288,0,0,0-7.82-5.6Z" transform="translate(0 -66.825)" fill="#c26685"/>
      <path id="Path_1548" data-name="Path 1548" d="M57.508,288.762a10.9,10.9,0,1,1,3-21.368,1.306,1.306,0,0,1,.916.98,20.3,20.3,0,0,0,6.259,10.809,1.307,1.307,0,0,1,.39,1.278,10.877,10.877,0,0,1-10.56,8.3Zm-.046-19.188a8.289,8.289,0,0,0-7.152,12.434,8.3,8.3,0,0,0,11.324,3.034,8.2,8.2,0,0,0,3.689-4.487,22.873,22.873,0,0,1-6.269-10.827,8.342,8.342,0,0,0-1.592-.154Z" transform="translate(-0.001 -200.543)" fill="#c26685"/>
      <path id="Path_1549" data-name="Path 1549" d="M197.216,382.472a10.894,10.894,0,0,1-7.561-18.744,1.312,1.312,0,0,1,1.306-.3,20.471,20.471,0,0,0,12.511,0,1.31,1.31,0,0,1,1.306.3,10.894,10.894,0,0,1-7.562,18.744Zm-6.264-16.322a8.2,8.2,0,0,0-2.026,5.421,8.289,8.289,0,1,0,16.579,0,8.2,8.2,0,0,0-2.025-5.421A23.085,23.085,0,0,1,190.953,366.15Z" transform="translate(-115.814 -280.445)" fill="#c26685"/>
      <path id="Path_1550" data-name="Path 1550" d="M299.381,375.776a1.306,1.306,0,0,1-.442-2.535,26.751,26.751,0,0,0,8.281-4.79,1.306,1.306,0,0,1,1.688,1.993,29.391,29.391,0,0,1-9.086,5.255,1.315,1.315,0,0,1-.442.077Z" transform="translate(-208.444 -284.407)" fill="#c26685"/>
      <path id="Path_1551" data-name="Path 1551" d="M405.732,225.711a1.328,1.328,0,0,1-.228-.019,1.306,1.306,0,0,1-1.059-1.513,26.769,26.769,0,0,0-.051-9.566,1.306,1.306,0,0,1,2.568-.477,29.363,29.363,0,0,1,.055,10.5A1.306,1.306,0,0,1,405.732,225.711Z" transform="translate(-296.545 -155.877)" fill="#c26685"/>
      <path id="Path_1552" data-name="Path 1552" d="M79.3,225.711a1.306,1.306,0,0,1-1.284-1.079,29.375,29.375,0,0,1,.055-10.5,1.306,1.306,0,0,1,2.568.477,26.781,26.781,0,0,0-.051,9.566,1.307,1.307,0,0,1-1.059,1.513A1.332,1.332,0,0,1,79.3,225.711Z" transform="translate(-25.686 -155.877)" fill="#c26685"/>
      <path id="Path_1553" data-name="Path 1553" d="M145.925,375.773a1.309,1.309,0,0,1-.441-.077,29.421,29.421,0,0,1-9.087-5.255,1.306,1.306,0,0,1,1.688-1.993,26.773,26.773,0,0,0,8.281,4.79,1.306,1.306,0,0,1-.441,2.535Z" transform="translate(-74.057 -284.405)" fill="#c26685"/>
    </g>
  </g>
</svg>
