<svg xmlns="http://www.w3.org/2000/svg" width="119" height="119" viewBox="0 0 119 119">
  <g id="Group_1131" data-name="Group 1131" transform="translate(-20385 -4249.151)">
    <g id="Group_868" data-name="Group 868" transform="translate(20385.158 4249.441)">
      <circle id="Ellipse_100" data-name="Ellipse 100" cx="59.5" cy="59.5" r="59.5" transform="translate(118.842 -0.29) rotate(90)" fill="#e0b2c2"/>
    </g>
    <path id="document_13414733" d="M132.038,33.108,115.266,14.7a1.079,1.079,0,0,0-.8-.352H113.45l-4.554-5A1.079,1.079,0,0,0,108.1,9H81.652a4.661,4.661,0,0,0-4.482,4.813V67.489A4.662,4.662,0,0,0,81.652,72.3h1.888v.537a4.661,4.661,0,0,0,4.482,4.813h6.941a17.456,17.456,0,0,0,28.706,0h4.171a4.668,4.668,0,0,0,4.482-4.813v-39A1.079,1.079,0,0,0,132.038,33.108Zm-3.241-.352H115.6l-.045-14.53ZM81.652,70.144a2.508,2.508,0,0,1-2.323-2.654V13.813a2.508,2.508,0,0,1,2.323-2.654h25.97l2.908,3.192H88.021a4.661,4.661,0,0,0-4.482,4.813v50.98Zm27.663,12.871A15.314,15.314,0,1,1,124.628,67.7a15.314,15.314,0,0,1-15.313,15.313Zm18.524-7.521H124.95a17.472,17.472,0,1,0-31.27,0H88.021A2.508,2.508,0,0,1,85.7,72.84V19.163a2.508,2.508,0,0,1,2.323-2.654h25.371l.054,17.329a1.079,1.079,0,0,0,1.079,1.076h15.636V72.838A2.512,2.512,0,0,1,127.838,75.494ZM89.765,22.926a1.079,1.079,0,0,1,1.079-1.079h14.387a1.079,1.079,0,1,1,0,2.159H90.845A1.079,1.079,0,0,1,89.765,22.926Zm0,8.153A1.079,1.079,0,0,1,90.845,30h14.387a1.079,1.079,0,1,1,0,2.159H90.845A1.079,1.079,0,0,1,89.765,31.079Zm0,8.153a1.079,1.079,0,0,1,1.079-1.079h33.41a1.079,1.079,0,1,1,0,2.159H90.845A1.079,1.079,0,0,1,89.765,39.231Zm36.688,8.153a1.079,1.079,0,0,1-1.079,1.079H90.845a1.079,1.079,0,0,1,0-2.159h34.529a1.079,1.079,0,0,1,1.079,1.079ZM117.145,68.32a7.922,7.922,0,0,0-5.787-1.835,1.079,1.079,0,0,0-.824.49,1.646,1.646,0,0,1-2.437,0,1.079,1.079,0,0,0-.824-.49,7.924,7.924,0,0,0-5.787,1.835q-.031.025-.061.053c-1.577,1.5-2.15,4.035-1.752,7.748a1.55,1.55,0,0,0,.589,1.062,13.522,13.522,0,0,0,8.544,2.49q.253,0,.51-.006c3.8.084,6.849-.753,9.054-2.484a1.55,1.55,0,0,0,.588-1.062c.4-3.713-.175-6.247-1.752-7.747-.02-.019-.04-.037-.061-.053Zm-.308,7.316c-1.8,1.315-4.315,1.946-7.5,1.873h-.049c-3.183.072-5.7-.557-7.5-1.873-.267-2.793.1-4.7,1.092-5.672a5.691,5.691,0,0,1,3.775-1.345,3.869,3.869,0,0,0,5.311,0,5.706,5.706,0,0,1,3.775,1.345c.992.971,1.359,2.879,1.092,5.672Zm-7.522-9.023a5.441,5.441,0,1,0-5.441-5.441,5.441,5.441,0,0,0,5.441,5.441Zm0-8.723a3.282,3.282,0,1,1-3.282,3.282,3.282,3.282,0,0,1,3.282-3.282Z" transform="translate(20337.789 4263.323)" fill="#c26685"/>
  </g>
</svg>
