<svg xmlns="http://www.w3.org/2000/svg" width="119" height="119" viewBox="0 0 119 119">
  <g id="not_selected_3" data-name="not selected 3" transform="translate(-6931.621 -4403.309)">
    <g id="Group_804" data-name="Group 804" transform="translate(6932.044 4403.599)">
      <circle id="Ellipse_101" data-name="Ellipse 101" cx="59.5" cy="59.5" r="59.5" transform="translate(118.577 -0.29) rotate(90)" fill="#e0b2c2"/>
    </g>
    <g id="education_15421541" transform="translate(6957.121 4427.982)">
      <path id="Path_1693" data-name="Path 1693" d="M58.071,9.3H56a1.041,1.041,0,0,0-1.038,1.038v6.226H51.8q-.047-.56-.125-1.183a1.024,1.024,0,0,0-.55-.778l-1.774-.924A14.506,14.506,0,0,0,48,10.4l.6-1.909a1.03,1.03,0,0,0-.166-.944A17.02,17.02,0,0,0,45.287,4.4a1.03,1.03,0,0,0-.944-.166l-1.909.6A14.506,14.506,0,0,0,39.154,3.48l-.924-1.774a1.024,1.024,0,0,0-.778-.55,15.238,15.238,0,0,0-4.452,0,1.024,1.024,0,0,0-.778.55L31.3,3.48A14.506,14.506,0,0,0,28.02,4.84l-1.909-.6a1.03,1.03,0,0,0-.944.166,17.02,17.02,0,0,0-3.144,3.144,1.03,1.03,0,0,0-.166.944l.6,1.909A14.506,14.506,0,0,0,21.1,13.68l-1.774.924a1.024,1.024,0,0,0-.55.778Q18.7,16,18.65,16.565H15.5V15.527a7.248,7.248,0,1,0-14.5,0V58.071a7.272,7.272,0,0,0,7.264,7.264H58.071a7.272,7.272,0,0,0,7.264-7.264V16.565A7.272,7.272,0,0,0,58.071,9.3ZM20.8,16.191l1.7-.882a.993.993,0,0,0,.529-.674,12.856,12.856,0,0,1,1.473-3.57,1.028,1.028,0,0,0,.1-.851L24.025,8.4a15.217,15.217,0,0,1,2-2l1.816.581a1.023,1.023,0,0,0,.851-.1A12.142,12.142,0,0,1,32.264,5.4a1.054,1.054,0,0,0,.674-.529l.882-1.7a12.928,12.928,0,0,1,2.833,0l.882,1.7a.993.993,0,0,0,.674.529,12.856,12.856,0,0,1,3.57,1.473,1.028,1.028,0,0,0,.851.1L44.446,6.4a15.217,15.217,0,0,1,2,2l-.581,1.816a1.028,1.028,0,0,0,.1.851,12.142,12.142,0,0,1,1.473,3.57,1.054,1.054,0,0,0,.529.674l1.7.882c.01.135.021.249.031.374h-5.2a9.334,9.334,0,0,0-18.553,0h-5.2c0-.125.021-.249.031-.374Zm21.625.374H28.062a7.254,7.254,0,0,1,14.361,0ZM3.075,15.527a5.188,5.188,0,1,1,10.376,0V53A7.242,7.242,0,0,0,3.075,53Zm0,42.544a5.188,5.188,0,1,1,5.188,5.188A5.19,5.19,0,0,1,3.075,58.071Zm55,5.188H13.338a7.232,7.232,0,0,0,2.189-5.188V18.64H54.958v33.2A1.041,1.041,0,0,0,56,52.883h2.075a5.188,5.188,0,0,1,0,10.376ZM63.259,53a7.232,7.232,0,0,0-5.188-2.189H57.033V11.377h1.038a5.19,5.19,0,0,1,5.188,5.188Z" transform="translate(0 0)" fill="#c26685"/>
      <circle id="Ellipse_361" data-name="Ellipse 361" cx="2.075" cy="2.075" r="2.075" transform="translate(6.188 55.996)" fill="#c26685"/>
      <path id="Path_1694" data-name="Path 1694" d="M48.092,34.672V31.414a1.041,1.041,0,0,0-1.038-1.038H35.64V28.3h2.075a1.041,1.041,0,0,0,1.038-1.038V21.038A1.041,1.041,0,0,0,37.715,20H31.489a1.041,1.041,0,0,0-1.038,1.038v6.226A1.041,1.041,0,0,0,31.489,28.3h2.075v2.075H22.151a1.041,1.041,0,0,0-1.038,1.038v3.258a4.151,4.151,0,1,0,2.075,0V32.452H33.565v2.221a4.151,4.151,0,1,0,2.075,0V32.452H46.017v2.221a4.151,4.151,0,1,0,2.075,0Zm-15.565-12.6h4.151v4.151H32.527Zm-8.3,16.6A2.075,2.075,0,1,1,22.151,36.6,2.081,2.081,0,0,1,24.226,38.678Zm12.452,0A2.075,2.075,0,1,1,34.6,36.6,2.081,2.081,0,0,1,36.678,38.678Zm10.376,2.075a2.075,2.075,0,1,1,2.075-2.075A2.081,2.081,0,0,1,47.054,40.753Z" transform="translate(0.64 0.716)" fill="#c26685"/>
      <path id="Path_1695" data-name="Path 1695" d="M28,44H50.828v2.075H28Z" transform="translate(1.017 1.619)" fill="#c26685"/>
      <path id="Path_1696" data-name="Path 1696" d="M28,48h9.339v2.075H28Z" transform="translate(1.017 1.77)" fill="#c26685"/>
      <path id="Path_1697" data-name="Path 1697" d="M28,52H50.828v2.075H28Z" transform="translate(1.017 1.92)" fill="#c26685"/>
      <path id="Path_1698" data-name="Path 1698" d="M28,56h9.339v2.075H28Z" transform="translate(1.017 2.071)" fill="#c26685"/>
      <path id="Path_1699" data-name="Path 1699" d="M24.188,44H20.038A1.041,1.041,0,0,0,19,45.038v4.151a1.041,1.041,0,0,0,1.038,1.038h4.151a1.041,1.041,0,0,0,1.038-1.038V45.038A1.041,1.041,0,0,0,24.188,44Zm-1.038,4.151H21.075V46.075h2.075Z" transform="translate(0.678 1.619)" fill="#c26685"/>
      <path id="Path_1700" data-name="Path 1700" d="M24.188,52H20.038A1.041,1.041,0,0,0,19,53.038v4.151a1.041,1.041,0,0,0,1.038,1.038h4.151a1.041,1.041,0,0,0,1.038-1.038V53.038A1.041,1.041,0,0,0,24.188,52Zm-1.038,4.151H21.075V54.075h2.075Z" transform="translate(0.678 1.92)" fill="#c26685"/>
    </g>
  </g>
</svg>
