<svg xmlns="http://www.w3.org/2000/svg" xmlns:xlink="http://www.w3.org/1999/xlink" width="119" height="119" viewBox="0 0 119 119">
  <defs>
    <clipPath id="clip-path">
      <path id="path3081" d="M0-682.665H67.112v67.112H0Z" transform="translate(0 682.665)" fill="none" stroke="#c26685" stroke-width="2"/>
    </clipPath>
  </defs>
  <g id="not_selected_3" data-name="not selected 3" transform="translate(-4773 -4429.501)">
    <g id="Group_672" data-name="Group 672" transform="translate(4773.423 4429.791)">
      <circle id="Ellipse_101" data-name="Ellipse 101" cx="59.5" cy="59.5" r="59.5" transform="translate(118.577 -0.29) rotate(90)" fill="#e0b2c2"/>
    </g>
    <g id="g3075" transform="translate(4797.388 5137.606)">
      <g id="g3077" transform="translate(0 -682.665)">
        <g id="g3079" clip-path="url(#clip-path)">
          <g id="g3085" transform="translate(3.346 7.569)">
            <path id="path3087" d="M-98.021,0h-2.212a8.474,8.474,0,0,0-8.475,8.474V46.679a8.475,8.475,0,0,0,8.475,8.474h28.809" transform="translate(108.708)" fill="none" stroke="#c26685" stroke-linecap="round" stroke-linejoin="round" stroke-miterlimit="10" stroke-width="2"/>
          </g>
          <g id="g3089" transform="translate(41.664 7.569)">
            <path id="path3091" d="M0,0H2.212a8.474,8.474,0,0,1,8.474,8.474V24.836" fill="none" stroke="#c26685" stroke-linecap="round" stroke-linejoin="round" stroke-miterlimit="10" stroke-width="2"/>
          </g>
          <g id="g3093" transform="translate(12.615 0.983)">
            <path id="path3095" d="M-92.5-142.118h15.078a5.3,5.3,0,0,0,5.3-5.3,5.285,5.285,0,0,0-1.553-3.749,5.285,5.285,0,0,0-3.749-1.553h-2.729a7.748,7.748,0,0,0-7.2-4.892,7.751,7.751,0,0,0-7.2,4.892h-2.729a5.3,5.3,0,0,0-5.3,5.3,5.285,5.285,0,0,0,1.553,3.749,5.289,5.289,0,0,0,3.749,1.552h.851" transform="translate(102.585 157.613)" fill="none" stroke="#c26685" stroke-linecap="round" stroke-linejoin="round" stroke-miterlimit="10" stroke-width="2"/>
          </g>
          <g id="g3097" transform="translate(24.678 5.561)">
            <path id="path3099" d="M-58.149-29.075a3.17,3.17,0,0,0-3.17-3.17,3.17,3.17,0,0,0-3.17,3.17,3.17,3.17,0,0,0,3.17,3.17A3.17,3.17,0,0,0-58.149-29.075Z" transform="translate(64.489 32.245)" fill="none" stroke="#c26685" stroke-linecap="round" stroke-linejoin="round" stroke-miterlimit="10" stroke-width="2"/>
          </g>
          <g id="g3101" transform="translate(9.424 33.709)">
            <path id="path3103" d="M-325.84,0h-35.525" transform="translate(361.366)" fill="none" stroke="#c26685" stroke-linecap="round" stroke-linejoin="round" stroke-miterlimit="10" stroke-width="2"/>
          </g>
          <g id="g3105" transform="translate(9.424 38.413)">
            <path id="path3107" d="M0,0H14.3" fill="none" stroke="#c26685" stroke-linecap="round" stroke-linejoin="round" stroke-miterlimit="10" stroke-width="2"/>
          </g>
          <g id="g3109" transform="translate(9.424 43.117)">
            <path id="path3111" d="M-272.113,0h-29.668" transform="translate(301.781)" fill="none" stroke="#c26685" stroke-linecap="round" stroke-linejoin="round" stroke-miterlimit="10" stroke-width="2"/>
          </g>
          <g id="g3113" transform="translate(9.424 47.821)">
            <path id="path3115" d="M0,0H22.147" fill="none" stroke="#c26685" stroke-linecap="round" stroke-linejoin="round" stroke-miterlimit="10" stroke-width="2"/>
          </g>
          <g id="g3117" transform="translate(9.424 52.525)">
            <path id="path3119" d="M-241.843,0H-268.21" transform="translate(268.21 0)" fill="none" stroke="#c26685" stroke-linecap="round" stroke-linejoin="round" stroke-miterlimit="10" stroke-width="2"/>
          </g>
          <g id="g3121" transform="translate(9.424 57.229)">
            <path id="path3123" d="M0,0H13.083" transform="translate(0 0)" fill="none" stroke="#c26685" stroke-linecap="round" stroke-linejoin="round" stroke-miterlimit="10" stroke-width="2"/>
          </g>
          <g id="g3125" transform="translate(12.634 22.213)">
            <path id="path3127" d="M0-59.945l2.454-6.444a.148.148,0,0,1,.274,0L5.16-59.945" transform="translate(0 66.48)" fill="none" stroke="#c26685" stroke-linecap="round" stroke-linejoin="round" stroke-miterlimit="10" stroke-width="2"/>
          </g>
          <g id="g3129" transform="translate(13.399 27.144)">
            <path id="path3131" d="M0,0H3.641" fill="none" stroke="#c26685" stroke-linecap="round" stroke-linejoin="round" stroke-miterlimit="10" stroke-width="2"/>
          </g>
          <g id="g3133" transform="translate(35.987 22.213)">
            <path id="path3135" d="M0,0V6.536" fill="none" stroke="#c26685" stroke-linecap="round" stroke-linejoin="round" stroke-miterlimit="10" stroke-width="2"/>
          </g>
          <g id="g3137" transform="translate(28.394 22.213)">
            <path id="path3139" d="M-41.184-29.972c0,1.8-1,3.226-2.585,3.253-.528.009-1.892.014-1.892.014s-.009-2.367-.009-3.275c0-.745,0-3.261,0-3.261h1.851C-42.084-33.24-41.184-31.773-41.184-29.972Z" transform="translate(45.675 33.24)" fill="none" stroke="#c26685" stroke-linecap="round" stroke-linejoin="round" stroke-miterlimit="10" stroke-width="2"/>
          </g>
          <g id="g3141" transform="translate(20.583 22.213)">
            <path id="path3143" d="M0,0V4.5A1.915,1.915,0,0,0,1.025,6.191a2.2,2.2,0,0,0,1.2.344,2.36,2.36,0,0,0,1.08-.247,1.957,1.957,0,0,0,1.232-1.8V0" fill="none" stroke="#c26685" stroke-linecap="round" stroke-linejoin="round" stroke-miterlimit="10" stroke-width="2"/>
          </g>
          <g id="g3145" transform="translate(39.452 22.213)">
            <path id="path3147" d="M0,0H3.609" fill="none" stroke="#c26685" stroke-linecap="round" stroke-linejoin="round" stroke-miterlimit="10" stroke-width="2"/>
          </g>
          <g id="g3149" transform="translate(41.249 22.421)">
            <path id="path3151" d="M0,0V6.327" fill="none" stroke="#c26685" stroke-linecap="round" stroke-linejoin="round" stroke-miterlimit="10" stroke-width="2"/>
          </g>
          <g id="g3153" transform="translate(35.791 38.153)">
            <path id="path3155" d="M-241.713-188.321a13.9,13.9,0,0,0,1.623-6.543,13.989,13.989,0,0,0-13.989-13.989,13.988,13.988,0,0,0-13.987,13.989,13.988,13.988,0,0,0,13.987,13.987,13.939,13.939,0,0,0,10.052-4.263" transform="translate(268.066 208.853)" fill="none" stroke="#c26685" stroke-linecap="round" stroke-linejoin="round" stroke-miterlimit="10" stroke-width="2"/>
          </g>
          <g id="g3157" transform="translate(40.46 42.822)">
            <path id="path3159" d="M-170.943-85.472a9.319,9.319,0,0,0-9.319-9.319,9.319,9.319,0,0,0-9.319,9.319,9.319,9.319,0,0,0,9.319,9.319A9.319,9.319,0,0,0-170.943-85.472Z" transform="translate(189.581 94.79)" fill="none" stroke="#c26685" stroke-linecap="round" stroke-linejoin="round" stroke-miterlimit="10" stroke-width="2"/>
          </g>
          <g id="g3161" transform="translate(44.483 32.401)">
            <path id="path3163" d="M-70.755,0h-4.838a2.876,2.876,0,0,0-2.876,2.876,2.876,2.876,0,0,0,2.876,2.876h4.838a2.876,2.876,0,0,0,2.876-2.876A2.876,2.876,0,0,0-70.755,0Z" transform="translate(78.469)" fill="none" stroke="#c26685" stroke-linecap="round" stroke-linejoin="round" stroke-miterlimit="10" stroke-width="2"/>
          </g>
          <g id="g3165" transform="translate(49.779 42.822)">
            <path id="path3167" d="M0,0V2.567" fill="none" stroke="#c26685" stroke-linecap="round" stroke-linejoin="round" stroke-miterlimit="10" stroke-width="2"/>
          </g>
          <g id="g3169" transform="translate(49.779 58.893)">
            <path id="path3171" d="M0,0V2.567" fill="none" stroke="#c26685" stroke-linecap="round" stroke-linejoin="round" stroke-miterlimit="10" stroke-width="2"/>
          </g>
          <g id="g3173" transform="translate(40.46 52.141)">
            <path id="path3175" d="M0,0H2.567" fill="none" stroke="#c26685" stroke-linecap="round" stroke-linejoin="round" stroke-miterlimit="10" stroke-width="2"/>
          </g>
          <g id="g3177" transform="translate(56.53 52.141)">
            <path id="path3179" d="M0,0H2.567" fill="none" stroke="#c26685" stroke-linecap="round" stroke-linejoin="round" stroke-miterlimit="10" stroke-width="2"/>
          </g>
          <g id="g3181" transform="translate(47.813 47.989)">
            <path id="path3183" d="M-5.279-50.826a1.966,1.966,0,0,1,0-2.78l2.186-2.186a1.966,1.966,0,0,1,2.78,0,1.966,1.966,0,0,1,0,2.78L-2.5-50.826A1.966,1.966,0,0,1-5.279-50.826Z" transform="translate(5.855 56.368)" fill="none" stroke="#c26685" stroke-linecap="round" stroke-linejoin="round" stroke-miterlimit="10" stroke-width="2"/>
          </g>
        </g>
      </g>
    </g>
  </g>
</svg>
