<svg xmlns="http://www.w3.org/2000/svg" xmlns:xlink="http://www.w3.org/1999/xlink" width="119" height="119" viewBox="0 0 119 119">
  <defs>
    <clipPath id="clip-path">
      <path id="path2757" d="M0-682.665H65.711v65.711H0Z" transform="translate(0 682.665)"/>
    </clipPath>
  </defs>
  <g id="not_selected_3" data-name="not selected 3" transform="translate(-2631 -4489)">
    <g id="Group_672" data-name="Group 672" transform="translate(2631.423 4489.291)">
      <circle id="Ellipse_101" data-name="Ellipse 101" cx="59.5" cy="59.5" r="59.5" transform="translate(118.577 -0.29) rotate(90)" fill="#e0b2c2"/>
    </g>
    <g id="g2751" transform="translate(2659.476 5197.901)">
      <g id="g2753" transform="translate(0 -682.665)">
        <g id="g2755" transform="translate(0 0)" clip-path="url(#clip-path)">
          <g id="g2761" transform="translate(22.022 52.229)">
            <path id="path2763" d="M0-26.6l19.43-.027.058,0a2.563,2.563,0,0,0,1.749-.917,2.563,2.563,0,0,0,.588-1.885" transform="translate(0 29.429)" fill="none" stroke="#c26685" stroke-linecap="round" stroke-linejoin="round" stroke-miterlimit="10" stroke-width="2"/>
          </g>
          <g id="g2765" transform="translate(11.516 0.963)">
            <path id="path2767" d="M-29.2-154.208a18.765,18.765,0,0,1,1.864-4.5.922.922,0,0,0-.02-.945,3.174,3.174,0,0,1,.463-3.9l1.665-1.665a3.174,3.174,0,0,1,3.9-.463.922.922,0,0,0,.945.02,18.759,18.759,0,0,1,4.5-1.864.922.922,0,0,0,.653-.682,3.174,3.174,0,0,1,3.085-2.428h2.355A3.174,3.174,0,0,1-6.707-168.2a.922.922,0,0,0,.653.682,18.759,18.759,0,0,1,4.5,1.864.922.922,0,0,0,.945-.02,3.174,3.174,0,0,1,3.9.463l1.665,1.665a3.174,3.174,0,0,1,.463,3.9.922.922,0,0,0-.02.945,18.764,18.764,0,0,1,1.866,4.5.905.905,0,0,0,.679.645,3.075,3.075,0,0,1,2.429,3v2.529a3.075,3.075,0,0,1-2.43,3,.905.905,0,0,0-.679.645,18.771,18.771,0,0,1-1.866,4.5.922.922,0,0,0,.02.945,3.174,3.174,0,0,1-.463,3.9l-1.665,1.665a3.174,3.174,0,0,1-3.9.463.922.922,0,0,0-.945-.02,18.759,18.759,0,0,1-4.5,1.864.922.922,0,0,0-.653.682,3.174,3.174,0,0,1-3.085,2.428h-2.355a3.174,3.174,0,0,1-3.085-2.428.922.922,0,0,0-.653-.682,18.764,18.764,0,0,1-4.5-1.864.922.922,0,0,0-.945.02,3.174,3.174,0,0,1-3.9-.463l-1.665-1.665a3.174,3.174,0,0,1-.463-3.9.922.922,0,0,0,.02-.945,18.767,18.767,0,0,1-1.864-4.5.921.921,0,0,0-.682-.653,3.174,3.174,0,0,1-2.428-3.085v-2.355a3.174,3.174,0,0,1,2.428-3.085A.921.921,0,0,0-29.2-154.208Z" transform="translate(32.309 170.633)" fill="none" stroke="#c26685" stroke-linecap="round" stroke-linejoin="round" stroke-miterlimit="10" stroke-width="2"/>
          </g>
          <g id="g2769" transform="translate(18.79 8.237)">
            <path id="path2771" d="M-25.706-53.762a14,14,0,0,0-2.738,8.34A14.066,14.066,0,0,0-14.378-31.356,14.066,14.066,0,0,0-.312-45.422,14.066,14.066,0,0,0-14.378-59.488a14,14,0,0,0-8.071,2.544" transform="translate(28.444 59.488)" fill="none" stroke="#c26685" stroke-linecap="round" stroke-linejoin="round" stroke-miterlimit="10" stroke-width="2"/>
          </g>
          <g id="g2773" transform="translate(22.783 20.671)">
            <path id="path2775" d="M-40.031-65.726a3.539,3.539,0,0,0,2.812-3.463,3.538,3.538,0,0,0-3.538-3.538,3.538,3.538,0,0,0-3.538,3.538,3.539,3.539,0,0,0,2.812,3.463" transform="translate(44.295 72.726)" fill="none" stroke="#c26685" stroke-linecap="round" stroke-linejoin="round" stroke-miterlimit="10" stroke-width="2"/>
          </g>
          <g id="g2777" transform="translate(32.856 27.672)">
            <path id="path2779" d="M-76.8,0h-3.29a4.89,4.89,0,0,0-4.89,4.89V8.7A14.058,14.058,0,0,0-72.932,1.9,4.879,4.879,0,0,0-76.8,0Z" transform="translate(84.977)" fill="none" stroke="#c26685" stroke-linecap="round" stroke-linejoin="round" stroke-miterlimit="10" stroke-width="2"/>
          </g>
          <g id="g2781" transform="translate(20.811 27.672)">
            <path id="path2783" d="M-67.177,0h-3.29a4.879,4.879,0,0,0-3.865,1.9A14.058,14.058,0,0,0-62.287,8.7V4.89A4.89,4.89,0,0,0-67.177,0Z" transform="translate(74.332)" fill="none" stroke="#c26685" stroke-linecap="round" stroke-linejoin="round" stroke-miterlimit="10" stroke-width="2"/>
          </g>
          <g id="g2785" transform="translate(35.853 20.671)">
            <path id="path2787" d="M-40.03-65.726a3.539,3.539,0,0,0,2.812-3.463,3.538,3.538,0,0,0-3.538-3.538,3.538,3.538,0,0,0-3.538,3.538,3.539,3.539,0,0,0,2.812,3.463" transform="translate(44.293 72.726)" fill="none" stroke="#c26685" stroke-linecap="round" stroke-linejoin="round" stroke-miterlimit="10" stroke-width="2"/>
          </g>
          <g id="g2789" transform="translate(29.318 11.745)">
            <path id="path2791" d="M-40.031-65.726a3.539,3.539,0,0,0,2.812-3.463,3.538,3.538,0,0,0-3.538-3.538,3.538,3.538,0,0,0-3.538,3.538,3.539,3.539,0,0,0,2.812,3.463" transform="translate(44.295 72.726)" fill="none" stroke="#c26685" stroke-linecap="round" stroke-linejoin="round" stroke-miterlimit="10" stroke-width="2"/>
          </g>
          <g id="g2793" transform="translate(27.234 18.746)">
            <path id="path2795" d="M-105.554-19.205a4.883,4.883,0,0,0-3.976-2.046h-3.29a4.883,4.883,0,0,0-3.976,2.046" transform="translate(116.797 21.251)" fill="none" stroke="#c26685" stroke-linecap="round" stroke-linejoin="round" stroke-miterlimit="10" stroke-width="2"/>
          </g>
          <g id="g2797" transform="translate(56.84 37.986)">
            <path id="path2799" d="M0-112.559v11.194a2.158,2.158,0,0,0,2.158,2.158h3.59a2.158,2.158,0,0,0,2.158-2.158V-122.39a2.158,2.158,0,0,0-2.158-2.158H2.158A2.158,2.158,0,0,0,0-122.39v5.331" transform="translate(0 124.548)" fill="none" stroke="#c26685" stroke-linecap="round" stroke-linejoin="round" stroke-miterlimit="10" stroke-width="2"/>
          </g>
          <g id="g2801" transform="translate(0.965 42.365)">
            <path id="path2803" d="M-524.6,0h-2.838A21.518,21.518,0,0,0-538.3,2.944a21.514,21.514,0,0,1-7.85,2.732l-8.2,1.382a5.725,5.725,0,0,0-4.9,5.1l-.175.536h-3.4a4.938,4.938,0,0,1-2.806-.875l-9.641-6.659a3.319,3.319,0,0,0-4.348.5,3.319,3.319,0,0,0,.489,4.9l9.619,7.106a21.84,21.84,0,0,0,12.017,4.252l8.25.415q1.285.066,2.573.039c5.776-.124,7.393-.295,11.868-1.54l10.2-3.065" transform="translate(580.476)" fill="none" stroke="#c26685" stroke-linecap="round" stroke-linejoin="round" stroke-miterlimit="10" stroke-width="2"/>
          </g>
        </g>
      </g>
    </g>
  </g>
</svg>
