<svg xmlns="http://www.w3.org/2000/svg" width="119" height="119" viewBox="0 0 119 119">
  <g id="not_selected_3" data-name="not selected 3" transform="translate(-9846 -4352)">
    <g id="Group_814" data-name="Group 814" transform="translate(9846.423 4352.291)">
      <circle id="Ellipse_101" data-name="Ellipse 101" cx="59.5" cy="59.5" r="59.5" transform="translate(118.577 -0.29) rotate(90)" fill="#e0b2c2"/>
    </g>
    <g id="Layer_2" data-name="Layer 2" transform="translate(9876.815 4377.375)">
      <g id="Layer_1" data-name="Layer 1" transform="translate(0 0)">
        <g id="crowdfunding">
          <path id="Path_1656" data-name="Path 1656" d="M45.382.023A22.615,22.615,0,0,0,33.988,3.092C19.371-5.781-.1,5.591,0,22.6A22.66,22.66,0,0,0,5,36.833,20.288,20.288,0,0,1,9.257,49.911,3.916,3.916,0,0,0,7.52,56.592a3.919,3.919,0,0,0,2.627,6.788H13.8a4.975,4.975,0,0,0,4.961,4.873h7.75a4.975,4.975,0,0,0,4.961-4.873h3.652a3.921,3.921,0,0,0,2.627-6.789,3.915,3.915,0,0,0-1.738-6.681,20.47,20.47,0,0,1,.776-6.32c14.4,6.236,31.557-5.17,31.226-20.942A22.659,22.659,0,0,0,45.382.023ZM26.508,66.188H18.764a2.906,2.906,0,0,1-2.9-2.806H29.411a2.907,2.907,0,0,1-2.9,2.806ZM36.959,53.716a1.848,1.848,0,0,1-1.848,1.848h-2.6a1.033,1.033,0,1,0,0,2.067h2.607a1.848,1.848,0,1,1,0,3.687H10.147a1.848,1.848,0,0,1,0-3.687H22.635a1.033,1.033,0,0,0,0-2.067H10.147a1.848,1.848,0,0,1,0-3.686H34.976a1.858,1.858,0,0,1,1.983,1.838Zm8.417-10.494A20.488,20.488,0,0,1,27.019,31.94a1.036,1.036,0,0,0-1.848.937,22.6,22.6,0,0,0,9.71,9.854,22.164,22.164,0,0,0-.948,7.075H18.35a43.5,43.5,0,0,0-1.99-13.961,32.01,32.01,0,0,1-1-3.554A4.138,4.138,0,0,1,19.4,27.316H32.155v1.541l4.462-2.577L32.155,23.7V25.24H19.4a6.178,6.178,0,0,0-4.833,2.324c-2.253,2.567-1.124,6.157-.142,8.955A41.494,41.494,0,0,1,16.293,49.8H11.325A22.318,22.318,0,0,0,6.613,35.538,20.293,20.293,0,0,1,2.064,22.6C1.975,7.611,18.781-2.778,32.035,4.364a22.657,22.657,0,0,0-6.854,8.074,1.036,1.036,0,1,0,1.848.935A20.6,20.6,0,0,1,34.635,5.1c13.329-8.41,31.525,1.706,31.31,17.553A20.589,20.589,0,0,1,45.382,43.222Z" transform="translate(0 0)" fill="#c26685"/>
          <path id="Path_1657" data-name="Path 1657" d="M35.808,4.3a16.489,16.489,0,0,0-12.865,6.142,1.034,1.034,0,0,0,1.608,1.3C33.06,1.2,50.28,7.285,50.28,20.841s-17.219,19.642-25.729,9.1a1.035,1.035,0,0,0-1.608,1.3c9.725,12.049,29.4,5.092,29.4-10.4A16.559,16.559,0,0,0,35.808,4.3Z" transform="translate(9.574 1.813)" fill="#c26685"/>
          <path id="Path_1658" data-name="Path 1658" d="M33.547,7.938a1.033,1.033,0,0,0-1.035,1.035v1.292c-5.939.965-6.277,10.127,1.035,10.08,2.843,0,3.444,1.643,3.444,3.021-.017,3.383-5.386,4.122-6.646,1.046a1.034,1.034,0,1,0-1.906.8,5.363,5.363,0,0,0,4.073,3.142c.018.874-.253,2.291,1.035,2.334a1.032,1.032,0,0,0,1.033-1.033v-1.3c5.958-.951,6.3-10.131-1.033-10.078-2.834,0-3.427-1.645-3.427-3.021.014-3.385,5.385-4.122,6.643-1.048a1.034,1.034,0,0,0,1.906-.8,5.36,5.36,0,0,0-4.088-3.14C34.562,9.4,34.832,7.981,33.547,7.938Z" transform="translate(11.826 3.346)" fill="#c26685"/>
          <path id="Path_1659" data-name="Path 1659" d="M30.663,13.124H14.7V11.58l-4.464,2.576L14.7,16.734V15.191H30.663a1.033,1.033,0,1,0,0-2.067Z" transform="translate(4.313 4.881)" fill="#c26685"/>
        </g>
      </g>
    </g>
  </g>
</svg>
