<svg xmlns="http://www.w3.org/2000/svg" width="119" height="119" viewBox="0 0 119 119">
  <g id="Group_1132" data-name="Group 1132" transform="translate(-20233 -4249.151)">
    <g id="Group_875" data-name="Group 875" transform="translate(20233.158 4249.441)">
      <circle id="Ellipse_100" data-name="Ellipse 100" cx="59.5" cy="59.5" r="59.5" transform="translate(118.842 -0.29) rotate(90)" fill="#e0b2c2"/>
    </g>
    <g id="Employee_SOP" transform="translate(20251.182 4264.865)">
      <path id="Path_1522" data-name="Path 1522" d="M63.013,15.544a4.746,4.746,0,1,0,4.746,4.747,4.752,4.752,0,0,0-4.746-4.747Zm0,7.634A2.888,2.888,0,1,1,65.9,20.29a2.891,2.891,0,0,1-2.888,2.887Z" transform="translate(12.775 1.044)" fill="#c26685"/>
      <path id="Path_1523" data-name="Path 1523" d="M73.9,18.089l-2.116-3.669a1.824,1.824,0,0,0-2.47-.659l-.929.539c-.137-.084-.277-.164-.42-.241V12.977a1.808,1.808,0,0,0-1.806-1.806H61.931a1.808,1.808,0,0,0-1.806,1.806v1.082c-.144.077-.283.157-.42.241l-.939-.545a1.823,1.823,0,0,0-2.462.669L54.2,18.079a1.769,1.769,0,0,0-.187,1.375c.28,1.042,1.2,1.23,1.769,1.637,0,.081-.011.162-.011.242s.008.161.011.241l-.928.539a1.8,1.8,0,0,0-.66,2.463l2.115,3.668a1.823,1.823,0,0,0,2.471.66l.928-.538c.137.084.277.164.421.241v1.081A1.808,1.808,0,0,0,61.931,31.5h4.226a1.808,1.808,0,0,0,1.806-1.806V28.608c.144-.077.284-.157.421-.241l.938.544a1.824,1.824,0,0,0,2.462-.669l2.106-3.653a1.8,1.8,0,0,0-.657-2.473l-.923-.534a3.414,3.414,0,0,0,0-.5l.923-.533a1.8,1.8,0,0,0,.66-2.459ZM70.245,27.3l-1.409-.817-.011-.006a.87.87,0,0,0-.1-.033.861.861,0,0,0-.914.084,6.679,6.679,0,0,1-1.162.669.928.928,0,0,0-.546.847v.021l.051,1.575-4.174.052V28.041a.863.863,0,0,0-.431-.764.877.877,0,0,0-.115-.083,6.585,6.585,0,0,1-1.162-.669.889.889,0,0,0-.094-.042.93.93,0,0,0-.918-.008l-.01.006-1.34.832-2.136-3.589L57.2,22.9a1.016,1.016,0,0,0,.46-.867c-.118-1.741.275-1.592-.5-2.288L55.8,19.019l2.043-3.651,1.449.834a.959.959,0,0,0,.981-.06,6.663,6.663,0,0,1,1.163-.669c.584-.265.484-.751.545-.875l-.051-1.569,4.174-.052v1.649a1,1,0,0,0,.546.847c1.372.618,1.233,1.059,2.174.719l1.35-.838,2.13,3.589-1.412.815a.929.929,0,0,0-.465.8v.008c0,.022.011.041.013.063h-.01a8.009,8.009,0,0,1,0,1.471.947.947,0,0,0,.4.742c.025.018.036.047.063.063l1.4.738Z" transform="translate(11.744 0)" fill="#c26685"/>
      <path id="Path_1524" data-name="Path 1524" d="M73.824,48.772A10.248,10.248,0,1,0,63.576,59.021,10.26,10.26,0,0,0,73.824,48.772ZM55.24,49.7H56.9a.929.929,0,1,0,0-1.858H55.24a8.4,8.4,0,0,1,7.407-7.407v1.656a.929.929,0,1,0,1.858,0V40.437a8.4,8.4,0,0,1,7.407,7.407H70.256a.929.929,0,0,0,0,1.858h1.655A8.4,8.4,0,0,1,64.5,57.108V55.453a.929.929,0,0,0-1.858,0v1.655A8.4,8.4,0,0,1,55.24,49.7Z" transform="translate(11.596 6.529)" fill="#c26685"/>
      <path id="Path_1525" data-name="Path 1525" d="M62.245,49.314,65.213,47.6a.929.929,0,0,0-.93-1.609l-1.574.91V44.181a.929.929,0,0,0-1.858,0V48.51a.931.931,0,0,0,1.394.8Z" transform="translate(13.392 7.658)" fill="#c26685"/>
      <path id="Path_1526" data-name="Path 1526" d="M56.058,23.878,43.134,29.522a.929.929,0,0,0,.744,1.7L56.8,25.581a.929.929,0,0,0-.744-1.7Z" transform="translate(9.029 3.015)" fill="#c26685"/>
      <path id="Path_1527" data-name="Path 1527" d="M40.632,46.976a.929.929,0,0,0,.929.929h11.58a.929.929,0,0,0,0-1.858H41.561A.929.929,0,0,0,40.632,46.976Z" transform="translate(8.565 8.325)" fill="#c26685"/>
      <path id="Path_1528" data-name="Path 1528" d="M48,46.578V31.922a.929.929,0,1,0-1.858,0V46.578a.929.929,0,0,0,1.858,0Z" transform="translate(9.881 4.732)" fill="#c26685"/>
      <path id="Path_1529" data-name="Path 1529" d="M54.405,13.005H12.093a2.268,2.268,0,0,0-2.265,2.266V59.064a.929.929,0,1,0,1.858,0V15.271a.408.408,0,0,1,.407-.408H54.405a.408.408,0,0,1,.407.408V26.364a.929.929,0,1,0,1.858,0V15.271a2.268,2.268,0,0,0-2.265-2.266Z" transform="translate(1.212 0.438)" fill="#c26685"/>
      <path id="Path_1530" data-name="Path 1530" d="M5.347,57.517a8.451,8.451,0,0,0-.278,5.4,6.149,6.149,0,0,0,5.956,4.3H48.938a8.955,8.955,0,0,0,8.944-8.944V50.556a.929.929,0,0,0-1.858,0v7.718a7.094,7.094,0,0,1-7.086,7.086H46.765c-2.442-2.859-2.812-5.62-1.091-8.428a2.165,2.165,0,0,0-1.833-3.31H11.153a6.155,6.155,0,0,0-5.806,3.894Zm5.806-2.036H43.841a.307.307,0,0,1,.248.481,8.151,8.151,0,0,0,.322,9.4H11.025A4.284,4.284,0,0,1,6.854,62.4a6.545,6.545,0,0,1,.235-4.236,4.291,4.291,0,0,1,4.065-2.684Z" transform="translate(0 9.18)" fill="#c26685"/>
      <path id="Path_1531" data-name="Path 1531" d="M31.518,42.949l3.936,2.067A2.475,2.475,0,0,1,36.7,46.61l.862,3.492a.929.929,0,1,0,1.8-.445l-.862-3.492a4.331,4.331,0,0,0-2.189-2.794L32.381,41.3a.929.929,0,0,0-.864,1.645Z" transform="translate(6.271 7.167)" fill="#c26685"/>
      <path id="Path_1532" data-name="Path 1532" d="M18.492,49.657a.929.929,0,1,0,1.8.445l.862-3.492a2.473,2.473,0,0,1,1.248-1.594l3.937-2.067a.929.929,0,0,0-.864-1.645l-3.938,2.067a4.333,4.333,0,0,0-2.188,2.794Z" transform="translate(3.274 7.167)" fill="#c26685"/>
      <path id="Path_1533" data-name="Path 1533" d="M34.537,35.4a.929.929,0,0,0-1.51,1.084.326.326,0,0,1-.193.492,1.306,1.306,0,0,0-1.019,1.16c-.11,1.4-1.267,3.027-2.594,3.027s-2.479-1.627-2.589-3.025a1.3,1.3,0,0,0-1.014-1.16.326.326,0,0,1-.182-.514.929.929,0,1,0-1.456-1.154,2.183,2.183,0,0,0,.846,3.354c.34,2.171,2.1,4.357,4.4,4.357s4.062-2.187,4.4-4.356a2.185,2.185,0,0,0,.914-3.265Z" transform="translate(4.478 5.677)" fill="#c26685"/>
      <path id="Path_1534" data-name="Path 1534" d="M24.873,36.325A30.936,30.936,0,0,0,31.05,34.1a6.077,6.077,0,0,0,2.237,1.891c.007,0,.01.01.017.014s.012,0,.018.005a.945.945,0,0,0,1.257-.443c0-.005.007-.008.009-.014s0-.012,0-.018a8.571,8.571,0,0,0-.375-8.435,1.47,1.47,0,0,0-2.43.308,1,1,0,0,1-.793.6c-3.074-.431-5.311.115-6.647,1.633-2.026,2.3-1.055,5.875-1.013,6.025a1.207,1.207,0,0,0,1.539.656Zm5.945-6.462A2.662,2.662,0,0,0,33.1,28.805a7.307,7.307,0,0,1,.215,5,3.947,3.947,0,0,1-.916-1.054,1.332,1.332,0,0,0-1.957-.457,22.3,22.3,0,0,1-5.454,2.076c-.489-3.933,1.913-5.081,5.834-4.507Z" transform="translate(4.372 3.682)" fill="#c26685"/>
      <path id="Path_1535" data-name="Path 1535" d="M30.491,43a2.885,2.885,0,0,1-3.474.015.929.929,0,0,0-1.141,1.466,4.924,4.924,0,0,0,2.912.964,4.676,4.676,0,0,0,2.8-.945.929.929,0,1,0-1.1-1.5Z" transform="translate(4.958 7.556)" fill="#c26685"/>
      <path id="Path_1536" data-name="Path 1536" d="M42.394,21.222a2.17,2.17,0,0,0-2.168-2.168H21.359a2.17,2.17,0,0,0-2.168,2.168v2.459a2.17,2.17,0,0,0,2.168,2.168H40.226a2.17,2.17,0,0,0,2.168-2.168Zm-1.858,2.459a.31.31,0,0,1-.31.31H21.359a.31.31,0,0,1-.31-.31V21.222a.31.31,0,0,1,.31-.31H40.226a.31.31,0,0,1,.31.31Z" transform="translate(3.447 1.882)" fill="#c26685"/>
    </g>
  </g>
</svg>
