<svg xmlns="http://www.w3.org/2000/svg" width="72.264" height="72.264" viewBox="0 0 72.264 72.264">
  <g id="Group_1_icons_-_not_selected_2" data-name="Group 1 icons - not selected 2" transform="translate(18504.9 -3103.608)">
    <circle id="Ellipse_394" data-name="Ellipse 394" cx="36.132" cy="36.132" r="36.132" transform="translate(-18432.637 3103.608) rotate(90)" fill="#d0cabe"/>
    <g id="Group_929" data-name="Group 929" transform="translate(-18509.791 3109.689)">
      <path id="Path_1010" data-name="Path 1010" d="M74.69,474.984H45.529a1.435,1.435,0,0,1-1.435-1.435h0a1.435,1.435,0,0,1,1.435-1.435H74.69a1.435,1.435,0,0,1,1.435,1.435h0A1.435,1.435,0,0,1,74.69,474.984Z" transform="translate(-22.742 -423.441)" fill="none" stroke="#aba28b" stroke-linecap="round" stroke-linejoin="round" stroke-miterlimit="10" stroke-width="1.2"/>
      <path id="Path_1011" data-name="Path 1011" d="M84,123.8v-8.571a1.633,1.633,0,0,1,1.3-1.6l21.047-4.362" transform="translate(-59.111 -92.751)" fill="none" stroke="#aba28b" stroke-linecap="round" stroke-linejoin="round" stroke-miterlimit="10" stroke-width="1.2"/>
      <path id="Path_1012" data-name="Path 1012" d="M108.958,208.829V232.16H84" transform="translate(-59.111 -183.488)" fill="none" stroke="#aba28b" stroke-linecap="round" stroke-linejoin="round" stroke-miterlimit="10" stroke-width="1.2"/>
      <path id="Path_1013" data-name="Path 1013" d="M158.666,17.088l-14.251,2.953V8.633A1.133,1.133,0,0,1,145.548,7.5h11.984a1.133,1.133,0,0,1,1.133,1.133Z" transform="translate(-114.173 0)" fill="none" stroke="#aba28b" stroke-linecap="round" stroke-linejoin="round" stroke-miterlimit="10" stroke-width="1.2"/>
      <path id="Path_1014" data-name="Path 1014" d="M187.011,367.218h-8.145v-9.607a.592.592,0,0,1,.592-.592h6.96a.592.592,0,0,1,.592.592v9.607Z" transform="translate(-145.571 -318.546)" fill="none" stroke="#aba28b" stroke-linecap="round" stroke-linejoin="round" stroke-miterlimit="10" stroke-width="1.2"/>
      <line id="Line_62" data-name="Line 62" y2="1.679" transform="translate(32.027 24.887)" fill="none" stroke="#aba28b" stroke-linecap="round" stroke-linejoin="round" stroke-miterlimit="10" stroke-width="1.2"/>
      <line id="Line_63" data-name="Line 63" y2="1.679" transform="translate(35.588 24.887)" fill="none" stroke="#aba28b" stroke-linecap="round" stroke-linejoin="round" stroke-miterlimit="10" stroke-width="1.2"/>
      <line id="Line_64" data-name="Line 64" y2="1.679" transform="translate(39.148 24.887)" fill="none" stroke="#aba28b" stroke-linecap="round" stroke-linejoin="round" stroke-miterlimit="10" stroke-width="1.2"/>
      <line id="Line_65" data-name="Line 65" y2="1.679" transform="translate(42.708 24.887)" fill="none" stroke="#aba28b" stroke-linecap="round" stroke-linejoin="round" stroke-miterlimit="10" stroke-width="1.2"/>
      <line id="Line_66" data-name="Line 66" y2="1.68" transform="translate(32.027 29.835)" fill="none" stroke="#aba28b" stroke-linecap="round" stroke-linejoin="round" stroke-miterlimit="10" stroke-width="1.2"/>
      <line id="Line_67" data-name="Line 67" y2="1.68" transform="translate(35.588 29.835)" fill="none" stroke="#aba28b" stroke-linecap="round" stroke-linejoin="round" stroke-miterlimit="10" stroke-width="1.2"/>
      <line id="Line_68" data-name="Line 68" y2="1.68" transform="translate(39.148 29.835)" fill="none" stroke="#aba28b" stroke-linecap="round" stroke-linejoin="round" stroke-miterlimit="10" stroke-width="1.2"/>
      <line id="Line_69" data-name="Line 69" y2="1.68" transform="translate(42.708 29.835)" fill="none" stroke="#aba28b" stroke-linecap="round" stroke-linejoin="round" stroke-miterlimit="10" stroke-width="1.2"/>
      <line id="Line_70" data-name="Line 70" y2="11.556" transform="translate(34.993 7.5)" fill="none" stroke="#aba28b" stroke-linecap="round" stroke-linejoin="round" stroke-miterlimit="10" stroke-width="1.2"/>
      <line id="Line_71" data-name="Line 71" y2="10.572" transform="translate(39.743 7.5)" fill="none" stroke="#aba28b" stroke-linecap="round" stroke-linejoin="round" stroke-miterlimit="10" stroke-width="1.2"/>
      <line id="Line_72" data-name="Line 72" x2="14.251" transform="translate(30.242 13.77)" fill="none" stroke="#aba28b" stroke-linecap="round" stroke-linejoin="round" stroke-miterlimit="10" stroke-width="1.2"/>
      <circle id="Ellipse_209" data-name="Ellipse 209" cx="5.748" cy="5.748" r="5.748" transform="translate(19.141 31.051)" fill="none" stroke="#aba28b" stroke-linecap="round" stroke-linejoin="round" stroke-miterlimit="10" stroke-width="1.2"/>
      <g id="Group_469" data-name="Group 469" transform="translate(23.608 33.734)">
        <path id="Path_1015" data-name="Path 1015" d="M71.8,311.165a1.468,1.468,0,0,0-1.379-.249,1.027,1.027,0,0,0-.437,1.692,4.955,4.955,0,0,0,1.358.643,1.25,1.25,0,0,1-.526,2.408,1.851,1.851,0,0,1-1.267-.341" transform="translate(-69.545 -310.198)" fill="none" stroke="#aba28b" stroke-linecap="round" stroke-linejoin="round" stroke-miterlimit="10" stroke-width="1.2"/>
        <line id="Line_73" data-name="Line 73" y1="0.7" transform="translate(1.267 5.461)" fill="none" stroke="#aba28b" stroke-linecap="round" stroke-linejoin="round" stroke-miterlimit="10" stroke-width="1.2"/>
        <line id="Line_74" data-name="Line 74" y1="0.649" transform="translate(1.267)" fill="none" stroke="#aba28b" stroke-linecap="round" stroke-linejoin="round" stroke-miterlimit="10" stroke-width="1.2"/>
      </g>
      <path id="Path_1016" data-name="Path 1016" d="M29.1,406.044H20.673a1.532,1.532,0,0,1-1.532-1.532h0a1.532,1.532,0,0,1,1.532-1.532H29.1a1.532,1.532,0,0,1,1.532,1.532h0A1.531,1.531,0,0,1,29.1,406.044Z" transform="translate(0 -360.435)" fill="none" stroke="#aba28b" stroke-linecap="round" stroke-linejoin="round" stroke-miterlimit="10" stroke-width="1.2"/>
      <path id="Path_1017" data-name="Path 1017" d="M29.1,440.611H20.673a1.532,1.532,0,0,1-1.532-1.532h0a1.532,1.532,0,0,1,1.532-1.532H29.1a1.532,1.532,0,0,1,1.532,1.532h0A1.531,1.531,0,0,1,29.1,440.611Z" transform="translate(0 -391.938)" fill="none" stroke="#aba28b" stroke-linecap="round" stroke-linejoin="round" stroke-miterlimit="10" stroke-width="1.2"/>
      <path id="Path_1018" data-name="Path 1018" d="M348.1,22.193l-3.822,2.69a1.969,1.969,0,0,1-2.267,0l-3.822-2.69a4.678,4.678,0,0,1-1.985-3.825V9.19a1.053,1.053,0,0,1,1.053-1.053h11.776A1.053,1.053,0,0,1,350.09,9.19v9.178A4.677,4.677,0,0,1,348.1,22.193Z" transform="translate(-288.969 -0.581)" fill="none" stroke="#aba28b" stroke-linecap="round" stroke-linejoin="round" stroke-miterlimit="10" stroke-width="1.2"/>
      <g id="Group_470" data-name="Group 470" transform="translate(50.442 12.443)">
        <path id="Path_1019" data-name="Path 1019" d="M375.287,69.021a1.2,1.2,0,0,1-.867-.372l-1.736-1.824a1.2,1.2,0,1,1,1.733-1.649l.89.936,2.48-2.48a1.2,1.2,0,0,1,1.692,1.692l-3.347,3.347A1.2,1.2,0,0,1,375.287,69.021Z" transform="translate(-372.355 -63.282)" fill="none" stroke="#aba28b" stroke-linecap="round" stroke-linejoin="round" stroke-miterlimit="10" stroke-width="1.2"/>
      </g>
      <line id="Line_75" data-name="Line 75" y2="4.582" transform="translate(37.368 44.091)" fill="none" stroke="#aba28b" stroke-linecap="round" stroke-linejoin="round" stroke-miterlimit="10" stroke-width="1.2"/>
      <line id="Line_76" data-name="Line 76" y2="2.506" transform="translate(37.368 38.473)" fill="none" stroke="#aba28b" stroke-linecap="round" stroke-linejoin="round" stroke-miterlimit="10" stroke-width="1.2"/>
    </g>
  </g>
</svg>
