<svg xmlns="http://www.w3.org/2000/svg" width="72.264" height="72.264" viewBox="0 0 72.264 72.264">
  <g id="Group_1_icons_-_not_selected_3" data-name="Group 1 icons - not selected 3" transform="translate(18417.9 -3103.608)">
    <circle id="Ellipse_205" data-name="Ellipse 205" cx="36.132" cy="36.132" r="36.132" transform="translate(-18345.637 3103.608) rotate(90)" fill="#d0cabe"/>
    <g id="transference_8176489" transform="translate(-18410.648 3111.529)">
      <g id="Group_475" data-name="Group 475" transform="translate(25.681 25.021)">
        <path id="Path_1020" data-name="Path 1020" d="M254.664,475.7h1.185a1.246,1.246,0,0,0,1.246-1.246v0a1.246,1.246,0,0,0-1.246-1.246H236.92a1.246,1.246,0,0,0-1.246,1.246v0a1.246,1.246,0,0,0,1.246,1.246h15.357" transform="translate(-235.674 -453.621)" fill="none" stroke="#aba28b" stroke-linecap="round" stroke-linejoin="round" stroke-miterlimit="10" stroke-width="1"/>
        <g id="Group_473" data-name="Group 473" transform="translate(1.376 7.443)">
          <g id="Group_472" data-name="Group 472">
            <path id="Path_1021" data-name="Path 1021" d="M256.719,446.2h-2.605a1.168,1.168,0,0,1-1.168-1.168h0a1.168,1.168,0,0,1,1.168-1.168h2.605a1.168,1.168,0,0,1,1.168,1.168h0A1.168,1.168,0,0,1,256.719,446.2Z" transform="translate(-252.945 -434.056)" fill="none" stroke="#aba28b" stroke-linecap="round" stroke-linejoin="round" stroke-miterlimit="10" stroke-width="1"/>
            <path id="Path_1022" data-name="Path 1022" d="M428.98,323.139h-2.605a1.168,1.168,0,0,1-1.168-1.168h0a1.168,1.168,0,0,1,1.168-1.168h2.605a1.168,1.168,0,0,1,1.168,1.168h0A1.169,1.169,0,0,1,428.98,323.139Z" transform="translate(-411.48 -320.801)" fill="none" stroke="#aba28b" stroke-linecap="round" stroke-linejoin="round" stroke-miterlimit="10" stroke-width="1"/>
            <path id="Path_1023" data-name="Path 1023" d="M428.98,446.2h-2.605a1.168,1.168,0,0,1-1.168-1.168h0a1.168,1.168,0,0,1,1.168-1.168h2.605a1.168,1.168,0,0,1,1.168,1.168h0A1.168,1.168,0,0,1,428.98,446.2Z" transform="translate(-411.48 -434.056)" fill="none" stroke="#aba28b" stroke-linecap="round" stroke-linejoin="round" stroke-miterlimit="10" stroke-width="1"/>
            <path id="Path_1024" data-name="Path 1024" d="M270.65,376.138v5.4h-2.523V376.9" transform="translate(-266.917 -371.729)" fill="none" stroke="#aba28b" stroke-linecap="round" stroke-linejoin="round" stroke-miterlimit="10" stroke-width="1"/>
            <rect id="Rectangle_316" data-name="Rectangle 316" width="2.523" height="7.467" transform="translate(8.073 2.338)" fill="none" stroke="#aba28b" stroke-linecap="round" stroke-linejoin="round" stroke-miterlimit="10" stroke-width="1"/>
            <rect id="Rectangle_317" data-name="Rectangle 317" width="2.523" height="7.467" transform="translate(14.936 2.338)" fill="none" stroke="#aba28b" stroke-linecap="round" stroke-linejoin="round" stroke-miterlimit="10" stroke-width="1"/>
          </g>
          <path id="Path_1025" data-name="Path 1025" d="M340.952,320.8h2.605a1.168,1.168,0,0,1,1.168,1.168h0a1.168,1.168,0,0,1-1.168,1.168h-2.605a1.169,1.169,0,0,1-1.107-.794" transform="translate(-332.921 -320.801)" fill="none" stroke="#aba28b" stroke-linecap="round" stroke-linejoin="round" stroke-miterlimit="10" stroke-width="1"/>
          <path id="Path_1026" data-name="Path 1026" d="M342.849,446.2h-2.605a1.168,1.168,0,0,1-1.168-1.168h0a1.168,1.168,0,0,1,1.168-1.168h2.605a1.168,1.168,0,0,1,1.168,1.168h0A1.168,1.168,0,0,1,342.849,446.2Z" transform="translate(-332.212 -434.056)" fill="none" stroke="#aba28b" stroke-linecap="round" stroke-linejoin="round" stroke-miterlimit="10" stroke-width="1"/>
        </g>
        <g id="Group_474" data-name="Group 474" transform="translate(8.578)">
          <path id="Path_1027" data-name="Path 1027" d="M343.322,228.374l1.241-.737a1.746,1.746,0,0,1,1.783,0l9.39,5.574a.873.873,0,0,1-.446,1.624H343.806" transform="translate(-343.322 -227.393)" fill="none" stroke="#aba28b" stroke-linecap="round" stroke-linejoin="round" stroke-miterlimit="10" stroke-width="1"/>
        </g>
      </g>
      <g id="Group_488" data-name="Group 488" transform="translate(7.5 7.499)">
        <g id="Group_481" data-name="Group 481" transform="translate(0)">
          <g id="Group_480" data-name="Group 480">
            <g id="Group_479" data-name="Group 479">
              <path id="Path_1028" data-name="Path 1028" d="M19.387,255.808H8.746A1.246,1.246,0,0,1,7.5,254.562h0a1.246,1.246,0,0,1,1.246-1.246H19.813" transform="translate(-7.5 -233.728)" fill="none" stroke="#aba28b" stroke-linecap="round" stroke-linejoin="round" stroke-miterlimit="10" stroke-width="1"/>
              <g id="Group_477" data-name="Group 477" transform="translate(1.376 7.443)">
                <g id="Group_476" data-name="Group 476">
                  <path id="Path_1029" data-name="Path 1029" d="M28.545,103.246H25.939a1.168,1.168,0,0,1-1.168-1.168h0a1.168,1.168,0,0,1,1.168-1.168h2.605a1.168,1.168,0,0,1,1.168,1.168h0A1.168,1.168,0,0,1,28.545,103.246Z" transform="translate(-24.771 -100.908)" fill="none" stroke="#aba28b" stroke-linecap="round" stroke-linejoin="round" stroke-miterlimit="10" stroke-width="1"/>
                  <path id="Path_1030" data-name="Path 1030" d="M28.545,226.307H25.939a1.168,1.168,0,0,1-1.168-1.168h0a1.168,1.168,0,0,1,1.168-1.168h2.605a1.168,1.168,0,0,1,1.168,1.168h0A1.168,1.168,0,0,1,28.545,226.307Z" transform="translate(-24.771 -214.163)" fill="none" stroke="#aba28b" stroke-linecap="round" stroke-linejoin="round" stroke-miterlimit="10" stroke-width="1"/>
                  <path id="Path_1031" data-name="Path 1031" d="M200.807,103.246H198.2a1.168,1.168,0,0,1-1.168-1.168h0a1.168,1.168,0,0,1,1.168-1.168h2.605a1.168,1.168,0,0,1,1.168,1.168h0A1.169,1.169,0,0,1,200.807,103.246Z" transform="translate(-183.307 -100.908)" fill="none" stroke="#aba28b" stroke-linecap="round" stroke-linejoin="round" stroke-miterlimit="10" stroke-width="1"/>
                  <rect id="Rectangle_318" data-name="Rectangle 318" width="2.523" height="7.467" transform="translate(1.21 2.338)" fill="none" stroke="#aba28b" stroke-linecap="round" stroke-linejoin="round" stroke-miterlimit="10" stroke-width="1"/>
                  <rect id="Rectangle_319" data-name="Rectangle 319" width="2.523" height="7.467" transform="translate(8.073 2.338)" fill="none" stroke="#aba28b" stroke-linecap="round" stroke-linejoin="round" stroke-miterlimit="10" stroke-width="1"/>
                  <path id="Path_1032" data-name="Path 1032" d="M212.215,135.641v-5.388h2.523v4.635" transform="translate(-197.279 -127.915)" fill="none" stroke="#aba28b" stroke-linecap="round" stroke-linejoin="round" stroke-miterlimit="10" stroke-width="1"/>
                </g>
                <path id="Path_1033" data-name="Path 1033" d="M114.676,103.246H112.07a1.168,1.168,0,0,1-1.168-1.168h0a1.168,1.168,0,0,1,1.168-1.168h2.605a1.168,1.168,0,0,1,1.168,1.168h0A1.168,1.168,0,0,1,114.676,103.246Z" transform="translate(-104.039 -100.908)" fill="none" stroke="#aba28b" stroke-linecap="round" stroke-linejoin="round" stroke-miterlimit="10" stroke-width="1"/>
                <path id="Path_1034" data-name="Path 1034" d="M114.676,226.307H112.07a1.168,1.168,0,0,1-1.168-1.168h0a1.168,1.168,0,0,1,1.168-1.168h2.605a1.169,1.169,0,0,1,1.1.788" transform="translate(-104.039 -214.163)" fill="none" stroke="#aba28b" stroke-linecap="round" stroke-linejoin="round" stroke-miterlimit="10" stroke-width="1"/>
              </g>
              <g id="Group_478" data-name="Group 478" transform="translate(0)">
                <path id="Path_1035" data-name="Path 1035" d="M12.371,10.681,7.929,13.318a.873.873,0,0,0,.446,1.624H28.046a.873.873,0,0,0,.446-1.624L19.1,7.744a1.746,1.746,0,0,0-1.783,0L14.4,9.479" transform="translate(-7.5 -7.499)" fill="none" stroke="#aba28b" stroke-linecap="round" stroke-linejoin="round" stroke-miterlimit="10" stroke-width="1"/>
              </g>
            </g>
          </g>
        </g>
        <g id="Group_484" data-name="Group 484" transform="translate(2.788 6.664)">
          <g id="Group_482" data-name="Group 482" transform="translate(22.275 0)">
            <path id="Path_1036" data-name="Path 1036" d="M322.044,91.135A10.06,10.06,0,0,1,332.1,101.2" transform="translate(-322.044 -91.135)" fill="none" stroke="#aba28b" stroke-linecap="round" stroke-linejoin="round" stroke-miterlimit="10" stroke-width="1"/>
            <path id="Path_1037" data-name="Path 1037" d="M427.749,194.837l-1.658,1.958-1.958-1.658" transform="translate(-415.998 -186.574)" fill="none" stroke="#aba28b" stroke-linecap="round" stroke-linejoin="round" stroke-miterlimit="10" stroke-width="1"/>
          </g>
          <g id="Group_483" data-name="Group 483" transform="translate(0 20.993)">
            <path id="Path_1038" data-name="Path 1038" d="M73.758,366.667a10.06,10.06,0,0,1-10.06-10.06" transform="translate(-62.008 -356.447)" fill="none" stroke="#aba28b" stroke-linecap="round" stroke-linejoin="round" stroke-miterlimit="10" stroke-width="1"/>
            <path id="Path_1039" data-name="Path 1039" d="M42.492,356.552l1.658-1.958,1.958,1.658" transform="translate(-42.492 -354.594)" fill="none" stroke="#aba28b" stroke-linecap="round" stroke-linejoin="round" stroke-miterlimit="10" stroke-width="1"/>
          </g>
        </g>
        <g id="Group_487" data-name="Group 487" transform="translate(11.887 14.357)">
          <ellipse id="Ellipse_210" data-name="Ellipse 210" cx="7.914" cy="7.914" rx="7.914" ry="7.914" fill="none" stroke="#aba28b" stroke-linecap="round" stroke-linejoin="round" stroke-miterlimit="10" stroke-width="1"/>
          <ellipse id="Ellipse_211" data-name="Ellipse 211" cx="5.422" cy="5.422" rx="5.422" ry="5.422" transform="translate(2.492 2.492)" fill="none" stroke="#aba28b" stroke-linecap="round" stroke-linejoin="round" stroke-miterlimit="10" stroke-width="1"/>
          <g id="Group_486" data-name="Group 486" transform="translate(6.59 4.769)">
            <g id="Group_485" data-name="Group 485">
              <path id="Path_1040" data-name="Path 1040" d="M241.682,256.156a1.5,1.5,0,0,0-1.408-.254,1.1,1.1,0,0,0-.711,1.314c.2.631,1.107.877,1.652,1.069a1.275,1.275,0,0,1-.537,2.458,2.266,2.266,0,0,1-1.293-.348" transform="translate(-239.385 -255.169)" fill="none" stroke="#aba28b" stroke-linecap="round" stroke-linejoin="round" stroke-miterlimit="10" stroke-width="1"/>
              <line id="Line_77" data-name="Line 77" y2="0.715" transform="translate(1.293 5.575)" fill="none" stroke="#aba28b" stroke-linecap="round" stroke-linejoin="round" stroke-miterlimit="10" stroke-width="1"/>
              <line id="Line_78" data-name="Line 78" y2="0.663" transform="translate(1.293)" fill="none" stroke="#aba28b" stroke-linecap="round" stroke-linejoin="round" stroke-miterlimit="10" stroke-width="1"/>
            </g>
          </g>
        </g>
      </g>
    </g>
  </g>
</svg>
