<svg xmlns="http://www.w3.org/2000/svg" width="72.264" height="72.264" viewBox="0 0 72.264 72.264">
  <g id="Group_1_icons_-_not_selected_5" data-name="Group 1 icons - not selected 5" transform="translate(18230.182 -3103.608)">
    <g id="Group_967" data-name="Group 967">
      <circle id="Ellipse_208" data-name="Ellipse 208" cx="36.132" cy="36.132" r="36.132" transform="translate(-18157.918 3103.608) rotate(90)" fill="#d0cabe"/>
      <g id="Group_490" data-name="Group 490" transform="translate(-18225.162 3098.593)">
        <path id="Path_1044" data-name="Path 1044" d="M51.32,49.241c-.149,1.752-.155,3.573-1.1,4.877-1.4,1.919-4.452,2.248-6.372,3.646-1.9,1.383-3.15,4.2-5.433,4.936-2.2.716-4.857-.8-7.3-.8s-5.1,1.518-7.3.8c-2.283-.741-3.533-3.554-5.433-4.936-1.92-1.4-4.975-1.727-6.372-3.646-1.384-1.9-.761-4.9-1.5-7.185-.716-2.2-3.006-4.254-3.006-6.7s2.291-4.493,3.006-6.7c.741-2.283.119-5.283,1.5-7.185,1.4-1.919,4.452-2.248,6.372-3.646,1.9-1.383,3.15-4.2,5.433-4.936,2.2-.716,4.857.8,7.3.8s5.1-1.517,7.3-.8c2.283.741,3.533,3.554,5.433,4.936,1.92,1.4,4.975,1.727,6.372,3.646,1.384,1.9.761,4.9,1.5,7.185.716,2.2,3.006,4.254,3.006,6.7,0,2.1-1.687,3.9-2.617,5.766" fill="none" stroke="#aba28b" stroke-linecap="round" stroke-linejoin="round" stroke-miterlimit="10" stroke-width="1"/>
        <path id="Path_1045" data-name="Path 1045" d="M70.985,71.86a18,18,0,1,1-2.041,2.633" transform="translate(-53.059 -43.935)" fill="none" stroke="#aba28b" stroke-linecap="round" stroke-linejoin="round" stroke-miterlimit="10" stroke-width="1"/>
        <path id="Path_1046" data-name="Path 1046" d="M201.857,360.793h1.708a.381.381,0,0,0,.38-.38v-1.377a1.766,1.766,0,0,0-1.766-1.766H193.5a1.766,1.766,0,0,0-1.766,1.766v1.377a.381.381,0,0,0,.38.38h6.421" transform="translate(-166.724 -307.41)" fill="none" stroke="#aba28b" stroke-linecap="round" stroke-linejoin="round" stroke-miterlimit="10" stroke-width="1"/>
        <path id="Path_1047" data-name="Path 1047" d="M123.7,241.131h8.552v1.275a3.617,3.617,0,0,1-3.617,3.617h-1.318a3.617,3.617,0,0,1-3.617-3.617v-1.275Z" transform="translate(-105.158 -202.307)" fill="none" stroke="#aba28b" stroke-linecap="round" stroke-linejoin="round" stroke-miterlimit="10" stroke-width="1"/>
        <path id="Path_1048" data-name="Path 1048" d="M298.3,241.131h8.552v1.275a3.617,3.617,0,0,1-3.617,3.617H301.92a3.617,3.617,0,0,1-3.617-3.617v-1.275Z" transform="translate(-263.17 -202.307)" fill="none" stroke="#aba28b" stroke-linecap="round" stroke-linejoin="round" stroke-miterlimit="10" stroke-width="1"/>
        <line id="Line_79" data-name="Line 79" y1="16.086" transform="translate(29.68 33.668)" fill="none" stroke="#aba28b" stroke-linecap="round" stroke-linejoin="round" stroke-miterlimit="10" stroke-width="1"/>
        <line id="Line_80" data-name="Line 80" y2="16.086" transform="translate(32.545 33.668)" fill="none" stroke="#aba28b" stroke-linecap="round" stroke-linejoin="round" stroke-miterlimit="10" stroke-width="1"/>
        <path id="Path_1049" data-name="Path 1049" d="M240.924,121.155v-2.076a1.424,1.424,0,0,1,1.424-1.424h.017a1.424,1.424,0,0,1,1.424,1.424v2.088" transform="translate(-211.244 -90.564)" fill="none" stroke="#aba28b" stroke-linecap="round" stroke-linejoin="round" stroke-miterlimit="10" stroke-width="1"/>
        <path id="Path_1050" data-name="Path 1050" d="M157.915,155.53H160.1a1.4,1.4,0,0,1,1.4,1.4v.058a1.4,1.4,0,0,1-1.4,1.4H140.733a1.4,1.4,0,0,1-1.4-1.4v-.058a1.4,1.4,0,0,1,1.4-1.4H154.59" transform="translate(-119.303 -124.84)" fill="none" stroke="#aba28b" stroke-linecap="round" stroke-linejoin="round" stroke-miterlimit="10" stroke-width="1"/>
        <line id="Line_81" data-name="Line 81" x1="4.126" y2="5.105" transform="translate(18.541 33.719)" fill="none" stroke="#aba28b" stroke-linecap="round" stroke-linejoin="round" stroke-miterlimit="10" stroke-width="1"/>
        <line id="Line_82" data-name="Line 82" x1="4.126" y1="5.105" transform="translate(22.967 33.719)" fill="none" stroke="#aba28b" stroke-linecap="round" stroke-linejoin="round" stroke-miterlimit="10" stroke-width="1"/>
        <line id="Line_83" data-name="Line 83" x1="4.132" y2="5.113" transform="translate(35.133 33.711)" fill="none" stroke="#aba28b" stroke-linecap="round" stroke-linejoin="round" stroke-miterlimit="10" stroke-width="1"/>
        <line id="Line_84" data-name="Line 84" x1="4.132" y1="5.113" transform="translate(39.552 33.711)" fill="none" stroke="#aba28b" stroke-linecap="round" stroke-linejoin="round" stroke-miterlimit="10" stroke-width="1"/>
      </g>
    </g>
  </g>
</svg>
