<svg xmlns="http://www.w3.org/2000/svg" xmlns:xlink="http://www.w3.org/1999/xlink" width="72.264" height="72.264" viewBox="0 0 72.264 72.264">
  <defs>
    <clipPath id="clip-path">
      <path id="path2251" d="M0-682.665H40.2v40.2H0Z" transform="translate(0 682.665)" fill="none" stroke="#aba28b" stroke-width="1"/>
    </clipPath>
  </defs>
  <g id="Group_1_icons_-_not_selected_1" data-name="Group 1 icons - not selected 1" transform="translate(18598.793 -3103.608)">
    <circle id="Ellipse_204" data-name="Ellipse 204" cx="36.132" cy="36.132" r="36.132" transform="translate(-18526.529 3103.608) rotate(90)" fill="#d0cabe"/>
    <g id="g2241" transform="translate(-18582.76 3799.496)">
      <g id="g2243" transform="translate(3.236 -668.952)">
        <path id="path2245" d="M0-127.625v-7.985m33.726,0v7.985" transform="translate(0 135.61)" fill="none" stroke="#aba28b" stroke-linecap="round" stroke-linejoin="round" stroke-miterlimit="10" stroke-width="1"/>
      </g>
      <g id="g2247" transform="translate(0 -682.665)">
        <g id="g2249" clip-path="url(#clip-path)">
          <g id="g2255" transform="translate(0.589 0.69)">
            <path id="path2257" d="M-3.286-202.181a1.55,1.55,0,0,1,.565-2.11l17.89-10.328a1.707,1.707,0,0,1,.848-.211,1.7,1.7,0,0,1,.848.211l17.89,10.328a1.548,1.548,0,0,1,.565,2.11,1.545,1.545,0,0,1-2.107.565l-17.2-9.928-17.193,9.928A1.548,1.548,0,0,1-3.286-202.181Z" transform="translate(3.492 214.83)" fill="none" stroke="#aba28b" stroke-linecap="round" stroke-linejoin="round" stroke-miterlimit="10" stroke-width="1"/>
          </g>
          <g id="g2259" transform="translate(0.59 36.631)">
            <path id="path2261" d="M-292.165-45.957h-17.919a.362.362,0,0,1-.361-.361v-2.154a.362.362,0,0,1,.361-.361h38.3a.362.362,0,0,1,.361.361v2.154a.362.362,0,0,1-.361.361h-17.661" transform="translate(310.445 48.832)" fill="none" stroke="#aba28b" stroke-linecap="round" stroke-linejoin="round" stroke-miterlimit="10" stroke-width="1"/>
          </g>
          <g id="g2263" transform="translate(0.59 21.698)">
            <path id="path2265" d="M-334.03,0h17.759a.362.362,0,0,1,.36.361V2.515a.362.362,0,0,1-.36.361h-38.3a.362.362,0,0,1-.361-.361V.361A.362.362,0,0,1-354.568,0h17.919" transform="translate(354.928)" fill="none" stroke="#aba28b" stroke-linecap="round" stroke-linejoin="round" stroke-miterlimit="10" stroke-width="1"/>
          </g>
          <g id="g2267" transform="translate(2.773 24.574)">
            <path id="path2269" d="M0,0H8.477V2.219a.351.351,0,0,1-.349.349H.349A.351.351,0,0,1,0,2.219Z" fill="none" stroke="#aba28b" stroke-linecap="round" stroke-linejoin="round" stroke-miterlimit="10" stroke-width="1"/>
          </g>
          <g id="g2271" transform="translate(2.773 34.063)">
            <path id="path2273" d="M0-41.048H8.477v-2.217a.352.352,0,0,0-.349-.352H.349A.352.352,0,0,0,0-43.264Z" transform="translate(0 43.616)" fill="none" stroke="#aba28b" stroke-linecap="round" stroke-linejoin="round" stroke-miterlimit="10" stroke-width="1"/>
          </g>
          <path id="path2275" d="M75.06-214.789h5.183v-6.921H75.06Z" transform="translate(-70.64 248.852)" fill="none" stroke="#aba28b" stroke-linecap="round" stroke-linejoin="round" stroke-miterlimit="10" stroke-width="1"/>
          <g id="g2277" transform="translate(15.858 24.574)">
            <path id="path2279" d="M0,0H8.479V2.219a.352.352,0,0,1-.352.349H.352A.352.352,0,0,1,0,2.219Z" fill="none" stroke="#aba28b" stroke-linecap="round" stroke-linejoin="round" stroke-miterlimit="10" stroke-width="1"/>
          </g>
          <g id="g2281" transform="translate(15.858 34.063)">
            <path id="path2283" d="M0-41.048H8.479v-2.217a.352.352,0,0,0-.352-.352H.352A.352.352,0,0,0,0-43.264Z" transform="translate(0 43.616)" fill="none" stroke="#aba28b" stroke-linecap="round" stroke-linejoin="round" stroke-miterlimit="10" stroke-width="1"/>
          </g>
          <path id="path2285" d="M297.329-214.789h5.181v-6.921h-5.181Z" transform="translate(-279.821 248.852)" fill="none" stroke="#aba28b" stroke-linecap="round" stroke-linejoin="round" stroke-miterlimit="10" stroke-width="1"/>
          <g id="g2287" transform="translate(28.946 24.574)">
            <path id="path2289" d="M0,0H8.479V2.219a.352.352,0,0,1-.352.349H.352A.352.352,0,0,1,0,2.219Z" fill="none" stroke="#aba28b" stroke-linecap="round" stroke-linejoin="round" stroke-miterlimit="10" stroke-width="1"/>
          </g>
          <g id="g2291" transform="translate(28.946 34.063)">
            <path id="path2293" d="M0-41.048H8.479v-2.217a.352.352,0,0,0-.352-.352H.352A.352.352,0,0,0,0-43.264Z" transform="translate(0 43.616)" fill="none" stroke="#aba28b" stroke-linecap="round" stroke-linejoin="round" stroke-miterlimit="10" stroke-width="1"/>
          </g>
          <path id="path2295" d="M519.6-214.789h5.181v-6.921H519.6Z" transform="translate(-489.003 248.852)" fill="none" stroke="#aba28b" stroke-linecap="round" stroke-linejoin="round" stroke-miterlimit="10" stroke-width="1"/>
          <g id="g2297" transform="translate(18.299 7.458)">
            <path id="path2299" d="M-30.127-60.257a1.89,1.89,0,0,0,1.885-1.885,1.89,1.89,0,0,0-1.885-1.885,1.889,1.889,0,0,0-1.885,1.885A1.889,1.889,0,0,0-30.127-60.257Z" transform="translate(32.012 64.027)" fill="none" stroke="#aba28b" stroke-linecap="round" stroke-linejoin="round" stroke-miterlimit="10" stroke-width="1"/>
          </g>
          <g id="g2301" transform="translate(10.283 14.185)">
            <path id="path2303" d="M-38.046-16.817A1.052,1.052,0,0,1-39.1-15.765c-.288,0-1.328,0-1.328,0v-2.109H-39.1A1.052,1.052,0,0,1-38.046-16.817Z" transform="translate(40.427 17.869)" fill="none" stroke="#aba28b" stroke-linecap="round" stroke-linejoin="round" stroke-miterlimit="10" stroke-width="1"/>
          </g>
          <g id="g2305" transform="translate(10.283 16.29)">
            <path id="path2307" d="M-44.609-19.673a1.231,1.231,0,0,1-1.231,1.231c-.337,0-1.56.005-1.56.005V-20.9h1.56A1.231,1.231,0,0,1-44.609-19.673Z" transform="translate(47.4 20.904)" fill="none" stroke="#aba28b" stroke-linecap="round" stroke-linejoin="round" stroke-miterlimit="10" stroke-width="1"/>
          </g>
          <g id="g2309" transform="translate(15.289 14.185)">
            <path id="path2311" d="M0-73.086l1.717-4.508a.1.1,0,0,1,.192,0l1.7,4.508" transform="translate(0 77.658)" fill="none" stroke="#aba28b" stroke-linecap="round" stroke-linejoin="round" stroke-miterlimit="10" stroke-width="1"/>
          </g>
          <g id="g2313" transform="translate(15.824 17.635)">
            <path id="path2315" d="M0,0H2.548" fill="none" stroke="#aba28b" stroke-linecap="round" stroke-linejoin="round" stroke-miterlimit="10" stroke-width="1"/>
          </g>
          <g id="g2317" transform="translate(21.302 14.185)">
            <path id="path2319" d="M0-73.086V-77.65l3.086,4.468c.057.083.118.042.118-.058l-.043-4.419" transform="translate(0 77.658)" fill="none" stroke="#aba28b" stroke-linecap="round" stroke-linejoin="round" stroke-miterlimit="10" stroke-width="1"/>
          </g>
          <g id="g2321" transform="translate(27.394 14.128)">
            <path id="path2323" d="M0,0V4.63" fill="none" stroke="#aba28b" stroke-linecap="round" stroke-linejoin="round" stroke-miterlimit="10" stroke-width="1"/>
          </g>
          <g id="g2325" transform="translate(27.542 14.186)">
            <path id="path2327" d="M-37.438,0-39.78,2.153l2.507,2.418" transform="translate(39.78)" fill="none" stroke="#aba28b" stroke-linecap="round" stroke-linejoin="round" stroke-miterlimit="10" stroke-width="1"/>
          </g>
        </g>
      </g>
    </g>
  </g>
</svg>
