<svg xmlns="http://www.w3.org/2000/svg" width="119" height="119" viewBox="0 0 119 119">
  <g id="not_selected_2" data-name="not selected 2" transform="translate(2798 -5181)">
    <circle id="Ellipse_100" data-name="Ellipse 100" cx="59.5" cy="59.5" r="59.5" transform="translate(-2679 5181) rotate(90)" fill="#e0b2c2"/>
    <path id="Path_830" data-name="Path 830" d="M29.551,70.708a.786.786,0,0,1,.785-.785,1.72,1.72,0,0,0,1.7-1.7.785.785,0,1,1,1.57,0,3.27,3.27,0,0,1-3.267,3.267A.786.786,0,0,1,29.551,70.708ZM74.367,57.9v12.69a3.778,3.778,0,0,1-3.774,3.774H47.21a3.778,3.778,0,0,1-3.774-3.774V57.9a3.778,3.778,0,0,1,3.774-3.774h2.007l5.732-6.078a2.093,2.093,0,0,1,3.616,1.436v4.643H70.593A3.776,3.776,0,0,1,74.367,57.9Zm-1.57,0a2.207,2.207,0,0,0-2.2-2.2H57.779a.786.786,0,0,1-.785-.785V49.485a.523.523,0,0,0-.9-.36l-5.964,6.326a.785.785,0,0,1-.572.246H47.209A2.207,2.207,0,0,0,45,57.9v12.69a2.207,2.207,0,0,0,2.2,2.2H70.591a2.207,2.207,0,0,0,2.2-2.2V57.9ZM68.5,59.419H66.829a.785.785,0,0,0,0,1.57H68.5a.785.785,0,1,0,0-1.57Zm-4.711,0H49.3a.785.785,0,1,0,0,1.57h14.5a.785.785,0,1,0,0-1.57ZM68.5,63.463H66.829a.785.785,0,0,0,0,1.57H68.5a.785.785,0,1,0,0-1.57Zm-4.711,0H49.3a.785.785,0,1,0,0,1.57h14.5a.785.785,0,1,0,0-1.57ZM68.5,67.508H66.829a.785.785,0,0,0,0,1.57H68.5a.785.785,0,0,0,0-1.57Zm-4.711,0H49.3a.785.785,0,0,0,0,1.57h14.5a.785.785,0,0,0,0-1.57ZM65.279,21.75a.781.781,0,0,0,.556.293l.058,0a.783.783,0,0,0,.535-.211l4.095-3.823a.785.785,0,1,0-1.071-1.147l-3.475,3.245-1.3-1.635a.785.785,0,1,0-1.227.979Zm9.089,19.492a7.562,7.562,0,0,1-15.083.785h-2.1a3.638,3.638,0,0,1-3.633-3.633V31.121H50.656A20.377,20.377,0,0,1,34.945,50.146v4.879h.747a.786.786,0,0,1,.785.785V68.226a6.141,6.141,0,0,1-12.282,0V55.809a.786.786,0,0,1,.785-.785h.747V50.146A20.337,20.337,0,1,1,50.656,29.551h2.891V22.278a3.638,3.638,0,0,1,3.633-3.633h2.1a7.562,7.562,0,1,1,0,1.57h-2.1a2.066,2.066,0,0,0-2.063,2.063V38.393a2.066,2.066,0,0,0,2.063,2.063h2.1a7.562,7.562,0,0,1,15.083.785ZM60.813,19.431a5.992,5.992,0,1,0,5.992-5.992A6,6,0,0,0,60.813,19.431ZM34.908,56.594H25.765V68.226a4.571,4.571,0,0,0,9.142,0V56.594Zm-1.533-6.149a20.4,20.4,0,0,1-6.078,0v4.578h6.078Zm15.71-19.324H45.31a15.007,15.007,0,1,1,0-1.57h3.776a18.766,18.766,0,1,0,0,1.57Zm-7.792-2.586H39.135V40.467a13.521,13.521,0,0,0,2.157-2.382Zm1.57,6.629a13.357,13.357,0,0,0,.875-4.043h-.875Zm.874-5.612A13.424,13.424,0,1,0,17.81,35.163V32.352a.786.786,0,0,1,.785-.785h3.727a.786.786,0,0,1,.785.785v9.293a13.342,13.342,0,0,0,1.287.727V23.453a.786.786,0,0,1,.785-.785h3.727a.786.786,0,0,1,.785.785V43.746q.32.016.644.016t.644-.016V30.1a.786.786,0,0,1,.785-.785h3.727a.786.786,0,0,1,.785.785v12.27a13.5,13.5,0,0,0,1.287-.727v-13.9a.786.786,0,0,1,.785-.785h3.727a.786.786,0,0,1,.785.785v1.8h.875Zm-9.028,1.336H32.551V43.578a13.16,13.16,0,0,0,2.157-.548Zm-6.585-6.649H25.966V43.03a13.329,13.329,0,0,0,2.157.548Zm-6.586,8.9H19.38v4.949a13.573,13.573,0,0,0,2.157,2.382Zm51.259,8.1a5.992,5.992,0,1,0-5.992,5.992A6,6,0,0,0,72.8,41.242Zm-3.345-2.568-3.475,3.245-1.3-1.635a.785.785,0,1,0-1.227.979l1.834,2.3a.781.781,0,0,0,.556.293l.058,0a.784.784,0,0,0,.535-.211l4.095-3.823a.785.785,0,1,0-1.071-1.147Z" transform="translate(-2783.179 5200.268)" fill="#c26685"/>
  </g>
</svg>
