<svg xmlns="http://www.w3.org/2000/svg" width="119" height="119" viewBox="0 0 119 119">
  <g id="not_selected_3" data-name="not selected 3" transform="translate(2647 -5181)">
    <g id="Group_672" data-name="Group 672" transform="translate(-2646.577 5181.291)">
      <circle id="Ellipse_101" data-name="Ellipse 101" cx="59.5" cy="59.5" r="59.5" transform="translate(118.577 -0.29) rotate(90)" fill="#e0b2c2"/>
      <g id="Group_322" data-name="Group 322" transform="translate(28.957 32.316)">
        <path id="Path_831" data-name="Path 831" d="M2,2H6V4H2Z" transform="translate(-2 -2)" fill="#c26685"/>
        <path id="Path_832" data-name="Path 832" d="M8,2h6.007V4H8Z" transform="translate(-1.993 -2)" fill="#c26685"/>
        <path id="Path_833" data-name="Path 833" d="M58,2h4V4H58Z" transform="translate(-1.931 -2)" fill="#c26685"/>
        <path id="Path_834" data-name="Path 834" d="M50,2h6.007V4H50Z" transform="translate(-1.941 -2)" fill="#c26685"/>
        <path id="Path_835" data-name="Path 835" d="M40.033,48.057h-.821L40.934,37.7A18.823,18.823,0,0,0,51.047,21.023a19.023,19.023,0,1,0-38.047,0A18.823,18.823,0,0,0,23.112,37.7l1.722,10.353h-.821a3,3,0,0,0,0,6.007h1v2h-1a1,1,0,0,0-1,1v2a3,3,0,0,0,3,3H38.031a3,3,0,0,0,3-3v-2a1,1,0,0,0-1-1h-1v-2h1a3,3,0,1,0,0-6.007ZM25,36.878a1,1,0,0,0-.542-.731A16.844,16.844,0,0,1,15,21.023a17.021,17.021,0,0,1,34.042,0,16.844,16.844,0,0,1-9.457,15.119,1,1,0,0,0-.542.731L37.183,48.057H33.025V34.039h7.009a1,1,0,0,0,1-1v-4a5,5,0,0,0-3.294-4.685,4.97,4.97,0,0,0,1.292-3.325V17.835a2.986,2.986,0,0,0-.054-5.656,7.009,7.009,0,0,0-13.909,0,2.986,2.986,0,0,0-.054,5.656v3.188a4.97,4.97,0,0,0,1.292,3.325,5,5,0,0,0-3.294,4.685v4a1,1,0,0,0,1,1h7.009V48.057H26.864Zm8.024-28.77a5.022,5.022,0,0,1,3.9,3.9h-3.9Zm-2,3.9h-3.9a5.022,5.022,0,0,1,3.9-3.9Zm-5.006,2H38.031a1,1,0,1,1,0,2H26.016a1,1,0,1,1,0-2Zm1,4H37.03v3a3,3,0,0,1-3,3h-4a3,3,0,0,1-3-3Zm2,8.01h6.007v2H29.02Zm8.01.184a3,3,0,0,1,2,2.819v3h-2Zm-10.012,0v5.823h-2v-3a3,3,0,0,1,2-2.819Zm2,3.821h6.007v2H29.02ZM39.032,59.07a1,1,0,0,1-1,1H26.016a1,1,0,0,1-1-1v-1H39.032Zm-2-3H27.017v-2H37.03Zm3-4H24.014a1,1,0,0,1,0-2h16.02a1,1,0,1,1,0,2Z" transform="translate(-1.986 -2)" fill="#c26685"/>
        <path id="Path_836" data-name="Path 836" d="M61.021,40.007h-.758l.536-.537a1,1,0,0,0,0-1.416l-2.832-2.831a1.03,1.03,0,0,0-1.416,0l-.536.536V35a1,1,0,0,0-1-1h-4a1,1,0,0,0-1,1v.758l-.536-.536a1,1,0,0,0-1.416,0l-2.832,2.831a1,1,0,0,0,0,1.416l.536.537H45a1,1,0,0,0-1,1v4a1,1,0,0,0,1,1h.758l-.536.537a1,1,0,0,0,0,1.416L48.056,50.8a1.03,1.03,0,0,0,1.416,0l.536-.536v.758a1,1,0,0,0,1,1h4a1,1,0,0,0,1-1v-.758l.536.536a1,1,0,0,0,1.416,0L60.8,47.967a1,1,0,0,0,0-1.416l-.536-.537h.758a1,1,0,0,0,1-1v-4A1,1,0,0,0,61.021,40.007Zm-1,4H57.845a1,1,0,0,0-.708,1.709l1.538,1.538-1.417,1.416-1.537-1.537a1,1,0,0,0-1.709.708V50.02h-2V47.846a1,1,0,0,0-1.709-.708l-1.537,1.537-1.417-1.416,1.538-1.538a1,1,0,0,0-.708-1.709H46v-2h2.175a1,1,0,0,0,.708-1.709l-1.538-1.538,1.417-1.416L50.3,38.884a1,1,0,0,0,1.709-.708V36h2v2.174a1,1,0,0,0,1.709.708l1.537-1.537,1.417,1.416L57.137,40.3a1,1,0,0,0,.708,1.709H60.02Z" transform="translate(-1.948 -1.961)" fill="#c26685"/>
        <path id="Path_837" data-name="Path 837" d="M53,40a3,3,0,1,0,3,3,3,3,0,0,0-3-3Zm0,4a1,1,0,1,1,1-1A1,1,0,0,1,53,44Z" transform="translate(-1.941 -1.953)" fill="#c26685"/>
        <path id="Path_838" data-name="Path 838" d="M19.021,40.007h-.758l.536-.537a1,1,0,0,0,0-1.416l-2.832-2.831a1.03,1.03,0,0,0-1.416,0l-.536.536V35a1,1,0,0,0-1-1h-4a1,1,0,0,0-1,1v.758l-.536-.536a1,1,0,0,0-1.416,0L3.224,38.055a1,1,0,0,0,0,1.416l.536.537H3a1,1,0,0,0-1,1v4a1,1,0,0,0,1,1h.758l-.536.537a1,1,0,0,0,0,1.416L6.056,50.8a1.03,1.03,0,0,0,1.416,0l.536-.536v.758a1,1,0,0,0,1,1h4a1,1,0,0,0,1-1v-.758l.536.536a1,1,0,0,0,1.416,0L18.8,47.967a1,1,0,0,0,0-1.416l-.536-.537h.758a1,1,0,0,0,1-1v-4A1,1,0,0,0,19.021,40.007Zm-1,4H15.845a1,1,0,0,0-.708,1.709l1.538,1.538-1.417,1.416-1.537-1.537a1,1,0,0,0-1.709.708V50.02h-2V47.846A1,1,0,0,0,8.3,47.138L6.764,48.675,5.347,47.259l1.538-1.538a1,1,0,0,0-.708-1.709H4v-2H6.177A1,1,0,0,0,6.885,40.3L5.347,38.763l1.417-1.416L8.3,38.884a1,1,0,0,0,1.709-.708V36h2v2.174a1,1,0,0,0,1.709.708l1.537-1.537,1.417,1.416L15.137,40.3a1,1,0,0,0,.708,1.709H18.02Z" transform="translate(-2 -1.961)" fill="#c26685"/>
        <path id="Path_839" data-name="Path 839" d="M11,40a3,3,0,1,0,3,3A3,3,0,0,0,11,40Zm0,4a1,1,0,1,1,1-1A1,1,0,0,1,11,44Z" transform="translate(-1.993 -1.953)" fill="#c26685"/>
        <path id="Path_840" data-name="Path 840" d="M2,8H6v2H2Z" transform="translate(-2 -1.993)" fill="#c26685"/>
        <path id="Path_841" data-name="Path 841" d="M8,8h6.007v2H8Z" transform="translate(-1.993 -1.993)" fill="#c26685"/>
        <path id="Path_842" data-name="Path 842" d="M58,8h4v2H58Z" transform="translate(-1.931 -1.993)" fill="#c26685"/>
        <path id="Path_843" data-name="Path 843" d="M50,8h6.007v2H50Z" transform="translate(-1.941 -1.993)" fill="#c26685"/>
      </g>
    </g>
  </g>
</svg>
