<svg xmlns="http://www.w3.org/2000/svg" width="72.264" height="72.264" viewBox="0 0 72.264 72.264">
  <g id="Group_1_icons_-_not_selected_4" data-name="Group 1 icons - not selected 4" transform="translate(18323.209 -3103.608)">
    <circle id="Ellipse_207" data-name="Ellipse 207" cx="36.132" cy="36.132" r="36.132" transform="translate(-18250.945 3103.608) rotate(90)" fill="#d0cabe"/>
    <g id="Group_489" data-name="Group 489" transform="translate(-18332.064 3118.663)">
      <path id="Path_1041" data-name="Path 1041" d="M51.783,181.767A15.039,15.039,0,0,1,31.541,159.9l.025,1.922a.591.591,0,0,0,.591.583h.008a.591.591,0,0,0,.583-.6l-.045-3.422a.591.591,0,0,0-.583-.583l-3.422-.045a.591.591,0,0,0-.015,1.182l2.1.027a16.219,16.219,0,0,0,11.043,26.642q.667.055,1.332.055a16.227,16.227,0,0,0,9.3-2.927.591.591,0,0,0-.678-.967Z" transform="translate(0 -145.329)" fill="#aba28b"/>
      <path id="Path_1042" data-name="Path 1042" d="M240.892,289.2a12.717,12.717,0,0,1-1.46-.588.349.349,0,0,1-.172-.361.64.64,0,0,1,.487-.532,1.831,1.831,0,0,1,1.519.349.591.591,0,0,0,.758-.907,3.282,3.282,0,0,0-1.331-.624v-.5a.591.591,0,1,0-1.182,0v.526l-.1.029a1.828,1.828,0,0,0-1.322,1.542,1.519,1.519,0,0,0,.782,1.52c1.1.6,2.486.711,2.353,1.456a.961.961,0,0,1-.992.659,1.911,1.911,0,0,1-1.4-.589.591.591,0,1,0-.876.793,3.035,3.035,0,0,0,1.563.895v.53a.591.591,0,0,0,1.182,0V292.9a2.043,2.043,0,0,0,1.69-1.587A1.924,1.924,0,0,0,240.892,289.2Z" transform="translate(-194.242 -262.957)" fill="#aba28b"/>
      <path id="Path_1043" data-name="Path 1043" d="M121.343,4.658a.591.591,0,1,0-1,.632,8.765,8.765,0,0,1,1.108,2.6h-4.086a1.8,1.8,0,0,1-1.093-.372l-.612-.472a1.733,1.733,0,0,0-1.578-.28,1.732,1.732,0,0,0-.635,2.942l1.3,1.163a1.8,1.8,0,0,1,.59,1.476v.015a2.958,2.958,0,0,0,1.264,2.664l2.2,1.517a8.786,8.786,0,0,1-6.969,2.215,1.927,1.927,0,0,0-1.656-1.565c1-1.467,1.071-3.117.4-4-1.117-1.469-2.757-.867-3.842-.469a3.942,3.942,0,0,1-1.012.289,3.943,3.943,0,0,1-1.012-.289l-.243-.088a8.753,8.753,0,0,1-.334-1.525l5.165-.44A1.67,1.67,0,0,0,110.834,9V8.823a1.726,1.726,0,0,0-.25-.882.779.779,0,0,1-.094-.729c.294-.765,1.784-1.641,3.887-2.288a1.3,1.3,0,0,0-.171-2.523l-2.242-.37a1.132,1.132,0,0,1-.659-.362l-.262-.294a8.826,8.826,0,0,1,7.619,1.961.591.591,0,1,0,.774-.893A10.005,10.005,0,0,0,103.1,7.9a16.3,16.3,0,0,0-9.381,2.926.591.591,0,1,0,.678.967,15.1,15.1,0,0,1,8.521-2.712,10.1,10.1,0,0,0,.222,3.216,2.29,2.29,0,0,0-2.28.907c-.67.881-.594,2.531.4,4a1.922,1.922,0,0,0-.676,3.6,10.2,10.2,0,0,0-.631.933H97.641a.591.591,0,0,0,0,1.182h1.706a10.359,10.359,0,0,0-.635,1.913H94.06a.957.957,0,0,1,0-1.913h.824a.591.591,0,0,0,0-1.182H94.06a2.137,2.137,0,0,0-1.473,3.686,2.133,2.133,0,0,0,0,3.1A2.136,2.136,0,0,0,94.06,32.2h6.991l.041,0a7.218,7.218,0,0,0,11.85-5.539,10.128,10.128,0,0,0-2.093-5.858,1.936,1.936,0,0,0,.822-.863,9.971,9.971,0,0,0,5.509-.9,15.076,15.076,0,0,1-2.536,14.617l-.025-1.921a.591.591,0,0,0-1.182.015l.045,3.422a.591.591,0,0,0,.583.583l3.43.045a.591.591,0,0,0,.008-1.182l-2.1-.027a16.259,16.259,0,0,0,2.823-16.131,10,10,0,0,0,3.116-13.8ZM109.788,1.743l.636.713a2.318,2.318,0,0,0,1.348.742l2.242.37a.117.117,0,0,1,.016.227c-1.479.454-4.048,1.447-4.643,2.993a1.96,1.96,0,0,0,.182,1.759.546.546,0,0,1,.083.276V9a.5.5,0,0,1-.456.5l-5.134.437a8.838,8.838,0,0,1,5.726-8.195Zm-7.982,12.171c.549-.722,1.308-.51,2.494-.074a2.969,2.969,0,0,0,2.839,0c1.186-.435,1.945-.648,2.494.074.417.549.226,2.059-.975,3.268h-5.877C101.58,15.973,101.389,14.464,101.807,13.915Zm-.3,4.45h8.434a.741.741,0,1,1,0,1.482H101.5a.741.741,0,1,1,0-1.482Zm-8.4,8.6a.958.958,0,0,1,.957-.957h4.466q-.028.328-.028.648a7.232,7.232,0,0,0,.111,1.265H94.06A.958.958,0,0,1,93.1,26.964Zm0,3.095a.957.957,0,0,1,.956-.956h4.865a7.216,7.216,0,0,0,1.041,1.913H94.06A.957.957,0,0,1,93.1,30.059ZM105.72,32.7a6.047,6.047,0,0,1-6.04-6.04,8.944,8.944,0,0,1,2.251-5.627h7.58a8.936,8.936,0,0,1,2.25,5.627,6.047,6.047,0,0,1-6.04,6.04Zm10.794-20.233v-.015A2.988,2.988,0,0,0,115.536,10l-1.3-1.163a.55.55,0,0,1,.2-.935.551.551,0,0,1,.5.089l.612.472a2.987,2.987,0,0,0,1.814.618h4.293a8.789,8.789,0,0,1-2.03,6.61l-2.357-1.628a1.772,1.772,0,0,1-.758-1.6Z" transform="translate(-59.86 0)" fill="#aba28b"/>
    </g>
  </g>
</svg>
