<svg xmlns="http://www.w3.org/2000/svg" width="119" height="119" viewBox="0 0 119 119">
  <g id="not_selected_1" data-name="not selected 1" transform="translate(2943 -5181)">
    <g id="Group_1013" data-name="Group 1013" transform="translate(-2942.842 5181.291)">
      <circle id="Ellipse_100" data-name="Ellipse 100" cx="59.5" cy="59.5" r="59.5" transform="translate(118.842 -0.29) rotate(90)" fill="#e0b2c2"/>
    </g>
    <g id="Layer_27" data-name="Layer 27" transform="translate(-2339.911 5261.88)">
      <path id="Path_829" data-name="Path 829" d="M65.6,7.354A1.059,1.059,0,0,0,66.66,6.3V2.059A1.059,1.059,0,0,0,65.6,1H2.059A1.059,1.059,0,0,0,1,2.059V6.3A1.059,1.059,0,0,0,2.059,7.354H3.118V43.362H2.059A1.059,1.059,0,0,0,1,44.421v4.236a1.059,1.059,0,0,0,1.059,1.059H28.641a5.3,5.3,0,0,0,4.13,4.13V60.5a3.177,3.177,0,1,0,2.118,0V53.846a5.3,5.3,0,0,0,4.13-4.13H65.6a1.059,1.059,0,0,0,1.059-1.059V44.421A1.059,1.059,0,0,0,65.6,43.362H64.542V7.354ZM3.118,3.118H64.542V5.236H3.118ZM47.164,7.354l-.932.932a6.142,6.142,0,0,0-.752,7.869L32.655,18.273a6.746,6.746,0,0,0-1.927-3.844l-.741-.741a3.6,3.6,0,0,0-2.51-1.038,1.514,1.514,0,0,1-1.059-.434l-1.3-1.313a4.914,4.914,0,0,0-6.926,0l-.932.932a4.914,4.914,0,0,0,0,6.926l1.631,1.62a1.62,1.62,0,0,1,.36.593l.678,2.033a3.643,3.643,0,0,0,.879,1.409,6.788,6.788,0,0,0,4.829,2h.657A6.354,6.354,0,0,0,29.8,25.358L32.6,28.535,25.5,32.845a8.578,8.578,0,0,0-4.374-1.133,4.066,4.066,0,0,1-2.87-1.186l-3.358-3.358a6.164,6.164,0,0,0-8.726,0l-.932.932V7.354ZM50.775,23.24a8.716,8.716,0,0,0,2.552,6.174l.4.4a10.04,10.04,0,0,0,7.149,2.955h1.546v9.1l-4.014-4.024a6.481,6.481,0,0,0-4.586-1.9h-.8a4.374,4.374,0,0,1-3.082-1.281,6.481,6.481,0,0,0-4.586-1.9H43.489a6.354,6.354,0,0,0-3.505,1.059l-4.13-4.713L49.8,20.645a4.067,4.067,0,0,1,.974,2.595ZM30.653,43.362V41.815A10.04,10.04,0,0,0,27.7,34.667l-.392-.392,6.714-4.067L38.384,35.2l-1.25,1.239a11.258,11.258,0,0,0-3.251,6.926Zm7.985-5.422L39.782,36.8l.773.879a3.039,3.039,0,0,0-.371,1.451,3.177,3.177,0,1,0,1.906-2.912l-.678-.773a4.437,4.437,0,0,1,2.118-.551h1.864a4.374,4.374,0,0,1,3.082,1.281,6.481,6.481,0,0,0,4.543,1.9h.8a4.374,4.374,0,0,1,3.082,1.281l4.024,4.014H36.012a9.1,9.1,0,0,1,2.626-5.422Zm4.723.127A1.059,1.059,0,1,1,42.3,39.125,1.059,1.059,0,0,1,43.362,38.066Zm6.8-20.122L49.8,17.6l1.3-.222ZM48.3,19.078l-13.852,8.4L31.363,23.96a6.513,6.513,0,0,0,1.409-3.527l14.488-2.415ZM29.35,18.855a3.177,3.177,0,1,0-1.663,4.12l.678.773a4.437,4.437,0,0,1-2.118.551h-.657a4.681,4.681,0,0,1-3.336-1.377,1.62,1.62,0,0,1-.36-.593L21.217,20.3a3.738,3.738,0,0,0-.868-1.409h0l-1.62-1.631a2.764,2.764,0,0,1,0-3.918l.932-.932a2.764,2.764,0,0,1,3.918,0l1.345,1.3a3.6,3.6,0,0,0,2.552,1.059,1.514,1.514,0,0,1,1.059.434l.741.741a4.723,4.723,0,0,1,1.313,2.7Zm-2.934,2.266a1.059,1.059,0,1,1,1.059-1.059A1.059,1.059,0,0,1,26.417,21.122Zm2.806.392a2.945,2.945,0,0,0,.222-.53l1.123-.191a4.236,4.236,0,0,1-.635,1.536ZM5.236,31.087l2.425-2.425a4.173,4.173,0,0,1,5.74,0l3.357,3.357a6.132,6.132,0,0,0,4.363,1.811,6.682,6.682,0,0,1,2.2.381l-3.717,2.245A3.177,3.177,0,1,0,20,38.7l5.412-3.283a4.034,4.034,0,0,1,.381.349l.4.4a7.89,7.89,0,0,1,2.34,5.645v1.546H5.236Zm12.708,6.979a1.059,1.059,0,1,1-1.059-1.059A1.059,1.059,0,0,1,17.945,38.066ZM33.83,64.542a1.059,1.059,0,1,1,1.059-1.059A1.059,1.059,0,0,1,33.83,64.542Zm0-12.708a3.177,3.177,0,0,1-2.986-2.118h5.973a3.177,3.177,0,0,1-2.986,2.118ZM64.542,47.6H3.118V45.48H64.542ZM62.424,30.653H60.878a7.89,7.89,0,0,1-5.645-2.34l-.4-.4a6.555,6.555,0,0,1-1.938-4.67,6.28,6.28,0,0,0-1.25-3.717l2.309-1.377a3.177,3.177,0,1,0-.868-3.241L48,15.752l-.233-.233a4.067,4.067,0,0,1,0-5.74L50.15,7.354H62.424ZM55.011,15.827a1.059,1.059,0,1,1,1.059,1.059A1.059,1.059,0,0,1,55.011,15.827Z" transform="translate(-577.419 -49.71)" fill="#c26685"/>
    </g>
  </g>
</svg>
