<svg xmlns="http://www.w3.org/2000/svg" width="200.947" height="259.795" viewBox="0 0 200.947 259.795">
  <g id="Page-1" transform="translate(0.85 0.85)">
    <g id="_013---Thinking-of-Conversation" data-name="013---Thinking-of-Conversation">
      <path id="Shape" d="M12.994,144.952H76.3c.147.173.247.372.407.533L93.5,162.278a8.663,8.663,0,0,0,12.249,0l16.793-16.793c.16-.16.26-.36.407-.533h63.3a13,13,0,0,0,12.994-12.994v-30.32A73.635,73.635,0,0,0,127.082,28a8.663,8.663,0,0,0-5.02,1.481L99.624,44.461,77.183,29.5A9.663,9.663,0,0,0,72.167,28,73.635,73.635,0,0,0,0,101.637v30.32A12.994,12.994,0,0,0,12.994,144.952Zm86.63,11.2L82.831,139.36,98.559,84.311h2.131l15.728,55.049Zm0-100.924,10.95,8.724-8.784,11.7H97.459l-8.784-11.7Zm44.129-15.97a64.713,64.713,0,0,1,46.832,62.378v30.32a4.332,4.332,0,0,1-4.331,4.331h-30.32V88.642a4.331,4.331,0,1,0-8.663,0v47.646H124.548L108.72,80.846l9.035-12.016a8.559,8.559,0,0,0,9.785-3.686Zm-16.841-2.595a65.51,65.51,0,0,1,7.831.624L120.194,60.557l-13.237-10.59Zm-54.533.026L92.3,49.962,79.067,60.552,64.518,37.292a63.147,63.147,0,0,1,7.862-.589ZM8.663,101.637A64.717,64.717,0,0,1,55.5,39.237L71.716,65.161a8.576,8.576,0,0,0,9.789,3.69l9.022,11.994L74.7,136.289H51.978V88.642a4.331,4.331,0,1,0-8.663,0v47.646H12.994a4.331,4.331,0,0,1-4.331-4.331Z" transform="translate(0 93.28)" fill="#45596d" stroke="#f9f9f9" stroke-width="1.7"/>
      <path id="Shape-2" data-name="Shape" d="M76.3,0C38.091,0,7,26.231,7,58.475S38.091,116.95,76.3,116.95a79.582,79.582,0,0,0,34.258-7.619l24.187,7.26a8.529,8.529,0,0,0,2.473.364,8.663,8.663,0,0,0,7.749-12.561l-8.459-16.936a51.471,51.471,0,0,0,9.1-28.982C145.608,26.232,114.516,0,76.3,0ZM127.61,88.995l9.651,19.293h-.035l-25.807-7.749a4.331,4.331,0,0,0-3.21.29A70.6,70.6,0,0,1,76.3,108.287c-33.439,0-60.641-22.346-60.641-49.812S42.865,8.663,76.3,8.663s60.641,22.346,60.641,49.812a43.2,43.2,0,0,1-8.927,25.989,4.332,4.332,0,0,0-.407,4.531Z" transform="translate(23.32)" fill="#45596d" stroke="#f9f9f9" stroke-width="1.7"/>
      <path id="Shape-3" data-name="Shape" d="M24.995,10A12.994,12.994,0,1,0,37.989,22.994,12.994,12.994,0,0,0,24.995,10Zm0,17.326a4.331,4.331,0,1,1,4.331-4.331A4.331,4.331,0,0,1,24.995,27.326Z" transform="translate(39.978 33.315)" fill="#b81416" stroke="#f9f9f9" stroke-width="1.7"/>
      <path id="Shape-4" data-name="Shape" d="M32.994,10A12.994,12.994,0,1,0,45.989,22.994,12.994,12.994,0,0,0,32.994,10Zm0,17.326a4.331,4.331,0,1,1,4.331-4.331A4.331,4.331,0,0,1,32.994,27.326Z" transform="translate(66.63 33.315)" fill="#b81416" stroke="#f9f9f9" stroke-width="1.7"/>
      <path id="Shape-5" data-name="Shape" d="M40.994,10A12.994,12.994,0,1,0,53.989,22.994,12.994,12.994,0,0,0,40.994,10Zm0,17.326a4.331,4.331,0,1,1,4.331-4.331A4.331,4.331,0,0,1,40.994,27.326Z" transform="translate(93.282 33.315)" fill="#b81416" stroke="#f9f9f9" stroke-width="1.7"/>
    </g>
  </g>
</svg>
