<svg xmlns="http://www.w3.org/2000/svg" width="137" height="137" viewBox="0 0 137 137">
  <g id="_selected_2" data-name=" selected 2" transform="translate(-9673.252 -4528)">
    <g id="Group_1066" data-name="Group 1066" transform="translate(9236.252 41)">
      <circle id="Ellipse_41" data-name="Ellipse 41" cx="68.5" cy="68.5" r="68.5" transform="translate(574 4487) rotate(90)" fill="#903"/>
    </g>
    <g id="education_15421604" transform="translate(9697.627 4553.883)">
      <path id="Path_1660" data-name="Path 1660" d="M78.219,79.2V11.6a3.988,3.988,0,0,0-3.976-3.976H57.014a2.658,2.658,0,0,0-2.651-2.651H51.54a5.3,5.3,0,0,0-10.258,0H38.459a2.658,2.658,0,0,0-2.651,2.651h-7.25A14.565,14.565,0,1,0,14.6,32.238V79.2a3.988,3.988,0,0,0,3.976,3.976H74.243A3.988,3.988,0,0,0,78.219,79.2ZM38.459,7.627h3.976A1.329,1.329,0,0,0,43.76,6.3a2.651,2.651,0,1,1,5.3,0,1.329,1.329,0,0,0,1.325,1.325h3.976v7.952h-15.9Zm15.9,10.6a2.658,2.658,0,0,0,2.651-2.651H70.267V75.219H22.555V32.238a14.5,14.5,0,0,0,10.351-16.66h2.9a2.658,2.658,0,0,0,2.651,2.651Zm-18.555-5.3H32.15a15.182,15.182,0,0,0-1.365-2.651h5.023Zm-29.158,5.3A11.928,11.928,0,1,1,18.579,30.158,11.946,11.946,0,0,1,6.651,18.229ZM17.253,79.2V32.742c.437.04.875.066,1.325.066s.888-.027,1.325-.066v43.8a1.329,1.329,0,0,0,1.325,1.325H71.593a1.329,1.329,0,0,0,1.325-1.325V14.253a1.329,1.329,0,0,0-1.325-1.325H57.014V10.277H74.243A1.329,1.329,0,0,1,75.569,11.6V79.2a1.329,1.329,0,0,1-1.325,1.325H18.579A1.329,1.329,0,0,1,17.253,79.2Z" transform="translate(0 0)" fill="#fff"/>
      <path id="Path_1661" data-name="Path 1661" d="M25.3,29.253a1.329,1.329,0,0,0-1.325,1.325V34.74a5.3,5.3,0,1,0,2.651,0V31.9H39.88V34.74a5.3,5.3,0,1,0,2.651,0V31.9H55.784V34.74a5.3,5.3,0,1,0,2.651,0V30.579a1.329,1.329,0,0,0-1.325-1.325H42.531V26.6h2.651a1.329,1.329,0,0,0,1.325-1.325V17.325A1.329,1.329,0,0,0,45.182,16H37.229A1.329,1.329,0,0,0,35.9,17.325v7.952A1.329,1.329,0,0,0,37.229,26.6H39.88v2.651Zm2.651,10.6A2.651,2.651,0,1,1,25.3,37.206,2.658,2.658,0,0,1,27.952,39.856Zm15.9,0a2.651,2.651,0,1,1-2.651-2.651A2.658,2.658,0,0,1,43.856,39.856Zm15.9,0a2.651,2.651,0,1,1-2.651-2.651A2.658,2.658,0,0,1,59.76,39.856ZM38.555,18.651h5.3v5.3h-5.3Z" transform="translate(5.206 4.88)" fill="#fff"/>
      <path id="Path_1662" data-name="Path 1662" d="M30,40H59.158v2.651H30Z" transform="translate(8.459 12.688)" fill="#fff"/>
      <path id="Path_1663" data-name="Path 1663" d="M30,44H41.928v2.651H30Z" transform="translate(8.459 13.99)" fill="#fff"/>
      <path id="Path_1664" data-name="Path 1664" d="M30,48H59.158v2.651H30Z" transform="translate(8.459 15.291)" fill="#fff"/>
      <path id="Path_1665" data-name="Path 1665" d="M30,52H41.928v2.651H30Z" transform="translate(8.459 16.593)" fill="#fff"/>
      <path id="Path_1666" data-name="Path 1666" d="M21.328,24.067a1.367,1.367,0,0,0,1.4-.106,1.328,1.328,0,0,0,.53-1.3l-.782-4.586,3.327-3.247a1.331,1.331,0,0,0-.742-2.266L20.453,11.9,18.4,7.726a1.379,1.379,0,0,0-2.372,0L13.972,11.9l-4.612.663a1.322,1.322,0,0,0-1.074.9,1.339,1.339,0,0,0,.331,1.365l3.327,3.247-.782,4.586a1.331,1.331,0,0,0,1.922,1.4l4.122-2.16Zm-7.091-3.592.451-2.624a1.314,1.314,0,0,0-.384-1.18l-1.908-1.855,2.637-.384a1.3,1.3,0,0,0,.994-.729l1.18-2.386,1.18,2.386a1.34,1.34,0,0,0,.994.729l2.637.384-1.908,1.855a1.338,1.338,0,0,0-.384,1.18l.451,2.624L17.816,19.23a1.3,1.3,0,0,0-.623-.146,1.479,1.479,0,0,0-.623.146l-2.359,1.246Z" transform="translate(1.373 1.968)" fill="#fff"/>
      <ellipse id="Ellipse_355" data-name="Ellipse 355" cx="1.12" cy="1.68" rx="1.12" ry="1.68" transform="translate(45.451 4.751)" fill="#fff"/>
      <path id="Path_1667" data-name="Path 1667" d="M24.314,44.639H25.97c.623,0,1.166.755,1.166,1.657h2.651a4.151,4.151,0,0,0-3.313-4.254V40H23.823v2.041A4.151,4.151,0,0,0,20.51,46.3,4.089,4.089,0,0,0,24.327,50.6h1.657c.623,0,1.166.755,1.166,1.657s-.53,1.657-1.166,1.657H24.327c-.623,0-1.166-.755-1.166-1.657H20.51a4.151,4.151,0,0,0,3.313,4.254v2.041h2.651V56.514a4.151,4.151,0,0,0,3.313-4.254,4.089,4.089,0,0,0-3.817-4.307H24.314c-.623,0-1.166-.755-1.166-1.657s.53-1.657,1.166-1.657Z" transform="translate(5.371 12.688)" fill="#fff"/>
    </g>
  </g>
</svg>
