<svg xmlns="http://www.w3.org/2000/svg" width="137" height="137" viewBox="0 0 137 137">
  <g id="_selected_5" data-name=" selected 5" transform="translate(-5061.5 -4607.5)">
    <g id="Group_1045" data-name="Group 1045" transform="translate(4624.5 120.5)">
      <circle id="Ellipse_41" data-name="Ellipse 41" cx="68.5" cy="68.5" r="68.5" transform="translate(574 4487) rotate(90)" fill="#903"/>
    </g>
    <path id="result_17227753" d="M55.338,75.4H54.082V56.51a1.153,1.153,0,0,0-1.153-1.153H48.544a1.153,1.153,0,0,0-1.153,1.153V75.4H45.579V63.192a1.153,1.153,0,0,0-1.153-1.153H40.041a1.153,1.153,0,0,0-1.153,1.153V75.4H37.076V69.874a1.153,1.153,0,0,0-1.153-1.153H31.538a1.153,1.153,0,0,0-1.153,1.153V75.4H29.129a1.153,1.153,0,1,0,0,2.307h26.21a1.153,1.153,0,1,0,0-2.307Zm-22.647,0V71.027h2.078V75.4Zm8.5,0V64.345h2.078V75.4Zm8.5,0V57.663h2.078V75.4Zm3.585-28.712c.02.02.041.038.061.056a14.283,14.283,0,1,0-.117-.118c.018.021.036.042.056.062Zm10.068,1.867a11.88,11.88,0,0,1-7.581-2.723l8.058-8.058h11.4A11.951,11.951,0,0,1,63.351,48.558ZM75.229,35.469H64.5V24.744A11.954,11.954,0,0,1,75.229,35.469ZM62.2,24.744v11.4L54.14,44.2A11.928,11.928,0,0,1,62.2,24.744ZM27.784,30.7a1.153,1.153,0,0,1,1.153-1.153h4.819a1.153,1.153,0,1,1,0,2.307H28.937A1.153,1.153,0,0,1,27.784,30.7Zm0,5.926a1.153,1.153,0,0,1,1.153-1.153H46.368a1.153,1.153,0,1,1,0,2.307H28.937A1.153,1.153,0,0,1,27.784,36.623Zm0,5.926a1.153,1.153,0,0,1,1.153-1.153H46.368a1.153,1.153,0,1,1,0,2.307H28.937A1.153,1.153,0,0,1,27.784,42.548ZM71.294,60.61a1.153,1.153,0,0,1-1.153,1.153H59.335a1.153,1.153,0,1,1,0-2.307H70.141A1.153,1.153,0,0,1,71.294,60.61Zm13.284-1.8a15.819,15.819,0,0,0-2.657.225v-44.3a1.153,1.153,0,0,0-1.153-1.153H68.385V10.142a1.153,1.153,0,0,0-1.153-1.153H38.575a1.153,1.153,0,0,0-1.153,1.153v3.441H25.038a1.153,1.153,0,0,0-1.153,1.153V81.169a1.153,1.153,0,0,0,1.153,1.153H70.829A15.776,15.776,0,1,0,84.578,58.812ZM39.728,11.3H66.078v6.878H39.728ZM26.192,80.016V15.89h11.23v3.437a1.153,1.153,0,0,0,1.153,1.153H67.231a1.153,1.153,0,0,0,1.153-1.153V15.89h11.23V59.612a15.847,15.847,0,0,0-7.841,5.769H59.336a1.153,1.153,0,1,0,0,2.307H70.392a15.647,15.647,0,0,0-1.247,3.619H59.336a1.153,1.153,0,1,0,0,2.307h9.5c-.02.323-.031.648-.031.976a15.707,15.707,0,0,0,.961,5.426H26.192Zm58.386,8.045A13.471,13.471,0,1,1,98.049,74.59,13.486,13.486,0,0,1,84.578,88.061ZM93.36,68.04a1.153,1.153,0,0,1,0,1.631L81.9,81.135a1.153,1.153,0,0,1-1.631,0L75.8,76.671a1.153,1.153,0,0,1,1.63-1.632l3.653,3.649L91.729,68.04A1.153,1.153,0,0,1,93.36,68.04ZM38.346,30.7A1.153,1.153,0,0,1,39.5,29.544h6.869a1.153,1.153,0,1,1,0,2.307H39.5A1.153,1.153,0,0,1,38.346,30.7Z" transform="translate(5069.379 4626.323)" fill="#fff"/>
  </g>
</svg>
