<svg xmlns="http://www.w3.org/2000/svg" width="137" height="137" viewBox="0 0 137 137">
  <g id="_selected_3" data-name=" selected 3" transform="translate(-13739.5 -4561.914)">
    <g id="Group_1091" data-name="Group 1091" transform="translate(13302.5 74.914)">
      <circle id="Ellipse_41" data-name="Ellipse 41" cx="68.5" cy="68.5" r="68.5" transform="translate(574 4487) rotate(90)" fill="#903"/>
    </g>
    <path id="chat_11152547" d="M106.182,57.036a3.914,3.914,0,1,0,1.146,2.767A3.914,3.914,0,0,0,106.182,57.036ZM103.415,53.9a5.9,5.9,0,1,1-4.17,1.728,5.9,5.9,0,0,1,4.17-1.728Zm-.432-7.49h-1.79A1.8,1.8,0,0,0,99.4,48.209v.95q-.173.065-.339.134t-.333.145l-.672-.672a1.8,1.8,0,0,0-2.537,0l-3.141,3.141a1.8,1.8,0,0,0,0,2.537l.672.672q-.076.167-.145.333t-.133.339h-.95a1.8,1.8,0,0,0-1.794,1.794v1.313H81.984a.988.988,0,0,0-.575.183L69.2,66.124V59.887a.992.992,0,0,0-.992-.992H61.544a1.827,1.827,0,0,1-1.819-1.819V28.326a1.827,1.827,0,0,1,1.819-1.819h39.62a1.827,1.827,0,0,1,1.819,1.819V46.416Zm-1.6,1.984h4.062v1.467a.992.992,0,0,0,.786.971q.379.119.777.285.445.184.829.39A.989.989,0,0,0,109,51.338l1.04-1.035,2.872,2.872-1.038,1.038a.992.992,0,0,0-.131,1.241q.184.352.351.754.182.441.31.859a.989.989,0,0,0,.946.7l1.467,0v4.062h-1.467a.992.992,0,0,0-.971.787q-.119.378-.284.776-.184.445-.39.829a.989.989,0,0,0,.173,1.164l1.035,1.04L110.042,69.3,109,68.264a.992.992,0,0,0-1.241-.131q-.352.184-.754.35-.44.183-.859.31a.989.989,0,0,0-.7.946l0,1.467h-4.062V69.74a.992.992,0,0,0-.786-.971q-.378-.119-.776-.284-.444-.184-.829-.39a.989.989,0,0,0-1.164.173L96.788,69.3l-2.872-2.872,1.038-1.038a.992.992,0,0,0,.131-1.241q-.184-.352-.351-.754-.182-.441-.31-.859a.988.988,0,0,0-.946-.7l-1.467,0V57.773h1.467a.992.992,0,0,0,.971-.786q.119-.379.285-.777.185-.445.39-.829a.989.989,0,0,0-.173-1.164l-1.035-1.04L96.787,50.3l1.038,1.038a.992.992,0,0,0,1.241.131q.352-.184.754-.351.441-.182.859-.31a.988.988,0,0,0,.7-.946l0-1.467ZM90.027,60.878H82.241L68.7,68.694a.989.989,0,0,1-1.48-.856l0-6.959H61.544a3.812,3.812,0,0,1-3.8-3.8V28.326a3.812,3.812,0,0,1,3.8-3.8h39.62a3.812,3.812,0,0,1,3.8,3.8V46.416h.668a1.8,1.8,0,0,1,1.794,1.794v.95q.173.065.339.133t.333.145c.227-.227.513-.552.755-.746a1.8,1.8,0,0,1,2.454.075l3.141,3.141a1.8,1.8,0,0,1,0,2.537l-.672.672q.076.167.145.333t.133.339h.95a1.8,1.8,0,0,1,1.794,1.794v4.442a1.8,1.8,0,0,1-1.794,1.794h-.95q-.065.173-.133.338t-.145.334c.227.227.549.51.743.751a1.794,1.794,0,0,1-.073,2.455c-.921.922-2.268,2.447-3.219,3.215a1.794,1.794,0,0,1-2.455-.074l-.674-.67q-.167.076-.333.145t-.339.134v.95a1.8,1.8,0,0,1-1.794,1.794h-4.442A1.8,1.8,0,0,1,99.4,71.4v-.95q-.173-.065-.339-.133t-.333-.145l-.672.672a1.8,1.8,0,0,1-2.535,0L92.378,67.7a1.791,1.791,0,0,1,0-2.535l.67-.674q-.076-.167-.145-.333t-.134-.339h-.95a1.8,1.8,0,0,1-1.794-1.794V60.88ZM74.393,35.28H96.514a.992.992,0,1,0,0-1.984H74.393a.992.992,0,1,0,0,1.984Zm-8.749,0h4.5a.992.992,0,1,0,0-1.984h-4.5a.992.992,0,0,0,0,1.984Zm0,8.159h30.87a.992.992,0,1,0,0-1.984H65.644a.992.992,0,1,0,0,1.984Zm0,8.159H89.23a.992.992,0,1,0,0-1.984H65.644a.992.992,0,1,0,0,1.984ZM48.6,84.474l10.119,15.992,1.465-.854a.985.985,0,0,1,.666-.142l18.486,2.67a7.8,7.8,0,0,0,2.8-.08,6.451,6.451,0,0,0,2.62-1.122c8.226-4.749,16.44-9.573,24.7-14.259a3.118,3.118,0,0,0,1.174-4.233,3.008,3.008,0,0,0-1.831-1.424,3.355,3.355,0,0,0-2.437.269L91.3,89.1a5.108,5.108,0,0,1-3.009,5.1,4.7,4.7,0,0,1-3.661.262L69.759,89.475a.989.989,0,1,1,.628-1.876L85.26,92.58a2.762,2.762,0,0,0,2.149-.16,4.218,4.218,0,0,0,1.8-1.857,3.124,3.124,0,0,0-1.977-3.873L66.872,79.87a7.524,7.524,0,0,0-5.056.026Zm.657,26.239L33.668,86.07a.99.99,0,0,1,.31-1.364l9.714-6.147a.989.989,0,0,1,1.364.31l2.462,3.891,13.653-4.732a9.473,9.473,0,0,1,6.328-.034l20.362,6.819a5.068,5.068,0,0,1,2.837,2.37l14.764-7.65a5.328,5.328,0,0,1,3.871-.416,4.972,4.972,0,0,1,3.025,2.354,5.1,5.1,0,0,1-1.958,6.951L85.791,102.628a9.469,9.469,0,0,1-6.73,1.474l-18.146-2.622-1.132.66.868,1.371a.989.989,0,0,1-.31,1.364l-9.714,6.147a.989.989,0,0,1-1.364-.31ZM35.871,85.85l8.043-5.089L58.45,103.732l-8.044,5.09Z" transform="translate(13732.841 4563.923)" fill="#fff" fill-rule="evenodd"/>
  </g>
</svg>
