<svg xmlns="http://www.w3.org/2000/svg" xmlns:xlink="http://www.w3.org/1999/xlink" width="137" height="137" viewBox="0 0 137 137">
  <defs>
    <clipPath id="clip-path">
      <path id="path2757" d="M0-682.665H86.657v86.657H0Z" transform="translate(0 682.665)"/>
    </clipPath>
  </defs>
  <g id="_selected_3" data-name=" selected 3" transform="translate(-2587 -4643)">
    <g id="Group_1029" data-name="Group 1029" transform="translate(2150 156)">
      <circle id="Ellipse_41" data-name="Ellipse 41" cx="68.5" cy="68.5" r="68.5" transform="translate(574 4487) rotate(90)" fill="#903"/>
    </g>
    <g id="g2751" transform="translate(2612.172 5347.428)">
      <g id="g2753" transform="translate(0 -682.665)">
        <g id="g2755" transform="translate(0 0)" clip-path="url(#clip-path)">
          <g id="g2761" transform="translate(29.041 68.877)">
            <path id="path2763" d="M0-25.694l25.623-.036.076,0a3.38,3.38,0,0,0,2.306-1.209,3.379,3.379,0,0,0,.776-2.485" transform="translate(0 29.429)" fill="none" stroke="#fff" stroke-linecap="round" stroke-linejoin="round" stroke-miterlimit="10" stroke-width="2"/>
          </g>
          <g id="g2765" transform="translate(15.186 1.269)">
            <path id="path2767" d="M-28.208-148.973a24.746,24.746,0,0,1,2.459-5.93,1.216,1.216,0,0,0-.026-1.247,4.186,4.186,0,0,1,.611-5.143l2.2-2.2a4.186,4.186,0,0,1,5.143-.611,1.217,1.217,0,0,0,1.247.027,24.738,24.738,0,0,1,5.93-2.459,1.216,1.216,0,0,0,.862-.9,4.186,4.186,0,0,1,4.068-3.2h3.105a4.186,4.186,0,0,1,4.068,3.2,1.215,1.215,0,0,0,.862.9,24.738,24.738,0,0,1,5.93,2.459,1.217,1.217,0,0,0,1.247-.027,4.186,4.186,0,0,1,5.143.611l2.2,2.2a4.186,4.186,0,0,1,.611,5.143,1.216,1.216,0,0,0-.026,1.247,24.744,24.744,0,0,1,2.46,5.936,1.194,1.194,0,0,0,.9.85,4.056,4.056,0,0,1,3.2,3.958v3.336a4.055,4.055,0,0,1-3.2,3.958,1.194,1.194,0,0,0-.9.85,24.754,24.754,0,0,1-2.46,5.936,1.215,1.215,0,0,0,.026,1.246,4.186,4.186,0,0,1-.611,5.143l-2.2,2.2a4.186,4.186,0,0,1-5.143.611,1.216,1.216,0,0,0-1.247-.026,24.738,24.738,0,0,1-5.93,2.459,1.215,1.215,0,0,0-.862.9,4.186,4.186,0,0,1-4.068,3.2H-5.72a4.186,4.186,0,0,1-4.068-3.2,1.216,1.216,0,0,0-.862-.9,24.745,24.745,0,0,1-5.93-2.459,1.216,1.216,0,0,0-1.247.026,4.186,4.186,0,0,1-5.143-.611l-2.2-2.2a4.186,4.186,0,0,1-.611-5.143,1.215,1.215,0,0,0,.026-1.246,24.749,24.749,0,0,1-2.459-5.93,1.215,1.215,0,0,0-.9-.861,4.186,4.186,0,0,1-3.2-4.068v-3.105a4.186,4.186,0,0,1,3.2-4.068A1.215,1.215,0,0,0-28.208-148.973Z" transform="translate(32.309 170.633)" fill="none" stroke="#fff" stroke-linecap="round" stroke-linejoin="round" stroke-miterlimit="10" stroke-width="2"/>
          </g>
          <g id="g2769" transform="translate(24.779 10.862)">
            <path id="path2771" d="M-24.833-51.937a18.466,18.466,0,0,0-3.611,11,18.55,18.55,0,0,0,18.55,18.55A18.55,18.55,0,0,0,8.655-40.938,18.55,18.55,0,0,0-9.894-59.488a18.466,18.466,0,0,0-10.644,3.355" transform="translate(28.444 59.488)" fill="none" stroke="#fff" stroke-linecap="round" stroke-linejoin="round" stroke-miterlimit="10" stroke-width="2"/>
          </g>
          <g id="g2773" transform="translate(30.045 27.26)">
            <path id="path2775" d="M-38.672-63.495a4.667,4.667,0,0,0,3.708-4.567,4.665,4.665,0,0,0-4.665-4.665,4.665,4.665,0,0,0-4.665,4.665,4.667,4.667,0,0,0,3.708,4.567" transform="translate(44.295 72.726)" fill="none" stroke="#fff" stroke-linecap="round" stroke-linejoin="round" stroke-miterlimit="10" stroke-width="2"/>
          </g>
          <g id="g2777" transform="translate(43.328 36.492)">
            <path id="path2779" d="M-74.19,0h-4.339a6.448,6.448,0,0,0-6.448,6.448v5.021A18.539,18.539,0,0,0-69.093,2.5,6.434,6.434,0,0,0-74.19,0Z" transform="translate(84.977 0)" fill="none" stroke="#fff" stroke-linecap="round" stroke-linejoin="round" stroke-miterlimit="10" stroke-width="2"/>
          </g>
          <g id="g2781" transform="translate(27.444 36.492)">
            <path id="path2783" d="M-64.9,0h-4.339a6.434,6.434,0,0,0-5.1,2.5,18.539,18.539,0,0,0,15.884,8.965V6.448A6.448,6.448,0,0,0-64.9,0Z" transform="translate(74.332)" fill="none" stroke="#fff" stroke-linecap="round" stroke-linejoin="round" stroke-miterlimit="10" stroke-width="2"/>
          </g>
          <g id="g2785" transform="translate(47.281 27.26)">
            <path id="path2787" d="M-38.671-63.495a4.667,4.667,0,0,0,3.708-4.567,4.665,4.665,0,0,0-4.665-4.665,4.665,4.665,0,0,0-4.665,4.665,4.667,4.667,0,0,0,3.708,4.567" transform="translate(44.293 72.726)" fill="none" stroke="#fff" stroke-linecap="round" stroke-linejoin="round" stroke-miterlimit="10" stroke-width="2"/>
          </g>
          <g id="g2789" transform="translate(38.663 15.489)">
            <path id="path2791" d="M-38.672-63.495a4.667,4.667,0,0,0,3.708-4.567,4.665,4.665,0,0,0-4.665-4.665,4.665,4.665,0,0,0-4.665,4.665,4.667,4.667,0,0,0,3.708,4.567" transform="translate(44.295 72.726)" fill="none" stroke="#fff" stroke-linecap="round" stroke-linejoin="round" stroke-miterlimit="10" stroke-width="2"/>
          </g>
          <g id="g2793" transform="translate(35.915 24.721)">
            <path id="path2795" d="M-101.971-18.553a6.439,6.439,0,0,0-5.244-2.7h-4.338a6.439,6.439,0,0,0-5.244,2.7" transform="translate(116.797 21.251)" fill="none" stroke="#fff" stroke-linecap="round" stroke-linejoin="round" stroke-miterlimit="10" stroke-width="2"/>
          </g>
          <g id="g2797" transform="translate(74.958 50.094)">
            <path id="path2799" d="M0-108.738v14.762A2.845,2.845,0,0,0,2.845-91.13H7.58a2.846,2.846,0,0,0,2.846-2.845V-121.7a2.846,2.846,0,0,0-2.846-2.845H2.845A2.845,2.845,0,0,0,0-121.7v7.031" transform="translate(0 124.548)" fill="none" stroke="#fff" stroke-linecap="round" stroke-linejoin="round" stroke-miterlimit="10" stroke-width="2"/>
          </g>
          <g id="g2801" transform="translate(1.273 55.868)">
            <path id="path2803" d="M-506.791,0h-3.742a28.377,28.377,0,0,0-14.328,3.883,28.371,28.371,0,0,1-10.353,3.6l-10.807,1.823a7.55,7.55,0,0,0-6.455,6.728l-.231.707H-557.2a6.512,6.512,0,0,1-3.7-1.154L-573.61,6.809a4.377,4.377,0,0,0-5.734.665,4.377,4.377,0,0,0,.645,6.458l12.685,9.371a28.8,28.8,0,0,0,15.848,5.607l10.879.547q1.694.087,3.393.051c7.617-.163,9.749-.389,15.651-2.03l13.452-4.042" transform="translate(580.476)" fill="none" stroke="#fff" stroke-linecap="round" stroke-linejoin="round" stroke-miterlimit="10" stroke-width="2"/>
          </g>
        </g>
      </g>
    </g>
  </g>
</svg>
