<svg xmlns="http://www.w3.org/2000/svg" width="137" height="137" viewBox="0 0 137 137">
  <g id="_selected_2" data-name=" selected 2" transform="translate(-2429 -4643)">
    <g id="Group_1028" data-name="Group 1028" transform="translate(1992 156)">
      <circle id="Ellipse_41" data-name="Ellipse 41" cx="68.5" cy="68.5" r="68.5" transform="translate(574 4487) rotate(90)" fill="#903"/>
    </g>
    <path id="financial_17699120" d="M88.353,15H57.941a3.3,3.3,0,0,0-3.293,3.293V42.67a3.3,3.3,0,0,0,3.293,3.293h4.875v3.845a.954.954,0,0,0,1.557.739l5.616-4.584H88.351a3.3,3.3,0,0,0,3.293-3.293V18.293A3.294,3.294,0,0,0,88.353,15Zm1.385,27.672a1.387,1.387,0,0,1-1.385,1.385h-18.7a.956.956,0,0,0-.6.215L64.726,47.8V45.011a.955.955,0,0,0-.954-.954h-5.83a1.387,1.387,0,0,1-1.385-1.385V18.293a1.387,1.387,0,0,1,1.385-1.385H88.354a1.387,1.387,0,0,1,1.385,1.385V42.672ZM86.643,40H85.73V29.125a.955.955,0,0,0-.954-.954H80.117a.955.955,0,0,0-.954.954V40H76.43V31.5a.955.955,0,0,0-.954-.954H70.818a.955.955,0,0,0-.954.954V40H67.13V33.875a.955.955,0,0,0-.954-.954H61.519a.955.955,0,0,0-.954.954V40h-.913a.954.954,0,1,0,0,1.908H86.645a.954.954,0,1,0,0-1.908Zm-5.572-9.921h2.749V40H81.071Zm-9.3,2.373h2.749V40H71.772Zm-9.3,2.377H65.22V40H62.471Zm-1.8-5.865a.953.953,0,0,1,.415-1.283l5.527-2.826a.955.955,0,0,1,.434-.1H76.36l7.846-5.844a.955.955,0,1,1,1.14,1.531l-8.1,6.033a.956.956,0,0,1-.569.189h-9.4l-5.322,2.721a.944.944,0,0,1-.434.1A.958.958,0,0,1,60.668,28.965ZM67.394,78.05H65.457a9.788,9.788,0,1,0-15.021-4.735L43.6,71V67.025a11.828,11.828,0,0,0,4.863-6.141h1.323a4.394,4.394,0,0,0,0-8.787h-.526A10.619,10.619,0,0,0,51.7,44.979,10.194,10.194,0,0,0,41.5,34.817H33.141a10.2,10.2,0,0,0-10.2,10.163A10.611,10.611,0,0,0,25.384,52.1h-.525a4.394,4.394,0,0,0,0,8.787h1.323a11.836,11.836,0,0,0,4.863,6.141V71l-9.953,3.37A8.849,8.849,0,0,0,15,82.862v7.83a.955.955,0,0,0,.954.954h51.44A2.21,2.21,0,0,0,69.6,89.439V86.1a2.186,2.186,0,0,0-.393-1.253,2.194,2.194,0,0,0,.393-1.253V80.255A2.21,2.21,0,0,0,67.394,78.05Zm.3,2.207V83.6a.3.3,0,0,1-.3.3H52.164a.3.3,0,0,1-.3-.3V80.257a.3.3,0,0,1,.3-.3H67.394A.3.3,0,0,1,67.693,80.257Zm-8-17.991a7.879,7.879,0,1,1-7.879,7.879A7.889,7.889,0,0,1,59.695,62.266ZM53.932,78.05H52.164a2.21,2.21,0,0,0-2.207,2.207V83.6a2.186,2.186,0,0,0,.393,1.253,2.194,2.194,0,0,0-.393,1.253V89.44a2.32,2.32,0,0,0,.022.3H40.889L39.7,82.749l1.7-2.522.789.415a.953.953,0,0,0,1.321-.468l2.7-6.275,5.47,1.851a9.882,9.882,0,0,0,2.253,2.3Zm-16.611.024L39.7,79.33l-1.512,2.245H36.45L34.937,79.33Zm-.572,5.41h1.145l1.061,6.254H35.688Zm7.645-10.2L42.165,78.47l-3.253-1.714L42.9,72.777ZM52.269,56.49a2.488,2.488,0,0,1-2.485,2.485h-.841a11.813,11.813,0,0,0,.157-1.91V54h.684A2.488,2.488,0,0,1,52.269,56.49ZM33.142,36.723H41.5a8.286,8.286,0,0,1,8.3,8.255,8.715,8.715,0,0,1-2.056,5.957,5.727,5.727,0,0,1-5.569-5.718.954.954,0,1,0-1.908,0,5.729,5.729,0,0,1-5.723,5.723H26.907a8.722,8.722,0,0,1-2.061-5.962,8.287,8.287,0,0,1,8.3-8.255ZM24.859,58.976a2.485,2.485,0,0,1,0-4.971h.684v3.063a11.813,11.813,0,0,0,.157,1.91h-.841Zm2.592-1.91V52.847h7.087a7.639,7.639,0,0,0,6.677-3.939,7.645,7.645,0,0,0,5.976,3.907v4.25a9.87,9.87,0,0,1-19.74,0Zm9.87,11.778A11.707,11.707,0,0,0,41.689,68v3.287l-4.368,4.359-4.368-4.359V68A11.739,11.739,0,0,0,37.321,68.844Zm-5.577,3.934,3.987,3.979-3.253,1.714-2.229-5.186ZM16.908,82.862a6.968,6.968,0,0,1,4.8-6.687l6.73-2.279,2.7,6.275a.955.955,0,0,0,1.321.468l.789-.415,1.7,2.522-1.186,6.992H24.686V84.3a.954.954,0,1,0-1.908,0v5.434H16.908Zm50.785,6.577a.3.3,0,0,1-.3.3H52.164a.3.3,0,0,1-.3-.3V86.1a.3.3,0,0,1,.3-.3H67.394a.3.3,0,0,1,.3.3ZM60.884,72.025c0-.269-.371-.475-1.256-.865l-.326-.145-.308-.137c-1.011-.445-2.4-1.054-2.4-2.613a2.877,2.877,0,0,1,2.144-2.7v-1.1a.954.954,0,1,1,1.908,0v1.1a2.877,2.877,0,0,1,2.144,2.7.954.954,0,0,1-1.908,0,1.227,1.227,0,0,0-2.379,0c0,.269.371.475,1.256.865l.326.145.308.137c1.011.445,2.4,1.054,2.4,2.613a2.877,2.877,0,0,1-2.144,2.7v1.1a.954.954,0,1,1-1.908,0v-1.1a2.877,2.877,0,0,1-2.144-2.7.954.954,0,0,1,1.908,0,1.227,1.227,0,0,0,2.379,0Z" transform="translate(2445.418 4658.177)" fill="#fff"/>
  </g>
</svg>
