<svg xmlns="http://www.w3.org/2000/svg" width="137" height="137" viewBox="0 0 137 137">
  <g id="Group_1134" data-name="Group 1134" transform="translate(-20060.5 -4389.15)">
    <g id="Group_1126" data-name="Group 1126" transform="translate(19623.5 -97.85)">
      <circle id="Ellipse_41" data-name="Ellipse 41" cx="68.5" cy="68.5" r="68.5" transform="translate(574 4487) rotate(90)" fill="#903"/>
    </g>
    <g id="online_12740445" transform="translate(20041.432 4387.963)">
      <path id="Path_1537" data-name="Path 1537" d="M142.032,168.788a26.758,26.758,0,1,1,26.758-26.759A26.788,26.788,0,0,1,142.032,168.788Zm0-50.487a23.728,23.728,0,1,0,23.728,23.728A23.755,23.755,0,0,0,142.032,118.3Z" transform="translate(-55.048 -72.342)" fill="#fff"/>
      <path id="Path_1538" data-name="Path 1538" d="M137.451,96.122a1.516,1.516,0,0,1-.98-2.671,34.11,34.11,0,0,1,10.544-6.1,1.515,1.515,0,0,1,1.024,2.853,31.044,31.044,0,0,0-9.609,5.556A1.514,1.514,0,0,1,137.451,96.122Z" transform="translate(-71.606 -49.9)" fill="#fff"/>
      <path id="Path_1539" data-name="Path 1539" d="M309.666,96.123a1.512,1.512,0,0,1-.979-.359,31.066,31.066,0,0,0-9.609-5.556,1.516,1.516,0,0,1,1.025-2.853,34.116,34.116,0,0,1,10.543,6.1,1.516,1.516,0,0,1-.98,2.671Z" transform="translate(-201.543 -49.9)" fill="#fff"/>
      <path id="Path_1540" data-name="Path 1540" d="M212.676,292.158a1.515,1.515,0,0,1-1.515-1.515v-7.226a1.515,1.515,0,1,1,3.03,0v7.226A1.515,1.515,0,0,1,212.676,292.158Z" transform="translate(-131.891 -205.879)" fill="#fff"/>
      <path id="Path_1541" data-name="Path 1541" d="M275.1,292.158a1.515,1.515,0,0,1-1.515-1.515v-7.226a1.515,1.515,0,1,1,3.03,0v7.226A1.515,1.515,0,0,1,275.1,292.158Z" transform="translate(-181.917 -205.879)" fill="#fff"/>
      <path id="Path_1542" data-name="Path 1542" d="M218.875,165.807a7.714,7.714,0,1,1,7.714-7.714A7.723,7.723,0,0,1,218.875,165.807Zm0-12.4a4.684,4.684,0,1,0,4.684,4.684A4.689,4.689,0,0,0,218.875,153.409Z" transform="translate(-131.891 -100.478)" fill="#fff"/>
      <path id="Path_1543" data-name="Path 1543" d="M201.538,259.363h-18.43a4.233,4.233,0,0,1-4.2-3.743l-.817-6.993a8.732,8.732,0,0,1,2.2-6.877,7.556,7.556,0,0,1,9.079-1.335,6.478,6.478,0,0,0,5.909,0,7.464,7.464,0,0,1,9.08,1.334,8.736,8.736,0,0,1,2.2,6.878l-.816,6.992A4.232,4.232,0,0,1,201.538,259.363Zm-16.006-16.858a3.932,3.932,0,0,0-3,1.278,5.7,5.7,0,0,0-1.438,4.492l.817,6.994a1.2,1.2,0,0,0,1.194,1.063h18.43a1.2,1.2,0,0,0,1.194-1.063l.817-6.993a5.709,5.709,0,0,0-1.438-4.493,4.514,4.514,0,0,0-5.45-.672,9.513,9.513,0,0,1-8.677,0A5.466,5.466,0,0,0,185.532,242.505Z" transform="translate(-105.339 -171.871)" fill="#fff"/>
      <path id="Path_1544" data-name="Path 1544" d="M206.685,47.172a1.526,1.526,0,0,1-.463-.072,23.752,23.752,0,0,0-14.518,0,1.517,1.517,0,0,1-1.514-.353,12.648,12.648,0,1,1,17.547,0A1.512,1.512,0,0,1,206.685,47.172Zm-7.722-4.243a26.717,26.717,0,0,1,7.268,1.01,9.521,9.521,0,0,0,2.351-6.291,9.618,9.618,0,0,0-19.236,0,9.517,9.517,0,0,0,2.351,6.291A26.661,26.661,0,0,1,198.963,42.929Z" transform="translate(-111.98)" fill="#fff"/>
      <path id="Path_1545" data-name="Path 1545" d="M340.037,130.933a12.779,12.779,0,0,1-3.534-.5,1.515,1.515,0,0,1-1.062-1.137,23.554,23.554,0,0,0-7.263-12.542,1.516,1.516,0,0,1-.453-1.484,12.641,12.641,0,1,1,12.312,15.666Zm-1.852-3.211a9.619,9.619,0,1,0-7.275-12.561A26.536,26.536,0,0,1,338.185,127.722Z" transform="translate(-225.269 -64.616)" fill="#fff"/>
      <path id="Path_1546" data-name="Path 1546" d="M339.978,292.262a12.623,12.623,0,0,1-12.254-9.63,1.516,1.516,0,0,1,.453-1.484,23.548,23.548,0,0,0,7.263-12.541,1.515,1.515,0,0,1,1.062-1.138,12.644,12.644,0,1,1,3.476,24.793Zm-9.068-9.524a9.511,9.511,0,0,0,4.281,5.207,9.618,9.618,0,1,0,9.618-16.658,9.516,9.516,0,0,0-6.624-1.109A26.529,26.529,0,0,1,330.909,282.738Z" transform="translate(-225.269 -193.91)" fill="#fff"/>
      <path id="Path_1547" data-name="Path 1547" d="M59.2,130.93a12.653,12.653,0,1,1,12.312-15.665,1.515,1.515,0,0,1-.453,1.483A23.555,23.555,0,0,0,63.8,129.29a1.514,1.514,0,0,1-1.062,1.137,12.775,12.775,0,0,1-3.535.5Zm.053-22.272a9.689,9.689,0,0,0-2.5.331,9.615,9.615,0,0,0,4.3,18.73,26.539,26.539,0,0,1,7.274-12.562,9.616,9.616,0,0,0-9.074-6.5Z" transform="translate(0 -64.613)" fill="#fff"/>
      <path id="Path_1548" data-name="Path 1548" d="M59.259,292.257a12.645,12.645,0,1,1,3.475-24.794A1.515,1.515,0,0,1,63.8,268.6a23.553,23.553,0,0,0,7.262,12.542,1.516,1.516,0,0,1,.453,1.483,12.621,12.621,0,0,1-12.253,9.632Zm-.053-22.264a9.618,9.618,0,0,0-8.3,14.427,9.628,9.628,0,0,0,13.139,3.52,9.511,9.511,0,0,0,4.28-5.207,26.539,26.539,0,0,1-7.274-12.562,9.68,9.68,0,0,0-1.847-.179Z" transform="translate(-0.001 -193.905)" fill="#fff"/>
      <path id="Path_1549" data-name="Path 1549" d="M198.963,385.535a12.64,12.64,0,0,1-8.773-21.748,1.523,1.523,0,0,1,1.515-.353,23.752,23.752,0,0,0,14.517,0,1.519,1.519,0,0,1,1.515.353,12.641,12.641,0,0,1-8.774,21.748ZM191.7,366.6a9.516,9.516,0,0,0-2.351,6.29,9.618,9.618,0,1,0,19.236,0,9.515,9.515,0,0,0-2.35-6.29A26.785,26.785,0,0,1,191.7,366.6Z" transform="translate(-111.98 -271.161)" fill="#fff"/>
      <path id="Path_1550" data-name="Path 1550" d="M299.591,377a1.515,1.515,0,0,1-.512-2.941,31.039,31.039,0,0,0,9.609-5.557,1.515,1.515,0,0,1,1.959,2.313,34.1,34.1,0,0,1-10.543,6.1,1.525,1.525,0,0,1-.513.089Z" transform="translate(-201.544 -274.992)" fill="#fff"/>
      <path id="Path_1551" data-name="Path 1551" d="M405.95,227.738a1.541,1.541,0,0,1-.265-.022,1.516,1.516,0,0,1-1.229-1.755,31.061,31.061,0,0,0-.059-11.1,1.515,1.515,0,0,1,2.979-.554,34.07,34.07,0,0,1,.064,12.178A1.515,1.515,0,0,1,405.95,227.738Z" transform="translate(-286.728 -150.717)" fill="#fff"/>
      <path id="Path_1552" data-name="Path 1552" d="M79.581,227.738a1.515,1.515,0,0,1-1.49-1.252,34.083,34.083,0,0,1,.064-12.178,1.515,1.515,0,0,1,2.98.554,31.074,31.074,0,0,0-.059,11.1,1.516,1.516,0,0,1-1.229,1.755,1.544,1.544,0,0,1-.265.022Z" transform="translate(-24.836 -150.717)" fill="#fff"/>
      <path id="Path_1553" data-name="Path 1553" d="M147.526,377a1.518,1.518,0,0,1-.512-.089,34.136,34.136,0,0,1-10.544-6.1,1.515,1.515,0,0,1,1.959-2.313,31.065,31.065,0,0,0,9.609,5.557,1.515,1.515,0,0,1-.512,2.941Z" transform="translate(-71.605 -274.99)" fill="#fff"/>
    </g>
  </g>
</svg>
