<svg xmlns="http://www.w3.org/2000/svg" width="137" height="137" viewBox="0 0 137 137">
  <g id="Group_1135" data-name="Group 1135" transform="translate(-20209.5 -4389.15)">
    <g id="Group_1127" data-name="Group 1127" transform="translate(19772.5 -97.85)">
      <circle id="Ellipse_41" data-name="Ellipse 41" cx="68.5" cy="68.5" r="68.5" transform="translate(574 4487) rotate(90)" fill="#903"/>
    </g>
    <g id="Employee_SOP" transform="translate(20228.25 4407.758)">
      <path id="Path_1522" data-name="Path 1522" d="M63.9,15.544a5.635,5.635,0,1,0,5.635,5.636A5.641,5.641,0,0,0,63.9,15.544Zm0,9.064a3.429,3.429,0,1,1,3.429-3.428A3.433,3.433,0,0,1,63.9,24.608Z" transform="translate(25.19 2.058)" fill="#fff"/>
      <path id="Path_1523" data-name="Path 1523" d="M77.635,19.385l-2.512-4.356a2.166,2.166,0,0,0-2.933-.783l-1.1.64c-.162-.1-.328-.194-.5-.286V13.316a2.147,2.147,0,0,0-2.144-2.144H63.427a2.147,2.147,0,0,0-2.144,2.144V14.6c-.17.092-.336.186-.5.286l-1.115-.647a2.164,2.164,0,0,0-2.923.794l-2.5,4.339a2.1,2.1,0,0,0-.223,1.633c.332,1.237,1.425,1.461,2.1,1.944,0,.1-.013.192-.013.288s.01.191.013.286l-1.1.64a2.139,2.139,0,0,0-.783,2.924l2.511,4.355a2.165,2.165,0,0,0,2.933.784l1.1-.639c.163.1.329.195.5.287v1.283A2.147,2.147,0,0,0,63.427,35.3h5.017a2.147,2.147,0,0,0,2.144-2.144V31.874c.171-.092.337-.187.5-.287l1.114.646a2.166,2.166,0,0,0,2.923-.794l2.5-4.337a2.133,2.133,0,0,0-.781-2.936l-1.1-.633a4.054,4.054,0,0,0,.005-.595l1.1-.633a2.136,2.136,0,0,0,.784-2.92ZM73.3,30.319l-1.673-.97-.013-.008A1.034,1.034,0,0,0,71.5,29.3a1.022,1.022,0,0,0-1.085.1,7.93,7.93,0,0,1-1.38.794,1.1,1.1,0,0,0-.648,1.005v.025l.061,1.87-4.956.062V31.2a1.025,1.025,0,0,0-.512-.907,1.042,1.042,0,0,0-.136-.1,7.818,7.818,0,0,1-1.379-.794,1.056,1.056,0,0,0-.111-.05,1.1,1.1,0,0,0-1.09-.01l-.012.007-1.591.988-2.536-4.261,1.686-.98a1.206,1.206,0,0,0,.546-1.03c-.14-2.066.326-1.89-.6-2.716l-1.608-.862,2.426-4.335,1.721.99a1.139,1.139,0,0,0,1.165-.071,7.911,7.911,0,0,1,1.381-.794c.693-.315.574-.891.647-1.038l-.061-1.863,4.956-.062v1.958a1.19,1.19,0,0,0,.648,1.005c1.628.734,1.463,1.257,2.581.853l1.6-1L75.742,20.4l-1.676.968a1.1,1.1,0,0,0-.552.955v.01c0,.027.013.049.015.075h-.012a9.509,9.509,0,0,1,0,1.746,1.124,1.124,0,0,0,.477.881c.029.021.043.056.074.074l1.657.876Z" transform="translate(23.156)" fill="#fff"/>
      <path id="Path_1524" data-name="Path 1524" d="M77.663,50.692A12.168,12.168,0,1,0,65.495,62.859,12.182,12.182,0,0,0,77.663,50.692ZM55.6,51.795h1.965a1.1,1.1,0,0,0,0-2.206H55.6a9.975,9.975,0,0,1,8.794-8.794v1.966a1.1,1.1,0,0,0,2.206,0V40.795a9.975,9.975,0,0,1,8.794,8.794H73.426a1.1,1.1,0,0,0,0,2.206h1.965A9.975,9.975,0,0,1,66.6,60.589V58.624a1.1,1.1,0,0,0-2.206,0v1.965A9.975,9.975,0,0,1,55.6,51.795Z" transform="translate(22.865 12.875)" fill="#fff"/>
      <path id="Path_1525" data-name="Path 1525" d="M62.506,50.449l3.524-2.037a1.1,1.1,0,0,0-1.1-1.91l-1.869,1.08V44.355a1.1,1.1,0,1,0-2.206,0v5.139a1.1,1.1,0,0,0,1.655.955Z" transform="translate(26.406 15.1)" fill="#fff"/>
      <path id="Path_1526" data-name="Path 1526" d="M58.583,23.892l-15.345,6.7a1.1,1.1,0,0,0,.883,2.022l15.345-6.7a1.1,1.1,0,0,0-.883-2.022Z" transform="translate(17.805 5.945)" fill="#fff"/>
      <path id="Path_1527" data-name="Path 1527" d="M40.632,47.15a1.1,1.1,0,0,0,1.1,1.1H55.484a1.1,1.1,0,1,0,0-2.206H41.735A1.1,1.1,0,0,0,40.632,47.15Z" transform="translate(16.889 16.416)" fill="#fff"/>
      <path id="Path_1528" data-name="Path 1528" d="M48.35,49.5V32.1a1.1,1.1,0,0,0-2.206,0V49.5a1.1,1.1,0,0,0,2.206,0Z" transform="translate(19.484 9.33)" fill="#fff"/>
      <path id="Path_1529" data-name="Path 1529" d="M62.754,13.005H12.517A2.693,2.693,0,0,0,9.828,15.7V67.69a1.1,1.1,0,0,0,2.206,0V15.7a.484.484,0,0,1,.483-.484H62.754a.484.484,0,0,1,.483.484v13.17a1.1,1.1,0,1,0,2.206,0V15.7a2.693,2.693,0,0,0-2.689-2.69Z" transform="translate(2.39 0.863)" fill="#fff"/>
      <path id="Path_1530" data-name="Path 1530" d="M5.459,58.995a10.033,10.033,0,0,0-.33,6.414,7.3,7.3,0,0,0,7.071,5.1H57.214A10.632,10.632,0,0,0,67.833,59.894V50.73a1.1,1.1,0,0,0-2.206,0v9.163a8.423,8.423,0,0,1-8.413,8.413H54.633c-2.9-3.394-3.339-6.673-1.3-10.006a2.571,2.571,0,0,0-2.176-3.93H12.352a7.308,7.308,0,0,0-6.893,4.623Zm6.893-2.417h38.81a.365.365,0,0,1,.294.572,9.678,9.678,0,0,0,.382,11.158H12.2a5.086,5.086,0,0,1-4.953-3.513,7.771,7.771,0,0,1,.279-5.03,5.094,5.094,0,0,1,4.826-3.187Z" transform="translate(0 18.101)" fill="#fff"/>
      <path id="Path_1531" data-name="Path 1531" d="M31.611,43.277l4.673,2.455a2.939,2.939,0,0,1,1.484,1.893l1.023,4.146a1.1,1.1,0,1,0,2.141-.529L39.909,47.1a5.142,5.142,0,0,0-2.6-3.318l-4.674-2.455a1.1,1.1,0,0,0-1.025,1.953Z" transform="translate(12.365 14.132)" fill="#fff"/>
      <path id="Path_1532" data-name="Path 1532" d="M18.5,51.242a1.1,1.1,0,1,0,2.141.529l1.023-4.146a2.936,2.936,0,0,1,1.482-1.893l4.675-2.455a1.1,1.1,0,1,0-1.025-1.953l-4.676,2.455a5.144,5.144,0,0,0-2.6,3.318Z" transform="translate(6.455 14.132)" fill="#fff"/>
      <path id="Path_1533" data-name="Path 1533" d="M36.6,35.48a1.1,1.1,0,0,0-1.792,1.287.387.387,0,0,1-.229.585,1.55,1.55,0,0,0-1.209,1.377c-.131,1.662-1.5,3.593-3.08,3.593s-2.944-1.932-3.074-3.592a1.544,1.544,0,0,0-1.2-1.377.387.387,0,0,1-.216-.61,1.1,1.1,0,1,0-1.729-1.37,2.592,2.592,0,0,0,1,3.983c.4,2.578,2.49,5.173,5.22,5.173s4.823-2.6,5.226-5.172A2.594,2.594,0,0,0,36.6,35.48Z" transform="translate(8.83 11.195)" fill="#fff"/>
      <path id="Path_1534" data-name="Path 1534" d="M25.212,38.147a36.729,36.729,0,0,0,7.334-2.638A7.216,7.216,0,0,0,35.2,37.754c.008,0,.012.012.02.016s.015,0,.021.006a1.122,1.122,0,0,0,1.492-.526c0-.006.009-.01.011-.016s0-.015,0-.022c2.1-4.1.739-8.6-.446-10.015a1.745,1.745,0,0,0-2.885.366,1.192,1.192,0,0,1-.941.711c-3.649-.511-6.306.136-7.891,1.939-2.406,2.733-1.253,6.976-1.2,7.154a1.433,1.433,0,0,0,1.827.778Zm7.058-7.672a3.16,3.16,0,0,0,2.7-1.255,8.675,8.675,0,0,1,.255,5.937A4.687,4.687,0,0,1,34.142,33.9a1.581,1.581,0,0,0-2.324-.543,26.474,26.474,0,0,1-6.475,2.464c-.581-4.669,2.271-6.032,6.927-5.351Z" transform="translate(8.621 7.26)" fill="#fff"/>
      <path id="Path_1535" data-name="Path 1535" d="M31.422,43.037a3.426,3.426,0,0,1-4.124.017A1.1,1.1,0,0,0,25.943,44.8,5.846,5.846,0,0,0,29.4,45.94a5.551,5.551,0,0,0,3.323-1.122,1.1,1.1,0,1,0-1.3-1.781Z" transform="translate(9.776 14.899)" fill="#fff"/>
      <path id="Path_1536" data-name="Path 1536" d="M46.74,21.628a2.577,2.577,0,0,0-2.574-2.574h-22.4a2.577,2.577,0,0,0-2.574,2.574v2.92a2.577,2.577,0,0,0,2.574,2.574h22.4a2.577,2.577,0,0,0,2.574-2.574Zm-2.206,2.92a.368.368,0,0,1-.368.368h-22.4a.368.368,0,0,1-.368-.368v-2.92a.368.368,0,0,1,.368-.368h22.4a.368.368,0,0,1,.368.368Z" transform="translate(6.797 3.71)" fill="#fff"/>
    </g>
  </g>
</svg>
