<svg xmlns="http://www.w3.org/2000/svg" width="137" height="137" viewBox="0 0 137 137">
  <g id="Group_1121" data-name="Group 1121" transform="translate(-18247.578 -4320.045)">
    <g id="Group_1116" data-name="Group 1116" transform="translate(17810.578 -166.955)">
      <circle id="Ellipse_41" data-name="Ellipse 41" cx="68.5" cy="68.5" r="68.5" transform="translate(574 4487) rotate(90)" fill="#903"/>
    </g>
    <g id="creative-thinking_18139935" transform="translate(18275.08 4352.312)">
      <g id="Group_876" data-name="Group 876" transform="translate(3.328 2.26)">
        <path id="Path_1554" data-name="Path 1554" d="M76.36,47.688c-.079-.054-.167-.085-.248-.134.321-4.939-2.227-11.128-7.19-17.541,4.974-6.427,7.521-12.615,7.19-17.544.082-.05.169-.089.248-.143A5.284,5.284,0,0,0,70.413,3.59c-.084.057-.152.131-.232.193C64.825,1.245,56.256,1.9,46.552,5.593a25.375,25.375,0,0,0-5.563-.632,28.928,28.928,0,0,0-5.52.642c-9.7-3.7-18.279-4.358-23.652-1.819-.081-.062-.149-.137-.234-.195a5.284,5.284,0,1,0-5.948,8.735c.083.056.171.1.256.148-.321,4.928,2.227,11.11,7.189,17.522C8.12,36.408,5.572,42.6,5.893,47.548c-.085.051-.175.083-.257.139a5.284,5.284,0,1,0,5.947,8.735c.08-.054.144-.125.22-.183,4.806,2.263,11.109,1.661,16.259.45.958,3.592.505,5.663.627,10.261,0,.01-.006.018-.006.027s.006.018.006.027c.048.163-.556,4.851,4,6.5a8.349,8.349,0,0,0,16.625,0,6.038,6.038,0,0,0,4.009-5.664c-.067-7.376-.055-8.654.61-11.153,5.225,1.233,11.432,1.85,16.25-.461.08.061.147.136.231.193a5.284,5.284,0,0,0,5.947-8.735ZM71.785,5.606h0a2.844,2.844,0,1,1-.751,3.951,2.84,2.84,0,0,1,.751-3.951Zm-3.193.167a5.257,5.257,0,0,0,5.092,7.447c.047,4.386-2.531,10.156-7.231,16.018l-.077.09A25.457,25.457,0,0,0,50.444,6.8c7.421-2.371,13.961-2.738,18.147-1.03ZM41.263,7.4A22.958,22.958,0,0,1,63.882,32.208,78.253,78.253,0,0,1,50.38,43.79,80.349,80.349,0,0,1,41,49.294a80.224,80.224,0,0,1-9.379-5.5,78.566,78.566,0,0,1-13.531-11.6C18.048,31.6,18,31.017,18,30.421A22.846,22.846,0,0,1,24.75,14.147,23.139,23.139,0,0,1,41.263,7.4ZM6.258,6.355a2.845,2.845,0,1,1,.751,3.953,2.843,2.843,0,0,1-.751-3.953Zm2.063,6.866a5.257,5.257,0,0,0,5.085-7.446C17.653,4.032,24.082,4.39,31.569,6.8A25.329,25.329,0,0,0,15.62,29.3c-.019-.023-.041-.047-.06-.071-4.768-5.95-7.292-11.586-7.239-16.011ZM10.21,54.406a2.844,2.844,0,1,1,.751-3.953,2.843,2.843,0,0,1-.751,3.953Zm3.183-.147a5.21,5.21,0,0,0-.417-5.179A5.271,5.271,0,0,0,8.323,46.8c-.037-4.108,2.225-9.407,6.339-14.857.35.417.689.831,1.057,1.247a25.147,25.147,0,0,0,7.8,15.7,16.366,16.366,0,0,1,3.764,5.48c-5.655,1.3-10.508,1.265-13.887-.108Zm11.8-7.141a22.767,22.767,0,0,1-6.369-10.659A83.872,83.872,0,0,0,30.249,45.8a82.975,82.975,0,0,0,7.975,4.808,61.108,61.108,0,0,1-8.575,3.146,18.841,18.841,0,0,0-4.454-6.639ZM41,78.634A5.969,5.969,0,0,1,35.168,73.9H46.833A5.969,5.969,0,0,1,41,78.634Zm6.259-7.184H34.735A3.6,3.6,0,0,1,31.164,68.2H50.848a3.61,3.61,0,0,1-3.589,3.255Zm3.624-5.693H31.128V62.5H50.884Zm.029-5.7H31.083a20.185,20.185,0,0,0-.656-3.987A65.257,65.257,0,0,0,41,52.009a65.355,65.355,0,0,0,10.565,4.062,20.254,20.254,0,0,0-.654,3.986Zm1.431-6.3a61.35,61.35,0,0,1-8.566-3.147A83.248,83.248,0,0,0,51.753,45.8,82.638,82.638,0,0,0,63.131,36.49,22.815,22.815,0,0,1,56.819,47.1a18.791,18.791,0,0,0-4.475,6.658Zm16.674-4.677a5.206,5.206,0,0,0-.421,5.17c-3.355,1.381-8.2,1.422-13.886.117a16.321,16.321,0,0,1,3.782-5.495,25.382,25.382,0,0,0,7.763-15.651c.373-.42.724-.844,1.083-1.268,4.174,5.513,6.394,10.707,6.344,14.847a5.266,5.266,0,0,0-4.664,2.28Zm6.719,4.575a2.843,2.843,0,0,1-3.952.749h0a2.845,2.845,0,1,1,3.953-.749Z" transform="translate(-3.328 -2.26)" fill="#fff"/>
        <path id="Path_1555" data-name="Path 1555" d="M17.732,29.944,19.5,33.007a2.377,2.377,0,0,0,2.851,1.062l1.837-.638a11.645,11.645,0,0,0,3.509,2l.371,1.951a2.389,2.389,0,0,0,2.343,1.938H33.95a2.388,2.388,0,0,0,2.342-1.932l.371-1.919a11.577,11.577,0,0,0,3.473-2.048l1.883.652a2.38,2.38,0,0,0,2.85-1.06l1.767-3.067a2.393,2.393,0,0,0-.5-2.993l-1.473-1.273a11.1,11.1,0,0,0-.033-4.036l1.507-1.31a2.387,2.387,0,0,0,.5-2.989l-1.766-3.067a2.386,2.386,0,0,0-2.851-1.06l-1.836.641a11.592,11.592,0,0,0-3.509-2L36.3,9.906a2.388,2.388,0,0,0-2.343-1.938H30.418A2.39,2.39,0,0,0,28.075,9.9L27.7,11.819a11.575,11.575,0,0,0-3.472,2.048l-1.885-.656A2.389,2.389,0,0,0,19.5,14.273l-1.767,3.067a2.393,2.393,0,0,0,.5,2.993L19.709,21.6a11.1,11.1,0,0,0,.033,4.037l-1.509,1.31a2.4,2.4,0,0,0-.5,2.993Zm4.388-4.68a10.178,10.178,0,0,1,0-3.264,2.388,2.388,0,0,0-.783-2.208l-1.488-1.234,1.7-3.043,1.883.654a2.382,2.382,0,0,0,2.315-.43,9.993,9.993,0,0,1,2.82-1.638,2.393,2.393,0,0,0,1.526-1.783l.326-1.911,3.489-.043.371,1.945A2.385,2.385,0,0,0,35.805,14.1a9.986,9.986,0,0,1,2.83,1.638,2.383,2.383,0,0,0,2.314.427l1.807-.675,1.777,3L43.027,19.8a2.393,2.393,0,0,0-.779,2.219,10.191,10.191,0,0,1,0,3.264,2.388,2.388,0,0,0,.783,2.208l1.488,1.234-1.7,3.042-1.887-.654a2.381,2.381,0,0,0-2.31.433,10.016,10.016,0,0,1-2.82,1.637,2.393,2.393,0,0,0-1.526,1.783l-.326,1.913-3.489.044-.371-1.951a2.4,2.4,0,0,0-1.528-1.791,10.041,10.041,0,0,1-2.83-1.637,2.388,2.388,0,0,0-2.314-.429l-1.807.673-1.778-3,1.505-1.307a2.389,2.389,0,0,0,.782-2.221Z" transform="translate(5.486 1.311)" fill="#fff"/>
        <path id="Path_1556" data-name="Path 1556" d="M29.369,27.943a7.468,7.468,0,0,0,7.458-7.33,1.28,1.28,0,0,0,.007-.135,7.459,7.459,0,0,0-14.917-.129,1.258,1.258,0,0,0-.007.135A7.467,7.467,0,0,0,29.369,27.943Zm-5.014-7.465a5.02,5.02,0,0,1,10.04-.106,1.05,1.05,0,0,0-.006.113,5.02,5.02,0,0,1-10.04.106A1.05,1.05,0,0,0,24.354,20.478Z" transform="translate(8.298 4.472)" fill="#fff"/>
      </g>
    </g>
  </g>
</svg>
