<svg xmlns="http://www.w3.org/2000/svg" width="137" height="137" viewBox="0 0 137 137">
  <g id="Group_1120" data-name="Group 1120" transform="translate(-18091.578 -4320.045)">
    <g id="Group_1115" data-name="Group 1115" transform="translate(17654.578 -166.955)">
      <circle id="Ellipse_41" data-name="Ellipse 41" cx="68.5" cy="68.5" r="68.5" transform="translate(574 4487) rotate(90)" fill="#903"/>
    </g>
    <g id="search_10228137" transform="translate(18122.078 4343.001)">
      <g id="Group_879" data-name="Group 879" transform="translate(3 9.955)">
        <g id="Group_878" data-name="Group 878">
          <path id="Path_1557" data-name="Path 1557" d="M48.3,63.827V30.7" transform="translate(9.417 -2.542)" fill="none" stroke="#fff" stroke-linecap="round" stroke-linejoin="round" stroke-miterlimit="10" stroke-width="2"/>
          <path id="Path_1558" data-name="Path 1558" d="M41.1,8.6H8.1A5.111,5.111,0,0,0,3,13.7V72.051a5.111,5.111,0,0,0,5.1,5.1H58.041" transform="translate(-3 -8.6)" fill="none" stroke="#fff" stroke-linecap="round" stroke-linejoin="round" stroke-miterlimit="10" stroke-width="2"/>
          <path id="Path_1559" data-name="Path 1559" d="M37.187,14.4H7.5V24.465H39.735" transform="translate(-1.767 -7.01)" fill="none" stroke="#fff" stroke-linecap="round" stroke-linejoin="round" stroke-miterlimit="10" stroke-width="2"/>
          <path id="Path_1560" data-name="Path 1560" d="M53.75,57.2H7.5" transform="translate(-1.767 4.722)" fill="none" stroke="#fff" stroke-linecap="round" stroke-linejoin="round" stroke-miterlimit="10" stroke-width="2"/>
          <path id="Path_1561" data-name="Path 1561" d="M53.75,52.6H7.5" transform="translate(-1.767 3.461)" fill="none" stroke="#fff" stroke-linecap="round" stroke-linejoin="round" stroke-miterlimit="10" stroke-width="2"/>
          <g id="Group_877" data-name="Group 877" transform="translate(13.888 23.571)">
            <path id="Path_1562" data-name="Path 1562" d="M37.826,40.365v2.548h-5.1V40.365M40.119,30.3H17.567A3.7,3.7,0,0,0,14,34.122V47.246a3.7,3.7,0,0,0,3.568,3.822H40.247a3.789,3.789,0,0,0,3.568-3.822V34.122A3.809,3.809,0,0,0,40.119,30.3ZM37.826,42.914h-5.1V38.454h5.1Z" transform="translate(-13.873 -26.223)" fill="none" stroke="#fff" stroke-linecap="round" stroke-linejoin="round" stroke-miterlimit="10" stroke-width="2"/>
            <path id="Path_1563" data-name="Path 1563" d="M18.6,36.7h5.1v4.459H18.6Z" transform="translate(-12.612 -24.469)" fill="none" stroke="#fff" stroke-linecap="round" stroke-linejoin="round" stroke-miterlimit="10" stroke-width="2"/>
            <path id="Path_1564" data-name="Path 1564" d="M33.8,38.611V36.7H28.7v1.911" transform="translate(-9.843 -24.469)" fill="none" stroke="#fff" stroke-linecap="round" stroke-linejoin="round" stroke-miterlimit="10" stroke-width="2"/>
            <path id="Path_1565" data-name="Path 1565" d="M20.6,31.177V29.266A2.123,2.123,0,0,1,22.639,27.1h8.919A2.123,2.123,0,0,1,33.6,29.266v1.911" transform="translate(-12.063 -27.1)" fill="none" stroke="#fff" stroke-linecap="round" stroke-linejoin="round" stroke-miterlimit="10" stroke-width="2"/>
            <path id="Path_1566" data-name="Path 1566" d="M19.888,38.2H13.9" transform="translate(-13.9 -24.057)" fill="none" stroke="#fff" stroke-linecap="round" stroke-linejoin="round" stroke-miterlimit="10" stroke-width="2"/>
            <path id="Path_1567" data-name="Path 1567" d="M38.561,38.2H32.7" transform="translate(-8.747 -24.057)" fill="none" stroke="#fff" stroke-linecap="round" stroke-linejoin="round" stroke-miterlimit="10" stroke-width="2"/>
            <path id="Path_1568" data-name="Path 1568" d="M30.372,38.2H22.6" transform="translate(-11.515 -24.057)" fill="none" stroke="#fff" stroke-linecap="round" stroke-linejoin="round" stroke-miterlimit="10" stroke-width="2"/>
          </g>
          <path id="Path_1569" data-name="Path 1569" d="M55.8,33.3h4.842v8.154" transform="translate(11.473 -1.83)" fill="none" stroke="#fff" stroke-linecap="round" stroke-linejoin="round" stroke-miterlimit="10" stroke-width="2"/>
          <path id="Path_1570" data-name="Path 1570" d="M62.725,51.392V63.114a7.264,7.264,0,0,1-14.525,0V33.3H51" transform="translate(9.39 -1.83)" fill="none" stroke="#fff" stroke-linecap="round" stroke-linejoin="round" stroke-miterlimit="10" stroke-width="2"/>
        </g>
        <path id="Path_1571" data-name="Path 1571" d="M46.2,62.3h9.811" transform="translate(8.841 6.12)" fill="none" stroke="#fff" stroke-linecap="round" stroke-linejoin="round" stroke-miterlimit="10" stroke-width="2"/>
      </g>
      <g id="Group_880" data-name="Group 880" transform="translate(38.179 3.657)">
        <path id="Path_1572" data-name="Path 1572" d="M54.55,6.26A14.822,14.822,0,0,1,59.01,11.1a20.755,20.755,0,0,1,1.784,4.332,14.916,14.916,0,0,1-2.8,12.614,14.5,14.5,0,0,1-2.421,2.421c-.637.51-1.274.892-1.911,1.4a14.833,14.833,0,0,1-5.479,1.911,15.315,15.315,0,0,1-15.417-7.262A15.034,15.034,0,0,1,38.114,5.75a15.575,15.575,0,0,1,16.436.51Z" transform="translate(-30.611 -3.657)" fill="none" stroke="#fff" stroke-linecap="round" stroke-linejoin="round" stroke-miterlimit="10" stroke-width="2"/>
        <path id="Path_1573" data-name="Path 1573" d="M54.211,22.8,57.4,28.151l-.255.127-2.166,1.274-4.969,2.93-2.421,1.4L44.4,28.533" transform="translate(-26.831 1.59)" fill="none" stroke="#fff" stroke-linecap="round" stroke-linejoin="round" stroke-miterlimit="10" stroke-width="2"/>
        <path id="Path_1574" data-name="Path 1574" d="M53.769,28.1,66.892,50.269,61.923,53.2,48.8,31.03" transform="translate(-25.625 3.042)" fill="none" stroke="#fff" stroke-linecap="round" stroke-linejoin="round" stroke-miterlimit="10" stroke-width="2"/>
      </g>
    </g>
  </g>
</svg>
