<svg xmlns="http://www.w3.org/2000/svg" xmlns:xlink="http://www.w3.org/1999/xlink" width="137" height="137" viewBox="0 0 137 137">
  <defs>
    <clipPath id="clip-path">
      <path id="path3081" d="M0-682.665H82.787v82.787H0Z" transform="translate(0 682.665)" fill="none" stroke="#fff" stroke-width="2"/>
    </clipPath>
  </defs>
  <g id="_selected_3" data-name=" selected 3" transform="translate(-4759.5 -4607.5)">
    <g id="Group_1043" data-name="Group 1043" transform="translate(4322.5 120.5)">
      <circle id="Ellipse_41" data-name="Ellipse 41" cx="68.5" cy="68.5" r="68.5" transform="translate(574 4487) rotate(90)" fill="#903"/>
    </g>
    <g id="g3075" transform="translate(4789.551 5313.769)">
      <g id="g3077" transform="translate(0 -682.665)">
        <g id="g3079" clip-path="url(#clip-path)">
          <g id="g3085" transform="translate(4.127 9.337)">
            <path id="path3087" d="M-95.525,0h-2.729a10.453,10.453,0,0,0-10.454,10.453V57.581A10.454,10.454,0,0,0-98.253,68.034h35.538" transform="translate(108.708)" fill="none" stroke="#fff" stroke-linecap="round" stroke-linejoin="round" stroke-miterlimit="10" stroke-width="2"/>
          </g>
          <g id="g3089" transform="translate(51.395 9.337)">
            <path id="path3091" d="M0,0H2.729A10.453,10.453,0,0,1,13.181,10.453V30.637" fill="none" stroke="#fff" stroke-linecap="round" stroke-linejoin="round" stroke-miterlimit="10" stroke-width="2"/>
          </g>
          <g id="g3093" transform="translate(15.561 1.213)">
            <path id="path3095" d="M-90.145-138.5h18.6A6.539,6.539,0,0,0-65-145.038a6.519,6.519,0,0,0-1.916-4.624,6.519,6.519,0,0,0-4.624-1.916h-3.366a9.558,9.558,0,0,0-8.883-6.034,9.561,9.561,0,0,0-8.884,6.034h-3.366a6.54,6.54,0,0,0-6.54,6.54,6.519,6.519,0,0,0,1.916,4.624,6.525,6.525,0,0,0,4.625,1.914H-95" transform="translate(102.585 157.613)" fill="none" stroke="#fff" stroke-linecap="round" stroke-linejoin="round" stroke-miterlimit="10" stroke-width="2"/>
          </g>
          <g id="g3097" transform="translate(30.442 6.86)">
            <path id="path3099" d="M-56.669-28.335a3.91,3.91,0,0,0-3.91-3.91,3.91,3.91,0,0,0-3.91,3.91,3.91,3.91,0,0,0,3.91,3.91A3.91,3.91,0,0,0-56.669-28.335Z" transform="translate(64.489 32.245)" fill="none" stroke="#fff" stroke-linecap="round" stroke-linejoin="round" stroke-miterlimit="10" stroke-width="2"/>
          </g>
          <g id="g3101" transform="translate(11.625 41.583)">
            <path id="path3103" d="M-317.543,0h-43.823" transform="translate(361.366)" fill="none" stroke="#fff" stroke-linecap="round" stroke-linejoin="round" stroke-miterlimit="10" stroke-width="2"/>
          </g>
          <g id="g3105" transform="translate(11.625 47.385)">
            <path id="path3107" d="M0,0H17.643" fill="none" stroke="#fff" stroke-linecap="round" stroke-linejoin="round" stroke-miterlimit="10" stroke-width="2"/>
          </g>
          <g id="g3109" transform="translate(11.625 53.188)">
            <path id="path3111" d="M-265.184,0h-36.6" transform="translate(301.781)" fill="none" stroke="#fff" stroke-linecap="round" stroke-linejoin="round" stroke-miterlimit="10" stroke-width="2"/>
          </g>
          <g id="g3113" transform="translate(11.625 58.991)">
            <path id="path3115" d="M0,0H27.32" fill="none" stroke="#fff" stroke-linecap="round" stroke-linejoin="round" stroke-miterlimit="10" stroke-width="2"/>
          </g>
          <g id="g3117" transform="translate(11.625 64.793)">
            <path id="path3119" d="M-235.684,0H-268.21" transform="translate(268.21 0)" fill="none" stroke="#fff" stroke-linecap="round" stroke-linejoin="round" stroke-miterlimit="10" stroke-width="2"/>
          </g>
          <g id="g3121" transform="translate(11.625 70.596)">
            <path id="path3123" d="M0,0H16.138" transform="translate(0 0)" fill="none" stroke="#fff" stroke-linecap="round" stroke-linejoin="round" stroke-miterlimit="10" stroke-width="2"/>
          </g>
          <g id="g3125" transform="translate(15.585 27.401)">
            <path id="path3127" d="M0-58.418l3.027-7.948a.183.183,0,0,1,.338,0l3,7.949" transform="translate(0 66.48)" fill="none" stroke="#fff" stroke-linecap="round" stroke-linejoin="round" stroke-miterlimit="10" stroke-width="2"/>
          </g>
          <g id="g3129" transform="translate(16.529 33.483)">
            <path id="path3131" d="M0,0H4.492" fill="none" stroke="#fff" stroke-linecap="round" stroke-linejoin="round" stroke-miterlimit="10" stroke-width="2"/>
          </g>
          <g id="g3133" transform="translate(44.392 27.401)">
            <path id="path3135" d="M0,0V8.062" fill="none" stroke="#fff" stroke-linecap="round" stroke-linejoin="round" stroke-miterlimit="10" stroke-width="2"/>
          </g>
          <g id="g3137" transform="translate(35.026 27.401)">
            <path id="path3139" d="M-40.136-29.209c0,2.221-1.233,3.979-3.189,4.013-.651.011-2.334.018-2.334.018s-.011-2.92-.011-4.04c0-.92-.006-4.022-.006-4.022h2.283C-41.246-33.24-40.136-31.43-40.136-29.209Z" transform="translate(45.675 33.24)" fill="none" stroke="#fff" stroke-linecap="round" stroke-linejoin="round" stroke-miterlimit="10" stroke-width="2"/>
          </g>
          <g id="g3141" transform="translate(25.39 27.401)">
            <path id="path3143" d="M0,0V5.548A2.362,2.362,0,0,0,1.265,7.637a2.715,2.715,0,0,0,1.486.425,2.911,2.911,0,0,0,1.332-.3A2.414,2.414,0,0,0,5.6,5.542V0" fill="none" stroke="#fff" stroke-linecap="round" stroke-linejoin="round" stroke-miterlimit="10" stroke-width="2"/>
          </g>
          <g id="g3145" transform="translate(48.666 27.401)">
            <path id="path3147" d="M0,0H4.452" fill="none" stroke="#fff" stroke-linecap="round" stroke-linejoin="round" stroke-miterlimit="10" stroke-width="2"/>
          </g>
          <g id="g3149" transform="translate(50.883 27.658)">
            <path id="path3151" d="M0,0V7.8" fill="none" stroke="#fff" stroke-linecap="round" stroke-linejoin="round" stroke-miterlimit="10" stroke-width="2"/>
          </g>
          <g id="g3153" transform="translate(44.15 47.064)">
            <path id="path3155" d="M-235.558-183.525a17.153,17.153,0,0,0,2-8.072,17.256,17.256,0,0,0-17.256-17.256A17.255,17.255,0,0,0-268.066-191.6a17.255,17.255,0,0,0,17.254,17.254,17.194,17.194,0,0,0,12.4-5.258" transform="translate(268.066 208.853)" fill="none" stroke="#fff" stroke-linecap="round" stroke-linejoin="round" stroke-miterlimit="10" stroke-width="2"/>
          </g>
          <g id="g3157" transform="translate(49.91 52.824)">
            <path id="path3159" d="M-166.59-83.3a11.5,11.5,0,0,0-11.5-11.5,11.5,11.5,0,0,0-11.5,11.5,11.5,11.5,0,0,0,11.5,11.5A11.5,11.5,0,0,0-166.59-83.3Z" transform="translate(189.581 94.79)" fill="none" stroke="#fff" stroke-linecap="round" stroke-linejoin="round" stroke-miterlimit="10" stroke-width="2"/>
          </g>
          <g id="g3161" transform="translate(54.873 39.969)">
            <path id="path3163" d="M-68.953,0h-5.968a3.548,3.548,0,0,0-3.548,3.548A3.548,3.548,0,0,0-74.921,7.1h5.968a3.548,3.548,0,0,0,3.548-3.548A3.548,3.548,0,0,0-68.953,0Z" transform="translate(78.469)" fill="none" stroke="#fff" stroke-linecap="round" stroke-linejoin="round" stroke-miterlimit="10" stroke-width="2"/>
          </g>
          <g id="g3165" transform="translate(61.405 52.824)">
            <path id="path3167" d="M0,0V3.167" fill="none" stroke="#fff" stroke-linecap="round" stroke-linejoin="round" stroke-miterlimit="10" stroke-width="2"/>
          </g>
          <g id="g3169" transform="translate(61.405 72.648)">
            <path id="path3171" d="M0,0V3.167" fill="none" stroke="#fff" stroke-linecap="round" stroke-linejoin="round" stroke-miterlimit="10" stroke-width="2"/>
          </g>
          <g id="g3173" transform="translate(49.91 64.319)">
            <path id="path3175" d="M0,0H3.167" fill="none" stroke="#fff" stroke-linecap="round" stroke-linejoin="round" stroke-miterlimit="10" stroke-width="2"/>
          </g>
          <g id="g3177" transform="translate(69.734 64.319)">
            <path id="path3179" d="M0,0H3.167" fill="none" stroke="#fff" stroke-linecap="round" stroke-linejoin="round" stroke-miterlimit="10" stroke-width="2"/>
          </g>
          <g id="g3181" transform="translate(58.98 59.198)">
            <path id="path3183" d="M-5.145-49.532a2.425,2.425,0,0,1,0-3.429l2.7-2.7a2.425,2.425,0,0,1,3.429,0,2.425,2.425,0,0,1,0,3.429l-2.7,2.7A2.425,2.425,0,0,1-5.145-49.532Z" transform="translate(5.855 56.368)" fill="none" stroke="#fff" stroke-linecap="round" stroke-linejoin="round" stroke-miterlimit="10" stroke-width="2"/>
          </g>
        </g>
      </g>
    </g>
  </g>
</svg>
