<svg xmlns="http://www.w3.org/2000/svg" width="137" height="137" viewBox="0 0 137 137">
  <g id="_selected_1" data-name=" selected 1" transform="translate(-9493.252 -4528)">
    <g id="Group_1065" data-name="Group 1065" transform="translate(9056.252 41)">
      <g id="Group_1139" data-name="Group 1139">
        <circle id="Ellipse_41" data-name="Ellipse 41" cx="68.5" cy="68.5" r="68.5" transform="translate(574 4487) rotate(90)" fill="#903"/>
      </g>
    </g>
    <g id="deadline_10078124" transform="translate(9517.388 4551.352)">
      <path id="Path_1668" data-name="Path 1668" d="M2.421,42.282c.056,0,.112.014.153.014a1.334,1.334,0,0,0,1.339-1.2A38.178,38.178,0,0,1,30.632,8.967l-.586.837a1.363,1.363,0,0,0,.349,1.883,1.309,1.309,0,0,0,.767.237,1.364,1.364,0,0,0,1.116-.586l2.636-3.793a1.361,1.361,0,0,0,.209-1.06,1.333,1.333,0,0,0-.516-.767c-.042-.028-.07-.084-.112-.112L30.507,3.263a1.354,1.354,0,0,0-1.381,2.329l1.1.655A40.867,40.867,0,0,0,1.222,40.776a1.374,1.374,0,0,0,1.2,1.506Z" transform="translate(0.481 1.215)" fill="#fff"/>
      <path id="Path_1669" data-name="Path 1669" d="M38,69.675A38.146,38.146,0,0,1,5.887,42.956l.837.586A1.354,1.354,0,1,0,8.257,41.31L4.464,38.688a1.343,1.343,0,0,0-1.924.418c-.2.321-.014.014-.014.014L.183,43.095A1.359,1.359,0,0,0,.657,44.95a1.366,1.366,0,0,0,1.855-.488l.655-1.1A40.872,40.872,0,0,0,37.682,72.366c.056,0,.112.014.153.014A1.359,1.359,0,0,0,38,69.675Z" transform="translate(0 15.17)" fill="#fff"/>
      <path id="Path_1670" data-name="Path 1670" d="M68.091,35.893A1.331,1.331,0,0,0,66.6,37.079a38.2,38.2,0,0,1-26.719,32.13l.586-.837a1.363,1.363,0,0,0-.349-1.883,1.348,1.348,0,0,0-1.883.349L35.6,70.631a1.287,1.287,0,0,0,.153,1.687,1.11,1.11,0,0,0,.237.209c.014.014.028.028.042.028L40,74.9a1.36,1.36,0,0,0,1.381-2.343l-1.1-.655A40.887,40.887,0,0,0,69.29,37.371a1.364,1.364,0,0,0-1.2-1.478Z" transform="translate(13.951 14.158)" fill="#fff"/>
      <path id="Path_1671" data-name="Path 1671" d="M30.843,18.172A1.345,1.345,0,0,0,32.2,16.819V14.853a1.353,1.353,0,1,0-2.705,0v1.966A1.354,1.354,0,0,0,30.843,18.172Z" transform="translate(11.636 5.328)" fill="#fff"/>
      <path id="Path_1672" data-name="Path 1672" d="M22.472,16.731a1.349,1.349,0,1,0-2.343,1.339l.99,1.7a1.356,1.356,0,0,0,1.171.669,1.308,1.308,0,0,0,.669-.181,1.363,1.363,0,0,0,.5-1.841Z" transform="translate(7.875 6.336)" fill="#fff"/>
      <path id="Path_1673" data-name="Path 1673" d="M16.694,24.2l-1.7-.99a1.349,1.349,0,0,0-1.339,2.343l1.7.99a1.307,1.307,0,0,0,.669.181,1.339,1.339,0,0,0,1.171-.669A1.376,1.376,0,0,0,16.694,24.2Z" transform="translate(5.118 9.087)" fill="#fff"/>
      <path id="Path_1674" data-name="Path 1674" d="M15.082,33.923a1.345,1.345,0,0,0-1.353-1.353H11.763a1.353,1.353,0,0,0,0,2.705h1.966A1.354,1.354,0,0,0,15.082,33.923Z" transform="translate(4.109 12.852)" fill="#fff"/>
      <path id="Path_1675" data-name="Path 1675" d="M15.342,41.592l-1.7.99a1.342,1.342,0,0,0,.669,2.51,1.308,1.308,0,0,0,.669-.181l1.7-.99a1.363,1.363,0,0,0,.5-1.841A1.343,1.343,0,0,0,15.342,41.592Z" transform="translate(5.117 16.339)" fill="#fff"/>
      <path id="Path_1676" data-name="Path 1676" d="M22.963,48.052a1.336,1.336,0,0,0-1.841.5l-.99,1.7a1.336,1.336,0,0,0,.5,1.841,1.307,1.307,0,0,0,.669.181,1.339,1.339,0,0,0,1.171-.669l.99-1.7A1.376,1.376,0,0,0,22.963,48.052Z" transform="translate(7.872 18.888)" fill="#fff"/>
      <path id="Path_1677" data-name="Path 1677" d="M30.843,50.24a1.345,1.345,0,0,0-1.353,1.353v1.966a1.353,1.353,0,1,0,2.705,0V51.593A1.363,1.363,0,0,0,30.843,50.24Z" transform="translate(11.636 19.823)" fill="#fff"/>
      <path id="Path_1678" data-name="Path 1678" d="M39.488,51.605a1.356,1.356,0,0,0,1.171.669,1.308,1.308,0,0,0,.669-.181,1.363,1.363,0,0,0,.5-1.841l-.99-1.7a1.363,1.363,0,0,0-1.841-.5,1.346,1.346,0,0,0-.488,1.841Z" transform="translate(15.124 18.89)" fill="#fff"/>
      <path id="Path_1679" data-name="Path 1679" d="M45.461,43.931l1.7.99a1.308,1.308,0,0,0,.669.181,1.342,1.342,0,0,0,.669-2.51l-1.7-.99a1.343,1.343,0,0,0-1.841.488A1.363,1.363,0,0,0,45.461,43.931Z" transform="translate(17.671 16.343)" fill="#fff"/>
      <path id="Path_1680" data-name="Path 1680" d="M47.15,33.923A1.345,1.345,0,0,0,48.5,35.275h1.966a1.353,1.353,0,0,0,0-2.705H48.5A1.363,1.363,0,0,0,47.15,33.923Z" transform="translate(18.604 12.852)" fill="#fff"/>
      <path id="Path_1681" data-name="Path 1681" d="M46.144,26.722a1.308,1.308,0,0,0,.669-.181l1.7-.99a1.347,1.347,0,1,0-1.353-2.329l-1.7.99a1.363,1.363,0,0,0-.5,1.841,1.378,1.378,0,0,0,1.185.669Z" transform="translate(17.671 9.091)" fill="#fff"/>
      <path id="Path_1682" data-name="Path 1682" d="M38.991,20.272a1.308,1.308,0,0,0,.669.181,1.339,1.339,0,0,0,1.171-.669l.99-1.7a1.349,1.349,0,0,0-2.343-1.339l-.99,1.7A1.347,1.347,0,0,0,38.991,20.272Z" transform="translate(15.118 6.337)" fill="#fff"/>
      <path id="Path_1683" data-name="Path 1683" d="M85.247,6.347l-2.915-.5a1.326,1.326,0,0,0-1.813-1.813l-.5-2.915a1.352,1.352,0,1,0-2.664.46l.823,4.7L76.5,7.95l-.488-2.817a1.352,1.352,0,0,0-2.664.46l.823,4.7L72.5,11.967,72.012,9.15a1.352,1.352,0,1,0-2.664.46l.823,4.7-2.538,2.538A41.378,41.378,0,0,0,44.359,6.026,1.348,1.348,0,1,0,44.052,8.7,38.4,38.4,0,0,1,65.7,18.744l-4.281,4.281a32.307,32.307,0,1,0,1.924,1.924l4.281-4.281a38.093,38.093,0,0,1,8.548,14.754l-.823-.572a1.338,1.338,0,0,0-1.883.349,1.363,1.363,0,0,0,.349,1.883L77.6,39.718a1.382,1.382,0,0,0,.767.237,2.081,2.081,0,0,0,.293-.028,1.393,1.393,0,0,0,.879-.628l2.343-3.974a1.354,1.354,0,1,0-2.329-1.381L78.9,35.06a40.834,40.834,0,0,0-9.357-16.288l2.524-2.524,4.7.823a1.352,1.352,0,0,0,.46-2.664l-2.817-.488,1.673-1.673,4.7.823a1.352,1.352,0,0,0,.46-2.664l-2.817-.488L80.1,8.243l4.7.823a1.389,1.389,0,0,0,1.562-1.1,1.4,1.4,0,0,0-1.116-1.618ZM69.14,46.774a29.683,29.683,0,1,1-9.678-21.811L43.285,41.14a6.654,6.654,0,0,0-3.709-1.13,6.75,6.75,0,1,0,6.75,6.75,6.654,6.654,0,0,0-1.13-3.709L61.372,26.874A29.434,29.434,0,0,1,69.14,46.774Zm-25.506,0a4.089,4.089,0,1,1-2.315-3.64l-2.678,2.678a1.356,1.356,0,0,0,1.924,1.911l2.691-2.691A4.6,4.6,0,0,1,43.634,46.774Z" transform="translate(2.89 0)" fill="#fff"/>
    </g>
  </g>
</svg>
