<svg xmlns="http://www.w3.org/2000/svg" width="137" height="137" viewBox="0 0 137 137">
  <g id="_selected_4" data-name=" selected 4" transform="translate(-7077.621 -4585.309)">
    <g id="Group_1059" data-name="Group 1059" transform="translate(6640.621 98.309)">
      <circle id="Ellipse_41" data-name="Ellipse 41" cx="68.5" cy="68.5" r="68.5" transform="translate(574 4487) rotate(90)" fill="#903"/>
    </g>
    <g id="business_10216630" transform="translate(7103.319 4612.231)">
      <circle id="Ellipse_356" data-name="Ellipse 356" cx="18.592" cy="18.592" r="18.592" transform="matrix(0.346, -0.938, 0.938, 0.346, -1.95, 38.666)" fill="none" stroke="#fff" stroke-linecap="round" stroke-linejoin="round" stroke-miterlimit="10" stroke-width="2"/>
      <circle id="Ellipse_357" data-name="Ellipse 357" cx="12.882" cy="12.882" r="12.882" transform="matrix(0.196, -0.981, 0.981, 0.196, 6.775, 37.738)" fill="none" stroke="#fff" stroke-linecap="round" stroke-linejoin="round" stroke-miterlimit="10" stroke-width="2"/>
      <path id="Path_1684" data-name="Path 1684" d="M23.082,35.2s2.523,20.584,2.523,22.842a7.7,7.7,0,0,1-15.405,0c0-2.258,2.523-22.842,2.523-22.842" transform="translate(3.985 10.304)" fill="none" stroke="#fff" stroke-linecap="round" stroke-linejoin="round" stroke-miterlimit="10" stroke-width="2"/>
      <path id="Path_1685" data-name="Path 1685" d="M12.6,22.948,15.256,25.6l7.3-7.3" transform="translate(4.773 4.761)" fill="none" stroke="#fff" stroke-linecap="round" stroke-linejoin="round" stroke-miterlimit="10" stroke-width="2"/>
      <circle id="Ellipse_358" data-name="Ellipse 358" cx="9.96" cy="9.96" r="9.96" transform="translate(65.713 5.796)" fill="none" stroke="#fff" stroke-linecap="round" stroke-linejoin="round" stroke-miterlimit="10" stroke-width="2"/>
      <path id="Path_1686" data-name="Path 1686" d="M53.4,13.92l2.523,2.39,5.71-5.71" transform="translate(18.156 2.235)" fill="none" stroke="#fff" stroke-linecap="round" stroke-linejoin="round" stroke-miterlimit="10" stroke-width="2"/>
      <circle id="Ellipse_359" data-name="Ellipse 359" cx="9.96" cy="9.96" r="9.96" transform="translate(65.713 32.622)" fill="none" stroke="#fff" stroke-linecap="round" stroke-linejoin="round" stroke-miterlimit="10" stroke-width="2"/>
      <g id="Group_883" data-name="Group 883" transform="translate(73.149 40.059)">
        <path id="Path_1687" data-name="Path 1687" d="M59.646,31.1,54.6,36.146" transform="translate(-54.6 -31.1)" fill="none" stroke="#fff" stroke-linecap="round" stroke-linejoin="round" stroke-miterlimit="10" stroke-width="2"/>
        <path id="Path_1688" data-name="Path 1688" d="M59.646,36.146,54.6,31.1" transform="translate(-54.6 -31.1)" fill="none" stroke="#fff" stroke-linecap="round" stroke-linejoin="round" stroke-miterlimit="10" stroke-width="2"/>
      </g>
      <circle id="Ellipse_360" data-name="Ellipse 360" cx="9.96" cy="9.96" r="9.96" transform="translate(65.713 59.448)" fill="none" stroke="#fff" stroke-linecap="round" stroke-linejoin="round" stroke-miterlimit="10" stroke-width="2"/>
      <g id="Group_884" data-name="Group 884" transform="translate(73.149 67.018)">
        <path id="Path_1689" data-name="Path 1689" d="M59.646,51.4,54.6,56.314" transform="translate(-54.6 -51.4)" fill="none" stroke="#fff" stroke-linecap="round" stroke-linejoin="round" stroke-miterlimit="10" stroke-width="2"/>
        <path id="Path_1690" data-name="Path 1690" d="M59.646,56.314,54.6,51.4" transform="translate(-54.6 -51.4)" fill="none" stroke="#fff" stroke-linecap="round" stroke-linejoin="round" stroke-miterlimit="10" stroke-width="2"/>
      </g>
      <path id="Path_1691" data-name="Path 1691" d="M45.7,12.8H38.4V66.452h7.835" transform="translate(13.236 2.957)" fill="none" stroke="#fff" stroke-linecap="round" stroke-linejoin="round" stroke-miterlimit="10" stroke-width="2"/>
      <path id="Path_1692" data-name="Path 1692" d="M48.236,33H32.3" transform="translate(11.235 9.583)" fill="none" stroke="#fff" stroke-linecap="round" stroke-linejoin="round" stroke-miterlimit="10" stroke-width="2"/>
    </g>
  </g>
</svg>
