<svg xmlns="http://www.w3.org/2000/svg" width="137" height="137" viewBox="0 0 137 137">
  <g id="_selected_1" data-name=" selected 1" transform="translate(-2280 -4643)">
    <g id="Group_1027" data-name="Group 1027" transform="translate(1843 156)">
      <circle id="Ellipse_41" data-name="Ellipse 41" cx="68.5" cy="68.5" r="68.5" transform="translate(574 4487) rotate(90)" fill="#903"/>
    </g>
    <path id="competency_16761000" d="M54.069,25.79A28.287,28.287,0,1,0,82.356,54.077,28.319,28.319,0,0,0,54.069,25.79ZM32.35,67.863a10.2,10.2,0,0,1,8.393-4.46h7.621A10.166,10.166,0,0,1,58.518,73.557v5.867a25.622,25.622,0,0,1-3.769.376V74.119a1.277,1.277,0,1,0-2.555,0v5.623A25.75,25.75,0,0,1,32.352,67.863Zm12.2-7.015a6.979,6.979,0,1,1,6.979-6.979A6.987,6.987,0,0,1,44.552,60.848ZM61.071,78.84V73.557A12.729,12.729,0,0,0,50.777,61.081a9.533,9.533,0,1,0-12.448,0,12.793,12.793,0,0,0-7.346,4.354,25.729,25.729,0,1,1,30.087,13.4ZM98.328,47.414,88.682,43.68a35.978,35.978,0,0,0-2.789-6.725l4.183-9.464a1.279,1.279,0,0,0-.265-1.42l-7.738-7.738a1.278,1.278,0,0,0-1.42-.265l-9.464,4.183a35.926,35.926,0,0,0-6.725-2.789L60.73,9.816A1.276,1.276,0,0,0,59.538,9H48.6a1.28,1.28,0,0,0-1.192.816L43.67,19.463a36.011,36.011,0,0,0-6.723,2.789l-9.466-4.183a1.278,1.278,0,0,0-1.42.265l-7.738,7.738a1.278,1.278,0,0,0-.265,1.42l4.183,9.464a35.947,35.947,0,0,0-2.789,6.725L9.806,47.414a1.276,1.276,0,0,0-.816,1.192V59.548a1.28,1.28,0,0,0,.816,1.192l9.647,3.734A36.011,36.011,0,0,0,22.241,71.2l-4.183,9.466a1.279,1.279,0,0,0,.265,1.42l7.738,7.738a1.278,1.278,0,0,0,1.42.265L36.945,85.9a36,36,0,0,0,6.725,2.789L47.4,98.338a1.276,1.276,0,0,0,1.192.816H59.538a1.28,1.28,0,0,0,1.192-.816l3.734-9.647A36.011,36.011,0,0,0,71.187,85.9l9.466,4.183a1.278,1.278,0,0,0,1.42-.265l7.738-7.738a1.278,1.278,0,0,0,.265-1.42L85.893,71.2a36,36,0,0,0,2.789-6.725l9.647-3.734a1.276,1.276,0,0,0,.816-1.192V48.606a1.28,1.28,0,0,0-.816-1.192ZM96.589,58.672l-9.419,3.646a1.272,1.272,0,0,0-.768.847,33.418,33.418,0,0,1-3.046,7.346,1.279,1.279,0,0,0-.055,1.142L87.386,80.9l-6.5,6.5-9.244-4.084a1.279,1.279,0,0,0-1.142.055,33.425,33.425,0,0,1-7.344,3.046,1.285,1.285,0,0,0-.847.768L58.662,96.6H49.47l-3.646-9.419a1.272,1.272,0,0,0-.847-.768,33.417,33.417,0,0,1-7.346-3.046,1.279,1.279,0,0,0-1.142-.055L27.247,87.4l-6.5-6.5,4.084-9.244a1.279,1.279,0,0,0-.055-1.142,33.425,33.425,0,0,1-3.046-7.344,1.285,1.285,0,0,0-.768-.847l-9.421-3.646V49.482l9.419-3.644a1.272,1.272,0,0,0,.768-.847,33.381,33.381,0,0,1,3.046-7.346,1.279,1.279,0,0,0,.055-1.142l-4.084-9.242,6.5-6.5,9.244,4.084a1.279,1.279,0,0,0,1.142-.055,33.425,33.425,0,0,1,7.344-3.046,1.285,1.285,0,0,0,.847-.768l3.646-9.421h9.192l3.646,9.421a1.272,1.272,0,0,0,.847.768A33.352,33.352,0,0,1,70.5,24.79a1.279,1.279,0,0,0,1.142.055l9.244-4.084,6.5,6.5L83.3,36.5a1.279,1.279,0,0,0,.055,1.142A33.4,33.4,0,0,1,86.4,44.99a1.285,1.285,0,0,0,.768.847l9.419,3.644v9.192ZM64.407,46.518a1.278,1.278,0,0,0,1.243-1.569L64.6,40.485l3.471-2.995a1.277,1.277,0,0,0-.728-2.239l-4.568-.383L61,30.641a1.276,1.276,0,0,0-2.354,0l-1.776,4.227-4.568.383a1.277,1.277,0,0,0-.728,2.239l3.471,2.995L54,44.948A1.277,1.277,0,0,0,55.9,46.332l3.922-2.374,3.922,2.374a1.271,1.271,0,0,0,.662.184Zm-3.922-5.146a1.277,1.277,0,0,0-1.323,0l-1.984,1.2.529-2.258a1.278,1.278,0,0,0-.409-1.259l-1.756-1.515,2.31-.193a1.278,1.278,0,0,0,1.071-.777l.9-2.137.9,2.137a1.278,1.278,0,0,0,1.071.777l2.31.193-1.756,1.515a1.277,1.277,0,0,0-.409,1.259l.529,2.258-1.984-1.2Zm9.855,4.066a1.276,1.276,0,0,0-1.177.783l-1.776,4.227-4.568.383a1.277,1.277,0,0,0-.728,2.239l3.471,2.995-1.048,4.464A1.278,1.278,0,0,0,65.758,62.1a1.293,1.293,0,0,0,.662-.184l3.922-2.374,3.922,2.374a1.277,1.277,0,0,0,1.905-1.383l-1.048-4.464,3.471-2.995a1.277,1.277,0,0,0-.728-2.239L73.3,50.449l-1.776-4.227a1.276,1.276,0,0,0-1.177-.783Zm1.969,7.49,2.31.193-1.756,1.515a1.277,1.277,0,0,0-.409,1.259l.529,2.258L71,56.951a1.283,1.283,0,0,0-1.325,0l-1.984,1.2.529-2.258a1.278,1.278,0,0,0-.409-1.259l-1.756-1.515,2.31-.193a1.278,1.278,0,0,0,1.071-.777l.9-2.137.9,2.137a1.278,1.278,0,0,0,1.071.777Z" transform="translate(2293.521 4657.423)" fill="#fff"/>
  </g>
</svg>
