<svg xmlns="http://www.w3.org/2000/svg" width="84.264" height="84.264" viewBox="0 0 84.264 84.264">
  <g id="Group_1_icons_-_selected_5" data-name="Group 1 icons - selected 5" transform="translate(18222.793 -3200.608)">
    <circle id="Ellipse_393" data-name="Ellipse 393" cx="42.132" cy="42.132" r="42.132" transform="translate(-18138.529 3200.608) rotate(90)" fill="#903"/>
    <g id="Group_930" data-name="Group 930" transform="translate(-18219.58 3195.102)">
      <path id="Path_1044" data-name="Path 1044" d="M65.809,59.709c-.2,2.332-.206,4.754-1.468,6.489-1.859,2.554-5.924,2.992-8.479,4.851-2.529,1.84-4.191,5.582-7.23,6.569-2.932.952-6.462-1.067-9.712-1.067s-6.78,2.019-9.712,1.067c-3.038-.986-4.7-4.729-7.23-6.569-2.555-1.86-6.62-2.3-8.479-4.851-1.841-2.53-1.013-6.522-2-9.56-.952-2.932-4-5.661-4-8.91s3.048-5.978,4-8.91c.986-3.038.158-7.03,2-9.56,1.859-2.554,5.924-2.992,8.479-4.851,2.529-1.84,4.191-5.582,7.23-6.569,2.932-.952,6.462,1.067,9.712,1.067s6.78-2.019,9.712-1.067c3.038.986,4.7,4.729,7.23,6.569,2.555,1.86,6.62,2.3,8.479,4.851,1.841,2.53,1.013,6.522,2,9.56.952,2.932,4,5.661,4,8.91,0,2.788-2.244,5.193-3.482,7.672" fill="none" stroke="#fff" stroke-linecap="round" stroke-linejoin="round" stroke-miterlimit="10" stroke-width="1.5"/>
      <path id="Path_1045" data-name="Path 1045" d="M72.59,73.754a23.947,23.947,0,1,1-2.716,3.5" transform="translate(-51.217 -42.409)" fill="none" stroke="#fff" stroke-linecap="round" stroke-linejoin="round" stroke-miterlimit="10" stroke-width="1.5"/>
      <path id="Path_1046" data-name="Path 1046" d="M205.2,361.958h2.272a.506.506,0,0,0,.506-.506V359.62a2.35,2.35,0,0,0-2.349-2.351H194.079a2.35,2.35,0,0,0-2.349,2.351v1.832a.506.506,0,0,0,.506.506h8.544" transform="translate(-160.936 -296.738)" fill="none" stroke="#fff" stroke-linecap="round" stroke-linejoin="round" stroke-miterlimit="10" stroke-width="1.5"/>
      <path id="Path_1047" data-name="Path 1047" d="M123.7,241.131h11.379v1.7a4.813,4.813,0,0,1-4.813,4.813h-1.753a4.813,4.813,0,0,1-4.813-4.813v-1.7Z" transform="translate(-101.507 -195.283)" fill="none" stroke="#fff" stroke-linecap="round" stroke-linejoin="round" stroke-miterlimit="10" stroke-width="1.5"/>
      <path id="Path_1048" data-name="Path 1048" d="M298.3,241.131h11.379v1.7a4.813,4.813,0,0,1-4.813,4.813h-1.753a4.813,4.813,0,0,1-4.813-4.813v-1.7Z" transform="translate(-254.034 -195.283)" fill="none" stroke="#fff" stroke-linecap="round" stroke-linejoin="round" stroke-miterlimit="10" stroke-width="1.5"/>
      <line id="Line_79" data-name="Line 79" y1="21.405" transform="translate(37.014 38.987)" fill="none" stroke="#fff" stroke-linecap="round" stroke-linejoin="round" stroke-miterlimit="10" stroke-width="1.5"/>
      <line id="Line_80" data-name="Line 80" y2="21.405" transform="translate(40.827 38.987)" fill="none" stroke="#fff" stroke-linecap="round" stroke-linejoin="round" stroke-miterlimit="10" stroke-width="1.5"/>
      <path id="Path_1049" data-name="Path 1049" d="M240.924,122.312V119.55a1.9,1.9,0,0,1,1.895-1.895h.023a1.9,1.9,0,0,1,1.895,1.895v2.778" transform="translate(-203.91 -87.42)" fill="none" stroke="#fff" stroke-linecap="round" stroke-linejoin="round" stroke-miterlimit="10" stroke-width="1.5"/>
      <path id="Path_1050" data-name="Path 1050" d="M164.06,155.53h2.906a1.868,1.868,0,0,1,1.868,1.867v.077a1.868,1.868,0,0,1-1.868,1.867H141.2a1.868,1.868,0,0,1-1.868-1.867V157.4a1.868,1.868,0,0,1,1.868-1.867h18.437" transform="translate(-115.161 -120.506)" fill="none" stroke="#fff" stroke-linecap="round" stroke-linejoin="round" stroke-miterlimit="10" stroke-width="1.5"/>
      <line id="Line_81" data-name="Line 81" x1="5.49" y2="6.793" transform="translate(22.192 39.055)" fill="none" stroke="#fff" stroke-linecap="round" stroke-linejoin="round" stroke-miterlimit="10" stroke-width="1.5"/>
      <line id="Line_82" data-name="Line 82" x1="5.49" y1="6.793" transform="translate(28.082 39.055)" fill="none" stroke="#fff" stroke-linecap="round" stroke-linejoin="round" stroke-miterlimit="10" stroke-width="1.5"/>
      <line id="Line_83" data-name="Line 83" x1="5.498" y2="6.804" transform="translate(44.269 39.044)" fill="none" stroke="#fff" stroke-linecap="round" stroke-linejoin="round" stroke-miterlimit="10" stroke-width="1.5"/>
      <line id="Line_84" data-name="Line 84" x1="5.498" y1="6.804" transform="translate(50.15 39.044)" fill="none" stroke="#fff" stroke-linecap="round" stroke-linejoin="round" stroke-miterlimit="10" stroke-width="1.5"/>
    </g>
  </g>
</svg>
