<svg xmlns="http://www.w3.org/2000/svg" width="137" height="137" viewBox="0 0 137 137">
  <g id="_selected_3" data-name=" selected 3" transform="translate(-9821.252 -4528)">
    <g id="Group_1067" data-name="Group 1067" transform="translate(9384.252 41)">
      <circle id="Ellipse_41" data-name="Ellipse 41" cx="68.5" cy="68.5" r="68.5" transform="translate(574 4487) rotate(90)" fill="#903"/>
    </g>
    <g id="Layer_2" data-name="Layer 2" transform="translate(9855.815 4557.568)">
      <g id="Layer_1" data-name="Layer 1" transform="translate(0 0)">
        <g id="crowdfunding">
          <path id="Path_1656" data-name="Path 1656" d="M52.852.027A26.337,26.337,0,0,0,39.583,3.6C22.56-6.733-.114,6.511,0,26.322A26.39,26.39,0,0,0,5.826,42.9a23.627,23.627,0,0,1,4.955,15.231,4.561,4.561,0,0,0-2.023,7.781,4.564,4.564,0,0,0,3.059,7.9h4.251a5.794,5.794,0,0,0,5.778,5.675h9.026a5.794,5.794,0,0,0,5.778-5.675H40.9a4.566,4.566,0,0,0,3.059-7.907,4.559,4.559,0,0,0-2.025-7.781,23.839,23.839,0,0,1,.9-7.36c16.772,7.263,36.752-6.021,36.366-24.389A26.388,26.388,0,0,0,52.852.027ZM30.872,77.083H21.853a3.384,3.384,0,0,1-3.379-3.268H34.252a3.385,3.385,0,0,1-3.381,3.268ZM43.043,62.558a2.152,2.152,0,0,1-2.152,2.152H37.866a1.2,1.2,0,1,0,0,2.407H40.9a2.152,2.152,0,1,1,0,4.294H11.817a2.152,2.152,0,0,1,0-4.294H26.361a1.2,1.2,0,0,0,0-2.407H11.817a2.152,2.152,0,0,1,0-4.293H40.733a2.164,2.164,0,0,1,2.309,2.141Zm9.8-12.221A23.861,23.861,0,0,1,31.466,37.2a1.206,1.206,0,0,0-2.152,1.091A26.322,26.322,0,0,0,40.623,49.764,25.812,25.812,0,0,0,39.518,58H21.371a50.658,50.658,0,0,0-2.318-16.259,37.278,37.278,0,0,1-1.159-4.139,4.819,4.819,0,0,1,4.695-5.794H37.447v1.795l5.2-3-5.2-3.006v1.8H22.588A7.2,7.2,0,0,0,16.959,32.1c-2.624,2.99-1.309,7.17-.166,10.43A48.324,48.324,0,0,1,18.975,58H13.189A25.991,25.991,0,0,0,7.7,41.387,23.634,23.634,0,0,1,2.4,26.322C2.3,8.864,21.872-3.235,37.308,5.083a26.387,26.387,0,0,0-7.983,9.4,1.206,1.206,0,1,0,2.152,1.089,23.988,23.988,0,0,1,8.859-9.632C55.86-3.85,77.05,7.93,76.8,26.385A23.978,23.978,0,0,1,52.852,50.337Z" transform="translate(0 0)" fill="#fff"/>
          <path id="Path_1657" data-name="Path 1657" d="M37.963,4.3a19.2,19.2,0,0,0-14.982,7.153,1.2,1.2,0,0,0,1.872,1.515c9.91-12.28,29.964-5.192,29.964,10.6s-20.053,22.876-29.964,10.6a1.205,1.205,0,0,0-1.872,1.515C34.306,49.705,57.217,41.6,57.225,23.56A19.285,19.285,0,0,0,37.963,4.3Z" transform="translate(14.889 2.819)" fill="#fff"/>
          <path id="Path_1658" data-name="Path 1658" d="M34.451,7.938a1.2,1.2,0,0,0-1.205,1.205v1.5c-6.917,1.124-7.311,11.794,1.205,11.739,3.311,0,4.011,1.914,4.011,3.518-.02,3.94-6.273,4.8-7.739,1.218a1.2,1.2,0,1,0-2.22.932,6.246,6.246,0,0,0,4.743,3.659c.022,1.018-.295,2.669,1.205,2.718a1.2,1.2,0,0,0,1.2-1.2V31.714c6.938-1.108,7.337-11.8-1.2-11.737-3.3,0-3.991-1.915-3.991-3.518.017-3.942,6.271-4.8,7.736-1.22a1.2,1.2,0,0,0,2.22-.932,6.243,6.243,0,0,0-4.761-3.657C35.633,9.635,35.947,7.988,34.451,7.938Z" transform="translate(18.391 5.204)" fill="#fff"/>
          <path id="Path_1659" data-name="Path 1659" d="M34.026,13.378H15.43v-1.8l-5.2,3,5.2,3v-1.8h18.6a1.2,1.2,0,1,0,0-2.407Z" transform="translate(6.707 7.591)" fill="#fff"/>
        </g>
      </g>
    </g>
  </g>
</svg>
