<svg xmlns="http://www.w3.org/2000/svg" width="137" height="137" viewBox="0 0 137 137">
  <g id="Group_1108" data-name="Group 1108" transform="translate(-15854.5 -4415.264)">
    <g id="Group_1102" data-name="Group 1102" transform="translate(15417.5 -71.736)">
      <circle id="Ellipse_41" data-name="Ellipse 41" cx="68.5" cy="68.5" r="68.5" transform="translate(574 4487) rotate(90)" fill="#903"/>
    </g>
    <g id="Voting_Analysis" transform="translate(15882.709 4441.787)">
      <path id="Path_1608" data-name="Path 1608" d="M12.445,81.235c.187.035,53.008.046,53.9.032h.216a.839.839,0,0,0,.2-.039,7.166,7.166,0,0,0,6.329-6.113.877.877,0,0,0-.836-1.14H62.985V43.191a.877.877,0,1,0-1.753,0V73.974H19.38A2.024,2.024,0,0,0,17.4,75.516a4.953,4.953,0,0,1-4.64,4,5.122,5.122,0,0,1-4.81-5.423c0-.2-.018-64.494-.018-64.692a2.654,2.654,0,0,1,2.651-2.651H41.8a.877.877,0,1,0,0-1.753H10.582a4.409,4.409,0,0,0-4.4,4.4V74.09c0,.019.011.036.012.055a6.889,6.889,0,0,0,6.256,7.09ZM19.1,75.929c.094-.391-2.8-.112,52.023-.2a5.272,5.272,0,0,1-4.773,3.786h-49.3a7.269,7.269,0,0,0,2.05-3.584Z" transform="translate(0 0.041)" fill="#fff"/>
      <path id="Path_1609" data-name="Path 1609" d="M38.183,31.883A16.621,16.621,0,0,0,56.638,37.5L68.148,55.112c1.217,1.744,3.5,2.514,5.132,1.358,1.54-1.09,1.751-3.468.47-5.3L62.437,34.121a16.887,16.887,0,0,0,2.181-22.888A16.636,16.636,0,0,0,41.162,8.3a16.9,16.9,0,0,0-2.979,23.58Zm22.882,3.341,1.672,2.527A5.569,5.569,0,0,1,60.1,39.6l-1.8-2.76a16.825,16.825,0,0,0,2.766-1.618ZM72.312,52.169c.755,1.082.673,2.418-.1,2.9-.818.518-2.01-.075-2.616-.944L61.089,41.109a7.327,7.327,0,0,0,2.668-1.818c.667,1.019,6.415,9.66,8.556,12.878ZM42.242,9.684a14.882,14.882,0,0,1,20.987,2.621,15.14,15.14,0,0,1-2.671,21.127,14.882,14.882,0,0,1-20.987-2.621A15.138,15.138,0,0,1,42.242,9.684Z" transform="translate(4.816 0)" fill="#fff"/>
      <path id="Path_1610" data-name="Path 1610" d="M52.237,18.391H59.4a.877.877,0,0,0,.841-1.124A12.018,12.018,0,0,0,53.466,9.6a.877.877,0,0,0-1.217.7l-.882,7.114a.877.877,0,0,0,.87.985Zm1.6-6.65a10.256,10.256,0,0,1,4.319,4.9H53.229Z" transform="translate(7.632 0.806)" fill="#fff"/>
      <path id="Path_1611" data-name="Path 1611" d="M50.745,33.071A12.2,12.2,0,0,0,62.927,20.89a.877.877,0,0,0-.877-.877H51.737L53,9.779a.876.876,0,0,0-.762-.978,12.181,12.181,0,1,0-1.5,24.27Zm.405-22.6L49.875,20.782a.877.877,0,0,0,.87.985H61.137a10.428,10.428,0,1,1-9.987-11.3Z" transform="translate(5.47 0.668)" fill="#fff"/>
      <path id="Path_1612" data-name="Path 1612" d="M13.084,16.573H28.745a.877.877,0,1,0,0-1.753H13.084a.877.877,0,0,0,0,1.753Z" transform="translate(1.018 1.701)" fill="#fff"/>
      <path id="Path_1613" data-name="Path 1613" d="M13.084,22.331h19.61a.877.877,0,0,0,0-1.753H13.084a.877.877,0,0,0,0,1.753Z" transform="translate(1.018 2.673)" fill="#fff"/>
      <path id="Path_1614" data-name="Path 1614" d="M37.116,27.212a.877.877,0,0,0-.877-.877H13.084a.877.877,0,0,0,0,1.753H36.239A.877.877,0,0,0,37.116,27.212Z" transform="translate(1.018 3.646)" fill="#fff"/>
      <path id="Path_1615" data-name="Path 1615" d="M11.17,59.958c1.169-2.175,1.125-2.065,1.2-2.254.121-.3,0-.57-.329-.57H10.425a.331.331,0,0,0-.247.564c.146.136.324.06,1.331.081l-1.066,1.937c-.283.516.5.691.727.241Z" transform="translate(0.66 8.848)" fill="#fff"/>
      <path id="Path_1616" data-name="Path 1616" d="M12.828,59.428c-.387-.2-.654.388-.258.594a1.534,1.534,0,0,0,1.909-.295,1.025,1.025,0,0,0-.321-1.4,1.1,1.1,0,0,0-.874-.06.636.636,0,0,0-.09.061v-.554h.943a.321.321,0,1,0,0-.641H12.785a.3.3,0,0,0-.336.335v1.3c0,.244.232.389.6.189.33-.224.822-.151.822.246,0,.452-.634.423-1.041.224Z" transform="translate(1.047 8.848)" fill="#fff"/>
      <path id="Path_1617" data-name="Path 1617" d="M15.81,60.1c1.557-2.727,1.572-2.639,1.548-2.787a.277.277,0,0,0-.523-.088l-1.507,2.6A.279.279,0,1,0,15.81,60.1Z" transform="translate(1.538 8.838)" fill="#fff"/>
      <path id="Path_1618" data-name="Path 1618" d="M16.127,58.015c0-.534-.277-.921-.81-.921a.81.81,0,0,0-.814.921A.821.821,0,1,0,16.127,58.015Zm-.81-.452c.186,0,.2.266.2.452s-.017.46-.2.46-.207-.265-.207-.46S15.127,57.562,15.317,57.562Z" transform="translate(1.406 8.841)" fill="#fff"/>
      <path id="Path_1619" data-name="Path 1619" d="M18.075,59.109a.815.815,0,0,0-.814-.926c-.9,0-.977,1.146-.6,1.6a.819.819,0,0,0,1.41-.676Zm-.814-.452c.19,0,.207.262.207.452s-.018.46-.207.46-.2-.269-.2-.46S17.074,58.657,17.262,58.657Z" transform="translate(1.735 9.025)" fill="#fff"/>
      <path id="Path_1620" data-name="Path 1620" d="M22.914,59.219c-.166.419-.67.42-1.031.252-.387-.172-.6.41-.254.581a1.372,1.372,0,0,0,2-.749,2.415,2.415,0,0,0-.052-1.5,1.112,1.112,0,0,0-2.152.351.868.868,0,0,0,1.483.714.7.7,0,0,0,.075-.169v.079a1.205,1.205,0,0,1-.071.445Zm-.764-1.1a.373.373,0,1,1,.741,0A.373.373,0,1,1,22.15,58.115Z" transform="translate(2.576 8.84)" fill="#fff"/>
      <path id="Path_1621" data-name="Path 1621" d="M23.781,57.794a2.5,2.5,0,0,0,.165,2.019A1.086,1.086,0,0,0,25.83,59.5a2.486,2.486,0,0,0-.164-2.01,1.1,1.1,0,0,0-1.885.3Zm1.332.142a2.56,2.56,0,0,1,0,1.433.321.321,0,0,1-.615,0,2.559,2.559,0,0,1,0-1.433A.328.328,0,0,1,25.113,57.936Z" transform="translate(2.951 8.84)" fill="#fff"/>
      <path id="Path_1622" data-name="Path 1622" d="M27.472,58.015c0-.534-.277-.921-.81-.921a.81.81,0,0,0-.814.921A.822.822,0,1,0,27.472,58.015Zm-.923-.411a.161.161,0,0,1,.114-.041c.25,0,.218.558.179.721-.056.246-.259.235-.334.091S26.421,57.717,26.549,57.6Z" transform="translate(3.323 8.841)" fill="#fff"/>
      <path id="Path_1623" data-name="Path 1623" d="M27.155,60.1c1.56-2.733,1.572-2.64,1.548-2.787a.277.277,0,0,0-.523-.088l-1.507,2.6A.279.279,0,1,0,27.155,60.1Z" transform="translate(3.454 8.838)" fill="#fff"/>
      <path id="Path_1624" data-name="Path 1624" d="M29.42,59.11a.814.814,0,0,0-1.526-.495,1.209,1.209,0,0,0,.116,1.171.818.818,0,0,0,1.41-.676ZM28.5,58.7a.167.167,0,0,1,.262.058,1.258,1.258,0,0,1,.03.622c-.059.253-.263.228-.334.09S28.366,58.817,28.5,58.7Z" transform="translate(3.652 9.025)" fill="#fff"/>
      <path id="Path_1625" data-name="Path 1625" d="M34.056,60.223a1.056,1.056,0,0,0,.62-1.913.817.817,0,0,0-1.051.142.749.749,0,0,0-.077.173v-.08c0-.647.331-.882.861-.779.211.04.422.234.6,0a.361.361,0,0,0,.039-.357c-.066-.15-.36-.239-.486-.269-.928-.221-1.752.31-1.752,1.55,0,.886.38,1.536,1.248,1.536Zm.327-1.02a.373.373,0,1,1-.741,0A.373.373,0,1,1,34.384,59.2Z" transform="translate(4.498 8.841)" fill="#fff"/>
      <path id="Path_1626" data-name="Path 1626" d="M35.518,57.27a2.161,2.161,0,0,0-.226,2.542,1.086,1.086,0,0,0,1.883-.312,2.428,2.428,0,0,0,.134-.857c0-.862-.3-1.55-1.158-1.55a1.094,1.094,0,0,0-.633.177Zm1.041,1.373c0,.379-.03.951-.409.951s-.409-.571-.409-.951.028-.921.409-.921S36.559,58.262,36.559,58.643Z" transform="translate(4.866 8.841)" fill="#fff"/>
      <path id="Path_1627" data-name="Path 1627" d="M38.358,60.233c.158-.06.108-.108,1.644-2.731a.276.276,0,1,0-.478-.276c-1.535,2.685-1.574,2.618-1.55,2.785a.285.285,0,0,0,.383.222Z" transform="translate(5.37 8.838)" fill="#fff"/>
      <path id="Path_1628" data-name="Path 1628" d="M40.667,59.6a1.182,1.182,0,0,0-.118-1.16.851.851,0,1,0,.118,1.16Zm-.717-.94a.167.167,0,0,1,.153.1,1.03,1.03,0,0,1-.039.769.164.164,0,0,1-.265-.056.868.868,0,0,1-.052-.359C39.748,58.919,39.761,58.658,39.951,58.658Z" transform="translate(5.568 9.025)" fill="#fff"/>
      <path id="Path_1629" data-name="Path 1629" d="M38.442,58.834a1.1,1.1,0,0,0,.161-1.487.819.819,0,0,0-1.41.669,1.024,1.024,0,0,0,.214.677.838.838,0,0,0,1.035.14Zm-.549-1.229a.166.166,0,0,1,.262.058c.078.145.12.814-.149.814-.195,0-.207-.265-.207-.46C37.8,57.9,37.807,57.682,37.893,57.605Z" transform="translate(5.239 8.84)" fill="#fff"/>
      <path id="Path_1630" data-name="Path 1630" d="M44.2,59.958c1.087-2.1,1.244-2.153,1.244-2.492a.33.33,0,0,0-.37-.331c-1.542.023-1.715-.059-1.866.082a.33.33,0,0,0,.247.564h1.084l-1.066,1.937c-.291.531.507.669.727.241Z" transform="translate(6.239 8.848)" fill="#fff"/>
      <path id="Path_1631" data-name="Path 1631" d="M45.464,57.794a2.5,2.5,0,0,0,.165,2.019,1,1,0,0,0,.859.411c1.367,0,1.351-2.079.861-2.733A1.1,1.1,0,0,0,45.464,57.794Zm1.332.142a1.785,1.785,0,0,1,.1.708c0,.379-.03.951-.409.951a.327.327,0,0,1-.308-.226,2.56,2.56,0,0,1,0-1.433.328.328,0,0,1,.615,0Z" transform="translate(6.613 8.84)" fill="#fff"/>
      <path id="Path_1632" data-name="Path 1632" d="M48.7,60.233c.158-.06.1-.092,1.644-2.731a.276.276,0,1,0-.478-.276l-1.507,2.6a.28.28,0,0,0,.34.411Z" transform="translate(7.117 8.838)" fill="#fff"/>
      <path id="Path_1633" data-name="Path 1633" d="M48.781,58.834a1.1,1.1,0,0,0,.161-1.487.818.818,0,0,0-1.41.669,1.023,1.023,0,0,0,.214.677.838.838,0,0,0,1.035.14Zm-.549-1.229a.166.166,0,0,1,.262.058,1.258,1.258,0,0,1,.03.622c-.058.256-.264.227-.334.091S48.1,57.718,48.232,57.605Z" transform="translate(6.985 8.84)" fill="#fff"/>
      <path id="Path_1634" data-name="Path 1634" d="M51.006,59.6a1.182,1.182,0,0,0-.118-1.16.851.851,0,1,0,.118,1.16Zm-.717-.94c.19,0,.207.262.207.452s-.017.46-.207.46-.2-.27-.2-.46S50.1,58.658,50.29,58.658Z" transform="translate(7.314 9.024)" fill="#fff"/>
      <path id="Path_1635" data-name="Path 1635" d="M18.751,55.383V42.935a.877.877,0,0,0-.877-.877H11.26a.877.877,0,0,0-.877.877V55.383a.877.877,0,0,0,.877.877h6.615A.877.877,0,0,0,18.751,55.383ZM17,54.506H12.137V43.812H17Z" transform="translate(0.71 6.302)" fill="#fff"/>
      <path id="Path_1636" data-name="Path 1636" d="M51.779,55.257V43.676A.877.877,0,0,0,50.9,42.8H44.288a.877.877,0,0,0-.877.877V55.257a.877.877,0,0,0,.877.877H50.9A.877.877,0,0,0,51.779,55.257Zm-1.753-.877H45.165V44.552h4.861Z" transform="translate(6.289 6.427)" fill="#fff"/>
      <path id="Path_1637" data-name="Path 1637" d="M41.441,54.78V46.505a.877.877,0,0,0-.877-.877H33.949a.877.877,0,0,0-.877.877V54.78a.877.877,0,0,0,.877.877h6.615A.877.877,0,0,0,41.441,54.78ZM39.687,53.9H34.826V47.382h4.861Z" transform="translate(4.543 6.905)" fill="#fff"/>
      <path id="Path_1638" data-name="Path 1638" d="M30.1,56.318V37.4a.877.877,0,0,0-.877-.877H22.6a.877.877,0,0,0-.877.877V56.318a.877.877,0,0,0,.877.877h6.615A.877.877,0,0,0,30.1,56.318Zm-1.753-.877H23.481V38.274h4.861Z" transform="translate(2.627 5.366)" fill="#fff"/>
    </g>
  </g>
</svg>
