<svg xmlns="http://www.w3.org/2000/svg" width="137" height="137" viewBox="0 0 137 137">
  <g id="_selected_3" data-name=" selected 3" transform="translate(-11886 -4612.569)">
    <g id="Group_1081" data-name="Group 1081" transform="translate(11449 125.569)">
      <circle id="Ellipse_41" data-name="Ellipse 41" cx="68.5" cy="68.5" r="68.5" transform="translate(574 4487) rotate(90)" fill="#903"/>
    </g>
    <path id="plan_11511818" d="M78.386,122.449h9.1a1.476,1.476,0,0,1,1.476,1.476V146.7a1.476,1.476,0,0,1-1.476,1.476h-9.1a1.476,1.476,0,0,1-1.476-1.476V123.925A1.476,1.476,0,0,1,78.386,122.449Zm-28.15-10.668a1.476,1.476,0,1,1-2.952,0c0-1.361-3.329-2.387-5.282-1.012a1.349,1.349,0,0,0-.676,1.012c0,1.135,1.611,1.409,3.221,1.683,2.844.484,5.689.967,5.689,4.589,0,2.4-2.154,4.016-4.455,4.469v1.229a1.476,1.476,0,0,1-2.952,0v-1.229c-2.3-.453-4.455-2.074-4.455-4.469a1.476,1.476,0,0,1,2.952,0c0,1.361,3.329,2.387,5.282,1.012a1.349,1.349,0,0,0,.676-1.012c0-1.135-1.611-1.409-3.221-1.683-2.844-.484-5.689-.967-5.689-4.589,0-2.4,2.154-4.016,4.455-4.469v-1.229a1.476,1.476,0,1,1,2.952,0v1.229C48.083,107.765,50.237,109.386,50.237,111.781ZM18.773,100.973a1.47,1.47,0,0,1,1.464-2.548l2.02,1.166a1.47,1.47,0,1,1-1.464,2.548Zm9.041-10.119a1.472,1.472,0,0,1,2.548-1.476l1.166,2.02a1.472,1.472,0,0,1-2.548,1.476Zm26.181-1.476a1.472,1.472,0,0,1,2.548,1.476l-1.166,2.02A1.472,1.472,0,1,1,52.828,91.4ZM40.7,86.609a1.476,1.476,0,0,1,2.952,0v2.333a1.476,1.476,0,0,1-2.952,0Zm7.759,54.349a2.806,2.806,0,0,0,2.794-2.794V135.37H37.3v2.794a2.806,2.806,0,0,0,2.794,2.794Zm-9.78,2.774a5.748,5.748,0,0,0,11.2,0,5.764,5.764,0,0,0,4.329-5.568v-4.27c0-7.811,8.424-10.108,8.424-21.105A18.325,18.325,0,0,0,44.306,94.465h-3.1a1.476,1.476,0,0,0-1.476,1.476v3.523a16.148,16.148,0,0,0-3.122,1.3l-2.494-2.494a1.476,1.476,0,0,0-2.087,0l-4.377,4.377a1.476,1.476,0,0,0,0,2.087l2.493,2.493a16.478,16.478,0,0,0-1.293,3.122H25.329a1.476,1.476,0,0,0-1.476,1.476v6.19a1.476,1.476,0,0,0,1.476,1.476h3.523a16.154,16.154,0,0,0,1.3,3.122L27.655,125.1a1.476,1.476,0,0,0,0,2.087l4.377,4.377a1.476,1.476,0,0,0,2.087,0l2.493-2.493a16.479,16.479,0,0,0,3.122,1.293v2.051H35.827a1.476,1.476,0,0,0-1.476,1.476v4.27A5.764,5.764,0,0,0,38.68,143.732Zm4.006-11.314h8.645c.844-7.962,8.348-10.287,8.348-19.629A15.373,15.373,0,0,0,44.306,97.416H42.687v3.19h0a1.475,1.475,0,0,1-1.163,1.441A13.309,13.309,0,0,0,37.25,103.8a1.476,1.476,0,0,1-1.916-.147L33.076,101.4l-2.29,2.29,2.256,2.256,0,0a1.473,1.473,0,0,1,.2,1.837,13.17,13.17,0,0,0-1.785,4.291A1.476,1.476,0,0,1,30,113.3H26.8v3.238h3.19a1.475,1.475,0,0,1,1.441,1.163,13.309,13.309,0,0,0,1.754,4.272,1.476,1.476,0,0,1-.147,1.916l-2.258,2.258,2.29,2.29,2.256-2.256,0,0a1.474,1.474,0,0,1,1.837-.2,13.17,13.17,0,0,0,4.291,1.785,1.476,1.476,0,0,1,1.225,1.455v3.193Zm-.781,11.491h4.746A2.8,2.8,0,0,1,41.906,143.91Zm60.208-36,3.6-9.053a1.47,1.47,0,0,0-1.4-2.069h-9.7a1.47,1.47,0,1,0,0,2.94h4.913L61.283,125.3a1.471,1.471,0,0,0,1.637,2.445l38.338-25.636-1.876,4.716a1.47,1.47,0,1,0,2.733,1.084ZM96.148,116H102.3v29.229H96.148ZM93.2,146.7V114.523a1.476,1.476,0,0,1,1.476-1.476h9.1a1.476,1.476,0,0,1,1.476,1.476V146.7a1.476,1.476,0,0,1-1.476,1.476h-9.1A1.476,1.476,0,0,1,93.2,146.7ZM62.1,132.418h9.1a1.476,1.476,0,0,1,1.476,1.476V146.7a1.476,1.476,0,0,1-1.476,1.476H62.1a1.476,1.476,0,0,1-1.476-1.476V133.894a1.476,1.476,0,0,1,1.476-1.476Zm7.628,2.952H63.577v9.857h6.152ZM86.015,125.4H79.862v19.827h6.152Z" transform="translate(11890.713 4561.413)" fill="#fff" fill-rule="evenodd"/>
  </g>
</svg>
