<svg xmlns="http://www.w3.org/2000/svg" width="137" height="137" viewBox="0 0 137 137">
  <g id="selected_2" data-name="selected 2" transform="translate(2803 -5332)">
    <g id="Group_1014" data-name="Group 1014" transform="translate(-3240 -174)">
      <circle id="Ellipse_41" data-name="Ellipse 41" cx="68.5" cy="68.5" r="68.5" transform="translate(574 5506) rotate(90)" fill="#903"/>
    </g>
    <path id="Path_1737" data-name="Path 1737" d="M33.211,82.073a.933.933,0,0,1,.932-.932,2.042,2.042,0,0,0,2.014-2.014.932.932,0,1,1,1.864,0A3.882,3.882,0,0,1,34.143,83,.933.933,0,0,1,33.211,82.073Zm53.206-15.2V81.936a4.486,4.486,0,0,1-4.481,4.481H54.176a4.486,4.486,0,0,1-4.481-4.481V66.87a4.486,4.486,0,0,1,4.481-4.481h2.383l6.8-7.216a2.485,2.485,0,0,1,4.293,1.705v5.512h14.28A4.483,4.483,0,0,1,86.417,66.87Zm-1.864,0a2.62,2.62,0,0,0-2.617-2.617H66.724a.933.933,0,0,1-.932-.932V56.877a.621.621,0,0,0-1.073-.427l-7.081,7.51a.931.931,0,0,1-.679.292H54.174a2.62,2.62,0,0,0-2.617,2.617V81.934a2.62,2.62,0,0,0,2.617,2.617h27.76a2.62,2.62,0,0,0,2.617-2.617V66.87Zm-5.1,1.8h-1.99a.932.932,0,0,0,0,1.864h1.99a.932.932,0,1,0,0-1.864Zm-5.593,0H56.655a.932.932,0,1,0,0,1.864H73.864a.932.932,0,0,0,0-1.864Zm5.593,4.8h-1.99a.932.932,0,1,0,0,1.864h1.99a.932.932,0,1,0,0-1.864Zm-5.593,0H56.655a.932.932,0,1,0,0,1.864H73.864a.932.932,0,1,0,0-1.864Zm5.593,4.8h-1.99a.932.932,0,0,0,0,1.864h1.99a.932.932,0,0,0,0-1.864Zm-5.593,0H56.655a.932.932,0,0,0,0,1.864H73.864a.932.932,0,0,0,0-1.864Zm1.763-54.324a.927.927,0,0,0,.66.348c.023,0,.045,0,.068,0a.93.93,0,0,0,.635-.25l4.861-4.538A.932.932,0,1,0,80.58,18.15L76.455,22,74.906,20.06a.932.932,0,1,0-1.457,1.162ZM86.417,47.09a8.978,8.978,0,0,1-17.907.932h-2.5A4.319,4.319,0,0,1,61.7,43.709V35.075H58.267A24.192,24.192,0,0,1,39.615,57.661v5.792H40.5a.933.933,0,0,1,.932.932V79.126a7.291,7.291,0,0,1-14.581,0V64.385a.933.933,0,0,1,.932-.932h.887V57.661a24.144,24.144,0,1,1,29.6-24.45H61.7V24.577a4.319,4.319,0,0,1,4.313-4.313h2.5a8.977,8.977,0,1,1,0,1.864h-2.5a2.452,2.452,0,0,0-2.449,2.449V43.709a2.452,2.452,0,0,0,2.449,2.449h2.5a8.978,8.978,0,0,1,17.907.932ZM70.326,21.2a7.114,7.114,0,1,0,7.114-7.114A7.123,7.123,0,0,0,70.326,21.2ZM39.571,65.317H28.716V79.126a5.427,5.427,0,0,0,10.854,0V65.317Zm-1.82-7.3a24.22,24.22,0,0,1-7.216,0v5.435h7.216ZM56.4,35.075H51.921a17.816,17.816,0,1,1,0-1.864H56.4a22.279,22.279,0,1,0,0,1.864ZM47.151,32H44.59V46.171a16.053,16.053,0,0,0,2.561-2.828Zm1.864,7.87a15.857,15.857,0,0,0,1.039-4.8H49.015Zm1.038-6.663a15.937,15.937,0,1,0-30.78,6.663V36.536A.933.933,0,0,1,20.2,35.6H24.63a.933.933,0,0,1,.932.932V47.568a15.84,15.84,0,0,0,1.528.864V25.971a.933.933,0,0,1,.932-.932h4.425a.933.933,0,0,1,.932.932V50.063q.38.019.764.019t.764-.019v-16.2a.933.933,0,0,1,.932-.932h4.425a.933.933,0,0,1,.932.932V48.432a16.028,16.028,0,0,0,1.528-.864v-16.5a.933.933,0,0,1,.932-.932h4.425a.933.933,0,0,1,.932.932v2.14h1.039ZM39.334,34.8H36.772V49.864a15.624,15.624,0,0,0,2.561-.651ZM31.516,26.9H28.955v22.31a15.824,15.824,0,0,0,2.561.651ZM23.7,37.468H21.136v5.876A16.113,16.113,0,0,0,23.7,46.172ZM84.553,47.09A7.114,7.114,0,1,0,77.439,54.2,7.122,7.122,0,0,0,84.553,47.09Zm-3.972-3.049-4.125,3.852-1.549-1.941a.932.932,0,1,0-1.457,1.162l2.178,2.727a.927.927,0,0,0,.66.348c.023,0,.045,0,.068,0a.93.93,0,0,0,.635-.25L81.854,45.4a.932.932,0,1,0-1.272-1.362Z" transform="translate(-2783.179 5352.292)" fill="#fff"/>
  </g>
</svg>
