<svg xmlns="http://www.w3.org/2000/svg" width="137" height="137" viewBox="0 0 137 137">
  <g id="_selected_2" data-name=" selected 2" transform="translate(-6778.621 -4585.309)">
    <g id="Group_1057" data-name="Group 1057" transform="translate(6341.621 98.309)">
      <circle id="Ellipse_41" data-name="Ellipse 41" cx="68.5" cy="68.5" r="68.5" transform="translate(574 4487) rotate(90)" fill="#903"/>
    </g>
    <g id="rafting_2902875" transform="translate(6809.21 4611.542)">
      <path id="Path_1701" data-name="Path 1701" d="M17.831,68.514H42.044v4.352H57.661V29.232a27.724,27.724,0,0,0-55.411,0V72.866H17.831Zm0-3.658v-7.9H25.8V53.3H17.831V45.033H25.8V41.375H17.831V32.414H42.044v8.961h-7.79v3.658H42.19V53.3H34.253v3.658H42.19v7.9Zm0-36.1a12.07,12.07,0,0,1,24.14,0ZM45.665,69.209v-6.4H54V69.1ZM5.908,29.232a24.066,24.066,0,0,1,48.1,0V59.151H45.7V28.757a15.727,15.727,0,0,0-31.455,0V59.151H5.908Zm8.266,39.976H5.908v-6.4h8.266v6.4Z" transform="translate(0 0.705)" fill="#fff" stroke="#903" stroke-width="1"/>
      <path id="Path_1702" data-name="Path 1702" d="M30.2,61.794l-3.987-4.682v-38.4L30.2,14.027V2.25H18.57V14.027l3.987,4.682v38.4L18.57,61.794V73.571H30.2Zm-7.973-49.12V5.908h4.316v6.766L24.385,15.2Zm4.316,57.24H22.228V63.147l2.158-2.524,2.158,2.524Z" transform="translate(43.37 0)" fill="#fff" stroke="#903" stroke-width="1"/>
    </g>
  </g>
</svg>
