<svg xmlns="http://www.w3.org/2000/svg" width="137" height="137" viewBox="0 0 137 137">
  <g id="_selected_4" data-name=" selected 4" transform="translate(-2745 -4643)">
    <g id="Group_1030" data-name="Group 1030" transform="translate(2308 156)">
      <circle id="Ellipse_41" data-name="Ellipse 41" cx="68.5" cy="68.5" r="68.5" transform="translate(574 4487) rotate(90)" fill="#903"/>
    </g>
    <g id="business_10216630" transform="translate(2769.852 4670.953)">
      <circle id="Ellipse_356" data-name="Ellipse 356" cx="18.086" cy="18.086" r="18.086" transform="matrix(0.346, -0.938, 0.938, 0.346, -1.95, 37.716)" fill="none" stroke="#fff" stroke-linecap="round" stroke-linejoin="round" stroke-miterlimit="10" stroke-width="2"/>
      <circle id="Ellipse_357" data-name="Ellipse 357" cx="12.531" cy="12.531" r="12.531" transform="matrix(0.196, -0.981, 0.981, 0.196, 6.537, 36.813)" fill="none" stroke="#fff" stroke-linecap="round" stroke-linejoin="round" stroke-miterlimit="10" stroke-width="2"/>
      <path id="Path_1684" data-name="Path 1684" d="M22.731,35.2s2.454,20.023,2.454,22.22a7.493,7.493,0,0,1-14.985,0c0-2.2,2.454-22.22,2.454-22.22" transform="translate(3.546 9.167)" fill="none" stroke="#fff" stroke-linecap="round" stroke-linejoin="round" stroke-miterlimit="10" stroke-width="2"/>
      <path id="Path_1685" data-name="Path 1685" d="M12.6,22.821l2.584,2.584L22.289,18.3" transform="translate(4.246 4.235)" fill="none" stroke="#fff" stroke-linecap="round" stroke-linejoin="round" stroke-miterlimit="10" stroke-width="2"/>
      <circle id="Ellipse_358" data-name="Ellipse 358" cx="9.689" cy="9.689" r="9.689" transform="translate(63.869 5.742)" fill="none" stroke="#fff" stroke-linecap="round" stroke-linejoin="round" stroke-miterlimit="10" stroke-width="2"/>
      <path id="Path_1686" data-name="Path 1686" d="M53.4,13.83l2.454,2.325L61.409,10.6" transform="translate(16.153 1.988)" fill="none" stroke="#fff" stroke-linecap="round" stroke-linejoin="round" stroke-miterlimit="10" stroke-width="2"/>
      <circle id="Ellipse_359" data-name="Ellipse 359" cx="9.689" cy="9.689" r="9.689" transform="translate(63.869 31.837)" fill="none" stroke="#fff" stroke-linecap="round" stroke-linejoin="round" stroke-miterlimit="10" stroke-width="2"/>
      <g id="Group_883" data-name="Group 883" transform="translate(71.103 39.071)">
        <path id="Path_1687" data-name="Path 1687" d="M59.509,31.1,54.6,36.009" transform="translate(-54.6 -31.1)" fill="none" stroke="#fff" stroke-linecap="round" stroke-linejoin="round" stroke-miterlimit="10" stroke-width="2"/>
        <path id="Path_1688" data-name="Path 1688" d="M59.509,36.009,54.6,31.1" transform="translate(-54.6 -31.1)" fill="none" stroke="#fff" stroke-linecap="round" stroke-linejoin="round" stroke-miterlimit="10" stroke-width="2"/>
      </g>
      <circle id="Ellipse_360" data-name="Ellipse 360" cx="9.689" cy="9.689" r="9.689" transform="translate(63.869 57.932)" fill="none" stroke="#fff" stroke-linecap="round" stroke-linejoin="round" stroke-miterlimit="10" stroke-width="2"/>
      <g id="Group_884" data-name="Group 884" transform="translate(71.103 65.295)">
        <path id="Path_1689" data-name="Path 1689" d="M59.509,51.4,54.6,56.18" transform="translate(-54.6 -51.4)" fill="none" stroke="#fff" stroke-linecap="round" stroke-linejoin="round" stroke-miterlimit="10" stroke-width="2"/>
        <path id="Path_1690" data-name="Path 1690" d="M59.509,56.18,54.6,51.4" transform="translate(-54.6 -51.4)" fill="none" stroke="#fff" stroke-linecap="round" stroke-linejoin="round" stroke-miterlimit="10" stroke-width="2"/>
      </g>
      <path id="Path_1691" data-name="Path 1691" d="M45.505,12.8H38.4V64.99h7.622" transform="translate(11.775 2.63)" fill="none" stroke="#fff" stroke-linecap="round" stroke-linejoin="round" stroke-miterlimit="10" stroke-width="2"/>
      <path id="Path_1692" data-name="Path 1692" d="M47.8,33H32.3" transform="translate(9.995 8.525)" fill="none" stroke="#fff" stroke-linecap="round" stroke-linejoin="round" stroke-miterlimit="10" stroke-width="2"/>
    </g>
  </g>
</svg>
