<svg xmlns="http://www.w3.org/2000/svg" width="137" height="137" viewBox="0 0 137 137">
  <g id="_selected_2" data-name=" selected 2" transform="translate(-11740.252 -4612.569)">
    <g id="Group_1080" data-name="Group 1080" transform="translate(11303.252 125.569)">
      <circle id="Ellipse_41" data-name="Ellipse 41" cx="68.5" cy="68.5" r="68.5" transform="translate(574 4487) rotate(90)" fill="#903"/>
    </g>
    <g id="layer1" transform="translate(11768.162 4637.321)">
      <path id="path7579" d="M40.748.529a5.362,5.362,0,1,0,5.365,5.357A5.36,5.36,0,0,0,40.748.529Zm0,2.681a2.681,2.681,0,1,1-2.684,2.676A2.679,2.679,0,0,1,40.748,3.21ZM31.733,8.572,13.781,16.854A1.341,1.341,0,1,0,14.9,19.289l17.954-8.282a1.346,1.346,0,0,0-.474-2.563A1.3,1.3,0,0,0,31.733,8.572ZM66.592,19.289a1.341,1.341,0,1,0,1.123-2.435L49.763,8.573a1.341,1.341,0,1,0-1.126,2.435ZM37.234,15.825a3.132,3.132,0,0,0-1.592,1.762,4.2,4.2,0,0,1-.584,1.168,4.777,4.777,0,0,1-1.951,1.267,5.044,5.044,0,0,1-2.307.534,3.858,3.858,0,0,1-1.236-.366,3.259,3.259,0,0,0-2.307-.128,7.527,7.527,0,0,0-2.76,2,7.518,7.518,0,0,0-1.961,2.781,3.228,3.228,0,0,0,.178,2.294,3.864,3.864,0,0,1,.388,1.228,5,5,0,0,1-.5,2.307,4.994,4.994,0,0,1-1.246,2,3.717,3.717,0,0,1-1.129.594,3.179,3.179,0,0,0-1.733,1.5,7.179,7.179,0,0,0-.542,3.3,7.2,7.2,0,0,0,.542,3.3,3.185,3.185,0,0,0,1.733,1.5,3.624,3.624,0,0,1,1.113.589,5.007,5.007,0,0,1,1.262,2,5.044,5.044,0,0,1,.5,2.278,3.545,3.545,0,0,1-.367,1.2,3.294,3.294,0,0,0-.238,2.2,5.011,5.011,0,0,0,1.074,1.93,19.748,19.748,0,0,0-2.129,4.813,10.658,10.658,0,0,0-3.75-3.388,6.71,6.71,0,1,0-10.2,0A10.715,10.715,0,0,0,1.87,63.951v1.574A6.04,6.04,0,0,0,7.9,71.581h9.382a5.966,5.966,0,0,0,3.357-1.021v5.053a5.388,5.388,0,0,0,1.733,4.223,5.946,5.946,0,0,0,5.077.961c.03-.005.06-.015.089-.02l13.2-3.553,13.254,3.564a5.889,5.889,0,0,0,5.127-.95,5.359,5.359,0,0,0,1.736-4.205V70.565a5.963,5.963,0,0,0,3.357,1.016H73.6a6.04,6.04,0,0,0,6.03-6.056V63.951A10.715,10.715,0,0,0,74,54.481a6.7,6.7,0,1,0-10.2,0,10.58,10.58,0,0,0-3.755,3.393,19.849,19.849,0,0,0-2.126-4.828A4.977,4.977,0,0,0,59,51.127a3.3,3.3,0,0,0-.238-2.2,3.536,3.536,0,0,1-.367-1.2,5,5,0,0,1,.5-2.278,5,5,0,0,1,1.262-2,3.613,3.613,0,0,1,1.113-.589A3.186,3.186,0,0,0,63,41.368a7.179,7.179,0,0,0,.542-3.3,7.2,7.2,0,0,0-.542-3.3,3.18,3.18,0,0,0-1.733-1.5,3.72,3.72,0,0,1-1.129-.594,5,5,0,0,1-1.246-2,5,5,0,0,1-.5-2.307,3.905,3.905,0,0,1,.388-1.228,3.22,3.22,0,0,0,.178-2.294A7.516,7.516,0,0,0,57,22.063a7.53,7.53,0,0,0-2.76-2,3.259,3.259,0,0,0-2.307.128,3.87,3.87,0,0,1-1.236.366,5.084,5.084,0,0,1-2.307-.534,4.772,4.772,0,0,1-1.951-1.267,4.193,4.193,0,0,1-.584-1.168,3.133,3.133,0,0,0-1.592-1.762,7.908,7.908,0,0,0-3.514-.553,7.906,7.906,0,0,0-3.514.552Zm-31.342.788a5.362,5.362,0,1,0,5.365,5.357A5.358,5.358,0,0,0,5.892,16.614Zm69.712,0a5.362,5.362,0,1,0,5.362,5.357A5.36,5.36,0,0,0,75.6,16.614Zm-32.51,1.618c.184.089.2.233.288.4a6.3,6.3,0,0,0,.979,1.82,7.444,7.444,0,0,0,2.977,2.05,7.77,7.77,0,0,0,3.543.741,6.323,6.323,0,0,0,2.029-.545c.224-.087.337-.137.484-.089a5.2,5.2,0,0,1,1.694,1.338,5.408,5.408,0,0,1,1.307,1.7.736.736,0,0,1-.1.474,6.4,6.4,0,0,0-.573,2.008,7.708,7.708,0,0,0,.681,3.553A7.677,7.677,0,0,0,58.382,34.7a6.183,6.183,0,0,0,1.833,1.04c.213.09.313.1.4.256a4.876,4.876,0,0,1,.256,2.068,4.935,4.935,0,0,1-.256,2.069c-.082.159-.231.187-.4.256a6.183,6.183,0,0,0-1.833,1.039A7.677,7.677,0,0,0,56.4,44.446a7.739,7.739,0,0,0-.681,3.493,5.935,5.935,0,0,0,.563,2.019c.079.221.157.346.118.5a1.958,1.958,0,0,1-.121.283,20.159,20.159,0,0,0-7.444-5.624,10.728,10.728,0,1,0-16.182,0,20.149,20.149,0,0,0-7.444,5.624,2.067,2.067,0,0,1-.121-.283c-.041-.149.041-.274.118-.5a5.936,5.936,0,0,0,.563-2.019,7.743,7.743,0,0,0-.681-3.493,7.677,7.677,0,0,0-1.979-3.019,6.183,6.183,0,0,0-1.833-1.039c-.165-.069-.313-.1-.4-.256a4.914,4.914,0,0,1-.256-2.069,4.914,4.914,0,0,1,.256-2.068c.082-.159.182-.166.4-.256a6.183,6.183,0,0,0,1.833-1.04,7.677,7.677,0,0,0,1.979-3.019,7.709,7.709,0,0,0,.681-3.553,6.405,6.405,0,0,0-.573-2.008.737.737,0,0,1-.1-.474,5.406,5.406,0,0,1,1.307-1.7A5.191,5.191,0,0,1,28.1,22.6c.147-.051.26,0,.484.089a6.32,6.32,0,0,0,2.029.545,7.769,7.769,0,0,0,3.543-.741,7.443,7.443,0,0,0,2.977-2.05,6.3,6.3,0,0,0,.979-1.82c.086-.162.1-.306.288-.4a6.544,6.544,0,0,1,2.346-.278,6.546,6.546,0,0,1,2.346.278Zm-37.2,1.063A2.681,2.681,0,1,1,3.21,21.971,2.679,2.679,0,0,1,5.891,19.295Zm69.712,0a2.681,2.681,0,1,1-2.684,2.676A2.676,2.676,0,0,1,75.6,19.295ZM8.305,29.522a1.341,1.341,0,0,0-1.375,1.7L9.287,40.15a1.341,1.341,0,1,0,2.592-.681L9.523,30.543a1.341,1.341,0,0,0-1.218-1.021Zm64.884,0a1.339,1.339,0,0,0-1.218,1.021l-2.357,8.926a1.341,1.341,0,1,0,2.592.681l2.357-8.926a1.341,1.341,0,0,0-1.375-1.7Zm-32.442.5A8.045,8.045,0,1,1,32.7,38.066a8.052,8.052,0,0,1,8.046-8.044ZM12.594,46.107a4.022,4.022,0,1,1-4.027,4.024,4.019,4.019,0,0,1,4.027-4.024Zm56.306,0a4.022,4.022,0,1,1-4.017,4.024A4.028,4.028,0,0,1,68.9,46.107ZM31.365,68.166V63.524a1.341,1.341,0,0,0-2.681,0v5.331l-.335.086a1.343,1.343,0,1,0,.662,2.6l20.266-5.205a2.8,2.8,0,1,1,1.456,5.415l-23.8,6.412c-.005,0-.005,0-.01,0a3.233,3.233,0,0,1-2.82-.377,2.708,2.708,0,0,1-.78-2.176V63.539a17.4,17.4,0,0,1,11.62-16.451,10.731,10.731,0,0,0,11.6,0A17.361,17.361,0,0,1,58.176,63.539V75.631a2.681,2.681,0,0,1-.783,2.157,3.229,3.229,0,0,1-2.82.377l-8.667-2.333,5.52-1.487a5.49,5.49,0,0,0,1.385-10.02v-.8a1.341,1.341,0,0,0-2.681.046,5.27,5.27,0,0,0-1.524.166ZM46.112,55.493a1.341,1.341,0,0,0,0,2.681h4.017a1.341,1.341,0,0,0,0-2.681ZM10,56.3a6.72,6.72,0,0,0,2.6.526,6.909,6.909,0,0,0,2.6-.526,8.05,8.05,0,0,1,5.441,7.646v1.574A3.349,3.349,0,0,1,17.281,68.9H7.9A3.354,3.354,0,0,1,4.55,65.524V63.951A8.048,8.048,0,0,1,10,56.3Zm56.3,0a6.692,6.692,0,0,0,2.6.529,6.539,6.539,0,0,0,2.6-.529,8.048,8.048,0,0,1,5.446,7.646v1.574A3.354,3.354,0,0,1,73.6,68.9H64.214a3.361,3.361,0,0,1-3.357-3.375V63.951A8.05,8.05,0,0,1,66.3,56.3Z" transform="translate(0 0)" fill="#fff"/>
    </g>
  </g>
</svg>
