<svg xmlns="http://www.w3.org/2000/svg" width="137" height="137" viewBox="0 0 137 137">
  <g id="_selected_3" data-name=" selected 3" transform="translate(-6930.621 -4585.309)">
    <g id="Group_1058" data-name="Group 1058" transform="translate(6493.621 98.309)">
      <circle id="Ellipse_41" data-name="Ellipse 41" cx="68.5" cy="68.5" r="68.5" transform="translate(574 4487) rotate(90)" fill="#903"/>
    </g>
    <g id="education_15421541" transform="translate(6959.546 4608.192)">
      <path id="Path_1693" data-name="Path 1693" d="M69.439,10.957H66.951A1.248,1.248,0,0,0,65.706,12.2v7.466H61.923q-.056-.672-.149-1.419a1.228,1.228,0,0,0-.66-.933l-2.128-1.107a17.4,17.4,0,0,0-1.63-3.932l.722-2.29a1.235,1.235,0,0,0-.2-1.132,20.41,20.41,0,0,0-3.77-3.77,1.235,1.235,0,0,0-1.132-.2l-2.29.722a17.4,17.4,0,0,0-3.932-1.63L45.647,1.848a1.228,1.228,0,0,0-.933-.66,18.274,18.274,0,0,0-5.338,0,1.228,1.228,0,0,0-.933.66L37.335,3.976A17.4,17.4,0,0,0,33.4,5.606l-2.29-.722a1.235,1.235,0,0,0-1.132.2,20.41,20.41,0,0,0-3.77,3.77,1.235,1.235,0,0,0-.2,1.132l.722,2.29a17.4,17.4,0,0,0-1.63,3.932l-2.128,1.107a1.228,1.228,0,0,0-.66.933q-.093.747-.149,1.419H18.384V18.423A8.692,8.692,0,1,0,1,18.423V69.441a8.72,8.72,0,0,0,8.71,8.71H69.439a8.72,8.72,0,0,0,8.71-8.71V19.667A8.72,8.72,0,0,0,69.439,10.957Zm-44.7,8.262,2.041-1.058a1.191,1.191,0,0,0,.635-.809,15.417,15.417,0,0,1,1.767-4.281,1.232,1.232,0,0,0,.124-1.02l-.7-2.178a18.248,18.248,0,0,1,2.4-2.4l2.178.7a1.227,1.227,0,0,0,1.02-.124,14.561,14.561,0,0,1,4.281-1.767,1.264,1.264,0,0,0,.809-.635L40.359,3.6a15.5,15.5,0,0,1,3.4,0l1.058,2.041a1.191,1.191,0,0,0,.809.635A15.417,15.417,0,0,1,49.9,8.045a1.232,1.232,0,0,0,1.02.124l2.178-.7a18.248,18.248,0,0,1,2.4,2.4l-.7,2.178a1.232,1.232,0,0,0,.124,1.02A14.561,14.561,0,0,1,56.7,17.353a1.263,1.263,0,0,0,.635.809l2.041,1.058c.012.162.025.3.037.448H53.176a11.193,11.193,0,0,0-22.249,0H24.692c0-.149.025-.3.037-.448Zm25.932.448H33.453a8.7,8.7,0,0,1,17.222,0ZM3.489,18.423a6.222,6.222,0,1,1,12.444,0V63.356a8.685,8.685,0,0,0-12.444,0Zm0,51.018A6.222,6.222,0,1,1,9.71,75.663,6.224,6.224,0,0,1,3.489,69.441Zm65.951,6.222H15.8a8.673,8.673,0,0,0,2.626-6.222V22.156H65.706V61.975a1.248,1.248,0,0,0,1.244,1.244h2.489a6.222,6.222,0,1,1,0,12.444Zm6.222-12.307a8.673,8.673,0,0,0-6.222-2.626H68.195V13.445h1.244a6.224,6.224,0,0,1,6.222,6.222Z" transform="translate(0 0)" fill="#fff"/>
      <circle id="Ellipse_361" data-name="Ellipse 361" cx="2.489" cy="2.489" r="2.489" transform="translate(7.222 66.952)" fill="#fff"/>
      <path id="Path_1694" data-name="Path 1694" d="M54.086,37.6V33.688a1.248,1.248,0,0,0-1.244-1.244H39.154V29.955h2.489a1.248,1.248,0,0,0,1.244-1.244V21.244A1.248,1.248,0,0,0,41.643,20H34.177a1.248,1.248,0,0,0-1.244,1.244V28.71a1.248,1.248,0,0,0,1.244,1.244h2.489v2.489H22.977a1.248,1.248,0,0,0-1.244,1.244V37.6a4.977,4.977,0,1,0,2.489,0V34.932H36.665V37.6a4.977,4.977,0,1,0,2.489,0V34.932H51.6V37.6a4.977,4.977,0,1,0,2.489,0ZM35.421,22.489H40.4v4.977H35.421ZM25.466,42.4a2.489,2.489,0,1,1-2.489-2.489A2.5,2.5,0,0,1,25.466,42.4Zm14.932,0A2.489,2.489,0,1,1,37.91,39.91,2.5,2.5,0,0,1,40.4,42.4Zm12.444,2.489A2.489,2.489,0,1,1,55.331,42.4,2.5,2.5,0,0,1,52.842,44.887Z" transform="translate(4.154 4.644)" fill="#fff"/>
      <path id="Path_1695" data-name="Path 1695" d="M28,44H55.376v2.489H28Z" transform="translate(6.597 10.509)" fill="#fff"/>
      <path id="Path_1696" data-name="Path 1696" d="M28,48H39.2v2.489H28Z" transform="translate(6.597 11.486)" fill="#fff"/>
      <path id="Path_1697" data-name="Path 1697" d="M28,52H55.376v2.489H28Z" transform="translate(6.597 12.464)" fill="#fff"/>
      <path id="Path_1698" data-name="Path 1698" d="M28,56H39.2v2.489H28Z" transform="translate(6.597 13.441)" fill="#fff"/>
      <path id="Path_1699" data-name="Path 1699" d="M25.222,44H20.244A1.248,1.248,0,0,0,19,45.244v4.977a1.248,1.248,0,0,0,1.244,1.244h4.977a1.248,1.248,0,0,0,1.244-1.244V45.244A1.248,1.248,0,0,0,25.222,44Zm-1.244,4.977H21.489V46.489h2.489Z" transform="translate(4.398 10.509)" fill="#fff"/>
      <path id="Path_1700" data-name="Path 1700" d="M25.222,52H20.244A1.248,1.248,0,0,0,19,53.244v4.977a1.248,1.248,0,0,0,1.244,1.244h4.977a1.248,1.248,0,0,0,1.244-1.244V53.244A1.248,1.248,0,0,0,25.222,52Zm-1.244,4.977H21.489V54.489h2.489Z" transform="translate(4.398 12.464)" fill="#fff"/>
    </g>
  </g>
</svg>
