<svg xmlns="http://www.w3.org/2000/svg" width="137" height="137" viewBox="0 0 137 137">
  <g id="_selected_2" data-name=" selected 2" transform="translate(219.5 -4821.929)">
    <circle id="Ellipse_420" data-name="Ellipse 420" cx="68.5" cy="68.5" r="68.5" transform="translate(-82.5 4821.929) rotate(90)" fill="#903"/>
    <g id="Group_1019" data-name="Group 1019" transform="translate(-187.139 4850.64)">
      <path id="Path_848" data-name="Path 848" d="M20.72,16.991l1.134,2.268a14.035,14.035,0,0,1,18.773,6.348L42.9,24.473A16.576,16.576,0,0,0,20.72,16.991Z" transform="translate(13.504 9.737)" fill="#fff"/>
      <path id="Path_849" data-name="Path 849" d="M62,54.008A23.213,23.213,0,0,0,30,22.235V14.719h.728a4.18,4.18,0,0,0,4.13-4.774,4.327,4.327,0,0,0-4.35-3.572H30V1.77A1.279,1.279,0,0,0,28.734.5H6.677a1.279,1.279,0,0,0-1.27,1.27V6.357H4.9A4.314,4.314,0,0,0,.549,9.929a4.159,4.159,0,0,0,4.13,4.791h.728V67.77a12.289,12.289,0,1,0,24.579,0V61.93a23.115,23.115,0,0,0,24,.085l16.4,16.4a5.65,5.65,0,1,0,7.99-7.99ZM7.947,3.039H27.464V6.357H7.947ZM3.444,11.6a1.611,1.611,0,0,1-.389-1.32A1.813,1.813,0,0,1,4.9,8.9H30.511a1.813,1.813,0,0,1,1.845,1.388,1.64,1.64,0,0,1-1.625,1.879H4.68A1.575,1.575,0,0,1,3.444,11.6Zm24.02,3.115V24a20.789,20.789,0,0,0-1.828,1.642,23.128,23.128,0,0,0-5.2,7.956H7.947V29.48h5.112V26.941H7.947V22.827H16.5V20.288H7.947V14.719Zm0,53.051A9.743,9.743,0,0,1,8.116,69.412h4.96V66.873H7.947V62.76H16.5V60.22H7.947V56.107h5.112V53.568H7.947V49.455H16.5V46.915H7.947V42.8h5.112V40.263H7.947v-4.13H19.61a23.09,23.09,0,0,0,6.009,22.378,23.531,23.531,0,0,0,1.828,1.642V67.77ZM27.43,56.716a20.719,20.719,0,1,1,14.642,6.06A20.562,20.562,0,0,1,27.43,56.716ZM76.6,76.606a3.106,3.106,0,0,1-4.4,0L56.139,60.542a20.348,20.348,0,0,0,4.4-4.4L76.6,72.205a3.106,3.106,0,0,1,0,4.4Z" transform="translate(-0.502 -0.5)" fill="#fff"/>
    </g>
  </g>
</svg>
