<svg xmlns="http://www.w3.org/2000/svg" width="137" height="137" viewBox="0 0 137 137">
  <g id="_selected_4" data-name=" selected 4" transform="translate(-9972.252 -4528)">
    <g id="Group_1068" data-name="Group 1068" transform="translate(9535.252 41)">
      <circle id="Ellipse_41" data-name="Ellipse 41" cx="68.5" cy="68.5" r="68.5" transform="translate(574 4487) rotate(90)" fill="#903"/>
    </g>
    <path id="information-system_10962230" d="M100.673,24.227v8.707a1.172,1.172,0,0,1-.878,1.134L93.509,35.7a21.954,21.954,0,0,1-1.094,2.632l3.294,5.6a1.172,1.172,0,0,1-.182,1.423l-6.159,6.159a1.172,1.172,0,0,1-1.547.1l-3.554-2.757A1.172,1.172,0,0,1,85.7,47.007l2.738,2.123,4.787-4.787-3.161-5.377a1.172,1.172,0,0,1-.025-1.143,19.561,19.561,0,0,0,1.428-3.438,1.173,1.173,0,0,1,.826-.791l6.031-1.566V25.134L92.3,23.568a1.173,1.173,0,0,1-.826-.791,19.223,19.223,0,0,0-1.426-3.434,1.172,1.172,0,0,1,.023-1.147l3.161-5.377L88.353,7.942,82.98,11.1a1.172,1.172,0,0,1-1.142.026A19.844,19.844,0,0,0,78.4,9.7a1.172,1.172,0,0,1-.79-.826L76.042,2.842h-6.9L67.578,8.878a1.172,1.172,0,0,1-.792.827,19.55,19.55,0,0,0-3.437,1.423,1.172,1.172,0,0,1-1.143-.025L56.828,7.942l-4.877,4.877L55.113,18.2a1.172,1.172,0,0,1,.025,1.143,19.556,19.556,0,0,0-1.423,3.438,1.172,1.172,0,0,1-.827.791l-6.035,1.566v6.893l6.035,1.566a1.172,1.172,0,0,1,.827.791,19.733,19.733,0,0,0,1.424,3.444,1.172,1.172,0,0,1-.026,1.142l-3.16,5.372,4.8,4.8,2.764-2.086a1.172,1.172,0,1,1,1.412,1.871l-3.578,2.7a1.172,1.172,0,0,1-1.535-.107l-6.159-6.159a1.172,1.172,0,0,1-.181-1.423l3.294-5.6a22.132,22.132,0,0,1-1.09-2.636l-6.29-1.632a1.172,1.172,0,0,1-.878-1.134V24.227a1.172,1.172,0,0,1,.878-1.134l6.29-1.632a21.939,21.939,0,0,1,1.09-2.632l-3.294-5.6a1.172,1.172,0,0,1,.182-1.423l6.159-6.159a1.172,1.172,0,0,1,1.423-.182l5.6,3.294a21.935,21.935,0,0,1,2.632-1.09L67.1,1.376A1.172,1.172,0,0,1,68.238.5h8.712a1.172,1.172,0,0,1,1.134.878l1.632,6.291a22.26,22.26,0,0,1,2.631,1.09l5.6-3.294a1.173,1.173,0,0,1,1.423.181L95.528,11.8a1.172,1.172,0,0,1,.182,1.423l-3.293,5.6a21.532,21.532,0,0,1,1.094,2.634L99.8,23.093a1.173,1.173,0,0,1,.877,1.135ZM67.412,54.974V54.8h-.047a3.237,3.237,0,0,1-3.236-3.231V48.638a2.923,2.923,0,0,1-1.756-2.7c0-2.089-.86-3.194-2.05-4.723a14.425,14.425,0,0,1-3.558-10.143c0-9.175,7.1-16.64,15.829-16.64S88.422,21.9,88.422,31.074a14.426,14.426,0,0,1-3.558,10.143c-1.19,1.529-2.05,2.633-2.05,4.723a2.923,2.923,0,0,1-1.76,2.7v2.932A3.235,3.235,0,0,1,77.822,54.8H77.77v.171a5.179,5.179,0,0,1-10.358,0Zm8.014-.171h-5.67v.171a2.835,2.835,0,0,0,5.67,0ZM64.716,45.94a.542.542,0,0,0,.484.574h4.422V34.026H67.317a4.65,4.65,0,1,1,4.65-4.65v2.306h1.253V29.376a4.65,4.65,0,1,1,4.65,4.65H75.563V46.514h4.422a.542.542,0,0,0,.484-.574c0-2.894,1.294-4.556,2.545-6.163a12.112,12.112,0,0,0,3.064-8.7c0-7.883-6.049-14.3-13.485-14.3s-13.485,6.413-13.485,14.3a12.111,12.111,0,0,0,3.063,8.7C63.423,41.384,64.716,43.045,64.716,45.94Zm4.906-16.564a2.306,2.306,0,1,0-2.306,2.306h2.306Zm2.344,17.138h1.253V34.025H71.967Zm5.9-14.832a2.306,2.306,0,1,0-2.306-2.306v2.306ZM67.364,52.459H77.822a.888.888,0,0,0,.887-.887V48.858H66.472v2.714A.891.891,0,0,0,67.364,52.459ZM93.6,65.761a7.016,7.016,0,0,1-3.243,9.351c-2.99,1.45-5.637,2.766-7.972,3.928-9.5,4.728-14.5,7.165-19.493,7.165-5.326,0-10.658-2.767-21.462-8.478-1.4-.738-2.933-1.55-4.575-2.412v2.064a1.172,1.172,0,0,1-1.172,1.172H23.441a1.172,1.172,0,1,1,0-2.344h11.07V73.4h0V48.507H23.441a1.172,1.172,0,0,1,0-2.344H35.683a1.172,1.172,0,0,1,1.172,1.172v2.828H49.633a1.172,1.172,0,0,1,.716.244l16.844,13a6.987,6.987,0,0,1,2.7,6.063l14.35-6.959A7.015,7.015,0,0,1,93.6,65.761Zm-2.109,1.022a4.671,4.671,0,0,0-6.221-2.162L68.915,72.553a6.917,6.917,0,0,1-.458.676,7.016,7.016,0,0,1-9.817,1.264L47.645,66a1.172,1.172,0,0,1,1.433-1.855l10.994,8.489a4.67,4.67,0,0,0,6.532-.843,4.6,4.6,0,0,0,.44-.693q.092-.177.168-.359l.006-.014a4.651,4.651,0,0,0-1.457-5.464L49.233,52.507H36.855V72.669c2.058,1.076,3.968,2.085,5.671,2.985,10.131,5.355,15.216,8.042,19.931,8.2,4.7.157,9.434-2.207,18.884-6.909,2.34-1.164,4.992-2.484,7.993-3.938a4.672,4.672,0,0,0,2.156-6.219Z" transform="translate(9976.73 4550.85)" fill="#fff"/>
  </g>
</svg>
