<svg xmlns="http://www.w3.org/2000/svg" width="137" height="137" viewBox="0 0 137 137">
  <g id="Group_1137" data-name="Group 1137" transform="translate(-20523.5 -4389.15)">
    <circle id="Ellipse_422" data-name="Ellipse 422" cx="68.5" cy="68.5" r="68.5" transform="translate(20660.5 4389.15) rotate(90)" fill="#903"/>
    <path id="expert_12066320" d="M100.488,45.469l-6.442-2.479a38.273,38.273,0,0,0-4.063-9.8l2.8-6.312a1.48,1.48,0,0,0-.306-1.647l-8.272-8.271a1.48,1.48,0,0,0-1.647-.306l-6.315,2.8a38.288,38.288,0,0,0-9.8-4.063l-2.48-6.444A1.48,1.48,0,0,0,62.587,8h-11.7a1.48,1.48,0,0,0-1.381.948l-2.481,6.444a38.291,38.291,0,0,0-9.8,4.063l-6.315-2.8a1.48,1.48,0,0,0-1.647.306l-8.272,8.272a1.48,1.48,0,0,0-.306,1.647l2.8,6.314a38.279,38.279,0,0,0-4.063,9.8l-6.443,2.48a1.48,1.48,0,0,0-.948,1.381v11.7a1.48,1.48,0,0,0,.948,1.381l6.442,2.479a38.445,38.445,0,0,0,1.727,5.126A16.712,16.712,0,1,0,43.088,88.75a38.423,38.423,0,0,0,3.94,1.256l2.48,6.444a1.48,1.48,0,0,0,1.381.948h11.7a1.48,1.48,0,0,0,1.381-.948l2.479-6.442a38.289,38.289,0,0,0,9.8-4.063l6.312,2.8a1.48,1.48,0,0,0,1.647-.306L92.48,80.17a1.48,1.48,0,0,0,.306-1.647l-2.8-6.314a38.3,38.3,0,0,0,4.063-9.8l6.443-2.48a1.48,1.48,0,0,0,.948-1.381V46.85a1.479,1.479,0,0,0-.948-1.382ZM27.379,96.8A13.752,13.752,0,1,1,41.131,83.045,13.768,13.768,0,0,1,27.379,96.8Zm7.65-28.608a26.665,26.665,0,1,1,6.944,6.72,16.829,16.829,0,0,0-6.944-6.72ZM98.477,57.532l-6.214,2.392a1.479,1.479,0,0,0-.908,1.039,35.357,35.357,0,0,1-4.3,10.367,1.48,1.48,0,0,0-.092,1.377l2.7,6.09L82.835,85.63l-6.087-2.7a1.479,1.479,0,0,0-1.377.092A35.342,35.342,0,0,1,65,87.318a1.48,1.48,0,0,0-1.039.908l-2.391,6.212H51.906l-2.392-6.214a1.48,1.48,0,0,0-1.039-.908,35.419,35.419,0,0,1-4.624-1.444,16.767,16.767,0,0,0-.184-6.576A29.6,29.6,0,1,0,30.583,66.642a16.773,16.773,0,0,0-6.576.032,35.475,35.475,0,0,1-1.889-5.713,1.479,1.479,0,0,0-.908-1.038L15,57.532V47.866l6.213-2.392a1.479,1.479,0,0,0,.908-1.039,35.346,35.346,0,0,1,4.3-10.368,1.48,1.48,0,0,0,.092-1.377l-2.7-6.089,6.835-6.835,6.09,2.7a1.48,1.48,0,0,0,1.377-.092,35.357,35.357,0,0,1,10.367-4.3,1.48,1.48,0,0,0,1.038-.908L51.9,10.96H61.57l2.392,6.214A1.48,1.48,0,0,0,65,18.082a35.352,35.352,0,0,1,10.367,4.3,1.48,1.48,0,0,0,1.377.092l6.09-2.7L89.669,26.6l-2.7,6.088a1.48,1.48,0,0,0,.092,1.377,35.35,35.35,0,0,1,4.3,10.37,1.479,1.479,0,0,0,.908,1.039l6.212,2.391v9.666ZM29.4,73.2a1.943,1.943,0,0,0-1.8-1.308h-.05a1.942,1.942,0,0,0-1.811,1.218l-2.195,5.374-5.8.139a1.959,1.959,0,0,0-1.217,3.452l4.433,3.748L19.3,91.384A1.958,1.958,0,0,0,22.2,93.609l4.934-3.058,4.777,3.3a1.958,1.958,0,0,0,3.014-2.077l-1.384-5.638,4.614-3.523A1.958,1.958,0,0,0,37.112,79.1l-5.789-.426ZM31.225,84.18a1.958,1.958,0,0,0-.713,2.022l.911,3.711-3.144-2.172a1.958,1.958,0,0,0-2.144-.053L22.887,89.7l1.094-3.662a1.958,1.958,0,0,0-.612-2.055L20.45,81.518l3.82-.091a1.957,1.957,0,0,0,1.766-1.217l1.445-3.538,1.268,3.606a1.958,1.958,0,0,0,1.7,1.3l3.811.281ZM75.8,68.978a1.479,1.479,0,0,0,.371-1.147,19.488,19.488,0,0,0-13.279-16.46,10.614,10.614,0,1,0-12.31,0A19.488,19.488,0,0,0,37.3,67.832a1.48,1.48,0,0,0,1.471,1.637H74.7a1.48,1.48,0,0,0,1.1-.491ZM59.488,61.343l-2.75,3.1-2.75-3.1,2.542-7.992c.069,0,.138,0,.208,0s.138,0,.208,0Zm-10.4-18.61a7.654,7.654,0,1,1,7.654,7.654,7.663,7.663,0,0,1-7.654-7.654ZM53.312,53.7l-2.4,7.544a1.48,1.48,0,0,0,.3,1.43l3.395,3.833H40.5A16.535,16.535,0,0,1,53.312,53.7Zm5.553,12.807,3.395-3.833a1.481,1.481,0,0,0,.3-1.43l-2.4-7.544A16.535,16.535,0,0,1,72.971,66.509Z" transform="translate(20535.949 4403.039)" fill="#fff"/>
  </g>
</svg>
