<svg xmlns="http://www.w3.org/2000/svg" width="137" height="137" viewBox="0 0 137 137">
  <g id="_selected_2" data-name=" selected 2" transform="translate(-4610.5 -4607.5)">
    <g id="Group_1042" data-name="Group 1042" transform="translate(4173.5 120.5)">
      <circle id="Ellipse_41" data-name="Ellipse 41" cx="68.5" cy="68.5" r="68.5" transform="translate(574 4487) rotate(90)" fill="#903"/>
    </g>
    <path id="training-program_12278436" d="M80.7,87.183l2.206-.633-.2-.7a.921.921,0,0,1,.45-1.063,8.822,8.822,0,0,0,2.43-1.926.92.92,0,0,1,1.151-.211l.633.351,1.115-2.011-.583-.323a.921.921,0,0,1-.488-1.1,8.815,8.815,0,0,0,.356-3.059.922.922,0,0,1,.664-.988l.694-.2-.633-2.206-.7.2a.921.921,0,0,1-1.063-.45,8.827,8.827,0,0,0-1.925-2.43.92.92,0,0,1-.212-1.151l.351-.633-2.011-1.115-.323.582a.922.922,0,0,1-1.1.488,8.816,8.816,0,0,0-3.059-.356.922.922,0,0,1-.988-.664l-.2-.693-2.207.633.2.7a.921.921,0,0,1-.45,1.063,8.826,8.826,0,0,0-2.429,1.925.92.92,0,0,1-1.151.212l-.633-.351-1.115,2.011.583.323a.922.922,0,0,1,.488,1.1,8.815,8.815,0,0,0-.356,3.059.922.922,0,0,1-.664.988l-.694.2.633,2.206.7-.2a.921.921,0,0,1,1.063.45,8.819,8.819,0,0,0,1.925,2.43.92.92,0,0,1,.212,1.151l-.351.633,2.011,1.115.323-.582a.921.921,0,0,1,1.1-.489,8.815,8.815,0,0,0,3.059.356.922.922,0,0,1,.987.664l.2.694Zm1.644-16.2a6.923,6.923,0,1,1-5.264-.6A6.923,6.923,0,0,1,82.342,70.987ZM30.427,64.6c-2.322-2.595-6.274-.725-6.274,3.036s3.952,5.631,6.274,3.036a4.692,4.692,0,0,0,0-6.072Zm-2.58-3.047c3.184,0,5.539,2.872,5.539,6.083s-2.356,6.083-5.539,6.083-5.54-2.872-5.54-6.083S24.663,61.555,27.847,61.555Zm23.971,14.5-18.2,4.876a.922.922,0,0,0-.684.89v36.01a1.34,1.34,0,0,1-.541,1.019c-1.321,1.078-3.626.322-3.626-1.019V102.609h.183a.923.923,0,0,0,0-1.845H26.741a.923.923,0,1,0,0,1.845h.183v15.226a1.34,1.34,0,0,1-.541,1.019c-1.322,1.078-3.626.322-3.626-1.019V81.825a.923.923,0,0,0-1.845,0V96.847a1.531,1.531,0,0,1-3.061,0V80.7a3.669,3.669,0,0,1,3.655-3.655H34.188c4.808,0,12.034-2.627,16.887-3.956A1.533,1.533,0,0,1,52.8,75.33a1.508,1.508,0,0,1-.978.729ZM94.733,57.308H38.821v4.364H94.733ZM69.5,89.929c-2.252-2.517-6.083-.7-6.083,2.948,0,2.1,1.441,4.113,3.583,4.113,3.247,0,4.765-4.53,2.5-7.061ZM53.237,94.394a2.871,2.871,0,0,0-4.4,0c-2.014,2.252-.645,6.247,2.2,6.247s4.2-4.008,2.2-6.247Zm31.478.737a2.967,2.967,0,0,0-2.2-1.025c-2.815,0-4.234,3.973-2.2,6.247,1.984,2.218,5.355.615,5.355-2.611A3.906,3.906,0,0,0,84.716,95.132Zm2.28.176c1.63,3.587-.735,7.916-4.479,7.916s-6.11-4.329-4.479-7.916H71.959c-1.546,3.786-6.114,4.774-8.826,1.743a6.044,6.044,0,0,1-1.085-1.743H55.793c1.028,3.445-1.281,7.179-4.755,7.179s-5.783-3.734-4.755-7.179H39.955a.923.923,0,0,1-.923-.923V81.393l-4.25,1.139v35.3c0,3.12-4.566,4.585-6.934,2.17-2.371,2.415-6.935.949-6.935-2.17V99.855a3.38,3.38,0,0,1-4.906-3.008V80.7a5.514,5.514,0,0,1,5.5-5.5H34.187a23.448,23.448,0,0,0,4.845-.639V63.517H37.9a.923.923,0,0,1-.923-.923V56.385a.923.923,0,0,1,.923-.923H95.656a.923.923,0,0,1,.923.923v6.209a.923.923,0,0,1-.923.923H94.523V94.384a.923.923,0,0,1-.923.923Zm-4.479-3.046a4.706,4.706,0,0,0-3.121,1.2h-6.99c.3-3.366-2.077-6.542-5.4-6.542s-5.7,3.176-5.4,6.542H54.851a4.72,4.72,0,0,0-7.625,0H40.877V80.9l11.467-3.072A3.374,3.374,0,0,0,50.6,71.308c-3.122.836-6.463,1.973-9.721,2.81v-10.6h51.8V93.462h-7.04a4.706,4.706,0,0,0-3.121-1.2Zm9.564,30.522a.923.923,0,0,0,1-.919V110.9c0-2.956-2.051-5.772-4.967-5.772h-9.67c-.512-2.618-2.547-4.894-5.256-4.894H60.817a5.5,5.5,0,0,0-5.023,4.01H45.437c-2.916,0-4.967,2.817-4.967,5.772v11.85a.923.923,0,0,0,.923.923l50.689,0Zm-13.5-1.838h8.324v-8.853a.923.923,0,0,1,1.845,0v8.853H91.24V110.9c0-1.945-1.249-3.928-3.122-3.928H78.581v13.974Zm-21.309,0h2.489V110.015a.923.923,0,0,1,1.845,0v10.931H71.948V110.9a.923.923,0,0,1,1.845,0v10.047h2.943V106.512c0-2.18-1.4-4.435-3.545-4.435H60.817a3.827,3.827,0,0,0-3.414,3.241,5.379,5.379,0,0,0-.131,1.194Zm-14.957,0H44.8v-9.737a.923.923,0,0,1,1.845,0v9.737h8.777V106.512q0-.214.012-.425h-10c-1.873,0-3.122,1.983-3.122,3.928v10.931Zm37.7-45.015a1.622,1.622,0,0,1,0,2.219,1.5,1.5,0,1,1,0-2.219ZM49.425,84.812a1.5,1.5,0,1,0,0,2.219,1.621,1.621,0,0,0,0-2.219Zm12.39-3.6a1.5,1.5,0,1,0,0,2.219A1.621,1.621,0,0,0,61.815,81.216Zm12.112-3.664a5.083,5.083,0,1,1,.512,1.766l1.717-.5a3.3,3.3,0,0,0,2.827,1.621,3.412,3.412,0,0,0,2.354-5.791,3.313,3.313,0,0,0-5.674,2.4l-1.737.5Zm-22.71,6.593,6.243-1.813a3.311,3.311,0,0,1,6.147-1.784l3.537-1.027c-.185-.645-.412-1.132-.071-1.748.309-.558.738-.64,1.269-.793A10.59,10.59,0,0,1,68.6,74.7c-.484-.269-.885-.446-1.061-1.058a1.4,1.4,0,0,1,.124-1.065L69.2,69.8a1.4,1.4,0,0,1,1.905-.544l.391.217a10.5,10.5,0,0,1,1.793-1.427,1.7,1.7,0,0,1,0-1.5,1.4,1.4,0,0,1,.839-.669l3.052-.875a1.41,1.41,0,0,1,1.735.965l.123.429a10.6,10.6,0,0,1,2.278.259c.268-.483.446-.885,1.058-1.06a1.4,1.4,0,0,1,1.065.124l2.777,1.54a1.4,1.4,0,0,1,.545,1.905l-.217.391a10.5,10.5,0,0,1,1.427,1.794,1.7,1.7,0,0,1,1.5,0,1.4,1.4,0,0,1,.669.839l.875,3.052a1.41,1.41,0,0,1-.965,1.735l-.429.123a10.612,10.612,0,0,1-.259,2.278c.483.269.885.446,1.06,1.058A1.4,1.4,0,0,1,90.3,81.5l-1.6,2.883a1.4,1.4,0,0,1-1.906.4l-.326-.181a10.5,10.5,0,0,1-1.793,1.427,1.7,1.7,0,0,1,0,1.5,1.4,1.4,0,0,1-.841.67l-3.051.875a1.41,1.41,0,0,1-1.735-.965l-.123-.429a10.605,10.605,0,0,1-2.278-.259c-.269.483-.446.885-1.058,1.06a1.4,1.4,0,0,1-1.065-.124l-2.777-1.54a1.4,1.4,0,0,1-.545-1.905l.217-.391a10.5,10.5,0,0,1-1.427-1.794,1.7,1.7,0,0,1-1.5,0c-.6-.333-.67-.841-.842-1.442L64.1,82.32A3.311,3.311,0,0,1,57.953,84.1L51.71,85.917a3.313,3.313,0,0,1-5.674,2.4,3.412,3.412,0,0,1,2.354-5.791,3.3,3.3,0,0,1,2.827,1.621Zm4.66-16.921h9.766a.923.923,0,0,0,0-1.845H55.877a.923.923,0,0,0,0,1.845Zm0,3.482h9.766a.923.923,0,0,0,0-1.845H55.877a.923.923,0,0,0,0,1.845Z" transform="translate(4619.489 4584.659)" fill="#fff" fill-rule="evenodd"/>
  </g>
</svg>
