<svg xmlns="http://www.w3.org/2000/svg" width="137" height="137" viewBox="0 0 137 137">
  <g id="Group_1119" data-name="Group 1119" transform="translate(-17926.578 -4320.045)">
    <g id="Group_867" data-name="Group 867" transform="translate(17489.578 -166.955)">
      <circle id="Ellipse_41" data-name="Ellipse 41" cx="68.5" cy="68.5" r="68.5" transform="translate(574 4487) rotate(90)" fill="#903"/>
    </g>
    <g id="video-conference_9287804" transform="translate(17944.238 4308.71)">
      <g id="Group_881" data-name="Group 881" transform="translate(7.5 37.621)">
        <path id="Path_1575" data-name="Path 1575" d="M361.424,82.8h2.889a15.5,15.5,0,0,1,15.5,15.5v34.408" transform="translate(-299.699 -74.924)" fill="none" stroke="#fff" stroke-linecap="round" stroke-linejoin="round" stroke-miterlimit="10" stroke-width="2"/>
        <path id="Path_1576" data-name="Path 1576" d="M45.152,132.708V98.3a15.5,15.5,0,0,1,15.5-15.5h2.889" transform="translate(-38.585 -74.923)" fill="none" stroke="#fff" stroke-linecap="round" stroke-linejoin="round" stroke-miterlimit="10" stroke-width="2"/>
        <path id="Path_1577" data-name="Path 1577" d="M81.045,368.955h6.917a6.215,6.215,0,0,1,6.216,6.216,12.172,12.172,0,0,1-12.17,12.17H19.67A12.171,12.171,0,0,1,7.5,375.171a6.217,6.217,0,0,1,6.216-6.216h6.917" transform="translate(-7.5 -311.17)" fill="none" stroke="#fff" stroke-linecap="round" stroke-linejoin="round" stroke-miterlimit="10" stroke-width="2"/>
        <path id="Path_1578" data-name="Path 1578" d="M211.866,368.955a7.88,7.88,0,0,1-7.88,7.88h-7.88a7.881,7.881,0,0,1-7.88-7.88" transform="translate(-156.708 -311.17)" fill="none" stroke="#fff" stroke-linecap="round" stroke-linejoin="round" stroke-miterlimit="10" stroke-width="2"/>
        <circle id="Ellipse_352" data-name="Ellipse 352" cx="2.627" cy="2.627" r="2.627" transform="translate(72.231 64.352)" fill="none" stroke="#fff" stroke-linecap="round" stroke-linejoin="round" stroke-miterlimit="10" stroke-width="2"/>
        <circle id="Ellipse_353" data-name="Ellipse 353" cx="2.627" cy="2.627" r="2.627" transform="translate(60.412 64.352)" fill="none" stroke="#fff" stroke-linecap="round" stroke-linejoin="round" stroke-miterlimit="10" stroke-width="2"/>
        <path id="Path_1579" data-name="Path 1579" d="M82.8,146.393v-14.91a11.034,11.034,0,0,1,11.033-11.033h.788" transform="translate(-69.668 -106.005)" fill="none" stroke="#fff" stroke-linecap="round" stroke-linejoin="round" stroke-miterlimit="10" stroke-width="2"/>
        <path id="Path_1580" data-name="Path 1580" d="M131.392,120.451h.788a11.034,11.034,0,0,1,11.033,11.033V163.79H82.8V152.5" transform="translate(-69.668 -106.005)" fill="none" stroke="#fff" stroke-linecap="round" stroke-linejoin="round" stroke-miterlimit="10" stroke-width="2"/>
        <path id="Path_1581" data-name="Path 1581" d="M176.243,37.621h4.236a6.872,6.872,0,0,1,6.871,6.873v9.894a6.872,6.872,0,0,1-6.871,6.873h-6.261L171.2,65.787a2.687,2.687,0,0,1-4.472,0l-3.017-4.526h-6.261a6.872,6.872,0,0,1-6.871-6.873V44.494a6.872,6.872,0,0,1,6.871-6.873h12.688" transform="translate(-125.627 -37.621)" fill="none" stroke="#fff" stroke-linecap="round" stroke-linejoin="round" stroke-miterlimit="10" stroke-width="2"/>
        <line id="Line_108" data-name="Line 108" x2="23.639" transform="translate(31.519 7.88)" fill="none" stroke="#fff" stroke-linecap="round" stroke-linejoin="round" stroke-miterlimit="10" stroke-width="2"/>
        <line id="Line_109" data-name="Line 109" x2="23.639" transform="translate(31.519 15.76)" fill="none" stroke="#fff" stroke-linecap="round" stroke-linejoin="round" stroke-miterlimit="10" stroke-width="2"/>
        <path id="Path_1582" data-name="Path 1582" d="M145.473,233.671a6.571,6.571,0,1,1,4.269,1.576A6.556,6.556,0,0,1,145.473,233.671Z" transform="translate(-119.514 -189.938)" fill="none" stroke="#fff" stroke-linecap="round" stroke-linejoin="round" stroke-miterlimit="10" stroke-width="2"/>
        <path id="Path_1583" data-name="Path 1583" d="M141.685,288.381a9.193,9.193,0,0,1,4.9,7.486H128.246a9.193,9.193,0,0,1,4.9-7.486" transform="translate(-107.188 -244.648)" fill="none" stroke="#fff" stroke-linecap="round" stroke-linejoin="round" stroke-miterlimit="10" stroke-width="2"/>
        <circle id="Ellipse_354" data-name="Ellipse 354" cx="6.567" cy="6.567" r="6.567" transform="translate(48.596 43.629) rotate(-76.714)" fill="none" stroke="#fff" stroke-linecap="round" stroke-linejoin="round" stroke-miterlimit="10" stroke-width="2"/>
        <path id="Path_1584" data-name="Path 1584" d="M292.291,288.381a9.193,9.193,0,0,1,4.9,7.486H278.852a9.193,9.193,0,0,1,4.9-7.486" transform="translate(-231.528 -244.648)" fill="none" stroke="#fff" stroke-linecap="round" stroke-linejoin="round" stroke-miterlimit="10" stroke-width="2"/>
      </g>
    </g>
  </g>
</svg>
