<svg xmlns="http://www.w3.org/2000/svg" width="137" height="137" viewBox="0 0 137 137">
  <g id="Group_1138" data-name="Group 1138" transform="translate(-20669.5 -4389.15)">
    <circle id="Ellipse_423" data-name="Ellipse 423" cx="68.5" cy="68.5" r="68.5" transform="translate(20806.5 4389.15) rotate(90)" fill="#903"/>
    <path id="circular-economy_16822099" d="M90.05,63.395a6.71,6.71,0,0,0-4.742,11.449,3.76,3.76,0,0,1,0,5.312l-5.153,5.153a3.76,3.76,0,0,1-5.312,0A6.71,6.71,0,0,0,63.395,90.05,3.75,3.75,0,0,1,59.641,93.8H52.353A3.75,3.75,0,0,1,48.6,90.05,6.707,6.707,0,0,0,37.15,85.308a3.753,3.753,0,0,1-5.307,0l-5.157-5.153a3.76,3.76,0,0,1,0-5.312,6.709,6.709,0,0,0-4.742-11.449,3.754,3.754,0,0,1-3.754-3.754V52.353A3.754,3.754,0,0,1,21.944,48.6,6.709,6.709,0,0,0,26.686,37.15a3.753,3.753,0,0,1,0-5.307l5.157-5.157a3.753,3.753,0,0,1,5.307,0A6.709,6.709,0,0,0,48.6,21.944a3.754,3.754,0,0,1,3.754-3.754h7.288a3.754,3.754,0,0,1,3.754,3.754,6.709,6.709,0,0,0,11.449,4.742,3.76,3.76,0,0,1,5.312,0l5.153,5.157a3.753,3.753,0,0,1,0,5.307A6.71,6.71,0,0,0,90.05,48.6,3.75,3.75,0,0,1,93.8,52.353v7.288a3.75,3.75,0,0,1-3.754,3.754Zm0-2.72a1.032,1.032,0,0,0,1.033-1.033V52.353A1.032,1.032,0,0,0,90.05,51.32a9.432,9.432,0,0,1-6.666-16.093,1.033,1.033,0,0,0,0-1.46L78.232,28.61a1.037,1.037,0,0,0-1.464,0,9.431,9.431,0,0,1-16.093-6.666,1.033,1.033,0,0,0-1.033-1.033H52.353a1.033,1.033,0,0,0-1.033,1.033A9.431,9.431,0,0,1,35.227,28.61a1.033,1.033,0,0,0-1.46,0L28.61,33.767a1.033,1.033,0,0,0,0,1.46A9.431,9.431,0,0,1,21.944,51.32a1.033,1.033,0,0,0-1.033,1.033v7.288a1.033,1.033,0,0,0,1.033,1.033A9.431,9.431,0,0,1,28.61,76.767a1.037,1.037,0,0,0,0,1.464l5.157,5.153a1.033,1.033,0,0,0,1.46,0A9.428,9.428,0,0,1,51.32,90.05a1.032,1.032,0,0,0,1.033,1.033h7.288a1.032,1.032,0,0,0,1.033-1.033,9.432,9.432,0,0,1,16.093-6.666,1.037,1.037,0,0,0,1.464,0l5.153-5.153a1.037,1.037,0,0,0,0-1.464A9.432,9.432,0,0,1,90.05,60.674ZM56,32.68A23.317,23.317,0,1,1,32.679,56,23.319,23.319,0,0,1,56,32.68Zm0,2.72A20.6,20.6,0,1,0,76.6,56,20.6,20.6,0,0,0,56,35.4Zm0,2.107A18.49,18.49,0,1,1,37.507,56,18.491,18.491,0,0,1,56,37.508Zm0,2.72A15.769,15.769,0,1,0,71.767,56,15.771,15.771,0,0,0,56,40.228Zm-1.384,7.115-.026-1.084a1.36,1.36,0,0,1,2.72-.066l.029,1.186a8.252,8.252,0,0,1,1.769.679,4.841,4.841,0,0,1,1.766,1.478A1.36,1.36,0,1,1,58.6,51.03a2.078,2.078,0,0,0-.764-.567A4.477,4.477,0,0,0,56,49.9a2.437,2.437,0,1,0,0,4.8,5.364,5.364,0,0,1,5.573,5.121,5.235,5.235,0,0,1-4.185,4.962l.023.945a1.36,1.36,0,0,1-2.72.066l-.024-.979a6.319,6.319,0,0,1-3.124-1.86,1.36,1.36,0,0,1,1.865-1.98A3.424,3.424,0,0,0,56,62.229a2.437,2.437,0,1,0,0-4.8,5.364,5.364,0,0,1-5.573-5.121A5.233,5.233,0,0,1,54.613,47.343ZM98.02,79.191,100.086,78a1.36,1.36,0,1,1,1.36,2.356L94.606,84.3a1.36,1.36,0,0,1-2.04-1.178v-7.9a1.36,1.36,0,1,1,2.72,0V78.5q.389-.677.755-1.368.091-.173.181-.346a44.984,44.984,0,0,0,2.35-5.36q.078-.213.153-.427.062-.176.122-.353a44.928,44.928,0,0,0,1.538-5.691q.044-.22.086-.441t.082-.444a45.383,45.383,0,0,0,.708-7.044q.005-.233.008-.467,0-.281,0-.564A45.236,45.236,0,0,0,56,10.721q-.465,0-.929.009l-.466.012a1.36,1.36,0,0,1-.083-2.719l.494-.012Q55.5,8,56,8a47.956,47.956,0,0,1,48,48q0,.3,0,.6,0,.247-.009.494a48.1,48.1,0,0,1-.75,7.466q-.043.236-.087.471t-.091.467a47.64,47.64,0,0,1-1.632,6.035q-.064.187-.13.374-.08.227-.162.453a47.718,47.718,0,0,1-2.493,5.684q-.1.184-.192.367Q98.236,78.8,98.02,79.191ZM13.974,32.8,11.908,34a1.36,1.36,0,0,1-1.36-2.356l6.84-3.949a1.36,1.36,0,0,1,2.04,1.178v7.9a1.36,1.36,0,0,1-2.72,0V33.494q-.445.774-.86,1.568l-.162.313a45.03,45.03,0,0,0-2.192,5q-.149.4-.29.812-.068.2-.134.393a44.874,44.874,0,0,0-1.416,5.239q-.041.2-.08.4-.1.485-.181.973a45.377,45.377,0,0,0-.653,6.471q-.008.257-.012.515-.007.414-.007.829A45.236,45.236,0,0,0,56,101.274q.6,0,1.194-.016.258-.007.514-.016a1.36,1.36,0,0,1,.1,2.719q-.272.01-.545.017-.63.016-1.265.016A47.956,47.956,0,0,1,8,56q0-.44.008-.878,0-.273.013-.545a48.089,48.089,0,0,1,.693-6.859q.09-.518.191-1.032.041-.21.085-.419a47.618,47.618,0,0,1,1.5-5.556q.07-.209.142-.417.15-.433.308-.861a47.78,47.78,0,0,1,2.324-5.3q.085-.166.172-.332.263-.5.537-1ZM40.651,13.391a1.36,1.36,0,1,1-.923-2.559L40.1,10.7a47.6,47.6,0,0,1,6.022-1.681l.466-.1a1.36,1.36,0,1,1,.531,2.668l-.44.09A44.887,44.887,0,0,0,41,13.266ZM71.156,98.67a1.36,1.36,0,1,1,.912,2.563l-.416.146a47.618,47.618,0,0,1-5.544,1.546l-.418.088a1.36,1.36,0,0,1-.547-2.665l.394-.083a44.876,44.876,0,0,0,5.227-1.458l.392-.137Zm11.472-6.063a1.36,1.36,0,1,1,1.6,2.2L83.967,95a48.035,48.035,0,0,1-5.431,3.38l-.331.175a1.36,1.36,0,1,1-1.262-2.41l.312-.165a45.351,45.351,0,0,0,5.124-3.189l.249-.18ZM29.366,19.387a1.36,1.36,0,1,1-1.6-2.2l.076-.055a48.086,48.086,0,0,1,5.409-3.4l.366-.2a1.36,1.36,0,1,1,1.271,2.405l-.345.184a45.373,45.373,0,0,0-5.1,3.21Z" transform="translate(20682.004 4401.653)" fill="#fff" fill-rule="evenodd"/>
  </g>
</svg>
