<svg xmlns="http://www.w3.org/2000/svg" width="137" height="137" viewBox="0 0 137 137">
  <g id="_selected_1" data-name=" selected 1" transform="translate(-6616.621 -4585.309)">
    <g id="Group_1056" data-name="Group 1056" transform="translate(6179.621 98.309)">
      <circle id="Ellipse_41" data-name="Ellipse 41" cx="68.5" cy="68.5" r="68.5" transform="translate(574 4487) rotate(90)" fill="#903"/>
    </g>
    <path id="meteorology_13858070" d="M12.513,44.825a1.85,1.85,0,0,0,2.274-1.307,40.524,40.524,0,0,1,5.528-12.112,53.908,53.908,0,0,0,7.1,2.43,57.492,57.492,0,0,0-1.716,6.006,1.854,1.854,0,1,0,3.614.826,54.148,54.148,0,0,1,1.713-5.945c.48.106.961.212,1.454.311a2,2,0,0,0,.212.031l6.488.548c.052,0,.1.006.158.006a1.854,1.854,0,0,0,.153-3.7L33.1,31.379c-.236-.049-.464-.1-.7-.15,4.5-10.184,11.805-16.84,19.9-17.741V22.64a1.854,1.854,0,1,0,3.708,0v-9.16c8.028.857,15.345,7.333,19.951,17.745l-.085.019a1.853,1.853,0,1,0,.768,3.626A60.874,60.874,0,0,0,88.005,31.4a40.545,40.545,0,0,1,5.528,12.113,1.854,1.854,0,0,0,3.581-.965,44.5,44.5,0,0,0-85.908,0,1.855,1.855,0,0,0,1.307,2.272Zm73.2-16.487a52.681,52.681,0,0,1-6.091,2.007,41.024,41.024,0,0,0-8.93-13.455A40.993,40.993,0,0,1,85.714,28.338ZM37.835,16.792a40.8,40.8,0,0,0-9.09,13.561,53.55,53.55,0,0,1-6.14-2.018A41.022,41.022,0,0,1,37.835,16.792ZM98.647,86.56c0-.02,0-.037,0-.057L96.795,51.28a1.854,1.854,0,0,0-1.754-1.753l-13.406-.7V43.036a1.857,1.857,0,0,0-.057-.457c-.01-.041-.032-.077-.045-.117a1.882,1.882,0,0,0-.12-.307c-.024-.044-.06-.082-.087-.124a2.006,2.006,0,0,0-.176-.246c-.038-.041-.086-.073-.128-.11a1.694,1.694,0,0,0-.207-.18L71.271,35.1l-8.06-6.488a1.841,1.841,0,0,0-1.426-.39L50.5,29.846a1.855,1.855,0,0,0-.427.119c-.042.017-.082.041-.124.062a1.792,1.792,0,0,0-.259.152c-.042.031-.084.064-.124.1a1.969,1.969,0,0,0-.2.2c-.033.04-.068.077-.1.119-.015.02-.034.036-.047.057L40.026,44.535,26.378,46.061a1.86,1.86,0,0,0-.435.109l-.085.032a1.856,1.856,0,0,0-.367.208c-.023.017-.044.036-.066.054a1.822,1.822,0,0,0-.289.287l-.025.03a1.825,1.825,0,0,0-.221.386c-.007.014-.018.026-.023.041s0,.023-.009.035a1.914,1.914,0,0,0-.106.379l-.2,1.312-11.276.592a1.856,1.856,0,0,0-1.754,1.753L9.668,86.5c0,.02,0,.038,0,.057s0,.026,0,.041v7.415A1.854,1.854,0,0,0,11.52,95.87H45.277a4.641,4.641,0,0,0,4.248,2.781h9.268A4.64,4.64,0,0,0,63.04,95.87H96.8a1.853,1.853,0,0,0,1.854-1.854V86.6C98.65,86.587,98.647,86.573,98.647,86.56Zm-3.7,1.894v3.708H61.574a1.857,1.857,0,0,0-1.853,1.853.927.927,0,0,1-.927.927H56.013V92.163c0-.119.007-.237.018-.354a3.711,3.711,0,0,1,3.69-3.353H94.943Zm-48.2,3.708H13.375V88.454H48.6a3.712,3.712,0,0,1,3.69,3.353c.011.117.018.234.018.354v2.78H49.526a.928.928,0,0,1-.927-.927,1.857,1.857,0,0,0-1.855-1.853ZM15.139,53.142l8.843-.466L21.909,66.228a1.855,1.855,0,0,0,1.271,2.047,7.31,7.31,0,0,1,1.637.719l.325.2a11.378,11.378,0,0,0,11.8,0l.807-.494A7.642,7.642,0,0,1,45.1,68.41h0l.181.089c.13.063.263.124.386.2l.8.5a11.372,11.372,0,0,0,11.8,0l.81-.5a7.629,7.629,0,0,1,7.923,0l.8.493a11.569,11.569,0,0,0,11.8,0l.328-.2h0a7.648,7.648,0,0,1,4.506-1.067,1.853,1.853,0,0,0,1.742-2.763l-4.554-8.018V52.534l11.545.607,1.663,31.606H59.721a7.357,7.357,0,0,0-3.708,1V76.4a1.854,1.854,0,1,0-3.708,0v9.346a7.357,7.357,0,0,0-3.708-1H13.475ZM65.479,35.2l-9.027,1.009-2.336-3.136h0l7.4-1.063ZM53.435,38.364l-4.33,8.713a1.877,1.877,0,0,0,.835,2.484,1.851,1.851,0,0,0,2.472-.812l.014-.023L56.813,39.9l12.828-1.434,6.329,4.245-11.45,5.122c-.045.02-.086.045-.128.068l-.031.014-.043.025a1.9,1.9,0,0,0-.257.186l-.05.047a1.91,1.91,0,0,0-.191.208c-.01.012-.021.021-.031.034l-.949,1.272-1.331,1.786L58.952,54.9a1.855,1.855,0,0,0-.274,1.691l2.471,7.459a11.185,11.185,0,0,0-4,1.485l-.81.5a7.632,7.632,0,0,1-7.92,0l-.634-.389V52.768a1.888,1.888,0,0,0-.032-.335c0-.021-.011-.04-.015-.06a1.824,1.824,0,0,0-.095-.3c-.013-.032-.026-.063-.041-.094a1.857,1.857,0,0,0-.159-.271c-.01-.014-.015-.031-.026-.045l-.034-.046h0l-.124-.165-1.329-1.784-1.331-1.787-1.237-1.66,7.5-11.313Zm-23.234,11,9.78-1.093.26-.03L41.477,49.9l1.33,1.785.233.312-.071.031-7.784,3.357L32.57,52.224,31.1,50.447Zm-2.408,2.906.164.2,5.259,6.351a1.853,1.853,0,0,0,2.163.52l8.7-3.749v8.568a11.325,11.325,0,0,0-8.264,1.384l-.806.5a7.635,7.635,0,0,1-7.92,0h0l-.324-.2a9.537,9.537,0,0,0-.96-.516l1.965-12.842Zm38-.332L78.427,59l3.086,5.438A11.021,11.021,0,0,0,78,65.834l-.328.2a7.8,7.8,0,0,1-7.923,0l-.8-.493a11.178,11.178,0,0,0-3.885-1.466L62.5,56.348Zm12.139-1.454v3.991l-4.218-2.357-3.666-2.048-.642-.36,3.061-1.369L77.927,45.9v4.587ZM37.474,78.258a1.854,1.854,0,1,1-1.854-1.853A1.861,1.861,0,0,1,37.474,78.258Zm7.415,0a1.854,1.854,0,1,1-1.854-1.853A1.861,1.861,0,0,1,44.889,78.258Zm-14.83,0a1.86,1.86,0,0,1-1.853,1.854H20.79a1.854,1.854,0,1,1,0-3.708H28.2A1.86,1.86,0,0,1,30.059,78.258Zm35.222,0a1.853,1.853,0,0,1,1.854-1.853H89.381a1.854,1.854,0,1,1,0,3.708H67.136a1.854,1.854,0,0,1-1.854-1.854Z" transform="translate(6630.703 4593.605)" fill="#fff" stroke="#903" stroke-width="1"/>
  </g>
</svg>
