<svg xmlns="http://www.w3.org/2000/svg" width="137" height="137" viewBox="0 0 137 137">
  <g id="selected_1" data-name="selected 1" transform="translate(-437 -5506)">
    <circle id="Ellipse_41" data-name="Ellipse 41" cx="68.5" cy="68.5" r="68.5" transform="translate(574 5506) rotate(90)" fill="#903"/>
    <g id="Layer_27" data-name="Layer 27" transform="translate(1045.814 5591.814)">
      <path id="Path_829" data-name="Path 829" d="M73.6,8.141a1.19,1.19,0,0,0,1.19-1.19V2.19A1.19,1.19,0,0,0,73.6,1H2.19A1.19,1.19,0,0,0,1,2.19V6.951a1.19,1.19,0,0,0,1.19,1.19H3.38V48.607H2.19A1.19,1.19,0,0,0,1,49.8v4.761a1.19,1.19,0,0,0,1.19,1.19H32.064a5.951,5.951,0,0,0,4.642,4.642v7.474a3.571,3.571,0,1,0,2.38,0V60.39a5.951,5.951,0,0,0,4.642-4.642H73.6a1.19,1.19,0,0,0,1.19-1.19V49.8a1.19,1.19,0,0,0-1.19-1.19h-1.19V8.141ZM3.38,3.38H72.411v2.38H3.38Zm49.5,4.761L51.833,9.188a6.9,6.9,0,0,0-.845,8.843l-14.413,2.38a7.581,7.581,0,0,0-2.166-4.32l-.833-.833a4.047,4.047,0,0,0-2.821-1.166,1.7,1.7,0,0,1-1.19-.488L28.1,12.128a5.522,5.522,0,0,0-7.784,0l-1.047,1.047a5.522,5.522,0,0,0,0,7.784L21.1,22.78a1.821,1.821,0,0,1,.4.667l.762,2.285a4.094,4.094,0,0,0,.988,1.583,7.629,7.629,0,0,0,5.427,2.249h.738a7.141,7.141,0,0,0,3.94-1.19l3.154,3.571-7.986,4.844a9.64,9.64,0,0,0-4.915-1.273,4.57,4.57,0,0,1-3.225-1.333l-3.773-3.773a6.927,6.927,0,0,0-9.807,0L5.761,31.457V8.141Zm4.059,17.853a9.8,9.8,0,0,0,2.868,6.939l.452.452a11.283,11.283,0,0,0,8.034,3.321h1.738V46.929L65.52,42.406a7.284,7.284,0,0,0-5.153-2.13h-.9A4.915,4.915,0,0,1,56,38.836a7.284,7.284,0,0,0-5.153-2.13H48.75a7.141,7.141,0,0,0-3.94,1.19l-4.642-5.3,15.675-9.521a4.57,4.57,0,0,1,1.095,2.916ZM34.325,48.607V46.87A11.283,11.283,0,0,0,31,38.836l-.44-.44,7.546-4.57,4.9,5.606-1.4,1.393a12.652,12.652,0,0,0-3.654,7.784ZM43.3,42.514l1.285-1.285.869.988a3.416,3.416,0,0,0-.417,1.631,3.571,3.571,0,1,0,2.142-3.273l-.762-.869a4.987,4.987,0,0,1,2.38-.619h2.095a4.915,4.915,0,0,1,3.463,1.44,7.284,7.284,0,0,0,5.106,2.13h.9A4.915,4.915,0,0,1,63.83,44.1l4.523,4.511h-28A10.224,10.224,0,0,1,43.3,42.514Zm5.308.143a1.19,1.19,0,1,1-1.19,1.19A1.19,1.19,0,0,1,48.607,42.656Zm7.641-22.613-.4-.393,1.464-.25Zm-2.095,1.273L38.586,30.755,35.123,26.8a7.32,7.32,0,0,0,1.583-3.963l16.282-2.714Zm-21.292-.25a3.571,3.571,0,1,0-1.869,4.63l.762.869a4.987,4.987,0,0,1-2.38.619h-.738a5.261,5.261,0,0,1-3.749-1.547,1.821,1.821,0,0,1-.4-.667l-.762-2.285a4.2,4.2,0,0,0-.976-1.583h0l-1.821-1.833a3.106,3.106,0,0,1,0-4.4l1.047-1.047a3.106,3.106,0,0,1,4.4,0l1.512,1.464a4.047,4.047,0,0,0,2.868,1.19,1.7,1.7,0,0,1,1.19.488l.833.833a5.308,5.308,0,0,1,1.476,3.035Zm-3.3,2.547a1.19,1.19,0,1,1,1.19-1.19A1.19,1.19,0,0,1,29.564,23.613Zm3.154.44a3.31,3.31,0,0,0,.25-.6l1.262-.214a4.761,4.761,0,0,1-.714,1.726ZM5.761,34.813l2.726-2.726a4.689,4.689,0,0,1,6.451,0L18.71,35.86a6.891,6.891,0,0,0,4.9,2.035,7.51,7.51,0,0,1,2.476.428l-4.178,2.523a3.571,3.571,0,1,0,.44,2.523l6.082-3.69a4.534,4.534,0,0,1,.428.393l.452.452a8.867,8.867,0,0,1,2.63,6.344v1.738H5.761Zm14.282,7.843a1.19,1.19,0,1,1-1.19-1.19A1.19,1.19,0,0,1,20.043,42.656ZM37.9,72.411a1.19,1.19,0,1,1,1.19-1.19A1.19,1.19,0,0,1,37.9,72.411Zm0-14.282a3.571,3.571,0,0,1-3.356-2.38h6.713a3.571,3.571,0,0,1-3.356,2.38Zm34.515-4.761H3.38v-2.38H72.411Zm-2.38-19.043H68.293a8.867,8.867,0,0,1-6.344-2.63l-.452-.452a7.367,7.367,0,0,1-2.178-5.249,7.058,7.058,0,0,0-1.4-4.178l2.595-1.547a3.571,3.571,0,1,0-.976-3.642l-5.713.952-.262-.262a4.57,4.57,0,0,1,0-6.451l2.678-2.726H70.031ZM61.7,17.663a1.19,1.19,0,1,1,1.19,1.19A1.19,1.19,0,0,1,61.7,17.663Z" transform="translate(-577.419 -49.71)" fill="#fff"/>
    </g>
  </g>
</svg>
