<svg xmlns="http://www.w3.org/2000/svg" width="137" height="137" viewBox="0 0 137 137">
  <g id="Group_1136" data-name="Group 1136" transform="translate(-20374.5 -4389.15)">
    <circle id="Ellipse_41" data-name="Ellipse 41" cx="68.5" cy="68.5" r="68.5" transform="translate(20511.5 4389.15) rotate(90)" fill="#903"/>
    <path id="document_13414733" d="M144.664,38.656,124.032,16.015a1.328,1.328,0,0,0-.981-.433H121.8l-5.6-6.148A1.328,1.328,0,0,0,115.216,9H82.683a5.734,5.734,0,0,0-5.513,5.92V80.948a5.734,5.734,0,0,0,5.513,5.921H85v.661a5.734,5.734,0,0,0,5.513,5.92h8.538a21.473,21.473,0,0,0,35.311,0H139.5a5.742,5.742,0,0,0,5.513-5.92V39.55A1.328,1.328,0,0,0,144.664,38.656Zm-3.987-.433H124.444l-.056-17.873ZM82.683,84.214a3.085,3.085,0,0,1-2.858-3.265V14.92a3.085,3.085,0,0,1,2.858-3.265H114.63l3.578,3.926H90.518A5.734,5.734,0,0,0,85,21.5V84.214Zm34.028,15.833a18.837,18.837,0,1,1,18.837-18.837,18.837,18.837,0,0,1-18.837,18.837ZM139.5,90.8h-3.554a21.493,21.493,0,1,0-38.466,0H90.517A3.085,3.085,0,0,1,87.66,87.53V21.5a3.085,3.085,0,0,1,2.858-3.265h31.21l.066,21.317a1.328,1.328,0,0,0,1.328,1.324h19.234v46.65A3.09,3.09,0,0,1,139.5,90.8ZM92.664,26.131A1.328,1.328,0,0,1,93.992,24.8h17.7a1.328,1.328,0,0,1,0,2.656h-17.7A1.328,1.328,0,0,1,92.664,26.131Zm0,10.029a1.328,1.328,0,0,1,1.328-1.328h17.7a1.328,1.328,0,0,1,0,2.656h-17.7A1.328,1.328,0,0,1,92.664,36.159Zm0,10.029a1.328,1.328,0,0,1,1.328-1.328h41.1a1.328,1.328,0,1,1,0,2.656h-41.1A1.328,1.328,0,0,1,92.664,46.188Zm45.13,10.029a1.328,1.328,0,0,1-1.328,1.328H93.992a1.328,1.328,0,0,1,0-2.656h42.475a1.328,1.328,0,0,1,1.328,1.328ZM126.344,81.97a9.745,9.745,0,0,0-7.119-2.257,1.328,1.328,0,0,0-1.014.6,2.024,2.024,0,0,1-3,0,1.328,1.328,0,0,0-1.014-.6,9.748,9.748,0,0,0-7.119,2.257q-.038.031-.075.065c-1.94,1.846-2.645,4.963-2.155,9.53a1.907,1.907,0,0,0,.724,1.306c2.59,2.034,6.123,3.063,10.51,3.063q.311,0,.628-.007c4.677.1,8.426-.926,11.138-3.056a1.907,1.907,0,0,0,.724-1.307c.49-4.567-.215-7.685-2.155-9.53-.025-.023-.05-.045-.075-.065Zm-.379,9c-2.208,1.618-5.308,2.394-9.223,2.3h-.061c-3.915.088-7.015-.686-9.223-2.3-.329-3.436.123-5.782,1.343-6.977a7,7,0,0,1,4.643-1.655,4.76,4.76,0,0,0,6.534,0,7.02,7.02,0,0,1,4.643,1.655c1.22,1.195,1.672,3.541,1.343,6.977Zm-9.253-11.1a6.693,6.693,0,1,0-6.693-6.693,6.693,6.693,0,0,0,6.693,6.693Zm0-10.731a4.038,4.038,0,1,1-4.038,4.038,4.038,4.038,0,0,1,4.038-4.038Z" transform="translate(20333.41 4403.288)" fill="#fff"/>
  </g>
</svg>
