<svg xmlns="http://www.w3.org/2000/svg" width="84.264" height="84.264" viewBox="0 0 84.264 84.264">
  <g id="Group_1_icons_-_selected_4" data-name="Group 1 icons - selected 4" transform="translate(18322.793 -3200.608)">
    <circle id="Ellipse_392" data-name="Ellipse 392" cx="42.132" cy="42.132" r="42.132" transform="translate(-18238.529 3200.608) rotate(90)" fill="#903"/>
    <g id="Group_931" data-name="Group 931" transform="translate(-18332.969 3214.482)">
      <path id="Path_1041" data-name="Path 1041" d="M61.86,191.509a21.141,21.141,0,0,1-28.455-30.74l.035,2.7a.83.83,0,0,0,.83.82h.011a.831.831,0,0,0,.82-.841l-.063-4.81a.83.83,0,0,0-.82-.82l-4.81-.063a.831.831,0,1,0-.022,1.661l2.952.039a22.8,22.8,0,0,0,15.523,37.45q.937.077,1.872.077a22.811,22.811,0,0,0,13.079-4.114.831.831,0,0,0-.954-1.36Z" transform="translate(0 -140.287)" fill="#fff"/>
      <path id="Path_1042" data-name="Path 1042" d="M242.148,290.725a17.873,17.873,0,0,1-2.052-.827.49.49,0,0,1-.241-.507.9.9,0,0,1,.685-.748,2.574,2.574,0,0,1,2.135.491.831.831,0,0,0,1.065-1.275,4.614,4.614,0,0,0-1.871-.877v-.709a.83.83,0,1,0-1.661,0v.739c-.049.013-.1.025-.148.04a2.57,2.57,0,0,0-1.858,2.168,2.135,2.135,0,0,0,1.1,2.137c1.548.843,3.5,1,3.308,2.047a1.351,1.351,0,0,1-1.394.926,2.686,2.686,0,0,1-1.974-.828.83.83,0,1,0-1.231,1.115,4.266,4.266,0,0,0,2.2,1.257v.745a.83.83,0,0,0,1.661,0v-.692a2.871,2.871,0,0,0,2.376-2.231C244.423,292.7,243.966,291.394,242.148,290.725Z" transform="translate(-187.504 -253.834)" fill="#fff"/>
      <path id="Path_1043" data-name="Path 1043" d="M133.28,6.548a.831.831,0,1,0-1.4.889,12.321,12.321,0,0,1,1.558,3.66H127.69a2.529,2.529,0,0,1-1.536-.523l-.86-.663a2.436,2.436,0,0,0-2.218-.394,2.435,2.435,0,0,0-.893,4.135l1.826,1.635a2.53,2.53,0,0,1,.829,2.075l0,.021a4.158,4.158,0,0,0,1.777,3.745l3.088,2.132a12.351,12.351,0,0,1-9.8,3.113,2.708,2.708,0,0,0-2.327-2.2c1.4-2.063,1.506-4.382.564-5.621-1.57-2.066-3.875-1.219-5.4-.659a5.542,5.542,0,0,1-1.423.406A5.542,5.542,0,0,1,109.9,17.9l-.342-.124a12.3,12.3,0,0,1-.469-2.143l7.261-.618a2.348,2.348,0,0,0,2.161-2.353V12.4a2.426,2.426,0,0,0-.352-1.24,1.1,1.1,0,0,1-.132-1.025c.413-1.075,2.507-2.307,5.464-3.216a1.826,1.826,0,0,0-.24-3.546l-3.151-.52a1.591,1.591,0,0,1-.926-.509l-.368-.413a12.407,12.407,0,0,1,10.71,2.756A.831.831,0,1,0,130.6,3.435,14.065,14.065,0,0,0,107.642,11.1a22.909,22.909,0,0,0-13.187,4.113.831.831,0,1,0,.954,1.36,21.231,21.231,0,0,1,11.979-3.813,14.191,14.191,0,0,0,.312,4.521,3.219,3.219,0,0,0-3.2,1.275c-.942,1.239-.834,3.558.564,5.621a2.7,2.7,0,0,0-.951,5.061,14.347,14.347,0,0,0-.887,1.311H99.961a.831.831,0,0,0,0,1.661h2.4a14.563,14.563,0,0,0-.893,2.69H94.928a1.345,1.345,0,0,1,0-2.69h1.158a.831.831,0,0,0,0-1.661H94.927a3,3,0,0,0-2.071,5.181,3,3,0,0,0,0,4.351,3,3,0,0,0,2.071,5.18h9.828l.057,0a10.146,10.146,0,0,0,16.658-7.787,14.237,14.237,0,0,0-2.942-8.234,2.721,2.721,0,0,0,1.156-1.214,14.016,14.016,0,0,0,7.744-1.26,21.193,21.193,0,0,1-3.565,20.548l-.035-2.7a.831.831,0,0,0-1.661.022l.063,4.81a.83.83,0,0,0,.82.82l4.822.063a.831.831,0,0,0,.011-1.661l-2.951-.039A22.855,22.855,0,0,0,128.9,25.948a14.064,14.064,0,0,0,4.38-19.4Zm-16.243-4.1.893,1a3.258,3.258,0,0,0,1.895,1.043l3.151.52a.165.165,0,0,1,.023.319c-2.079.639-5.691,2.035-6.526,4.207a2.755,2.755,0,0,0,.256,2.473.767.767,0,0,1,.117.388v.255a.7.7,0,0,1-.641.7l-7.217.614A12.423,12.423,0,0,1,117.037,2.45Zm-11.22,17.11c.771-1.015,1.839-.717,3.506-.1a4.174,4.174,0,0,0,3.99,0c1.667-.612,2.735-.91,3.506.1.587.772.318,2.894-1.37,4.595h-8.261C105.5,22.454,105.23,20.332,105.817,19.56Zm-.427,6.256h11.856a1.042,1.042,0,1,1,0,2.084H105.39a1.042,1.042,0,0,1,0-2.084ZM93.583,37.9a1.346,1.346,0,0,1,1.345-1.345h6.278q-.039.46-.04.911a10.166,10.166,0,0,0,.156,1.778H94.927A1.346,1.346,0,0,1,93.583,37.9Zm0,4.351a1.346,1.346,0,0,1,1.344-1.344h6.839A10.143,10.143,0,0,0,103.23,43.6h-8.3A1.346,1.346,0,0,1,93.583,42.254Zm17.735,3.707a8.5,8.5,0,0,1-8.491-8.491,12.572,12.572,0,0,1,3.164-7.91h10.655a12.562,12.562,0,0,1,3.164,7.91,8.5,8.5,0,0,1-8.491,8.491Zm15.173-28.442,0-.021a4.2,4.2,0,0,0-1.377-3.447l-1.826-1.635a.774.774,0,0,1,.284-1.314.774.774,0,0,1,.7.125l.86.663a4.2,4.2,0,0,0,2.55.869h6.034a12.355,12.355,0,0,1-2.854,9.292l-3.313-2.288A2.492,2.492,0,0,1,126.492,17.519Z" transform="translate(-57.783 0)" fill="#fff"/>
    </g>
  </g>
</svg>
