<svg xmlns="http://www.w3.org/2000/svg" width="137" height="137" viewBox="0 0 137 137">
  <g id="_selected_1" data-name=" selected 1" transform="translate(-4435.5 -4607.5)">
    <g id="Group_1040" data-name="Group 1040" transform="translate(3998.5 120.5)">
      <circle id="Ellipse_41" data-name="Ellipse 41" cx="68.5" cy="68.5" r="68.5" transform="translate(574 4487) rotate(90)" fill="#903"/>
    </g>
    <g id="data-mining_18063663" transform="translate(4460.697 4632.013)">
      <g id="Group_885" data-name="Group 885" transform="translate(20.076 6.529)">
        <path id="Path_1716" data-name="Path 1716" d="M18.876,25.654a3.073,3.073,0,0,0,3.066-3.066,3.107,3.107,0,0,0-.405-1.5l6.889-6.606a3.017,3.017,0,0,0,1.567.446,3.073,3.073,0,0,0,2.026-.77L38.1,18.17a3.071,3.071,0,1,0,5.822-.608L50.7,10.984a3.037,3.037,0,0,0,1.526.419,3.066,3.066,0,1,0-3.066-3.066,3.107,3.107,0,0,0,.405,1.5l-6.66,6.47a3.033,3.033,0,0,0-4.066.419l-5.93-3.917a3.216,3.216,0,0,0,.149-.946,3.073,3.073,0,1,0-5.754,1.472l-6.9,6.633a3.037,3.037,0,0,0-1.526-.419,3.073,3.073,0,0,0-3.066,3.066,3.041,3.041,0,0,0,3.066,3.039ZM52.215,6.864A1.445,1.445,0,1,1,51.2,9.336a1.406,1.406,0,0,1-.432-1.027,1.447,1.447,0,0,1,1.445-1.445ZM41.1,17.306a1.465,1.465,0,0,1,1.162.581,1.425,1.425,0,0,1,.3.865,1.452,1.452,0,0,1-2.9,0,1.335,1.335,0,0,1,.135-.608,1.45,1.45,0,0,1,1.31-.838Zm-11.1-6.916a1.447,1.447,0,0,1,1.445,1.445,1.443,1.443,0,0,1-1.445,1.459,1.441,1.441,0,0,1-1.04-.446,1.478,1.478,0,0,1-.405-1.013A1.43,1.43,0,0,1,29.994,10.39ZM18.876,21.129a1.445,1.445,0,1,1-1.445,1.445A1.447,1.447,0,0,1,18.876,21.129Z" transform="translate(-15.81 -5.27)" fill="#fff"/>
      </g>
      <g id="Group_886" data-name="Group 886" transform="translate(17.023 16.134)">
        <path id="Path_1717" data-name="Path 1717" d="M14.32,36.938H58.357a.81.81,0,0,0,0-1.621H56.8V14.487A2.11,2.11,0,0,0,54.7,12.38H51.332a2.11,2.11,0,0,0-2.107,2.107v20.83H45.7V24.47a2.11,2.11,0,0,0-2.107-2.107H40.229a2.11,2.11,0,0,0-2.107,2.107V35.317H34.6v-16.3a2.11,2.11,0,0,0-2.107-2.107H29.125a2.11,2.11,0,0,0-2.107,2.107v16.3H23.492V27.2a2.11,2.11,0,0,0-2.107-2.107H18.021A2.11,2.11,0,0,0,15.914,27.2v8.118H14.36a.813.813,0,0,0-.81.81.779.779,0,0,0,.77.81ZM50.833,14.487A.484.484,0,0,1,51.319,14h3.364a.484.484,0,0,1,.486.486v20.83h-4.35V14.487ZM39.715,24.47a.484.484,0,0,1,.486-.486h3.364a.484.484,0,0,1,.486.486V35.317H39.7V24.47Zm-11.1-5.457a.484.484,0,0,1,.486-.486h3.364a.484.484,0,0,1,.486.486v16.3H28.612ZM17.494,27.2a.484.484,0,0,1,.486-.486h3.364a.484.484,0,0,1,.486.486v8.118h-4.35V27.2Z" transform="translate(-13.55 -12.38)" fill="#fff"/>
      </g>
      <g id="Group_887" data-name="Group 887" transform="translate(17.077 43.501)">
        <path id="Path_1718" data-name="Path 1718" d="M21.8,32.64H16.346A2.759,2.759,0,0,0,13.59,35.4v5.457a2.759,2.759,0,0,0,2.756,2.756H21.8a2.759,2.759,0,0,0,2.756-2.756V35.4A2.75,2.75,0,0,0,21.8,32.64Zm1.135,8.213A1.142,1.142,0,0,1,21.8,41.988H16.346a1.142,1.142,0,0,1-1.135-1.135V35.4a1.142,1.142,0,0,1,1.135-1.135H21.8A1.142,1.142,0,0,1,22.938,35.4Z" transform="translate(-13.59 -32.64)" fill="#fff"/>
      </g>
      <g id="Group_888" data-name="Group 888" transform="translate(32.368 45.946)">
        <path id="Path_1719" data-name="Path 1719" d="M41.863,34.45H25.72a.81.81,0,0,0,0,1.621H41.876a.813.813,0,0,0,.81-.81.825.825,0,0,0-.824-.81Z" transform="translate(-24.91 -34.45)" fill="#fff"/>
      </g>
      <g id="Group_889" data-name="Group 889" transform="translate(32.368 50.404)">
        <path id="Path_1720" data-name="Path 1720" d="M25.72,39.371H37.932a.81.81,0,0,0,0-1.621H25.72a.81.81,0,0,0,0,1.621Z" transform="translate(-24.91 -37.75)" fill="#fff"/>
      </g>
      <g id="Group_890" data-name="Group 890" transform="translate(19.856 46.836)">
        <path id="Path_1721" data-name="Path 1721" d="M19.676,35.34l-2.121,2.121-.527-.527a.812.812,0,1,0-1.148,1.148l1.108,1.108a.8.8,0,0,0,.567.243.778.778,0,0,0,.567-.243L20.811,36.5a.824.824,0,0,0,0-1.148A.8.8,0,0,0,19.676,35.34Z" transform="translate(-15.648 -35.109)" fill="#fff"/>
      </g>
      <g id="Group_891" data-name="Group 891" transform="translate(17.077 57.293)">
        <path id="Path_1722" data-name="Path 1722" d="M21.8,42.85H16.346a2.759,2.759,0,0,0-2.756,2.756v5.457a2.759,2.759,0,0,0,2.756,2.756H21.8a2.759,2.759,0,0,0,2.756-2.756V45.606A2.75,2.75,0,0,0,21.8,42.85Zm1.135,8.213A1.142,1.142,0,0,1,21.8,52.2H16.346a1.142,1.142,0,0,1-1.135-1.135V45.606a1.142,1.142,0,0,1,1.135-1.135H21.8a1.142,1.142,0,0,1,1.135,1.135Z" transform="translate(-13.59 -42.85)" fill="#fff"/>
      </g>
      <g id="Group_892" data-name="Group 892" transform="translate(32.368 59.738)">
        <path id="Path_1723" data-name="Path 1723" d="M41.863,44.66H25.72a.81.81,0,0,0,0,1.621H41.876a.813.813,0,0,0,.81-.81.825.825,0,0,0-.824-.81Z" transform="translate(-24.91 -44.66)" fill="#fff"/>
      </g>
      <g id="Group_893" data-name="Group 893" transform="translate(32.368 64.196)">
        <path id="Path_1724" data-name="Path 1724" d="M37.932,47.96H25.72a.81.81,0,1,0,0,1.621H37.932a.81.81,0,1,0,0-1.621Z" transform="translate(-24.91 -47.96)" fill="#fff"/>
      </g>
      <g id="Group_894" data-name="Group 894" transform="translate(19.856 60.618)">
        <path id="Path_1725" data-name="Path 1725" d="M19.676,45.553l-2.121,2.121-.527-.527a.812.812,0,1,0-1.148,1.148L16.988,49.4a.8.8,0,0,0,.567.243.778.778,0,0,0,.567-.243l2.688-2.688a.824.824,0,0,0,0-1.148A.773.773,0,0,0,19.676,45.553Z" transform="translate(-15.648 -45.311)" fill="#fff"/>
      </g>
      <g id="Group_895" data-name="Group 895" transform="translate(3.65 1.68)">
        <path id="Path_1726" data-name="Path 1726" d="M78.134,56.658a2.063,2.063,0,0,0,.621-1.486,2.12,2.12,0,0,0-.189-.865l3.391-3.391a3.4,3.4,0,1,0-4.809-4.809l-3.337,3.337a2.142,2.142,0,0,0-2.594.3l-.689.689c-.311-.216-.756-.513-1.283-.851V8.7A7.028,7.028,0,0,0,62.222,1.68H18.414A7.028,7.028,0,0,0,11.39,8.7V9.42h-.716A7.028,7.028,0,0,0,3.65,16.444V73.8a7.028,7.028,0,0,0,7.024,7.024H42.5a3.39,3.39,0,0,0,5.066,4.485l4.485-4.485h2.445A7.028,7.028,0,0,0,61.519,73.8v-.716h.716a7.028,7.028,0,0,0,7.024-7.024V64.088a2.119,2.119,0,0,0,.5.068,2.041,2.041,0,0,0,1.486-.621l1.013-1.013c3.755,3.3,8.389,12.441,8.443,12.536a.817.817,0,0,0,.729.446H81.5a.808.808,0,0,0,.7-.581c2.094-6.984-3.188-15.318-4.755-17.588Zm.162-9.4a1.821,1.821,0,0,1,2.5,0,1.756,1.756,0,0,1,.513,1.256,1.814,1.814,0,0,1-.513,1.256l-3.3,3.3-2.5-2.5ZM66.49,54.47c-2.567-2.864-7.889-6-10.861-7.632,5.538-.351,11.617,3.35,13.724,4.768ZM13.011,8.7a5.4,5.4,0,0,1,5.4-5.4H62.222a5.4,5.4,0,0,1,5.4,5.4V48.621c-3.647-2.026-9.523-4.5-14.683-2.958a.827.827,0,0,0-.581.7.8.8,0,0,0,.446.8c.095.054,9.24,4.687,12.536,8.443l-1.013,1.013a2.063,2.063,0,0,0-.621,1.486,2.084,2.084,0,0,0,.324,1.108L51.766,71.477a.48.48,0,0,0-.135-.027H18.4a5.4,5.4,0,0,1-5.4-5.4V8.7ZM5.271,73.8V16.444a5.4,5.4,0,0,1,5.4-5.4h.716V66.06a7.028,7.028,0,0,0,7.024,7.024H50.186L44.067,79.2H10.674a5.4,5.4,0,0,1-5.4-5.4ZM46.417,84.161a1.767,1.767,0,0,1-2.5-2.5L65.153,60.427l2.5,2.5L51.131,79.447ZM54.481,79.2h-.824l6.227-6.227V73.8A5.4,5.4,0,0,1,54.481,79.2Zm7.74-7.74H61.4l6.227-6.227v.824A5.41,5.41,0,0,1,62.222,71.463ZM70.1,62.386a.489.489,0,0,1-.689,0l-3.931-3.931a.484.484,0,0,1-.149-.338.46.46,0,0,1,.149-.338l6.889-6.889a.489.489,0,0,1,.689,0l3.931,3.931a.489.489,0,0,1,0,.689Zm10.942,9.847c-1.634-2.958-4.782-8.281-7.632-10.861l2.864-2.864c1.418,2.107,5.12,8.2,4.768,13.724Z" transform="translate(-3.65 -1.68)" fill="#fff"/>
      </g>
    </g>
  </g>
</svg>
