<svg xmlns="http://www.w3.org/2000/svg" width="137" height="137" viewBox="0 0 137 137">
  <g id="selected_3" data-name="selected 3" transform="translate(2650 -5332)">
    <g id="Group_1015" data-name="Group 1015" transform="translate(-3087 -174)">
      <circle id="Ellipse_41" data-name="Ellipse 41" cx="68.5" cy="68.5" r="68.5" transform="translate(574 5506) rotate(90)" fill="#903"/>
    </g>
    <g id="Group_1016" data-name="Group 1016" transform="translate(-2615.813 5367.188)">
      <path id="Path_831" data-name="Path 831" d="M2,2H6.709V4.354H2Z" transform="translate(-2 -2)" fill="#fff"/>
      <path id="Path_832" data-name="Path 832" d="M8,2h7.063V4.354H8Z" transform="translate(-0.937 -2)" fill="#fff"/>
      <path id="Path_833" data-name="Path 833" d="M58,2h4.709V4.354H58Z" transform="translate(7.922 -2)" fill="#fff"/>
      <path id="Path_834" data-name="Path 834" d="M50,2h7.063V4.354H50Z" transform="translate(6.504 -2)" fill="#fff"/>
      <path id="Path_835" data-name="Path 835" d="M44.784,56.15h-.965l2.025-12.172A22.131,22.131,0,0,0,57.733,24.366a22.366,22.366,0,1,0-44.733,0A22.131,22.131,0,0,0,24.889,43.978L26.914,56.15h-.965a3.532,3.532,0,0,0,0,7.063h1.177v2.354H25.949a1.177,1.177,0,0,0-1.177,1.177V69.1A3.532,3.532,0,0,0,28.3,72.63H42.429A3.532,3.532,0,0,0,45.961,69.1V66.744a1.177,1.177,0,0,0-1.177-1.177H43.606V63.213h1.177a3.532,3.532,0,1,0,0-7.063ZM27.11,43.007a1.177,1.177,0,0,0-.637-.859A19.8,19.8,0,0,1,15.354,24.366a20.012,20.012,0,1,1,40.024,0A19.8,19.8,0,0,1,44.26,42.142a1.177,1.177,0,0,0-.637.859L41.432,56.15H36.543V39.67h8.24a1.177,1.177,0,0,0,1.177-1.177V33.784a5.878,5.878,0,0,0-3.873-5.508,5.844,5.844,0,0,0,1.519-3.909V20.618a3.51,3.51,0,0,0-.064-6.65,8.24,8.24,0,0,0-16.353,0,3.51,3.51,0,0,0-.064,6.65v3.748a5.843,5.843,0,0,0,1.519,3.909,5.878,5.878,0,0,0-3.873,5.508v4.709a1.177,1.177,0,0,0,1.177,1.177h8.24V56.15H29.3ZM36.543,9.181a5.9,5.9,0,0,1,4.591,4.591H36.543Zm-2.354,4.591H29.6a5.9,5.9,0,0,1,4.591-4.591ZM28.3,16.126H42.429a1.177,1.177,0,1,1,0,2.354H28.3a1.177,1.177,0,1,1,0-2.354Zm1.177,4.709H41.252v3.532A3.532,3.532,0,0,1,37.721,27.9H33.012a3.532,3.532,0,0,1-3.532-3.532Zm2.354,9.417H38.9v2.354H31.835Zm9.417.217a3.532,3.532,0,0,1,2.354,3.315v3.532H41.252Zm-11.772,0v6.846H27.126V33.784a3.532,3.532,0,0,1,2.354-3.315Zm2.354,4.492H38.9v2.354H31.835ZM43.606,69.1a1.177,1.177,0,0,1-1.177,1.177H28.3A1.177,1.177,0,0,1,27.126,69.1V67.922h16.48Zm-2.354-3.532H29.48V63.213H41.252Zm3.532-4.709H25.949a1.177,1.177,0,0,1,0-2.354H44.784a1.177,1.177,0,1,1,0,2.354Z" transform="translate(-0.051 -2)" fill="#fff"/>
      <path id="Path_836" data-name="Path 836" d="M64.012,41.063h-.891l.63-.631a1.177,1.177,0,0,0,0-1.665l-3.33-3.329a1.211,1.211,0,0,0-1.665,0l-.63.63v-.891A1.177,1.177,0,0,0,56.949,34H52.24a1.177,1.177,0,0,0-1.177,1.177v.891l-.63-.63a1.177,1.177,0,0,0-1.665,0l-3.33,3.329a1.177,1.177,0,0,0,0,1.665l.63.631h-.891A1.177,1.177,0,0,0,44,42.24v4.709a1.177,1.177,0,0,0,1.177,1.177h.891l-.63.631a1.177,1.177,0,0,0,0,1.665l3.33,3.329a1.211,1.211,0,0,0,1.665,0l.63-.63v.891a1.177,1.177,0,0,0,1.177,1.177h4.709a1.177,1.177,0,0,0,1.177-1.177v-.891l.63.63a1.177,1.177,0,0,0,1.665,0l3.33-3.329a1.177,1.177,0,0,0,0-1.665l-.63-.631h.891a1.177,1.177,0,0,0,1.177-1.177V42.24A1.177,1.177,0,0,0,64.012,41.063Zm-1.177,4.709H60.278a1.177,1.177,0,0,0-.832,2.009l1.808,1.808-1.666,1.665-1.807-1.807a1.177,1.177,0,0,0-2.009.832v2.556H53.417V50.279a1.177,1.177,0,0,0-2.009-.832L49.6,51.254l-1.666-1.665,1.808-1.808a1.177,1.177,0,0,0-.832-2.009H46.354V43.417h2.557a1.177,1.177,0,0,0,.832-2.009L47.935,39.6,49.6,37.935l1.807,1.807a1.177,1.177,0,0,0,2.009-.832V36.354h2.354V38.91a1.177,1.177,0,0,0,2.009.832l1.807-1.807L61.254,39.6l-1.808,1.808a1.177,1.177,0,0,0,.832,2.009h2.557Z" transform="translate(5.441 3.67)" fill="#fff"/>
      <path id="Path_837" data-name="Path 837" d="M53.532,40a3.532,3.532,0,1,0,3.532,3.532A3.532,3.532,0,0,0,53.532,40Zm0,4.709a1.177,1.177,0,1,1,1.177-1.177A1.177,1.177,0,0,1,53.532,44.709Z" transform="translate(6.504 4.733)" fill="#fff"/>
      <path id="Path_838" data-name="Path 838" d="M22.012,41.063h-.891l.63-.631a1.177,1.177,0,0,0,0-1.665l-3.33-3.329a1.211,1.211,0,0,0-1.665,0l-.63.63v-.891A1.177,1.177,0,0,0,14.949,34H10.24a1.177,1.177,0,0,0-1.177,1.177v.891l-.63-.63a1.177,1.177,0,0,0-1.665,0l-3.33,3.329a1.177,1.177,0,0,0,0,1.665l.63.631H3.177A1.177,1.177,0,0,0,2,42.24v4.709a1.177,1.177,0,0,0,1.177,1.177h.891l-.63.631a1.177,1.177,0,0,0,0,1.665l3.33,3.329a1.211,1.211,0,0,0,1.665,0l.63-.63v.891a1.177,1.177,0,0,0,1.177,1.177h4.709a1.177,1.177,0,0,0,1.177-1.177v-.891l.63.63a1.177,1.177,0,0,0,1.665,0l3.33-3.329a1.177,1.177,0,0,0,0-1.665l-.63-.631h.891a1.177,1.177,0,0,0,1.177-1.177V42.24A1.177,1.177,0,0,0,22.012,41.063Zm-1.177,4.709H18.278a1.177,1.177,0,0,0-.832,2.009l1.808,1.808-1.666,1.665-1.807-1.807a1.177,1.177,0,0,0-2.009.832v2.556H11.417V50.279a1.177,1.177,0,0,0-2.009-.832L7.6,51.254,5.935,49.589l1.808-1.808a1.177,1.177,0,0,0-.832-2.009H4.354V43.417H6.911a1.177,1.177,0,0,0,.832-2.009L5.935,39.6,7.6,37.935l1.807,1.807a1.177,1.177,0,0,0,2.009-.832V36.354h2.354V38.91a1.177,1.177,0,0,0,2.009.832l1.807-1.807L19.254,39.6l-1.808,1.808a1.177,1.177,0,0,0,.832,2.009h2.557Z" transform="translate(-2 3.67)" fill="#fff"/>
      <path id="Path_839" data-name="Path 839" d="M11.532,40a3.532,3.532,0,1,0,3.532,3.532A3.532,3.532,0,0,0,11.532,40Zm0,4.709a1.177,1.177,0,1,1,1.177-1.177A1.177,1.177,0,0,1,11.532,44.709Z" transform="translate(-0.937 4.733)" fill="#fff"/>
      <path id="Path_840" data-name="Path 840" d="M2,8H6.709v2.354H2Z" transform="translate(-2 -0.937)" fill="#fff"/>
      <path id="Path_841" data-name="Path 841" d="M8,8h7.063v2.354H8Z" transform="translate(-0.937 -0.937)" fill="#fff"/>
      <path id="Path_842" data-name="Path 842" d="M58,8h4.709v2.354H58Z" transform="translate(7.922 -0.937)" fill="#fff"/>
      <path id="Path_843" data-name="Path 843" d="M50,8h7.063v2.354H50Z" transform="translate(6.504 -0.937)" fill="#fff"/>
    </g>
  </g>
</svg>
