<svg xmlns="http://www.w3.org/2000/svg" width="137" height="137" viewBox="0 0 137 137">
  <g id="Group_1118" data-name="Group 1118" transform="translate(-17770.078 -4325.479)">
    <g id="Group_1114" data-name="Group 1114" transform="translate(17333.078 -161.521)">
      <circle id="Ellipse_41" data-name="Ellipse 41" cx="68.5" cy="68.5" r="68.5" transform="translate(574 4487) rotate(90)" fill="#903"/>
    </g>
    <path id="risk-factors_18820032" d="M41.053,58.643a7.69,7.69,0,1,0,7.69,7.69,7.69,7.69,0,0,0-7.69-7.69ZM74.38,72.694a1.353,1.353,0,1,1,1.913,1.913l-4.208,4.208a1.353,1.353,0,0,1-1.913,0l-2.1-2.1A1.353,1.353,0,1,1,69.981,74.8l1.147,1.148Zm0,13.643a1.353,1.353,0,1,1,1.913,1.913l-4.208,4.208a1.353,1.353,0,0,1-1.913,0l-2.1-2.1a1.353,1.353,0,1,1,1.913-1.913l1.147,1.148Zm4.848-9.229a1.353,1.353,0,1,1,0-2.706h17.91a1.353,1.353,0,0,1,0,2.706Zm0,13.643a1.353,1.353,0,0,1,0-2.706h17.91a1.353,1.353,0,0,1,0,2.706Zm0,5a1.353,1.353,0,1,1,0-2.706h8.955a1.353,1.353,0,1,1,0,2.706Zm0-13.643a1.353,1.353,0,0,1,0-2.706h8.955a1.353,1.353,0,0,1,0,2.706ZM41.053,76.73A20.409,20.409,0,0,0,20.7,95.611a.152.152,0,0,0,.163.177h40.39a.151.151,0,0,0,.163-.177A20.409,20.409,0,0,0,41.053,76.73Zm-6.013-1.915a10.4,10.4,0,0,1,8.988-18.446L64.72,20.527a5.044,5.044,0,0,1,8.751-.005L97.8,62.654h0a5.05,5.05,0,0,1-4.373,7.584H50.69a10.435,10.435,0,0,1-3.624,4.575,23.14,23.14,0,0,1,17.04,20.606,2.874,2.874,0,0,1-2.858,3.074H20.858A2.868,2.868,0,0,1,18,95.421,23.14,23.14,0,0,1,35.039,74.815Zm16.341-7.281A10.4,10.4,0,0,0,46.5,57.476L67.055,21.87a2.352,2.352,0,0,1,4.079.005L95.461,64.007h0a2.339,2.339,0,0,1-2.042,3.528ZM69.1,33.6a3.389,3.389,0,0,0-3.382,3.382V49.821a3.382,3.382,0,0,0,6.765,0V36.979A3.389,3.389,0,0,0,69.1,33.6Zm0,2.706a.682.682,0,0,0-.676.676V49.821a.677.677,0,0,0,1.353,0V36.979A.682.682,0,0,0,69.1,36.3Zm0,21.632a1.353,1.353,0,1,0,1.353,1.353A1.353,1.353,0,0,0,69.1,57.934Zm0-2.706a4.059,4.059,0,1,0,4.059,4.059A4.059,4.059,0,0,0,69.1,55.228Z" transform="translate(17770.92 4325.303)" fill="#fff" fill-rule="evenodd"/>
  </g>
</svg>
