<svg xmlns="http://www.w3.org/2000/svg" width="137" height="137" viewBox="0 0 137 137">
  <g id="_selected_1" data-name=" selected 1" transform="translate(388.5 -4821.929)">
    <g id="Group_1017" data-name="Group 1017" transform="translate(-825.5 334.929)">
      <circle id="Ellipse_41" data-name="Ellipse 41" cx="68.5" cy="68.5" r="68.5" transform="translate(574 4487) rotate(90)" fill="#903"/>
      <g id="Layer_1-2" transform="translate(470.343 4516.524)">
        <g id="LOG" transform="translate(0 0)">
          <g id="Base" transform="translate(0 0)">
            <g id="Group_323" data-name="Group 323">
              <rect id="Rectangle_300" data-name="Rectangle 300" width="20.422" height="2.928" rx="1.464" transform="translate(12.931 15.914)" fill="#fff"/>
              <rect id="Rectangle_301" data-name="Rectangle 301" width="33.676" height="2.928" rx="1.464" transform="translate(12.753 21.494)" fill="#fff"/>
              <rect id="Rectangle_302" data-name="Rectangle 302" width="33.676" height="2.928" rx="1.464" transform="translate(12.753 27.073)" fill="#fff"/>
              <path id="Path_844" data-name="Path 844" d="M71.158,34.615l-5.187-5.341V16.4a1.785,1.785,0,0,0-.5-1.243L51.252.514A1.68,1.68,0,0,0,50.046,0H11A5.371,5.371,0,0,0,5.687,5.417V29.272L.5,34.615A1.779,1.779,0,0,0,0,35.858V62.213A1.732,1.732,0,0,0,1.706,63.97H5.687v4.407A5.372,5.372,0,0,0,11,73.795H60.658a5.372,5.372,0,0,0,5.312-5.417V63.97h3.981a1.732,1.732,0,0,0,1.706-1.757V35.858a1.783,1.783,0,0,0-.5-1.243Zm-5.187-2.857L68.246,34.1H65.971Zm-15.925-30L64.264,16.4H50.046ZM7.393,5.417A3.633,3.633,0,0,1,11,1.757H48.34V16.4a1.733,1.733,0,0,0,1.706,1.757H64.264V34.1H7.393ZM5.687,31.758V34.1H3.412ZM64.264,68.377a3.635,3.635,0,0,1-3.606,3.66H11a3.634,3.634,0,0,1-3.606-3.66V63.97h56.87Zm5.687-6.164H1.706V35.858H69.951Z" transform="translate(0 0)" fill="#fff"/>
            </g>
          </g>
          <g id="LOG-2" transform="translate(16.246 41.009)">
            <path id="Path_845" data-name="Path 845" d="M122.024,294.348h6.552v2.9H118.26V281.63h3.764v12.719Z" transform="translate(-118.26 -281.403)" fill="#fff"/>
            <path id="Path_846" data-name="Path 846" d="M205.532,288.494a9.2,9.2,0,0,1-.848,4.043,6.263,6.263,0,0,1-2.407,2.707,6.7,6.7,0,0,1-3.555.949,6.805,6.805,0,0,1-3.539-.917,6.242,6.242,0,0,1-2.407-2.622,8.949,8.949,0,0,1-.906-3.914v-.88a9.254,9.254,0,0,1,.842-4.048,6.243,6.243,0,0,1,2.413-2.707,6.742,6.742,0,0,1,3.577-.955,6.642,6.642,0,0,1,3.539.944,6.368,6.368,0,0,1,2.419,2.687,8.989,8.989,0,0,1,.874,3.994v.719Zm-3.829-.654a6.565,6.565,0,0,0-.777-3.533A2.5,2.5,0,0,0,198.7,283.1q-2.831,0-2.991,4.246l-.01,1.148a6.752,6.752,0,0,0,.761,3.529,2.489,2.489,0,0,0,2.262,1.233,2.4,2.4,0,0,0,2.2-1.212,6.563,6.563,0,0,0,.783-3.485Z" transform="translate(-181.092 -280.14)" fill="#fff"/>
            <path id="Path_847" data-name="Path 847" d="M309.473,293.99a6.055,6.055,0,0,1-2.542,1.555,10.988,10.988,0,0,1-3.668.59,6.535,6.535,0,0,1-4.9-1.877,7.589,7.589,0,0,1-1.962-5.223l-.01-1.351a9.293,9.293,0,0,1,.816-4.027,6.044,6.044,0,0,1,2.332-2.649,6.6,6.6,0,0,1,3.513-.928,6.912,6.912,0,0,1,4.53,1.335,5.656,5.656,0,0,1,1.881,3.984h-3.625a2.958,2.958,0,0,0-.836-1.865,2.7,2.7,0,0,0-1.823-.558,2.456,2.456,0,0,0-2.187,1.2,6.408,6.408,0,0,0-.783,3.432v.944a6.276,6.276,0,0,0,.8,3.513,2.825,2.825,0,0,0,2.515,1.174,3.161,3.161,0,0,0,2.188-.654v-2.423h-2.616v-2.584h6.381v6.413Z" transform="translate(-270.309 -280.08)" fill="#fff"/>
          </g>
        </g>
      </g>
    </g>
  </g>
</svg>
