<svg xmlns="http://www.w3.org/2000/svg" xmlns:xlink="http://www.w3.org/1999/xlink" width="84.264" height="84.264" viewBox="0 0 84.264 84.264">
  <defs>
    <clipPath id="clip-path">
      <path id="path2251" d="M0-682.665H53.326v53.326H0Z" transform="translate(0 682.665)" fill="none" stroke="#fff" stroke-width="1"/>
    </clipPath>
  </defs>
  <g id="Group_1_icons_-_selected_1" data-name="Group 1 icons - selected 1" transform="translate(18605.793 -3200.608)">
    <circle id="Ellipse_390" data-name="Ellipse 390" cx="42.132" cy="42.132" r="42.132" transform="translate(-18521.529 3200.608) rotate(90)" fill="#903"/>
    <g id="g2241" transform="translate(-18590.322 3893.931)">
      <g id="g2243" transform="translate(4.293 -664.472)">
        <path id="path2245" d="M0-125.017V-135.61m44.742,0v10.593" transform="translate(0 135.61)" fill="none" stroke="#fff" stroke-linecap="round" stroke-linejoin="round" stroke-miterlimit="10" stroke-width="1"/>
      </g>
      <g id="g2247" transform="translate(0 -682.665)">
        <g id="g2249" clip-path="url(#clip-path)">
          <g id="g2255" transform="translate(0.781 0.915)">
            <path id="path2257" d="M-3.219-198.049a2.057,2.057,0,0,1,.75-2.8l23.733-13.7a2.264,2.264,0,0,1,1.125-.281,2.256,2.256,0,0,1,1.125.281l23.733,13.7a2.054,2.054,0,0,1,.75,2.8,2.05,2.05,0,0,1-2.8.75L22.389-210.469-.42-197.3A2.053,2.053,0,0,1-3.219-198.049Z" transform="translate(3.492 214.83)" fill="none" stroke="#fff" stroke-linecap="round" stroke-linejoin="round" stroke-miterlimit="10" stroke-width="1"/>
          </g>
          <g id="g2259" transform="translate(0.782 48.596)">
            <path id="path2261" d="M-286.194-45.017h-23.772a.48.48,0,0,1-.478-.478v-2.858a.48.48,0,0,1,.478-.478h50.806a.48.48,0,0,1,.478.478V-45.5a.48.48,0,0,1-.478.478H-282.59" transform="translate(310.445 48.832)" fill="none" stroke="#fff" stroke-linecap="round" stroke-linejoin="round" stroke-miterlimit="10" stroke-width="1"/>
          </g>
          <g id="g2263" transform="translate(0.782 28.786)">
            <path id="path2265" d="M-327.2,0h23.559a.48.48,0,0,1,.478.478V3.336a.48.48,0,0,1-.478.478H-354.45a.48.48,0,0,1-.478-.478V.478A.48.48,0,0,1-354.45,0h23.772" transform="translate(354.928)" fill="none" stroke="#fff" stroke-linecap="round" stroke-linejoin="round" stroke-miterlimit="10" stroke-width="1"/>
          </g>
          <g id="g2267" transform="translate(3.678 32.6)">
            <path id="path2269" d="M0,0H11.245V2.943a.466.466,0,0,1-.463.464H.463A.466.466,0,0,1,0,2.943Z" fill="none" stroke="#fff" stroke-linecap="round" stroke-linejoin="round" stroke-miterlimit="10" stroke-width="1"/>
          </g>
          <g id="g2271" transform="translate(3.678 45.189)">
            <path id="path2273" d="M0-40.209H11.245v-2.941a.467.467,0,0,0-.463-.467H.463A.467.467,0,0,0,0-43.149Z" transform="translate(0 43.616)" fill="none" stroke="#fff" stroke-linecap="round" stroke-linejoin="round" stroke-miterlimit="10" stroke-width="1"/>
          </g>
          <path id="path2275" d="M75.06-212.528h6.876v-9.182H75.06Z" transform="translate(-69.197 257.717)" fill="none" stroke="#fff" stroke-linecap="round" stroke-linejoin="round" stroke-miterlimit="10" stroke-width="1"/>
          <g id="g2277" transform="translate(21.038 32.6)">
            <path id="path2279" d="M0,0H11.248V2.943a.467.467,0,0,1-.466.464H.466A.467.467,0,0,1,0,2.943Z" fill="none" stroke="#fff" stroke-linecap="round" stroke-linejoin="round" stroke-miterlimit="10" stroke-width="1"/>
          </g>
          <g id="g2281" transform="translate(21.038 45.189)">
            <path id="path2283" d="M0-40.209H11.248v-2.941a.468.468,0,0,0-.466-.467H.466A.468.468,0,0,0,0-43.149Z" transform="translate(0 43.616)" fill="none" stroke="#fff" stroke-linecap="round" stroke-linejoin="round" stroke-miterlimit="10" stroke-width="1"/>
          </g>
          <path id="path2285" d="M297.329-212.528H304.2v-9.182h-6.873Z" transform="translate(-274.103 257.717)" fill="none" stroke="#fff" stroke-linecap="round" stroke-linejoin="round" stroke-miterlimit="10" stroke-width="1"/>
          <g id="g2287" transform="translate(38.4 32.6)">
            <path id="path2289" d="M0,0H11.248V2.943a.467.467,0,0,1-.466.464H.466A.467.467,0,0,1,0,2.943Z" fill="none" stroke="#fff" stroke-linecap="round" stroke-linejoin="round" stroke-miterlimit="10" stroke-width="1"/>
          </g>
          <g id="g2291" transform="translate(38.4 45.189)">
            <path id="path2293" d="M0-40.209H11.248v-2.941a.468.468,0,0,0-.466-.467H.466A.468.468,0,0,0,0-43.149Z" transform="translate(0 43.616)" fill="none" stroke="#fff" stroke-linecap="round" stroke-linejoin="round" stroke-miterlimit="10" stroke-width="1"/>
          </g>
          <path id="path2295" d="M519.6-212.528h6.873v-9.182H519.6Z" transform="translate(-479.009 257.717)" fill="none" stroke="#fff" stroke-linecap="round" stroke-linejoin="round" stroke-miterlimit="10" stroke-width="1"/>
          <g id="g2297" transform="translate(24.277 9.893)">
            <path id="path2299" d="M-29.511-59.025a2.507,2.507,0,0,0,2.5-2.5,2.507,2.507,0,0,0-2.5-2.5,2.506,2.506,0,0,0-2.5,2.5A2.506,2.506,0,0,0-29.511-59.025Z" transform="translate(32.012 64.027)" fill="none" stroke="#fff" stroke-linecap="round" stroke-linejoin="round" stroke-miterlimit="10" stroke-width="1"/>
          </g>
          <g id="g2301" transform="translate(13.641 18.818)">
            <path id="path2303" d="M-37.269-16.473a1.4,1.4,0,0,1-1.4,1.4c-.382,0-1.762.006-1.762.006v-2.8h1.762A1.4,1.4,0,0,1-37.269-16.473Z" transform="translate(40.427 17.869)" fill="none" stroke="#fff" stroke-linecap="round" stroke-linejoin="round" stroke-miterlimit="10" stroke-width="1"/>
          </g>
          <g id="g2305" transform="translate(13.641 21.611)">
            <path id="path2307" d="M-43.7-19.271a1.633,1.633,0,0,1-1.633,1.633c-.447,0-2.07.007-2.07.007V-20.9h2.07A1.633,1.633,0,0,1-43.7-19.271Z" transform="translate(47.4 20.904)" fill="none" stroke="#fff" stroke-linecap="round" stroke-linejoin="round" stroke-miterlimit="10" stroke-width="1"/>
          </g>
          <g id="g2309" transform="translate(20.283 18.818)">
            <path id="path2311" d="M0-71.592l2.278-5.981a.137.137,0,0,1,.254,0l2.257,5.981" transform="translate(0 77.658)" fill="none" stroke="#fff" stroke-linecap="round" stroke-linejoin="round" stroke-miterlimit="10" stroke-width="1"/>
          </g>
          <g id="g2313" transform="translate(20.993 23.395)">
            <path id="path2315" d="M0,0H3.38" fill="none" stroke="#fff" stroke-linecap="round" stroke-linejoin="round" stroke-miterlimit="10" stroke-width="1"/>
          </g>
          <g id="g2317" transform="translate(28.26 18.818)">
            <path id="path2319" d="M0-71.592v-6.055l4.094,5.928c.076.11.157.056.157-.077l-.057-5.862" transform="translate(0 77.658)" fill="none" stroke="#fff" stroke-linecap="round" stroke-linejoin="round" stroke-miterlimit="10" stroke-width="1"/>
          </g>
          <g id="g2321" transform="translate(36.342 18.742)">
            <path id="path2323" d="M0,0V6.142" fill="none" stroke="#fff" stroke-linecap="round" stroke-linejoin="round" stroke-miterlimit="10" stroke-width="1"/>
          </g>
          <g id="g2325" transform="translate(36.538 18.82)">
            <path id="path2327" d="M-36.673,0-39.78,2.856l3.325,3.208" transform="translate(39.78)" fill="none" stroke="#fff" stroke-linecap="round" stroke-linejoin="round" stroke-miterlimit="10" stroke-width="1"/>
          </g>
        </g>
      </g>
    </g>
  </g>
</svg>
