<svg xmlns="http://www.w3.org/2000/svg" width="137" height="137" viewBox="0 0 137 137">
  <g id="_selected_3" data-name=" selected 3" transform="translate(46.5 -4821.929)">
    <circle id="Ellipse_421" data-name="Ellipse 421" cx="68.5" cy="68.5" r="68.5" transform="translate(90.5 4821.929) rotate(90)" fill="#903"/>
    <g id="Group_1020" data-name="Group 1020" transform="translate(-21.505 4848.328)">
      <path id="Path_850" data-name="Path 850" d="M64.681,76.774a32.522,32.522,0,0,1-10.353,3.806l-.5,6.158H42.91l-.5-6.156a32.568,32.568,0,0,1-12.6-5.224l-4.711,4-7.72-7.72,4-4.711a32.573,32.573,0,0,1-5.223-12.6L10,53.827V42.91l6.156-.5a32.568,32.568,0,0,1,5.224-12.6l-4-4.711,7.72-7.72,4.711,4a32.573,32.573,0,0,1,12.6-5.223L42.91,10H53.827l.5,6.158a32.57,32.57,0,0,1,12.6,5.222l4.711-4,7.72,7.72-4,4.71a32.573,32.573,0,0,1,5.223,12.6l6.157.5V53.827l-6.156.5a32.53,32.53,0,0,1-3.806,10.353" transform="translate(-10 -10)" fill="none" stroke="#fff" stroke-linecap="round" stroke-linejoin="round" stroke-miterlimit="22.926" stroke-width="2" fill-rule="evenodd"/>
      <ellipse id="Ellipse_148" data-name="Ellipse 148" cx="22.672" cy="22.672" rx="22.672" ry="22.672" transform="translate(12.537 19.376) rotate(-8.679)" fill="none" stroke="#fff" stroke-linecap="round" stroke-linejoin="round" stroke-miterlimit="22.926" stroke-width="2"/>
      <path id="Path_851" data-name="Path 851" d="M203.952,161.679l-11.93-.109L190,174.23l3.617,1.017-.858,10.192,10.74-14.376-4.123-1.034Z" transform="translate(-158.608 -135.136)" fill="none" stroke="#fff" stroke-linecap="round" stroke-linejoin="round" stroke-miterlimit="22.926" stroke-width="2" fill-rule="evenodd"/>
      <circle id="Ellipse_149" data-name="Ellipse 149" cx="15.696" cy="15.696" r="15.696" transform="translate(47.912 70.11) rotate(-45)" fill="none" stroke="#fff" stroke-linecap="round" stroke-linejoin="round" stroke-miterlimit="22.926" stroke-width="2"/>
      <path id="Path_852" data-name="Path 852" d="M385.953,385.335l-9.3,9.3L372,389.986" transform="translate(-308.867 -319.876)" fill="none" stroke="#fff" stroke-linecap="round" stroke-linejoin="round" stroke-miterlimit="22.926" stroke-width="2" fill-rule="evenodd"/>
    </g>
  </g>
</svg>
