<svg xmlns="http://www.w3.org/2000/svg" width="137" height="137" viewBox="0 0 137 137">
  <g id="_selected_4" data-name=" selected 4" transform="translate(-4913.5 -4607.5)">
    <g id="Group_1044" data-name="Group 1044" transform="translate(4476.5 120.5)">
      <circle id="Ellipse_41" data-name="Ellipse 41" cx="68.5" cy="68.5" r="68.5" transform="translate(574 4487) rotate(90)" fill="#903"/>
    </g>
    <g id="deadline_6289257" transform="translate(4943.137 4640.121)">
      <path id="Path_1703" data-name="Path 1703" d="M72.37,22.759a1.138,1.138,0,0,0,1.139-1.139V15.55h0a4.217,4.217,0,0,0,4.213-4.211V4.211A4.217,4.217,0,0,0,73.513,0H4.211A4.216,4.216,0,0,0,0,4.211v7.127A4.216,4.216,0,0,0,4.211,15.55h.006V63.483a6.247,6.247,0,0,0,6.241,6.239h28.7a21.719,21.719,0,0,0,34.35-26.567V26.934a1.139,1.139,0,1,0-2.277,0V40.527a21.856,21.856,0,0,0-4.5-3.407,4.582,4.582,0,1,0-7.852-3.206,4.642,4.642,0,0,0,.037.561,21.811,21.811,0,0,0-2.917-.2c-.09,0-.179,0-.269,0,.01-.122.017-.245.017-.368a4.585,4.585,0,1,0-8.586,2.245,21.8,21.8,0,0,0-6.151,4.133,4.584,4.584,0,0,0-5.134,7.529,21.579,21.579,0,0,0-.739,2.12L30.549,46.6a4.586,4.586,0,1,0-1.6,1.653l5.636,4.1a21.869,21.869,0,0,0-.068,6.89,1.139,1.139,0,1,0,2.252-.338A19.448,19.448,0,1,1,56,75.448,19.442,19.442,0,0,1,38.148,63.72a1.138,1.138,0,1,0-2.09.9,21.8,21.8,0,0,0,1.474,2.821H10.458a3.967,3.967,0,0,1-3.964-3.962V15.55h11.8a1.139,1.139,0,1,0,0-2.277H4.211a1.936,1.936,0,0,1-1.934-1.934V4.211A1.936,1.936,0,0,1,4.211,2.277h69.3a1.937,1.937,0,0,1,1.936,1.934v7.127a1.937,1.937,0,0,1-1.936,1.934H23.606a1.139,1.139,0,1,0,0,2.277H71.231V21.62a1.138,1.138,0,0,0,1.139,1.139ZM26.561,46.648A2.308,2.308,0,1,1,28.87,44.34,2.311,2.311,0,0,1,26.561,46.648Zm9.994-2.308a2.3,2.3,0,0,1,2.781-2.257,21.825,21.825,0,0,0-2.4,3.522,2.3,2.3,0,0,1-.377-1.265Zm12.3-10.426a2.308,2.308,0,1,1,4.557.519,21.556,21.556,0,0,0-4.073.892A2.289,2.289,0,0,1,48.856,33.914Zm12.3,0a2.308,2.308,0,1,1,3.305,2.081,21.548,21.548,0,0,0-3.056-1.035,2.291,2.291,0,0,1-.25-1.045Z" fill="#fff"/>
      <path id="Path_1704" data-name="Path 1704" d="M149.349,124.515a4.585,4.585,0,1,0,4.585,4.585A4.59,4.59,0,0,0,149.349,124.515Zm0,6.893a2.308,2.308,0,1,1,2.308-2.308A2.311,2.311,0,0,1,149.349,131.408Z" transform="translate(-122.788 -105.613)" fill="#fff"/>
      <path id="Path_1705" data-name="Path 1705" d="M230.384,124.515a4.585,4.585,0,1,0,4.585,4.585A4.59,4.59,0,0,0,230.384,124.515Zm0,6.893a2.308,2.308,0,1,1,2.308-2.308A2.311,2.311,0,0,1,230.384,131.408Z" transform="translate(-191.521 -105.613)" fill="#fff"/>
      <path id="Path_1706" data-name="Path 1706" d="M306.834,129.1a4.585,4.585,0,1,0,4.585-4.585A4.59,4.59,0,0,0,306.834,129.1Zm6.893,0a2.308,2.308,0,1,1-2.308-2.308A2.311,2.311,0,0,1,313.727,129.1Z" transform="translate(-260.254 -105.613)" fill="#fff"/>
      <path id="Path_1707" data-name="Path 1707" d="M387.869,129.1a4.585,4.585,0,1,0,4.585-4.585A4.59,4.59,0,0,0,387.869,129.1Zm6.893,0a2.308,2.308,0,1,1-2.308-2.308A2.311,2.311,0,0,1,394.762,129.1Z" transform="translate(-328.987 -105.613)" fill="#fff"/>
      <path id="Path_1708" data-name="Path 1708" d="M68.314,193.2a4.585,4.585,0,1,0,4.585,4.585A4.59,4.59,0,0,0,68.314,193.2Zm0,6.893a2.308,2.308,0,1,1,2.308-2.308A2.311,2.311,0,0,1,68.314,200.09Z" transform="translate(-54.054 -163.868)" fill="#fff"/>
      <path id="Path_1709" data-name="Path 1709" d="M149.349,193.2a4.585,4.585,0,1,0,4.585,4.585A4.59,4.59,0,0,0,149.349,193.2Zm0,6.893a2.308,2.308,0,1,1,2.308-2.308A2.311,2.311,0,0,1,149.349,200.09Z" transform="translate(-122.788 -163.868)" fill="#fff"/>
      <path id="Path_1710" data-name="Path 1710" d="M230.384,193.2a4.585,4.585,0,1,0,4.585,4.585A4.59,4.59,0,0,0,230.384,193.2Zm0,6.893a2.308,2.308,0,1,1,2.308-2.308A2.311,2.311,0,0,1,230.384,200.09Z" transform="translate(-191.521 -163.868)" fill="#fff"/>
      <path id="Path_1711" data-name="Path 1711" d="M68.314,261.878a4.585,4.585,0,1,0,4.585,4.585A4.59,4.59,0,0,0,68.314,261.878Zm0,6.893a2.308,2.308,0,1,1,2.308-2.308A2.311,2.311,0,0,1,68.314,268.771Z" transform="translate(-54.054 -222.123)" fill="#fff"/>
      <path id="Path_1712" data-name="Path 1712" d="M68.314,330.56a4.585,4.585,0,1,0,4.585,4.585A4.59,4.59,0,0,0,68.314,330.56Zm0,6.893a2.308,2.308,0,1,1,2.308-2.308A2.311,2.311,0,0,1,68.314,337.453Z" transform="translate(-54.054 -280.378)" fill="#fff"/>
      <path id="Path_1713" data-name="Path 1713" d="M325.551,333.31a7.758,7.758,0,1,0-7.758-7.758A7.767,7.767,0,0,0,325.551,333.31Zm0-13.24a5.481,5.481,0,1,1-5.481,5.481A5.487,5.487,0,0,1,325.551,320.07Z" transform="translate(-269.55 -269.55)" fill="#fff"/>
      <path id="Path_1714" data-name="Path 1714" d="M350.487,353.784a3.3,3.3,0,1,0-3.3-3.3A3.3,3.3,0,0,0,350.487,353.784Zm0-4.314a1.018,1.018,0,1,1-1.018,1.018A1.019,1.019,0,0,1,350.487,349.47Z" transform="translate(-294.486 -294.486)" fill="#fff"/>
      <path id="Path_1715" data-name="Path 1715" d="M264.2,275.407a.213.213,0,0,1-.174.126l-2.868.284a2.483,2.483,0,0,0-2.244,2.479v4.183a2.484,2.484,0,0,0,2.245,2.479l2.868.285a.212.212,0,0,1,.173.124,12.42,12.42,0,0,0,1.393,2.409.212.212,0,0,1,.023.214l-1.189,2.629a2.483,2.483,0,0,0,1.024,3.184l3.622,2.091a2.482,2.482,0,0,0,3.269-.7l1.681-2.342a.214.214,0,0,1,.2-.087,12.694,12.694,0,0,0,2.78,0,.211.211,0,0,1,.2.088l1.681,2.342a2.482,2.482,0,0,0,3.269.7l3.623-2.091a2.483,2.483,0,0,0,1.024-3.183l-1.189-2.629a.213.213,0,0,1,.022-.213,12.422,12.422,0,0,0,1.393-2.409.212.212,0,0,1,.174-.125l2.868-.285a2.483,2.483,0,0,0,2.245-2.479V278.3a2.483,2.483,0,0,0-2.245-2.479h0l-2.868-.284a.212.212,0,0,1-.173-.124A12.366,12.366,0,0,0,285.629,273a.215.215,0,0,1-.023-.215l1.189-2.628a2.484,2.484,0,0,0-1.024-3.185l-3.622-2.091a2.483,2.483,0,0,0-3.27.7L277.2,267.93a.211.211,0,0,1-.2.087,12.6,12.6,0,0,0-2.782,0,.213.213,0,0,1-.2-.087l-1.682-2.343a2.483,2.483,0,0,0-3.269-.7l-3.623,2.091a2.484,2.484,0,0,0-1.024,3.184l1.188,2.627a.215.215,0,0,1-.022.215A12.384,12.384,0,0,0,264.2,275.407Zm2.086.912a10.106,10.106,0,0,1,1.138-1.968,2.5,2.5,0,0,0,.265-2.5l-1.189-2.627a.214.214,0,0,1,.088-.274l3.623-2.091a.213.213,0,0,1,.28.061l1.681,2.343a2.493,2.493,0,0,0,2.3,1.023,10.3,10.3,0,0,1,2.276,0,2.491,2.491,0,0,0,2.3-1.023l1.681-2.342a.213.213,0,0,1,.281-.061l3.622,2.091a.214.214,0,0,1,.089.274l-1.189,2.628a2.5,2.5,0,0,0,.266,2.506,10.1,10.1,0,0,1,1.138,1.968,2.492,2.492,0,0,0,2.035,1.478l2.867.284a.214.214,0,0,1,.193.213v4.183a.214.214,0,0,1-.193.213l-2.867.285a2.491,2.491,0,0,0-2.036,1.479,10.149,10.149,0,0,1-1.138,1.968,2.492,2.492,0,0,0-.265,2.5l1.189,2.629a.213.213,0,0,1-.088.273l-3.623,2.091a.213.213,0,0,1-.28-.061l-1.681-2.341a2.492,2.492,0,0,0-2.022-1.039,2.462,2.462,0,0,0-.275.015,10.43,10.43,0,0,1-2.278,0,2.491,2.491,0,0,0-2.3,1.023l-1.681,2.342a.213.213,0,0,1-.281.06l-3.622-2.091a.213.213,0,0,1-.088-.274l1.189-2.629a2.493,2.493,0,0,0-.266-2.5,10.16,10.16,0,0,1-1.138-1.969,2.492,2.492,0,0,0-2.035-1.478l-2.867-.285a.214.214,0,0,1-.193-.213V278.3a.214.214,0,0,1,.193-.213l2.868-.284A2.493,2.493,0,0,0,266.287,276.319Z" transform="translate(-219.609 -224.385)" fill="#fff"/>
    </g>
  </g>
</svg>
