<svg xmlns="http://www.w3.org/2000/svg" width="137" height="137" viewBox="0 0 137 137">
  <g id="_selected_1" data-name=" selected 1" transform="translate(-11583.252 -4612.569)">
    <g id="Group_1079" data-name="Group 1079" transform="translate(11146.252 125.569)">
      <circle id="Ellipse_41" data-name="Ellipse 41" cx="68.5" cy="68.5" r="68.5" transform="translate(574 4487) rotate(90)" fill="#903"/>
    </g>
    <g id="risks-management_16746172" transform="translate(11592.783 4620.159)">
      <path id="Path_1649" data-name="Path 1649" d="M79.012,94a2.012,2.012,0,1,0,2.012,2.012A2.015,2.015,0,0,0,79.012,94Z" transform="translate(-20.048 -24.034)" fill="#fff"/>
      <path id="Path_1650" data-name="Path 1650" d="M101.343,77.681A1.342,1.342,0,0,0,100.176,77h-32.2a1.342,1.342,0,0,0-1.15,2.032l2.852,4.754a5.393,5.393,0,0,0,4.6,2.605h8.454v3.354a2.686,2.686,0,0,1-2.683,2.683H68.65V90.415a9.391,9.391,0,1,0-18.782,0v2.012h-11.4a2.686,2.686,0,0,1-2.683-2.683V86.391h8.454a5.392,5.392,0,0,0,4.6-2.605l2.852-4.754A1.342,1.342,0,0,0,50.539,77h-32.2a1.342,1.342,0,0,0-1.15,2.032l2.852,4.754a5.393,5.393,0,0,0,4.6,2.605H33.1v3.354a5.372,5.372,0,0,0,5.366,5.366h11.4a9.7,9.7,0,0,1-1.577,5.313l-4.507,6.761H40.477a5.372,5.372,0,0,0-5.366,5.366v2.683a4.029,4.029,0,0,0,4.025,4.025H79.382a4.029,4.029,0,0,0,4.025-4.025v-2.683a5.372,5.372,0,0,0-5.366-5.366H74.734l-4.507-6.761a9.7,9.7,0,0,1-1.577-5.313h11.4a5.372,5.372,0,0,0,5.366-5.366V86.391h8.454a5.392,5.392,0,0,0,4.6-2.605l2.852-4.754a1.341,1.341,0,0,0,.017-1.351Zm-79,4.724-1.633-2.722H48.169l-1.633,2.722a2.7,2.7,0,0,1-2.3,1.3H24.645a2.7,2.7,0,0,1-2.3-1.3ZM72.9,109.27a1.341,1.341,0,0,0,1.116.6h4.025a2.686,2.686,0,0,1,2.683,2.683v2.683a1.343,1.343,0,0,1-1.342,1.342H39.136a1.343,1.343,0,0,1-1.342-1.342v-2.683a2.686,2.686,0,0,1,2.683-2.683H67.308a1.342,1.342,0,1,0,0-2.683h-20.3l3.515-5.272a12.033,12.033,0,0,0,2.028-6.7v-4.8a6.708,6.708,0,1,1,13.415,0v4.8a12.033,12.033,0,0,0,2.028,6.7ZM96.174,82.405a2.7,2.7,0,0,1-2.3,1.3H74.282a2.7,2.7,0,0,1-2.3-1.3l-1.633-2.722H97.806Z" transform="translate(-0.295 -18.437)" fill="#fff"/>
      <path id="Path_1651" data-name="Path 1651" d="M118.389,26.75l-1.536.916a13.17,13.17,0,0,0-2.613-1.507V24.354A3.358,3.358,0,0,0,110.885,21h-4.025a3.358,3.358,0,0,0-3.354,3.354l.027,1.79a13.147,13.147,0,0,0-2.615,1.507l-1.562-.9a3.358,3.358,0,0,0-4.581,1.228l-2.012,3.485a3.353,3.353,0,0,0,1.228,4.581l1.559.871a12.718,12.718,0,0,0-.093,1.525,12.159,12.159,0,0,0,.092,1.5l-1.559.9a3.357,3.357,0,0,0-1.228,4.581L94.775,48.9a3.353,3.353,0,0,0,4.581,1.228l1.536-.916a13.189,13.189,0,0,0,2.613,1.507v1.805a3.358,3.358,0,0,0,3.354,3.354h4.025a3.358,3.358,0,0,0,3.354-3.354l-.027-1.79a13.145,13.145,0,0,0,2.615-1.507l1.562.9a3.353,3.353,0,0,0,4.581-1.228l2.012-3.485a3.358,3.358,0,0,0-1.228-4.581l-1.559-.871a12.737,12.737,0,0,0,.093-1.525,12.161,12.161,0,0,0-.092-1.5l1.559-.9a3.353,3.353,0,0,0,1.228-4.581l-2.012-3.485a3.357,3.357,0,0,0-4.581-1.228Zm4.337,6.564a.668.668,0,0,1-.313.407l-1.559.9a2.657,2.657,0,0,0-1.323,2.612,10.006,10.006,0,0,1,0,2.415,2.658,2.658,0,0,0,1.323,2.612l1.559.9a.671.671,0,0,1,.245.916l-2.012,3.485a.671.671,0,0,1-.916.246l-1.562-.9a2.657,2.657,0,0,0-2.913.152,10.706,10.706,0,0,1-2.111,1.216,2.66,2.66,0,0,0-1.59,2.448v1.805a.671.671,0,0,1-.671.671H106.86a.671.671,0,0,1-.671-.671V50.721a2.658,2.658,0,0,0-1.589-2.447,10.7,10.7,0,0,1-2.111-1.216,2.629,2.629,0,0,0-1.566-.514,2.692,2.692,0,0,0-1.346.362l-1.562.9a.671.671,0,0,1-.916-.246l-2.012-3.485a.671.671,0,0,1,.246-.916l1.559-.9a2.657,2.657,0,0,0,1.323-2.612,9.972,9.972,0,0,1,0-2.416,2.658,2.658,0,0,0-1.323-2.612l-1.559-.9a.671.671,0,0,1-.246-.916L97.1,29.319a.671.671,0,0,1,.916-.246l1.562.9a2.659,2.659,0,0,0,2.912-.152,10.742,10.742,0,0,1,2.111-1.217,2.658,2.658,0,0,0,1.589-2.447V24.354a.671.671,0,0,1,.671-.671h4.025a.671.671,0,0,1,.671.671v1.805a2.658,2.658,0,0,0,1.589,2.447,10.7,10.7,0,0,1,2.111,1.217,2.659,2.659,0,0,0,2.912.152l1.562-.9a.671.671,0,0,1,.916.246l2.012,3.485a.665.665,0,0,1,.068.509Z" transform="translate(-25.09)" fill="#fff"/>
      <path id="Path_1652" data-name="Path 1652" d="M113.708,37a6.708,6.708,0,1,0,6.708,6.708A6.715,6.715,0,0,0,113.708,37Zm0,10.732a4.025,4.025,0,1,1,4.025-4.025A4.029,4.029,0,0,1,113.708,47.732Z" transform="translate(-29.925 -5.268)" fill="#fff"/>
      <path id="Path_1653" data-name="Path 1653" d="M22.152,56.871H46.139a6.037,6.037,0,0,0,5.229-9.054L39.375,27.028a6.038,6.038,0,0,0-10.459,0L16.923,47.816a6.037,6.037,0,0,0,5.229,9.054Zm-2.905-7.713L31.24,28.369a3.354,3.354,0,0,1,5.81,0L49.044,49.157a3.354,3.354,0,0,1-2.905,5.03H22.152a3.354,3.354,0,0,1-2.905-5.03Z" transform="translate(0 -0.99)" fill="#fff"/>
      <path id="Path_1654" data-name="Path 1654" d="M42.342,50.348a1.342,1.342,0,0,0,1.342-1.342V40.175a1.342,1.342,0,0,0-2.683,0v8.832A1.342,1.342,0,0,0,42.342,50.348Z" transform="translate(-8.196 -5.871)" fill="#fff"/>
      <path id="Path_1655" data-name="Path 1655" d="M42.342,62.354a1.342,1.342,0,0,0,1.342-1.342v-.671a1.342,1.342,0,0,0-2.683,0v.671A1.342,1.342,0,0,0,42.342,62.354Z" transform="translate(-8.196 -12.511)" fill="#fff"/>
    </g>
  </g>
</svg>
