<svg xmlns="http://www.w3.org/2000/svg" xmlns:xlink="http://www.w3.org/1999/xlink" width="195.912" height="139.057" viewBox="0 0 195.912 139.057">
  <defs>
    <clipPath id="clip-path">
      <rect id="Rectangle_2" data-name="Rectangle 2" width="195.912" height="139.057" fill="#903"/>
    </clipPath>
  </defs>
  <g id="Sound_Mining_logo" data-name="Sound Mining logo" transform="translate(-96)">
    <g id="Group_1" data-name="Group 1" transform="translate(96)" clip-path="url(#clip-path)">
      <path id="Path_1" data-name="Path 1" d="M190.008,18.443C171.589-7.6,115.421-5.85,64.577,22.361A167.581,167.581,0,0,0,22.425,54.874,103.169,103.169,0,0,0,8.992,72.381C2.947,82.466-.049,92.2.015,101.052A32.613,32.613,0,0,0,5.9,120.612c7,9.879,19.4,15.736,34.848,17.7l1.133.141.445.047a93.1,93.1,0,0,0,9.633.553h1.2c23.384-.056,51.51-7.564,78.165-22.363,50.875-28.211,77.149-72.2,58.687-98.251m-67.1,92.506C77.386,136.2,27.2,137.829,10.749,114.6s7.135-62.523,52.622-87.773,95.706-26.88,112.145-3.646-7.1,62.552-52.59,87.763Z" transform="translate(0 0)" fill="#903"/>
      <path id="Path_2" data-name="Path 2" d="M45.428,67.345a8.076,8.076,0,0,0,1.641-.141,3.7,3.7,0,0,0,1.059-.4,1.569,1.569,0,0,0,.593-.59,2.229,2.229,0,0,0,.222-.769,1.535,1.535,0,0,0-.8-1.49,13.177,13.177,0,0,0-3.176-1.275c-.656-.216-1.3-.459-1.958-.731a6.834,6.834,0,0,1-1.715-1.031,4.275,4.275,0,0,1-1.164-1.5,4.082,4.082,0,0,1-.3-2.156,5.162,5.162,0,0,1,.794-2.277,5.823,5.823,0,0,1,1.694-1.734,8.126,8.126,0,0,1,2.541-1.1,12.459,12.459,0,0,1,3.176-.384,14.063,14.063,0,0,1,3.567.394,13.047,13.047,0,0,1,2.414.881l-1.662,3.243a12.894,12.894,0,0,0-1.852-.7,9.225,9.225,0,0,0-2.541-.337,5.442,5.442,0,0,0-2.435.412,1.5,1.5,0,0,0-.857,1.247,1.281,1.281,0,0,0,.18.844,2.206,2.206,0,0,0,.7.628,7.38,7.38,0,0,0,1.059.5c.413.15.868.309,1.366.459q1.38.463,2.7,1.05a6.391,6.391,0,0,1,1.863,1.2,3.816,3.816,0,0,1,1.059,1.612,5.76,5.76,0,0,1,.159,2.24,5.122,5.122,0,0,1-2.414,3.974,11.566,11.566,0,0,1-6.256,1.415,17.621,17.621,0,0,1-2.456-.15,16.476,16.476,0,0,1-1.927-.356,10.935,10.935,0,0,1-1.408-.45,8.847,8.847,0,0,1-.984-.45l1.63-3.271a11.148,11.148,0,0,0,2.2.806,13.074,13.074,0,0,0,3.292.394" transform="translate(2.244 -3.249)" fill="#903"/>
      <path id="Path_3" data-name="Path 3" d="M76.4,61.327a10.871,10.871,0,0,1-1.2,4.133,9.756,9.756,0,0,1-2.456,2.98,10.23,10.23,0,0,1-3.451,1.8,13.9,13.9,0,0,1-4.128.609,12.336,12.336,0,0,1-3.927-.609,8.249,8.249,0,0,1-3.112-1.809,7.5,7.5,0,0,1-1.905-2.98,9.565,9.565,0,0,1-.4-4.133,10.147,10.147,0,0,1,3.79-7.132,10.827,10.827,0,0,1,3.462-1.818,13.251,13.251,0,0,1,3.98-.609,12.348,12.348,0,0,1,3.938.609,8.23,8.23,0,0,1,3.1,1.818,7.406,7.406,0,0,1,1.905,3,9.416,9.416,0,0,1,.4,4.143m-15.773,0a7.491,7.491,0,0,0,.148,2.427,4.87,4.87,0,0,0,.889,1.874,4.21,4.21,0,0,0,1.6,1.2,5.7,5.7,0,0,0,2.287.422,6.318,6.318,0,0,0,2.35-.422,5.312,5.312,0,0,0,1.853-1.2,6.347,6.347,0,0,0,1.26-1.874,7.8,7.8,0,0,0,.6-2.427,7.1,7.1,0,0,0-.127-2.446,4.848,4.848,0,0,0-.889-1.874,4.083,4.083,0,0,0-1.609-1.2,5.737,5.737,0,0,0-2.265-.422,6.15,6.15,0,0,0-2.371.441,5.421,5.421,0,0,0-1.831,1.209,6.082,6.082,0,0,0-1.26,1.874,7.652,7.652,0,0,0-.635,2.418" transform="translate(3.265 -3.248)" fill="#903"/>
      <path id="Path_4" data-name="Path 4" d="M86.08,70.887a11.194,11.194,0,0,1-3.694-.544,6.27,6.27,0,0,1-2.467-1.509,5.166,5.166,0,0,1-1.291-2.315,8.12,8.12,0,0,1-.2-2.952l1.133-11.35h4.658L83.159,63.257a5.321,5.321,0,0,0,.1,1.874A2.892,2.892,0,0,0,83.9,66.4a2.45,2.45,0,0,0,1.122.7,5.144,5.144,0,0,0,1.514.216,3.929,3.929,0,0,0,4.224-4.077L91.818,52.2H96.5l-1.164,11.4a8.938,8.938,0,0,1-.794,2.962,6.938,6.938,0,0,1-1.778,2.306,7.912,7.912,0,0,1-2.805,1.49,12.721,12.721,0,0,1-3.874.534" transform="translate(4.591 -3.276)" fill="#903"/>
      <path id="Path_5" data-name="Path 5" d="M111.841,70.513q-1.683-3.139-3.716-6.2a55.948,55.948,0,0,0-4.372-5.773l-1.186,11.978H97.974l1.81-18.295h3.79a28.824,28.824,0,0,1,1.958,2.146c.709.853,1.44,1.743,2.117,2.7s1.45,1.959,2.117,2.99,1.376,2.015,2,2.962l1.059-10.8h4.753l-1.81,18.295Z" transform="translate(5.739 -3.277)" fill="#903"/>
      <path id="Path_6" data-name="Path 6" d="M138.274,61.342a10.253,10.253,0,0,1-1.249,4.143,8.977,8.977,0,0,1-2.7,2.9,12.087,12.087,0,0,1-3.917,1.743,20.179,20.179,0,0,1-5.007.581c-.836,0-1.81,0-2.911-.094a25.889,25.889,0,0,1-3.2-.356l1.757-17.808a29.866,29.866,0,0,1,3.387-.356c1.175-.066,2.17-.094,3.006-.094a19.96,19.96,0,0,1,4.764.525,9.264,9.264,0,0,1,3.546,1.668,6.543,6.543,0,0,1,2.117,2.9,9.634,9.634,0,0,1,.4,4.255m-14.026,5.811h1.81a8.048,8.048,0,0,0,5.293-1.556,6.167,6.167,0,0,0,2.117-4.3,5.141,5.141,0,0,0-1.175-4.358q-1.461-1.472-4.954-1.481h-.984c-.322.007-.644.029-.963.066Z" transform="translate(6.988 -3.263)" fill="#903"/>
      <path id="Path_7" data-name="Path 7" d="M38.75,77.478c.307.581.646,1.293,1.059,2.146s.783,1.781,1.2,2.812.8,2.015,1.207,3.046.762,2.024,1.059,2.934c.529-.937,1.059-1.874,1.694-2.934s1.207-2.053,1.81-3.046,1.186-1.874,1.747-2.812,1.059-1.565,1.45-2.146h4.234c.074,1.209.127,2.568.148,4.077s0,3.074,0,4.686-.074,3.262-.127,4.9-.106,3.177-.169,4.621H49.527c.116-1.781.222-3.749.339-5.811s.159-4.208.169-6.336c-.423.74-.91,1.556-1.44,2.456l-1.567,2.69L45.536,91.34l-1.228,2.1h-3.25c-.222-.581-.487-1.284-.8-2.1s-.646-1.678-.984-2.577-.688-1.79-1.059-2.69l-.953-2.456c-.413,2.128-.773,4.246-1.059,6.336s-.572,4.03-.8,5.811H30.864c.212-1.443.466-2.99.73-4.621s.55-3.271.847-4.9.593-3.187.91-4.686.635-2.868.953-4.077Z" transform="translate(1.808 -4.862)" fill="#903"/>
      <path id="Path_8" data-name="Path 8" d="M58.494,77.478h4.658l-1.81,18.295H56.684Z" transform="translate(3.32 -4.862)" fill="#903"/>
      <path id="Path_9" data-name="Path 9" d="M79.451,95.792c-1.122-2.1-2.361-4.161-3.705-6.2A56.724,56.724,0,0,0,71.364,83.8L70.178,95.792H65.584l1.81-18.314h3.79c.6.581,1.249,1.293,1.969,2.137s1.429,1.743,2.117,2.709,1.45,1.949,2.117,2.98,1.387,2.015,2.011,2.971l1.059-10.8h4.626l-1.81,18.295Z" transform="translate(3.842 -4.862)" fill="#903"/>
      <path id="Path_10" data-name="Path 10" d="M88.694,77.478h4.647l-1.81,18.295H86.884Z" transform="translate(5.089 -4.862)" fill="#903"/>
      <path id="Path_11" data-name="Path 11" d="M109.651,95.792c-1.122-2.1-2.361-4.161-3.716-6.2a54.923,54.923,0,0,0-4.372-5.783l-1.186,11.987H95.784l1.81-18.314h3.79c.593.581,1.249,1.293,1.958,2.137s1.44,1.743,2.117,2.709,1.45,1.949,2.117,2.98,1.376,2.015,2,2.971l1.059-10.8h4.626l-1.81,18.295Z" transform="translate(5.61 -4.862)" fill="#903"/>
      <path id="Path_12" data-name="Path 12" d="M128.658,80.636A6.67,6.67,0,0,0,123.8,82.23a6.873,6.873,0,0,0-1.874,4.368,7.4,7.4,0,0,0,.116,2.446,4.475,4.475,0,0,0,.889,1.874,4.1,4.1,0,0,0,1.662,1.228,6.342,6.342,0,0,0,2.466.441h1.323a8.855,8.855,0,0,0,.984-.1l.625-6.364h4.658l-.9,9.054a19.464,19.464,0,0,1-2.742.619,26.605,26.605,0,0,1-4.594.328,12.692,12.692,0,0,1-4.16-.628,7.959,7.959,0,0,1-3.049-1.874,7.19,7.19,0,0,1-1.778-2.99,10.111,10.111,0,0,1-.339-4.04,10.616,10.616,0,0,1,1.207-4.058,10.086,10.086,0,0,1,2.509-3,10.836,10.836,0,0,1,3.472-1.874,13.335,13.335,0,0,1,4.107-.628,18.333,18.333,0,0,1,2.625.169,17.162,17.162,0,0,1,1.99.394,9.454,9.454,0,0,1,1.355.469,7.627,7.627,0,0,1,.752.366l-1.7,3.318a11.605,11.605,0,0,0-2.117-.778,10.291,10.291,0,0,0-2.625-.328" transform="translate(6.854 -4.834)" fill="#903"/>
    </g>
  </g>
</svg>
