<svg xmlns="http://www.w3.org/2000/svg" width="119" height="119" viewBox="0 0 119 119">
  <g id="Group_1112" data-name="Group 1112" transform="translate(-16044.001 -4213.264)">
    <g id="Group_854" data-name="Group 854" transform="translate(16044.424 4213.554)">
      <circle id="Ellipse_101" data-name="Ellipse 101" cx="59.5" cy="59.5" r="59.5" transform="translate(118.577 -0.29) rotate(90)" fill="#e0b2c2"/>
    </g>
    <g id="equal_16884870" transform="translate(16071.5 4240.545)">
      <path id="Path_1596" data-name="Path 1596" d="M54,44a8.009,8.009,0,0,0-8,8v5a1,1,0,0,0,1,1H61a1,1,0,0,0,1-1V52A8.009,8.009,0,0,0,54,44Zm6,12H48V52a6,6,0,0,1,12,0Z" fill="#c26685"/>
      <path id="Path_1597" data-name="Path 1597" d="M58,38a4,4,0,1,0-4,4A4,4,0,0,0,58,38Zm-6,0a2,2,0,1,1,2,2A2,2,0,0,1,52,38Z" fill="#c26685"/>
      <path id="Path_1598" data-name="Path 1598" d="M32,44a8.009,8.009,0,0,0-8,8v5a1,1,0,0,0,1,1H39a1,1,0,0,0,1-1V52A8.009,8.009,0,0,0,32,44Zm6,12H26V52a6,6,0,0,1,12,0Z" fill="#c26685"/>
      <path id="Path_1599" data-name="Path 1599" d="M28,38a4,4,0,1,0,4-4A4,4,0,0,0,28,38Zm4-2a2,2,0,1,1-2,2A2,2,0,0,1,32,36Z" fill="#c26685"/>
      <path id="Path_1600" data-name="Path 1600" d="M10,44a8.009,8.009,0,0,0-8,8v5a1,1,0,0,0,1,1H17a1,1,0,0,0,1-1V52A8.009,8.009,0,0,0,10,44Zm6,12H4V52a6,6,0,0,1,12,0Z" fill="#c26685"/>
      <path id="Path_1601" data-name="Path 1601" d="M14,38a4,4,0,1,0-4,4A4,4,0,0,0,14,38ZM8,38a2,2,0,1,1,2,2A2,2,0,0,1,8,38Z" fill="#c26685"/>
      <path id="Path_1602" data-name="Path 1602" d="M25,30.262V27.148h2a2.778,2.778,0,0,0,3-2.473V8.473A2.778,2.778,0,0,0,27,6H5A2.778,2.778,0,0,0,2,8.473v16.2a2.778,2.778,0,0,0,3,2.473H15.586a.28.28,0,0,1,.114.021l6,4.419A2.193,2.193,0,0,0,23,32a2.273,2.273,0,0,0,1.024-.24,1.679,1.679,0,0,0,.978-1.5Zm-2-3.377V30a.187.187,0,0,1-.114-.022l-6-4.42a2.206,2.206,0,0,0-1.3-.409H5c-.622,0-1-.329-1-.473V8.473C4,8.329,4.378,8,5,8H21.584a.992.992,0,0,0,.683.276h3A.992.992,0,0,0,25.949,8H27c.622,0,1,.329,1,.473v16.2c0,.145-.378.473-1,.473H25a1.862,1.862,0,0,0-2,1.736Z" fill="#c26685"/>
      <path id="Path_1603" data-name="Path 1603" d="M59,6H37a2.778,2.778,0,0,0-3,2.473v16.2a2.778,2.778,0,0,0,3,2.473h2v3.114a1.679,1.679,0,0,0,.978,1.5A2.273,2.273,0,0,0,41,32a2.2,2.2,0,0,0,1.3-.412l6-4.416a.26.26,0,0,1,.118-.023H59a2.778,2.778,0,0,0,3-2.473V8.473A2.778,2.778,0,0,0,59,6Zm1,18.675c0,.145-.378.473-1,.473H48.414a2.2,2.2,0,0,0-1.3.41l-6,4.419A.281.281,0,0,1,41,30V26.885a1.862,1.862,0,0,0-2-1.736H37c-.622,0-1-.329-1-.473V8.473C36,8.329,36.378,8,37,8H59c.622,0,1,.329,1,.473Z" fill="#c26685"/>
      <path id="Path_1604" data-name="Path 1604" d="M55,18H41a1,1,0,0,0,0,2H55a1,1,0,0,0,0-2Z" fill="#c26685"/>
      <path id="Path_1605" data-name="Path 1605" d="M55,12H45.667a1,1,0,0,0,0,2H55a1,1,0,0,0,0-2Z" fill="#c26685"/>
      <path id="Path_1606" data-name="Path 1606" d="M23,18H9a1,1,0,0,0,0,2H23a1,1,0,0,0,0-2Z" fill="#c26685"/>
      <path id="Path_1607" data-name="Path 1607" d="M9,14h9.333a1,1,0,0,0,0-2H9a1,1,0,0,0,0,2Z" fill="#c26685"/>
    </g>
  </g>
</svg>
