<svg xmlns="http://www.w3.org/2000/svg" width="119" height="119" viewBox="0 0 119 119">
  <g id="Group_1110" data-name="Group 1110" transform="translate(-15726 -4213.264)">
    <g id="Group_1105" data-name="Group 1105" transform="translate(15726.158 4213.554)">
      <circle id="Ellipse_100" data-name="Ellipse 100" cx="59.5" cy="59.5" r="59.5" transform="translate(118.842 -0.29) rotate(90)" fill="#e0b2c2"/>
    </g>
    <g id="paint_13701778" transform="translate(15474.199 3894.802)">
      <g id="ICON" transform="translate(279 347.997)">
        <path id="Path_1639" data-name="Path 1639" d="M295.019,395.894l1.92,3.839a1.112,1.112,0,0,0,1,.616h7.453l-2.958,10.887a1.114,1.114,0,1,0,2.15.584l3.116-11.471h7.2l3.116,11.471a1.114,1.114,0,1,0,2.15-.584L317.2,400.349h7.463a1.112,1.112,0,0,0,1-.616l1.92-3.839h14.9a1.114,1.114,0,0,0,1.114-1.114V349.111A1.114,1.114,0,0,0,342.487,348H280.114A1.114,1.114,0,0,0,279,349.111V394.78a1.114,1.114,0,0,0,1.114,1.114Zm3.6,2.228h25.355l1.114-2.228H297.509Zm13.8-4.455h28.947V350.225H281.228v43.442H310.2l-.007-4.792h-.564a4.339,4.339,0,0,1-4.339-4.339v0a6.4,6.4,0,0,0-1.549-4.172,9.76,9.76,0,0,1-2.46-6.5,10.025,10.025,0,0,1,20.049,0,9.849,9.849,0,0,1-2.446,6.5,6.391,6.391,0,0,0-1.527,3.643c-.013.174-.028.67-.042.74a4.338,4.338,0,0,1-4.334,4.126h-.559Zm-.01-7.019h.562a2.111,2.111,0,0,0,2.112-2.112c0-.086.036-.6.051-.773a8.6,8.6,0,0,1,2.054-4.851l.006-.007a7.628,7.628,0,0,0,1.9-5.041,7.8,7.8,0,0,0-15.593,0,7.539,7.539,0,0,0,1.906,5.025l.011.012a8.625,8.625,0,0,1,2.093,5.631v0a2.11,2.11,0,0,0,2.112,2.112h.56l-.017-10.3-1.286-.849a1.114,1.114,0,0,1,1.226-1.86l1.192.786,1.192-.786a1.114,1.114,0,0,1,1.226,1.86l-1.322.872Zm14.023-19.06-1.243.506a1.114,1.114,0,1,0,.84,2.064l1.243-.506a1.114,1.114,0,0,0-.84-2.064Zm-29.033.443-1.241-.511a1.114,1.114,0,1,0-.849,2.059l1.241.512a1.114,1.114,0,0,0,.849-2.061Zm-.2-5.61,2.326,2.326a1.114,1.114,0,1,0,1.576-1.575l-2.326-2.326a1.114,1.114,0,1,0-1.576,1.575Zm26.578-1.575-2.326,2.326a1.114,1.114,0,0,0,1.575,1.575l2.326-2.326a1.114,1.114,0,1,0-1.575-1.575Zm-7.125-1.859-.511,1.241a1.114,1.114,0,1,0,2.059.849l.511-1.241a1.114,1.114,0,1,0-2.059-.849Zm-10.175,1.22-.506-1.244a1.114,1.114,0,0,0-2.064.84l.506,1.243a1.114,1.114,0,1,0,2.064-.839Zm3.684-4.078v3.357a1.114,1.114,0,0,0,2.228,0v-3.357a1.114,1.114,0,1,0-2.228,0Z" transform="translate(-279 -347.997)" fill="#c26685" fill-rule="evenodd"/>
      </g>
    </g>
  </g>
</svg>
