<svg xmlns="http://www.w3.org/2000/svg" width="119" height="119" viewBox="0 0 119 119">
  <g id="Group_1113" data-name="Group 1113" transform="translate(-16192 -4213.264)">
    <g id="Group_851" data-name="Group 851" transform="translate(16192.158 4213.554)">
      <circle id="Ellipse_100" data-name="Ellipse 100" cx="59.5" cy="59.5" r="59.5" transform="translate(118.842 -0.29) rotate(90)" fill="#e0b2c2"/>
    </g>
    <g id="presentation_12608853" transform="translate(16208.904 4230.169)">
      <g id="Group_882" data-name="Group 882" transform="translate(7.5 7.5)">
        <line id="Line_110" data-name="Line 110" y2="27.442" transform="translate(12.711 42.749)" fill="none" stroke="#c26685" stroke-miterlimit="22.926" stroke-width="1.8"/>
        <path id="Path_1585" data-name="Path 1585" d="M39.619,474.5a2.125,2.125,0,0,0-2.118,2.118v2.118H54.448v-2.118A2.125,2.125,0,0,0,52.33,474.5Z" transform="translate(-33.264 -408.546)" fill="none" stroke="#c26685" stroke-miterlimit="22.926" stroke-width="1.8" fill-rule="evenodd"/>
        <path id="Path_1586" data-name="Path 1586" d="M73.212,96.5l.916-3.62m5.945,3.62-.887-3.636" transform="translate(-63.931 -80.806)" fill="none" stroke="#c26685" stroke-miterlimit="22.926" stroke-width="1.8" fill-rule="evenodd"/>
        <path id="Path_1587" data-name="Path 1587" d="M70.592,47.126a2.12,2.12,0,0,0-2.114-2.117H62.114A2.12,2.12,0,0,0,60,47.126" transform="translate(-52.585 -39.712)" fill="none" stroke="#c26685" stroke-miterlimit="22.926" stroke-width="1.8" fill-rule="evenodd"/>
        <path id="Path_1588" data-name="Path 1588" d="M65.3,7.5a5.312,5.312,0,0,1,5.3,5.3v2.118a5.3,5.3,0,1,1-10.592,0V12.8A5.312,5.312,0,0,1,65.3,7.5Z" transform="translate(-52.585 -7.501)" fill="none" stroke="#c26685" stroke-miterlimit="22.926" stroke-width="1.8" fill-rule="evenodd"/>
        <line id="Line_111" data-name="Line 111" x1="4.767" transform="translate(0 28.691)" fill="none" stroke="#c26685" stroke-miterlimit="22.926" stroke-width="1.8"/>
        <line id="Line_112" data-name="Line 112" x2="15.888" transform="translate(4.767 36.394)" fill="none" stroke="#c26685" stroke-miterlimit="22.926" stroke-width="1.8"/>
        <path id="Path_1589" data-name="Path 1589" d="M26.566,145.726l1.589-24.265v-18.3l17.626-6.987a2.377,2.377,0,0,0,1.287-3.115,2.506,2.506,0,0,0-3.115-1.287L32.392,95.024l-8.751.439m-6.86,0-5.235,1.291a5.23,5.23,0,0,0-4.045,4.9v9.986m0,2.119v5.055a2.656,2.656,0,0,0,2.648,2.648h2.118m1.589,24.265-1.589-24.265v-18.3" transform="translate(-7.5 -79.772)" fill="none" stroke="#c26685" stroke-miterlimit="22.926" stroke-width="1.8" fill-rule="evenodd"/>
        <path id="Path_1590" data-name="Path 1590" d="M183.749,48.515V37.5h45.3V71.775h-5.3m-2.118,0H183.749v-16.8" transform="translate(-158.857 -33.263)" fill="none" stroke="#c26685" stroke-miterlimit="22.926" stroke-width="1.8" fill-rule="evenodd"/>
        <path id="Path_1591" data-name="Path 1591" d="M474.5,62.118V60m0,6.355V64.237" transform="translate(-408.546 -52.585)" fill="none" stroke="#c26685" stroke-miterlimit="22.926" stroke-width="1.8" fill-rule="evenodd"/>
        <path id="Path_1592" data-name="Path 1592" d="M444.5,11.737V9.618a2.118,2.118,0,1,1,4.237,0v2.118" transform="translate(-382.782 -7.5)" fill="none" stroke="#c26685" stroke-miterlimit="22.926" stroke-width="1.8" fill-rule="evenodd"/>
        <path id="Path_1593" data-name="Path 1593" d="M217.986,11.737V9.618a2.118,2.118,0,0,0-4.237,0v2.118" transform="translate(-184.62 -7.5)" fill="none" stroke="#c26685" stroke-miterlimit="22.926" stroke-width="1.8" fill-rule="evenodd"/>
        <line id="Line_113" data-name="Line 113" x2="1.285" y2="5.953" transform="translate(24.892 15.252)" fill="none" stroke="#c26685" stroke-miterlimit="22.926" stroke-width="1.8"/>
        <path id="Path_1594" data-name="Path 1594" d="M73.212,118.607a4.288,4.288,0,0,0,6.86,0" transform="translate(-63.931 -102.915)" fill="none" stroke="#c26685" stroke-miterlimit="22.926" stroke-width="1.8" fill-rule="evenodd"/>
        <path id="Path_1595" data-name="Path 1595" d="M252.407,103.083h6.356m-15.889,8.474h21.714m-21.714,4.237h28.6m-4.767-4.237h4.767M253.466,98.846h5.3m-11.652,8.474h11.652" transform="translate(-209.632 -85.945)" fill="none" stroke="#c26685" stroke-miterlimit="22.926" stroke-width="1.8" fill-rule="evenodd"/>
        <rect id="Rectangle_434" data-name="Rectangle 434" width="8.474" height="8.474" transform="translate(52.308 12.901)" fill="none" stroke="#c26685" stroke-miterlimit="22.926" stroke-width="1.8"/>
      </g>
    </g>
  </g>
</svg>
