<svg xmlns="http://www.w3.org/2000/svg" width="137" height="137" viewBox="0 0 137 137">
  <g id="Group_1107" data-name="Group 1107" transform="translate(-16018.5 -4415.264)">
    <g id="Group_1103" data-name="Group 1103" transform="translate(15581.5 -71.736)">
      <circle id="Ellipse_41" data-name="Ellipse 41" cx="68.5" cy="68.5" r="68.5" transform="translate(574 4487) rotate(90)" fill="#903"/>
    </g>
    <g id="equal_16884870" transform="translate(16047.239 4444.241)">
      <path id="Path_1596" data-name="Path 1596" d="M56.07,44A10.081,10.081,0,0,0,46,54.07v6.293a1.258,1.258,0,0,0,1.259,1.259H64.88a1.258,1.258,0,0,0,1.259-1.259V54.07A10.081,10.081,0,0,0,56.07,44Zm7.552,15.1h-15.1V54.07a7.552,7.552,0,0,1,15.1,0Z" transform="translate(11.383 9.83)" fill="#fff"/>
      <path id="Path_1597" data-name="Path 1597" d="M60.07,39.035a5.035,5.035,0,1,0-5.035,5.035A5.04,5.04,0,0,0,60.07,39.035Zm-7.552,0a2.517,2.517,0,1,1,2.517,2.517A2.52,2.52,0,0,1,52.517,39.035Z" transform="translate(12.417 7.243)" fill="#fff"/>
      <path id="Path_1598" data-name="Path 1598" d="M34.07,44A10.081,10.081,0,0,0,24,54.07v6.293a1.258,1.258,0,0,0,1.259,1.259H42.88a1.258,1.258,0,0,0,1.259-1.259V54.07A10.081,10.081,0,0,0,34.07,44Zm7.552,15.1h-15.1V54.07a7.552,7.552,0,1,1,15.1,0Z" transform="translate(5.691 9.83)" fill="#fff"/>
      <path id="Path_1599" data-name="Path 1599" d="M28,39.035A5.035,5.035,0,1,0,33.035,34,5.04,5.04,0,0,0,28,39.035Zm5.035-2.517a2.517,2.517,0,1,1-2.517,2.517A2.52,2.52,0,0,1,33.035,36.517Z" transform="translate(6.726 7.243)" fill="#fff"/>
      <path id="Path_1600" data-name="Path 1600" d="M12.07,44A10.081,10.081,0,0,0,2,54.07v6.293a1.258,1.258,0,0,0,1.259,1.259H20.88a1.258,1.258,0,0,0,1.259-1.259V54.07A10.081,10.081,0,0,0,12.07,44Zm7.552,15.1H4.517V54.07a7.552,7.552,0,0,1,15.1,0Z" transform="translate(0 9.83)" fill="#fff"/>
      <path id="Path_1601" data-name="Path 1601" d="M16.07,39.035a5.035,5.035,0,1,0-5.035,5.035A5.04,5.04,0,0,0,16.07,39.035Zm-7.552,0a2.517,2.517,0,1,1,2.517,2.517A2.52,2.52,0,0,1,8.517,39.035Z" transform="translate(1.035 7.243)" fill="#fff"/>
      <path id="Path_1602" data-name="Path 1602" d="M30.95,36.539V32.619h2.517c2.082,0,3.776-1.4,3.776-3.113V9.113C37.243,7.4,35.55,6,33.467,6H5.776C3.694,6,2,7.4,2,9.113V29.506c0,1.717,1.694,3.113,3.776,3.113H19.1a.353.353,0,0,1,.143.026L26.8,38.207a2.761,2.761,0,0,0,1.634.518,2.861,2.861,0,0,0,1.289-.3,2.113,2.113,0,0,0,1.23-1.884Zm-2.517-4.251v3.921a.236.236,0,0,1-.144-.028l-7.553-5.563A2.776,2.776,0,0,0,19.1,30.1H5.776c-.783,0-1.259-.414-1.259-.6V9.113c0-.182.476-.6,1.259-.6H26.65a1.249,1.249,0,0,0,.859.348h3.776a1.249,1.249,0,0,0,.859-.348h1.323c.783,0,1.259.414,1.259.6V29.506c0,.182-.476.6-1.259.6H30.95a2.344,2.344,0,0,0-2.517,2.186Z" transform="translate(0 0)" fill="#fff"/>
      <path id="Path_1603" data-name="Path 1603" d="M65.467,6H37.776C35.694,6,34,7.4,34,9.113V29.506c0,1.717,1.694,3.113,3.776,3.113h2.517v3.919a2.113,2.113,0,0,0,1.23,1.884,2.861,2.861,0,0,0,1.289.3,2.768,2.768,0,0,0,1.635-.518l7.547-5.558a.327.327,0,0,1,.149-.03H65.467c2.082,0,3.776-1.4,3.776-3.113V9.113C69.243,7.4,67.55,6,65.467,6Zm1.259,23.507c0,.182-.476.6-1.259.6H52.143a2.775,2.775,0,0,0-1.636.516L42.955,36.18a.354.354,0,0,1-.144.028V32.288A2.344,2.344,0,0,0,40.294,30.1H37.776c-.783,0-1.259-.414-1.259-.6V9.113c0-.182.476-.6,1.259-.6H65.467c.783,0,1.259.414,1.259.6Z" transform="translate(8.278 0)" fill="#fff"/>
      <path id="Path_1604" data-name="Path 1604" d="M58.88,18H41.259a1.259,1.259,0,0,0,0,2.517H58.88a1.259,1.259,0,1,0,0-2.517Z" transform="translate(9.83 3.104)" fill="#fff"/>
      <path id="Path_1605" data-name="Path 1605" d="M57.673,12H45.926a1.259,1.259,0,1,0,0,2.517H57.673a1.259,1.259,0,1,0,0-2.517Z" transform="translate(11.038 1.552)" fill="#fff"/>
      <path id="Path_1606" data-name="Path 1606" d="M26.88,18H9.259a1.259,1.259,0,1,0,0,2.517H26.88a1.259,1.259,0,0,0,0-2.517Z" transform="translate(1.552 3.104)" fill="#fff"/>
      <path id="Path_1607" data-name="Path 1607" d="M9.259,14.517H21.007a1.259,1.259,0,0,0,0-2.517H9.259a1.259,1.259,0,0,0,0,2.517Z" transform="translate(1.552 1.552)" fill="#fff"/>
    </g>
  </g>
</svg>
