<svg xmlns="http://www.w3.org/2000/svg" width="137" height="137" viewBox="0 0 137 137">
  <g id="Group_1106" data-name="Group 1106" transform="translate(-16182.5 -4415.264)">
    <g id="Group_1104" data-name="Group 1104" transform="translate(15745.5 -71.736)">
      <circle id="Ellipse_41" data-name="Ellipse 41" cx="68.5" cy="68.5" r="68.5" transform="translate(574 4487) rotate(90)" fill="#903"/>
    </g>
    <g id="presentation_12608853" transform="translate(16204.814 4438.133)">
      <g id="Group_882" data-name="Group 882" transform="translate(7.5 7.5)">
        <line id="Line_110" data-name="Line 110" y2="30.64" transform="translate(14.192 47.73)" fill="none" stroke="#fff" stroke-miterlimit="22.926" stroke-width="2"/>
        <path id="Path_1585" data-name="Path 1585" d="M39.866,474.5a2.372,2.372,0,0,0-2.365,2.365v2.365H56.423v-2.365a2.372,2.372,0,0,0-2.365-2.365Z" transform="translate(-32.77 -400.861)" fill="none" stroke="#fff" stroke-miterlimit="22.926" stroke-width="2" fill-rule="evenodd"/>
        <path id="Path_1586" data-name="Path 1586" d="M73.212,96.922l1.023-4.042m6.637,4.042-.99-4.06" transform="translate(-62.85 -79.402)" fill="none" stroke="#fff" stroke-miterlimit="22.926" stroke-width="2" fill-rule="evenodd"/>
        <path id="Path_1587" data-name="Path 1587" d="M71.826,47.373a2.367,2.367,0,0,0-2.36-2.364H62.36A2.367,2.367,0,0,0,60,47.373" transform="translate(-51.721 -39.094)" fill="none" stroke="#fff" stroke-miterlimit="22.926" stroke-width="2" fill-rule="evenodd"/>
        <path id="Path_1588" data-name="Path 1588" d="M65.913,7.5a5.931,5.931,0,0,1,5.913,5.913V15.78a5.913,5.913,0,1,1-11.826,0V13.414A5.93,5.93,0,0,1,65.913,7.5Z" transform="translate(-51.721 -7.501)" fill="none" stroke="#fff" stroke-miterlimit="22.926" stroke-width="2" fill-rule="evenodd"/>
        <line id="Line_111" data-name="Line 111" x1="5.322" transform="translate(0 32.034)" fill="none" stroke="#fff" stroke-miterlimit="22.926" stroke-width="2"/>
        <line id="Line_112" data-name="Line 112" x2="17.739" transform="translate(5.322 40.634)" fill="none" stroke="#fff" stroke-miterlimit="22.926" stroke-width="2"/>
        <path id="Path_1589" data-name="Path 1589" d="M28.787,152.026l1.774-27.092V104.507l19.68-7.8a2.654,2.654,0,0,0,1.437-3.478A2.8,2.8,0,0,0,48.2,91.791L35.292,95.416l-9.77.491m-7.66,0-5.845,1.442a5.84,5.84,0,0,0-4.516,5.47v11.149m0,2.365v5.644a2.966,2.966,0,0,0,2.957,2.957h2.365M14.6,152.026l-1.774-27.092V104.507" transform="translate(-7.5 -78.387)" fill="none" stroke="#fff" stroke-miterlimit="22.926" stroke-width="2" fill-rule="evenodd"/>
        <path id="Path_1590" data-name="Path 1590" d="M183.749,49.8V37.5h50.578V75.769h-5.913m-2.365,0h-42.3V57.015" transform="translate(-155.957 -32.769)" fill="none" stroke="#fff" stroke-miterlimit="22.926" stroke-width="2" fill-rule="evenodd"/>
        <path id="Path_1591" data-name="Path 1591" d="M474.5,62.365V60m0,7.1V64.731" transform="translate(-400.86 -51.721)" fill="none" stroke="#fff" stroke-miterlimit="22.926" stroke-width="2" fill-rule="evenodd"/>
        <path id="Path_1592" data-name="Path 1592" d="M444.5,12.231V9.865a2.365,2.365,0,1,1,4.731,0v2.365" transform="translate(-375.591 -7.5)" fill="none" stroke="#fff" stroke-miterlimit="22.926" stroke-width="2" fill-rule="evenodd"/>
        <path id="Path_1593" data-name="Path 1593" d="M218.48,12.231V9.865a2.365,2.365,0,0,0-4.731,0v2.365" transform="translate(-181.226 -7.5)" fill="none" stroke="#fff" stroke-miterlimit="22.926" stroke-width="2" fill-rule="evenodd"/>
        <line id="Line_113" data-name="Line 113" x2="1.435" y2="6.647" transform="translate(27.792 17.029)" fill="none" stroke="#fff" stroke-miterlimit="22.926" stroke-width="2"/>
        <path id="Path_1594" data-name="Path 1594" d="M73.212,118.607a4.031,4.031,0,0,0,3.83,1.915,4.032,4.032,0,0,0,3.83-1.915" transform="translate(-62.85 -101.087)" fill="none" stroke="#fff" stroke-miterlimit="22.926" stroke-width="2" fill-rule="evenodd"/>
        <path id="Path_1595" data-name="Path 1595" d="M253.518,103.577h7.1m-17.74,9.461h24.244m-24.244,4.731h31.932m-5.322-4.731h5.322M254.7,98.846h5.914M247.6,108.307h13.009" transform="translate(-205.759 -84.442)" fill="none" stroke="#fff" stroke-miterlimit="22.926" stroke-width="2" fill-rule="evenodd"/>
        <rect id="Rectangle_434" data-name="Rectangle 434" width="9.461" height="9.461" transform="translate(58.403 14.404)" fill="none" stroke="#fff" stroke-miterlimit="22.926" stroke-width="2"/>
      </g>
    </g>
  </g>
</svg>
