<svg xmlns="http://www.w3.org/2000/svg" width="137" height="137" viewBox="0 0 137 137">
  <g id="Group_1109" data-name="Group 1109" transform="translate(-15675.5 -4415.264)">
    <g id="Group_1101" data-name="Group 1101" transform="translate(15238.5 -71.736)">
      <circle id="Ellipse_41" data-name="Ellipse 41" cx="68.5" cy="68.5" r="68.5" transform="translate(574 4487) rotate(90)" fill="#903"/>
    </g>
    <g id="paint_13701778" transform="translate(15428.697 4102.244)">
      <g id="ICON" transform="translate(279 347.997)">
        <path id="Path_1639" data-name="Path 1639" d="M297.278,402.649l2.191,4.381a1.269,1.269,0,0,0,1.136.7h8.5l-3.375,12.423a1.271,1.271,0,0,0,2.453.666l3.556-13.089h8.216l3.556,13.089a1.271,1.271,0,0,0,2.453-.666l-3.375-12.423h8.515a1.269,1.269,0,0,0,1.136-.7l2.191-4.381h17.007a1.271,1.271,0,0,0,1.271-1.271v-52.11A1.271,1.271,0,0,0,351.441,348h-71.17A1.271,1.271,0,0,0,279,349.268v52.11a1.271,1.271,0,0,0,1.271,1.271Zm4.113,2.542h28.931l1.271-2.542H300.12Zm15.75-5.084H350.17V350.539H281.542v49.569H314.6l-.008-5.467h-.643A4.951,4.951,0,0,1,309,389.689v0a7.3,7.3,0,0,0-1.768-4.761,11.136,11.136,0,0,1-2.807-7.413,11.438,11.438,0,0,1,22.876,0,11.238,11.238,0,0,1-2.791,7.419,7.292,7.292,0,0,0-1.742,4.157c-.015.2-.032.765-.048.844a4.95,4.95,0,0,1-4.945,4.707h-.638Zm-.011-8.009h.642a2.408,2.408,0,0,0,2.41-2.41c0-.1.041-.685.058-.882a9.815,9.815,0,0,1,2.344-5.535.033.033,0,0,1,.006-.008,8.7,8.7,0,0,0,2.167-5.752,8.9,8.9,0,0,0-17.792,0,8.6,8.6,0,0,0,2.174,5.734l.013.014a9.841,9.841,0,0,1,2.388,6.426v0a2.408,2.408,0,0,0,2.41,2.41h.639l-.019-11.757-1.468-.968a1.271,1.271,0,0,1,1.4-2.122l1.36.9,1.36-.9a1.271,1.271,0,0,1,1.4,2.122l-1.509,1Zm16-21.748-1.418.577a1.271,1.271,0,1,0,.958,2.355l1.418-.577a1.271,1.271,0,0,0-.958-2.355ZM300,370.857l-1.416-.583a1.271,1.271,0,1,0-.968,2.35l1.416.585a1.271,1.271,0,0,0,.968-2.351Zm-.225-6.4,2.654,2.654a1.271,1.271,0,1,0,1.8-1.8l-2.654-2.654a1.271,1.271,0,0,0-1.8,1.8Zm30.326-1.8-2.654,2.654a1.271,1.271,0,1,0,1.8,1.8l2.654-2.654a1.271,1.271,0,0,0-1.8-1.8Zm-8.13-2.121-.583,1.416a1.271,1.271,0,1,0,2.35.968l.583-1.416a1.271,1.271,0,1,0-2.35-.968Zm-11.61,1.392-.577-1.42a1.271,1.271,0,0,0-2.355.958l.577,1.418a1.271,1.271,0,1,0,2.355-.957Zm4.2-4.653v3.831a1.271,1.271,0,0,0,2.542,0v-3.831a1.271,1.271,0,0,0-2.542,0Z" transform="translate(-279 -347.997)" fill="#fff" fill-rule="evenodd"/>
      </g>
    </g>
  </g>
</svg>
